<?xml version="1.0" encoding="UTF-8"?><svg version="1.1" viewBox="0 0 24 24" xmlns="http://www.w3.org/2000/svg" xmlns:xlink="http://www.w3.org/1999/xlink"><!--Generated by IJSVG (https://github.com/iconjar/IJSVG)--><g fill="none"><path d="M0,0h24v24h-24v-24Z"></path><path stroke="#323232" stroke-dasharray="0 3.3" stroke-linecap="round" stroke-linejoin="round" stroke-width="1.5" d="M4.816,17.388c-1.134,-1.506 -1.816,-3.369 -1.816,-5.388c0,-4.95 4.05,-9 9,-9"></path><path stroke="#323232" stroke-linecap="round" stroke-linejoin="round" stroke-width="1.5" d="M4.816,17.388c1.646,2.186 4.253,3.612 7.184,3.612c4.95,0 9,-4.05 9,-9c0,-4.95 -4.05,-9 -9,-9"></path><path stroke="#323232" stroke-linecap="round" stroke-linejoin="round" stroke-width="1.5" d="M16.2426,7.75736c2.34315,2.34315 2.34315,6.14214 0,8.48528c-2.34315,2.34315 -6.14214,2.34315 -8.48528,0c-2.34315,-2.34315 -2.34315,-6.14214 -1.77636e-15,-8.48528c2.34315,-2.34315 6.14214,-2.34315 8.48528,-1.77636e-15"></path><path stroke="#323232" stroke-linecap="round" stroke-linejoin="round" stroke-width="1.5" d="M12,14.65c-0.028,0 -0.05,0.022 -0.05,0.05c0,0.028 0.022,0.05 0.05,0.05c0.028,0 0.05,-0.022 0.05,-0.05c0,-0.028 -0.022,-0.05 -0.05,-0.05v0"></path><path stroke="#323232" stroke-linecap="round" stroke-linejoin="round" stroke-width="1.5" d="M12.006,12.562c0.841,0 1.523,-0.667 1.556,-1.5c0,-0.863 -0.7,-1.562 -1.562,-1.562c-0.841,0 -1.523,0.667 -1.556,1.5"></path></g></svg>