<?xml version="1.0" encoding="UTF-8"?><svg version="1.1" viewBox="0 0 24 24" xmlns="http://www.w3.org/2000/svg" xmlns:xlink="http://www.w3.org/1999/xlink"><!--Generated by IJSVG (https://github.com/iconjar/IJSVG)--><g fill="none"><path d="M0,0h24v24h-24Z"></path><path stroke="#323232" stroke-linecap="round" stroke-linejoin="round" stroke-width="1.5" d="M14,20h5c1.105,0 2,-0.895 2,-2v-12c0,-1.105 -0.895,-2 -2,-2h-14c-1.105,0 -2,0.895 -2,2v12c0,1.105 0.895,2 2,2h5l2,2l2,-2Z"></path><path stroke="#323232" stroke-linecap="round" stroke-linejoin="round" stroke-width="1.5" d="M9.083,15.992h-1.382c-0.309,0 -0.559,-0.25 -0.559,-0.559v-4.382c0,-0.309 0.25,-0.559 0.559,-0.559h1.382c0.309,0 0.559,0.25 0.559,0.601v4.382c0,0.267 -0.25,0.517 -0.559,0.517Z"></path><path stroke="#323232" stroke-linecap="round" stroke-linejoin="round" stroke-width="1.5" d="M9.642,11.677l1.846,-3.021c0.711,-1.163 2.502,-0.66 2.502,0.704v1.595h0.89h0.62c0.453,0 0.876,0.227 1.128,0.606c0.223,0.335 0.288,0.752 0.177,1.139l-0.732,2.562c-0.124,0.432 -0.519,0.73 -0.968,0.73h-3.583c-0.291,0 -0.574,-0.102 -0.798,-0.288l-1.082,-0.897"></path><path d="M0,0h24v24h-24v-24Z"></path></g></svg>