<svg id="Layer_3" data-name="Layer 3" xmlns="http://www.w3.org/2000/svg" viewBox="0 0 24 24"><path d="M0,0H24V24H0Z" fill="none"/><path d="M16,14.769a2.5095,2.5095,0,1,1,2.5-2.519A2.506,2.506,0,0,1,16,14.769Z" fill="none" stroke="#323232" stroke-linecap="round" stroke-linejoin="round" stroke-width="1.5"/><path d="M20.375,21h-8.75A.62684.62684,0,0,1,11,20.375V19.75a2.50735,2.50735,0,0,1,2.5-2.5h5a2.50735,2.50735,0,0,1,2.5,2.5v.625A.62684.62684,0,0,1,20.375,21Z" fill="none" stroke="#323232" stroke-linecap="round" stroke-linejoin="round" stroke-width="1.5"/><path d="M15.72321,6A6.99172,6.99172,0,1,0,8,16.7063" fill="none" stroke="#323232" stroke-linecap="round" stroke-linejoin="round" stroke-width="1.5"/><path d="M11.333,9.333,9.668,11l-1-1" fill="none" stroke="#323232" stroke-linecap="round" stroke-linejoin="round" stroke-width="1.5"/></svg>