<svg xmlns="http://www.w3.org/2000/svg" viewBox="0 0 24 24"><circle cx="12" cy="7.25" r="1.75" fill="none" stroke="#323232" stroke-linecap="round" stroke-linejoin="round" stroke-width="1.5"/><path d="M9,13.74793a1,1,0,0,0,.23178.64019L10.2,15.55V18a.5.5,0,0,0,.5.5h2.6a.5.5,0,0,0,.5-.5V15.55l.97065-1.1648A.98983.98983,0,0,0,15,13.74793V12.25a1,1,0,0,0-1-1H10a1,1,0,0,0-1,1Z" fill="none" stroke="#323232" stroke-linecap="round" stroke-linejoin="round" stroke-width="1.5"/><rect x="3" y="3" width="18" height="18" rx="5" stroke-width="1.5" stroke="#323232" stroke-linecap="round" stroke-linejoin="round" fill="none"/></svg>