<svg xmlns="http://www.w3.org/2000/svg" viewBox="0 0 24 24"><path d="M6.28763,3.34941,8.49142,6.68612" fill="none" stroke="#323232" stroke-linecap="round" stroke-linejoin="round" stroke-width="1.5"/><path d="M17.724,20.6682l-2.21543-3.35432" fill="none" stroke="#323232" stroke-linecap="round" stroke-linejoin="round" stroke-width="1.5"/><rect x="3" y="3" width="18" height="18" rx="5" stroke-width="1.5" stroke="#323232" stroke-linecap="round" stroke-linejoin="round" fill="none"/><line x1="12" y1="7.5" x2="12" y2="8.5" fill="none" stroke="#323232" stroke-linecap="round" stroke-linejoin="round" stroke-width="1.5"/><line x1="12" y1="16.5" x2="12" y2="15.5" fill="none" stroke="#323232" stroke-linecap="round" stroke-linejoin="round" stroke-width="1.5"/><path d="M9.85449,14.25A2.23934,2.23934,0,0,0,12,15.5a2.04779,2.04779,0,0,0,2.25-1.75h0a1.58574,1.58574,0,0,0-1.27475-1.55495l-1.9505-.3901A1.58574,1.58574,0,0,1,9.75,10.25h0A2.04779,2.04779,0,0,1,12,8.5a2.23934,2.23934,0,0,1,2.14551,1.25" fill="none" stroke="#323232" stroke-linecap="round" stroke-linejoin="round" stroke-width="1.5"/></svg>