<svg xmlns="http://www.w3.org/2000/svg" viewBox="0 0 24 24"><path d="M13.25,9.5h2a2,2,0,0,1,2,2v1a2,2,0,0,1-2,2h-2a0,0,0,0,1,0,0v-5A0,0,0,0,1,13.25,9.5Z" fill="none" stroke="#323232" stroke-linecap="round" stroke-linejoin="round" stroke-width="1.5"/><path d="M7,14.5v-5" fill="none" stroke="#323232" stroke-linecap="round" stroke-linejoin="round" stroke-width="1.5"/><path d="M7,9.5H9.25a1.25,1.25,0,0,1,1.25,1.25v.5A1.25,1.25,0,0,1,9.25,12.5H7" fill="none" stroke="#323232" stroke-linecap="round" stroke-linejoin="round" stroke-width="1.5"/><rect x="3" y="3" width="18" height="18" rx="5" stroke-width="1.5" stroke="#323232" stroke-linecap="round" stroke-linejoin="round" fill="none"/></svg>