<svg xmlns="http://www.w3.org/2000/svg" viewBox="0 0 24 24"><path d="M21,21V5a1,1,0,0,0-1-1H4A1,1,0,0,0,3,5V21" fill="none" stroke="#323232" stroke-linecap="round" stroke-linejoin="round" stroke-width="1.5"/><line x1="1.99999" y1="21" x2="21.99999" y2="21" fill="none" stroke="#323232" stroke-linecap="round" stroke-linejoin="round" stroke-width="1.5"/><path d="M7.41634,10H3" fill="none" stroke="#323232" stroke-linecap="round" stroke-linejoin="round" stroke-width="1.5"/><path d="M21,10H16.58354" fill="none" stroke="#323232" stroke-linecap="round" stroke-linejoin="round" stroke-width="1.5"/><path d="M17,21V12a5,5,0,0,0-5-5h0a5,5,0,0,0-5,5v9" fill="none" stroke="#323232" stroke-linecap="round" stroke-linejoin="round" stroke-width="1.5"/><path d="M10.5,21V17.5A.5.5,0,0,1,11,17h2a.5.5,0,0,1,.5.5V21" fill="none" stroke="#323232" stroke-linecap="round" stroke-linejoin="round" stroke-width="1.5"/><path d="M11.82262,11.82383l.00044-.00044a.24945.24945,0,1,1-.00044.00044" fill="none" stroke="#323232" stroke-linecap="round" stroke-linejoin="round" stroke-width="1.5"/></svg>