<svg xmlns="http://www.w3.org/2000/svg" viewBox="0 0 24 24"><path d="M3,21V12a1,1,0,0,1,1-1H7" fill="none" stroke="#323232" stroke-linecap="round" stroke-linejoin="round" stroke-width="1.5"/><path d="M11,8V4.50136a1.5,1.5,0,0,1,2.02668-1.4045l7.32444,2.74667A1,1,0,0,1,21,6.77986V21" fill="none" stroke="#323232" stroke-linecap="round" stroke-linejoin="round" stroke-width="1.5"/><path d="M7,21V9A1,1,0,0,1,8,8h7a1,1,0,0,1,1,1V21" fill="none" stroke="#323232" stroke-linecap="round" stroke-linejoin="round" stroke-width="1.5"/><line x1="21.99999" y1="21" x2="1.99999" y2="21" fill="none" stroke="#323232" stroke-linecap="round" stroke-linejoin="round" stroke-width="1.5"/><line x1="9.99999" y1="17.5" x2="12.99999" y2="17.5" fill="none" stroke="#323232" stroke-linecap="round" stroke-linejoin="round" stroke-width="1.5"/><line x1="9.99999" y1="14.5" x2="12.99999" y2="14.5" fill="none" stroke="#323232" stroke-linecap="round" stroke-linejoin="round" stroke-width="1.5"/><line x1="9.99999" y1="11.5" x2="12.99999" y2="11.5" fill="none" stroke="#323232" stroke-linecap="round" stroke-linejoin="round" stroke-width="1.5"/></svg>