<svg xmlns="http://www.w3.org/2000/svg" viewBox="0 0 24 24"><line x1="1.99999" y1="21" x2="21.99999" y2="21" fill="none" stroke="#323232" stroke-linecap="round" stroke-linejoin="round" stroke-width="1.5"/><path d="M3,21V12a1,1,0,0,1,1-1H7" fill="none" stroke="#323232" stroke-linecap="round" stroke-linejoin="round" stroke-width="1.5"/><path d="M21,21V12a1,1,0,0,0-1-1H17" fill="none" stroke="#323232" stroke-linecap="round" stroke-linejoin="round" stroke-width="1.5"/><path d="M8,8h8a1,1,0,0,1,1,1V21a0,0,0,0,1,0,0H7a0,0,0,0,1,0,0V9A1,1,0,0,1,8,8Z" fill="none" stroke="#323232" stroke-linecap="round" stroke-linejoin="round" stroke-width="1.5"/><path d="M10.5,21V17.5A.5.5,0,0,1,11,17h2a.5.5,0,0,1,.5.5V21" fill="none" stroke="#323232" stroke-linecap="round" stroke-linejoin="round" stroke-width="1.5"/><line x1="11.99999" y1="5" x2="11.99999" y2="7.5" fill="none" stroke="#323232" stroke-linecap="round" stroke-linejoin="round" stroke-width="1.5"/><rect x="11.99999" y="2.5" width="4" height="3" rx="0.5" stroke-width="1.5" stroke="#323232" stroke-linecap="round" stroke-linejoin="round" fill="none"/><line x1="9.99999" y1="14" x2="13.99999" y2="14" fill="none" stroke="#323232" stroke-linecap="round" stroke-linejoin="round" stroke-width="1.5"/><line x1="9.99999" y1="11" x2="13.99999" y2="11" fill="none" stroke="#323232" stroke-linecap="round" stroke-linejoin="round" stroke-width="1.5"/></svg>