<svg xmlns="http://www.w3.org/2000/svg" viewBox="0 0 24 24"><path d="M15,7V5a1,1,0,0,1,1-1h2a1,1,0,0,1,1,1V7" fill="none" stroke="#323232" stroke-linecap="round" stroke-linejoin="round" stroke-width="1.5"/><line x1="16.99999" y1="2" x2="16.99999" y2="4" fill="none" stroke="#323232" stroke-linecap="round" stroke-linejoin="round" stroke-width="1.5"/><path d="M21,21V8a1,1,0,0,0-1-1H14a1,1,0,0,0-1,1v3" fill="none" stroke="#323232" stroke-linecap="round" stroke-linejoin="round" stroke-width="1.5"/><path d="M10,11V4.0009a1,1,0,0,0-1.35113-.93632l-5,1.875A1,1,0,0,0,3,5.8759V21" fill="none" stroke="#323232" stroke-linecap="round" stroke-linejoin="round" stroke-width="1.5"/><path d="M17,21V12a1,1,0,0,0-1-1H8a1,1,0,0,0-1,1v9" fill="none" stroke="#323232" stroke-linecap="round" stroke-linejoin="round" stroke-width="1.5"/><line x1="1.99999" y1="21" x2="21.99999" y2="21" fill="none" stroke="#323232" stroke-linecap="round" stroke-linejoin="round" stroke-width="1.5"/><line x1="13.99999" y1="17" x2="9.99999" y2="17" fill="none" stroke="#323232" stroke-linecap="round" stroke-linejoin="round" stroke-width="1.5"/><line x1="13.99999" y1="14" x2="9.99999" y2="14" fill="none" stroke="#323232" stroke-linecap="round" stroke-linejoin="round" stroke-width="1.5"/></svg>