<svg xmlns="http://www.w3.org/2000/svg" viewBox="0 0 24 24"><path d="M16,21V11.12722a1,1,0,0,1,1.35112-.93633l3,1.125A1,1,0,0,1,21,12.25222V21" fill="none" stroke="#323232" stroke-linecap="round" stroke-linejoin="round" stroke-width="1.5"/><line x1="21.99999" y1="21" x2="1.99999" y2="21" fill="none" stroke="#323232" stroke-linecap="round" stroke-linejoin="round" stroke-width="1.5"/><path d="M14,7V5a1,1,0,0,0-1-1H11a1,1,0,0,0-1,1V7" fill="none" stroke="#323232" stroke-linecap="round" stroke-linejoin="round" stroke-width="1.5"/><line x1="11.99999" y1="2" x2="11.99999" y2="4" fill="none" stroke="#323232" stroke-linecap="round" stroke-linejoin="round" stroke-width="1.5"/><line x1="10.99999" y1="14" x2="12.99999" y2="14" fill="none" stroke="#323232" stroke-linecap="round" stroke-linejoin="round" stroke-width="1.5"/><line x1="10.99999" y1="17" x2="12.99999" y2="17" fill="none" stroke="#323232" stroke-linecap="round" stroke-linejoin="round" stroke-width="1.5"/><line x1="10.99999" y1="14" x2="12.99999" y2="14" fill="none" stroke="#323232" stroke-linecap="round" stroke-linejoin="round" stroke-width="1.5"/><path d="M8,21V8A1,1,0,0,1,9,7h6a1,1,0,0,1,1,1V21" fill="none" stroke="#323232" stroke-linecap="round" stroke-linejoin="round" stroke-width="1.5"/><line x1="10.99999" y1="11" x2="12.99999" y2="11" fill="none" stroke="#323232" stroke-linecap="round" stroke-linejoin="round" stroke-width="1.5"/><path d="M8,21V11.12722a1,1,0,0,0-1.35112-.93633l-3,1.125A1,1,0,0,0,3,12.25222V21" fill="none" stroke="#323232" stroke-linecap="round" stroke-linejoin="round" stroke-width="1.5"/></svg>