<svg xmlns="http://www.w3.org/2000/svg" viewBox="0 0 24 24"><path d="M15,4h4a0,0,0,0,1,0,0V6a1,1,0,0,1-1,1H16a1,1,0,0,1-1-1V4A0,0,0,0,1,15,4Z" transform="translate(33.99998 11) rotate(-180)" fill="none" stroke="#323232" stroke-linecap="round" stroke-linejoin="round" stroke-width="1.5"/><line x1="16.99999" y1="2" x2="16.99999" y2="4" fill="none" stroke="#323232" stroke-linecap="round" stroke-linejoin="round" stroke-width="1.5"/><path d="M21,21V8a1,1,0,0,0-1-1H14a1,1,0,0,0-1,1v2.22689" fill="none" stroke="#323232" stroke-linecap="round" stroke-linejoin="round" stroke-width="1.5"/><path d="M8,21V9.79489a1,1,0,0,1,1.35112-.93633l6,2.25A1,1,0,0,1,16,12.04489V21" fill="none" stroke="#323232" stroke-linecap="round" stroke-linejoin="round" stroke-width="1.5"/><path d="M10,9.10189V6A1,1,0,0,0,9,5H4A1,1,0,0,0,3,6V21" fill="none" stroke="#323232" stroke-linecap="round" stroke-linejoin="round" stroke-width="1.5"/><line x1="1.99999" y1="21" x2="21.99999" y2="21" fill="none" stroke="#323232" stroke-linecap="round" stroke-linejoin="round" stroke-width="1.5"/><line x1="12.99999" y1="18" x2="10.99999" y2="18" fill="none" stroke="#323232" stroke-linecap="round" stroke-linejoin="round" stroke-width="1.5"/><line x1="12.99999" y1="15" x2="10.99999" y2="15" fill="none" stroke="#323232" stroke-linecap="round" stroke-linejoin="round" stroke-width="1.5"/></svg>