<svg xmlns="http://www.w3.org/2000/svg" viewBox="0 0 24 24"><path d="M16,21V11.0009a1,1,0,0,1,1.35112-.93632l3,1.125A1,1,0,0,1,21,12.1259V21" fill="none" stroke="#323232" stroke-linecap="round" stroke-linejoin="round" stroke-width="1.5"/><line x1="21.99999" y1="21" x2="1.99999" y2="21" fill="none" stroke="#323232" stroke-linecap="round" stroke-linejoin="round" stroke-width="1.5"/><path d="M16,21V8a1,1,0,0,0-.2929-.70711l-3-3a1,1,0,0,0-1.41421,0l-3,3A1,1,0,0,0,8,8V21" fill="none" stroke="#323232" stroke-linecap="round" stroke-linejoin="round" stroke-width="1.5"/><line x1="11.99999" y1="2" x2="11.99999" y2="4" fill="none" stroke="#323232" stroke-linecap="round" stroke-linejoin="round" stroke-width="1.5"/><line x1="15.99999" y1="8" x2="7.99999" y2="8" fill="none" stroke="#323232" stroke-linecap="round" stroke-linejoin="round" stroke-width="1.5"/><path d="M8,12H4a1,1,0,0,0-1,1v8" fill="none" stroke="#323232" stroke-linecap="round" stroke-linejoin="round" stroke-width="1.5"/><line x1="11.99999" y1="21" x2="11.99999" y2="12" fill="none" stroke="#323232" stroke-linecap="round" stroke-linejoin="round" stroke-width="1.5"/></svg>