<svg xmlns="http://www.w3.org/2000/svg" viewBox="0 0 24 24"><path d="M14,9V4.0009a1,1,0,0,1,1.35112-.93632l5,1.875A1,1,0,0,1,21,5.8759V21" fill="none" stroke="#323232" stroke-linecap="round" stroke-linejoin="round" stroke-width="1.5"/><path d="M8,21V10.20185A1.20185,1.20185,0,0,1,9.20184,9h6.5963A1.20185,1.20185,0,0,1,17,10.20185V21" fill="none" stroke="#323232" stroke-linecap="round" stroke-linejoin="round" stroke-width="1.5"/><path d="M11,9V6a1,1,0,0,0-1-1H6A1,1,0,0,0,5,6v6" fill="none" stroke="#323232" stroke-linecap="round" stroke-linejoin="round" stroke-width="1.5"/><line x1="7.99999" y1="3" x2="7.99999" y2="5" fill="none" stroke="#323232" stroke-linecap="round" stroke-linejoin="round" stroke-width="1.5"/><line x1="21.99999" y1="21" x2="1.99999" y2="21" fill="none" stroke="#323232" stroke-linecap="round" stroke-linejoin="round" stroke-width="1.5"/><path d="M3,21V13a1,1,0,0,1,1-1H8" fill="none" stroke="#323232" stroke-linecap="round" stroke-linejoin="round" stroke-width="1.5"/><line x1="10.99999" y1="17.5" x2="10.99999" y2="12.5" fill="none" stroke="#323232" stroke-linecap="round" stroke-linejoin="round" stroke-width="1.5"/><line x1="13.99999" y1="17.5" x2="13.99999" y2="12.5" fill="none" stroke="#323232" stroke-linecap="round" stroke-linejoin="round" stroke-width="1.5"/></svg>