<svg xmlns="http://www.w3.org/2000/svg" viewBox="0 0 24 24"><path d="M9.75,9V6.25a1,1,0,0,0-1-1H6.25a1,1,0,0,0-1,1V9" fill="none" stroke="#323232" stroke-linecap="round" stroke-linejoin="round" stroke-width="1.5"/><line x1="7.49999" y1="3" x2="7.49999" y2="5.25" fill="none" stroke="#323232" stroke-linecap="round" stroke-linejoin="round" stroke-width="1.5"/><path d="M3,21V10A1,1,0,0,1,4,9h7a1,1,0,0,1,1,1V21" fill="none" stroke="#323232" stroke-linecap="round" stroke-linejoin="round" stroke-width="1.5"/><line x1="21.99999" y1="21" x2="1.99999" y2="21" fill="none" stroke="#323232" stroke-linecap="round" stroke-linejoin="round" stroke-width="1.5"/><path d="M13,3h7a1,1,0,0,1,1,1V21a0,0,0,0,1,0,0H12a0,0,0,0,1,0,0V4A1,1,0,0,1,13,3Z" fill="none" stroke="#323232" stroke-linecap="round" stroke-linejoin="round" stroke-width="1.5"/><line x1="14.99997" y1="6.99999" x2="14.99997" y2="16.99998" fill="none" stroke="#323232" stroke-linecap="round" stroke-linejoin="round" stroke-width="1.5"/><line x1="17.99997" y1="6.99999" x2="17.99997" y2="16.99998" fill="none" stroke="#323232" stroke-linecap="round" stroke-linejoin="round" stroke-width="1.5"/><line x1="5.49997" y1="16" x2="9.49997" y2="16" fill="none" stroke="#323232" stroke-linecap="round" stroke-linejoin="round" stroke-width="1.5"/><line x1="5.49997" y1="13" x2="9.49997" y2="13" fill="none" stroke="#323232" stroke-linecap="round" stroke-linejoin="round" stroke-width="1.5"/></svg>