<?xml version="1.0" encoding="UTF-8"?><svg version="1.1" viewBox="0 0 24 24" xmlns="http://www.w3.org/2000/svg" xmlns:xlink="http://www.w3.org/1999/xlink"><g fill="none"><path d="M0 0h24v24h-24Z"></path><line x1="7.5" x2="16.5" y1="13.25" y2="13.25" stroke="#323232" stroke-linecap="round" stroke-linejoin="round" stroke-width="1.5"></line><line x1="12" x2="12" y1="13.25" y2="7.25" stroke="#323232" stroke-linecap="round" stroke-linejoin="round" stroke-width="1.5"></line><line x1="15" x2="15" y1="13.25" y2="9.25" stroke="#323232" stroke-linecap="round" stroke-linejoin="round" stroke-width="1.5"></line><path stroke="#323232" stroke-linecap="round" stroke-linejoin="round" stroke-width="1.5" d="M16 21l-1-4"></path><path stroke="#323232" stroke-linecap="round" stroke-linejoin="round" stroke-width="1.5" d="M8 21l1-4"></path><path stroke="#323232" stroke-linecap="round" stroke-linejoin="round" stroke-width="1.5" d="M18.925 17h-13.85 -9.07011e-08c-1.14599-5.00929e-08-2.075-.929009-2.075-2.075 0 0 0 0 0 0v-9.85l2.30926e-14 3.13316e-07c-1.7304e-07-1.14599.929009-2.075 2.075-2.075h13.849l8.31447e-08-4.00675e-11c1.14599-.000552239 2.07545.928009 2.076 2.074 1.60668e-07.000333414 2.40976e-07.000666827 2.40924e-07.00100024v9.849l-6.43547e-09-1.32667e-05c.000559566 1.14599-.927996 2.07545-2.07399 2.07601 -.000333386 1.62786e-07-.000666772 2.45226e-07-.00100016 2.47318e-07Z"></path><line x1="9" x2="9" y1="13.25" y2="10.25" stroke="#323232" stroke-linecap="round" stroke-linejoin="round" stroke-width="1.5"></line></g></svg>