<?xml version="1.0" encoding="UTF-8"?><svg version="1.1" viewBox="0 0 24 24" xmlns="http://www.w3.org/2000/svg" xmlns:xlink="http://www.w3.org/1999/xlink"><g stroke-linecap="round" stroke-width="1.5" stroke="#323232" fill="none" stroke-linejoin="round"><path d="M5.316 18.112l1.43944e-07-2.13576e-07c-.571339.847718-.34729 1.99809.500429 2.56943 .847718.571339 1.99809.34729 2.56943-.500429 .189941-.281823.298626-.6105.314141-.950001"></path><path d="M10.684 19.887l-7-2.315 7.00454e-08 2.28785e-08c-.407295-.133032-.683147-.512531-.684-.941v-1.323l-1.43294e-08 7.21176e-06c.000849791-.428469.2767-.80797.683993-.941005l7-2.315 2.27562e-08-7.58035e-09c.523978-.174543 1.09024.10873 1.26478.632708 .03302.0991261.0503015.202815.0512153.307292v5.955l1.10788e-08-1.38453e-06c-.00439387.549154-.45082.992012-.999992.991999l-1.15946e-08 3.9833e-11c-.107493.000369302-.214294-.0172055-.316001-.052Z"></path><path d="M3 11v-3l5.68434e-14 7.54979e-07c-4.16963e-07-2.76142 2.23858-5 5-5h8l-2.18557e-07 5.32907e-15c2.76142-1.20706e-07 5 2.23858 5 5v9 0c0 2.20914-1.79086 4-4 4h-2"></path></g><path fill="none" d="M0 0h24v24h-24Z"></path></svg>