<?xml version="1.0" encoding="UTF-8"?><svg version="1.1" viewBox="0 0 24 24" xmlns="http://www.w3.org/2000/svg" xmlns:xlink="http://www.w3.org/1999/xlink"><!--Generated by IJSVG (https://github.com/iconjar/IJSVG)--><g fill="none"><path d="M0,0h24v24h-24Z"></path><path stroke="#323232" stroke-linecap="round" stroke-linejoin="round" stroke-width="1.5" d="M12.1768,10.3232c0.0976311,0.0976311 0.0976311,0.255922 0,0.353553c-0.0976311,0.0976311 -0.255922,0.0976311 -0.353553,0c-0.0976311,-0.0976311 -0.0976311,-0.255922 0,-0.353553c0.0976311,-0.0976311 0.255922,-0.0976311 0.353553,0"></path><path stroke="#323232" stroke-linecap="round" stroke-linejoin="round" stroke-width="1.5" d="M16.1768,10.3232c0.0976311,0.0976311 0.0976311,0.255922 0,0.353553c-0.0976311,0.0976311 -0.255922,0.0976311 -0.353553,0c-0.0976311,-0.0976311 -0.0976311,-0.255922 0,-0.353553c0.0976311,-0.0976311 0.255922,-0.0976311 0.353553,0"></path><path stroke="#323232" stroke-linecap="round" stroke-linejoin="round" stroke-width="1.5" d="M8.17678,10.3232c0.0976311,0.0976311 0.0976311,0.255922 0,0.353553c-0.0976311,0.0976311 -0.255922,0.0976311 -0.353553,0c-0.0976311,-0.0976311 -0.0976311,-0.255922 0,-0.353553c0.0976311,-0.0976311 0.255922,-0.0976311 0.353553,0"></path><path stroke="#323232" stroke-linecap="round" stroke-linejoin="round" stroke-width="1.5" d="M12,21l-4,-3.999v-0.001h-3c-1.105,0 -2,-0.895 -2,-2v-10c0,-1.105 0.895,-2 2,-2h14c1.105,0 2,0.895 2,2v10c0,1.105 -0.895,2 -2,2h-3l-4,3.999"></path></g></svg>