<svg xmlns="http://www.w3.org/2000/svg" viewBox="0 0 24 24"><path d="M11,17v2a2,2,0,0,0,2,2h7a2,2,0,0,0,2-2V5a2,2,0,0,0-2-2H13a2,2,0,0,0-2,2V7" fill="none" stroke="#323232" stroke-linecap="round" stroke-linejoin="round" stroke-width="1.5"/><path d="M8,21H4a2,2,0,0,1-2-2V5A2,2,0,0,1,4,3H8" fill="none" stroke="#323232" stroke-linecap="round" stroke-linejoin="round" stroke-width="1.5"/><path d="M18.75,3V5a.5.5,0,0,1-.5.5h-3.5a.5.5,0,0,1-.5-.5V3" fill="none" stroke="#323232" stroke-linecap="round" stroke-linejoin="round" stroke-width="1.5"/><path d="M9.76,12.005l-.005.005-.005-.005L9.755,12l.005.005" fill="none" stroke="#323232" stroke-linecap="round" stroke-linejoin="round" stroke-width="1.5"/><path d="M12.26,12.005l-.005.005-.005-.005L12.255,12l.005.005" fill="none" stroke="#323232" stroke-linecap="round" stroke-linejoin="round" stroke-width="1.5"/><path d="M14.76,12.005l-.005.005-.005-.005L14.755,12l.005.005" fill="none" stroke="#323232" stroke-linecap="round" stroke-linejoin="round" stroke-width="1.5"/><path d="M7.26,12.005l-.005.005-.005-.005L7.255,12l.005.005" fill="none" stroke="#323232" stroke-linecap="round" stroke-linejoin="round" stroke-width="1.5"/><rect width="24" height="24" fill="none"/></svg>