<svg xmlns="http://www.w3.org/2000/svg" viewBox="0 0 24 24"><path d="M0,0H24V24H0Z" fill="none"/><path d="M18,10.5V5a2,2,0,0,0-2-2H8A2,2,0,0,0,6,5V19a2,2,0,0,0,2,2h3" fill="none" stroke="#323232" stroke-linecap="round" stroke-linejoin="round" stroke-width="1.5"/><path d="M17.17618,21h0a3.84152,3.84152,0,0,1-3.08813-3.76692V15.98525a1.94444,1.94444,0,0,1,1.94444-1.94444H19.1436a1.94444,1.94444,0,0,1,1.94445,1.94444V17.2331A3.84151,3.84151,0,0,1,18,21l-.00009,0A2.10018,2.10018,0,0,1,17.17618,21Z" fill="none" stroke="#323232" stroke-linecap="round" stroke-linejoin="round" stroke-width="1.5"/><path d="M14.5,3V5a.5.5,0,0,1-.5.5H10A.5.5,0,0,1,9.5,5V3" fill="none" stroke="#323232" stroke-linecap="round" stroke-linejoin="round" stroke-width="1.5"/></svg>