<svg id="Layer_3" data-name="Layer 3" xmlns="http://www.w3.org/2000/svg" viewBox="0 0 24 24"><path d="M21,10.14968l0,2.11264c0,1.40394-1.71345,2.44982-2.55177,2.87875a.97671.97671,0,0,1-.89567.00042C16.71453,14.71272,15,13.6645,15,12.26232l0-2.11263a.50966.50966,0,0,1,.47216-.498,4.27007,4.27007,0,0,0,1.957-.723,1.00125,1.00125,0,0,1,1.14171,0,4.27,4.27,0,0,0,1.95695.723A.51735.51735,0,0,1,21,10.14968Z" fill="none" stroke="#323232" stroke-linecap="round" stroke-linejoin="round" stroke-width="1.5"/><path d="M14.5,3V5a.5.5,0,0,1-.5.5H10A.5.5,0,0,1,9.5,5V3" fill="none" stroke="#323232" stroke-linecap="round" stroke-linejoin="round" stroke-width="1.5"/><path d="M18,6V5a2,2,0,0,0-2-2H8A2,2,0,0,0,6,5V19a2,2,0,0,0,2,2h8a2,2,0,0,0,2-2V18" fill="none" stroke="#323232" stroke-linecap="round" stroke-linejoin="round" stroke-width="1.5"/><rect width="24" height="24" fill="none"/></svg>