<?xml version="1.0" encoding="UTF-8"?><svg version="1.1" viewBox="0 0 24 24" xmlns="http://www.w3.org/2000/svg" xmlns:xlink="http://www.w3.org/1999/xlink"><!--Generated by IJSVG (https://github.com/iconjar/IJSVG)--><g stroke-linecap="round" stroke-width="1.5" stroke="#323232" fill="none" stroke-linejoin="round"><path d="M10.12,18.5h2.26"></path><path d="M16.25,11.388v7.612c0,1.105 -0.895,2 -2,2h-6c-1.105,0 -2,-0.895 -2,-2v-12c0,-1.105 0.895,-2 2,-2h2.97"></path><path d="M15.25,11.5c-2.485,0 -4.5,-2.015 -4.5,-4.5c0,-2.485 2.015,-4.5 4.5,-4.5c2.486,0 4.5,2.015 4.5,4.5c0,2.485 -2.014,4.5 -4.5,4.5"></path><path d="M15.25,5.33v3.34"></path><path d="M14.42,6.17l0.83,-0.84"></path><path d="M14.42,8.67h1.66"></path></g><path fill="none" d="M0,0h24v24h-24Z" transform="matrix(6.12323e-17,-1,1,6.12323e-17,1.34605e-10,24)"></path></svg>