<svg xmlns="http://www.w3.org/2000/svg" viewBox="0 0 24 24"><path d="M12.54226,3.59009,3.59011,12.54224a2.01476,2.01476,0,0,0,0,2.8493l5.01833,5.01833a2.01476,2.01476,0,0,0,2.8493,0l8.95215-8.95215a2.01476,2.01476,0,0,0,0-2.8493L15.39156,3.59009A2.01476,2.01476,0,0,0,12.54226,3.59009Z" fill="none" stroke="#323232" stroke-linecap="round" stroke-linejoin="round" stroke-width="1.5"/><path d="M16.29289,20.435a5,5,0,0,0,4.24264-4.24264" fill="none" stroke="#323232" stroke-linecap="round" stroke-linejoin="round" stroke-width="1.5"/><path d="M7.80761,3.46447A5,5,0,0,0,3.565,7.70711" fill="none" stroke="#323232" stroke-linecap="round" stroke-linejoin="round" stroke-width="1.5"/><path d="M16.29669,4.52133,14.88248,5.93554a.5.5,0,0,0,0,.70711l2.47487,2.47487a.5.5,0,0,0,.7071,0l1.41422-1.41421" fill="none" stroke="#323232" stroke-linecap="round" stroke-linejoin="round" stroke-width="1.5"/><rect width="24" height="24" transform="translate(24 24) rotate(-180)" fill="none"/></svg>