<svg xmlns="http://www.w3.org/2000/svg" viewBox="0 0 24 24"><path d="M0,0H24V24H0Z" fill="none"/><path d="M18,11V5a2,2,0,0,0-2-2H8A2,2,0,0,0,6,5V19a2,2,0,0,0,2,2H9.5" fill="none" stroke="#323232" stroke-linecap="round" stroke-linejoin="round" stroke-width="1.5"/><path d="M22,18.5A2.5,2.5,0,0,1,19.5,21H14a2,2,0,0,1,0-4,2.99222,2.99222,0,0,1,5.82648-.9671A2.49211,2.49211,0,0,1,22,18.5Z" fill="none" stroke="#323232" stroke-linecap="round" stroke-linejoin="round" stroke-width="1.5"/><path d="M14.5,3V5a.5.5,0,0,1-.5.5H10A.5.5,0,0,1,9.5,5V3" fill="none" stroke="#323232" stroke-linecap="round" stroke-linejoin="round" stroke-width="1.5"/></svg>