<?xml version="1.0" encoding="UTF-8"?><svg version="1.1" viewBox="0 0 24 24" xmlns="http://www.w3.org/2000/svg" xmlns:xlink="http://www.w3.org/1999/xlink"><g fill="none"><path d="M0 0h24v24h-24Z"></path><path stroke="#323232" stroke-linecap="round" stroke-linejoin="round" stroke-width="1.5" d="M13 20.938l-5.12224e-08 6.3506e-09c-.331749.0411305-.665711.0618362-1 .062l-3.93403e-07-7.10543e-15c-4.97056-2.1727e-07-9-4.02944-9-9 2.1727e-07-4.97056 4.02944-9 9-9 4.97056 2.1727e-07 9 4.02944 9 9l6.63454e-09-1.35644e-05c-.000163227.334289-.0208684.668251-.0619983 1"></path><path stroke="#323232" stroke-linecap="round" stroke-linejoin="round" stroke-width="1.5" d="M20 17.5l-2.5 2.5"></path><path stroke="#323232" stroke-linecap="round" stroke-linejoin="round" stroke-width="1.5" d="M17.5 17.5l2.5 2.5"></path><path stroke="#323232" stroke-linecap="round" stroke-linejoin="round" stroke-width="1.5" d="M10.5 7h3l5.59285e-08 1.45315e-09c1.13336.0294473 2.02853.971613 2 2.105v5.795l2.0085e-08 8.83252e-07c.0257289 1.13146-.868636 2.07054-2 2.1h-3l9.33897e-09 2.42647e-10c-1.13336-.0294473-2.02853-.971613-2-2.105v-5.79l7.67847e-09 3.05004e-07c-.0285331-1.13339.866637-2.07555 2-2.105Z"></path><path stroke="#323232" stroke-linecap="round" stroke-linejoin="round" stroke-width="1.5" d="M11.25 14.5h1.5"></path></g></svg>