<svg xmlns="http://www.w3.org/2000/svg" viewBox="0 0 24 24"><path d="M0,0H24V24H0Z" fill="none"/><path d="M14.5,3V5a.5.5,0,0,1-.5.5H10A.5.5,0,0,1,9.5,5V3" fill="none" stroke="#323232" stroke-linecap="round" stroke-linejoin="round" stroke-width="1.5"/><rect x="11" y="9.5" width="10" height="5" rx="2.5" stroke-width="1.5" stroke="#323232" stroke-linecap="round" stroke-linejoin="round" fill="none"/><path d="M18.5,14.5A2.5,2.5,0,0,1,16,12h0a2.5,2.5,0,0,1,2.5-2.5" fill="none" stroke="#323232" stroke-linecap="round" stroke-linejoin="round" stroke-width="1.5"/><path d="M18,6.5V5a2,2,0,0,0-2-2H8A2,2,0,0,0,6,5V19a2,2,0,0,0,2,2h8a2,2,0,0,0,2-2V17.5" fill="none" stroke="#323232" stroke-linecap="round" stroke-linejoin="round" stroke-width="1.5"/></svg>