<svg xmlns="http://www.w3.org/2000/svg" viewBox="0 0 24 24"><rect width="24" height="24" fill="none"/><rect width="24" height="24" fill="none"/><path d="M3,9l1.5,1.5L3,12l1.5,1.5L3,15" fill="none" stroke="#323232" stroke-linecap="round" stroke-linejoin="round" stroke-width="1.5"/><path d="M21,15l-1.5-1.5L21,12l-1.5-1.5L21,9" fill="none" stroke="#323232" stroke-linecap="round" stroke-linejoin="round" stroke-width="1.5"/><path d="M14.5,3V5a.5.5,0,0,1-.5.5H10A.5.5,0,0,1,9.5,5V3" fill="none" stroke="#323232" stroke-linecap="round" stroke-linejoin="round" stroke-width="1.5"/><path d="M18,8V5a2,2,0,0,0-2-2H8A2,2,0,0,0,6,5V8" fill="none" stroke="#323232" stroke-linecap="round" stroke-linejoin="round" stroke-width="1.5"/><path d="M6,16v3a2,2,0,0,0,2,2h8a2,2,0,0,0,2-2V16" fill="none" stroke="#323232" stroke-linecap="round" stroke-linejoin="round" stroke-width="1.5"/></svg>