<svg xmlns="http://www.w3.org/2000/svg" viewBox="0 0 24 24"><path d="M15,21h1a4,4,0,0,0,4-4h0" fill="none" stroke="#323232" stroke-linecap="round" stroke-linejoin="round" stroke-width="1.5"/><path d="M9,3H8A4,4,0,0,0,4,7H4" fill="none" stroke="#323232" stroke-linecap="round" stroke-linejoin="round" stroke-width="1.5"/><line x1="8.5" y1="18" x2="6.5" y2="18" fill="none" stroke="#323232" stroke-linecap="round" stroke-linejoin="round" stroke-width="1.5"/><path d="M9.75,21H5.25A2.25,2.25,0,0,1,3,18.75v-6.5A2.25,2.25,0,0,1,5.25,10h4.5A2.25,2.25,0,0,1,12,12.25v6.5A2.25,2.25,0,0,1,9.75,21Z" fill="none" stroke="#323232" stroke-linecap="round" stroke-linejoin="round" stroke-width="1.5"/><path d="M12,7V5.45A2.25,2.25,0,0,1,14.25,3.2h4.5A2.25,2.25,0,0,1,21,5.45v6.5a2.25,2.25,0,0,1-2.25,2.25H15" fill="none" stroke="#323232" stroke-linecap="round" stroke-linejoin="round" stroke-width="1.5"/><line x1="17.5" y1="11.2" x2="15.5" y2="11.2" fill="none" stroke="#323232" stroke-linecap="round" stroke-linejoin="round" stroke-width="1.5"/><path d="M24,0V24H0V0Z" fill="none"/></svg>