<?xml version="1.0" encoding="UTF-8"?><svg version="1.1" viewBox="0 0 24 24" xmlns="http://www.w3.org/2000/svg" xmlns:xlink="http://www.w3.org/1999/xlink"><!--Generated by IJSVG (https://github.com/iconjar/IJSVG)--><g stroke-linecap="round" stroke-width="1.5" stroke="#323232" fill="none" stroke-linejoin="round"><path d="M8,4v1.8c0,0.331 0.224,0.6 0.5,0.6h3c0.276,0 0.5,-0.269 0.5,-0.6v-1.8"></path><path d="M11.646,20h-4.646c-1.105,0 -2,-0.895 -2,-2v-12c0,-1.105 0.895,-2 2,-2h6c1.105,0 2,0.895 2,2v6.5"></path></g><path fill="none" stroke="#323232" stroke-width="1.5" d="M15,21.5c-2.485,0 -4.5,-2.015 -4.5,-4.5c0,-2.434 2.07,-4.502 4.504,-4.5c2.484,0.002 4.496,2.016 4.496,4.5c0,2.485 -2.014,4.5 -4.5,4.5"></path><path d="M15.5,15l-1.5,1.5l2,1l-1.5,1.5" stroke-linecap="round" stroke-width="1.5" stroke="#323232" fill="none" stroke-linejoin="round"></path><path fill="none" d="M0,0h24v24h-24Z" transform="matrix(6.12323e-17,-1,1,6.12323e-17,1.34605e-10,24)"></path></svg>