<svg xmlns="http://www.w3.org/2000/svg" viewBox="0 0 24 24"><rect width="24" height="24" transform="translate(24 24) rotate(180)" fill="none"/><path d="M8,19h4" fill="none" stroke="#323232" stroke-linecap="round" stroke-linejoin="round" stroke-width="1.5"/><path d="M16,8V20a2,2,0,0,1-2,2H6a2,2,0,0,1-2-2V8A2,2,0,0,1,6,6h8A2,2,0,0,1,16,8Z" fill="none" stroke="#323232" stroke-linecap="round" stroke-linejoin="round" stroke-width="1.5"/><path d="M12.5,6V8a.5.5,0,0,1-.5.5H8A.5.5,0,0,1,7.5,8V4a2,2,0,0,1,2-2H18a2,2,0,0,1,2,2V17a2,2,0,0,1-2,2H15.99905" fill="none" stroke="#323232" stroke-linecap="round" stroke-linejoin="round" stroke-width="1.5"/></svg>