<svg id="Layer_3" data-name="Layer 3" xmlns="http://www.w3.org/2000/svg" viewBox="0 0 24 24"><path d="M0,0H24V24H0Z" fill="none"/><path d="M17,5.5V5a2,2,0,0,0-2-2H7A2,2,0,0,0,5,5V19a2,2,0,0,0,2,2h8a2,2,0,0,0,2-2v-.5" fill="none" stroke="#323232" stroke-linecap="round" stroke-linejoin="round" stroke-width="1.5"/><path d="M13.5,3V5a.5.5,0,0,1-.5.5H9A.5.5,0,0,1,8.5,5V3" fill="none" stroke="#323232" stroke-linecap="round" stroke-linejoin="round" stroke-width="1.5"/><path d="M20.05785,11.09368a.85.85,0,0,1,0,1.49148l-1.27138.69527a.86892.86892,0,0,0-.34546.34547l-.69527,1.27137a.85.85,0,0,1-1.49148,0L15.559,13.6259a.86892.86892,0,0,0-.34546-.34547l-1.27138-.69527a.85.85,0,0,1,0-1.49148l1.27138-.69526a.869.869,0,0,0,.34546-.34547l.69527-1.27138a.85.85,0,0,1,1.49148,0l.69527,1.27138a.869.869,0,0,0,.34546.34547Z" fill="none" stroke="#323232" stroke-linecap="round" stroke-linejoin="round" stroke-width="1.5"/></svg>