<svg xmlns="http://www.w3.org/2000/svg" viewBox="0 0 24 24"><path d="M18,10V5a2,2,0,0,0-2-2H8A2,2,0,0,0,6,5V19a2,2,0,0,0,2,2h2" fill="none" stroke="#323232" stroke-linecap="round" stroke-linejoin="round" stroke-width="1.5"/><path d="M13.29289,14.70711l1.41422-1.41422A1,1,0,0,1,15.41422,13H19a1,1,0,0,1,1,1v6a1,1,0,0,1-1,1H14a1,1,0,0,1-1-1V15.41421A1,1,0,0,1,13.29289,14.70711Z" fill="none" stroke="#323232" stroke-linecap="round" stroke-linejoin="round" stroke-width="1.5"/><path d="M14.5,3V5a.5.5,0,0,1-.5.5H10A.5.5,0,0,1,9.5,5V3" fill="none" stroke="#323232" stroke-linecap="round" stroke-linejoin="round" stroke-width="1.5"/><rect width="24" height="24" fill="none"/></svg>