<svg xmlns="http://www.w3.org/2000/svg" viewBox="0 0 24 24"><polyline points="5 10.12 5 8.12 3 8.12" fill="none" stroke="#323232" stroke-linecap="round" stroke-linejoin="round" stroke-width="1.5"/><path d="M9,19a2,2,0,0,0,2,2h8a2,2,0,0,0,2-2V5a2,2,0,0,0-2-2H11A2,2,0,0,0,9,5V19" fill="none" stroke="#323232" stroke-linecap="round" stroke-linejoin="round" stroke-width="1.5"/><path d="M5,8.59326A3.993,3.993,0,0,0,5,16" fill="none" stroke="#323232" stroke-linecap="round" stroke-linejoin="round" stroke-width="1.5"/><path d="M17.5,3V5a.5.5,0,0,1-.5.5H13a.5.5,0,0,1-.5-.5V3" fill="none" stroke="#323232" stroke-linecap="round" stroke-linejoin="round" stroke-width="1.5"/><path d="M0,0V24H24V0Z" fill="none"/></svg>