<svg id="Layer_3" data-name="Layer 3" xmlns="http://www.w3.org/2000/svg" viewBox="0 0 24 24"><path d="M11,3H8A5,5,0,0,0,3,8v8a5,5,0,0,0,5,5h8a5,5,0,0,0,5-5V12" fill="none" stroke="#323232" stroke-linecap="round" stroke-linejoin="round" stroke-width="1.5"/><path d="M17.501,5.25a.25.25,0,1,1-.251.25.24868.24868,0,0,1,.251-.25" fill="none" stroke="#323232" stroke-linecap="round" stroke-linejoin="round" stroke-width="1.5"/><path d="M21,5.5h0A3.5,3.5,0,0,0,17.5,2h0A3.5,3.5,0,0,0,14,5.5h0c0,1.63851,1.788,3.38882,2.808,4.25436a1.09611,1.09611,0,0,0,1.383,0C19.212,8.88881,21,7.13851,21,5.5Z" fill="none" stroke="#323232" stroke-linecap="round" stroke-linejoin="round" stroke-width="1.5"/><line x1="4" y1="5" x2="19" y2="20" fill="none" stroke="#323232" stroke-linecap="round" stroke-linejoin="round" stroke-width="1.5"/><line x1="4" y1="19" x2="11" y2="12" fill="none" stroke="#323232" stroke-linecap="round" stroke-linejoin="round" stroke-width="1.5"/><path d="M0,24H24V0H0Z" fill="none"/><path d="M0,0H24V24H0Z" fill="none"/></svg>