<?xml version="1.0" encoding="UTF-8"?><svg version="1.1" viewBox="0 0 24 24" xmlns="http://www.w3.org/2000/svg" xmlns:xlink="http://www.w3.org/1999/xlink"><!--Generated by IJSVG (https://github.com/iconjar/IJSVG)--><g stroke-linecap="round" stroke-width="1.5" stroke="#323232" fill="none" stroke-linejoin="round"><path d="M8.368,4.211l-4,1.333c-0.817,0.272 -1.368,1.037 -1.368,1.898v10.94c0,0.743 0.782,1.227 1.447,0.894l3.658,-1.829c0.563,-0.282 1.226,-0.282 1.789,0l4.211,2.106c0.563,0.282 1.226,0.282 1.789,0l4,-2c0.678,-0.339 1.106,-1.032 1.106,-1.789v-10.377c0,-0.683 -0.669,-1.165 -1.316,-0.949l-4.051,1.35c-0.411,0.137 -0.854,0.137 -1.265,0l-4.736,-1.577c-0.41,-0.137 -0.854,-0.137 -1.264,0Z"></path><path d="M15,9.53v5.94"></path><path d="M9,7.53v5.94"></path></g><path fill="none" d="M0,0h24v24h-24Z" transform="matrix(-1,-4.49064e-11,4.49064e-11,-1,24,24)"></path></svg>