<?xml version="1.0" encoding="UTF-8"?><svg version="1.1" viewBox="0 0 24 24" xmlns="http://www.w3.org/2000/svg" xmlns:xlink="http://www.w3.org/1999/xlink"><g stroke-linecap="round" stroke-width="1.5" stroke="#323232" fill="none" stroke-linejoin="round"><path d="M12.354 6.771c.195.195.195.512 0 .707 -.195.195-.512.195-.707 0 -.195-.195-.195-.512 0-.707 .195-.195.511-.195.707 0"></path><path d="M16.31 7.227v0c0 1.171-.52 2.28-1.419 3.03l-1.413 1.178c-.563.47-.984 1.087-1.216 1.783l-.262.782 -.261-.783c-.232-.695-.653-1.313-1.216-1.783l-1.413-1.178c-.9-.75-1.419-1.859-1.419-3.03v0 .022c-.001-2.688 2.226-4.248 4.309-4.248 2.083 0 4.31 1.56 4.31 4.249"></path><path d="M6.001 12c-.953 0-1.774.673-1.961 1.608l-1 5c-.248 1.237.699 2.392 1.961 2.392h13.999c1.262 0 2.209-1.155 1.961-2.392l-1-5c-.187-.935-1.008-1.608-1.961-1.608"></path></g><path fill="none" d="M0 0h24v24h-24v-24Z"></path></svg>