<?xml version="1.0" encoding="UTF-8"?><svg version="1.1" viewBox="0 0 24 24" xmlns="http://www.w3.org/2000/svg" xmlns:xlink="http://www.w3.org/1999/xlink"><g stroke-linecap="round" stroke-width="1.5" stroke="#323232" fill="none" stroke-linejoin="round"><path d="M8.8 7l1.89876e-06 1.70007e-07c1.07722.0964499 2.14645.267527 3.19999.511998l-6.81125e-07 1.58053e-07c1.05354-.244472 2.12278-.415549 3.20001-.511998v-6.23552e-08c3.2 0 4.8 2.51 4.8 6l3.48218e-07-.0023604c0 4.41828-3.58172 8-8 8 -4.41724 0-7.99854-3.58011-8-7.99735 -9.09803e-08-3.49129 1.6-6.00029 4.8-6.00029"></path><path d="M14.091 7h-1.842v-1.842l2.99181e-08 9.03681e-05c-.000602194-1.74356 1.41235-3.15749 3.15591-3.15809 .000333386-1.15145e-07.000666772-1.77481e-07.00100016-1.87007e-07h1.843v1.842l-3.00727e-08 9.08866e-05c-.000602094 1.74385-1.41415 3.15736-3.158 3.15791Z"></path><path d="M12.249 7v-.5 0c0-1.38071-1.11929-2.5-2.5-2.5h-.5"></path></g><rect width="24" height="24" fill="none"></rect></svg>