<svg id="Layer_3" data-name="Layer 3" xmlns="http://www.w3.org/2000/svg" viewBox="0 0 24 24"><path d="M8,15.54819A20.86562,20.86562,0,0,0,15.00491,9" fill="none" stroke="#323232" stroke-linecap="round" stroke-linejoin="round" stroke-width="1.5"/><path d="M18.223,4.59046,18.53746,4.07A2.21526,2.21526,0,0,1,22,3.649h0" fill="none" stroke="#323232" stroke-linecap="round" stroke-linejoin="round" stroke-width="1.5"/><path d="M17.64073,4.31777h0A3.89853,3.89853,0,0,1,19.802,9.13114h0A20.70016,20.70016,0,0,1,14.739,17.291l-.10217.10135A12.438,12.438,0,0,1,5.87731,21h0A3.87731,3.87731,0,0,1,2,17.1227H2A3.87732,3.87732,0,0,1,4.16081,13.646h0a21.23555,21.23555,0,0,0,8.277-7.27542l.41961-.63047A3.89853,3.89853,0,0,1,17.64073,4.31777Z" fill="none" stroke="#323232" stroke-linecap="round" stroke-linejoin="round" stroke-width="1.5"/><rect width="24" height="24" fill="none"/></svg>