<svg xmlns="http://www.w3.org/2000/svg" viewBox="0 0 24 24"><path d="M9,21H4.00215a2,2,0,0,1-1.83829-2.78784l1.28572-3A2,2,0,0,1,5.28787,14H8" fill="none" stroke="#323232" stroke-linecap="round" stroke-linejoin="round" stroke-width="1.5"/><path d="M9,14H5.5A1.5,1.5,0,0,1,4,12.5V5A2,2,0,0,1,6,3H18a2,2,0,0,1,2,2V9" fill="none" stroke="#323232" stroke-linecap="round" stroke-linejoin="round" stroke-width="1.5"/><path d="M22,19V18a2,2,0,0,0-2-2H14a2,2,0,0,0-2,2v1" fill="none" stroke="#323232" stroke-linecap="round" stroke-linejoin="round" stroke-width="1.5"/><rect x="12" y="12" width="10" height="9" rx="2" transform="translate(34 33) rotate(-180)" stroke-width="1.5" stroke="#323232" stroke-linecap="round" stroke-linejoin="round" fill="none"/><path d="M19.005,18.505,19,18.51l-.005-.005L19,18.5l.005.005" fill="none" stroke="#323232" stroke-linecap="round" stroke-linejoin="round" stroke-width="1.5"/><path d="M0,0H24V24H0Z" fill="none"/></svg>