<svg xmlns="http://www.w3.org/2000/svg" viewBox="0 0 24 24"><path d="M16,20h4" fill="none" stroke="#323232" stroke-linecap="round" stroke-linejoin="round" stroke-width="1.5"/><path d="M13.75,19.125,11.875,21,10.75,19.875" fill="none" stroke="#323232" stroke-linecap="round" stroke-linejoin="round" stroke-width="1.5"/><path d="M4,20H8" fill="none" stroke="#323232" stroke-linecap="round" stroke-linejoin="round" stroke-width="1.5"/><path d="M12,15.02v2" fill="none" stroke="#323232" stroke-linecap="round" stroke-linejoin="round" stroke-width="1.5"/><path d="M19.28885,10.92229l-1.62426,3.24853A1.5,1.5,0,0,1,16.323,15H6.50112a1,1,0,0,1-.90965-1.41537L6.8193,10.89572A1.99986,1.99986,0,0,0,7,10.065V4A2,2,0,0,1,9,2h8.5a2,2,0,0,1,2,2v6.02786A2,2,0,0,1,19.28885,10.92229Z" fill="none" stroke="#323232" stroke-linecap="round" stroke-linejoin="round" stroke-width="1.5"/><line x1="19.44267" y1="10.5" x2="6.95132" y2="10.5" fill="none" stroke="#323232" stroke-linecap="round" stroke-linejoin="round" stroke-width="1.5"/><path d="M0,24H24V0H0Z" fill="none"/></svg>