<svg xmlns="http://www.w3.org/2000/svg" viewBox="0 0 24 24"><rect width="24" height="24" fill="none"/><rect width="24" height="24" fill="none"/><path d="M12,4h7a2,2,0,0,1,2,2v8a2,2,0,0,1-2,2H9" fill="none" stroke="#323232" stroke-linecap="round" stroke-linejoin="round" stroke-width="1.5"/><line x1="13" y1="20" x2="13" y2="16" fill="none" stroke="#323232" stroke-linecap="round" stroke-linejoin="round" stroke-width="1.5"/><line x1="16.5" y1="20" x2="9" y2="20" fill="none" stroke="#323232" stroke-linecap="round" stroke-linejoin="round" stroke-width="1.5"/><line x1="5.5" y1="20" x2="5.5" y2="13" fill="none" stroke="#323232" stroke-linecap="round" stroke-linejoin="round" stroke-width="1.5"/><path d="M3.5,4h4A1.5,1.5,0,0,1,9,5.5V9.77778A2.22222,2.22222,0,0,1,6.77778,12H4.22222A2.22222,2.22222,0,0,1,2,9.77778V5.5A1.5,1.5,0,0,1,3.5,4Z" fill="none" stroke="#323232" stroke-linecap="round" stroke-linejoin="round" stroke-width="1.5"/><line x1="9" y1="7.5" x2="2" y2="7.5" fill="none" stroke="#323232" stroke-linecap="round" stroke-linejoin="round" stroke-width="1.5"/></svg>