<svg xmlns="http://www.w3.org/2000/svg" viewBox="0 0 24 24"><path d="M7,14.46429C7,15.45071,9.23857,16.25,12,16.25s5-.79929,5-1.78571V9.53571C17,8.54929,14.76143,7.75,12,7.75S7,8.54929,7,9.53571Z" fill="none" stroke="#323232" stroke-linecap="round" stroke-linejoin="round" stroke-width="1.5"/><path d="M17,10.71429C17,11.70071,14.76143,12.5,12,12.5s-5-.79929-5-1.78571" fill="none" stroke="#323232" stroke-linecap="round" stroke-linejoin="round" stroke-width="1.5"/><line x1="4" y1="9" x2="1.5" y2="9" fill="none" stroke="#323232" stroke-linecap="round" stroke-linejoin="round" stroke-width="1.5"/><line x1="4" y1="15" x2="3.5" y2="15" fill="none" stroke="#323232" stroke-linecap="round" stroke-linejoin="round" stroke-width="1.5"/><line x1="4" y1="12" x2="2.5" y2="12" fill="none" stroke="#323232" stroke-linecap="round" stroke-linejoin="round" stroke-width="1.5"/><path d="M3.5,5.63605A4.97868,4.97868,0,0,1,7.88031,3H16a5,5,0,0,1,5,5v8a5,5,0,0,1-5,5H7.88031A4.97868,4.97868,0,0,1,3.5,18.364" fill="none" stroke="#323232" stroke-linecap="round" stroke-linejoin="round" stroke-width="1.5"/><path d="M0,0H24V24H0Z" fill="none"/></svg>