<svg xmlns="http://www.w3.org/2000/svg" viewBox="0 0 24 24"><polyline points="8 10 6 12 8 14" fill="none" stroke="#323232" stroke-linecap="round" stroke-linejoin="round" stroke-width="1.5"/><line x1="11" y1="12" x2="6" y2="12" fill="none" stroke="#323232" stroke-linecap="round" stroke-linejoin="round" stroke-width="1.5"/><path d="M7,21H4a2,2,0,0,1-2-2V5A2,2,0,0,1,4,3H7" fill="none" stroke="#323232" stroke-linecap="round" stroke-linejoin="round" stroke-width="1.5"/><rect x="14.5" y="7" width="3.00002" height="7" rx="1" stroke-width="1.5" stroke="#323232" stroke-linecap="round" stroke-linejoin="round" fill="none"/><line x1="17.49998" y1="10.5" x2="14.49998" y2="10.5001" fill="none" stroke="#323232" stroke-linecap="round" stroke-linejoin="round" stroke-width="1.5"/><path d="M10,16v3a2,2,0,0,0,2,2h8a2,2,0,0,0,2-2V5a2,2,0,0,0-2-2H12a2,2,0,0,0-2,2V8" fill="none" stroke="#323232" stroke-linecap="round" stroke-linejoin="round" stroke-width="1.5"/><path d="M16.005,16.995,16,17l-.005-.005L16,16.99l.005.005" fill="none" stroke="#323232" stroke-linecap="round" stroke-linejoin="round" stroke-width="1.5"/><path d="M0,24H24V0H0Z" fill="none"/></svg>