<?xml version="1.0" encoding="UTF-8"?><svg version="1.1" viewBox="0 0 24 24" xmlns="http://www.w3.org/2000/svg" xmlns:xlink="http://www.w3.org/1999/xlink"><!--Generated by IJSVG (https://github.com/iconjar/IJSVG)--><g stroke-linecap="round" stroke-width="1.5" stroke="#323232" fill="none" stroke-linejoin="round"><path d="M17,4h-10c-2.209,0 -4,1.791 -4,4v0c0,2.209 1.791,4 4,4h10c2.209,0 4,-1.791 4,-4v0c0,-2.209 -1.791,-4 -4,-4Z"></path><path d="M11,8h6"></path><path d="M17,12h-10c-2.209,0 -4,1.791 -4,4v0c0,2.209 1.791,4 4,4h10c2.209,0 4,-1.791 4,-4v0c0,-2.209 -1.791,-4 -4,-4Z"></path><path d="M7.03536,7.96464c0.0195262,0.0195262 0.0195262,0.0511845 0,0.0707107c-0.0195262,0.0195262 -0.0511845,0.0195262 -0.0707107,0c-0.0195262,-0.0195262 -0.0195262,-0.0511845 0,-0.0707107c0.0195262,-0.0195262 0.0511845,-0.0195262 0.0707107,0"></path><path d="M11,16h6"></path><path d="M7.03536,15.9646c0.0195262,0.0195262 0.0195262,0.0511845 0,0.0707107c-0.0195262,0.0195262 -0.0511845,0.0195262 -0.0707107,0c-0.0195262,-0.0195262 -0.0195262,-0.0511845 0,-0.0707107c0.0195262,-0.0195262 0.0511845,-0.0195262 0.0707107,0"></path></g><path fill="none" d="M0,0h24v24h-24v-24Z"></path></svg>