<svg xmlns="http://www.w3.org/2000/svg" viewBox="0 0 24 24"><path d="M3,7V5A2,2,0,0,1,5,3H7" fill="none" stroke="#323232" stroke-linecap="round" stroke-linejoin="round" stroke-width="1.5"/><path d="M21,17v2a2,2,0,0,1-2,2H15" fill="none" stroke="#323232" stroke-linecap="round" stroke-linejoin="round" stroke-width="1.5"/><path d="M11,7V5a2,2,0,0,1,2-2h6a2,2,0,0,1,2,2v7a2,2,0,0,1-2,2H15" fill="none" stroke="#323232" stroke-linecap="round" stroke-linejoin="round" stroke-width="1.5"/><line x1="14" y1="7" x2="18" y2="7.00001" fill="none" stroke="#323232" stroke-linecap="round" stroke-linejoin="round" stroke-width="1.5"/><path d="M16.005,10.045,16,10.05l-.005-.005L16,10.04l.005.005" fill="none" stroke="#323232" stroke-linecap="round" stroke-linejoin="round" stroke-width="1.5"/><path d="M15.9996,10a.04943.04943,0,0,0-.0496.04925V10.05A.05.05,0,1,0,16,10h-.0004" fill="none" stroke="#323232" stroke-linecap="round" stroke-linejoin="round" stroke-width="1.5"/><path d="M3,19.39286C3,20.28064,5.01471,21,7.5,21s4.5-.71936,4.5-1.60714V11.60714C12,10.71936,9.98529,10,7.5,10S3,10.71936,3,11.60714Z" fill="none" stroke="#323232" stroke-linecap="round" stroke-linejoin="round" stroke-width="1.5"/><path d="M12,15.89286C12,16.78064,9.98529,17.5,7.5,17.5S3,16.78064,3,15.89286" fill="none" stroke="#323232" stroke-linecap="round" stroke-linejoin="round" stroke-width="1.5"/><path d="M12,12.39286C12,13.28064,9.98529,14,7.5,14S3,13.28064,3,12.39286" fill="none" stroke="#323232" stroke-linecap="round" stroke-linejoin="round" stroke-width="1.5"/><path d="M0,24H24V0H0" fill="none"/></svg>