<svg xmlns="http://www.w3.org/2000/svg" viewBox="0 0 24 24"><path d="M4,10V5A2,2,0,0,1,6,3H19a2,2,0,0,1,2,2V19a2,2,0,0,1-2,2H15" fill="none" stroke="#323232" stroke-linecap="round" stroke-linejoin="round" stroke-width="1.5"/><line x1="17" y1="8" x2="8" y2="8" fill="none" stroke="#323232" stroke-linecap="round" stroke-linejoin="round" stroke-width="1.5"/><line x1="17" y1="12" x2="15" y2="12" fill="none" stroke="#323232" stroke-linecap="round" stroke-linejoin="round" stroke-width="1.5"/><line x1="17" y1="16" x2="16" y2="16" fill="none" stroke="#323232" stroke-linecap="round" stroke-linejoin="round" stroke-width="1.5"/><path d="M2.5,15.39286C2.5,16.28064,4.51471,17,7,17s4.5-.71936,4.5-1.60714" fill="none" stroke="#323232" stroke-linecap="round" stroke-linejoin="round" stroke-width="1.5"/><path d="M11.5,19.39286C11.5,20.28065,9.48529,21,7,21s-4.5-.71935-4.5-1.60714V14.60714C2.5,13.71936,4.51471,13,7,13s4.5.71936,4.5,1.60714Z" fill="none" stroke="#323232" stroke-linecap="round" stroke-linejoin="round" stroke-width="1.5"/><path d="M0,24H24V0H0Z" fill="none"/></svg>