<svg xmlns="http://www.w3.org/2000/svg" viewBox="0 0 24 24"><path d="M0,24H24V0H0Z" fill="none"/><path d="M21,17V15.5A3.5,3.5,0,0,0,17.5,12H6.5A3.5,3.5,0,0,0,3,15.5V17" fill="none" stroke="#323232" stroke-linecap="round" stroke-linejoin="round" stroke-width="1.5"/><line x1="7" y1="16.5" x2="13" y2="16.5" fill="none" stroke="#323232" stroke-linecap="round" stroke-linejoin="round" stroke-width="1.5"/><path d="M17.125,16.50048A.125.125,0,1,1,17,16.375a.12434.12434,0,0,1,.125.12548" fill="none" stroke="#323232" stroke-linecap="round" stroke-linejoin="round" stroke-width="1.5"/><path d="M17.0496,3H18a3,3,0,0,1,3,3V17.5A3.5,3.5,0,0,1,17.5,21H6.5A3.5,3.5,0,0,1,3,17.5V6A3,3,0,0,1,6,3H7.0496" fill="none" stroke="#323232" stroke-linecap="round" stroke-linejoin="round" stroke-width="1.5"/><line x1="12" y1="7" x2="11.99999" y2="2" fill="none" stroke="#323232" stroke-linecap="round" stroke-linejoin="round" stroke-width="1.5"/><polyline points="14 4 12 2 10 4" fill="none" stroke="#323232" stroke-linecap="round" stroke-linejoin="round" stroke-width="1.5"/></svg>