<?xml version="1.0" encoding="UTF-8"?><svg version="1.1" viewBox="0 0 24 24" xmlns="http://www.w3.org/2000/svg" xmlns:xlink="http://www.w3.org/1999/xlink"><!--Generated by IJSVG (https://github.com/iconjar/IJSVG)--><g stroke-linecap="round" stroke-width="1.5" stroke="#323232" fill="none" stroke-linejoin="round"><path d="M16,3h-10c-2.209,0 -4,1.791 -4,4v0c0,2.209 1.791,4 4,4h10c2.209,0 4,-1.791 4,-4v0c0,-2.209 -1.791,-4 -4,-4Z"></path><path d="M6,11c-2.209,0 -4,1.791 -4,4v0c0,2.209 1.791,4 4,4h7"></path><path d="M17,21c-2.761,0 -5,-2.239 -5,-5c0,-2.761 2.239,-5 5,-5c2.762,0 5,2.239 5,5c0,2.761 -2.238,5 -5,5"></path><path d="M10,7h6"></path><path d="M6.035,6.965c0.02,0.02 0.02,0.051 0,0.071c-0.02,0.02 -0.051,0.02 -0.071,0c-0.02,-0.02 -0.02,-0.051 0,-0.071c0.02,-0.02 0.052,-0.02 0.071,0"></path><path d="M10,15h2.1"></path><path d="M6.035,14.965c0.02,0.02 0.02,0.051 0,0.071c-0.02,0.02 -0.051,0.02 -0.071,0c-0.02,-0.02 -0.02,-0.051 0,-0.071c0.02,-0.02 0.052,-0.02 0.071,0"></path><path d="M17,13.778v0.744"></path><path d="M17,17.478v0.744"></path><path d="M15.078,14.889l0.644,0.367"></path><path d="M18.289,16.744l0.633,0.367"></path><path d="M15.078,17.111l0.644,-0.367"></path><path d="M18.289,15.256l0.633,-0.367"></path><path d="M17,14.518c0.819,0 1.482,0.664 1.482,1.482c0,0.818 -0.663,1.482 -1.482,1.482c-0.819,0 -1.482,-0.663 -1.482,-1.482c0,-0.819 0.663,-1.482 1.482,-1.482"></path></g><path fill="none" d="M0,0h24v24h-24v-24Z"></path></svg>