<?xml version="1.0" encoding="UTF-8"?><svg version="1.1" viewBox="0 0 24 24" xmlns="http://www.w3.org/2000/svg" xmlns:xlink="http://www.w3.org/1999/xlink"><g stroke-linecap="round" stroke-width="1.5" stroke="#323232" fill="none" stroke-linejoin="round"><path d="M5 5.5v8c0 1.381 3.134 2.5 7 2.5 3.866 0 7-1.119 7-2.5v-8c0-1.381-3.134-2.5-7-2.5 -3.866 0-7 1.119-7 2.5Z"></path><path d="M19 5.5c0 1.381-3.134 2.5-7 2.5 -3.866 0-7-1.119-7-2.5"></path><path d="M19 9.5c0 1.381-3.134 2.5-7 2.5 -3.866 0-7-1.119-7-2.5"></path><path d="M16 20h4"></path><path d="M4 20h4"></path><line x1="10.5" x2="13.5" y1="18.5" y2="21.5"></line><line x1="10.5" x2="13.5" y1="21.5" y2="18.5"></line></g><path fill="none" d="M0 0h24v24h-24v-24Z"></path></svg>