<?xml version="1.0" encoding="UTF-8"?><svg version="1.1" viewBox="0 0 24 24" xmlns="http://www.w3.org/2000/svg" xmlns:xlink="http://www.w3.org/1999/xlink"><!--Generated by IJSVG (https://github.com/iconjar/IJSVG)--><defs><path d="M8.999,13.5c0,1.105 -1.567,2 -3.5,2c-1.933,0 -3.499,-0.896 -3.499,-2" id="a"></path></defs><g stroke-linecap="round" stroke-width="1.5" stroke="#323232" fill="none" stroke-linejoin="round"><path d="M8.999,10.5c0,1.105 -1.567,2 -3.5,2c-1.933,0 -3.499,-0.896 -3.499,-2"></path><use xlink:href="#a"></use><use xlink:href="#a"></use><path d="M19,21h-4c-1.105,0 -2,-0.895 -2,-2v-14c0,-1.105 0.895,-2 2,-2h4c1.105,0 2,0.895 2,2v14c0,1.105 -0.895,2 -2,2Z"></path><path d="M9,12h4"></path><path d="M16,6h2"></path><path d="M16,10h2"></path><path d="M16,14h2"></path><path d="M16,18h2"></path><path d="M2,7.5c0,1.105 1.567,2 3.5,2c1.933,0 3.5,-0.895 3.5,-2"></path><path d="M2,7.5c0.001,-1.104 1.568,-2 3.5,-2c1.932,0 3.5,0.895 3.499,2v9c0,1.105 -1.567,2 -3.5,2c-1.933,0 -3.499,-0.896 -3.499,-2v-9Z"></path></g><path fill="none" d="M0,0h24v24h-24v-24Z"></path></svg>