<svg xmlns="http://www.w3.org/2000/svg" viewBox="0 0 24 24"><path d="M24,24H0V0H24Z" fill="none"/><path d="M21,17V15.5A3.5,3.5,0,0,0,17.5,12H6.5A3.5,3.5,0,0,0,3,15.5V17" fill="none" stroke="#323232" stroke-linecap="round" stroke-linejoin="round" stroke-width="1.5"/><path d="M6.5,3h11A3.5,3.5,0,0,1,21,6.5V18a3,3,0,0,1-3,3H6a3,3,0,0,1-3-3V6.5A3.5,3.5,0,0,1,6.5,3Z" transform="translate(24 24) rotate(-180)" fill="none" stroke="#323232" stroke-linecap="round" stroke-linejoin="round" stroke-width="1.5"/><line x1="7" y1="16.5" x2="13" y2="16.5" fill="none" stroke="#323232" stroke-linecap="round" stroke-linejoin="round" stroke-width="1.5"/><path d="M17.125,16.50048A.125.125,0,1,1,17,16.375a.12434.12434,0,0,1,.125.12548" fill="none" stroke="#323232" stroke-linecap="round" stroke-linejoin="round" stroke-width="1.5"/></svg>