<svg id="Layer_3" data-name="Layer 3" xmlns="http://www.w3.org/2000/svg" viewBox="0 0 24 24"><path d="M7,14.045H7A2.45448,2.45448,0,0,0,9.45375,16.5h5.0905A2.456,2.456,0,0,0,17,14.046h0a2.4547,2.4547,0,0,0-2.45475-2.455H9.45475A2.45448,2.45448,0,0,0,7,14.045Z" fill="none" stroke="#323232" stroke-linecap="round" stroke-linejoin="round" stroke-width="1.5"/><path d="M20.5,17.75l-2,2-1.2-1.2" fill="none" stroke="#323232" stroke-linecap="round" stroke-linejoin="round" stroke-width="1.5"/><path d="M14,20.76929A9.02818,9.02818,0,1,1,20.76929,14" fill="none" stroke="#323232" stroke-linecap="round" stroke-linejoin="round" stroke-width="1.5"/><path d="M16.991,13.846l-.349-4.501A1.99979,1.99979,0,0,0,14.64824,7.5H9.35177A2.00083,2.00083,0,0,0,7.357,9.346l-.349,4.501" fill="none" stroke="#323232" stroke-linecap="round" stroke-linejoin="round" stroke-width="1.5"/><path d="M14.41451,13.96421a.05143.05143,0,0,1,.071,0,.05014.05014,0,1,1-.071,0" fill="none" stroke="#323232" stroke-linecap="round" stroke-linejoin="round" stroke-width="1.5"/><path d="M0,0H24V24H0Z" fill="none"/></svg>