<svg id="Layer_3" data-name="Layer 3" xmlns="http://www.w3.org/2000/svg" viewBox="0 0 24 24"><rect x="4.00001" y="3" width="16" height="18" rx="2" stroke-width="1.5" stroke="#323232" stroke-linecap="round" stroke-linejoin="round" fill="none"/><line x1="8.00001" y1="17" x2="16.00001" y2="17" fill="none" stroke="#323232" stroke-linecap="round" stroke-linejoin="round" stroke-width="1.5"/><path d="M11.21532,6.98788a.875.875,0,0,1,1.56936,0l.44519.90248a.87494.87494,0,0,0,.65883.47878l.99587.14475a.875.875,0,0,1,.48508,1.49221l-.72091.70316a.875.875,0,0,0-.25144.77429l.17011.99162a.875.875,0,0,1-1.26942.92243l-.89093-.46825a.875.875,0,0,0-.81412,0l-.89093.46825a.875.875,0,0,1-1.26942-.92243l.17011-.99162a.875.875,0,0,0-.25144-.77429l-.72091-.70316a.875.875,0,0,1,.48508-1.49221l.99587-.14475a.87494.87494,0,0,0,.65883-.47878Z" fill="none" stroke="#323232" stroke-linecap="round" stroke-linejoin="round" stroke-width="1.5"/><path d="M0,24l24,0L24,0,0,0Z" fill="none"/></svg>