<?xml version="1.0" encoding="UTF-8"?><svg version="1.1" viewBox="0 0 24 24" xmlns="http://www.w3.org/2000/svg" xmlns:xlink="http://www.w3.org/1999/xlink"><!--Generated by IJSVG (https://github.com/iconjar/IJSVG)--><g fill="none"><path d="M0,0h24v24h-24Z"></path><path stroke="#323232" stroke-linecap="round" stroke-linejoin="round" stroke-width="1.5" d="M6.944,19h-1.888c-0.583,0 -1.056,-0.473 -1.056,-1.056v-7.388c0,-0.583 0.473,-1.056 1.056,-1.056h1.888c0.583,0 1.056,0.473 1.056,1.056v7.388c0,0.583 -0.473,1.056 -1.056,1.056Z"></path><path stroke="#323232" stroke-linecap="round" stroke-linejoin="round" stroke-width="1.5" d="M8,10.572l3.649,-4.751c0.679,-0.885 2.005,-0.907 2.714,-0.046v0c0.265,0.321 0.409,0.725 0.409,1.141v3.271h3.096c0.601,0 1.162,0.3 1.496,0.799l0.329,0.491c0.295,0.441 0.381,0.99 0.234,1.499l-1.359,4.722c-0.222,0.771 -0.927,1.302 -1.729,1.302h-6.289c-0.5,0 -0.978,-0.208 -1.318,-0.574l-1.232,-1.326"></path></g></svg>