<svg xmlns="http://www.w3.org/2000/svg" viewBox="0 0 24 24"><path d="M21,9v9a2,2,0,0,1-2,2H5a2,2,0,0,1-2-2V9A2,2,0,0,1,5,7H7L8.4622,4.49577A1,1,0,0,1,9.32577,4h5.30354a1,1,0,0,1,.85681.48438L17,7h2A2,2,0,0,1,21,9Z" fill="none" stroke="#323232" stroke-linecap="round" stroke-linejoin="round" stroke-width="1.5"/><path d="M11.12262,9.52009a1,1,0,0,1,1.75476,0l.77949,1.42539a.99993.99993,0,0,0,.39757.39757l1.42539.77949a1,1,0,0,1,0,1.75475l-1.42539.77949a1,1,0,0,0-.39757.39758l-.77949,1.42538a1,1,0,0,1-1.75476,0l-.77949-1.42538a1,1,0,0,0-.39757-.39758l-1.42539-.77949a1,1,0,0,1,0-1.75475l1.42539-.77949a.99993.99993,0,0,0,.39757-.39757Z" fill="none" stroke="#323232" stroke-linecap="round" stroke-linejoin="round" stroke-width="1.5"/></svg>