<?xml version="1.0" encoding="UTF-8"?><svg version="1.1" viewBox="0 0 24 24" xmlns="http://www.w3.org/2000/svg" xmlns:xlink="http://www.w3.org/1999/xlink"><!--Generated by IJSVG (https://github.com/iconjar/IJSVG)--><g stroke-linecap="round" stroke-width="1.5" stroke="#323232" fill="none" stroke-linejoin="round"><path d="M12.922,11.116c0.488,0.488 0.488,1.28 0,1.768c-0.488,0.488 -1.28,0.488 -1.768,0c-0.488,-0.488 -0.488,-1.28 0,-1.768c0.488,-0.488 1.28,-0.488 1.768,0"></path><path d="M14.667,9.278l-0.811,-1.347c-0.161,-0.268 -0.45,-0.431 -0.762,-0.431h-2.212c-0.316,0 -0.608,0.168 -0.768,0.441l-0.781,1.337h-1.222c-0.613,0 -1.111,0.498 -1.111,1.111v4c0,0.613 0.498,1.111 1.111,1.111h7.778c0.613,0 1.111,-0.498 1.111,-1.111v-4c0,-0.613 -0.498,-1.111 -1.11,-1.111h-1.223Z"></path><path d="M18.364,5.63604c3.51472,3.51472 3.51472,9.2132 0,12.7279c-3.51472,3.51472 -9.2132,3.51472 -12.7279,0c-3.51472,-3.51472 -3.51472,-9.2132 -1.77636e-15,-12.7279c3.51472,-3.51472 9.2132,-3.51472 12.7279,-1.77636e-15"></path></g><path fill="none" d="M0,0h24v24h-24v-24Z"></path></svg>