<svg xmlns="http://www.w3.org/2000/svg" viewBox="0 0 24 24"><rect x="15.93932" y="3.43935" width="4.62131" height="4.62131" rx="1.24998" transform="translate(1.27943 14.58882) rotate(-45)" stroke-width="1.5" stroke="#323232" stroke-linecap="round" stroke-linejoin="round" fill="none"/><path d="M11.98117,12.01913A7.22968,7.22968,0,0,1,10.71025,3.719a.49926.49926,0,0,0-.56521-.70415A9.25766,9.25766,0,0,0,5.76616,5.466a9.15,9.15,0,0,0-.17068,12.93817,9.15071,9.15071,0,0,0,12.93821-.16938,9.26275,9.26275,0,0,0,2.45145-4.37842.49924.49924,0,0,0-.70413-.56523A7.22744,7.22744,0,0,1,11.98117,12.01913Z" fill="none" stroke="#323232" stroke-linecap="round" stroke-linejoin="round" stroke-width="1.5"/></svg>