<svg xmlns="http://www.w3.org/2000/svg" viewBox="0 0 24 24"><path d="M17.62245,2.52037a1,1,0,0,1,1.75474,0l.60272,1.10215a.99993.99993,0,0,0,.39757.39757l1.10215.60272a1,1,0,0,1,0,1.75474l-1.10215.60272a.99993.99993,0,0,0-.39757.39757L19.37719,8.48a1,1,0,0,1-1.75474,0l-.60272-1.10215a.99993.99993,0,0,0-.39757-.39757L15.52,6.37755a1,1,0,0,1,0-1.75474l1.10215-.60272a.99987.99987,0,0,0,.39757-.39757Z" fill="none" stroke="#323232" stroke-linecap="round" stroke-linejoin="round" stroke-width="1.5"/><path d="M21,11v5a5,5,0,0,1-5,5H8a5,5,0,0,1-5-5V8A5,5,0,0,1,8,3h5" fill="none" stroke="#323232" stroke-linecap="round" stroke-linejoin="round" stroke-width="1.5"/><circle cx="12" cy="11.75" r="2.75" fill="none" stroke="#323232" stroke-linecap="round" stroke-linejoin="round" stroke-width="1.5"/><path d="M6.5,20.76969V19.75A2.75,2.75,0,0,1,9.25,17h5.5a2.75,2.75,0,0,1,2.75,2.75v1.01988" fill="none" stroke="#323232" stroke-linecap="round" stroke-linejoin="round" stroke-width="1.5"/></svg>