<svg xmlns="http://www.w3.org/2000/svg" viewBox="0 0 24 24"><path d="M8.82832,18.65674h-2.485a1,1,0,0,1-1-1v-2.485a1,1,0,0,0-.29289-.70711L3.2929,12.70711a1,1,0,0,1,0-1.41422L5.05038,9.53542a1,1,0,0,0,.29289-.70711v-2.485a1,1,0,0,1,1-1h2.485a1,1,0,0,0,.7071-.29289L11.2929,3.29289a1,1,0,0,1,1.41422,0l1.75747,1.75748a1,1,0,0,0,.70711.29289h2.485a1,1,0,0,1,1,1v2.485a1,1,0,0,0,.29289.70711l1.75747,1.75747a1,1,0,0,1,0,1.41422l-1.75747,1.75748a1,1,0,0,0-.29289.7071v2.485a1,1,0,0,1-1,1h-2.485a1,1,0,0,0-.70711.29289l-1.75747,1.75748a1,1,0,0,1-1.41422,0L9.53542,18.94963A1,1,0,0,0,8.82832,18.65674Z" fill="none" stroke="#323232" stroke-linecap="round" stroke-linejoin="round" stroke-width="1.5"/><line x1="10" y1="10" x2="14" y2="14" fill="none" stroke="#323232" stroke-linecap="round" stroke-linejoin="round" stroke-width="1.5"/><line x1="10" y1="14" x2="14" y2="10" fill="none" stroke="#323232" stroke-linecap="round" stroke-linejoin="round" stroke-width="1.5"/></svg>