<svg xmlns="http://www.w3.org/2000/svg" viewBox="0 0 24 24"><path d="M5.66338,17.00048l-.13266.7524A2,2,0,0,0,7.153,20.06977l10.77279,1.89951A2,2,0,0,0,20.24271,20.347l1.72657-9.792A2,2,0,0,0,20.347,8.238l-3.3253-.58633" fill="none" stroke="#323232" stroke-linecap="round" stroke-linejoin="round" stroke-width="1.5"/><path d="M4,2H15a1.99946,1.99946,0,0,1,2,2V15a1.99944,1.99944,0,0,1-2,2H4a1.99944,1.99944,0,0,1-2-2V4A2.0001,2.0001,0,0,1,4,2Z" fill="none" stroke="#323232" stroke-linecap="round" stroke-linejoin="round" stroke-width="1.5"/><line x1="17" y1="12.5" x2="2" y2="12.5" fill="none" stroke="#323232" stroke-linecap="round" stroke-linejoin="round" stroke-width="1.5"/></svg>