<svg xmlns="http://www.w3.org/2000/svg" viewBox="0 0 24 24"><circle cx="12" cy="11.49999" r="4" fill="none" stroke="#323232" stroke-linecap="round" stroke-linejoin="round" stroke-width="1.5"/><path d="M14.41418,19l-1.70709,1.70709a1,1,0,0,1-1.41418,0L9.58582,19H5a2,2,0,0,1-2-2V7A2,2,0,0,1,5,5H7.58579a1,1,0,0,0,.7071-.29289L9.41421,3.58578A2,2,0,0,1,10.82843,3h2.34314a2,2,0,0,1,1.41422.58579L15.70711,4.7071A1,1,0,0,0,16.41421,5H19a2,2,0,0,1,2,2V17a2,2,0,0,1-2,2Z" fill="none" stroke="#323232" stroke-linecap="round" stroke-linejoin="round" stroke-width="1.5"/></svg>