<?xml version="1.0" encoding="UTF-8"?><svg version="1.1" viewBox="0 0 24 24" xmlns="http://www.w3.org/2000/svg" xmlns:xlink="http://www.w3.org/1999/xlink"><!--Generated by IJSVG (https://github.com/iconjar/IJSVG)--><g stroke-linecap="round" stroke-width="1.3825" stroke="#323232" fill="none" stroke-linejoin="round"><path d="M7.5,3h-2.5c-1.105,0 -2,0.895 -2,2v2.5"></path><path d="M3,16.5v2.5c0,1.105 0.895,2 2,2h2.5"></path><path d="M16.5,21h2.5c1.105,0 2,-0.895 2,-2v-2.5"></path><path d="M21,7.5v-2.5c0,-1.105 -0.895,-2 -2,-2h-2.5"></path><path d="M14.1213,9.87868c1.17157,1.17157 1.17157,3.07107 0,4.24264c-1.17157,1.17157 -3.07107,1.17157 -4.24264,0c-1.17157,-1.17157 -1.17157,-3.07107 0,-4.24264c1.17157,-1.17157 3.07107,-1.17157 4.24264,0"></path><path d="M17,12h-2"></path><path d="M12,17v-2"></path><path d="M12,7v2"></path><path d="M9,12h-2"></path></g><path fill="none" d="M0,0h24v24h-24Z"></path></svg>