<svg xmlns="http://www.w3.org/2000/svg" viewBox="0 0 24 24"><line x1="5.75" y1="12.0001" x2="6.25" y2="11.9999" fill="none" stroke="#323232" stroke-linecap="round" stroke-linejoin="round" stroke-width="1.5"/><line x1="18.25" y1="11.9999" x2="17.75" y2="12.0001" fill="none" stroke="#323232" stroke-linecap="round" stroke-linejoin="round" stroke-width="1.5"/><line x1="12" y1="18" x2="11.9998" y2="17.5" fill="none" stroke="#323232" stroke-linecap="round" stroke-linejoin="round" stroke-width="1.5"/><line x1="12" y1="6" x2="12.00019" y2="6.5" fill="none" stroke="#323232" stroke-linecap="round" stroke-linejoin="round" stroke-width="1.5"/><rect x="3" y="3" width="18" height="18" rx="5" stroke-width="1.5" stroke="#323232" stroke-linecap="round" stroke-linejoin="round" fill="none"/><path d="M10.25,14.49963,9.75206,14.5a1,1,0,0,1-1.00075-.99956L8.75,10.50081a1,1,0,0,1,.99925-1.00044L10.25,9.5" fill="none" stroke="#323232" stroke-linecap="round" stroke-linejoin="round" stroke-width="1.5"/><path d="M13.75,9.50038,14.24788,9.5a1,1,0,0,1,1.00076.99955L15.25,13.49917a1,1,0,0,1-.99924,1.00045L13.75008,14.5" fill="none" stroke="#323232" stroke-linecap="round" stroke-linejoin="round" stroke-width="1.5"/></svg>