<?xml version="1.0" encoding="UTF-8"?><svg version="1.1" viewBox="0 0 24 24" xmlns="http://www.w3.org/2000/svg" xmlns:xlink="http://www.w3.org/1999/xlink"><!--Generated by IJSVG (https://github.com/iconjar/IJSVG)--><g stroke-linecap="round" stroke-width="1.5" stroke="#323232" fill="none" stroke-linejoin="round"><path d="M13.047,8.093h-2.093c-0.552,0 -1,-0.448 -1,-1v-2.093c0,-0.552 0.448,-1 1,-1h2.093c0.552,0 1,0.448 1,1v2.093c0,0.552 -0.448,1 -1,1Z"></path><path d="M20.08,20h-2.093c-0.552,0 -1,-0.448 -1,-1v-2.093c0,-0.552 0.448,-1 1,-1h2.093c0.552,0 1,0.448 1,1v2.093c0,0.552 -0.448,1 -1,1Z"></path><path d="M6.013,20h-2.093c-0.552,0 -1,-0.448 -1,-1v-2.093c0,-0.552 0.448,-1 1,-1h2.093c0.552,0 1,0.448 1,1v2.093c0,0.552 -0.447,1 -1,1Z"></path><path d="M5.84,15.91l4.91,-7.86"></path><path d="M13.25,8.05l4.91,7.86"></path><path d="M16.99,17.22h-9.98"></path></g><path fill="none" d="M0,0h24v24h-24Z"></path></svg>