<?xml version="1.0" encoding="UTF-8"?><svg version="1.1" viewBox="0 0 24 24" xmlns="http://www.w3.org/2000/svg" xmlns:xlink="http://www.w3.org/1999/xlink"><!--Generated by IJSVG (https://github.com/iconjar/IJSVG)--><g fill="none"><path d="M0,0h24v24h-24Z"></path><path stroke="#323232" stroke-linecap="round" stroke-linejoin="round" stroke-width="1.5" d="M3,20c0,-4.971 4.029,-9 9,-9c4.971,0 9,4.029 9,9"></path><path stroke="#323232" stroke-linecap="round" stroke-linejoin="round" stroke-width="1.5" d="M12.338,8.198h-0.677c-0.751,0 -1.359,-0.608 -1.359,-1.359v-0.677c0,-0.751 0.608,-1.359 1.359,-1.359h0.677c0.751,0 1.359,0.608 1.359,1.359v0.677c0.001,0.75 -0.608,1.359 -1.359,1.359Z"></path><path stroke="#323232" stroke-linecap="round" stroke-linejoin="round" stroke-width="1.5" d="M4.036,4.5v0c1.105,0 2,0.895 2,2v0c0,1.105 -0.895,2 -2,2v0c-1.105,0 -2,-0.895 -2,-2v0c4.44089e-16,-1.105 0.895,-2 2,-2Z"></path><path stroke="#323232" stroke-linecap="round" stroke-linejoin="round" stroke-width="1.5" d="M10.3,6.5h-4.26"></path><path stroke="#323232" stroke-linecap="round" stroke-linejoin="round" stroke-width="1.5" d="M19.964,8.5v0c-1.105,0 -2,-0.895 -2,-2v0c0,-1.105 0.895,-2 2,-2v0c1.105,0 2,0.895 2,2v0c0,1.105 -0.895,2 -2,2Z"></path><path stroke="#323232" stroke-linecap="round" stroke-linejoin="round" stroke-width="1.5" d="M13.7,6.5h4.26"></path></g></svg>