<?xml version="1.0" encoding="UTF-8"?><svg version="1.1" viewBox="0 0 24 24" xmlns="http://www.w3.org/2000/svg" xmlns:xlink="http://www.w3.org/1999/xlink"><g transform="matrix(1 0 0 1 -4.156 12.338)"><path fill="none" stroke="#323232" stroke-linecap="round" stroke-linejoin="round" stroke-width="1.5" d="M11.028 7.61h4.472l-3.9078e-08-8.88178e-16c.493743-2.15822e-08.894.400257.894.894v5.362 0c0 .493743-.400257.894-.894.894 0 0 0 0 0 0h-4.472l1.66961e-08-9.34364e-12c-.986933.000552449-1.78745-.799067-1.788-1.786 -3.73273e-07-.00066684-3.73286e-07-.00133368-4.04192e-11-.00200052v-3.572l-6.91842e-08-4.14938e-05c-.00163409-.986931.797107-1.78832 1.78404-1.78996 .00133427-2.20919e-06.00266853-2.92402e-06.0040028-2.14451e-06Z" transform="matrix(.707107 -.707107 .707107 .707107 0 0)"></path></g><g stroke-linecap="round" stroke-width="1.5" stroke="#323232" fill="none" stroke-linejoin="round"><rect width="18" height="18" x="3" y="3" rx="2.7614" ry="0"></rect><path d="M9.234 12.66l-2.3 2.3 -1.27789e-07 1.31157e-07c-.574264.5894-.561995 1.53274.0274046 2.107 .578588.56373 1.50101.56373 2.0796-2.55578e-07l2.3-2.3"></path><line x1="10.02" x2="15.08" y1="8.92" y2="13.98"></line></g><path fill="none" d="M0 0h24v24h-24Z"></path></svg>