<?xml version="1.0" encoding="UTF-8"?><svg version="1.1" viewBox="0 0 24 24" xmlns="http://www.w3.org/2000/svg" xmlns:xlink="http://www.w3.org/1999/xlink"><!--Generated by IJSVG (https://github.com/iconjar/IJSVG)--><g stroke-linecap="round" stroke-width="1.5" stroke="#323232" fill="none" stroke-linejoin="round"><path d="M7.258,16.418l-3.742,-3.742c-0.827,-0.827 -0.827,-2.167 0,-2.994l5.634,-5.634l6.736,6.736l-5.634,5.634c-0.827,0.826 -2.168,0.826 -2.994,0Z"></path><path d="M18.883,13.774c0,0 -2.117,2.297 -2.117,3.705c0,1.164 0.953,2.117 2.117,2.117c1.164,0 2.117,-0.953 2.117,-2.118c0,-1.407 -2.117,-3.704 -2.117,-3.704Z"></path><path d="M9.15,4.05l-1.09,-1.11"></path><path d="M15.89,10.78h-12.96"></path><path d="M3.42,21.44h8.58"></path></g><path fill="none" d="M0,0h24v24h-24Z"></path></svg>