<?xml version="1.0" encoding="UTF-8"?><svg version="1.1" viewBox="0 0 24 24" xmlns="http://www.w3.org/2000/svg" xmlns:xlink="http://www.w3.org/1999/xlink"><!--Generated by IJSVG (https://github.com/iconjar/IJSVG)--><g fill="none"><path d="M0,0h24v24h-24Z"></path><path stroke="#323232" stroke-linecap="round" stroke-linejoin="round" stroke-width="1.5" d="M8.251,21.502c-3.447,0 -6.251,-2.804 -6.251,-6.251c0,-3.447 2.804,-6.251 6.251,-6.251c3.447,0 6.251,2.804 6.251,6.251c0,3.447 -2.804,6.251 -6.251,6.251Z"></path><path stroke="#323232" stroke-linecap="round" stroke-linejoin="round" stroke-width="1.5" d="M15.749,21.502c-3.447,0 -6.251,-2.804 -6.251,-6.251c0,-3.447 2.804,-6.251 6.251,-6.251c3.447,0 6.251,2.804 6.251,6.251c0,3.447 -2.804,6.251 -6.251,6.251Z"></path><path stroke="#323232" stroke-linecap="round" stroke-linejoin="round" stroke-width="1.5" d="M12.01,15c-3.447,0 -6.251,-2.804 -6.251,-6.251c0,-3.447 2.804,-6.251 6.251,-6.251c3.447,0 6.251,2.804 6.251,6.251c0,3.447 -2.804,6.251 -6.251,6.251Z"></path></g></svg>