<?xml version="1.0" encoding="UTF-8"?><svg version="1.1" viewBox="0 0 24 24" xmlns="http://www.w3.org/2000/svg" xmlns:xlink="http://www.w3.org/1999/xlink"><!--Generated by IJSVG (https://github.com/iconjar/IJSVG)--><g fill="none"><path d="M0,0h24v24h-24Z"></path><path stroke="#323232" stroke-linecap="round" stroke-linejoin="round" stroke-width="1.5" d="M11.999,6.375c-0.152,0 -0.275,0.123 -0.273,0.275c0,0.152 0.123,0.275 0.275,0.275c0.152,0 0.275,-0.123 0.275,-0.275c-0.002,-0.152 -0.124,-0.275 -0.277,-0.275"></path><path stroke="#323232" stroke-linecap="round" stroke-linejoin="round" stroke-width="1.5" d="M6.924,11.999c0,-0.152 -0.123,-0.275 -0.274,-0.273c-0.152,0 -0.275,0.123 -0.275,0.275c0,0.152 0.123,0.275 0.275,0.275c0.152,0 0.274,-0.124 0.274,-0.277"></path><path stroke="#323232" stroke-linecap="round" stroke-linejoin="round" stroke-width="1.5" d="M15.977,8.022c-0.107,-0.107 -0.281,-0.107 -0.387,0.001c-0.107,0.107 -0.107,0.281 0,0.388c0.107,0.107 0.281,0.107 0.388,0c0.107,-0.108 0.107,-0.281 -0.001,-0.389"></path><path stroke="#323232" stroke-linecap="round" stroke-linejoin="round" stroke-width="1.5" d="M8.41,15.589c-0.107,-0.107 -0.281,-0.107 -0.387,0.001c-0.107,0.107 -0.107,0.281 0,0.388c0.107,0.107 0.281,0.107 0.388,0c0.107,-0.107 0.107,-0.281 -0.001,-0.389"></path><path stroke="#323232" stroke-linecap="round" stroke-linejoin="round" stroke-width="1.5" d="M8.411,8.41c0.107,-0.107 0.107,-0.281 -0.001,-0.387c-0.107,-0.107 -0.281,-0.107 -0.388,0c-0.107,0.107 -0.107,0.281 0,0.388c0.107,0.107 0.281,0.107 0.389,-0.001"></path><path stroke="#323232" stroke-linecap="round" stroke-linejoin="round" stroke-width="1.5" d="M12,21c-5.055,0 -9.137,-4.168 -8.996,-9.255c0.13,-4.696 4.045,-8.611 8.741,-8.741c5.087,-0.141 9.255,3.941 9.255,8.996v1c0,1.105 -0.895,2 -2,2h-2.063c-1.329,0 -2.288,1.272 -1.923,2.549l0.257,0.901c0.366,1.278 -0.594,2.55 -1.922,2.55c0,0 -1.349,0 -1.349,0Z"></path></g></svg>