<?xml version="1.0" encoding="UTF-8"?><svg version="1.1" viewBox="0 0 24 24" xmlns="http://www.w3.org/2000/svg" xmlns:xlink="http://www.w3.org/1999/xlink"><!--Generated by IJSVG (https://github.com/iconjar/IJSVG)--><g fill="none"><path d="M0,0h24v24h-24Z"></path><path stroke="#323232" stroke-linecap="round" stroke-linejoin="round" stroke-width="1.5" d="M11.5,15.64h-6"></path><path stroke="#323232" stroke-linecap="round" stroke-linejoin="round" stroke-width="1.5" d="M8.5,18.64v-6"></path><path stroke="#323232" stroke-linecap="round" stroke-linejoin="round" stroke-width="1.5" d="M2.5,20.357v-9.715c0,-0.552 0.448,-1 1,-1h10c0.552,0 1,0.448 1,1v9.715c0,0.552 -0.448,1 -1,1h-10c-0.552,0 -1,-0.447 -1,-1Z"></path><path stroke="#323232" stroke-linecap="round" stroke-linejoin="round" stroke-width="1.5" d="M8.5,9.643v-6c0,-0.552 0.448,-1 1,-1h11c0.552,0 1,0.448 1,1v11c0,0.552 -0.448,1 -1,1h-6"></path></g></svg>