<?xml version="1.0" encoding="UTF-8"?><svg version="1.1" viewBox="0 0 24 24" xmlns="http://www.w3.org/2000/svg" xmlns:xlink="http://www.w3.org/1999/xlink"><g stroke-linecap="round" stroke-width="1.5" stroke="#323232" fill="none" stroke-linejoin="round"><circle cx="13.5" cy="10.5" r="2"></circle><rect width="6" height="6" x="3" y="12" rx=".55228" ry="0"></rect><path d="M9 15h2l-4.37114e-08 1.77636e-15c.552285-2.41411e-08 1 .447715 1 1v4 0c0 .552285-.447715 1-1 1h-4 -4.37114e-08c-.552285-2.41411e-08-1-.447715-1-1 0 0 0-3.55271e-15 0-3.55271e-15v-2"></path><path d="M15 17.8494l6.95592e-07-1.42029e-07c4.05869-.828719 6.67709-4.79074 5.84837-8.84943 -.828719-4.05869-4.79074-6.67709-8.84943-5.84837 -2.94527.601377-5.247 2.9031-5.84837 5.84838"></path></g><path fill="none" d="M24 24h-24v-24h24Z"></path></svg>