<?xml version="1.0" encoding="UTF-8"?><svg version="1.1" viewBox="0 0 24 24" xmlns="http://www.w3.org/2000/svg" xmlns:xlink="http://www.w3.org/1999/xlink"><g fill="none"><path d="M0 0h24v24h-24Z"></path><path stroke="#323232" stroke-linecap="round" stroke-linejoin="round" stroke-width="1.5" d="M20 21h-16"></path><path stroke="#323232" stroke-linecap="round" stroke-linejoin="round" stroke-width="1.5" d="M7.975 18h3.447l8.066-8.066 5.44488e-08-5.43519e-08c.682072-.680858.683056-1.78573.0021982-2.4678 -.000732118-.000733424-.00146489-.00146619-.00219831-.00219831l-3.952-3.952 -3.47587e-08-3.48207e-08c-.680858-.682072-1.78573-.683056-2.4678-.00219824 -.000733424.000732118-.00146619.00146489-.00219831.00219831l-8.554 8.554 -8.88042e-08 8.86462e-08c-.682072.680858-.683056 1.78573-.00219814 2.4678 .000732118.000733423.00146489.00146619.00219831.00219831Z"></path></g></svg>