<svg id="Layer_3" data-name="Layer 3" xmlns="http://www.w3.org/2000/svg" viewBox="0 0 24 24"><path d="M0,24H24V0H0Z" fill="none"/><circle cx="18" cy="17" r="4" fill="none" stroke="#323232" stroke-linecap="round" stroke-linejoin="round" stroke-width="1.5"/><line x1="19.11108" y1="18.11108" x2="16.88886" y2="15.88886" fill="none" stroke="#323232" stroke-linecap="round" stroke-linejoin="round" stroke-width="1.5"/><line x1="19.11108" y1="15.88886" x2="16.88886" y2="18.11108" fill="none" stroke="#323232" stroke-linecap="round" stroke-linejoin="round" stroke-width="1.5"/><path d="M15.0017,9.99772A3.00167,3.00167,0,1,0,12,12.99939" fill="none" stroke="#323232" stroke-linecap="round" stroke-linejoin="round" stroke-width="1.5"/><path d="M21,10a4.34612,4.34612,0,0,0-.446-1.912A9.4531,9.4531,0,0,0,12,3,9.4531,9.4531,0,0,0,3.446,8.088a4.3215,4.3215,0,0,0,0,3.824A9.22656,9.22656,0,0,0,10,16.77313" fill="none" stroke="#323232" stroke-linecap="round" stroke-linejoin="round" stroke-width="1.5"/></svg>