<?xml version="1.0" encoding="UTF-8"?><svg version="1.1" viewBox="0 0 24 24" xmlns="http://www.w3.org/2000/svg" xmlns:xlink="http://www.w3.org/1999/xlink"><!--Generated by IJSVG (https://github.com/iconjar/IJSVG)--><g stroke-linecap="round" stroke-width="1.5" stroke="#323232" fill="none" stroke-linejoin="round"><path d="M18.9212,5.2004c3.82245,2.59386 3.82245,6.79934 0,9.39321c-3.82245,2.59386 -10.0199,2.59386 -13.8423,0c-3.82245,-2.59386 -3.82245,-6.79934 -1.77636e-15,-9.39321c3.82245,-2.59386 10.0199,-2.59386 13.8423,-1.77636e-15" transform="matrix(0.9662,-0.2576,0.2576,0.9662,-2.1447,3.4256)"></path><path d="M13.711,16.315c-4.167,1.111 -9.409,0.088 -9.409,-3.359"></path><path d="M10.048,14.105c0,2.218 -1.149,5.746 -5.746,6.895"></path><path d="M4.302,12.956c0,-3.447 5.746,-3.447 5.746,1.149"></path></g><path fill="none" d="M0,0h24v24h-24Z"></path></svg>