<svg viewBox="0 0 24 24" xmlns="http://www.w3.org/2000/svg"><g stroke-linecap="round" stroke-width="1.5" stroke="#323232" fill="none" stroke-linejoin="round"><rect width="18" height="18" x="3" y="3" rx="4"/><path d="M9.5 14.49L7 16.99"/><path d="M12.13 14.65l-.67-2.13 -2.13-.67 0 0c-.26-.08-.4-.36-.33-.61 .03-.11.09-.2.18-.26l1.81-1.29 -.03-2.23 -.01-.01c-.01-.27.21-.49.48-.5 .1-.01.21.03.29.09l1.78 1.33 2.1-.72 -.01 0c.25-.09.53.05.61.3 .03.1.03.21 0 .31l-.72 2.1 1.33 1.78 0 0c.16.21.11.51-.1.68 -.09.06-.2.09-.3.09l-2.23-.03 -1.29 1.81 0-.01c-.16.21-.46.27-.68.11 -.09-.07-.16-.16-.19-.26Z"/></g><path fill="none" d="M0 0h24v24H0Z"/></svg>