<?xml version="1.0" encoding="UTF-8"?><svg version="1.1" viewBox="0 0 24 24" xmlns="http://www.w3.org/2000/svg" xmlns:xlink="http://www.w3.org/1999/xlink"><g stroke-linecap="round" stroke-width="1.5" stroke="#323232" fill="none" stroke-linejoin="round"><circle cx="12" cy="12" r="9"></circle><path d="M10 17l3.52634e-08 3.52243e-08c-.552464-.551851-1.44754-.551851-2-7.04485e-08l-1.9331e-08 1.93525e-08c.551851-.552464.551851-1.44754 3.8662e-08-2l-1.22783e-07-1.22647e-07c.552464.551851 1.44754.551851 2 2.45294e-07l-4.02736e-08 4.03184e-08c-.551851.552464-.551851 1.44754 1.48736e-07 2Z"></path><path d="M17 10l3.52634e-08 3.52243e-08c-.552464-.551851-1.44754-.551851-2-7.04485e-08l-1.9331e-08 1.93525e-08c.551851-.552464.551851-1.44754 3.8662e-08-2l-1.22783e-07-1.22647e-07c.552464.551851 1.44754.551851 2 2.45294e-07l-4.02736e-08 4.03184e-08c-.551851.552464-.551851 1.44754 1.48736e-07 2Z"></path><path d="M10 10l3.52634e-08 3.52243e-08c-.552464-.551851-1.44754-.551851-2-7.04485e-08l6.4654e-08-6.47259e-08c.551851-.552464.551851-1.44754-1.64505e-07-2l-1.22783e-07-1.22647e-07c.552464.551851 1.44754.551851 2 2.45294e-07l-5.04929e-09 5.0549e-09c-.551851.552464-.551851 1.44754 1.97404e-07 2Z"></path><path d="M19.33 17.21l-3.33-3.331 6.37948e-08 6.60516e-08c-.575518-.595878-1.52512-.612383-2.121-.0368647 -.595878.575518-.612383 1.52512-.0368647 2.121 .0120737.0125008.0243638.0247909.0368646.0368646l3.33 3.331"></path></g><path fill="none" d="M0 0h24v24h-24Z"></path></svg>