<?xml version="1.0" encoding="UTF-8"?><svg version="1.1" viewBox="0 0 24 24" xmlns="http://www.w3.org/2000/svg" xmlns:xlink="http://www.w3.org/1999/xlink"><g stroke-width="1.5" fill="none" stroke="#323232"><path d="M11.847 6.7l1.07 1.07 1.34767e-08 1.34934e-08c.263208.263536.263208.690464-2.69533e-08.954l-3.065 3.063 -6.55776e-08 6.554e-08c-.651972.651598-.652275 1.70835-.000677531 2.36032 .000225822.000225952.00045171.000451839.000677662.000677662v0l5.14708e-08 5.15003e-08c.651598.651972 1.70835.652275 2.36032.000677559 .000225952-.000225822.000451839-.00045171.000677662-.000677662l3.065-3.065 2.1084e-08-2.10577e-08c.263536-.263208.690464-.263208.954 4.21155e-08l1.07 1.07 -1.08381e-09-1.08195e-09c.26344.262987.263807.68974.000820414.95318 -.000273235.000273706-.000546706.000547177-.000820412.000820412l-3.065 3.065 7.44685e-08-7.45293e-08c-1.76835 1.7698-4.63659 1.77097-6.40639.00261324 -.000871387-.000870676-.00174242-.00174171-.0026131-.0026131v0l1.25459e-07 1.25357e-07c-1.7698-1.76835-1.77097-4.63659-.00261335-6.40639 .000870676-.000871387.00174171-.00174242.0026131-.0026131l3.065-3.063 6.4861e-09-6.49727e-09c.262987-.26344.68974-.263807.95318-.000820399 .000273706.000273235.000547177.000546706.000820412.000820412Z"></path><rect width="18" height="18" x="3" y="3" rx="2.7614" ry="0" stroke-linecap="round" stroke-linejoin="round"></rect></g><rect width="24" height="24" fill="none"></rect></svg>