<?xml version="1.0" encoding="UTF-8"?><svg version="1.1" viewBox="0 0 24 24" xmlns="http://www.w3.org/2000/svg" xmlns:xlink="http://www.w3.org/1999/xlink"><!--Generated by IJSVG (https://github.com/iconjar/IJSVG)--><g fill="none"><path d="M0,0h24v24h-24Z"></path><path stroke="#323232" stroke-linecap="round" stroke-linejoin="round" stroke-width="1.5" d="M7.08839,4.89061c0.0488155,0.0488155 0.0488155,0.127961 0,0.176777c-0.0488155,0.0488155 -0.127961,0.0488155 -0.176777,0c-0.0488155,-0.0488155 -0.0488155,-0.127961 0,-0.176777c0.0488155,-0.0488155 0.127961,-0.0488155 0.176777,0"></path><path stroke="#323232" stroke-linecap="round" stroke-linejoin="round" stroke-width="1.5" d="M3.08839,4.89061c0.0488155,0.0488155 0.0488155,0.127961 0,0.176777c-0.0488155,0.0488155 -0.127961,0.0488155 -0.176777,0c-0.0488155,-0.0488155 -0.0488155,-0.127961 0,-0.176777c0.0488155,-0.0488155 0.127961,-0.0488155 0.176777,0"></path><path stroke="#323232" stroke-linecap="round" stroke-linejoin="round" stroke-width="1.5" d="M11.0884,4.89061c0.0488155,0.0488155 0.0488155,0.127961 0,0.176777c-0.0488155,0.0488155 -0.127961,0.0488155 -0.176777,0c-0.0488155,-0.0488155 -0.0488155,-0.127961 0,-0.176777c0.0488155,-0.0488155 0.127961,-0.0488155 0.176777,0"></path><path stroke="#323232" stroke-linecap="round" stroke-linejoin="round" stroke-width="1.5" d="M3.08839,8.94161c0.0488155,0.0488155 0.0488155,0.127961 0,0.176777c-0.0488155,0.0488155 -0.127961,0.0488155 -0.176777,0c-0.0488155,-0.0488155 -0.0488155,-0.127961 0,-0.176777c0.0488155,-0.0488155 0.127961,-0.0488155 0.176777,0"></path><path stroke="#323232" stroke-linecap="round" stroke-linejoin="round" stroke-width="1.5" d="M3.08839,12.9416c0.0488155,0.0488155 0.0488155,0.127961 0,0.176777c-0.0488155,0.0488155 -0.127961,0.0488155 -0.176777,0c-0.0488155,-0.0488155 -0.0488155,-0.127961 0,-0.176777c0.0488155,-0.0488155 0.127961,-0.0488155 0.176777,0"></path><path stroke="#323232" stroke-linecap="round" stroke-linejoin="round" stroke-width="1.5" d="M3.08839,16.9416c0.0488155,0.0488155 0.0488155,0.127961 0,0.176777c-0.0488155,0.0488155 -0.127961,0.0488155 -0.176777,0c-0.0488155,-0.0488155 -0.0488155,-0.127961 0,-0.176777c0.0488155,-0.0488155 0.127961,-0.0488155 0.176777,0"></path><path stroke="#323232" stroke-linecap="round" stroke-linejoin="round" stroke-width="1.5" d="M3.08839,20.9416c0.0488155,0.0488155 0.0488155,0.127961 0,0.176777c-0.0488155,0.0488155 -0.127961,0.0488155 -0.176777,0c-0.0488155,-0.0488155 -0.0488155,-0.127961 0,-0.176777c0.0488155,-0.0488155 0.127961,-0.0488155 0.176777,0"></path><path stroke="#323232" stroke-linecap="round" stroke-linejoin="round" stroke-width="1.5" d="M7.08839,20.9416c0.0488155,0.0488155 0.0488155,0.127961 0,0.176777c-0.0488155,0.0488155 -0.127961,0.0488155 -0.176777,0c-0.0488155,-0.0488155 -0.0488155,-0.127961 0,-0.176777c0.0488155,-0.0488155 0.127961,-0.0488155 0.176777,0"></path><path stroke="#323232" stroke-linecap="round" stroke-linejoin="round" stroke-width="1.5" d="M11.0884,20.9416c0.0488155,0.0488155 0.0488155,0.127961 0,0.176777c-0.0488155,0.0488155 -0.127961,0.0488155 -0.176777,0c-0.0488155,-0.0488155 -0.0488155,-0.127961 0,-0.176777c0.0488155,-0.0488155 0.127961,-0.0488155 0.176777,0"></path><path stroke="#323232" stroke-linecap="round" stroke-linejoin="round" stroke-width="1.5" d="M15.0884,20.9116c0.0488155,0.0488155 0.0488155,0.127961 0,0.176777c-0.0488155,0.0488155 -0.127961,0.0488155 -0.176777,0c-0.0488155,-0.0488155 -0.0488155,-0.127961 0,-0.176777c0.0488155,-0.0488155 0.127961,-0.0488155 0.176777,0"></path><path stroke="#323232" stroke-linecap="round" stroke-linejoin="round" stroke-width="1.5" d="M19.0884,20.9116c0.0488155,0.0488155 0.0488155,0.127961 0,0.176777c-0.0488155,0.0488155 -0.127961,0.0488155 -0.176777,0c-0.0488155,-0.0488155 -0.0488155,-0.127961 0,-0.176777c0.0488155,-0.0488155 0.127961,-0.0488155 0.176777,0"></path><path stroke="#323232" stroke-linecap="round" stroke-linejoin="round" stroke-width="1.5" d="M19.0884,12.9116c0.0488155,0.0488155 0.0488155,0.127961 0,0.176777c-0.0488155,0.0488155 -0.127961,0.0488155 -0.176777,0c-0.0488155,-0.0488155 -0.0488155,-0.127961 0,-0.176777c0.0488155,-0.0488155 0.127961,-0.0488155 0.176777,0"></path><path stroke="#323232" stroke-linecap="round" stroke-linejoin="round" stroke-width="1.5" d="M19.0884,16.9116c0.0488155,0.0488155 0.0488155,0.127961 0,0.176777c-0.0488155,0.0488155 -0.127961,0.0488155 -0.176777,0c-0.0488155,-0.0488155 -0.0488155,-0.127961 0,-0.176777c0.0488155,-0.0488155 0.127961,-0.0488155 0.176777,0"></path><path stroke="#323232" stroke-linecap="round" stroke-linejoin="round" stroke-width="1.5" d="M21.293,5.707l-10,10c-0.188,0.188 -0.442,0.293 -0.707,0.293h-2.586v-2.586c0,-0.265 0.105,-0.52 0.293,-0.707l10,-10c0.391,-0.391 1.024,-0.391 1.414,0l1.586,1.586c0.39,0.39 0.39,1.024 0,1.414Z"></path><path stroke="#323232" stroke-linecap="round" stroke-linejoin="round" stroke-width="1.5" d="M16.5,4.5l3,3"></path></g></svg>