<svg id="Layer_3" data-name="Layer 3" xmlns="http://www.w3.org/2000/svg" viewBox="0 0 24 24"><rect width="24" height="24" fill="none"/><path d="M21,12v4a5,5,0,0,1-5,5H8a5,5,0,0,1-5-5V8A5,5,0,0,1,8,3h4" fill="none" stroke="#323232" stroke-linecap="round" stroke-linejoin="round" stroke-width="1.5"/><line x1="19" y1="8" x2="16" y2="5" fill="none" stroke="#323232" stroke-linecap="round" stroke-linejoin="round" stroke-width="1.5"/><line x1="8" y1="17" x2="16" y2="17" fill="none" stroke="#323232" stroke-linecap="round" stroke-linejoin="round" stroke-width="1.5"/><path d="M17.37936,3.62043l-5.58483,5.585a2.00005,2.00005,0,0,0-.56569,1.13147l-.21863,1.531a.99172.99172,0,0,0,1.10331,1.12443l1.4778-.18251a2,2,0,0,0,1.16888-.57052l5.61805-5.61655a2.12117,2.12117,0,0,0,.00023-3l-.00232-.00232A2.119,2.119,0,0,0,17.37936,3.62043Z" fill="none" stroke="#323232" stroke-linecap="round" stroke-linejoin="round" stroke-width="1.5"/></svg>