<?xml version="1.0" encoding="UTF-8"?><svg version="1.1" viewBox="0 0 24 24" xmlns="http://www.w3.org/2000/svg" xmlns:xlink="http://www.w3.org/1999/xlink"><g fill="none"><rect width="24" height="24"></rect><path stroke="#323232" stroke-linecap="round" stroke-linejoin="round" stroke-width="1.5" d="M9 15l3.15-.389 6.84205e-09-8.38487e-10c.221321-.0271226.427228-.127436.585-.285l7.631-7.626 -4.80641e-09 4.80884e-09c.84497-.845397.84497-2.2156 9.61283e-09-3.061v0l2.91457e-08 2.9131e-08c-.845397-.84497-2.2156-.84497-3.061-5.82621e-08l-7.56 7.56 -8.88156e-08 8.87827e-08c-.153115.153058-.252422.351673-.283.566Z"></path><path stroke="#323232" stroke-linecap="round" stroke-linejoin="round" stroke-width="1.5" d="M11.5 4l-3.71547e-07 8.88178e-15c-4.69442 2.052e-07-8.5 3.80558-8.5 8.5 2.052e-07 4.69442 3.80558 8.5 8.5 8.5 4.69442-2.052e-07 8.5-3.80558 8.5-8.5"></path><line x1="18.53" x2="15.47" y1="8.53" y2="5.47" stroke="#323232" stroke-linecap="round" stroke-linejoin="round" stroke-width="1.5"></line></g></svg>