<svg id="Layer_3" data-name="Layer 3" xmlns="http://www.w3.org/2000/svg" viewBox="0 0 24 24"><rect width="24" height="24" fill="none"/><path d="M4.36737,20.89655l-.806.09954a.5.5,0,0,1-.55629-.56695l.13262-.92865a6,6,0,0,1,1.69709-3.39435l11.9726-11.9726a2.16305,2.16305,0,0,1,3.059,0h0a2.16305,2.16305,0,0,1,0,3.059L7.87458,19.18444A6,6,0,0,1,4.36737,20.89655Z" fill="none" stroke="#323232" stroke-linecap="round" stroke-linejoin="round" stroke-width="1.5"/><path d="M15.788,11.268,20.7,16.18a1.026,1.026,0,0,1,0,1.45L17.63,20.7a1.026,1.026,0,0,1-1.45,0l-4.912-4.912" fill="none" stroke="#323232" stroke-linecap="round" stroke-linejoin="round" stroke-width="1.5"/><path d="M8.20778,12.72778,3.3,7.82a1.026,1.026,0,0,1,0-1.45L6.37,3.3a1.026,1.026,0,0,1,1.45,0l4.90876,4.90876" fill="none" stroke="#323232" stroke-linecap="round" stroke-linejoin="round" stroke-width="1.5"/></svg>