<?xml version="1.0" encoding="UTF-8"?><svg version="1.1" viewBox="0 0 24 24" xmlns="http://www.w3.org/2000/svg" xmlns:xlink="http://www.w3.org/1999/xlink"><!--Generated by IJSVG (https://github.com/iconjar/IJSVG)--><g stroke-linecap="round" stroke-width="1.5" stroke="#323232" fill="none" stroke-linejoin="round"><path d="M11.378,15.62l5.003,5.003c0.413,0.413 1.083,0.413 1.496,0l2.747,-2.747c0.413,-0.413 0.413,-1.083 0,-1.496l-5.003,-5.003"></path><path d="M18.67,8.32l-3,-3"></path><path d="M12.62,8.378l-5.001,-5.001c-0.413,-0.413 -1.083,-0.413 -1.496,0l-2.746,2.746c-0.413,0.413 -0.413,1.083 0,1.496l5.001,5.001"></path><path d="M3.308,19.43l0.717,-2.157c0.098,-0.295 0.264,-0.564 0.484,-0.784l13.283,-13.283c0.391,-0.391 1.024,-0.391 1.414,4.44089e-16l1.586,1.586c0.391,0.391 0.391,1.024 0,1.414l-13.285,13.285c-0.219,0.219 -0.486,0.384 -0.78,0.483l-2.153,0.72c-0.781,0.261 -1.526,-0.482 -1.266,-1.264Z"></path></g><path fill="none" d="M0,0h24v24h-24Z"></path></svg>