<?xml version="1.0" encoding="UTF-8"?><svg version="1.1" viewBox="0 0 24 24" xmlns="http://www.w3.org/2000/svg" xmlns:xlink="http://www.w3.org/1999/xlink"><g stroke-linecap="round" stroke-width="1.5" stroke="#323232" fill="none" stroke-linejoin="round"><path d="M5.807 4l-1.22698e-07 1.77636e-15c1.55026-6.77642e-08 2.807 1.25674 2.807 2.807 6.77642e-08 1.55026-1.25674 2.807-2.807 2.807 -1.55026 6.77642e-08-2.807-1.25674-2.807-2.807l2.93099e-14 3.01147e-07c-2.34083e-07-1.55026 1.25674-2.807 2.807-2.807 3.80239e-08-6.21725e-15 8.4674e-08-1.24345e-14 1.22698e-07-1.59872e-14"></path><line x1="13" x2="14.6" y1="18" y2="18"></line><line x1="19.4" x2="21" y1="18" y2="18"></line><line x1="13.78" x2="4.45" y1="14.29" y2="9.26"></line><path d="M5.808 20l5.7883e-08-2.06235e-11c1.55026-.000552317 2.80655-1.25774 2.806-2.808 -.000552317-1.55026-1.25774-2.80655-2.808-2.806 -1.54987.000552178-2.806 1.25713-2.806 2.807l-1.10619e-08 3.15157e-05c-.000535241 1.54971 1.25532 2.80643 2.80503 2.80697 .00100028 3.45477e-07.00200056 1.56088e-07.00300083-5.68166e-07"></path><line x1="19" x2="4.45" y1="6.91" y2="14.74"></line></g><path fill="none" d="M0 0h24v24h-24Z"></path></svg>