<?xml version="1.0" encoding="UTF-8"?><svg version="1.1" viewBox="0 0 24 24" xmlns="http://www.w3.org/2000/svg" xmlns:xlink="http://www.w3.org/1999/xlink"><!--Generated by IJSVG (https://github.com/iconjar/IJSVG)--><g stroke-linecap="round" stroke-width="1.5" stroke="#323232" fill="none" stroke-linejoin="round"><path d="M5.5,21v-2"></path><path d="M5.5,14v-11"></path><path d="M12,14.5v6.5"></path><path d="M12,3v6.5"></path><path d="M18.5,21v-11"></path><path d="M20.2678,5.73223c0.976311,0.976311 0.976311,2.55922 0,3.53553c-0.976311,0.976311 -2.55922,0.976311 -3.53553,0c-0.976311,-0.976311 -0.976311,-2.55922 0,-3.53553c0.976311,-0.976311 2.55922,-0.976311 3.53553,0"></path><path d="M7.26777,14.7322c0.976311,0.976311 0.976311,2.55922 0,3.53553c-0.976311,0.976311 -2.55922,0.976311 -3.53553,0c-0.976311,-0.976311 -0.976311,-2.55922 -4.44089e-16,-3.53553c0.976311,-0.976311 2.55922,-0.976311 3.53553,0"></path><path d="M13.7678,10.2322c0.976311,0.976311 0.976311,2.55922 0,3.53553c-0.976311,0.976311 -2.55922,0.976311 -3.53553,0c-0.976311,-0.976311 -0.976311,-2.55922 0,-3.53553c0.976311,-0.976311 2.55922,-0.976311 3.53553,0"></path></g><path fill="none" d="M0,0h24v24h-24Z"></path></svg>