<?xml version="1.0" encoding="UTF-8"?><svg version="1.1" viewBox="0 0 24 24" xmlns="http://www.w3.org/2000/svg" xmlns:xlink="http://www.w3.org/1999/xlink"><!--Generated by IJSVG (https://github.com/iconjar/IJSVG)--><defs><path d="M10.3238,3.73223c0.976311,0.976311 0.976311,2.55922 0,3.53553c-0.976311,0.976311 -2.55922,0.976311 -3.53553,0c-0.976311,-0.976311 -0.976311,-2.55922 0,-3.53553c0.976311,-0.976311 2.55922,-0.976311 3.53553,-4.44089e-16" id="a"></path></defs><g fill="none"><path d="M0,0h24v24h-24Z"></path><path stroke="#323232" stroke-linecap="round" stroke-linejoin="round" stroke-width="1.5" d="M3,5.5h3.07"></path><use stroke="#323232" stroke-linecap="round" stroke-linejoin="round" stroke-width="1.5" xlink:href="#a"></use><path stroke="#323232" stroke-linecap="round" stroke-linejoin="round" stroke-width="1.5" d="M11.06,5.5h9.94"></path><use stroke="#323232" stroke-linecap="round" stroke-linejoin="round" stroke-width="1.5" xlink:href="#a"></use><path stroke="#323232" stroke-linecap="round" stroke-linejoin="round" stroke-width="1.5" d="M21,12h-3.06"></path><path stroke="#323232" stroke-linecap="round" stroke-linejoin="round" stroke-width="1.5" d="M12.94,12h-9.94"></path><path stroke="#323232" stroke-linecap="round" stroke-linejoin="round" stroke-width="1.5" d="M17.2118,10.2322c0.976311,0.976311 0.976311,2.55922 0,3.53553c-0.976311,0.976311 -2.55922,0.976311 -3.53553,0c-0.976311,-0.976311 -0.976311,-2.55922 0,-3.53553c0.976311,-0.976311 2.55922,-0.976311 3.53553,0"></path><path stroke="#323232" stroke-linecap="round" stroke-linejoin="round" stroke-width="1.5" d="M11.06,18.5h9.94"></path><path stroke="#323232" stroke-linecap="round" stroke-linejoin="round" stroke-width="1.5" d="M3,18.5h3.06"></path><path stroke="#323232" stroke-linecap="round" stroke-linejoin="round" stroke-width="1.5" d="M10.3238,16.7322c0.976311,0.976311 0.976311,2.55922 0,3.53553c-0.976311,0.976311 -2.55922,0.976311 -3.53553,0c-0.976311,-0.976311 -0.976311,-2.55922 0,-3.53553c0.976311,-0.976311 2.55922,-0.976311 3.53553,0"></path></g></svg>