<svg xmlns="http://www.w3.org/2000/svg" viewBox="0 0 24 24"><line x1="7.5" y1="3" x2="7.5" y2="6" fill="none" stroke="#323232" stroke-linecap="round" stroke-linejoin="round" stroke-width="1.5"/><line x1="16.5" y1="3" x2="16.5" y2="6" fill="none" stroke="#323232" stroke-linecap="round" stroke-linejoin="round" stroke-width="1.5"/><path d="M11,21H6a3,3,0,0,1-3-3V7.5a3,3,0,0,1,3-3H18a3,3,0,0,1,3,3V10" fill="none" stroke="#323232" stroke-linecap="round" stroke-linejoin="round" stroke-width="1.5"/><path d="M16.21985,14.69019a1.78334,1.78334,0,0,1,3.56177-.00074,1.73327,1.73327,0,0,1,2.19116.28174,1.95562,1.95562,0,0,1,0,2.67139,1.75777,1.75777,0,0,1-.97278.523V20a1,1,0,0,1-1,1H16a1,1,0,0,1-1-1V18.16553a1.75815,1.75815,0,0,1-.97284-.523,1.95562,1.95562,0,0,1,0-2.67139A1.73345,1.73345,0,0,1,16.21985,14.69019Z" fill="none" stroke="#323232" stroke-linecap="round" stroke-linejoin="round" stroke-width="1.5"/></svg>