<svg xmlns="http://www.w3.org/2000/svg" viewBox="0 0 24 24"><path d="M8,9h8" fill="none" stroke="#323232" stroke-linecap="round" stroke-linejoin="round" stroke-width="1.5"/><path d="M9,15H8" fill="none" stroke="#323232" stroke-linecap="round" stroke-linejoin="round" stroke-width="1.5"/><path d="M8.004,12H11" fill="none" stroke="#323232" stroke-linecap="round" stroke-linejoin="round" stroke-width="1.5"/><path d="M15.2199,14.69022a1.78334,1.78334,0,0,1,3.56177-.00074,1.73326,1.73326,0,0,1,2.19116.28174,1.95562,1.95562,0,0,1,0,2.67139,1.75783,1.75783,0,0,1-.97278.52295V20a1,1,0,0,1-1,1h-4a1,1,0,0,1-1-1V18.16556a1.75815,1.75815,0,0,1-.97284-.52295,1.95562,1.95562,0,0,1,0-2.67139A1.73343,1.73343,0,0,1,15.2199,14.69022Z" fill="none" stroke="#323232" stroke-linecap="round" stroke-linejoin="round" stroke-width="1.5"/><path d="M20,10.5V4.575a1,1,0,0,0-.49794-.86483l-.99046-.575a1,1,0,0,0-.99809-.00348l-1.51929.86791L14.50612,3.136a1,1,0,0,0-1.00048-.002L12,4,10.49436,3.134a1,1,0,0,0-1.00048.002l-1.4881.86359L6.48649,3.13169a1,1,0,0,0-.99809.00348l-.99046.575A1,1,0,0,0,4,4.575v14.85a1,1,0,0,0,.498.86485l.99058.575a.99992.99992,0,0,0,.998.00346l1.51929-.86792,1.488.86359a1.00009,1.00009,0,0,0,1.00052.002L11,20.5752" fill="none" stroke="#323232" stroke-linecap="round" stroke-linejoin="round" stroke-width="1.5"/></svg>