<svg xmlns="http://www.w3.org/2000/svg" viewBox="0 0 24 24"><line x1="16.49999" y1="21" x2="19.99999" y2="21" fill="none" stroke="#323232" stroke-linecap="round" stroke-linejoin="round" stroke-width="1.5"/><line x1="18.24999" y1="18" x2="18.24999" y2="21" fill="none" stroke="#323232" stroke-linecap="round" stroke-linejoin="round" stroke-width="1.5"/><path d="M15.5139,14.97669l.20759-2.07618A1,1,0,0,1,16.71653,12h3.06693a1,1,0,0,1,.995.90051l.20759,2.07618A2.74973,2.74973,0,0,1,18.25,18h0A2.74973,2.74973,0,0,1,15.5139,14.97669Z" fill="none" stroke="#323232" stroke-linecap="round" stroke-linejoin="round" stroke-width="1.5"/><path d="M20,8V5a2,2,0,0,0-2-2H5A2,2,0,0,0,3,5V19a2,2,0,0,0,2,2h7" fill="none" stroke="#323232" stroke-linecap="round" stroke-linejoin="round" stroke-width="1.5"/><line x1="7" y1="8" x2="16" y2="8" fill="none" stroke="#323232" stroke-linecap="round" stroke-linejoin="round" stroke-width="1.5"/><line x1="7" y1="12" x2="12" y2="12" fill="none" stroke="#323232" stroke-linecap="round" stroke-linejoin="round" stroke-width="1.5"/><line x1="7" y1="16" x2="12" y2="16" fill="none" stroke="#323232" stroke-linecap="round" stroke-linejoin="round" stroke-width="1.5"/></svg>