<svg xmlns="http://www.w3.org/2000/svg" viewBox="0 0 24 24"><path d="M20,11V5a2,2,0,0,0-2-2H5A2,2,0,0,0,3,5V19a2,2,0,0,0,2,2h6" fill="none" stroke="#323232" stroke-linecap="round" stroke-linejoin="round" stroke-width="1.5"/><line x1="7" y1="8" x2="16" y2="8" fill="none" stroke="#323232" stroke-linecap="round" stroke-linejoin="round" stroke-width="1.5"/><line x1="7" y1="12" x2="11" y2="12" fill="none" stroke="#323232" stroke-linecap="round" stroke-linejoin="round" stroke-width="1.5"/><line x1="7" y1="16" x2="9" y2="16" fill="none" stroke="#323232" stroke-linecap="round" stroke-linejoin="round" stroke-width="1.5"/><path d="M15.26284,15.133l.85469-1.60338a1,1,0,0,1,1.76494,0l.85469,1.60338" fill="none" stroke="#323232" stroke-linecap="round" stroke-linejoin="round" stroke-width="1.5"/><path d="M15.26284,15.133l-1.42442.23472a1,1,0,0,0-.54383,1.69446l1.0789,1.07679" fill="none" stroke="#323232" stroke-linecap="round" stroke-linejoin="round" stroke-width="1.5"/><path d="M18.73716,15.133l1.42442.23472a1,1,0,0,1,.54383,1.69446L19.62651,18.139" fill="none" stroke="#323232" stroke-linecap="round" stroke-linejoin="round" stroke-width="1.5"/><path d="M14.37349,18.139l-.25922,1.70919a1,1,0,0,0,1.42647,1.049L17,20.18671" fill="none" stroke="#323232" stroke-linecap="round" stroke-linejoin="round" stroke-width="1.5"/><path d="M19.62651,18.139l.25922,1.70919a1,1,0,0,1-1.42647,1.049L17,20.18671" fill="none" stroke="#323232" stroke-linecap="round" stroke-linejoin="round" stroke-width="1.5"/></svg>