<svg xmlns="http://www.w3.org/2000/svg" viewBox="0 0 24 24"><line x1="12.75" y1="9" x2="18.75" y2="9" fill="none" stroke="#323232" stroke-linecap="round" stroke-linejoin="round" stroke-width="1.5"/><line x1="12.75" y1="12.5" x2="18.75" y2="12.5" fill="none" stroke="#323232" stroke-linecap="round" stroke-linejoin="round" stroke-width="1.5"/><line x1="12.75" y1="16" x2="18.75" y2="16" fill="none" stroke="#323232" stroke-linecap="round" stroke-linejoin="round" stroke-width="1.5"/><line x1="9.5" y1="20" x2="9.5" y2="5" fill="none" stroke="#323232" stroke-linecap="round" stroke-linejoin="round" stroke-width="1.5"/><path d="M22,18V7a2,2,0,0,0-2-2H9.48979a2,2,0,0,1-.92415-.22632L3.46207,2.11455A1,1,0,0,0,2,3.00139V15.42547a1.5,1.5,0,0,0,.80689,1.33026l5.79222,3.01795A2,2,0,0,0,9.52326,20H20A2,2,0,0,0,22,18Z" fill="none" stroke="#323232" stroke-linecap="round" stroke-linejoin="round" stroke-width="1.5"/></svg>