<svg xmlns="http://www.w3.org/2000/svg" viewBox="0 0 24 24"><path d="M14.5,19l-1.80935,1.72794a1.01262,1.01262,0,0,1-1.3813,0L9.5,19H6a3,3,0,0,1-3-3V6A3,3,0,0,1,6,3H18a3,3,0,0,1,3,3V16a3,3,0,0,1-3,3Z" fill="none" stroke="#323232" stroke-linecap="round" stroke-linejoin="round" stroke-width="1.5"/><path d="M8.66425,11.93444A2.00686,2.00686,0,0,1,7.36389,8.8016a2.08281,2.08281,0,0,1,2.60967-.651,2.07,2.07,0,0,1,4.05407,0,2.08312,2.08312,0,0,1,2.60528.64443,2.02117,2.02117,0,0,1,.11007,2.14842,1.99975,1.99975,0,0,1-1.40548.98826l-.00419,2.56983a1.00015,1.00015,0,0,1-1.00007.99733L9.66063,15.5a1.00016,1.00016,0,0,1-1.00056-1.00268Z" fill="none" stroke="#323232" stroke-linecap="round" stroke-linejoin="round" stroke-width="1.5"/></svg>