<svg xmlns="http://www.w3.org/2000/svg" viewBox="0 0 24 24"><path d="M8.42065,11.7612l-.76587-.15672A1.92908,1.92908,0,0,1,6.37087,8.75h0a1.92909,1.92909,0,0,1,3.114-.31536l.51866.58489a.24375.24375,0,0,0,.41362-.2388l-.24721-.74158A1.92909,1.92909,0,0,1,12,5.5h0a1.9291,1.9291,0,0,1,1.8301,2.53912l-.24718.74156a.24375.24375,0,0,0,.41361.2388l.51864-.58487a1.92908,1.92908,0,0,1,3.114.31538v0a1.9291,1.9291,0,0,1-1.28393,2.85448l-.76585.15671a.24375.24375,0,0,0,0,.4776l.76586.15672A1.92908,1.92908,0,0,1,17.62919,15.25h0a1.92909,1.92909,0,0,1-3.114.31536l-.51866-.58489a.24375.24375,0,0,0-.41362.2388l.24721.74158A1.92909,1.92909,0,0,1,12,18.5h0a1.9291,1.9291,0,0,1-1.8301-2.53912l.2472-.7416a.24375.24375,0,0,0-.41362-.2388l-.51917.58548a1.92853,1.92853,0,0,1-3.11307-.31527l-.0004-.0007a1.92908,1.92908,0,0,1,1.28391-2.85447l.76587-.15672A.24375.24375,0,0,0,8.42065,11.7612Z" fill="none" stroke="#323232" stroke-linecap="round" stroke-linejoin="round" stroke-width="1.5"/><circle cx="12" cy="12" r="10" fill="none" stroke="#323232" stroke-linecap="round" stroke-linejoin="round" stroke-width="1.5"/></svg>