<svg xmlns="http://www.w3.org/2000/svg" viewBox="0 0 24 24"><line x1="17.25" y1="13.5" x2="10.75" y2="13.5" fill="none" stroke="#323232" stroke-linecap="round" stroke-linejoin="round" stroke-width="1.5"/><line x1="14.75" y1="10.5" x2="11.75" y2="10.5" fill="none" stroke="#323232" stroke-linecap="round" stroke-linejoin="round" stroke-width="1.5"/><path d="M18.3747,4H6.0003a1,1,0,0,0-.98287,1.18429l2.625,14A1,1,0,0,0,8.6253,20H20.9997a1,1,0,0,0,.98287-1.18429l-2.625-14A1,1,0,0,0,18.3747,4Z" fill="none" stroke="#323232" stroke-linecap="round" stroke-linejoin="round" stroke-width="1.5"/><path d="M18.3747,4H5.93665A1.5,1.5,0,0,0,4.47506,5.16271L2.026,15.77514A1,1,0,0,0,3.00043,17H7.23288" fill="none" stroke="#323232" stroke-linecap="round" stroke-linejoin="round" stroke-width="1.5"/></svg>