<svg xmlns="http://www.w3.org/2000/svg" viewBox="0 0 24 24"><line x1="9.50001" y1="16" x2="20" y2="16" fill="none" stroke="#323232" stroke-linecap="round" stroke-linejoin="round" stroke-width="1.5"/><path d="M21,21H3" fill="none" stroke="#323232" stroke-linecap="round" stroke-linejoin="round" stroke-width="1.5"/><path d="M17,10h0a1.5,1.5,0,0,0,1.5,1.5h2A1.5,1.5,0,0,0,22,10h0V7.57859a2,2,0,0,0-.30892-1.06782L20.06285,3.93218A2,2,0,0,0,18.37176,3H5.6283a2,2,0,0,0-1.69107.93215L2.30893,6.51076A2.0001,2.0001,0,0,0,2,7.57861V10H2a1.5,1.5,0,0,0,1.5,1.5h2A1.5,1.5,0,0,0,7,10H7" fill="none" stroke="#323232" stroke-linecap="round" stroke-linejoin="round" stroke-width="1.5"/><path d="M17,10h0a1.5,1.5,0,0,1-1.5,1.5h-2A1.5,1.5,0,0,1,12,10h0a1.5,1.5,0,0,1-1.5,1.5h-2A1.5,1.5,0,0,1,7,10H7" fill="none" stroke="#323232" stroke-linecap="round" stroke-linejoin="round" stroke-width="1.5"/><path d="M4.00005,21,4,11.5" fill="none" stroke="#323232" stroke-linecap="round" stroke-linejoin="round" stroke-width="1.5"/><path d="M20.00005,21l-.0001-9.5" fill="none" stroke="#323232" stroke-linecap="round" stroke-linejoin="round" stroke-width="1.5"/><line x1="21.91386" y1="7" x2="2.08601" y2="7" fill="none" stroke="#323232" stroke-linecap="round" stroke-linejoin="round" stroke-width="1.5"/><line x1="9.49995" y1="21" x2="9.50005" y2="11.5" fill="none" stroke="#323232" stroke-linecap="round" stroke-linejoin="round" stroke-width="1.5"/></svg>