<svg xmlns="http://www.w3.org/2000/svg" viewBox="0 0 24 24"><ellipse cx="16.6216" cy="7.3784" rx="5.03622" ry="3.60157" transform="translate(-0.34896 13.91433) rotate(-45)" stroke-width="1.5" stroke="#323232" stroke-linecap="round" stroke-linejoin="round" fill="none"/><path d="M8.39691,13.48177,3.43934,18.43934a1.5,1.5,0,0,0,0,2.12132h0a1.5,1.5,0,0,0,2.12132,0l4.95757-4.95757" fill="none" stroke="#323232" stroke-linecap="round" stroke-linejoin="round" stroke-width="1.5"/><path d="M13.81112,15.93244l4.62822,4.62822a1.5,1.5,0,0,0,2.12132,0h0a1.5,1.5,0,0,0,0-2.12132L6.05376,3.93244" fill="none" stroke="#323232" stroke-linecap="round" stroke-linejoin="round" stroke-width="1.5"/><path d="M6.05376,3.93244l-.063.063-.01264.01265c-1.94814,1.94814-.89529,6.15954,2.35161,9.40643l3.29254,3.29256a1,1,0,0,0,1.41422,0l2.896-2.896" fill="none" stroke="#323232" stroke-linecap="round" stroke-linejoin="round" stroke-width="1.5"/></svg>