<svg xmlns="http://www.w3.org/2000/svg" viewBox="0 0 24 24"><path d="M17,8v2.5A2.5,2.5,0,0,1,14.5,13h0v3.75" fill="none" stroke="#323232" stroke-linecap="round" stroke-linejoin="round" stroke-width="1.5"/><line x1="14.5" y1="8" x2="14.5" y2="10" fill="none" stroke="#323232" stroke-linecap="round" stroke-linejoin="round" stroke-width="1.5"/><circle cx="12" cy="12" r="10" fill="none" stroke="#323232" stroke-linecap="round" stroke-linejoin="round" stroke-width="1.5"/><path d="M9.5,8h0A2.5,2.5,0,0,1,12,10.5v3a.5.5,0,0,1-.5.5h-4a.5.5,0,0,1-.5-.5v-3A2.5,2.5,0,0,1,9.5,8Z" transform="translate(19 22) rotate(180)" fill="none" stroke="#323232" stroke-linecap="round" stroke-linejoin="round" stroke-width="1.5"/><line x1="9.5" y1="14" x2="9.5" y2="17" fill="none" stroke="#323232" stroke-linecap="round" stroke-linejoin="round" stroke-width="1.5"/><line x1="7.67922" y1="17" x2="11.32078" y2="17" fill="none" stroke="#323232" stroke-linecap="round" stroke-linejoin="round" stroke-width="1.5"/></svg>