<svg xmlns="http://www.w3.org/2000/svg" viewBox="0 0 24 24"><line x1="18.25004" y1="16" x2="18.24994" y2="21" fill="none" stroke="#323232" stroke-linecap="round" stroke-linejoin="round" stroke-width="1.5"/><line x1="16.24999" y1="20.9999" x2="20.24999" y2="21" fill="none" stroke="#323232" stroke-linecap="round" stroke-linejoin="round" stroke-width="1.5"/><path d="M19.68347,9h-2.867a1,1,0,0,0-.995.90051l-.30758,3.07618A2.74973,2.74973,0,0,0,18.25,16h0a2.74973,2.74973,0,0,0,2.73609-3.02331l-.30758-3.07618A1,1,0,0,0,19.68347,9Z" fill="none" stroke="#323232" stroke-linecap="round" stroke-linejoin="round" stroke-width="1.5"/><path d="M5.44234,6H8.5576" fill="none" stroke="#323232" stroke-linecap="round" stroke-linejoin="round" stroke-width="1.5"/><line x1="10.76748" y1="12" x2="3.23238" y2="12" fill="none" stroke="#323232" stroke-linecap="round" stroke-linejoin="round" stroke-width="1.5"/><line x1="11" y1="17" x2="3" y2="17" fill="none" stroke="#323232" stroke-linecap="round" stroke-linejoin="round" stroke-width="1.5"/><path d="M11,14v5a2,2,0,0,1-2,2H5a2,2,0,0,1-2-2V14A8.72124,8.72124,0,0,1,4.25,9.5h0A8.72567,8.72567,0,0,0,5.5,5V3a1,1,0,0,1,1-1h1a1,1,0,0,1,1,1V5A8.72124,8.72124,0,0,0,9.75,9.5h0A8.72564,8.72564,0,0,1,11,14Z" fill="none" stroke="#323232" stroke-linecap="round" stroke-linejoin="round" stroke-width="1.5"/></svg>