<svg xmlns="http://www.w3.org/2000/svg" viewBox="0 0 24 24"><path d="M11.9826,8a4,4,0,1,0,4,4A4,4,0,0,0,11.9826,8Z" fill="none" stroke="#323232" stroke-linecap="round" stroke-linejoin="round" stroke-width="1.5"/><path d="M17,19.4798a8.9562,8.9562,0,0,1-5.00159,1.51855L12,21a9.00011,9.00011,0,0,1-8.99645-9.25515,9.09888,9.09888,0,0,1,8.7413-8.7413A9.00011,9.00011,0,0,1,21,12v1.5A2.5,2.5,0,0,1,18.5,16h0A2.5,2.5,0,0,1,16,13.5V8" fill="none" stroke="#323232" stroke-linecap="round" stroke-linejoin="round" stroke-width="1.5"/><path d="M0,0H24V24H0Z" fill="none"/></svg>