<svg xmlns="http://www.w3.org/2000/svg" viewBox="0 0 24 24"><path d="M24,0V24H0V0Z" fill="none"/><path d="M15,3.52307a8.86459,8.86459,0,0,0-6,0" fill="none" stroke="#323232" stroke-linecap="round" stroke-linejoin="round" stroke-width="1.5"/><path d="M3.15656,10.35833A8.981,8.981,0,0,1,6.1571,5.16247" fill="none" stroke="#323232" stroke-linecap="round" stroke-linejoin="round" stroke-width="1.5"/><path d="M6.1571,18.83752A8.98153,8.98153,0,0,1,3.15656,13.6416" fill="none" stroke="#323232" stroke-linecap="round" stroke-linejoin="round" stroke-width="1.5"/><path d="M9,20.47692a8.86443,8.86443,0,0,0,6,0" fill="none" stroke="#323232" stroke-linecap="round" stroke-linejoin="round" stroke-width="1.5"/><path d="M20.84344,10.35833A8.981,8.981,0,0,0,17.8429,5.16247" fill="none" stroke="#323232" stroke-linecap="round" stroke-linejoin="round" stroke-width="1.5"/><path d="M17.8429,18.83752a8.98153,8.98153,0,0,0,3.00054-5.19592" fill="none" stroke="#323232" stroke-linecap="round" stroke-linejoin="round" stroke-width="1.5"/><line x1="10" y1="12" x2="14" y2="12" fill="none" stroke="#323232" stroke-linecap="round" stroke-linejoin="round" stroke-width="1.5"/><line x1="12" y1="14" x2="12" y2="10" fill="none" stroke="#323232" stroke-linecap="round" stroke-linejoin="round" stroke-width="1.5"/></svg>