<svg xmlns="http://www.w3.org/2000/svg" viewBox="0 0 24 24"><path d="M5,17H4.5A2.5,2.5,0,0,1,2,14.5v-9A2.5,2.5,0,0,1,4.5,3h15A2.5,2.5,0,0,1,22,5.5v9A2.5,2.5,0,0,1,19.5,17H19" fill="none" stroke="#323232" stroke-linecap="round" stroke-linejoin="round" stroke-width="1.5"/><path d="M11.18388,13.42214l-4.24826,6A1,1,0,0,0,7.75173,21h8.49654a1,1,0,0,0,.81611-1.57786l-4.24826-6A1,1,0,0,0,11.18388,13.42214Z" fill="none" stroke="#323232" stroke-linecap="round" stroke-linejoin="round" stroke-width="1.5"/><rect width="24" height="24" fill="none"/></svg>