<svg xmlns="http://www.w3.org/2000/svg" viewBox="0 0 24 24"><path d="M17,15h1.3A2.7,2.7,0,0,0,21,12.3V5.7A2.7,2.7,0,0,0,18.3,3H5.7A2.7,2.7,0,0,0,3,5.7v6.6A2.7,2.7,0,0,0,5.7,15H7" fill="none" stroke="#323232" stroke-linecap="round" stroke-linejoin="round" stroke-width="1.5"/><path d="M10.99983,15.00026,7.70164,19.4002A1,1,0,0,0,8.50179,21h6.99634a1,1,0,0,0,.80018-1.59986l-3.29814-4.39988A1.25,1.25,0,0,0,10.99983,15.00026Z" fill="none" stroke="#323232" stroke-linecap="round" stroke-linejoin="round" stroke-width="1.5"/><rect width="24" height="24" fill="none"/></svg>