<svg xmlns="http://www.w3.org/2000/svg" viewBox="0 0 24 24"><path d="M7,5V4.5A2.5,2.5,0,0,1,9.5,2h9A2.5,2.5,0,0,1,21,4.5v15A2.5,2.5,0,0,1,18.5,22h-9A2.5,2.5,0,0,1,7,19.5V19" fill="none" stroke="#323232" stroke-linecap="round" stroke-linejoin="round" stroke-width="1.5"/><path d="M10.57786,11.18388l-6-4.24826A1,1,0,0,0,3,7.75173v8.49654a1,1,0,0,0,1.57786.81611l6-4.24826A1,1,0,0,0,10.57786,11.18388Z" fill="none" stroke="#323232" stroke-linecap="round" stroke-linejoin="round" stroke-width="1.5"/><rect width="24" height="24" fill="none"/></svg>