<svg xmlns="http://www.w3.org/2000/svg" viewBox="0 0 24 24"><path d="M0,0H24V24H0Z" fill="none"/><path d="M7.5,3.15341a3.50546,3.50546,0,0,0-3.48511.843A3.40671,3.40671,0,0,0,3.04817,7" fill="none" stroke="#323232" stroke-linecap="round" stroke-linejoin="round" stroke-width="1.5"/><path d="M16.5,3.15341a3.50546,3.50546,0,0,1,3.48511.843A3.40671,3.40671,0,0,1,20.95183,7" fill="none" stroke="#323232" stroke-linecap="round" stroke-linejoin="round" stroke-width="1.5"/><path d="M8.939,5.611A8,8,0,1,1,4.61208,16.0646L4.611,16.062A8,8,0,0,1,8.939,5.611" fill="none" stroke="#323232" stroke-linecap="round" stroke-linejoin="round" stroke-width="1.5"/><polyline points="15.5 13.5 11.5 13.5 11.5 8.5" fill="none" stroke="#323232" stroke-linecap="round" stroke-linejoin="round" stroke-width="1.5"/></svg>