<svg xmlns="http://www.w3.org/2000/svg" viewBox="0 0 24 24"><path d="M16.5,3.5h3A1.5,1.5,0,0,1,21,5V19a1.5,1.5,0,0,1-1.5,1.5H15a0,0,0,0,1,0,0V5A1.5,1.5,0,0,1,16.5,3.5Z" fill="none" stroke="#323232" stroke-linecap="round" stroke-linejoin="round" stroke-width="1.5"/><path d="M15,20.5H9v-10A1.5,1.5,0,0,1,10.5,9H15" fill="none" stroke="#323232" stroke-linecap="round" stroke-linejoin="round" stroke-width="1.5"/><path d="M4.5,15H9a0,0,0,0,1,0,0v5.5a0,0,0,0,1,0,0H4.5A1.5,1.5,0,0,1,3,19V16.5A1.5,1.5,0,0,1,4.5,15Z" fill="none" stroke="#323232" stroke-linecap="round" stroke-linejoin="round" stroke-width="1.5"/><path d="M24,24H0V0H24Z" fill="none"/></svg>