<?xml version="1.0" encoding="UTF-8"?><svg version="1.1" viewBox="0 0 24 24" xmlns="http://www.w3.org/2000/svg" xmlns:xlink="http://www.w3.org/1999/xlink"><g fill="none"><path d="M24 24h-24v-24h24Z"></path><circle cx="12.1138" cy="12.0006" r="9" stroke="#323232" stroke-linecap="round" stroke-linejoin="round" stroke-width="1.5"></circle><path stroke="#323232" stroke-linecap="round" stroke-linejoin="round" stroke-width="1.5" d="M12.4796 14.5065l2.23753.91277 6.16154e-09 2.53019e-09c.510279.209542 1.09381-.0342541 1.30335-.544534 .113982-.277571.0971353-.591679-.0458819-.855466l-2.99619-5.50015 7.67487e-09 1.40514e-08c-.264677-.48458-.872071-.662847-1.35665-.398169 -.168131.0918329-.306336.230039-.398169.398169l-2.99842 5.50422 -5.66965e-08 1.04574e-07c-.262483.484139-.082795 1.0894.401345 1.35188 .263346.142777.576928.159597.854036.0458102l2.24184-.91453 4.56221e-08-1.8606e-08c.2427-.0989796.51451-.0989796.75721 8.23966e-08Z"></path></g></svg>