<svg xmlns="http://www.w3.org/2000/svg" viewBox="0 0 24 24"><path d="M24,0H0V24H24Z" fill="none"/><path d="M20,14.66666h0A5.33333,5.33333,0,0,1,14.66667,20H12a5.33332,5.33332,0,0,1-5.33332-5.33333v-.44445a4.88889,4.88889,0,0,1,4.88889-4.88889h1.33333" fill="none" stroke="#323232" stroke-linecap="round" stroke-linejoin="round" stroke-width="1.5"/><line x1="20" y1="14.66667" x2="20" y2="13.33334" fill="none" stroke="#323232" stroke-linecap="round" stroke-linejoin="round" stroke-width="1.5"/><path d="M4,10.22222V8.88889A4.88889,4.88889,0,0,1,8.88889,4h3.55555a4.88889,4.88889,0,0,1,4.88889,4.88889v1.33333a4.44444,4.44444,0,0,1-4.44444,4.44445H11.11111" fill="none" stroke="#323232" stroke-linecap="round" stroke-linejoin="round" stroke-width="1.5"/></svg>