<svg xmlns="http://www.w3.org/2000/svg" viewBox="0 0 24 24"><path d="M18.70782,3.29218A8.45376,8.45376,0,0,1,20.304,6.696" fill="none" stroke="#323232" stroke-linecap="round" stroke-linejoin="round" stroke-width="1.5"/><path d="M19.85277,15.71783l.00268.00249a.45.45,0,0,1-.30638.77968H4.45088a.45.45,0,0,1-.30635-.7796h0a7.37477,7.37477,0,0,0,2.35413-5.40189V8.5a5.5,5.5,0,0,1,5.5-5.5h0a5.5,5.5,0,0,1,5.5,5.5v1.816A7.37479,7.37479,0,0,0,19.85277,15.71783Z" fill="none" stroke="#323232" stroke-linecap="round" stroke-linejoin="round" stroke-width="1.5"/><path d="M14,19.5l-.11338.13228A2.48483,2.48483,0,0,1,12,20.5h0a2.48483,2.48483,0,0,1-1.88662-.86772L10,19.5" fill="none" stroke="#323232" stroke-linecap="round" stroke-linejoin="round" stroke-width="1.5"/><path d="M5.29218,3.29218A8.45376,8.45376,0,0,0,3.696,6.696" fill="none" stroke="#323232" stroke-linecap="round" stroke-linejoin="round" stroke-width="1.5"/></svg>