<svg xmlns="http://www.w3.org/2000/svg" viewBox="0 0 24 24"><rect width="24" height="24" fill="none"/><path d="M6.00005,13.27778V9a6,6,0,0,1,6-6h0a6,6,0,0,1,6,6L18,13.27778l1.63388,1.63388A1.25,1.25,0,0,1,20,15.79554V16.25a1.25,1.25,0,0,1-1.25,1.25H5.25A1.25,1.25,0,0,1,4,16.25v-.45446a1.25,1.25,0,0,1,.36612-.88388Z" fill="none" stroke="#323232" stroke-linecap="round" stroke-linejoin="round" stroke-width="1.5"/><path d="M14,20.25a3.04167,3.04167,0,0,1-4,0" fill="none" stroke="#323232" stroke-linecap="round" stroke-linejoin="round" stroke-width="1.5"/><line x1="21" y1="7" x2="22" y2="7" fill="none" stroke="#323232" stroke-linecap="round" stroke-linejoin="round" stroke-width="1.5"/><line x1="19.29289" y1="2.70711" x2="20" y2="2" fill="none" stroke="#323232" stroke-linecap="round" stroke-linejoin="round" stroke-width="1.5"/><line x1="3" y1="7" x2="2" y2="7" fill="none" stroke="#323232" stroke-linecap="round" stroke-linejoin="round" stroke-width="1.5"/><line x1="4.70711" y1="2.70711" x2="4" y2="2" fill="none" stroke="#323232" stroke-linecap="round" stroke-linejoin="round" stroke-width="1.5"/></svg>