<?xml version="1.0" encoding="UTF-8"?><svg version="1.1" viewBox="0 0 24 24" xmlns="http://www.w3.org/2000/svg" xmlns:xlink="http://www.w3.org/1999/xlink"><defs><path d="M0 0h24v24h-24Z" id="a"></path></defs><g fill="none"><use xlink:href="#a"></use><use xlink:href="#a"></use><path stroke="#323232" stroke-linecap="round" stroke-linejoin="round" stroke-width="1.5" d="M13.6 20h-3.2"></path><path stroke="#323232" stroke-linecap="round" stroke-linejoin="round" stroke-width="1.5" d="M17 10.032v-.032 0c0-2.761-2.239-5-5-5v0c-2.761 0-5 2.239-5 5v0 .032 2.472c0 .324-.183.619-.472.764l-.503.251c-.628.315-1.025.957-1.025 1.659v0c0 1.024.83 1.854 1.854 1.854h10.292c1.024 0 1.854-.83 1.854-1.854v0c0-.702-.397-1.344-1.025-1.658l-.503-.251c-.289-.146-.472-.441-.472-.765v-2.472Z"></path><path stroke="#323232" stroke-linecap="round" stroke-linejoin="round" stroke-width="1.5" d="M18.951 6.049c-.712-1.25-1.75-2.288-3-3"></path><path stroke="#323232" stroke-linecap="round" stroke-linejoin="round" stroke-width="1.5" d="M5.049 6.049c.712-1.25 1.75-2.288 3-3"></path></g></svg>