<svg xmlns="http://www.w3.org/2000/svg" viewBox="0 0 24 24"><path d="M0,24H24V0H0Z" fill="none"/><path d="M9.51,18v.512A2.488,2.488,0,0,0,11.998,21H12a2.489,2.489,0,0,0,2.49-2.488V18" fill="none" stroke="#323232" stroke-linecap="round" stroke-linejoin="round" stroke-width="1.5"/><path d="M17.88733,8.85126A6.02225,6.02225,0,0,1,18,10v4.5h.25A1.75,1.75,0,0,1,20,16.25h0A1.75,1.75,0,0,1,18.25,18H5.75A1.75,1.75,0,0,1,4,16.25H4A1.75,1.75,0,0,1,5.75,14.5H6V10a6,6,0,0,1,6-6h0a5.97264,5.97264,0,0,1,2.41162.50818" fill="none" stroke="#323232" stroke-linecap="round" stroke-linejoin="round" stroke-width="1.5"/><circle cx="17" cy="6" r="3" fill="none" stroke="#323232" stroke-linecap="round" stroke-linejoin="round" stroke-width="1.5"/></svg>