<svg xmlns="http://www.w3.org/2000/svg" viewBox="0 0 24 24"><path d="M6,13.5V9a6,6,0,0,1,6-6h0a6,6,0,0,1,6,6v4.5h.25A1.75,1.75,0,0,1,20,15.25h0A1.75,1.75,0,0,1,18.25,17H5.75A1.75,1.75,0,0,1,4,15.25H4A1.75,1.75,0,0,1,5.75,13.5Z" fill="none" stroke="#323232" stroke-linecap="round" stroke-linejoin="round" stroke-width="1.5"/><line x1="14.00001" y1="20" x2="10.00001" y2="20" fill="none" stroke="#323232" stroke-linecap="round" stroke-linejoin="round" stroke-width="1.5"/><path d="M0,24H24V0H0Z" fill="none"/></svg>