<svg xmlns="http://www.w3.org/2000/svg" viewBox="0 0 24 24"><path d="M14,20l-.11338.13228A2.48483,2.48483,0,0,1,12,21h0a2.48483,2.48483,0,0,1-1.88662-.86772L10,20" fill="none" stroke="#323232" stroke-linecap="round" stroke-linejoin="round" stroke-width="1.5"/><path d="M12,2h0a6,6,0,0,1,6,6V9.61851a8.89478,8.89478,0,0,0,2.83937,6.5153h0A.5.5,0,0,1,20.499,17H3.501a.5.5,0,0,1-.34038-.86622h0A8.8948,8.8948,0,0,0,6,9.61851V8A6,6,0,0,1,12,2Z" fill="none" stroke="#323232" stroke-linecap="round" stroke-linejoin="round" stroke-width="1.5"/></svg>