<svg xmlns="http://www.w3.org/2000/svg" viewBox="0 0 24 24"><path d="M10.14286,3h3.71429a2,2,0,0,1,2,2V7a0,0,0,0,1,0,0H8.14286a0,0,0,0,1,0,0V5A2,2,0,0,1,10.14286,3Z" fill="none" stroke="#323232" stroke-linecap="round" stroke-linejoin="round" stroke-width="1.5"/><line x1="3.5" y1="7" x2="20.5" y2="7" fill="none" stroke="#323232" stroke-linecap="round" stroke-linejoin="round" stroke-width="1.5"/><line x1="15" y1="11" x2="9" y2="11" fill="none" stroke="#323232" stroke-linecap="round" stroke-linejoin="round" stroke-width="1.5"/><path d="M18.5,7V19a2,2,0,0,1-2,2h-9a2,2,0,0,1-2-2V7" fill="none" stroke="#323232" stroke-linecap="round" stroke-linejoin="round" stroke-width="1.5"/></svg>