<svg xmlns="http://www.w3.org/2000/svg" viewBox="0 0 24 24"><path d="M24,24H0V0H24Z" fill="none"/><path d="M6.60619,20.32842,3.67157,17.3938A4,4,0,0,1,2.5,14.56537V9.43565A4,4,0,0,1,3.67159,6.60721L6.60727,3.67156A4,4,0,0,1,9.43568,2.5h5.12863a4,4,0,0,1,2.82843,1.17158l2.93569,2.93568A4,4,0,0,1,21.5,9.43569v5.12973a4,4,0,0,1-1.17113,2.828L17.39522,20.328A4,4,0,0,1,14.56635,21.5H9.43462A4,4,0,0,1,6.60619,20.32842Z" fill="none" stroke="#323232" stroke-linecap="round" stroke-linejoin="round" stroke-width="1.5"/><path d="M14.94616,15.9339l-2.74292-1.9651a.35.35,0,0,0-.4073-.00027L9.05346,15.9279A.35.35,0,0,1,8.5,15.64312V9.5A1.5,1.5,0,0,1,10,8H14a1.5,1.5,0,0,1,1.5,1.5v6.1494A.35.35,0,0,1,14.94616,15.9339Z" fill="none" stroke="#323232" stroke-linecap="round" stroke-linejoin="round" stroke-width="1.5"/></svg>