<svg xmlns="http://www.w3.org/2000/svg" viewBox="0 0 24 24"><path d="M20,10v9.99822a1,1,0,0,1-1.58841.80856L12,16.14092,5.58841,20.80678A1,1,0,0,1,4,19.99822V6A3,3,0,0,1,7,3h4" fill="none" stroke="#323232" stroke-linecap="round" stroke-linejoin="round" stroke-width="1.5"/><path d="M0,0H24V24H0Z" fill="none"/><path d="M0,0H24V24H0Z" fill="none"/><path d="M20,9V19.99814a1,1,0,0,1-1.59985.80011L12,16,5.59985,20.79825A1,1,0,0,1,4,19.99814V6A3,3,0,0,1,7,3h5" fill="none" stroke="#323232" stroke-linecap="round" stroke-linejoin="round" stroke-width="1.5"/><line x1="15" y1="5" x2="19" y2="5" fill="none" stroke="#323232" stroke-linecap="round" stroke-linejoin="round" stroke-width="1.5"/><line x1="17" y1="7" x2="17" y2="3" fill="none" stroke="#323232" stroke-linecap="round" stroke-linejoin="round" stroke-width="1.5"/></svg>