<svg xmlns="http://www.w3.org/2000/svg" viewBox="0 0 24 24"><path d="M0,0H24V24H0Z" fill="none"/><path d="M10.94091,20.89513h0A9.87818,9.87818,0,0,1,3,11.20879V8A5,5,0,0,1,8,3h8a5,5,0,0,1,5,5v3.20876a9.87817,9.87817,0,0,1-7.94069,9.6863l-.00023,0A5.4,5.4,0,0,1,10.94091,20.89513Z" fill="none" stroke="#323232" stroke-linecap="round" stroke-linejoin="round" stroke-width="1.5"/><path d="M9,9.5v4.99449a.5.5,0,0,0,.78177.413L11.71756,13.587a.5.5,0,0,1,.56409.00038l1.936,1.3245A.5.5,0,0,0,15,14.49916V9.5A1.5,1.5,0,0,0,13.5,8h-3A1.5,1.5,0,0,0,9,9.5Z" fill="none" stroke="#323232" stroke-linecap="round" stroke-linejoin="round" stroke-width="1.5"/></svg>