<svg xmlns="http://www.w3.org/2000/svg" viewBox="0 0 24 24"><path d="M24,24V0H0V24Z" fill="none"/><path d="M15,7V5a2,2,0,0,0-2-2H6A2,2,0,0,0,4,5V16.04268a1,1,0,0,0,1.47886.8779L8.99988,15" fill="none" stroke="#323232" stroke-linecap="round" stroke-linejoin="round" stroke-width="1.5"/><path d="M9,9V19.999a1.00058,1.00058,0,0,0,1.48.87728l4.02014-2.19276s1.96558,1.07216,4.02024,2.19287A1.0004,1.0004,0,0,0,20,19.999V9a2,2,0,0,0-2-2H11A2,2,0,0,0,9,9Z" fill="none" stroke="#323232" stroke-linecap="round" stroke-linejoin="round" stroke-width="1.5"/></svg>