<?xml version="1.0" encoding="UTF-8"?><svg version="1.1" viewBox="0 0 24 24" xmlns="http://www.w3.org/2000/svg" xmlns:xlink="http://www.w3.org/1999/xlink"><g stroke-linecap="round" stroke-width="1.5" stroke="#323232" fill="none" stroke-linejoin="round"><path d="M12 21v0l-2.95404e-08-5.91179e-08c-.613226-1.22722-1.8681-2.00176-3.24-1.9998h-4.2606l-5.60656e-08 3.73035e-13c-.82809 5.4919e-06-1.49939-.67129-1.4994-1.49938 -4.42135e-11-6.66672e-06-4.39639e-11-1.33334e-05 7.48734e-13-2.00002e-05h-3.75699e-13v-12.001l-3.33298e-11-9.77363e-06c-1.25038e-07-.82809.6713-1.49939 1.49939-1.49939 6.66668e-06-1.00631e-12 1.33334e-05 4.24496e-11 2.00001e-05 1.30369e-10h3.501l6.41191e-08 1.58096e-13c2.20891 5.43323e-06 3.99959 1.79069 3.99959 3.9996v0Z"></path><path d="M12 21v0l1.77266e-07-3.54754e-07c.613226-1.22722 1.8681-2.00176 3.24-1.9998h4.2642l-2.36027e-08 5.68328e-11c.826687-.00199055 1.4958-.672711 1.4958-1.4994v-12.001l3.33458e-11-1e-05c0-.82809-.6713-1.49939-1.49939-1.49939 -6.66668e-06 0-1.33334e-05 4.44631e-11-2.00001e-05 1.33388e-10h-3.501l-1.87374e-07 4.73399e-13c-2.20891 5.62634e-06-3.99959 1.79069-3.99959 3.9996v0Z"></path></g><rect width="24" height="24" fill="none"></rect></svg>