<svg xmlns="http://www.w3.org/2000/svg" viewBox="0 0 24 24"><path d="M0,24H24V0H0Z" fill="none"/><path d="M7.12132,20.12132,3.87868,16.87868A3,3,0,0,1,3,14.75736V9.24364a3,3,0,0,1,.87868-2.12132L7.12232,3.87868A3,3,0,0,1,9.24364,3h5.51272a3,3,0,0,1,2.12132.87868l3.24364,3.24364A3,3,0,0,1,21,9.24364v5.51372a3,3,0,0,1-.87835,2.121L16.88,20.121A3,3,0,0,1,14.75836,21H9.24264A3,3,0,0,1,7.12132,20.12132Z" fill="none" stroke="#323232" stroke-linecap="round" stroke-linejoin="round" stroke-width="1.5"/><path d="M9,10v4.99449a.5.5,0,0,0,.78177.413L11.71756,14.087a.5.5,0,0,1,.56409.00038l1.936,1.3245A.5.5,0,0,0,15,14.99916V10a1.5,1.5,0,0,0-1.5-1.5h-3A1.5,1.5,0,0,0,9,10Z" fill="none" stroke="#323232" stroke-linecap="round" stroke-linejoin="round" stroke-width="1.5"/></svg>