<?xml version="1.0" encoding="UTF-8"?><svg version="1.1" viewBox="0 0 24 24" xmlns="http://www.w3.org/2000/svg" xmlns:xlink="http://www.w3.org/1999/xlink"><g fill="none"><path d="M0 0h24v24h-24v-24Z"></path><path stroke="#323232" stroke-linecap="round" stroke-linejoin="round" stroke-width="1.5" d="M12 8.051c-1.258-1.258-3.217-1.387-4.619-.388 -.292.209-.458.554-.458.913v7.308c0 .437.465.69.851.485 1.358-.724 3.082-.514 4.226.631v-8.949c1.258-1.258 3.217-1.387 4.619-.388 .292.208.458.553.458.912v7.308c0 .437-.465.69-.851.485 -1.358-.723-3.082-.513-4.226.632"></path><path stroke="#323232" stroke-linecap="round" stroke-linejoin="round" stroke-width="1.5" d="M17 21h-10c-2.209 0-4-1.791-4-4v-10c0-2.209 1.791-4 4-4h10c2.209 0 4 1.791 4 4v10c0 2.209-1.791 4-4 4Z"></path></g></svg>