<?xml version="1.0" encoding="UTF-8"?><svg version="1.1" viewBox="0 0 24 24" xmlns="http://www.w3.org/2000/svg" xmlns:xlink="http://www.w3.org/1999/xlink"><g fill="none"><path d="M0 0h24v24h-24v-24Z"></path><path stroke="#323232" stroke-linecap="round" stroke-linejoin="round" stroke-width="1.5" d="M8 20.064v-9.064c0-1.105.895-2 2-2h10.487"></path><path stroke="#323232" stroke-linecap="round" stroke-linejoin="round" stroke-width="1.5" d="M8 14h12.776"></path><path stroke="#323232" stroke-linecap="round" stroke-linejoin="round" stroke-width="1.5" d="M11.005 11.49c-.003 0-.005.002-.005.005 0 .003.002.005.005.005 .003 0 .005-.002.005-.005 -1.77636e-15-.003-.002-.005-.005-.005"></path><path stroke="#323232" stroke-linecap="round" stroke-linejoin="round" stroke-width="1.5" d="M13.548 11.49c-.003 0-.005.002-.005.005 0 .003.002.005.005.005 .003 0 .005-.002.005-.005 0-.003-.002-.005-.005-.005"></path><path stroke="#323232" stroke-linecap="round" stroke-linejoin="round" stroke-width="1.5" d="M12 21v0c4.971 0 9-4.029 9-9v0c0-4.971-4.029-9-9-9v0c-4.971 0-9 4.029-9 9v0c0 4.971 4.029 9 9 9Z"></path><path stroke="#323232" stroke-linecap="round" stroke-linejoin="round" stroke-width="1.5" d="M16.088 11.49c-.003 0-.005.002-.005.005 0 .003.002.005.005.005 .003 0 .005-.002.005-.005 0-.003-.003-.005-.005-.005"></path></g></svg>