<?xml version="1.0" encoding="UTF-8"?><svg version="1.1" viewBox="0 0 24 24" xmlns="http://www.w3.org/2000/svg" xmlns:xlink="http://www.w3.org/1999/xlink"><g stroke-linecap="round" stroke-width="1.5" stroke="#323232" fill="none" stroke-linejoin="round"><path d="M5 3h6c1.105 0 2 .895 2 2v4.738c0 1.105-.895 2-2 2h-6c-1.105 0-2-.895-2-2v-4.738c0-1.105.895-2 2-2Z"></path><path d="M21 11.738h-2.879c-1.105 0-2-.895-2-2v-4.738c0-1.105.895-2 2-2h2.879"></path><path d="M3 21v-4c0-1.105.895-2 2-2h6c1.105 0 2 .895 2 2v4"></path><path d="M16 21v-4c0-1.105.895-2 2-2h3"></path></g><path fill="none" d="M0 0h24v24h-24v-24Z"></path></svg>