<svg id="Layer_3" data-name="Layer 3" xmlns="http://www.w3.org/2000/svg" viewBox="0 0 24 24"><rect width="24" height="24" fill="none"/><path d="M16,21h2a3,3,0,0,0,3-3V7.5a3,3,0,0,0-3-3H6a3,3,0,0,0-3,3V16" fill="none" stroke="#323232" stroke-linecap="round" stroke-linejoin="round" stroke-width="1.5"/><path d="M12.04975,15.29287a1,1,0,0,0-1.41416,0L7.79291,18.13557A1.00007,1.00007,0,0,0,7.5,18.84273V20.75a.25.25,0,0,0,.25.25H9.65727a1,1,0,0,0,.70715-.29291l2.84269-2.84269a1,1,0,0,0,0-1.41422Z" fill="none" stroke="#323232" stroke-linecap="round" stroke-linejoin="round" stroke-width="1.5"/><line x1="16.5" y1="3" x2="16.5" y2="6" fill="none" stroke="#323232" stroke-linecap="round" stroke-linejoin="round" stroke-width="1.5"/><line x1="7.5" y1="3" x2="7.5" y2="6" fill="none" stroke="#323232" stroke-linecap="round" stroke-linejoin="round" stroke-width="1.5"/><path d="M4.5,20.995,4.505,21l-.005.005L4.495,21l.005-.005" fill="none" stroke="#323232" stroke-linecap="round" stroke-linejoin="round" stroke-width="1.5"/><path d="M1.5,20.995,1.505,21l-.005.005L1.495,21l.005-.005" fill="none" stroke="#323232" stroke-linecap="round" stroke-linejoin="round" stroke-width="1.5"/></svg>