<svg viewBox="0 0 24 24" xmlns="http://www.w3.org/2000/svg" xmlns:xlink="http://www.w3.org/1999/xlink"><defs><path d="M0 0h24v24H0Z" id="a"/><path d="M16.5 3l0 3" id="c"/><path d="M7.5 3l0 3" id="b"/></defs><g fill="none"><use xlink:href="#a"/><g stroke-linecap="round" stroke-width="1.5" stroke="#323232" fill="none" stroke-linejoin="round"><use xlink:href="#b"/><use xlink:href="#c"/><use xlink:href="#b"/><use xlink:href="#c"/><path d="M9 21H6l-.01-.001c-1.66-.01-3-1.35-3-3 0 0 0-.001 0-.001V7.49l0 0c-.01-1.66 1.34-3.01 2.99-3.01h12l-.01 0c1.65-.01 3 1.34 3 3v1.5"/><path d="M19 12h-5l-.01 0c-1.11 0-2 .89-2 2 0 0 0 0 0 0v5l0 0c0 1.1.89 1.99 2 1.99h5l-.01-.001c1.1 0 2-.9 2-2v-5.01 -.001c0-1.11-.9-2-2-2 -.01 0-.01 0-.01 0Z"/><path d="M15.25 15l0-.01c-.01.13-.12.24-.26.24 -.14-.01-.25-.12-.25-.26s.11-.25.24-.25l0-.001c.13-.01.25.11.25.24 0 0 0 0-.01 0"/><path d="M21 16.05l-.01-.01c-.21-.04-.42-.05-.63-.05l-.01 0c-2.42 0-4.38 1.95-4.38 4.37v0l-.01-.01c0 .2.01.41.04.62"/></g><use xlink:href="#a"/><use xlink:href="#a"/><use xlink:href="#a"/></g></svg>