<svg xmlns="http://www.w3.org/2000/svg" viewBox="0 0 24 24"><path d="M21,6.5V18a3,3,0,0,1-3,3H8.65685a4,4,0,0,1-2.82842-1.17157L4.17157,18.17157A4,4,0,0,1,3,15.34315V6.5a3,3,0,0,1,3-3H18A3,3,0,0,1,21,6.5Z" fill="none" stroke="#323232" stroke-linecap="round" stroke-linejoin="round" stroke-width="1.5"/><line x1="7.5" y1="2" x2="7.5" y2="5" fill="none" stroke="#323232" stroke-linecap="round" stroke-linejoin="round" stroke-width="1.5"/><line x1="16.5" y1="2" x2="16.5" y2="5" fill="none" stroke="#323232" stroke-linecap="round" stroke-linejoin="round" stroke-width="1.5"/><path d="M9,21V17a2,2,0,0,0-2-2H3" fill="none" stroke="#323232" stroke-linecap="round" stroke-linejoin="round" stroke-width="1.5"/></svg>