<svg xmlns="http://www.w3.org/2000/svg" viewBox="0 0 24 24"><path d="M15,21V17a2,2,0,0,1,2-2h4" fill="none" stroke="#323232" stroke-linecap="round" stroke-linejoin="round" stroke-width="1.5"/><path d="M3,7.5V18a3,3,0,0,0,3,3h9.75736a3,3,0,0,0,2.12132-.87868l2.24264-2.24264A3,3,0,0,0,21,15.75736V7.5a3,3,0,0,0-3-3H6A3,3,0,0,0,3,7.5Z" fill="none" stroke="#323232" stroke-linecap="round" stroke-linejoin="round" stroke-width="1.5"/><line x1="16.5" y1="3" x2="16.5" y2="6" fill="none" stroke="#323232" stroke-linecap="round" stroke-linejoin="round" stroke-width="1.5"/><line x1="7.5" y1="3" x2="7.5" y2="6" fill="none" stroke="#323232" stroke-linecap="round" stroke-linejoin="round" stroke-width="1.5"/></svg>