<svg xmlns="http://www.w3.org/2000/svg" viewBox="0 0 24 24"><path d="M14.66222,6H17a4,4,0,0,1,4,4v7a4,4,0,0,1-4,4H9.53876A1,1,0,0,1,8.625,19.59386l6.7501-15.18772A1,1,0,0,0,14.46124,3H7A4,4,0,0,0,3,7v7a4,4,0,0,0,4,4H9.345" fill="none" stroke="#323232" stroke-linecap="round" stroke-linejoin="round" stroke-width="1.5"/><polyline points="15.5 13.5 17 15 15.5 16.5" fill="none" stroke="#323232" stroke-linecap="round" stroke-linejoin="round" stroke-width="1.5"/><polyline points="8.5 10.5 7 9 8.5 7.5" fill="none" stroke="#323232" stroke-linecap="round" stroke-linejoin="round" stroke-width="1.5"/><path d="M0,24H24V0H0Z" fill="none"/></svg>