<svg xmlns="http://www.w3.org/2000/svg" viewBox="0 0 24 24"><path d="M0,0H24V24H0Z" fill="none"/><polyline points="17 12 12 14 12 10 7 12" fill="none" stroke="#323232" stroke-linecap="round" stroke-linejoin="round" stroke-width="1.5"/><path d="M6.82843,19.82842,4.17157,17.17157A4,4,0,0,1,3,14.34314V9.65785A4,4,0,0,1,4.17157,6.82942L6.82943,4.17157A4,4,0,0,1,9.65785,3h4.6843a4,4,0,0,1,2.82842,1.17157l2.65786,2.65785A4,4,0,0,1,21,9.65785v4.68538a4,4,0,0,1-1.17114,2.828L17.17292,19.828A4,4,0,0,1,14.34405,21H9.65685A4,4,0,0,1,6.82843,19.82842Z" fill="none" stroke="#323232" stroke-linecap="round" stroke-linejoin="round" stroke-width="1.5"/></svg>