<svg xmlns="http://www.w3.org/2000/svg" viewBox="0 0 24 24"><rect width="24" height="24" fill="none"/><path d="M7.13763,19.566l-2.555.427a.5.5,0,0,1-.57556-.57556l.42688-2.55518A9.01668,9.01668,0,1,1,7.13763,19.566Z" fill="none" stroke="#323232" stroke-linecap="round" stroke-linejoin="round" stroke-width="1.5"/><path d="M8.52021,12.87739a1,1,0,0,1,0-1.75478l1.42535-.77948a.99993.99993,0,0,0,.39757-.39757l.77948-1.42535a1,1,0,0,1,1.75478,0l.77948,1.42535a.99993.99993,0,0,0,.39757.39757l1.42535.77948a1,1,0,0,1,0,1.75478l-1.42535.77948a.99993.99993,0,0,0-.39757.39757l-.77948,1.42535a1,1,0,0,1-1.75478,0l-.77948-1.42535a.99993.99993,0,0,0-.39757-.39757Z" fill="none" stroke="#323232" stroke-linecap="round" stroke-linejoin="round" stroke-width="1.5"/></svg>