<svg viewBox="0 0 24 24" xmlns="http://www.w3.org/2000/svg"><g fill="none"><path d="M0 0h24v24H0Z"/><g stroke-linecap="round" stroke-width="1.5" stroke="#323232" fill="none" stroke-linejoin="round"><path d="M12.08 11.66l-.001-.001c.04.04.04.12-.01.17 -.05.04-.13.04-.18-.01 -.05-.05-.05-.13-.001-.18l0-.01c.04-.05.12-.05.17-.01 0 0 0 0 0 0"/><path d="M12 4c-4.97 0-9 3.35-9 7.49l-.01-.01c.07 2.49 1.45 4.77 3.62 5.99l0-.01c-.22.58-.52 1.14-.9 1.64l0-.01c-.28.39-.18.93.22 1.2 .21.14.48.19.73.11l0-.01c1.2-.36 2.33-.91 3.34-1.65l0 0c.64.12 1.3.18 1.96.17 4.97 0 9-3.36 9-7.5 0-4.14-4.03-7.5-9-7.5Z"/><path d="M16.08 11.66l-.001-.001c.04.04.04.12-.01.17 -.05.04-.13.04-.18-.01 -.05-.05-.05-.13-.001-.18l0-.01c.04-.05.12-.05.17-.01 0 0 0 0 0 0"/><path d="M8.08 11.66l-.001-.001c.04.04.04.12-.01.17 -.05.04-.13.04-.18-.01 -.05-.05-.05-.13-.001-.18l0-.01c.04-.05.12-.05.17-.01 0 0 0 0 0 0"/></g></g></svg>