<svg xmlns="http://www.w3.org/2000/svg" viewBox="0 0 24 24"><rect width="24" height="24" fill="none"/><path d="M14.07107,3H9.92893A4,4,0,0,0,7.10051,4.17157L4.17157,7.10051A4,4,0,0,0,3,9.92893v4.14214a4,4,0,0,0,1.17157,2.82842l2.92894,2.92894A4,4,0,0,0,9.92893,21h4.14214a4,4,0,0,0,2.82842-1.17157l2.92894-2.92894A4,4,0,0,0,21,14.07107V9.92893a4,4,0,0,0-1.17157-2.82842L16.89949,4.17157A4,4,0,0,0,14.07107,3Z" fill="none" stroke="#323232" stroke-linecap="round" stroke-linejoin="round" stroke-width="1.5"/><rect x="8" y="8" width="8" height="8" rx="3" stroke-width="1.5" stroke="#323232" stroke-linecap="round" stroke-linejoin="round" fill="none"/></svg>