<svg xmlns="http://www.w3.org/2000/svg" viewBox="0 0 24 24"><rect width="24" height="24" fill="none"/><circle cx="12" cy="12" r="9.5" fill="none" stroke="#323232" stroke-linecap="round" stroke-linejoin="round" stroke-width="1.5"/><path d="M12,16.0846l-.24246.24245a2.29757,2.29757,0,0,1-3.24927,0L7.673,15.49174a2.29758,2.29758,0,0,1,0-3.24928L12.24246,7.673a2.29758,2.29758,0,0,1,3.24927,0l.83532.83532a2.29756,2.29756,0,0,1,0,3.24927l-2.07327,2.07327a1.02113,1.02113,0,0,1-1.44412,0l-.59817-.59817a1.02113,1.02113,0,0,1,0-1.44412l1.32023-1.32024" fill="none" stroke="#323232" stroke-linecap="round" stroke-linejoin="round" stroke-width="1.5"/></svg>