<svg xmlns="http://www.w3.org/2000/svg" viewBox="0 0 24 24"><path d="M12,16l-.17157.17157a2.82843,2.82843,0,0,1-4,0h0a2.82843,2.82843,0,0,1,0-4l4.34314-4.34314a2.82843,2.82843,0,0,1,4,0h0a2.82843,2.82843,0,0,1,0,4L14.5,13.5a1.4142,1.4142,0,0,1-2,0h0a1.4142,1.4142,0,0,1,0-2L14,10" fill="none" stroke="#323232" stroke-linecap="round" stroke-linejoin="round" stroke-width="1.5"/><rect x="3" y="3" width="18" height="18" rx="5" stroke-width="1.5" stroke="#323232" stroke-linecap="round" stroke-linejoin="round" fill="none"/><rect width="24" height="24" fill="none"/></svg>