<svg xmlns="http://www.w3.org/2000/svg" viewBox="0 0 24 24"><line x1="19" y1="21" x2="5" y2="21" fill="none" stroke="#323232" stroke-linecap="round" stroke-linejoin="round" stroke-width="1.5"/><path d="M12,12,7.6,15.3A4,4,0,0,0,6,18.5V20a1,1,0,0,0,1,1H17a1,1,0,0,0,1-1V18.5a4,4,0,0,0-1.6-3.2L12,12" fill="none" stroke="#323232" stroke-linecap="round" stroke-linejoin="round" stroke-width="1.5"/><line x1="5" y1="3" x2="19" y2="3" fill="none" stroke="#323232" stroke-linecap="round" stroke-linejoin="round" stroke-width="1.5"/><path d="M12,12l4.4-3.3A4,4,0,0,0,18,5.5V4a1,1,0,0,0-1-1H7A1,1,0,0,0,6,4V5.5A4,4,0,0,0,7.6,8.7L12,12" fill="none" stroke="#323232" stroke-linecap="round" stroke-linejoin="round" stroke-width="1.5"/><path d="M0,0H24V24H0Z" fill="none"/></svg>