<svg xmlns="http://www.w3.org/2000/svg" viewBox="0 0 24 24"><path d="M10.5,9h3A2.5,2.5,0,0,1,16,11.5v7A2.5,2.5,0,0,1,13.5,21h-8A2.5,2.5,0,0,1,3,18.5v-7A2.5,2.5,0,0,1,5.5,9h0" fill="none" stroke="#323232" stroke-linecap="round" stroke-linejoin="round" stroke-width="1.5"/><path d="M18.5,15h0A2.5,2.5,0,0,0,21,12.5v-7A2.5,2.5,0,0,0,18.5,3h-8A2.5,2.5,0,0,0,8,5.5v7A2.5,2.5,0,0,0,10.5,15h3" fill="none" stroke="#323232" stroke-linecap="round" stroke-linejoin="round" stroke-width="1.5"/><rect width="24" height="24" fill="none"/></svg>