<svg xmlns="http://www.w3.org/2000/svg" viewBox="0 0 24 24"><path d="M24,24H0V0H24Z" fill="none"/><path d="M18.99945,21H5.00037a2,2,0,0,1-1.97995-2.28246l.8778-6.15323a3.99964,3.99964,0,0,0,0-1.12982l-.87763-6.152A2,2,0,0,1,5.00055,3H18.99963a2,2,0,0,1,1.97995,2.28246l-.8778,6.15322a3.99964,3.99964,0,0,0,0,1.12982l.87763,6.152A2,2,0,0,1,18.99945,21Z" fill="none" stroke="#323232" stroke-linecap="round" stroke-linejoin="round" stroke-width="1.5"/><line x1="20.06197" y1="12" x2="3.93816" y2="12" fill="none" stroke="#323232" stroke-linecap="round" stroke-linejoin="round" stroke-width="1.5"/></svg>