<svg viewBox="0 0 24 24" xmlns="http://www.w3.org/2000/svg"><g fill="none"><path d="M0 0h24v24H0Z"/><g stroke-linecap="round" stroke-width="1.5" stroke="#323232" fill="none" stroke-linejoin="round"><path d="M12 3l0 2"/><path d="M12 19l0 2"/><path d="M21 12l-2 0"/><path d="M12 3a9 9 0 1 0 0 18 9 9 0 1 0 0-18Z"/><path d="M5 12l-2 0"/><path d="M9.5 12.53l-.01-.01c.02 1.38 1.15 2.48 2.53 2.46 1.34-.03 2.43-1.12 2.46-2.46 0-1.36-1.5-2.82-2.17-3.42l0 0c-.19-.17-.48-.17-.67-.01 -.68.59-2.17 2.05-2.17 3.41Z"/></g></g></svg>