<svg viewBox="0 0 24 24" xmlns="http://www.w3.org/2000/svg"><g fill="none"><path d="M0 0h24v24H0Z"/><g stroke-linecap="round" stroke-width="1.5" stroke="#323232" fill="none" stroke-linejoin="round"><path d="M12.007 10.31l0 0c-.94-.01-1.7.74-1.7 1.68 -.01.93.74 1.69 1.68 1.69 .93 0 1.69-.75 1.69-1.69v-.01l0 0c-.01-.93-.76-1.69-1.69-1.69"/><path d="M9.5 14.5l1.25-1.25"/><path d="M12 3l-.01 0c-4.98 0-9 4.02-9 9 0 4.97 4.02 8.99 9 8.99 4.97-.01 8.99-4.03 8.99-9.01 -.01-2.39-.95-4.68-2.64-6.37"/><path d="M16 8l-2.81 2.81"/></g></g></svg>