<svg viewBox="0 0 24 24" xmlns="http://www.w3.org/2000/svg"><g stroke-linecap="round" stroke-width="1.5" stroke="#323232" fill="none" stroke-linejoin="round"><path d="M15.61 8.02l-4.26 1.75 0-.01c-1.13.46-1.66 1.74-1.2 2.86 .11.26.27.51.47.71v0l0 0c.85.85 2.24.85 3.1 0 .2-.21.36-.45.47-.72l1.75-4.26 -.01 0c.05-.15-.01-.31-.16-.37 -.07-.03-.15-.03-.22 0Z"/><path d="M16.03 3.96l0 0c-4.45-2.24-9.87-.45-12.11 3.99s-.45 9.86 3.99 12.1c4.44 2.23 9.86.44 12.1-4 1.28-2.56 1.28-5.56 0-8.11"/></g><path fill="none" d="M0 0h24v24H0Z"/></svg>