<svg viewBox="0 0 24 24" xmlns="http://www.w3.org/2000/svg"><g fill="none"><path d="M17.46 9.53l0 0c.1.23.19.48.26.73"/><path d="M13.73 6.26l0 0c.26.07.52.17.77.28"/><path d="M17.73 10.27L19 9"/><path d="M17.73 10.27L16 12"/><path d="M13.73 6.27L12 8"/><path d="M15 5l-1.27 1.27"/><path d="M0 0h24v24H0Z"/><g stroke-linecap="round" stroke-width="1.5" stroke="#323232" fill="none" stroke-linejoin="round"><path d="M12 10.5a1.5 1.5 0 1 0 0 3 1.5 1.5 0 1 0 0-3Z"/><path d="M12 3a9 9 0 1 0 0 18 9 9 0 1 0 0-18Z"/><path d="M16 8l-2.82 2.82"/><path d="M12 6l-.01 0c-3.32 0-6 2.68-6 6 0 0 0 0 0 0"/><path d="M13.73 6.26l0 0c-.57-.18-1.15-.27-1.74-.27"/></g></g></svg>