<svg xmlns="http://www.w3.org/2000/svg" viewBox="0 0 24 24"><path d="M16,20h2.75A2.24937,2.24937,0,0,0,21,17.75126V6.25A2.24939,2.24939,0,0,0,18.75124,4H16" fill="none" stroke="#323232" stroke-linecap="round" stroke-linejoin="round" stroke-width="1.5"/><path d="M3,17.6882V6.31184A1.97531,1.97531,0,0,1,4.54941,4.383l6.04938-1.33574A1.97531,1.97531,0,0,1,13,4.9761V19.0239a1.97531,1.97531,0,0,1-2.4012,1.92885l-6.04938-1.3357A1.97531,1.97531,0,0,1,3,17.6882Z" fill="none" stroke="#323232" stroke-linecap="round" stroke-linejoin="round" stroke-width="1.5"/><path d="M9.9115,12.08828a.125.125,0,1,1,.00022.00022l-.00022-.00022" fill="none" stroke="#323232" stroke-linecap="round" stroke-linejoin="round" stroke-width="1.5"/></svg>