<?xml version="1.0" encoding="UTF-8"?><svg version="1.1" viewBox="0 0 24 24" xmlns="http://www.w3.org/2000/svg" xmlns:xlink="http://www.w3.org/1999/xlink"><g stroke-linecap="round" stroke-width="1.5" stroke="#323232" fill="none" stroke-linejoin="round"><path d="M12 3c4.982 0 9 4.018 9 9 0 4.982-4.018 9-9 9"></path><path d="M12 21c-4.982 0-9-4.018-9-9 0-4.982 4.018-9 9-9"></path><path d="M10.168 4.06c-2.89 4.825-2.89 11.056 0 15.881 .846 1.413 2.819 1.413 3.665 0 2.89-4.825 2.89-11.056 0-15.881 -.847-1.413-2.819-1.413-3.665 8.88178e-16Z"></path><path d="M3 12h18"></path></g><path fill="none" d="M0 0h24v24h-24Z"></path></svg>