<svg xmlns="http://www.w3.org/2000/svg" viewBox="0 0 24 24"><path d="M21,11.94244v3.76344A5.29412,5.29412,0,0,1,15.70588,21H8.29412A5.29412,5.29412,0,0,1,3,15.70588V8.29412A5.29412,5.29412,0,0,1,8.29412,3h3.76344" fill="none" stroke="#323232" stroke-linecap="round" stroke-linejoin="round" stroke-width="1.5"/><path d="M12.8,14.02846l7.61425-7.61424a2,2,0,0,0,0-2.82843h0a2,2,0,0,0-2.82842,0L9.97154,11.2a2.5,2.5,0,0,0-.70711,1.41421l-.25927,1.8149a.5.5,0,0,0,.56568.56568l1.81491-.25927A2.5,2.5,0,0,0,12.8,14.02846Z" fill="none" stroke="#323232" stroke-linecap="round" stroke-linejoin="round" stroke-width="1.5"/><rect width="24" height="24" fill="none"/></svg>