<svg xmlns="http://www.w3.org/2000/svg" viewBox="0 0 24 24"><rect width="24" height="24" fill="none"/><path d="M21,11.94245v3.76344A5.29411,5.29411,0,0,1,15.70588,21H8.29412A5.29411,5.29411,0,0,1,3,15.70589V8.29412A5.29412,5.29412,0,0,1,8.29412,3h3.76344" fill="none" stroke="#323232" stroke-linecap="round" stroke-linejoin="round" stroke-width="1.5"/><path d="M9.97154,11.2l6.61425-6.61427a2,2,0,0,1,2.82842,0h0a2,2,0,0,1,0,2.82843L12.8,14.02846a2.5,2.5,0,0,1-1.41421.70711l-1.81491.25927a.5.5,0,0,1-.56568-.56568l.25927-1.8149A2.5,2.5,0,0,1,9.97154,11.2Z" fill="none" stroke="#323232" stroke-linecap="round" stroke-linejoin="round" stroke-width="1.5"/></svg>