<svg id="Layer_3" data-name="Layer 3" xmlns="http://www.w3.org/2000/svg" viewBox="0 0 24 24"><line x1="5.99994" y1="13.99999" x2="3.10772" y2="13.99999" fill="none" stroke="#323232" stroke-linecap="round" stroke-linejoin="round" stroke-width="1.5"/><line x1="11" y1="8.99999" x2="3" y2="8.99999" fill="none" stroke="#323232" stroke-linecap="round" stroke-linejoin="round" stroke-width="1.5"/><line x1="16" y1="4" x2="3.10772" y2="4" fill="none" stroke="#323232" stroke-linecap="round" stroke-linejoin="round" stroke-width="1.5"/><path d="M11,16.82874a2,2,0,0,1,.58578-1.41421l4.743-4.743.08525-.08532a2,2,0,0,1,2.82894-.0005L20.414,11.75682a2.00071,2.00071,0,0,1,.00051,2.82893l-.08576.08582L15.5861,19.41422A2,2,0,0,1,14.17188,20H12a1,1,0,0,1-1-1Z" fill="none" stroke="#323232" stroke-linecap="round" stroke-linejoin="round" stroke-width="1.5"/><rect width="24" height="24" fill="none"/></svg>