<svg xmlns="http://www.w3.org/2000/svg" viewBox="0 0 24 24"><rect x="3" y="3" width="18" height="18" rx="5" stroke-width="1.5" stroke="#323232" stroke-linecap="round" stroke-linejoin="round" fill="none"/><path d="M13.067,13.40787l3.42043-3.42042a1.75,1.75,0,0,0,0-2.47488h0a1.75,1.75,0,0,0-2.47487,0L10.59213,10.933a1.75,1.75,0,0,0-.5096,1.13569l-.08166,1.40222a.5.5,0,0,0,.52822.52822l1.40222-.08166A1.75,1.75,0,0,0,13.067,13.40787Z" fill="none" stroke="#323232" stroke-linecap="round" stroke-linejoin="round" stroke-width="1.5"/><path d="M11,6.09A5.99673,5.99673,0,1,0,17.91,13" fill="none" stroke="#323232" stroke-linecap="round" stroke-linejoin="round" stroke-width="1.5"/></svg>