<svg xmlns="http://www.w3.org/2000/svg" viewBox="0 0 24 24"><path d="M0,0H24V24H0Z" fill="none"/><path d="M13.279,8.2929l.9281.9281a1.00006,1.00006,0,0,1,0,1.41427l-2.07183,2.07182A1,1,0,0,1,11.42814,13H9.75a.25.25,0,0,1-.25-.25V11.07186a1,1,0,0,1,.29291-.70713L11.86473,8.2929A1.00006,1.00006,0,0,1,13.279,8.2929Z" fill="none" stroke="#323232" stroke-linecap="round" stroke-linejoin="round" stroke-width="1.5"/><rect x="3" y="3" width="18" height="18" rx="5" stroke-width="1.5" stroke="#323232" stroke-linecap="round" stroke-linejoin="round" fill="none"/><path d="M10.505,15.995,10.5,16l-.005-.005.005-.005.005.005" fill="none" stroke="#323232" stroke-linecap="round" stroke-linejoin="round" stroke-width="1.5"/><path d="M13.505,15.995,13.5,16l-.005-.005.005-.005.005.005" fill="none" stroke="#323232" stroke-linecap="round" stroke-linejoin="round" stroke-width="1.5"/><path d="M16.505,15.995,16.5,16l-.005-.005.005-.005.005.005" fill="none" stroke="#323232" stroke-linecap="round" stroke-linejoin="round" stroke-width="1.5"/><path d="M7.505,15.995,7.5,16l-.005-.005L7.5,15.99l.005.005" fill="none" stroke="#323232" stroke-linecap="round" stroke-linejoin="round" stroke-width="1.5"/></svg>