<svg xmlns="http://www.w3.org/2000/svg" viewBox="0 0 24 24"><rect x="2" y="3" width="20" height="18" rx="5" stroke-width="1.5" stroke="#323232" stroke-linecap="round" stroke-linejoin="round" fill="none"/><line x1="6.5" y1="11.5" x2="9" y2="14" fill="none" stroke="#323232" stroke-linecap="round" stroke-linejoin="round" stroke-width="1.5"/><line x1="9" y1="11.5" x2="6.5" y2="14" fill="none" stroke="#323232" stroke-linecap="round" stroke-linejoin="round" stroke-width="1.5"/><path d="M16.27893,9.2929l.9281.9281a1,1,0,0,1,0,1.41427L15.1352,13.7071A1,1,0,0,1,14.42807,14H12.74994a.25.25,0,0,1-.25-.25V12.07186a1,1,0,0,1,.2929-.70713L14.86467,9.2929A1,1,0,0,1,16.27893,9.2929Z" fill="none" stroke="#323232" stroke-linecap="round" stroke-linejoin="round" stroke-width="1.5"/><rect width="24" height="24" fill="none"/></svg>