<svg xmlns="http://www.w3.org/2000/svg" viewBox="0 0 24 24"><path d="M0,24H24V0H0Z" fill="none"/><rect x="3" y="3" width="18" height="18" rx="5" stroke-width="1.5" stroke="#323232" stroke-linecap="round" stroke-linejoin="round" fill="none"/><path d="M14,13.32789v2.1709a.99992.99992,0,0,1-.5528.89441l-2,.99994A1,1,0,0,1,10,16.49873L10,13.328A4.997,4.997,0,0,1,7,8.77457,1.26253,1.26253,0,0,1,8.25608,7.5h7.48784A1.26253,1.26253,0,0,1,17,8.77457,4.99683,4.99683,0,0,1,14,13.32789Z" fill="none" stroke="#323232" stroke-linecap="round" stroke-linejoin="round" stroke-width="1.5"/></svg>