<svg xmlns="http://www.w3.org/2000/svg" viewBox="0 0 24 24"><rect x="2.49998" y="2.5" width="19" height="19" rx="9.49999" stroke-width="1.5" stroke="#323232" stroke-linecap="round" stroke-linejoin="round" fill="none"/><path d="M16.99989,11.003,17,9.049a.50675.50675,0,0,0-.25716-.44657,10.754,10.754,0,0,0-9.48568,0A.50679.50679,0,0,0,7,9.049l.00009,1.954a.5.5,0,0,0,.17286.3781L10.2,13.99994V16.5a1,1,0,0,0,1,1h1.6a1,1,0,0,0,1-1V13.99994L16.827,11.38107A.5.5,0,0,0,16.99989,11.003Z" fill="none" stroke="#323232" stroke-linecap="round" stroke-linejoin="round" stroke-width="1.5"/></svg>