<svg xmlns="http://www.w3.org/2000/svg" viewBox="0 0 24 24"><path d="M16.99989,10.503,17,8.549a.50675.50675,0,0,0-.25716-.44657,10.754,10.754,0,0,0-9.48568,0A.50679.50679,0,0,0,7,8.549l.00009,1.954a.5.5,0,0,0,.17286.3781L10.2,13.49994V16a1,1,0,0,0,1,1h1.6a1,1,0,0,0,1-1V13.49994L16.827,10.88107A.5.5,0,0,0,16.99989,10.503Z" fill="none" stroke="#323232" stroke-linecap="round" stroke-linejoin="round" stroke-width="1.5"/><rect x="2.99998" y="3" width="18" height="18" rx="5" transform="translate(23.99999 0.00002) rotate(90)" stroke-width="1.5" stroke="#323232" stroke-linecap="round" stroke-linejoin="round" fill="none"/></svg>