<svg xmlns="http://www.w3.org/2000/svg" viewBox="0 0 24 24"><path d="M24,24H0V0H24Z" fill="none"/><path d="M13.625,13.14874V15.5a1,1,0,0,1-1,1h-1.25a1,1,0,0,1-1-1V13.14874" fill="none" stroke="#323232" stroke-linecap="round" stroke-linejoin="round" stroke-width="1.5"/><path d="M10.375,13.14874,8.42974,11.79833A1,1,0,0,1,8,10.97687V9.5a1,1,0,0,1,1-1h6a1,1,0,0,1,1,1v1.47687a1,1,0,0,1-.42974.82146L13.625,13.14874" fill="none" stroke="#323232" stroke-linecap="round" stroke-linejoin="round" stroke-width="1.5"/><rect x="3" y="3" width="18" height="18" rx="8.99999" stroke-width="1.5" stroke="#323232" stroke-linecap="round" stroke-linejoin="round" fill="none"/></svg>