<svg xmlns="http://www.w3.org/2000/svg" viewBox="0 0 24 24"><path d="M10,13.5v2.75a1.25,1.25,0,0,0,1.25,1.25h1.5A1.25,1.25,0,0,0,14,16.25V13.5l2.4-1.8a1.5,1.5,0,0,0,.6-1.2V9a1.5,1.5,0,0,0-1.5-1.5h-7A1.5,1.5,0,0,0,7,9v1.5a1.5,1.5,0,0,0,.6,1.2Z" fill="none" stroke="#323232" stroke-linecap="round" stroke-linejoin="round" stroke-width="1.5"/><rect x="3" y="3" width="18" height="18" rx="5" stroke-width="1.5" stroke="#323232" stroke-linecap="round" stroke-linejoin="round" fill="none"/><path d="M24,24H0V0H24Z" fill="none"/></svg>