<?xml version="1.0" encoding="UTF-8"?><svg version="1.1" viewBox="0 0 24 24" xmlns="http://www.w3.org/2000/svg" xmlns:xlink="http://www.w3.org/1999/xlink"><g stroke-linecap="round" stroke-width="1.5" stroke="#323232" fill="none" stroke-linejoin="round"><path d="M6.399 8.343c3.124-3.124 8.19-3.124 11.314 0"></path><path d="M14.667 16.667c-1.473 0-2.667-1.194-2.667-2.667"></path><path d="M18 21h-12c-1.657 0-3-1.343-3-3v-12c0-1.657 1.343-3 3-3h12c1.657 0 3 1.343 3 3v12c0 1.657-1.343 3-3 3Z"></path><path d="M11.23 18c-1.123-.972-1.841-2.396-1.841-4 0-1.473 1.194-2.667 2.667-2.667 1.473 0 2.667 1.194 2.667 2.667"></path><path d="M7.797 18c-.682-1.177-1.075-2.542-1.075-4 0-2.946 2.388-5.333 5.333-5.333 2.945 0 5.333 2.388 5.333 5.333"></path></g><path fill="none" d="M0 0h24v24h-24Z"></path></svg>