<?xml version="1.0" encoding="UTF-8"?><svg version="1.1" viewBox="0 0 24 24" xmlns="http://www.w3.org/2000/svg" xmlns:xlink="http://www.w3.org/1999/xlink"><g stroke-linecap="round" stroke-width="1.5" stroke="#323232" fill="none" stroke-linejoin="round"><path d="M19 21h-14c-1.105 0-2-.895-2-2v-14c0-1.105.895-2 2-2h14c1.105 0 2 .895 2 2v14c0 1.105-.895 2-2 2Z"></path><path d="M14.549 10.333l1.451-2.312c.279-.444-.04-1.021-.565-1.021h-6.768c-.369 0-.667.298-.667.667v6h7.435c.524 0 .843-.577.565-1.021l-1.451-2.313Z"></path><line x1="8" x2="8" y1="17.67" y2="13.67"></line></g><rect width="24" height="24" fill="none"></rect></svg>