<svg xmlns="http://www.w3.org/2000/svg" viewBox="0 0 24 24"><path d="M3.87869,5.12132,5.12133,3.87868A3,3,0,0,1,7.24265,3H18a3,3,0,0,1,3,3V18a3,3,0,0,1-3,3H6a3,3,0,0,1-3-3V7.24264A3,3,0,0,1,3.87869,5.12132Z" fill="none" stroke="#323232" stroke-linecap="round" stroke-linejoin="round" stroke-width="1.5"/><path d="M16,3V7a1,1,0,0,1-1,1H9A1,1,0,0,1,8,7V3" fill="none" stroke="#323232" stroke-linecap="round" stroke-linejoin="round" stroke-width="1.5"/><circle cx="12.00001" cy="14.5" r="3" fill="none" stroke="#323232" stroke-linecap="round" stroke-linejoin="round" stroke-width="1.5"/><path d="M24,24V0H0V24Z" fill="none"/></svg>