<svg xmlns="http://www.w3.org/2000/svg" viewBox="0 0 24 24"><path d="M0,0H24V24H0Z" fill="none"/><path d="M15.75736,3H6A3,3,0,0,0,3.00008,6.02229L3.0966,19.015A1.99986,1.99986,0,0,0,5.0964,21H19a2,2,0,0,0,2-2V8.24264a3,3,0,0,0-.87868-2.12132L17.87868,3.87868A3,3,0,0,0,15.75736,3Z" fill="none" stroke="#323232" stroke-linecap="round" stroke-linejoin="round" stroke-width="1.5"/><path d="M7,21V14.286A1.286,1.286,0,0,1,8.286,13h7.429A1.285,1.285,0,0,1,17,14.285V21" fill="none" stroke="#323232" stroke-linecap="round" stroke-linejoin="round" stroke-width="1.5"/><path d="M16,7.909H8" fill="none" stroke="#323232" stroke-linecap="round" stroke-linejoin="round" stroke-width="1.5"/></svg>