<?xml version="1.0" encoding="UTF-8"?><svg version="1.1" viewBox="0 0 24 24" xmlns="http://www.w3.org/2000/svg" xmlns:xlink="http://www.w3.org/1999/xlink"><g fill="none"><path d="M0 0h24v24h-24v-24Z"></path><path stroke="#323232" stroke-linecap="round" stroke-linejoin="round" stroke-width="1.5" d="M10.333 17v-5.556c0-.613.498-1.111 1.111-1.111h2.222"></path><path stroke="#323232" stroke-linecap="round" stroke-linejoin="round" stroke-width="1.5" d="M18 21h-12c-1.657 0-3-1.343-3-3v-12c0-1.657 1.343-3 3-3h12c1.657 0 3 1.343 3 3v12c0 1.657-1.343 3-3 3Z"></path><path stroke="#323232" stroke-linecap="round" stroke-linejoin="round" stroke-width="1.5" d="M13.667 17v-8.889c0-.613.497-1.111 1.111-1.111h1.111c.613 0 1.111.498 1.111 1.111v7.778c0 .613-.498 1.111-1.111 1.111h-7.778c-.613 0-1.111-.498-1.111-1.111v-1.111c0-.613.498-1.111 1.111-1.111h2.222"></path></g></svg>