<?xml version="1.0" encoding="UTF-8"?><svg version="1.1" viewBox="0 0 24 24" xmlns="http://www.w3.org/2000/svg" xmlns:xlink="http://www.w3.org/1999/xlink"><g fill="none"><path d="M0 0h24v24h-24v-24Z"></path><path stroke="#323232" stroke-linecap="round" stroke-linejoin="round" stroke-width="1.5" d="M14.827 21h-5.654c-3.314 0-6-2.686-6-6v-6c0-3.314 2.686-6 6-6h5.653c3.314 0 6 2.686 6 6v6c.001 3.314-2.686 6-5.999 6Z"></path><path stroke="#323232" stroke-linecap="round" stroke-linejoin="round" stroke-width="1.5" d="M19 12h1.83"></path><path stroke="#323232" stroke-linecap="round" stroke-linejoin="round" stroke-width="1.5" d="M5 12h-1.83"></path><path stroke="#323232" stroke-linecap="round" stroke-linejoin="round" stroke-width="1.5" d="M12 19v2"></path><path stroke="#323232" stroke-linecap="round" stroke-linejoin="round" stroke-width="1.5" d="M12 5v-2"></path><path stroke="#323232" stroke-linecap="round" stroke-linejoin="round" stroke-width="1.5" d="M8 12c0 0 1.499 0 2.75 1.25 1.251 1.25 1.25 2.75 1.25 2.75"></path><path stroke="#323232" stroke-linecap="round" stroke-linejoin="round" stroke-width="1.5" d="M16 12c0 0-1.499 0-2.75-1.25 -1.251-1.25-1.25-2.75-1.25-2.75"></path><path stroke="#323232" stroke-linecap="round" stroke-linejoin="round" stroke-width="1.5" d="M12 16c0 0 0-1.499 1.25-2.75 1.25-1.251 2.75-1.25 2.75-1.25"></path><path stroke="#323232" stroke-linecap="round" stroke-linejoin="round" stroke-width="1.5" d="M12 8c0 0 0 1.499-1.25 2.75 -1.25 1.251-2.75 1.25-2.75 1.25"></path></g></svg>