<?xml version="1.0" encoding="UTF-8"?><svg version="1.1" viewBox="0 0 24 24" xmlns="http://www.w3.org/2000/svg" xmlns:xlink="http://www.w3.org/1999/xlink"><g stroke-linecap="round" stroke-width="1.5" stroke="#323232" fill="none" stroke-linejoin="round"><path d="M16 21h-8c-2.761 0-5-2.239-5-5v-8c0-2.761 2.239-5 5-5h8c2.761 0 5 2.239 5 5v8c0 2.761-2.239 5-5 5Z"></path><path d="M17.17 15v-3.177c0-2.855-2.315-5.17-5.17-5.17v0c-2.855 0-5.17 2.315-5.17 5.17v3.177"></path><path d="M8.415 17v0c-.875 0-1.585-.71-1.585-1.585v-1.426c0-.875.71-1.585 1.585-1.585v0c.875 0 1.585.71 1.585 1.585v1.426c0 .875-.71 1.585-1.585 1.585Z"></path><path d="M15.585 17v0c-.875 0-1.585-.71-1.585-1.585v-1.426c0-.875.71-1.585 1.585-1.585v0c.875 0 1.585.71 1.585 1.585v1.426c0 .875-.71 1.585-1.585 1.585Z"></path></g><path fill="none" d="M0 0h24v24h-24v-24Z"></path></svg>