<svg xmlns="http://www.w3.org/2000/svg" viewBox="0 0 24 24"><rect width="24" height="24" fill="none"/><path d="M21,17.75V12a9,9,0,0,0-9-9h0a9,9,0,0,0-9,9v5.75" fill="none" stroke="#323232" stroke-linecap="round" stroke-linejoin="round" stroke-width="1.5"/><path d="M18.75,13H19a2,2,0,0,1,2,2v4a2,2,0,0,1-2,2h-.25a3.25,3.25,0,0,1-3.25-3.25v-1.5A3.25,3.25,0,0,1,18.75,13Z" transform="translate(36.5 34) rotate(180)" fill="none" stroke="#323232" stroke-linecap="round" stroke-linejoin="round" stroke-width="1.5"/><path d="M6.25,13H6.5a2,2,0,0,1,2,2v4a2,2,0,0,1-2,2H6.25A3.25,3.25,0,0,1,3,17.75v-1.5A3.25,3.25,0,0,1,6.25,13Z" fill="none" stroke="#323232" stroke-linecap="round" stroke-linejoin="round" stroke-width="1.5"/></svg>