<svg xmlns="http://www.w3.org/2000/svg" viewBox="0 0 24 24"><path d="M21,19V12a9,9,0,0,0-9-9h0a9,9,0,0,0-9,9v7" fill="none" stroke="#323232" stroke-linecap="round" stroke-linejoin="round" stroke-width="1.5"/><path d="M17.5,13h1.25A2.25,2.25,0,0,1,21,15.25v3.5A2.25,2.25,0,0,1,18.75,21H17.5a2,2,0,0,1-2-2V15A2,2,0,0,1,17.5,13Z" transform="translate(36.5 34) rotate(180)" fill="none" stroke="#323232" stroke-linecap="round" stroke-linejoin="round" stroke-width="1.5"/><path d="M5,13H6.25A2.25,2.25,0,0,1,8.5,15.25v3.5A2.25,2.25,0,0,1,6.25,21H5a2,2,0,0,1-2-2V15A2,2,0,0,1,5,13Z" fill="none" stroke="#323232" stroke-linecap="round" stroke-linejoin="round" stroke-width="1.5"/></svg>