<svg xmlns="http://www.w3.org/2000/svg" viewBox="0 0 24 24"><path d="M15.15,13h.7A1.15,1.15,0,0,1,17,14.15v1.7A1.15,1.15,0,0,1,15.85,17H14.5a.5.5,0,0,1-.5-.5V14.15A1.15,1.15,0,0,1,15.15,13Z" transform="translate(31 30) rotate(180)" fill="none" stroke="#323232" stroke-linecap="round" stroke-linejoin="round" stroke-width="1.5"/><path d="M17,15.85V12a5,5,0,0,0-5-5h0a5,5,0,0,0-5,5v3.85" fill="none" stroke="#323232" stroke-linecap="round" stroke-linejoin="round" stroke-width="1.5"/><rect x="3" y="3" width="18" height="18" rx="5" stroke-width="1.5" stroke="#323232" stroke-linecap="round" stroke-linejoin="round" fill="none"/><path d="M7.5,13H8.85A1.15,1.15,0,0,1,10,14.15v1.7A1.15,1.15,0,0,1,8.85,17h-.7A1.15,1.15,0,0,1,7,15.85V13.5a.5.5,0,0,1,.5-.5Z" fill="none" stroke="#323232" stroke-linecap="round" stroke-linejoin="round" stroke-width="1.5"/><rect width="24" height="24" fill="none"/></svg>