<svg xmlns="http://www.w3.org/2000/svg" viewBox="0 0 24 24"><path d="M18,14h1a2,2,0,0,1,2,2v3a2,2,0,0,1-2,2H17.25A1.25,1.25,0,0,1,16,19.75V16A2,2,0,0,1,18,14Z" transform="translate(37 35) rotate(180)" fill="none" stroke="#323232" stroke-linecap="round" stroke-linejoin="round" stroke-width="1.5"/><path d="M21,19V12a9,9,0,0,0-9-9h0a9,9,0,0,0-9,9v7" fill="none" stroke="#323232" stroke-linecap="round" stroke-linejoin="round" stroke-width="1.5"/><path d="M4.5,14H6a2,2,0,0,1,2,2v3a2,2,0,0,1-2,2H5a2,2,0,0,1-2-2V15.5A1.5,1.5,0,0,1,4.5,14Z" fill="none" stroke="#323232" stroke-linecap="round" stroke-linejoin="round" stroke-width="1.5"/><path d="M24,0V24H0V0Z" fill="none"/></svg>