<svg xmlns="http://www.w3.org/2000/svg" viewBox="0 0 24 24"><path d="M6.72471,19.27047a8.95146,8.95146,0,0,1-1.56127-1.43733" fill="none" stroke="#323232" stroke-linecap="round" stroke-linejoin="round" stroke-width="1.5"/><path d="M9.38147,3.38988a8.98983,8.98983,0,0,1,7.61645,1.12747" fill="none" stroke="#323232" stroke-linecap="round" stroke-linejoin="round" stroke-width="1.5"/><path d="M3.00445,11.99586a8.95171,8.95171,0,0,0,.52276,2.9986" fill="none" stroke="#323232" stroke-linecap="round" stroke-linejoin="round" stroke-width="1.5"/><path d="M19.45977,6.9982A8.97781,8.97781,0,0,1,9.38147,20.60185" fill="none" stroke="#323232" stroke-linecap="round" stroke-linejoin="round" stroke-width="1.5"/><path d="M3.52921,8.99726a9.01985,9.01985,0,0,1,3.1955-4.277" fill="none" stroke="#323232" stroke-linecap="round" stroke-linejoin="round" stroke-width="1.5"/><path d="M16.16212,9.33842l.0005.00049a2.87136,2.87136,0,0,1-.15337,4.19648l-2.9754,2.57892a1.57851,1.57851,0,0,1-2.06772,0L7.99072,13.53539a2.87136,2.87136,0,0,1-.15336-4.19647h0a2.85084,2.85084,0,0,1,3.88667-.142L12,9.43606l.27648-.23964A2.85008,2.85008,0,0,1,16.16212,9.33842Z" fill="none" stroke="#323232" stroke-linecap="round" stroke-linejoin="round" stroke-width="1.5"/></svg>