<svg xmlns="http://www.w3.org/2000/svg" viewBox="0 0 24 24"><path d="M0,0H24V24H0Z" fill="none"/><path d="M19.786,11.07507a5.15292,5.15292,0,0,0-1.292-5.06368h0a5.12814,5.12814,0,0,0-6.99629-.25654L11,6.18627l-.49775-.43143A5.12814,5.12814,0,0,0,3.506,6.01138h0a5.17269,5.17269,0,0,0,.275,7.554L10.34638,19.256a.99729.99729,0,0,0,1.30724,0L14.18,17.06621" fill="none" stroke="#323232" stroke-linecap="round" stroke-linejoin="round" stroke-width="1.5"/><path d="M21.16209,11.83841l.0005.0005a2.87136,2.87136,0,0,1-.15337,4.19647l-2.9754,2.57892a1.5785,1.5785,0,0,1-2.06773,0l-2.9754-2.57892a2.87136,2.87136,0,0,1-.15337-4.19647h0a2.85085,2.85085,0,0,1,3.88667-.142l.276.23919.27648-.23964A2.85008,2.85008,0,0,1,21.16209,11.83841Z" fill="none" stroke="#323232" stroke-linecap="round" stroke-linejoin="round" stroke-width="1.5"/></svg>