<svg xmlns="http://www.w3.org/2000/svg" viewBox="0 0 24 24"><path d="M8,3H6A3,3,0,0,0,3,6V8" fill="none" stroke="#323232" stroke-linecap="round" stroke-linejoin="round" stroke-width="1.5"/><path d="M8,21H6a3,3,0,0,1-3-3V16" fill="none" stroke="#323232" stroke-linecap="round" stroke-linejoin="round" stroke-width="1.5"/><path d="M21,8V6a3,3,0,0,0-3-3H16" fill="none" stroke="#323232" stroke-linecap="round" stroke-linejoin="round" stroke-width="1.5"/><path d="M21,16v2a3,3,0,0,1-3,3H16" fill="none" stroke="#323232" stroke-linecap="round" stroke-linejoin="round" stroke-width="1.5"/><path d="M16.16211,9.33842l.0005.00049a2.87137,2.87137,0,0,1-.15337,4.19648l-2.9754,2.57892a1.57852,1.57852,0,0,1-2.06773,0l-2.9754-2.57892a2.87136,2.87136,0,0,1-.15337-4.19647h0a2.85084,2.85084,0,0,1,3.88667-.142L12,9.43606l.27649-.23964A2.85008,2.85008,0,0,1,16.16211,9.33842Z" fill="none" stroke="#323232" stroke-linecap="round" stroke-linejoin="round" stroke-width="1.5"/></svg>