<svg xmlns="http://www.w3.org/2000/svg" viewBox="0 0 24 24"><path d="M13.5,16.75v-4a.25.25,0,0,0-.25-.25h-2.5a.25.25,0,0,0-.25.25v4a.25.25,0,0,1-.25.25H7.75A.75.75,0,0,1,7,16.25V10.73742a1.5,1.5,0,0,1,.5759-1.18154l3.5-2.73742a1.5,1.5,0,0,1,1.84821,0l3.5,2.73741A1.5,1.5,0,0,1,17,10.73741V16.25a.75.75,0,0,1-.75.75h-2.5A.25.25,0,0,1,13.5,16.75Z" fill="none" stroke="#323232" stroke-linecap="round" stroke-linejoin="round" stroke-width="1.5"/><rect x="3" y="3" width="18" height="18" rx="5" stroke-width="1.5" stroke="#323232" stroke-linecap="round" stroke-linejoin="round" fill="none"/></svg>