<?xml version="1.0" encoding="UTF-8"?><svg version="1.1" viewBox="0 0 24 24" xmlns="http://www.w3.org/2000/svg" xmlns:xlink="http://www.w3.org/1999/xlink"><g fill="none"><path d="M0 0h24v24h-24Z"></path><path stroke="#323232" stroke-linecap="round" stroke-linejoin="round" stroke-width="1.5" d="M7.5 14.5v-3.50624l-8.74318e-10-2.79836e-05c-1.94075e-08-.12853.0549604-.250926.151021-.336321l3.751-3.33426 9.94396e-09-8.83914e-09c.340998-.303112.854862-.303112 1.19586 9.26397e-09l3.751 3.33426 2.7103e-08 2.40968e-08c.0960552.085401.151008.2078.151.33633v3.50626 0c0 .552285-.447715 1-1 1h-7l-3.02351e-08-3.60068e-12c-.552238-6.57902e-05-.999881-.447762-.999881-1Z"></path><circle cx="12" cy="12" r="9" stroke="#323232" stroke-linecap="round" stroke-linejoin="round" stroke-width="1.5"></circle></g></svg>