<svg xmlns="http://www.w3.org/2000/svg" viewBox="0 0 24 24"><path d="M12,21H8a5,5,0,0,1-5-5V11.2A5,5,0,0,1,4.87653,7.2957l4-3.2a5,5,0,0,1,6.247,0l4,3.2A5.00006,5.00006,0,0,1,21,11.2V13" fill="none" stroke="#323232" stroke-linecap="round" stroke-linejoin="round" stroke-width="1.5"/><path d="M0,0H24V24H0Z" fill="none"/><path d="M16,14l-2,2,2,2" fill="none" stroke="#323232" stroke-linecap="round" stroke-linejoin="round" stroke-width="1.5"/><path d="M14,16h4.5A2.5,2.5,0,0,1,21,18.5h0A2.5,2.5,0,0,1,18.5,21H16" fill="none" stroke="#323232" stroke-linecap="round" stroke-linejoin="round" stroke-width="1.5"/></svg>