<svg xmlns="http://www.w3.org/2000/svg" viewBox="0 0 24 24"><path d="M0,0H24V24H0Z" fill="none"/><path d="M3,16.5V10.95971a4.5,4.5,0,0,1,1.68885-3.5139L8.8765,4.09567a5,5,0,0,1,6.247,0l4.18765,3.35013A4.5,4.5,0,0,1,21,10.9597V16.5A4.5,4.5,0,0,1,16.5,21h-9A4.5,4.5,0,0,1,3,16.5Z" fill="none" stroke="#323232" stroke-linecap="round" stroke-linejoin="round" stroke-width="1.5"/><path d="M8.67029,10.67071l-.0004.0004a2.29707,2.29707,0,0,0,.12269,3.35715l2.583,2.23881a.95331.95331,0,0,0,1.24876,0l2.58314-2.23892a2.29691,2.29691,0,0,0,.12268-3.35691h0a2.28076,2.28076,0,0,0-3.109-.114L12,10.74883l-.22118-.19171A2.28,2.28,0,0,0,8.67029,10.67071Z" fill="none" stroke="#323232" stroke-linecap="round" stroke-linejoin="round" stroke-width="1.5"/></svg>