<?xml version="1.0" encoding="UTF-8"?><svg version="1.1" viewBox="0 0 24 24" xmlns="http://www.w3.org/2000/svg" xmlns:xlink="http://www.w3.org/1999/xlink"><g stroke-linecap="round" stroke-width="1.5" stroke="#323232" fill="none" stroke-linejoin="round"><path d="M18.364 5.63604c3.51472 3.51472 3.51472 9.2132 0 12.7279 -3.51472 3.51472-9.2132 3.51472-12.7279 0 -3.51472-3.51472-3.51472-9.2132-1.77636e-15-12.7279 3.51472-3.51472 9.2132-3.51472 12.7279-1.77636e-15"></path><path d="M15.664 9.404l-3.091-2.164c-.344-.241-.803-.241-1.147 0l-3.09 2.163c-.268.187-.427.493-.427.82v4.777c0 .552.448 1 1 1h6.182c.552 0 1-.448 1-1v-4.777c0-.326-.159-.632-.427-.819Z"></path></g><path fill="none" d="M0 0h24v24h-24v-24Z"></path></svg>