<svg xmlns="http://www.w3.org/2000/svg" viewBox="0 0 24 24"><path d="M13.5,16V13.27113a.75.75,0,0,0-.75-.75h-1.5a.75.75,0,0,0-.75.75V16a.25.25,0,0,1-.25.25H7.75A.75.75,0,0,1,7,15.5V10.48742a1.5,1.5,0,0,1,.5759-1.18154l3.5-2.73742a1.5,1.5,0,0,1,1.84821,0l3.5,2.73741A1.5,1.5,0,0,1,17,10.48741V15.5a.75.75,0,0,1-.75.75h-2.5A.25.25,0,0,1,13.5,16Z" fill="none" stroke="#323232" stroke-linecap="round" stroke-linejoin="round" stroke-width="1.5"/><circle cx="12" cy="12" r="9.5" fill="none" stroke="#323232" stroke-linecap="round" stroke-linejoin="round" stroke-width="1.5"/></svg>