<svg xmlns="http://www.w3.org/2000/svg" viewBox="0 0 24 24"><path d="M0,0H24V24H0Z" fill="none"/><path d="M3,16.5V10.95971a4.5,4.5,0,0,1,1.68885-3.5139L8.8765,4.09567a5,5,0,0,1,6.247,0l4.18765,3.35013A4.5,4.5,0,0,1,21,10.9597V16.5A4.5,4.5,0,0,1,16.5,21h-9A4.5,4.5,0,0,1,3,16.5Z" fill="none" stroke="#323232" stroke-linecap="round" stroke-linejoin="round" stroke-width="1.5"/><path d="M12.005,13.495,12,13.5l-.005-.005L12,13.49l.005.005" fill="none" stroke="#323232" stroke-linecap="round" stroke-linejoin="round" stroke-width="1.5"/><path d="M15.005,13.495,15,13.5l-.005-.005L15,13.49l.005.005" fill="none" stroke="#323232" stroke-linecap="round" stroke-linejoin="round" stroke-width="1.5"/><path d="M9.005,13.495,9,13.5l-.005-.005L9,13.49l.005.005" fill="none" stroke="#323232" stroke-linecap="round" stroke-linejoin="round" stroke-width="1.5"/></svg>