<svg xmlns="http://www.w3.org/2000/svg" viewBox="0 0 24 24"><path d="M12.0327,6.59733,15.15741,3.5658a2,2,0,0,1,3.32454.91783l2.44785,9.13551a2,2,0,0,1-2.42026,2.45713l-4.22183-1.06312" fill="none" stroke="#323232" stroke-linecap="round" stroke-linejoin="round" stroke-width="1.5"/><path d="M6.66862,7.76437h6.66477a0,0,0,0,1,0,0v8.7127a0,0,0,0,1,0,0H6.66862a3.5,3.5,0,0,1-3.5-3.5V11.26441A3.5,3.5,0,0,1,6.66862,7.76437Z" transform="translate(-2.85593 2.54852) rotate(-15)" fill="none" stroke="#323232" stroke-linecap="round" stroke-linejoin="round" stroke-width="1.5"/><path d="M12.407,15.51715l.77051,2.87567a2,2,0,0,1-1.41425,2.44947l-.33227.08905a2,2,0,0,1-2.44952-1.41419l-.77051-2.87567" fill="none" stroke="#323232" stroke-linecap="round" stroke-linejoin="round" stroke-width="1.5"/></svg>