<?xml version="1.0" encoding="UTF-8"?><svg version="1.1" viewBox="0 0 24 24" xmlns="http://www.w3.org/2000/svg" xmlns:xlink="http://www.w3.org/1999/xlink"><g stroke-linecap="round" stroke-width="1.5" stroke="#323232" fill="none" stroke-linejoin="round"><path d="M13.998 15l-6.998-.002c-2.209 0-4-1.792-4-4.002v-.997c0-2.21 1.791-4.001 4.001-4.001h6.998l3.872-2.646c1.328-.907 3.129.044 3.129 1.652v10.992c0 1.608-1.802 2.559-3.129 1.651l-3.873-2.647Z"></path><line x1="14" x2="14" y1="6" y2="15"></line><path d="M6 15l1.529 3.858c.273.69.935 1.142 1.67 1.142v0c1.271 0 2.141-1.294 1.672-2.487l-.989-2.513"></path></g><path fill="none" d="M0 0h24v24h-24v-24Z"></path></svg>