<svg xmlns="http://www.w3.org/2000/svg" viewBox="0 0 24 24"><path d="M0,0H24V24H0Z" fill="none"/><rect x="3" y="3" width="18" height="18" rx="5" stroke-width="1.5" stroke="#323232" stroke-linecap="round" stroke-linejoin="round" fill="none"/><path d="M9,13.5h3a0,0,0,0,1,0,0v2A1.5,1.5,0,0,1,10.5,17h0A1.5,1.5,0,0,1,9,15.5v-2A0,0,0,0,1,9,13.5Z" fill="none" stroke="#323232" stroke-linecap="round" stroke-linejoin="round" stroke-width="1.5"/><path d="M13,8.49967l2.52089-1.376A1,1,0,0,1,17,8.00143v5.99714a1,1,0,0,1-1.47911.87775L13,13.50033" fill="none" stroke="#323232" stroke-linecap="round" stroke-linejoin="round" stroke-width="1.5"/><path d="M9,8.5h4a0,0,0,0,1,0,0v5a0,0,0,0,1,0,0H9a2,2,0,0,1-2-2v-1A2,2,0,0,1,9,8.5Z" fill="none" stroke="#323232" stroke-linecap="round" stroke-linejoin="round" stroke-width="1.5"/></svg>