<svg xmlns="http://www.w3.org/2000/svg" viewBox="0 0 24 24"><rect width="24" height="24" fill="none"/><path d="M13.5,6l4.02635-2.24406A2,2,0,0,1,20.5,5.50287v9.99426a2,2,0,0,1-2.9737,1.747L13.5,15" fill="none" stroke="#323232" stroke-linecap="round" stroke-linejoin="round" stroke-width="1.5"/><path d="M11.5,15v4a2,2,0,0,1-2,2H9a2,2,0,0,1-2-2V15" fill="none" stroke="#323232" stroke-linecap="round" stroke-linejoin="round" stroke-width="1.5"/><path d="M6.5,6h7a0,0,0,0,1,0,0v9a0,0,0,0,1,0,0h-7A3.5,3.5,0,0,1,3,11.5v-2A3.5,3.5,0,0,1,6.5,6Z" fill="none" stroke="#323232" stroke-linecap="round" stroke-linejoin="round" stroke-width="1.5"/></svg>