<svg xmlns="http://www.w3.org/2000/svg" viewBox="0 0 24 24"><path d="M6.5,6h7a0,0,0,0,1,0,0v9a0,0,0,0,1,0,0h-7A3.5,3.5,0,0,1,3,11.5v-2A3.5,3.5,0,0,1,6.5,6Z" fill="none" stroke="#323232" stroke-linecap="round" stroke-linejoin="round" stroke-width="1.5"/><path d="M13.5,6l4.02635-2.24406A2,2,0,0,1,20.5,5.50287v9.99426a2,2,0,0,1-2.9737,1.747L13.5,15" fill="none" stroke="#323232" stroke-linecap="round" stroke-linejoin="round" stroke-width="1.5"/><path d="M6,14.96515,7.86634,19.631A2.17782,2.17782,0,0,0,9.88839,21h0a2.17782,2.17782,0,0,0,2.02205-2.98663L10.7051,15" fill="none" stroke="#323232" stroke-linecap="round" stroke-linejoin="round" stroke-width="1.5"/><rect width="24" height="24" fill="none"/></svg>