<svg xmlns="http://www.w3.org/2000/svg" viewBox="0 0 24 24"><path d="M0,0H24V24H0Z" fill="none"/><path d="M8.5,13.75h3a0,0,0,0,1,0,0v2a1.5,1.5,0,0,1-1.5,1.5h0a1.5,1.5,0,0,1-1.5-1.5v-2A0,0,0,0,1,8.5,13.75Z" fill="none" stroke="#323232" stroke-linecap="round" stroke-linejoin="round" stroke-width="1.5"/><path d="M12.5,8.74966l2.52089-1.376A1,1,0,0,1,16.5,8.25142v5.99714a1,1,0,0,1-1.47911.87776L12.5,13.75032" fill="none" stroke="#323232" stroke-linecap="round" stroke-linejoin="round" stroke-width="1.5"/><path d="M8.5,8.75h4a0,0,0,0,1,0,0v5a0,0,0,0,1,0,0h-4a2,2,0,0,1-2-2v-1A2,2,0,0,1,8.5,8.75Z" fill="none" stroke="#323232" stroke-linecap="round" stroke-linejoin="round" stroke-width="1.5"/><circle cx="12" cy="12" r="9.5" fill="none" stroke="#323232" stroke-linecap="round" stroke-linejoin="round" stroke-width="1.5"/></svg>