<svg xmlns="http://www.w3.org/2000/svg" viewBox="0 0 24 24"><path d="M15,17H9a1,1,0,0,1-1-1V14.85092a1,1,0,0,1,.21911-.62467L10,12,8.219,9.77268A1,1,0,0,1,8,9.14816V8A1,1,0,0,1,9,7h6a1,1,0,0,1,1,1V9.14922a1,1,0,0,1-.21913.62469L14,12l1.78087,2.22609A1,1,0,0,1,16,14.85078V16A1,1,0,0,1,15,17Z" fill="none" stroke="#323232" stroke-linecap="round" stroke-linejoin="round" stroke-width="1.5"/><rect x="3" y="3" width="18" height="18" rx="5" stroke-width="1.5" stroke="#323232" stroke-linecap="round" stroke-linejoin="round" fill="none"/></svg>