<?xml version="1.0" encoding="UTF-8"?><svg version="1.1" viewBox="0 0 24 24" xmlns="http://www.w3.org/2000/svg" xmlns:xlink="http://www.w3.org/1999/xlink"><g stroke-linecap="round" stroke-width="1.5" stroke="#323232" fill="none" stroke-linejoin="round"><path d="M11.677 7.323l2.20687e-09 2.21245e-09c.0975076.0977544.0973075.256046-.000446896.353553 -.0977544.0975076-.256046.0973075-.353553-.000446896 -.0973333-.0975797-.0973333-.255527 4.41373e-09-.353106l-1.76416e-08 1.76863e-08c.0975076-.0977544.255799-.0979545.353553-.000446927 .000149152.000148776.000298116.00029774.000446892.000446892"></path><path d="M21 8.53l7.05124e-07 1.08357e-07c-4.05477-.623103-7.84694 2.15882-8.47005 6.21359 -.0603217.392536-.0890654.789278-.0859546 1.18641l-8.46484e-08-1.07812e-05c.00281271.358275.031554.715876.0859985 1.07"></path><path d="M7 7h-1l-1.31134e-07 3.55271e-15c-1.65685 7.24234e-08-3 1.34315-3 3 0 0 0 1.77636e-15 0 1.77636e-15v8l3.37508e-14-4.52987e-07c-2.50178e-07 1.65685 1.34315 3 3 3h8l-1.31134e-07-3.55271e-15c1.65685 7.24234e-08 3-1.34315 3-3 0 0 0 0 0 0v-1"></path><path d="M18 3h-8l-1.31134e-07 3.55271e-15c-1.65685 7.24234e-08-3 1.34315-3 3 0 0 0 1.77636e-15 0 1.77636e-15v8l3.37508e-14 4.52987e-07c2.50178e-07 1.65685 1.34315 3 3 3h8l-1.31134e-07-3.55271e-15c1.65685 7.24234e-08 3-1.34315 3-3v-8l-3.55271e-15-3.4639e-14c0-1.65685-1.34315-3-3-3 -1.52936e-07 0-3.00052e-07 1.11022e-14-4.52987e-07 3.41949e-14Z"></path></g><rect width="24" height="24" fill="none"></rect></svg>