<svg xmlns="http://www.w3.org/2000/svg" viewBox="0 0 24 24"><path d="M13.67028,3.67072l-.0004.00039a2.29707,2.29707,0,0,0,.12269,3.35715l2.583,2.23881a.95331.95331,0,0,0,1.24876,0l2.58314-2.23892a2.29691,2.29691,0,0,0,.12268-3.35691h0a2.28077,2.28077,0,0,0-3.109-.114l-.22116.1916-.22118-.19171A2.28,2.28,0,0,0,13.67028,3.67072Z" fill="none" stroke="#323232" stroke-linecap="round" stroke-linejoin="round" stroke-width="1.5"/><line x1="15.99999" y1="15" x2="7.99999" y2="15" fill="none" stroke="#323232" stroke-linecap="round" stroke-linejoin="round" stroke-width="1.5"/><line x1="7.99999" y1="11" x2="11.99999" y2="11" fill="none" stroke="#323232" stroke-linecap="round" stroke-linejoin="round" stroke-width="1.5"/><path d="M10,2.715A9.50378,9.50378,0,1,0,21.44653,11" fill="none" stroke="#323232" stroke-linecap="round" stroke-linejoin="round" stroke-width="1.5"/></svg>