<svg xmlns="http://www.w3.org/2000/svg" viewBox="0 0 24 24"><path d="M24,0V24H0V0Z" fill="none"/><path d="M13.67029,3.67072l-.0004.0004a2.29706,2.29706,0,0,0,.12269,3.35714l2.583,2.23882a.95331.95331,0,0,0,1.24876,0l2.58314-2.23893a2.29689,2.29689,0,0,0,.12268-3.3569h0a2.28076,2.28076,0,0,0-3.109-.114L17,3.74884l-.22118-.19172A2.28005,2.28005,0,0,0,13.67029,3.67072Z" fill="none" stroke="#323232" stroke-linecap="round" stroke-linejoin="round" stroke-width="1.5"/><path d="M21,11v5a5,5,0,0,1-5,5H8a5,5,0,0,1-5-5V8A5,5,0,0,1,8,3h2" fill="none" stroke="#323232" stroke-linecap="round" stroke-linejoin="round" stroke-width="1.5"/></svg>