<svg xmlns="http://www.w3.org/2000/svg" viewBox="0 0 24 24"><path d="M24,0V24H0V0Z" fill="none"/><path d="M14.17029,3.17072l-.0004.0004a2.29706,2.29706,0,0,0,.12269,3.35714l2.583,2.23881a.9533.9533,0,0,0,1.24876,0l2.58314-2.23893a2.29689,2.29689,0,0,0,.12268-3.3569h0a2.28075,2.28075,0,0,0-3.109-.114L17.5,3.24883l-.22119-.19171A2.28005,2.28005,0,0,0,14.17029,3.17072Z" fill="none" stroke="#323232" stroke-linecap="round" stroke-linejoin="round" stroke-width="1.5"/><path d="M10,2.715A9.50378,9.50378,0,1,0,21.44653,11" fill="none" stroke="#323232" stroke-linecap="round" stroke-linejoin="round" stroke-width="1.5"/></svg>