<?xml version="1.0" encoding="UTF-8"?><svg version="1.1" viewBox="0 0 24 24" xmlns="http://www.w3.org/2000/svg" xmlns:xlink="http://www.w3.org/1999/xlink"><g fill="none"><path d="M0 0h24v24h-24v-24Z"></path><path stroke="#323232" stroke-linecap="round" stroke-linejoin="round" stroke-width="1.5" d="M13.678 8.614l-2.359 2.364c-.204.205-.319.483-.319.772v1.157c0 .604.489 1.093 1.093 1.093h1.162c.29 0 .568-.115.773-.321 0 0 2.354-2.359 2.354-2.359 .424.141.869.235 1.34.235 2.363.001 4.278-1.915 4.278-4.277 0-2.362-1.915-4.278-4.278-4.278 -2.363 0-4.278 1.915-4.278 4.278 1.77636e-15.47.095.913.234 1.336Z"></path><path stroke="#323232" stroke-linecap="round" stroke-linejoin="round" stroke-width="1.5" d="M21 14v3c0 2.209-1.791 4-4 4h-10c-2.209 0-4-1.791-4-4v-10c0-2.209 1.791-4 4-4h5"></path><path stroke="#323232" stroke-linecap="round" stroke-linejoin="round" stroke-width="1.5" d="M17.722 7.228c-.028 0-.05.022-.05.05 0 .028.022.05.05.05 .028 0 .05-.022.05-.05 0-.028-.022-.05-.05-.05"></path></g></svg>