<?xml version="1.0" encoding="UTF-8"?><svg version="1.1" viewBox="0 0 24 24" xmlns="http://www.w3.org/2000/svg" xmlns:xlink="http://www.w3.org/1999/xlink"><g stroke-linecap="round" stroke-width="1.5" stroke="#323232" fill="none" stroke-linejoin="round"><path d="M13.245 10.885c.069 0 .125-.056.125-.125 0-.069-.057-.125-.125-.125 -.069 0-.125.056-.125.125 0 .069.056.125.125.125"></path><path d="M10.155 11.741c-.355-1.123-.104-2.399.783-3.291 1.272-1.274 3.333-1.275 4.606-.002 1.273 1.273 1.275 3.34.006 4.616 -.892.894-2.169 1.148-3.294.788l-.007.006 -2.206 2.21c-.582.583-1.526.583-2.108 0 -.58-.581-.58-1.522 0-2.104l2.206-2.21"></path><path d="M12 21v0c-4.971 0-9-4.029-9-9v0c0-4.971 4.029-9 9-9v0c4.971 0 9 4.029 9 9v0c0 4.971-4.029 9-9 9Z"></path></g><path fill="none" d="M0 0h24v24h-24v-24Z"></path></svg>