<?xml version="1.0" encoding="UTF-8"?><svg version="1.1" viewBox="0 0 24 24" xmlns="http://www.w3.org/2000/svg" xmlns:xlink="http://www.w3.org/1999/xlink"><g stroke-linecap="round" stroke-width="1.5" stroke="#323232" fill="none" stroke-linejoin="round"><path d="M9.691 12.093l-1.93 1.934 1.84421e-08-1.85938e-08c-.166755.168127-.260531.395201-.261.632v.947l1.06581e-14 1.3499e-07c7.45531e-08.493743.400258.894.894.894h.951l-4.81956e-08-6.46452e-11c.237349.000318348.464947-.0943942.632-.263l1.926-1.93 2.66388e-07 9.32625e-08c.352754.123499.723277.188687 1.097.193l-6.36993e-08-1.04833e-09c1.96532.032344 3.58474-1.53464 3.61708-3.49995 .032344-1.96532-1.53464-3.58474-3.49995-3.61708 -1.96532-.032344-3.58474 1.53464-3.61708 3.49995 -.00677002.411366.0578383.820791.190954 1.21008Z"></path><path d="M13 10.959h-1.79217e-09c-.0226437 9.89786e-10-.041.0183563-.041.041 9.89786e-10.0226437.0183563.041.041.041 .0226437-9.89786e-10.041-.0183563.041-.041v1.79217e-09c0-.0226437-.0183563-.041-.041-.041"></path><circle cx="12" cy="12" r="9"></circle></g><path fill="none" d="M0 0h24v24h-24Z"></path></svg>