<?xml version="1.0" encoding="UTF-8"?><svg version="1.1" viewBox="0 0 24 24" xmlns="http://www.w3.org/2000/svg" xmlns:xlink="http://www.w3.org/1999/xlink"><g stroke-linecap="round" stroke-width="1.5" stroke="#323232" fill="none" stroke-linejoin="round"><path d="M14.4 8.9c-.2 0-.4.2-.4.4 0 .2.2.4.4.4 .2 0 .4-.2.4-.4 0-.2-.2-.4-.4-.4"></path><path d="M9.5 11.3l-.9-2c-.3-.8-.1-1.7.5-2.3l2.9-2.9c.6-.6 1.4-.7 2.2-.4l3.5 1.5c.5.2.9.6 1.1 1.1l1.5 3.5c.3.8.1 1.6-.4 2.2l-2.9 2.9c-.6.6-1.4.7-2.2.4l-2.1-.9c0 0-6 6-6 6h-3.2v-3.2l6-5.9Z"></path></g><path fill="none" d="M0 0h24v24h-24v-24Z"></path></svg>