<svg xmlns="http://www.w3.org/2000/svg" viewBox="0 0 24 24"><rect width="24" height="24" fill="none"/><line x1="8.40015" y1="15.5" x2="15.59955" y2="15.5" fill="none" stroke="#323232" stroke-linecap="round" stroke-linejoin="round" stroke-width="1.5"/><path d="M12,5.5a4,4,0,0,1,4,4" fill="none" stroke="#323232" stroke-linecap="round" stroke-linejoin="round" stroke-width="1.5"/><path d="M19,9.5h0a7,7,0,0,0-7-7h0a7,7,0,0,0-7,7H5" fill="none" stroke="#323232" stroke-linecap="round" stroke-linejoin="round" stroke-width="1.5"/><path d="M5,9.5a6.99574,6.99574,0,0,0,3.74792,6.19586V18.5a2.5,2.5,0,0,0,2.5,2.5h1.5a2.5,2.5,0,0,0,2.5-2.5V15.69788A6.99567,6.99567,0,0,0,19,9.5" fill="none" stroke="#323232" stroke-linecap="round" stroke-linejoin="round" stroke-width="1.5"/></svg>