<svg xmlns="http://www.w3.org/2000/svg" viewBox="0 0 24 24"><path d="M11.77388,8.65748,12,8.88707l.22613-.22962a2.18707,2.18707,0,0,1,3.12636,0h0a2.26919,2.26919,0,0,1,0,3.17449l-2.11508,2.14762a1.73132,1.73132,0,0,1-2.47487,0L8.64749,11.832a2.26921,2.26921,0,0,1,0-3.17451h0A2.18708,2.18708,0,0,1,11.77388,8.65748Z" fill="none" stroke="#323232" stroke-linecap="round" stroke-linejoin="round" stroke-width="1.5"/><path d="M18,19H14.5l-1.81034,1.72415a1,1,0,0,1-1.37933,0L9.5,19.00006,6,19A3,3,0,0,1,3,16V6A3,3,0,0,1,6,3H18a3,3,0,0,1,3,3V16A3,3,0,0,1,18,19Z" fill="none" stroke="#323232" stroke-linecap="round" stroke-linejoin="round" stroke-width="1.5"/></svg>