<svg xmlns="http://www.w3.org/2000/svg" viewBox="0 0 24 24"><path d="M21,7.49242V19a2,2,0,0,1-2,2H5a2,2,0,0,1-2-2V7.49242a4,4,0,0,1,.11943-.97014l.50184-2.00735A2,2,0,0,1,5.56155,3h12.8769a2,2,0,0,1,1.94028,1.51493l.50184,2.00735A4,4,0,0,1,21,7.49242Z" fill="none" stroke="#323232" stroke-linecap="round" stroke-linejoin="round" stroke-width="1.5"/><line x1="20.96931" y1="7" x2="3.03082" y2="7" fill="none" stroke="#323232" stroke-linecap="round" stroke-linejoin="round" stroke-width="1.5"/><path d="M12.005,13.995,12,14l-.005-.005L12,13.99l.005.005" fill="none" stroke="#323232" stroke-linecap="round" stroke-linejoin="round" stroke-width="1.5"/><path d="M15.005,13.995,15,14l-.005-.005L15,13.99l.005.005" fill="none" stroke="#323232" stroke-linecap="round" stroke-linejoin="round" stroke-width="1.5"/><path d="M9.005,13.995,9,14l-.005-.005L9,13.99l.005.005" fill="none" stroke="#323232" stroke-linecap="round" stroke-linejoin="round" stroke-width="1.5"/><rect width="24" height="24" fill="none"/></svg>