<svg xmlns="http://www.w3.org/2000/svg" viewBox="0 0 24 24"><path d="M20,8V5.25A2.24937,2.24937,0,0,0,17.75,3H6.25A2.24938,2.24938,0,0,0,4,5.25V8" fill="none" stroke="#323232" stroke-linecap="round" stroke-linejoin="round" stroke-width="1.5"/><line x1="16" y1="7" x2="8" y2="7" fill="none" stroke="#323232" stroke-linecap="round" stroke-linejoin="round" stroke-width="1.5"/><path d="M5.501,11H18.499a2.5,2.5,0,0,1,2.4412,3.039l-1.104,5A2.5,2.5,0,0,1,17.395,21H6.605a2.5,2.5,0,0,1-2.44122-1.961l-1.104-5A2.5,2.5,0,0,1,5.501,11Z" fill="none" stroke="#323232" stroke-linecap="round" stroke-linejoin="round" stroke-width="1.5"/><path d="M24,0V24H0V0Z" fill="none"/></svg>