<svg xmlns="http://www.w3.org/2000/svg" viewBox="0 0 24 24"><polyline points="16.5 12 12 14 12 10 7.5 12" fill="none" stroke="#323232" stroke-linecap="round" stroke-linejoin="round" stroke-width="1.5"/><path d="M7.12131,20.12132,3.87868,16.87869A3,3,0,0,1,3,14.75737V9.24361a3,3,0,0,1,.87869-2.12134l3.24364-3.2436A3,3,0,0,1,9.24364,3h5.51272a3,3,0,0,1,2.12132.87867l3.24364,3.24365A3,3,0,0,1,21,9.24365v5.51369a3,3,0,0,1-.87835,2.121L16.88,20.121A3,3,0,0,1,14.75836,21H9.24263A3,3,0,0,1,7.12131,20.12132Z" fill="none" stroke="#323232" stroke-linecap="round" stroke-linejoin="round" stroke-width="1.5"/></svg>