<svg xmlns="http://www.w3.org/2000/svg" viewBox="0 0 24 24"><rect x="0.00001" width="24" height="24" fill="none"/><path d="M13.5,10H11a4.5,4.5,0,0,0-4.5,4.5h0A4.5,4.5,0,0,0,11,19h5.5A4.5,4.5,0,0,0,21,14.5h0a4.46409,4.46409,0,0,0-.866-2.634" fill="none" stroke="#323232" stroke-linecap="round" stroke-linejoin="round" stroke-width="1.5"/><path d="M10.5,14H13a4.5,4.5,0,0,0,4.5-4.5h0A4.5,4.5,0,0,0,13,5H7.5A4.5,4.5,0,0,0,3,9.5H3a4.46409,4.46409,0,0,0,.866,2.634" fill="none" stroke="#323232" stroke-linecap="round" stroke-linejoin="round" stroke-width="1.5"/></svg>