<svg xmlns="http://www.w3.org/2000/svg" viewBox="0 0 24 24"><path d="M0,0H24V24H0Z" fill="none"/><path d="M4,14.66666H4A5.33333,5.33333,0,0,0,9.33333,20H12a5.33332,5.33332,0,0,0,5.33332-5.33333v-.44445a4.88889,4.88889,0,0,0-4.88889-4.88889H11.11111" fill="none" stroke="#323232" stroke-linecap="round" stroke-linejoin="round" stroke-width="1.5"/><line x1="4" y1="14.66667" x2="4" y2="13.33334" fill="none" stroke="#323232" stroke-linecap="round" stroke-linejoin="round" stroke-width="1.5"/><path d="M20,10.22222V8.88889A4.88889,4.88889,0,0,0,15.11111,4H11.55556A4.88889,4.88889,0,0,0,6.66667,8.88889v1.33333a4.44444,4.44444,0,0,0,4.44444,4.44445h1.77778" fill="none" stroke="#323232" stroke-linecap="round" stroke-linejoin="round" stroke-width="1.5"/></svg>