<svg xmlns="http://www.w3.org/2000/svg" viewBox="0 0 24 24"><path d="M12,16l-.17157.17157a2.82843,2.82843,0,0,1-4,0h0a2.82843,2.82843,0,0,1,0-4L9,11a2.82843,2.82843,0,0,1,4,0h0" fill="none" stroke="#323232" stroke-linecap="round" stroke-linejoin="round" stroke-width="1.5"/><path d="M12,8l.17157-.17157a2.82843,2.82843,0,0,1,4,0h0a2.82843,2.82843,0,0,1,0,4L15,13a2.82843,2.82843,0,0,1-4,0h0" fill="none" stroke="#323232" stroke-linecap="round" stroke-linejoin="round" stroke-width="1.5"/><rect x="2.5" y="2.5" width="19" height="19" rx="9.49999" transform="translate(24 0) rotate(90)" stroke-width="1.5" stroke="#323232" stroke-linecap="round" stroke-linejoin="round" fill="none"/><path d="M24,0V24H0V0Z" fill="none"/></svg>