<svg xmlns="http://www.w3.org/2000/svg" viewBox="0 0 24 24"><path d="M13.01472,18.01472l-1.52944,1.52944a4.97056,4.97056,0,0,1-7.02943,0h0a4.97056,4.97056,0,0,1,0-7.02943l1.99391-1.9939a5,5,0,0,1,7.07107,0" fill="none" stroke="#323232" stroke-linecap="round" stroke-linejoin="round" stroke-width="1.5"/><path d="M10.98528,5.98528l1.52944-1.52944a4.97056,4.97056,0,0,1,7.02943,0h0a4.97056,4.97056,0,0,1,0,7.02943l-1.99391,1.9939a5,5,0,0,1-7.07106,0" fill="none" stroke="#323232" stroke-linecap="round" stroke-linejoin="round" stroke-width="1.5"/><path d="M24,0V24H0V0Z" fill="none"/></svg>