<svg xmlns="http://www.w3.org/2000/svg" viewBox="0 0 24 24"><path d="M13,11h0a2.82843,2.82843,0,0,0-4,0L7.82843,12.17157a2.82843,2.82843,0,0,0,0,4h0a2.82843,2.82843,0,0,0,4,0L12,16" fill="none" stroke="#323232" stroke-linecap="round" stroke-linejoin="round" stroke-width="1.5"/><path d="M11,13h0a2.82841,2.82841,0,0,0,4,0l1.17158-1.17157a2.82843,2.82843,0,0,0,0-4h0a2.82841,2.82841,0,0,0-4,0L12,8" fill="none" stroke="#323232" stroke-linecap="round" stroke-linejoin="round" stroke-width="1.5"/><rect x="2.99999" y="3" width="18" height="18" rx="5" transform="translate(23.99998 0.00001) rotate(90)" stroke-width="1.5" stroke="#323232" stroke-linecap="round" stroke-linejoin="round" fill="none"/></svg>