<svg xmlns="http://www.w3.org/2000/svg" viewBox="0 0 24 24"><rect width="24" height="24" fill="none"/><rect x="3" y="3.22222" width="18" height="18" rx="5" stroke-width="1.5" stroke="#323232" stroke-linecap="round" stroke-linejoin="round" fill="none"/><path d="M12,12,9.4,13.95a1,1,0,0,0-.4.8V16a1,1,0,0,0,1,1h4a1,1,0,0,0,1-1V14.75a1,1,0,0,0-.4-.8Z" fill="none" stroke="#323232" stroke-linecap="round" stroke-linejoin="round" stroke-width="1.5"/><path d="M12,12l2.6-1.95a1,1,0,0,0,.4-.8V8a1,1,0,0,0-1-1H10A1,1,0,0,0,9,8V9.25a1,1,0,0,0,.4.8Z" fill="none" stroke="#323232" stroke-linecap="round" stroke-linejoin="round" stroke-width="1.5"/></svg>