<svg xmlns="http://www.w3.org/2000/svg" viewBox="0 0 24 24"><rect width="24" height="24" fill="none"/><rect x="3" y="3" width="18" height="18" rx="5" stroke-width="1.5" stroke="#323232" stroke-linecap="round" stroke-linejoin="round" fill="none"/><path d="M14,16.5a1,1,0,0,0,1-1v-.94354a1,1,0,0,0-.44055-.8288L12,12,9.44055,13.72766A1,1,0,0,0,9,14.55646V15.5a1,1,0,0,0,1,1Z" fill="none" stroke="#323232" stroke-linecap="round" stroke-linejoin="round" stroke-width="1.5"/><path d="M10,7.5a1,1,0,0,0-1,1v.94354a1,1,0,0,0,.44055.8288L12,12l2.55945-1.72766A1,1,0,0,0,15,9.44354V8.5a1,1,0,0,0-1-1Z" fill="none" stroke="#323232" stroke-linecap="round" stroke-linejoin="round" stroke-width="1.5"/></svg>