<svg xmlns="http://www.w3.org/2000/svg" viewBox="0 0 24 24"><circle cx="12" cy="12" r="10" fill="none" stroke="#323232" stroke-linecap="round" stroke-linejoin="round" stroke-width="1.5"/><path d="M14.5,17h-5a1,1,0,0,1-1-1V14.87048a1.5,1.5,0,0,1,.75579-1.30236L12,12l2.74421,1.56812A1.5,1.5,0,0,1,15.5,14.87048V16A1,1,0,0,1,14.5,17Z" fill="none" stroke="#323232" stroke-linecap="round" stroke-linejoin="round" stroke-width="1.5"/><path d="M9.5,7h5a1,1,0,0,1,1,1V9.12952a1.5,1.5,0,0,1-.75579,1.30236L12,12,9.25579,10.43188A1.5,1.5,0,0,1,8.5,9.12952V8A1,1,0,0,1,9.5,7Z" fill="none" stroke="#323232" stroke-linecap="round" stroke-linejoin="round" stroke-width="1.5"/><rect width="24" height="24" fill="none"/></svg>