<?xml version="1.0" encoding="UTF-8"?><svg version="1.1" viewBox="0 0 24 24" xmlns="http://www.w3.org/2000/svg" xmlns:xlink="http://www.w3.org/1999/xlink"><g stroke-linecap="round" stroke-width="1.5" stroke="#323232" fill="none" stroke-linejoin="round"><path d="M17 21h-10c-1.105 0-2-.895-2-2v-8c0-1.105.895-2 2-2h10c1.105 0 2 .895 2 2v8c0 1.105-.895 2-2 2Z"></path><path d="M16 9v-2c0-2.209-1.791-4-4-4 -1.87 0-3.428 1.289-3.866 3.023"></path><path d="M11.997 14.5c-.275 0-.5.225-.497.5 0 .275.225.5.5.5 .275 0 .5-.225.5-.5 0-.275-.225-.5-.503-.5"></path></g><path fill="none" d="M0 0h24v24h-24v-24Z"></path></svg>