<?xml version="1.0" encoding="UTF-8"?><svg version="1.1" viewBox="0 0 24 24" xmlns="http://www.w3.org/2000/svg" xmlns:xlink="http://www.w3.org/1999/xlink"><g fill="none"><rect width="24" height="24"></rect><path d="M0 0h24v24h-24v-24Z"></path><path stroke="#323232" stroke-linecap="round" stroke-linejoin="round" stroke-width="1.5" d="M8 10v-3 0c0-2.209 1.791-4 4-4v0c2.209 0 4 1.791 4 4v0 3"></path><path stroke="#323232" stroke-linecap="round" stroke-linejoin="round" stroke-width="1.5" d="M17 21h-10c-1.105 0-2-.895-2-2v-7c0-1.105.895-2 2-2h10c1.105 0 2 .895 2 2v7c0 1.105-.895 2-2 2Z"></path><path stroke="#323232" stroke-linecap="round" stroke-linejoin="round" stroke-width="1.5" d="M9 15.541c-.003 0-.005.002-.005.005 0 .003.002.005.005.005 .003 0 .005-.002.005-.005 0-.003-.002-.005-.005-.005"></path><path stroke="#323232" stroke-linecap="round" stroke-linejoin="round" stroke-width="1.5" d="M12.005 15.541c-.003 0-.005.002-.005.005 0 .003.003.005.005.005 .003 0 .005-.002.005-.005 0-.003-.002-.005-.005-.005"></path><path stroke="#323232" stroke-linecap="round" stroke-linejoin="round" stroke-width="1.5" d="M15 15.541c-.003 0-.005.002-.005.005 0 .003.002.005.005.005 .003 0 .005-.002.005-.005 0-.003-.002-.005-.005-.005"></path></g></svg>