<svg xmlns="http://www.w3.org/2000/svg" viewBox="0 0 24 24"><rect x="8" y="10.79999" width="8" height="5.2" rx="1.5" stroke-width="1.5" stroke="#323232" stroke-linecap="round" stroke-linejoin="round" fill="none"/><path d="M12,7.2h0a2,2,0,0,1,2,2v1.6a.003.003,0,0,1-.003.003H10.003A.003.003,0,0,1,10,10.8V9.2A2,2,0,0,1,12,7.2Z" fill="none" stroke="#323232" stroke-linecap="round" stroke-linejoin="round" stroke-width="1.5"/><path d="M7.12131,20.12131,3.87868,16.87868A3,3,0,0,1,3,14.75736V9.2436a3,3,0,0,1,.87869-2.12133l3.24364-3.2436A3,3,0,0,1,9.24364,3h5.51272a3,3,0,0,1,2.12132.87868l3.24364,3.24364A3,3,0,0,1,21,9.24364v5.51369a3,3,0,0,1-.87835,2.121L16.88,20.121A3,3,0,0,1,14.75836,21H9.24263A3,3,0,0,1,7.12131,20.12131Z" fill="none" stroke="#323232" stroke-linecap="round" stroke-linejoin="round" stroke-width="1.5"/></svg>