<?xml version="1.0" encoding="UTF-8"?><svg version="1.1" viewBox="0 0 24 24" xmlns="http://www.w3.org/2000/svg" xmlns:xlink="http://www.w3.org/1999/xlink"><g fill="none"><path d="M0 0h24v24h-24Z"></path><path stroke="#323232" stroke-linecap="round" stroke-linejoin="round" stroke-width="1.5" d="M10 10.697h4c.55 0 1 .45 1 1v3.053c0 .552-.448 1-1 1h-4c-.552 0-1-.448-1-1v-3.053c0-.552.448-1 1-1Z"></path><path stroke="#323232" stroke-linecap="round" stroke-linejoin="round" stroke-width="1.5" d="M10.316 10.697v-1.263c0-.93.754-1.684 1.684-1.684 .93 0 1.684.754 1.684 1.684v1.261"></path><path stroke="#323232" stroke-linecap="round" stroke-linejoin="round" stroke-width="1.5" d="M10.476 20.875c6.159 1.01 11.409-4.239 10.399-10.399 -.612-3.73-3.62-6.739-7.35-7.351 -6.16-1.011-11.41 4.24-10.399 10.399 .611 3.731 3.62 6.739 7.35 7.351Z"></path></g></svg>