<?xml version="1.0" encoding="UTF-8"?><svg version="1.1" viewBox="0 0 24 24" xmlns="http://www.w3.org/2000/svg" xmlns:xlink="http://www.w3.org/1999/xlink"><g stroke-linecap="round" stroke-width="1.5" stroke="#323232" fill="none" stroke-linejoin="round"><path d="M13.579 10.421c.872041.872041.872041 2.2859 0 3.15794 -.872041.872041-2.2859.872041-3.15794 0 -.872041-.872041-.872041-2.2859 0-3.15794 .872041-.872041 2.2859-.872041 3.15794 0"></path><path d="M14.609 16.842c1.721-.929 2.891-2.749 2.891-4.842 0-2.093-1.17-3.913-2.891-4.842"></path><path d="M9.391 7.158c-1.721.929-2.891 2.749-2.891 4.842 0 2.093 1.17 3.913 2.891 4.842"></path><path d="M17.145 19.378c2.329-1.627 3.855-4.322 3.855-7.378 0-3.056-1.526-5.751-3.855-7.378"></path><path d="M6.855 4.622c-2.329 1.627-3.855 4.322-3.855 7.378 0 3.056 1.526 5.751 3.855 7.378"></path></g><path fill="none" d="M0 0h24v24h-24Z"></path></svg>