<svg xmlns="http://www.w3.org/2000/svg" viewBox="0 0 24 24"><path d="M18.5,15H12a3,3,0,0,1-3-3H9a3,3,0,0,1,3-3h6.5A1.5,1.5,0,0,0,20,7.5v-2A1.5,1.5,0,0,0,18.5,4H12a8,8,0,0,0-8,8v0a8,8,0,0,0,8,8h6.5A1.5,1.5,0,0,0,20,18.5v-2A1.5,1.5,0,0,0,18.5,15Z" fill="none" stroke="#323232" stroke-linecap="round" stroke-linejoin="round" stroke-width="1.5"/><line x1="15" y1="3.99881" x2="15" y2="8.99881" fill="none" stroke="#323232" stroke-linecap="round" stroke-linejoin="round" stroke-width="1.5"/><line x1="15" y1="14.99881" x2="15" y2="19.99881" fill="none" stroke="#323232" stroke-linecap="round" stroke-linejoin="round" stroke-width="1.5"/></svg>