<svg xmlns="http://www.w3.org/2000/svg" viewBox="0 0 24 24"><path d="M9,18.5V12a3,3,0,0,1,3-3h0a3,3,0,0,1,3,3v6.5A1.5,1.5,0,0,0,16.5,20h2A1.5,1.5,0,0,0,20,18.5V12a8,8,0,0,0-8-8h0a8,8,0,0,0-8,8v6.5A1.5,1.5,0,0,0,5.5,20h2A1.5,1.5,0,0,0,9,18.5Z" fill="none" stroke="#323232" stroke-linecap="round" stroke-linejoin="round" stroke-width="1.5"/><line x1="20" y1="16" x2="15" y2="16" fill="none" stroke="#323232" stroke-linecap="round" stroke-linejoin="round" stroke-width="1.5"/><line x1="9" y1="16" x2="4" y2="16" fill="none" stroke="#323232" stroke-linecap="round" stroke-linejoin="round" stroke-width="1.5"/></svg>