<svg xmlns="http://www.w3.org/2000/svg" viewBox="0 0 24 24"><path d="M6.82765,13.08688l4.426-4.42595a2.88886,2.88886,0,0,1,4.08548,0h0a2.88889,2.88889,0,0,1,0,4.08549l-4.42595,4.42594a1.44444,1.44444,0,0,0,0,2.04275L12.275,20.57694a1.44445,1.44445,0,0,0,2.04274,0L18.74366,16.151a7.70366,7.70366,0,0,0,0-10.89463h0a7.70367,7.70367,0,0,0-10.89462,0L3.42308,9.6823a1.44444,1.44444,0,0,0,0,2.04275l1.36183,1.36183A1.44445,1.44445,0,0,0,6.82765,13.08688Z" fill="none" stroke="#323232" stroke-linecap="round" stroke-linejoin="round" stroke-width="1.5"/><line x1="16.44732" y1="18.44732" x2="13.04275" y2="15.04275" fill="none" stroke="#323232" stroke-linecap="round" stroke-linejoin="round" stroke-width="1.5"/><line x1="8.95726" y1="10.95726" x2="5.55269" y2="7.55269" fill="none" stroke="#323232" stroke-linecap="round" stroke-linejoin="round" stroke-width="1.5"/><line x1="8.00001" y1="22" x2="8.00001" y2="21" fill="none" stroke="#323232" stroke-linecap="round" stroke-linejoin="round" stroke-width="1.5"/><line x1="3.00001" y1="16" x2="2.00001" y2="16" fill="none" stroke="#323232" stroke-linecap="round" stroke-linejoin="round" stroke-width="1.5"/><line x1="4.00001" y1="20" x2="4.70712" y2="19.2929" fill="none" stroke="#323232" stroke-linecap="round" stroke-linejoin="round" stroke-width="1.5"/><path d="M0,24H24V0H0Z" fill="none"/></svg>