<svg xmlns="http://www.w3.org/2000/svg" viewBox="0 0 24 24"><path d="M3,15H7.382a1,1,0,0,1,.89462.55319l.44632.89363A1,1,0,0,0,9.61753,17h4.76394a1,1,0,0,0,.89442-.55278l.44722-.89443A1,1,0,0,1,16.61753,15H21" fill="none" stroke="#323232" stroke-linecap="round" stroke-linejoin="round" stroke-width="1.5"/><path d="M8,3H6A3,3,0,0,0,3,6V18a3,3,0,0,0,3,3H18a3,3,0,0,0,3-3V6a3,3,0,0,0-3-3H16" fill="none" stroke="#323232" stroke-linecap="round" stroke-linejoin="round" stroke-width="1.5"/><line x1="12" y1="8.99999" x2="12" y2="3.99999" fill="none" stroke="#323232" stroke-linecap="round" stroke-linejoin="round" stroke-width="1.5"/><polyline points="14 6 12 4 10 6" fill="none" stroke="#323232" stroke-linecap="round" stroke-linejoin="round" stroke-width="1.5"/></svg>