<svg xmlns="http://www.w3.org/2000/svg" viewBox="0 0 24 24"><path d="M3,15H7.382a1,1,0,0,1,.89462.55319l.44632.89362A1,1,0,0,0,9.61753,17h4.76394a1,1,0,0,0,.89442-.55279l.44722-.89442A1,1,0,0,1,16.61753,15H21" fill="none" stroke="#323232" stroke-linecap="round" stroke-linejoin="round" stroke-width="1.5"/><path d="M21,6V18a3,3,0,0,1-3,3H6a3,3,0,0,1-3-3V6A3,3,0,0,1,6,3H18A3,3,0,0,1,21,6Z" fill="none" stroke="#323232" stroke-linecap="round" stroke-linejoin="round" stroke-width="1.5"/><line x1="7" y1="7" x2="17" y2="7" fill="none" stroke="#323232" stroke-linecap="round" stroke-linejoin="round" stroke-width="1.5"/><rect width="24" height="24" fill="none"/></svg>