<svg xmlns="http://www.w3.org/2000/svg" viewBox="0 0 24 24"><path d="M0,0H24V24H0Z" fill="none"/><path d="M8,4H5.25A2.24938,2.24938,0,0,0,3,6.25v11.5A2.24937,2.24937,0,0,0,5.25,20H8" fill="none" stroke="#323232" stroke-linecap="round" stroke-linejoin="round" stroke-width="1.5"/><path d="M21,6.605v10.79a2.5,2.5,0,0,1-1.961,2.4412l-5,1.104A2.5,2.5,0,0,1,11,18.499V5.501a2.5,2.5,0,0,1,3.039-2.4412l5,1.104A2.5,2.5,0,0,1,21,6.605Z" fill="none" stroke="#323232" stroke-linecap="round" stroke-linejoin="round" stroke-width="1.5"/><line x1="7" y1="8" x2="7" y2="16" fill="none" stroke="#323232" stroke-linecap="round" stroke-linejoin="round" stroke-width="1.5"/></svg>