<svg xmlns="http://www.w3.org/2000/svg" viewBox="0 0 24 24"><path d="M21,17.25h0A3.75,3.75,0,0,1,17.25,21h0a3.75,3.75,0,0,1-3.75-3.75h0a3.75,3.75,0,0,1,3.75-3.75h0A3.75,3.75,0,0,1,21,17.25Z" fill="none" stroke="#323232" stroke-linecap="round" stroke-linejoin="round" stroke-width="1.5"/><path d="M10.5,17.25h0A3.75,3.75,0,0,1,6.75,21h0A3.75,3.75,0,0,1,3,17.25H3A3.75,3.75,0,0,1,6.75,13.5h0A3.75,3.75,0,0,1,10.5,17.25Z" fill="none" stroke="#323232" stroke-linecap="round" stroke-linejoin="round" stroke-width="1.5"/><path d="M21,6.75h0a3.75,3.75,0,0,1-3.75,3.75h0A3.75,3.75,0,0,1,13.5,6.75h0A3.75,3.75,0,0,1,17.25,3h0A3.75,3.75,0,0,1,21,6.75Z" fill="none" stroke="#323232" stroke-linecap="round" stroke-linejoin="round" stroke-width="1.5"/><path d="M10.5,6.75h0A3.75,3.75,0,0,1,6.75,10.5h0A3.75,3.75,0,0,1,3,6.75H3A3.75,3.75,0,0,1,6.75,3h0A3.75,3.75,0,0,1,10.5,6.75Z" fill="none" stroke="#323232" stroke-linecap="round" stroke-linejoin="round" stroke-width="1.5"/><path d="M24,24H0V0H24Z" fill="none"/></svg>