<svg xmlns="http://www.w3.org/2000/svg" viewBox="0 0 24 24"><path d="M24,0V24H0V0Z" fill="none"/><path d="M13.671,3.67175l-.00068.00069a2.30578,2.30578,0,0,0,.123,3.36578L16.344,9.25482a1,1,0,0,0,1.31184,0l2.55088-2.21674a2.30558,2.30558,0,0,0,.123-3.36548l-.00006-.00007a2.27747,2.27747,0,0,0-3.10888-.114L17,3.75035l-.22115-.19219A2.27638,2.27638,0,0,0,13.671,3.67175Z" fill="none" stroke="#323232" stroke-linecap="round" stroke-linejoin="round" stroke-width="1.5"/><path d="M10,3.00006H8a5,5,0,0,0-5,5V16a5,5,0,0,0,5,5h8a5,5,0,0,0,5-5V11" fill="none" stroke="#323232" stroke-linecap="round" stroke-linejoin="round" stroke-width="1.5"/><line x1="16" y1="15" x2="8" y2="15" fill="none" stroke="#323232" stroke-linecap="round" stroke-linejoin="round" stroke-width="1.5"/><line x1="8" y1="11" x2="12" y2="11" fill="none" stroke="#323232" stroke-linecap="round" stroke-linejoin="round" stroke-width="1.5"/></svg>