<svg xmlns="http://www.w3.org/2000/svg" viewBox="0 0 24 24"><path d="M8.25407,8.25452,8.25363,8.255a2.58419,2.58419,0,0,0,.138,3.77679l3.28573,2.8479a.4925.4925,0,0,0,.64514,0l3.28589-2.848a2.584,2.584,0,0,0,.138-3.77652h0a2.56585,2.56585,0,0,0-3.49766-.12826L12,8.3424l-.24883-.21568A2.56507,2.56507,0,0,0,8.25407,8.25452Z" fill="none" stroke="#323232" stroke-linecap="round" stroke-linejoin="round" stroke-width="1.5"/><path d="M21,6a3,3,0,0,0-3-3H6A3,3,0,0,0,3,6V20.49921a.5.5,0,0,0,.765.424L6.84209,19H18a3,3,0,0,0,3-3Z" fill="none" stroke="#323232" stroke-linecap="round" stroke-linejoin="round" stroke-width="1.5"/></svg>