<svg xmlns="http://www.w3.org/2000/svg" viewBox="0 0 24 24"><path d="M0,0H24V24H0Z" fill="none"/><path d="M17.5,9.5a4.859,4.859,0,0,1-4.20806-2.40836h0a2.187,2.187,0,0,1,0-2.18328h0A4.859,4.859,0,0,1,17.5,2.5" fill="none" stroke="#323232" stroke-linecap="round" stroke-linejoin="round" stroke-width="1.5"/><path d="M17.5,2.5a4.859,4.859,0,0,1,4.20806,2.40836h0a2.187,2.187,0,0,1,0,2.18328h0A4.859,4.859,0,0,1,17.5,9.5" fill="none" stroke="#323232" stroke-linecap="round" stroke-linejoin="round" stroke-width="1.5"/><path d="M17.4646,5.96469l.00009-.00009a.05.05,0,1,1-.00009.00009" fill="none" stroke="#323232" stroke-linecap="round" stroke-linejoin="round" stroke-width="1.5"/><path d="M21,12v4a3,3,0,0,1-3,3H14.5l-1.80935,1.72791a1.01262,1.01262,0,0,1-1.3813,0L9.5,19H6a3,3,0,0,1-3-3V6A3,3,0,0,1,6,3h4" fill="none" stroke="#323232" stroke-linecap="round" stroke-linejoin="round" stroke-width="1.5"/></svg>