<svg xmlns="http://www.w3.org/2000/svg" viewBox="0 0 24 24"><path d="M15.5,11l.005-.005L15.51,11l-.005.005L15.5,11" fill="none" stroke="#323232" stroke-linecap="round" stroke-linejoin="round" stroke-width="1.5"/><path d="M12,11l.005-.005L12.01,11l-.005.005L12,11" fill="none" stroke="#323232" stroke-linecap="round" stroke-linejoin="round" stroke-width="1.5"/><path d="M8.5,11l.005-.005L8.51,11l-.005.005L8.5,11" fill="none" stroke="#323232" stroke-linecap="round" stroke-linejoin="round" stroke-width="1.5"/><path d="M3,6A3,3,0,0,1,6,3H18a3,3,0,0,1,3,3V20.49921a.5.5,0,0,1-.765.424L17.15789,19H6a3,3,0,0,1-3-3Z" fill="none" stroke="#323232" stroke-linecap="round" stroke-linejoin="round" stroke-width="1.5"/></svg>