<svg xmlns="http://www.w3.org/2000/svg" viewBox="0 0 24 24"><line x1="14" y1="12.99999" x2="16" y2="7.99999" fill="none" stroke="#323232" stroke-linecap="round" stroke-linejoin="round" stroke-width="1.5"/><path d="M13.5,18h4.476a3,3,0,0,0,3-3V6a3,3,0,0,0-3-3h-12a3,3,0,0,0-3,3v9a3,3,0,0,0,3,3H9v2.4429a.5561.5561,0,0,0,.90349.43424Z" fill="none" stroke="#323232" stroke-linecap="round" stroke-linejoin="round" stroke-width="1.5"/><path d="M8.005,13,8,13.005,7.995,13,8,12.995,8.005,13" fill="none" stroke="#323232" stroke-linecap="round" stroke-linejoin="round" stroke-width="1.5"/><path d="M11.005,13,11,13.005,10.995,13,11,12.995l.005.005" fill="none" stroke="#323232" stroke-linecap="round" stroke-linejoin="round" stroke-width="1.5"/></svg>