<svg xmlns="http://www.w3.org/2000/svg" viewBox="0 0 24 24"><path d="M0,0H24V24H0Z" fill="none"/><path d="M8.52021,11.87739a1,1,0,0,1,0-1.75478l1.42535-.77948a.99993.99993,0,0,0,.39757-.39757l.77948-1.42535a1,1,0,0,1,1.75478,0l.77948,1.42535a.99993.99993,0,0,0,.39757.39757l1.42535.77948a1,1,0,0,1,0,1.75478l-1.42535.77948a.99993.99993,0,0,0-.39757.39757l-.77948,1.42535a1,1,0,0,1-1.75478,0l-.77948-1.42535a.99993.99993,0,0,0-.39757-.39757Z" fill="none" stroke="#323232" stroke-linecap="round" stroke-linejoin="round" stroke-width="1.5"/><path d="M9.58582,19l1.70709,1.70709a1,1,0,0,0,1.41418,0L14.41418,19H18a3,3,0,0,0,3-3V6a3,3,0,0,0-3-3H6A3,3,0,0,0,3,6V16a3,3,0,0,0,3,3Z" fill="none" stroke="#323232" stroke-linecap="round" stroke-linejoin="round" stroke-width="1.5"/></svg>