<svg xmlns="http://www.w3.org/2000/svg" viewBox="0 0 24 24"><rect width="24" height="24" fill="none"/><path d="M24,24H0V0H24Z" fill="none"/><path d="M13.5,18,9.80838,20.89265A.5.5,0,0,1,9,20.49908V18H8a5,5,0,0,1-5-5V8A5,5,0,0,1,8,3h8a5,5,0,0,1,5,5v5a5,5,0,0,1-5,5Z" fill="none" stroke="#323232" stroke-linecap="round" stroke-linejoin="round" stroke-width="1.5"/><path d="M15.005,10.5,15,10.505l-.005-.005L15,10.495l.005.005" fill="none" stroke="#323232" stroke-linecap="round" stroke-linejoin="round" stroke-width="1.5"/><path d="M12.005,10.5,12,10.505l-.005-.005L12,10.495l.005.005" fill="none" stroke="#323232" stroke-linecap="round" stroke-linejoin="round" stroke-width="1.5"/><path d="M9.005,10.5,9,10.505,8.995,10.5,9,10.495l.005.005" fill="none" stroke="#323232" stroke-linecap="round" stroke-linejoin="round" stroke-width="1.5"/></svg>