<svg xmlns="http://www.w3.org/2000/svg" viewBox="0 0 24 24"><path d="M0,0H24V24H0Z" fill="none"/><path d="M15,18l3.16418,2.86941A.5.5,0,0,0,19,20.49885V18h1a2,2,0,0,0,2-2V11a2,2,0,0,0-2-2H12a2,2,0,0,0-2,2v5a2,2,0,0,0,2,2Z" fill="none" stroke="#323232" stroke-linecap="round" stroke-linejoin="round" stroke-width="1.5"/><path d="M10,16.00006,6.83588,18.8694A.5.5,0,0,1,6,18.499V16H5a3,3,0,0,1-3-3V6A3,3,0,0,1,5,3H15a3,3,0,0,1,3,3V9" fill="none" stroke="#323232" stroke-linecap="round" stroke-linejoin="round" stroke-width="1.5"/></svg>