<svg xmlns="http://www.w3.org/2000/svg" viewBox="0 0 24 24"><path d="M9.04517,12.28132,7.8314,11.06993a1.125,1.125,0,0,1,.61181-1.90627l1.60247-.26406.96153-1.8038a1.125,1.125,0,0,1,1.98556,0l.96153,1.8038,1.60246.26406a1.125,1.125,0,0,1,.61181,1.90627l-1.21376,1.21139.29162,1.92284a1.125,1.125,0,0,1-1.60477,1.18016L12,14.58505l-1.64167.79927a1.125,1.125,0,0,1-1.60478-1.18016Z" fill="none" stroke="#323232" stroke-linecap="round" stroke-linejoin="round" stroke-width="1.5"/><path d="M18,19H14.5l-1.81034,1.72415a1,1,0,0,1-1.37933,0L9.5,19.00006,6,19A3,3,0,0,1,3,16V6A3,3,0,0,1,6,3H18a3,3,0,0,1,3,3V16A3,3,0,0,1,18,19Z" fill="none" stroke="#323232" stroke-linecap="round" stroke-linejoin="round" stroke-width="1.5"/></svg>