<svg xmlns="http://www.w3.org/2000/svg" viewBox="0 0 24 24"><path d="M0,0H24V24H0Z" fill="none"/><path d="M8.25407,8.75457,8.25363,8.755a2.58419,2.58419,0,0,0,.138,3.77679l2.27283,1.97a2.039,2.039,0,0,0,2.671,0l2.273-1.9701a2.584,2.584,0,0,0,.138-3.77652h0a2.56986,2.56986,0,0,0-3.49963-.12639L12,8.84245l-.24884-.21568A2.56506,2.56506,0,0,0,8.25407,8.75457Z" fill="none" stroke="#323232" stroke-linecap="round" stroke-linejoin="round" stroke-width="1.5"/><path d="M21,16a3,3,0,0,1-3,3H14.5l-1.80935,1.72791a1.01262,1.01262,0,0,1-1.3813,0L9.5,19H6a3,3,0,0,1-3-3V6A3,3,0,0,1,6,3H18a3,3,0,0,1,3,3Z" fill="none" stroke="#323232" stroke-linecap="round" stroke-linejoin="round" stroke-width="1.5"/></svg>