<svg xmlns="http://www.w3.org/2000/svg" viewBox="0 0 24 24"><line x1="12.00001" y1="17.5" x2="12.00001" y2="16.04658" fill="none" stroke="#323232" stroke-linecap="round" stroke-linejoin="round" stroke-width="1.5"/><path d="M6.8991,20.6213,3.37869,17.1009A3,3,0,0,1,2.5,14.97958V9.02143A3,3,0,0,1,3.3787,6.90009L6.90018,3.37866A3,3,0,0,1,9.02148,2.5h5.957a3.00006,3.00006,0,0,1,2.12133.87868l3.52147,3.52148A3,3,0,0,1,21.5,9.02147v5.95806a3,3,0,0,1-.87835,2.121L17.10231,20.621a3,3,0,0,1-2.12165.879H9.02042A3,3,0,0,1,6.8991,20.6213Z" fill="none" stroke="#323232" stroke-linecap="round" stroke-linejoin="round" stroke-width="1.5"/><path d="M15.53555,14.53553a5,5,0,0,1-7.07107,0" fill="none" stroke="#323232" stroke-linecap="round" stroke-linejoin="round" stroke-width="1.5"/><path d="M14.5,11a2.5,2.5,0,0,1-5,0V9a2.5,2.5,0,0,1,5,0Z" fill="none" stroke="#323232" stroke-linecap="round" stroke-linejoin="round" stroke-width="1.5"/></svg>