<svg xmlns="http://www.w3.org/2000/svg" viewBox="0 0 24 24"><path d="M21,12v3a2,2,0,0,1-2,2H5a2,2,0,0,1-2-2V5A2,2,0,0,1,5,3h6" fill="none" stroke="#323232" stroke-linecap="round" stroke-linejoin="round" stroke-width="1.5"/><line x1="12" y1="21" x2="12" y2="17" fill="none" stroke="#323232" stroke-linecap="round" stroke-linejoin="round" stroke-width="1.5"/><line x1="15.5" y1="21" x2="8.5" y2="21" fill="none" stroke="#323232" stroke-linecap="round" stroke-linejoin="round" stroke-width="1.5"/><path d="M14.671,3.67175l-.00068.00069a2.30578,2.30578,0,0,0,.123,3.36578L17.344,9.25482a1,1,0,0,0,1.31184,0l2.55088-2.21674a2.30558,2.30558,0,0,0,.123-3.36548l-.00007-.00007a2.27747,2.27747,0,0,0-3.10888-.114l-.22086.19184-.22115-.19219A2.27638,2.27638,0,0,0,14.671,3.67175Z" fill="none" stroke="#323232" stroke-linecap="round" stroke-linejoin="round" stroke-width="1.5"/><rect width="24" height="24" fill="none"/></svg>