<?xml version="1.0" encoding="UTF-8"?><svg version="1.1" viewBox="0 0 24 24" xmlns="http://www.w3.org/2000/svg" xmlns:xlink="http://www.w3.org/1999/xlink"><g fill="none"><path d="M0 0h24v24h-24v-24Z"></path><path stroke="#323232" stroke-linecap="round" stroke-linejoin="round" stroke-width="1.5" d="M6.075 18.763c-1.463-1.283-2.51-3.028-2.902-5.013"></path><path stroke="#323232" stroke-linecap="round" stroke-linejoin="round" stroke-width="1.5" d="M3.173 10.25c.391-1.985 1.438-3.729 2.902-5.013"></path><path stroke="#323232" stroke-linecap="round" stroke-linejoin="round" stroke-width="1.5" d="M20.827 13.75c-.392 1.985-1.439 3.73-2.902 5.013"></path><path stroke="#323232" stroke-linecap="round" stroke-linejoin="round" stroke-width="1.5" d="M14.896 20.515c-.91.31-1.882.485-2.896.485 -1.014 0-1.986-.175-2.896-.485"></path><path stroke="#323232" stroke-linecap="round" stroke-linejoin="round" stroke-width="1.5" d="M14.896 3.485c-.91-.31-1.882-.485-2.896-.485 -1.014 0-1.986.175-2.896.485"></path><path stroke="#323232" stroke-linecap="round" stroke-linejoin="round" stroke-width="1.5" d="M17.925 5.237c1.464 1.284 2.511 3.028 2.902 5.013"></path><path stroke="#323232" stroke-linecap="round" stroke-linejoin="round" stroke-width="1.5" d="M15.627 12.665c.189-.089.391.097.338.299 -.18.688-.533 1.343-1.077 1.887 -1.615 1.615-4.199 1.649-5.773.076 -1.574-1.573-1.539-4.158.076-5.773 .544-.544 1.198-.897 1.887-1.077 .202-.053.388.149.299.338 -.573 1.225-.385 2.692.586 3.663 .972.972 2.44 1.16 3.664.587Z"></path></g></svg>