<?xml version="1.0" encoding="UTF-8"?><svg version="1.1" viewBox="0 0 24 24" xmlns="http://www.w3.org/2000/svg" xmlns:xlink="http://www.w3.org/1999/xlink"><g stroke-linecap="round" stroke-width="1.5" stroke="#323232" fill="none" stroke-linejoin="round"><path d="M18.364 5.63604c3.51472 3.51472 3.51472 9.2132 0 12.7279 -3.51472 3.51472-9.2132 3.51472-12.7279 0 -3.51472-3.51472-3.51472-9.2132-1.77636e-15-12.7279 3.51472-3.51472 9.2132-3.51472 12.7279-1.77636e-15"></path><path d="M15.627 12.665c.189-.089.391.097.338.299 -.18.688-.533 1.343-1.077 1.887 -1.615 1.615-4.199 1.649-5.773.076 -1.574-1.573-1.539-4.158.076-5.773 .544-.544 1.198-.897 1.887-1.077 .202-.053.388.149.299.338 -.573 1.225-.385 2.692.586 3.663 .972.972 2.44 1.16 3.664.587Z"></path></g><path fill="none" d="M0 0h24v24h-24Z"></path></svg>