<svg xmlns="http://www.w3.org/2000/svg" viewBox="0 0 24 24"><path d="M10.97155,10.2l5.11426-5.11427a2,2,0,0,1,2.82841,0h0a2,2,0,0,1,0,2.82843L13.8,13.02846a2.5,2.5,0,0,1-1.41421.70711l-1.81491.25927a.5.5,0,0,1-.56568-.56568l.25927-1.8149A2.5,2.5,0,0,1,10.97155,10.2Z" fill="none" stroke="#323232" stroke-linecap="round" stroke-linejoin="round" stroke-width="1.5"/><path d="M21,12v4a5,5,0,0,1-5,5H8a5,5,0,0,1-5-5V8A5,5,0,0,1,8,3h4" fill="none" stroke="#323232" stroke-linecap="round" stroke-linejoin="round" stroke-width="1.5"/></svg>