<svg xmlns="http://www.w3.org/2000/svg" viewBox="0 0 24 24"><path d="M9.952,11.21964,17.5858,3.58579a2,2,0,0,1,2.82842,0h0a2,2,0,0,1,0,2.82842l-7.63385,7.63385a.99993.99993,0,0,1-.46457.263l-2.69407.67352a.5.5,0,0,1-.60634-.60634l.67352-2.69407A.99993.99993,0,0,1,9.952,11.21964Z" fill="none" stroke="#323232" stroke-linecap="round" stroke-linejoin="round" stroke-width="1.5"/><path d="M21,11.06238V16a5,5,0,0,1-5,5H8a5,5,0,0,1-5-5V8A5,5,0,0,1,8,3h4.93768" fill="none" stroke="#323232" stroke-linecap="round" stroke-linejoin="round" stroke-width="1.5"/></svg>