<?xml version="1.0" encoding="UTF-8"?><svg version="1.1" viewBox="0 0 24 24" xmlns="http://www.w3.org/2000/svg" xmlns:xlink="http://www.w3.org/1999/xlink"><g stroke-linecap="round" stroke-width="1.5" stroke="#323232" fill="none" stroke-linejoin="round"><path d="M18 21h-12c-1.657 0-3-1.343-3-3v-12c0-1.657 1.343-3 3-3h12c1.657 0 3 1.343 3 3v12c0 1.657-1.343 3-3 3Z"></path><path d="M9.98744 7.51256c.683418.683418.683418 1.79146 0 2.47487 -.683418.683418-1.79146.683418-2.47487 0 -.683418-.683418-.683418-1.79146-8.88178e-16-2.47487 .683418-.683418 1.79146-.683418 2.47487-8.88178e-16"></path><path d="M21 10.109c-.45-.064-.907-.109-1.375-.109 -5.316 0-9.625 4.309-9.625 9.625 0 .468.045.925.109 1.375"></path></g><path fill="none" d="M24 24h-24v-24h24v24Z"></path></svg>