<svg xmlns="http://www.w3.org/2000/svg" viewBox="0 0 24 24"><line x1="7.50002" y1="16.49999" x2="10.31842" y2="13.68159" fill="none" stroke="#323232" stroke-linecap="round" stroke-linejoin="round" stroke-width="1.5"/><path d="M14.62585,6.82548l2.54868,2.54868a1.11112,1.11112,0,0,1-.16934,1.71018h0a6.90555,6.90555,0,0,0-2.86886,4.07092l-.23088.92353a.55553.55553,0,0,1-.93176.25808L7.66314,11.02632a.55553.55553,0,0,1,.25808-.93176l.92353-.23088a6.90551,6.90551,0,0,0,4.07092-2.86886h0A1.11112,1.11112,0,0,1,14.62585,6.82548Z" fill="none" stroke="#323232" stroke-linecap="round" stroke-linejoin="round" stroke-width="1.5"/><rect x="3" y="3" width="18" height="18" rx="5" stroke-width="1.5" stroke="#323232" stroke-linecap="round" stroke-linejoin="round" fill="none"/></svg>