<?xml version="1.0" encoding="UTF-8"?><svg version="1.1" viewBox="0 0 24 24" xmlns="http://www.w3.org/2000/svg" xmlns:xlink="http://www.w3.org/1999/xlink"><g stroke-linecap="round" stroke-width="1.5" stroke="#323232" fill="none" stroke-linejoin="round"><path d="M6 13.153c-1.837.824-3 2.016-3 3.347 0 2.485 4.029 4.5 9 4.5 4.971 0 9-2.015 9-4.5 0-1.331-1.163-2.523-3-3.347"></path><path d="M15.652 17l1.21515e-08-7.90694e-09c-1.08366.705132-2.36028 1.0547-3.652 1l1.0403e-07-4.40522e-09c-1.29172.054699-2.56834-.294867-3.652-1"></path><path d="M14.2 3.913l1.59093e-07 1.59085e-07c1.21729 1.21724 1.21734 3.19081.000103355 4.4081 -1.21724 1.21729-3.19081 1.21734-4.4081.000103355 -1.21729-1.21724-1.21734-3.19081-.000103355-4.4081 3.45568e-05-3.45584e-05 6.91143e-05-6.91159e-05.000103673-.000103673l2.82133e-07-2.82301e-07c1.21651-1.21724 3.18945-1.21782 4.40669-.00131017 .000437041.000436782.000873953.000873693.00131073.00131073"></path><path d="M12 9.232v5.768"></path></g><path fill="none" d="M24 0v24h-24v-24Z"></path></svg>