<svg xmlns="http://www.w3.org/2000/svg" viewBox="0 0 24 24"><rect width="24" height="24" fill="none"/><line x1="11.99998" y1="21" x2="11.99998" y2="16" fill="none" stroke="#323232" stroke-linecap="round" stroke-linejoin="round" stroke-width="1.5"/><path d="M7.7779,9.0848,7.03951,5.39217A2,2,0,0,1,9.00068,3H14.9993a2,2,0,0,1,1.96117,2.39216l-.73838,3.69265a2,2,0,0,0,.24618,1.42112l2.38769,3.9796A1,1,0,0,1,17.99847,16H6.00151A1,1,0,0,1,5.144,14.48553l2.3877-3.97959A2,2,0,0,0,7.7779,9.0848Z" fill="none" stroke="#323232" stroke-linecap="round" stroke-linejoin="round" stroke-width="1.5"/></svg>