<svg xmlns="http://www.w3.org/2000/svg" viewBox="0 0 24 24"><line x1="8" y1="16" x2="10.53656" y2="13.46344" fill="none" stroke="#323232" stroke-linecap="round" stroke-linejoin="round" stroke-width="1.5"/><path d="M14.41324,7.29294l2.29382,2.29382a1,1,0,0,1-.15241,1.53915h0a6.215,6.215,0,0,0-2.582,3.66383l-.2078.83118a.5.5,0,0,1-.83858.23227L8.14681,11.0737a.5.5,0,0,1,.23227-.83858l.83118-.2078a6.215,6.215,0,0,0,3.66383-2.582h0A1,1,0,0,1,14.41324,7.29294Z" fill="none" stroke="#323232" stroke-linecap="round" stroke-linejoin="round" stroke-width="1.5"/><circle cx="12" cy="12" r="10" fill="none" stroke="#323232" stroke-linecap="round" stroke-linejoin="round" stroke-width="1.5"/></svg>