<svg viewBox="0 0 24 24" xmlns="http://www.w3.org/2000/svg"><g transform="translate(11.5168-5.17071)"><path fill="none" stroke="#323232" stroke-linecap="round" stroke-linejoin="round" stroke-width="1.5" d="M12 7v0l-.01 0c2.38-.01 4.31 1.93 4.31 4.31 0 0 0 0 0 0v3.29 0c0 .56-.46 1.01-1.02 1.01h-3.3l-.01-.001c-2.39-.01-4.32-1.94-4.32-4.32 0 0 0-.001 0-.001v0l-.001-.01c-.01-2.39 1.93-4.32 4.31-4.32 0-.001 0 0 0 0Z" transform="matrix(.7071.7071-.70711.7071 0 0)"/></g><g stroke-width="1.5" fill="none" stroke="#323232"><path d="M12 3a9 9 0 1 0 0 18 9 9 0 1 0 0-18Z"/><path fill="none" stroke="#323232" stroke-linecap="round" stroke-linejoin="round" stroke-width="1.5" d="M13.425 10.682l-1.69 1.68 -.82-.82"/></g><path fill="none" d="M0 0h24v24H0Z"/></svg>