<?xml version="1.0" encoding="UTF-8"?><svg version="1.1" viewBox="0 0 24 24" xmlns="http://www.w3.org/2000/svg" xmlns:xlink="http://www.w3.org/1999/xlink"><g fill="none"><path d="M0 .014h24v24h-24Z"></path><path stroke="#323232" stroke-linecap="round" stroke-linejoin="round" stroke-width="1.5" d="M18.364 5.65004c3.51472 3.51472 3.51472 9.2132 0 12.7279 -3.51472 3.51472-9.2132 3.51472-12.7279 0 -3.51472-3.51472-3.51472-9.2132-1.77636e-15-12.7279 3.51472-3.51472 9.2132-3.51472 12.7279-1.77636e-15"></path><path stroke="#323232" stroke-linecap="round" stroke-linejoin="round" stroke-width="1.5" d="M17.296 11.009c.186.186.186.487 0 .673l-.416.416c-.113.113-.274.161-.43.13l-1.837-.368 -1.515 1.515 .368 1.837c.031.156-.018.318-.13.43l-.416.416c-.186.186-.487.186-.673 0l-4.041-4.041c-.186-.186-.186-.487 0-.673l.416-.416c.113-.113.274-.161.43-.13l1.837.368 1.515-1.515 -.368-1.837c-.031-.156.018-.318.13-.43l.416-.416c.186-.186.487-.186.673 0l4.041 4.041"></path><path stroke="#323232" stroke-linecap="round" stroke-linejoin="round" stroke-width="1.5" d="M8.204 16.06l2.02-2.02"></path></g></svg>