<?xml version="1.0" encoding="UTF-8"?><svg version="1.1" viewBox="0 0 24 24" xmlns="http://www.w3.org/2000/svg" xmlns:xlink="http://www.w3.org/1999/xlink"><g stroke-linecap="round" stroke-width="1.5" stroke="#323232" fill="none" stroke-linejoin="round"><path d="M3.5 20l4.37-4.37"></path><path d="M4.956 11.294c-.391.391-.391 1.024 0 1.414l2.918 2.918 2.918 2.918c.391.391 1.024.391 1.414 0l1.175-1.175c.188-.188.293-.442.293-.707v-3.936l2.9-2.9 2.309.123c.283.015.56-.091.76-.291l.574-.574c.391-.391.391-1.024 0-1.414l-4.386-4.386c-.391-.391-1.024-.391-1.414 0l-.574.574c-.201.201-.307.477-.291.76l.123 2.309 -2.9 2.9h-3.937c-.265 0-.52.105-.707.293l-1.175 1.174Z"></path><path d="M16.57 9.83l-2.9-2.9"></path></g><path fill="none" d="M0 0h24v24h-24Z"></path></svg>