<svg xmlns="http://www.w3.org/2000/svg" viewBox="0 0 24 24"><path d="M6.5,17H5a1.99944,1.99944,0,0,1-2-1.9989V10A1.99944,1.99944,0,0,1,4.9989,8H19a1.99944,1.99944,0,0,1,2,1.9989V15a1.99945,1.99945,0,0,1-1.9989,2H17.5" fill="none" stroke="#323232" stroke-linecap="round" stroke-linejoin="round" stroke-width="1.5"/><path d="M17.5,8V4a1,1,0,0,0-1-1h-9a1,1,0,0,0-1,1V8" fill="none" stroke="#323232" stroke-linecap="round" stroke-linejoin="round" stroke-width="1.5"/><path d="M7.5,13.5h9a1,1,0,0,1,1,1V20a1,1,0,0,1-1,1h-9a1,1,0,0,1-1-1V14.5A1,1,0,0,1,7.5,13.5Z" fill="none" stroke="#323232" stroke-linecap="round" stroke-linejoin="round" stroke-width="1.5"/></svg>