<svg xmlns="http://www.w3.org/2000/svg" viewBox="0 0 24 24"><path d="M6.6,9V5a2,2,0,0,1,2-2h6.8a2,2,0,0,1,2,2V9" fill="none" stroke="#323232" stroke-linecap="round" stroke-linejoin="round" stroke-width="1.5"/><rect x="6.6" y="13.8" width="10.8" height="7.2" rx="1" stroke-width="1.5" stroke="#323232" stroke-linecap="round" stroke-linejoin="round" fill="none"/><path d="M6.6,18H5.6459a2.66312,2.66312,0,0,1-2.382-1.47213h0A2.5,2.5,0,0,1,3,15.40983V11A2,2,0,0,1,5,9H19a2,2,0,0,1,2,2v4.2918a3.00007,3.00007,0,0,1-.31672,1.34164h0A2.47213,2.47213,0,0,1,18.47214,18H17.4" fill="none" stroke="#323232" stroke-linecap="round" stroke-linejoin="round" stroke-width="1.5"/></svg>