<svg xmlns="http://www.w3.org/2000/svg" viewBox="0 0 24 24"><rect width="24" height="24" fill="none"/><path d="M0,24H24V0H0Z" fill="none"/><path d="M24,24H0V0H24Z" fill="none"/><path d="M7,17H5a1.99945,1.99945,0,0,1-2-2V10A1.99945,1.99945,0,0,1,5,8H19a1.99945,1.99945,0,0,1,2,2v5a1.99945,1.99945,0,0,1-2,2H17" fill="none" stroke="#323232" stroke-linecap="round" stroke-linejoin="round" stroke-width="1.5"/><path d="M7,13.8H17V20a1.00036,1.00036,0,0,1-1,1H8a1.00036,1.00036,0,0,1-1-1Z" fill="none" stroke="#323232" stroke-linecap="round" stroke-linejoin="round" stroke-width="1.5"/><path d="M8,3H7A1,1,0,0,0,6,4V8" fill="none" stroke="#323232" stroke-linecap="round" stroke-linejoin="round" stroke-width="1.5"/><line x1="13.25" y1="4.25" x2="10.75" y2="1.75" fill="none" stroke="#323232" stroke-linecap="round" stroke-linejoin="round" stroke-width="1.5"/><line x1="13.25" y1="1.75" x2="10.75" y2="4.25" fill="none" stroke="#323232" stroke-linecap="round" stroke-linejoin="round" stroke-width="1.5"/><path d="M16,3h1a1,1,0,0,1,1,1V8" fill="none" stroke="#323232" stroke-linecap="round" stroke-linejoin="round" stroke-width="1.5"/></svg>