<svg xmlns="http://www.w3.org/2000/svg" viewBox="0 0 24 24"><path d="M16.83268,21A2,2,0,0,0,18.833,19" fill="none" stroke="#323232" stroke-linecap="round" stroke-linejoin="round" stroke-width="1.5"/><path d="M3,18.99339a2,2,0,0,0,2.00032,2" fill="none" stroke="#323232" stroke-linecap="round" stroke-linejoin="round" stroke-width="1.5"/><path d="M5.00032,5.15991A2,2,0,0,0,3,7.15991" fill="none" stroke="#323232" stroke-linecap="round" stroke-linejoin="round" stroke-width="1.5"/><path d="M18.833,7.16652a2,2,0,0,0-2.00032-2" fill="none" stroke="#323232" stroke-linecap="round" stroke-linejoin="round" stroke-width="1.5"/><line x1="3" y1="15.72754" x2="3" y2="18.99335" fill="none" stroke="#323232" stroke-linecap="round" stroke-linejoin="round" stroke-width="1.5"/><line x1="3" y1="10.59229" x2="3" y2="7.15991" fill="none" stroke="#323232" stroke-linecap="round" stroke-linejoin="round" stroke-width="1.5"/><path d="M13.46191,20.99945a2.625,2.625,0,1,0-5.08606-.00665" fill="none" stroke="#323232" stroke-linecap="round" stroke-linejoin="round" stroke-width="1.5"/><line x1="16.8327" y1="21" x2="13.46191" y2="20.99945" fill="none" stroke="#323232" stroke-linecap="round" stroke-linejoin="round" stroke-width="1.5"/><line x1="8.37585" y1="20.9928" x2="5.00031" y2="20.99335" fill="none" stroke="#323232" stroke-linecap="round" stroke-linejoin="round" stroke-width="1.5"/><line x1="18.83301" y1="15.72754" x2="18.83301" y2="19" fill="none" stroke="#323232" stroke-linecap="round" stroke-linejoin="round" stroke-width="1.5"/><line x1="18.83301" y1="10.59229" x2="18.83301" y2="7.1665" fill="none" stroke="#323232" stroke-linecap="round" stroke-linejoin="round" stroke-width="1.5"/><path d="M18.833,10.59229a2.625,2.625,0,1,1,0,5.13525" fill="none" stroke="#323232" stroke-linecap="round" stroke-linejoin="round" stroke-width="1.5"/><line x1="8.43237" y1="5.16046" x2="5.00031" y2="5.15991" fill="none" stroke="#323232" stroke-linecap="round" stroke-linejoin="round" stroke-width="1.5"/><line x1="16.8327" y1="5.1665" x2="13.56763" y2="5.16699" fill="none" stroke="#323232" stroke-linecap="round" stroke-linejoin="round" stroke-width="1.5"/><path d="M8.43237,5.167a2.625,2.625,0,1,1,5.13526,0" fill="none" stroke="#323232" stroke-linecap="round" stroke-linejoin="round" stroke-width="1.5"/><path d="M3,10.59229a2.625,2.625,0,1,1,0,5.13525" fill="none" stroke="#323232" stroke-linecap="round" stroke-linejoin="round" stroke-width="1.5"/><rect width="24" height="24" fill="none"/><path d="M0,24H24V0H0Z" fill="none"/></svg>