<?xml version="1.0" encoding="UTF-8"?><svg version="1.1" viewBox="0 0 24 24" xmlns="http://www.w3.org/2000/svg" xmlns:xlink="http://www.w3.org/1999/xlink"><g fill="none"><path d="M0 0h24v24h-24Z"></path><path stroke="#323232" stroke-linecap="round" stroke-linejoin="round" stroke-width="1.5" d="M12 13.5v-1.5l-8.74228e-08-1.77636e-15c1.10457 4.82823e-08 2-.89543 2-2 4.82823e-08-1.10457-.89543-2-2-2 -1.10457-4.82823e-08-2 .89543-2 2"></path><path stroke="#323232" stroke-linecap="round" stroke-linejoin="round" stroke-width="1.5" d="M13 20.938l-1.65623e-07 2.04238e-08c-.331769.040912-.665718.0616168-1 .062l-3.93403e-07-7.10543e-15c-4.97056-2.1727e-07-9-4.02944-9-9 2.1727e-07-4.97056 4.02944-9 9-9 4.97056 2.1727e-07 9 4.02944 9 9l9.97483e-09-8.7067e-06c-.000382793.334282-.0210873.668231-.0619989 1"></path><path stroke="#323232" stroke-linecap="round" stroke-linejoin="round" stroke-width="1.5" d="M20 17l-2.5 2.5 -1.5-1.5"></path><path stroke="#323232" stroke-linecap="round" stroke-linejoin="round" stroke-width="1.5" d="M12 15.95l-2.18557e-09 1.77636e-15c-.0276142 1.20706e-09-.05.0223858-.05.05 1.20706e-09.0276142.0223858.05.05.05 .0276142-1.20706e-09.05-.0223858.05-.05 0 0 0 0 0 0v0c0-.0276142-.0223858-.05-.05-.05 0 0-1.77636e-15 0-1.77636e-15 0"></path></g></svg>