<?xml version="1.0" encoding="UTF-8"?><svg version="1.1" viewBox="0 0 24 24" xmlns="http://www.w3.org/2000/svg" xmlns:xlink="http://www.w3.org/1999/xlink"><g stroke-linecap="round" stroke-width="1.5" stroke="#323232" fill="none" stroke-linejoin="round"><path d="M10 10l2.30926e-14 3.01992e-07c-1.66785e-07-1.10457.89543-2 2-2 1.10457-1.66785e-07 2 .89543 2 2 1.66785e-07 1.10457-.89543 2-2 2"></path><line x1="12" x2="12" y1="13.5" y2="12"></line><path d="M3 16v-8l5.68434e-14 7.54979e-07c-4.16963e-07-2.76142 2.23858-5 5-5h8l-2.18557e-07 5.32907e-15c2.76142-1.20706e-07 5 2.23858 5 5v8 1.77636e-15c0 2.76142-2.23858 5-5 5 0 0-1.77636e-15 0-1.77636e-15 0h-8l-2.18557e-07-7.10543e-15c-2.76142-1.20706e-07-5-2.23858-5-5Z"></path><path d="M12 15.95l-2.18557e-09 1.77636e-15c-.0276142 1.20706e-09-.05.0223858-.05.05 1.20706e-09.0276142.0223858.05.05.05 .0276142-1.20706e-09.05-.0223858.05-.05 0 0 0 0 0 0v0c0-.0276142-.0223858-.05-.05-.05 0 0-1.77636e-15 0-1.77636e-15 0"></path></g><path fill="none" d="M0 0h24v24h-24Z"></path></svg>