<svg xmlns="http://www.w3.org/2000/svg" viewBox="0 0 24 24"><path d="M14.5625,15.5h0A2.1875,2.1875,0,0,0,16.75,13.3125V9.875A.875.875,0,0,0,15.875,9h-1.75a.875.875,0,0,0-.875.875v1.75a.875.875,0,0,0,.875.875h2.60792" fill="none" stroke="#323232" stroke-linecap="round" stroke-linejoin="round" stroke-width="1.5"/><path d="M8.5625,15.5h0A2.1875,2.1875,0,0,0,10.75,13.3125V9.875A.875.875,0,0,0,9.875,9H8.125a.875.875,0,0,0-.875.875v1.75a.875.875,0,0,0,.875.875h2.60792" fill="none" stroke="#323232" stroke-linecap="round" stroke-linejoin="round" stroke-width="1.5"/><rect x="3" y="3" width="18" height="18" rx="5" stroke-width="1.5" stroke="#323232" stroke-linecap="round" stroke-linejoin="round" fill="none"/></svg>