<svg xmlns="http://www.w3.org/2000/svg" viewBox="0 0 24 24"><path d="M14.3125,15.5h0A2.1875,2.1875,0,0,0,16.5,13.3125V9.875A.875.875,0,0,0,15.625,9h-1.75A.875.875,0,0,0,13,9.875v1.75a.875.875,0,0,0,.875.875h2.60792" fill="none" stroke="#323232" stroke-linecap="round" stroke-linejoin="round" stroke-width="1.5"/><path d="M8.3125,15.5h0A2.1875,2.1875,0,0,0,10.5,13.3125V9.875A.875.875,0,0,0,9.625,9H7.875A.875.875,0,0,0,7,9.875v1.75a.875.875,0,0,0,.875.875h2.60792" fill="none" stroke="#323232" stroke-linecap="round" stroke-linejoin="round" stroke-width="1.5"/><circle cx="12" cy="12" r="10" fill="none" stroke="#323232" stroke-linecap="round" stroke-linejoin="round" stroke-width="1.5"/></svg>