<?xml version="1.0" encoding="UTF-8"?><svg version="1.1" viewBox="0 0 24 24" xmlns="http://www.w3.org/2000/svg" xmlns:xlink="http://www.w3.org/1999/xlink"><g stroke-linecap="round" stroke-width="1.5" stroke="#323232" fill="none" stroke-linejoin="round"><line x1="12" x2="12" y1="17.5" y2="15.75"></line><line x1="9.35" x2="8.11" y1="14.65" y2="15.89"></line><line x1="8.25" x2="6.5" y1="12" y2="12"></line><line x1="9.35" x2="8.11" y1="9.35" y2="8.11"></line><line x1="12" x2="12" y1="8" y2="6.5"></line><line x1="15.18" x2="15.89" y1="8.82" y2="8.11"></line><line x1="17.5" x2="17" y1="12" y2="12"></line><circle cx="12" cy="12" r="9"></circle><path d="M15.939 15.889v0c0-.0276142-.0223858-.05-.05-.05 0 0-1.77636e-15 0-1.77636e-15 0h-2.18557e-09c-.0276142 1.20706e-09-.05.0223858-.05.05 0 0 0 1.77636e-15 0 1.77636e-15v-3.27242e-09c-4.16963e-09.0276142.0223858.05.05.05 .0276142 4.16963e-09.05-.0223858.05-.05 1.77636e-15-2.78809e-09 1.77636e-15-5.70688e-09 1.77636e-15-8.49497e-09"></path></g><path fill="none" d="M0 0h24v24h-24Z"></path></svg>