<?xml version="1.0" encoding="UTF-8"?><svg version="1.1" viewBox="0 0 24 24" xmlns="http://www.w3.org/2000/svg" xmlns:xlink="http://www.w3.org/1999/xlink"><path d="M9.347 16.267v-9.847c0-1.332-1.079-2.411-2.411-2.411v0c-1.099 0-2.058.743-2.334 1.806l-2.49 9.61" stroke-linecap="round" stroke-width="1.5" stroke="#323232" fill="none" stroke-linejoin="round"></path><path fill="none" stroke="#323232" stroke-width="1.5" d="M8.27191 13.7281c1.43479 1.43479 1.43479 3.76103 0 5.19582 -1.43479 1.43479-3.76103 1.43479-5.19582 0 -1.43479-1.43479-1.43479-3.76103-8.88178e-16-5.19582 1.43479-1.43479 3.76103-1.43479 5.19582 0"></path><g stroke-linecap="round" stroke-width="1.5" stroke="#323232" fill="none" stroke-linejoin="round"><path d="M14.653 16.267v-9.847c0-1.332 1.079-2.411 2.411-2.411v0c1.099 0 2.058.743 2.334 1.806l2.49 9.61"></path><path d="M14.653 10c0-1.468-1.188-2.658-2.653-2.658 -1.465 0-2.653 1.19-2.653 2.658"></path><path d="M9.347 16c0-1.468 1.188-2.658 2.653-2.658 1.465 0 2.653 1.19 2.653 2.658"></path></g><path fill="none" stroke="#323232" stroke-width="1.5" d="M20.9239 13.7281c1.43479 1.43479 1.43479 3.76103 0 5.19582 -1.43479 1.43479-3.76103 1.43479-5.19582 0 -1.43479-1.43479-1.43479-3.76103 0-5.19582 1.43479-1.43479 3.76103-1.43479 5.19582 0"></path><path d="M0 0h24v24h-24Z" fill="none"></path></svg>