<svg xmlns="http://www.w3.org/2000/svg" viewBox="0 0 24 24"><path d="M14.34369,19.33725,13.351,21.2042a1.5,1.5,0,0,1-2.66071-.02272L9.7574,19.35225a1,1,0,0,0-1.18063-.50276l-2.14046.64812a1.5,1.5,0,0,1-1.86868-1.87582L5.202,15.55524a1,1,0,0,0-.48388-1.175L2.79188,13.34869a1.5,1.5,0,0,1,.00047-2.64491L4.718,9.67343A1,1,0,0,0,5.20227,8.4986l-.62847-2.05A1.5,1.5,0,0,1,6.451,4.57588l2.027.62671a1,1,0,0,0,1.17832-.48591L10.6777,2.7958A1.5,1.5,0,0,1,13.32615,2.795l1.01824,1.9123a1,1,0,0,0,1.17585.48606l2.03489-.624a1.5,1.5,0,0,1,1.87374,1.87428l-.63082,2.055a1,1,0,0,0,.48388,1.175l1.92623,1.03155a1.5,1.5,0,0,1-.00047,2.64491L19.28206,14.3805a1,1,0,0,0-.48429,1.17482l.62847,2.05A1.5,1.5,0,0,1,17.549,19.478l-2.027-.6267A1,1,0,0,0,14.34369,19.33725Z" fill="none" stroke="#323232" stroke-linecap="round" stroke-linejoin="round" stroke-width="1.5"/><circle cx="12" cy="12" r="3" fill="none" stroke="#323232" stroke-linecap="round" stroke-linejoin="round" stroke-width="1.5"/></svg>