<svg xmlns="http://www.w3.org/2000/svg" viewBox="0 0 24 24"><path d="M0,24H24V0H0Z" fill="none"/><rect x="2" y="2" width="20" height="20" rx="9.99999" stroke-width="1.5" stroke="#323232" stroke-linecap="round" stroke-linejoin="round" fill="none"/><path d="M11.66667,13.49994l1.05555,0A2.77778,2.77778,0,0,0,15.5,10.72221V9.77778A2.77777,2.77777,0,0,0,12.72222,7H9.77778A2.77778,2.77778,0,0,0,7,9.77778V10" fill="none" stroke="#323232" stroke-linecap="round" stroke-linejoin="round" stroke-width="1.5"/><path d="M12.33333,10.50007l-1.05555,0A2.77777,2.77777,0,0,0,8.5,13.27779v.94444A2.77778,2.77778,0,0,0,11.27778,17h2.94444A2.77777,2.77777,0,0,0,17,14.22222V14" fill="none" stroke="#323232" stroke-linecap="round" stroke-linejoin="round" stroke-width="1.5"/></svg>