<svg xmlns="http://www.w3.org/2000/svg" viewBox="0 0 24 24"><path d="M20.38077,10.25H20.5a1.5,1.5,0,0,1,1.5,1.5v.5a1.5,1.5,0,0,1-1.5,1.5h-.11924a1.51346,1.51346,0,0,0-1.40251.981q-.05316.13565-.11141.26868a1.51491,1.51491,0,0,0,.29685,1.68907l.08418.08417a1.5,1.5,0,0,1,0,2.12133l-.35359.35358a1.5,1.5,0,0,1-2.1213,0l-.08417-.08417a1.51492,1.51492,0,0,0-1.68911-.29683q-.133.05825-.26868.11142a1.51346,1.51346,0,0,0-.981,1.40251V20.5a1.5,1.5,0,0,1-1.5,1.5h-.5a1.5,1.5,0,0,1-1.5-1.5v-.11924a1.51346,1.51346,0,0,0-.981-1.40251q-.13565-.05316-.26868-.11142a1.51492,1.51492,0,0,0-1.68911.29683l-.08417.08417a1.5,1.5,0,0,1-2.1213,0l-.35359-.35358a1.5,1.5,0,0,1,0-2.12133l.08418-.08417a1.51491,1.51491,0,0,0,.29685-1.68907q-.05823-.133-.11141-.26868a1.51346,1.51346,0,0,0-1.40251-.981H3.5A1.5,1.5,0,0,1,2,12.25v-.5a1.5,1.5,0,0,1,1.5-1.5h.11924a1.51346,1.51346,0,0,0,1.40251-.981q.05316-.13565.11141-.26868A1.51491,1.51491,0,0,0,4.8363,7.31123L4.75211,7.227a1.5,1.5,0,0,1,0-2.12131l.35361-.35361a1.5,1.5,0,0,1,2.12131,0l.08419.08419a1.51491,1.51491,0,0,0,1.68907.29685q.133-.05823.26868-.11141a1.51346,1.51346,0,0,0,.981-1.40251V3.5A1.5,1.5,0,0,1,11.75,2h.5a1.5,1.5,0,0,1,1.5,1.5v.11924a1.51346,1.51346,0,0,0,.981,1.40251q.13565.05316.26868.11141a1.51491,1.51491,0,0,0,1.68907-.29685l.08419-.08419a1.5,1.5,0,0,1,2.12131,0l.35361.35361a1.5,1.5,0,0,1,0,2.12131l-.08419.08419a1.51491,1.51491,0,0,0-.29685,1.68907q.05823.133.11141.26868A1.51346,1.51346,0,0,0,20.38077,10.25Z" fill="none" stroke="#323232" stroke-linecap="round" stroke-linejoin="round" stroke-width="1.5"/><circle cx="12" cy="12" r="3.5" fill="none" stroke="#323232" stroke-linecap="round" stroke-linejoin="round" stroke-width="1.5"/></svg>