<svg xmlns="http://www.w3.org/2000/svg" viewBox="0 0 24 24"><path d="M16.93463,5.31027,15.67528,5.696a7.26409,7.26409,0,0,0-1.052-.50554l-.4773-1.209a2,2,0,0,0-1.86028-1.26559h-.57146A2,2,0,0,0,9.854,3.98141l-.4773,1.209a7.26409,7.26409,0,0,0-1.052.50554L7.06537,5.31027A2,2,0,0,0,4.916,5.97561l-.34777.43608a2,2,0,0,0-.1704,2.24351l.64462,1.1217a7.27133,7.27133,0,0,0-.26292,1.16919l-1.1067.75778A2,2,0,0,0,2.853,13.79915l.11726.51372a2,2,0,0,0,1.64782,1.532l1.29783.19827a7.32659,7.32659,0,0,0,.77091.9623l-.09822,1.347a2,2,0,0,0,1.12692,1.94738l.45247.2179a2,2,0,0,0,2.22519-.3331l.98313-.90856c.20609.01747.41316.03149.62374.03149s.41765-.014.62374-.03149l.98313.90856a2,2,0,0,0,2.22519.3331l.45247-.2179a2,2,0,0,0,1.12692-1.94738l-.09822-1.347a7.32659,7.32659,0,0,0,.77091-.9623l1.29783-.19827a2,2,0,0,0,1.64782-1.532l.11726-.51372a2,2,0,0,0-.81992-2.09528l-1.1067-.75778a7.27133,7.27133,0,0,0-.26292-1.16919l.64462-1.1217a2,2,0,0,0-.1704-2.24351L19.084,5.97561A2,2,0,0,0,16.93463,5.31027Z" fill="none" stroke="#323232" stroke-linecap="round" stroke-linejoin="round" stroke-width="1.5"/><circle cx="12" cy="12" r="3" fill="none" stroke="#323232" stroke-linecap="round" stroke-linejoin="round" stroke-width="1.5"/><rect width="24" height="24" fill="none"/></svg>