<svg xmlns="http://www.w3.org/2000/svg" viewBox="0 0 24 24"><path d="M4.64408,7.23l1.54474-.12552a1,1,0,0,0,.91572-.91572L7.23006,4.644A1.78889,1.78889,0,0,1,8.32849,3.13619h0a1.78888,1.78888,0,0,1,1.84293.2895l1.18107,1.00359a1,1,0,0,0,1.295,0l1.18108-1.00359a1.78888,1.78888,0,0,1,1.84293-.2895h0A1.78889,1.78889,0,0,1,16.77,4.644l.12551,1.54475a1,1,0,0,0,.91573.91572L19.356,7.23A1.78889,1.78889,0,0,1,20.8638,8.32844h0a1.78888,1.78888,0,0,1-.2895,1.84293l-1.00359,1.18107a1,1,0,0,0,0,1.295l1.00359,1.18108a1.78888,1.78888,0,0,1,.2895,1.84293h0A1.78889,1.78889,0,0,1,19.356,16.76993l-1.54475.12551a1,1,0,0,0-.91572.91573L16.77,19.356a1.78886,1.78886,0,0,1-1.09842,1.50783h0a1.78887,1.78887,0,0,1-1.84292-.2895l-1.18108-1.00359a1,1,0,0,0-1.295,0l-1.18107,1.00359a1.78888,1.78888,0,0,1-1.84293.2895h0A1.78889,1.78889,0,0,1,7.23006,19.356l-.12552-1.54481a1,1,0,0,0-.91572-.91573l-1.54477-.12552a1.78887,1.78887,0,0,1-1.50783-1.09839h0a1.78889,1.78889,0,0,1,.28949-1.843l1.00356-1.18105a1,1,0,0,0,0-1.295L3.42572,10.17137a1.78891,1.78891,0,0,1-.28949-1.84292h0A1.78891,1.78891,0,0,1,4.64408,7.23Z" fill="none" stroke="#323232" stroke-linecap="round" stroke-linejoin="round" stroke-width="1.5"/><circle cx="12" cy="12" r="3" fill="none" stroke="#323232" stroke-linecap="round" stroke-linejoin="round" stroke-width="1.5"/></svg>