<svg xmlns="http://www.w3.org/2000/svg" viewBox="0 0 24 24"><path d="M7.28787,20.17642h0a2.415,2.415,0,0,0,2.62824-.1386l.85309-.62066a1.04625,1.04625,0,0,1,.61554-.20022h1.28188a1.04634,1.04634,0,0,1,.61556.20023l.794.57768a2.415,2.415,0,0,0,2.62825.13862h0A2.41494,2.41494,0,0,0,17.89849,17.788l-.10328-.97643a1.04635,1.04635,0,0,1,.13436-.63317l.63326-1.0969a1.04628,1.04628,0,0,1,.48119-.433l.89725-.39877A2.415,2.415,0,0,0,21.37544,12.043h0a2.415,2.415,0,0,0-1.43416-2.20681l-.79712-.35428a1.04628,1.04628,0,0,1-.48117-.433l-.79634-1.3793a1.04627,1.04627,0,0,1-.13437-.63319L17.824,6.169A2.415,2.415,0,0,0,16.63,3.82353h0a2.415,2.415,0,0,0-2.62826.13861l-.794.57766a1.04623,1.04623,0,0,1-.61556.20023h-1.4001a1.04628,1.04628,0,0,1-.61554-.20023l-.73485-.53464a2.41493,2.41493,0,0,0-2.62823-.13861h0A2.415,2.415,0,0,0,6.01935,6.212l.111,1.04911a1.04626,1.04626,0,0,1-.13438.63321l-.57418.99447a1.04623,1.04623,0,0,1-.48116.43295l-.96406.42847A2.415,2.415,0,0,0,2.54238,11.957h0a2.415,2.415,0,0,0,1.43415,2.20682l.93064.41361a1.04632,1.04632,0,0,1,.48117.433l.6782,1.17467a1.04637,1.04637,0,0,1,.13437.6332L6.09379,17.831A2.415,2.415,0,0,0,7.28787,20.17642Z" fill="none" stroke="#323232" stroke-linecap="round" stroke-linejoin="round" stroke-width="1.5"/><circle cx="12.00001" cy="12" r="3" fill="none" stroke="#323232" stroke-linecap="round" stroke-linejoin="round" stroke-width="1.5"/><path d="M0,0H24V24H0Z" fill="none"/></svg>