<svg xmlns="http://www.w3.org/2000/svg" viewBox="0 0 24 24"><path d="M5.07178,12.66364V11.33637l-.90961-1.02576a2,2,0,0,1-.23566-2.32695l.55847-.9673A2,2,0,0,1,6.618,6.057l1.34316.27488,1.14948-.6637.4335-1.30058A2,2,0,0,1,11.44154,3h1.11692a2,2,0,0,1,1.89738,1.36757l.4335,1.30058,1.14948.6637L17.382,6.057a2,2,0,0,1,2.133.95939l.55847.9673a2,2,0,0,1-.23566,2.327l-.90961,1.02576v1.32727l.90961,1.02576a2,2,0,0,1,.23566,2.327l-.55847.96729a2,2,0,0,1-2.133.95939l-1.34316-.27488-1.14948.6637-.4335,1.30058A2,2,0,0,1,12.55846,21H11.44154a2,2,0,0,1-1.89738-1.36757l-.4335-1.30058-1.14948-.6637L6.618,17.943a2,2,0,0,1-2.133-.95939l-.55847-.96729a2,2,0,0,1,.23566-2.32695Z" fill="none" stroke="#323232" stroke-linecap="round" stroke-linejoin="round" stroke-width="1.5"/><circle cx="12" cy="12" r="3" fill="none" stroke="#323232" stroke-linecap="round" stroke-linejoin="round" stroke-width="1.5"/><path d="M0,0H24V24H0Z" fill="none"/></svg>