<svg xmlns="http://www.w3.org/2000/svg" viewBox="0 0 24 24"><circle cx="12" cy="11.99999" r="3.25" fill="none" stroke="#323232" stroke-linecap="round" stroke-linejoin="round" stroke-width="1.5"/><path d="M10.18182,3.9892V3.5a1.5,1.5,0,0,1,1.5-1.5h.63636a1.5,1.5,0,0,1,1.5,1.5v.4892a1.5,1.5,0,0,0,2.56066,1.06066l.34591-.34591a1.5,1.5,0,0,1,2.12132,0l.45.45a1.5,1.5,0,0,1,0,2.12132l-.34591.34591a1.5,1.5,0,0,0,1.06066,2.56066H20.5a1.5,1.5,0,0,1,1.5,1.5v.63636a1.5,1.5,0,0,1-1.5,1.5h-.4892a1.5,1.5,0,0,0-1.06066,2.56066l.34591.34591a1.5,1.5,0,0,1,0,2.12132l-.45.45a1.5,1.5,0,0,1-2.12132,0l-.34591-.34591a1.5,1.5,0,0,0-2.56066,1.06066V20.5a1.5,1.5,0,0,1-1.5,1.5h-.63636a1.5,1.5,0,0,1-1.5-1.5v-.4892a1.5,1.5,0,0,0-2.56066-1.06066l-.34591.34591a1.5,1.5,0,0,1-2.12132,0l-.45-.45a1.5,1.5,0,0,1,0-2.12132l.34591-.34591A1.5,1.5,0,0,0,3.9892,13.81818H3.5a1.5,1.5,0,0,1-1.5-1.5v-.63636a1.5,1.5,0,0,1,1.5-1.5h.4892A1.5,1.5,0,0,0,5.04986,7.62116L4.704,7.27525a1.5,1.5,0,0,1,0-2.12132l.45-.45a1.5,1.5,0,0,1,2.12132,0l.34591.34591A1.5,1.5,0,0,0,10.18182,3.9892Z" fill="none" stroke="#323232" stroke-linecap="round" stroke-linejoin="round" stroke-width="1.5"/><rect width="24" height="24" fill="none"/></svg>