<svg xmlns="http://www.w3.org/2000/svg" viewBox="0 0 24 24"><path d="M19.07106,19.07106h0a1.618,1.618,0,0,1-1.65575.39085l-.45519-.15173a2.69876,2.69876,0,0,0-1.88725.07151l-.0178.00734a2.69985,2.69985,0,0,0-1.3932,1.28728l-.21464.42926A1.618,1.618,0,0,1,12,22h0a1.618,1.618,0,0,1-1.44722-.89442l-.21464-.42926A2.69985,2.69985,0,0,0,8.94494,19.389l-.0178-.00734a2.69876,2.69876,0,0,0-1.88725-.07151l-.45519.15173A1.618,1.618,0,0,1,4.929,19.07107h0a1.618,1.618,0,0,1-.39089-1.65581l.14956-.44869a2.70725,2.70725,0,0,0-.07272-1.89513l-.00737-.01784a2.707,2.707,0,0,0-1.29-1.39481l-.42312-.21156A1.61805,1.61805,0,0,1,2,12H2a1.618,1.618,0,0,1,.89444-1.44722l.41424-.20711A2.71916,2.71916,0,0,0,4.60541,8.94179l.00738-.01793a2.71751,2.71751,0,0,0,.0717-1.89981l-.14644-.4393a1.61806,1.61806,0,0,1,.39088-1.65583h0A1.61807,1.61807,0,0,1,6.58474,4.538l.43285.14429a2.72614,2.72614,0,0,0,1.9076-.07291l.018-.00741a2.72629,2.72629,0,0,0,1.40562-1.29951l.204-.40806A1.618,1.618,0,0,1,12,2h0a1.618,1.618,0,0,1,1.4472.89443l.204.40806A2.72629,2.72629,0,0,0,15.05685,4.602l.018.00741a2.72614,2.72614,0,0,0,1.9076.07291l.43285-.14429a1.61807,1.61807,0,0,1,1.65581.39089h0A1.61806,1.61806,0,0,1,19.462,6.58475l-.14644.4393a2.71751,2.71751,0,0,0,.0717,1.89981l.00738.01793a2.71916,2.71916,0,0,0,1.29673,1.40389l.41424.20711A1.618,1.618,0,0,1,22,12h0a1.61805,1.61805,0,0,1-.89441,1.44721l-.42312.21156a2.707,2.707,0,0,0-1.29,1.39481l-.00737.01784a2.70725,2.70725,0,0,0-.07272,1.89513l.14956.44869A1.618,1.618,0,0,1,19.07106,19.07106Z" fill="none" stroke="#323232" stroke-linecap="round" stroke-linejoin="round" stroke-width="1.5"/><circle cx="12" cy="12" r="3" fill="none" stroke="#323232" stroke-linecap="round" stroke-linejoin="round" stroke-width="1.5"/></svg>