<svg xmlns="http://www.w3.org/2000/svg" viewBox="0 0 24 24"><path d="M3.92265,16.08072l.52519.90966a1.5,1.5,0,0,0,1.45681.74168l1.525-.16129a1,1,0,0,1,.60517.12843l1.061.61258a1,1,0,0,1,.41382.4599l.59443,1.33751A1.5,1.5,0,0,0,11.47482,21h1.05037a1.5,1.5,0,0,0,1.37072-.8908l.59442-1.33748a1,1,0,0,1,.41379-.45987l1.04836-.60531a1,1,0,0,1,.60521-.12844l1.4555.154A1.5,1.5,0,0,0,19.47,16.99038l.52519-.90966a1.5,1.5,0,0,0-.08609-1.63247l-.79947-1.09885a1,1,0,0,1-.19137-.58832V11.23886a1,1,0,0,1,.19137-.58832l.79947-1.09885a1.5,1.5,0,0,0,.08609-1.63247L19.47,7.00956a1.5,1.5,0,0,0-1.45682-.74168l-1.45551.154a1,1,0,0,1-.6052-.12843l-1.15888-.6691a1,1,0,0,1-.41381-.45989l-.566-1.27362A1.5,1.5,0,0,0,12.443,3H11.39266a1.5,1.5,0,0,0-1.37072.8908l-.6228,1.4013a1,1,0,0,1-.41383.4599l-.9505.54875a1.00007,1.00007,0,0,1-.60516.12842l-1.525-.1613a1.5,1.5,0,0,0-1.45681.74169l-.52519.90966a1.5,1.5,0,0,0,.08609,1.63247l.88162,1.21177a1,1,0,0,1,.19137.58831v1.2964a1,1,0,0,1-.19137.58831l-.88162,1.21177A1.5,1.5,0,0,0,3.92265,16.08072Z" fill="none" stroke="#323232" stroke-linecap="round" stroke-linejoin="round" stroke-width="1.5"/><circle cx="12.00001" cy="12" r="3" fill="none" stroke="#323232" stroke-linecap="round" stroke-linejoin="round" stroke-width="1.5"/><path d="M0,0H24V24H0Z" fill="none"/></svg>