<svg xmlns="http://www.w3.org/2000/svg" viewBox="0 0 24 24"><path d="M24,24H0V0H24Z" fill="none"/><path d="M12.33333,13.49994l-1.05555,0A2.77778,2.77778,0,0,1,8.5,10.72221V9.77778A2.77778,2.77778,0,0,1,11.27778,7h2.94444A2.77778,2.77778,0,0,1,17,9.77778V10" fill="none" stroke="#323232" stroke-linecap="round" stroke-linejoin="round" stroke-width="1.5"/><path d="M11.66667,10.50007l1.05555,0A2.77777,2.77777,0,0,1,15.5,13.27779v.94444A2.77777,2.77777,0,0,1,12.72222,17H9.77778A2.77777,2.77777,0,0,1,7,14.22222V14" fill="none" stroke="#323232" stroke-linecap="round" stroke-linejoin="round" stroke-width="1.5"/><rect x="3" y="3" width="18" height="18" rx="5" transform="translate(24 24) rotate(-180)" stroke-width="1.5" stroke="#323232" stroke-linecap="round" stroke-linejoin="round" fill="none"/></svg>