<svg xmlns="http://www.w3.org/2000/svg" viewBox="0 0 24 24"><path d="M20.57472,10h0A1.42528,1.42528,0,0,1,22,11.42528v1.14944A1.42528,1.42528,0,0,1,20.57472,14h0a1.533,1.533,0,0,0-1.417.9551l-.00776.0188a1.53237,1.53237,0,0,0,.32755,1.67513h0a1.42528,1.42528,0,0,1,0,2.01564l-.81279.81279a1.42528,1.42528,0,0,1-2.01564,0h0a1.53235,1.53235,0,0,0-1.67513-.32756l-.0188.00776A1.533,1.533,0,0,0,14,20.57472h0A1.42528,1.42528,0,0,1,12.57472,22H11.42528A1.42528,1.42528,0,0,1,10,20.57472h0a1.533,1.533,0,0,0-.9551-1.417l-.0188-.00776a1.53235,1.53235,0,0,0-1.67513.32756h0a1.42528,1.42528,0,0,1-2.01564,0l-.81279-.81279a1.42528,1.42528,0,0,1,0-2.01564h0a1.53237,1.53237,0,0,0,.32755-1.67513l-.00776-.0188A1.533,1.533,0,0,0,3.42528,14h0A1.42528,1.42528,0,0,1,2,12.57472V11.42528A1.42528,1.42528,0,0,1,3.42528,10h0a1.533,1.533,0,0,0,1.417-.9551l.00776-.0188A1.53237,1.53237,0,0,0,4.52254,7.351h0a1.42528,1.42528,0,0,1,0-2.01564l.81279-.81279a1.42528,1.42528,0,0,1,2.01564,0h0a1.53237,1.53237,0,0,0,1.67513.32755l.0188-.00776A1.533,1.533,0,0,0,10,3.42528h0A1.42528,1.42528,0,0,1,11.42528,2h1.14944A1.42528,1.42528,0,0,1,14,3.42528h0a1.533,1.533,0,0,0,.9551,1.417l.0188.00776A1.53237,1.53237,0,0,0,16.649,4.52254h0a1.42528,1.42528,0,0,1,2.01564,0l.81279.81279a1.42528,1.42528,0,0,1,0,2.01564h0a1.53237,1.53237,0,0,0-.32755,1.67513l.00776.0188A1.533,1.533,0,0,0,20.57472,10Z" fill="none" stroke="#323232" stroke-linecap="round" stroke-linejoin="round" stroke-width="1.5"/><circle cx="12" cy="12" r="3" fill="none" stroke="#323232" stroke-linecap="round" stroke-linejoin="round" stroke-width="1.5"/></svg>