<svg xmlns="http://www.w3.org/2000/svg" viewBox="0 0 24 24"><path d="M0,0H24V24H0Z" fill="none"/><circle cx="12" cy="12" r="3.5" fill="none" stroke="#323232" stroke-linecap="round" stroke-linejoin="round" stroke-width="1.5"/><path d="M16.37035,20.799l1.14216-.65943a1.5,1.5,0,0,0,.74167-1.4568l-.1849-1.74821a1.08951,1.08951,0,0,1,.13992-.65933l.6674-1.156a1.0895,1.0895,0,0,1,.50106-.45085l1.53691-.68305a1.5,1.5,0,0,0,.89081-1.37072V11.29583a1.5,1.5,0,0,0-.89079-1.37072l-1.53689-.683a1.08947,1.08947,0,0,1-.501-.45082L18.2172,7.64908a1.08951,1.08951,0,0,1-.13993-.65937l.17691-1.67251a1.5,1.5,0,0,0-.74168-1.45682L16.37035,3.201a1.5,1.5,0,0,0-1.63247.0861l-1.26773.92233a1.08948,1.08948,0,0,1-.641.20849H11.17074a1.0895,1.0895,0,0,1-.641-.20849L9.26206,3.28706A1.5,1.5,0,0,0,7.62959,3.201l-1.14215.65942A1.5,1.5,0,0,0,5.74576,5.3172l.17691,1.67252a1.08951,1.08951,0,0,1-.13993.65935l-.729,1.26259a1.08946,1.08946,0,0,1-.501.45083l-1.46731.65213a1.5,1.5,0,0,0-.8908,1.37072v1.31883a1.5,1.5,0,0,0,.89079,1.37072l1.60642.714a1.08945,1.08945,0,0,1,.501.45086l.59786,1.03556a1.08947,1.08947,0,0,1,.13991.65932l-.1849,1.74822a1.5,1.5,0,0,0,.74168,1.4568l1.14216.65943a1.5,1.5,0,0,0,1.63247-.0861l1.39074-1.01183a1.0895,1.0895,0,0,1,.641-.20849h1.41241a1.08948,1.08948,0,0,1,.641.20849l1.39075,1.01183A1.5,1.5,0,0,0,16.37035,20.799Z" fill="none" stroke="#323232" stroke-linecap="round" stroke-linejoin="round" stroke-width="1.5"/></svg>