<svg id="Layer_3" data-name="Layer 3" xmlns="http://www.w3.org/2000/svg" viewBox="0 0 24 24"><path d="M7,9.71983v2.8333c0,2.11834,2.96833,3.69167,4.33333,4.30334a1.62007,1.62007,0,0,0,1.33334,0C14.03167,16.2448,17,14.6748,17,12.55313V9.71983a1.66667,1.66667,0,0,0-1.10167-1.56667l-2.545-.91667a4.00007,4.00007,0,0,0-2.71,0l-2.54166.915A1.66667,1.66667,0,0,0,7,9.71983Z" fill="none" stroke="#323232" stroke-linecap="round" stroke-linejoin="round" stroke-width="1.5"/><rect x="3" y="3" width="18" height="18" rx="5" stroke-width="1.5" stroke="#323232" stroke-linecap="round" stroke-linejoin="round" fill="none"/><polyline points="10.75 11.653 11.75 12.653 13.25 11.153" fill="none" stroke="#323232" stroke-linecap="round" stroke-linejoin="round" stroke-width="1.5"/><path d="M0,24V0H24V24Z" fill="none"/><rect width="24" height="24" fill="none"/></svg>