<svg xmlns="http://www.w3.org/2000/svg" viewBox="0 0 24 24"><path d="M7,10.5a7.25,7.25,0,0,1,10,0" fill="none" stroke="#323232" stroke-linecap="round" stroke-linejoin="round" stroke-width="1.5"/><path d="M10.75,14.5a1.81249,1.81249,0,0,1,2.5,0" fill="none" stroke="#323232" stroke-linecap="round" stroke-linejoin="round" stroke-width="1.5"/><path d="M8.75,12.5a4.85,4.85,0,0,1,6.5,0" fill="none" stroke="#323232" stroke-linecap="round" stroke-linejoin="round" stroke-width="1.5"/><path d="M10.94091,20.89513h0A9.87818,9.87818,0,0,1,3,11.20878V8A5,5,0,0,1,8,3h8a5,5,0,0,1,5,5v3.20877a9.87818,9.87818,0,0,1-7.94069,9.6863l-.00023,0A5.4,5.4,0,0,1,10.94091,20.89513Z" fill="none" stroke="#323232" stroke-linecap="round" stroke-linejoin="round" stroke-width="1.5"/></svg>