<svg xmlns="http://www.w3.org/2000/svg" viewBox="0 0 24 24"><path d="M10.9409,20.89514h0A9.87815,9.87815,0,0,1,3,11.20879V8A5,5,0,0,1,8,3h8a5,5,0,0,1,5,5v3.20876a9.87819,9.87819,0,0,1-7.9407,9.68631l-.00022,0A5.40017,5.40017,0,0,1,10.9409,20.89514Z" fill="none" stroke="#323232" stroke-linecap="round" stroke-linejoin="round" stroke-width="1.5"/><path d="M7.83768,8.83814l-.0005.00049a2.87018,2.87018,0,0,0,.15333,4.19509l2.98014,2.58272a1.57015,1.57015,0,0,0,2.05659,0L16.011,13.03058a2.86569,2.86569,0,0,0,.15309-4.18853h0a2.8598,2.8598,0,0,0-3.89315-.14151c-.1662.14364-.272.23522-.272.23522l-.27643-.23957A2.84975,2.84975,0,0,0,7.83768,8.83814Z" fill="none" stroke="#323232" stroke-linecap="round" stroke-linejoin="round" stroke-width="1.5"/></svg>