<svg xmlns="http://www.w3.org/2000/svg" viewBox="0 0 24 24"><path d="M20,22H9a1.99946,1.99946,0,0,1-2-2V10A1.99944,1.99944,0,0,1,9,8H20a1.99944,1.99944,0,0,1,2,2V20A2.0001,2.0001,0,0,1,20,22Z" fill="none" stroke="#323232" stroke-linecap="round" stroke-linejoin="round" stroke-width="1.5"/><line x1="12.49999" y1="15" x2="16.49999" y2="15" fill="none" stroke="#323232" stroke-linecap="round" stroke-linejoin="round" stroke-width="1.5"/><line x1="14.49999" y1="17" x2="14.49999" y2="13" fill="none" stroke="#323232" stroke-linecap="round" stroke-linejoin="round" stroke-width="1.5"/><path d="M17.56934,8l-.76648-4.34692A1.99946,1.99946,0,0,0,14.486,2.03073L3.65308,3.94083a1.99943,1.99943,0,0,0-1.62232,2.317l1.73645,9.84809a1.9995,1.9995,0,0,0,2.3169,1.62231L7,17.56668" fill="none" stroke="#323232" stroke-linecap="round" stroke-linejoin="round" stroke-width="1.5"/></svg>