<svg xmlns="http://www.w3.org/2000/svg" viewBox="0 0 24 24"><path d="M24,0V24H0V0Z" fill="none"/><path d="M11,19.99854V11.66888a1.5,1.5,0,0,0-.76461-1.30736L4.49026,7.12988A1,1,0,0,0,3,8.00146v8.32966a1.5,1.5,0,0,0,.76461,1.30736l5.74513,3.23164A1,1,0,0,0,11,19.99854Z" fill="none" stroke="#323232" stroke-linecap="round" stroke-linejoin="round" stroke-width="1.5"/><path d="M8,9.10413V6.00287a1,1,0,0,1,1.49023-.87152L15.23541,8.363A1.5,1.5,0,0,1,16,9.67035V18a1,1,0,0,1-1.49023.87158L11,16.89734" fill="none" stroke="#323232" stroke-linecap="round" stroke-linejoin="round" stroke-width="1.5"/><path d="M13,7.10559V4.00146a1,1,0,0,1,1.49023-.87158l5.74518,3.23163A1.5,1.5,0,0,1,21,7.66888v8.32966a1,1,0,0,1-1.49023.87158L16,14.89587" fill="none" stroke="#323232" stroke-linecap="round" stroke-linejoin="round" stroke-width="1.5"/></svg>