<svg xmlns="http://www.w3.org/2000/svg" viewBox="0 0 24 24"><path d="M6.89909,20.62131,3.37868,17.1009A3,3,0,0,1,2.5,14.97958V9.02143A3,3,0,0,1,3.37869,6.9001L6.90017,3.37867A3,3,0,0,1,9.02147,2.5h5.95706a3,3,0,0,1,2.12132.87868l3.52147,3.52148A3,3,0,0,1,21.5,9.02148v5.95806a3,3,0,0,1-.87835,2.121L17.10231,20.621a3,3,0,0,1-2.12166.879H9.02041A3,3,0,0,1,6.89909,20.62131Z" fill="none" stroke="#323232" stroke-linecap="round" stroke-linejoin="round" stroke-width="1.5"/><path d="M8.71687,12.92368l-1.34863-1.346A1.25,1.25,0,0,1,8.048,9.45962l1.78052-.2934L10.89691,7.162a1.25,1.25,0,0,1,2.20618,0l1.06836,2.00422,1.78052.2934a1.25,1.25,0,0,1,.67979,2.11808l-1.34863,1.346.324,2.1365a1.25,1.25,0,0,1-1.78308,1.31128L12,15.48338l-1.82408.88808a1.25,1.25,0,0,1-1.78308-1.31128Z" fill="none" stroke="#323232" stroke-linecap="round" stroke-linejoin="round" stroke-width="1.5"/></svg>