<svg xmlns="http://www.w3.org/2000/svg" viewBox="0 0 24 24"><path d="M7.06242,8.92362a1.5,1.5,0,0,1,1.86119-1.8612l2.6547.77767a1.5,1.5,0,0,0,.84338,0l2.65469-.77767a1.5,1.5,0,0,1,1.8612,1.8612l-.77767,2.65469a1.50015,1.50015,0,0,0,0,.84338l.77767,2.6547a1.5,1.5,0,0,1-1.86119,1.86119l-2.6547-.77766a1.5,1.5,0,0,0-.84338,0l-2.65469.77767a1.5,1.5,0,0,1-1.8612-1.8612l.77767-2.6547a1.50012,1.50012,0,0,0,0-.84337Z" fill="none" stroke="#323232" stroke-linecap="round" stroke-linejoin="round" stroke-width="1.5"/><rect x="3" y="3" width="18" height="18" rx="5" transform="translate(0 24) rotate(-90)" stroke-width="1.5" stroke="#323232" stroke-linecap="round" stroke-linejoin="round" fill="none"/></svg>