<svg xmlns="http://www.w3.org/2000/svg" viewBox="0 0 24 24"><rect width="24" height="24" fill="none"/><rect x="2.5" y="2.5" width="19" height="19" rx="9.49999" stroke-width="1.5" stroke="#323232" stroke-linecap="round" stroke-linejoin="round" fill="none"/><path d="M9.82855,9.41622,10.89691,7.412a1.25,1.25,0,0,1,2.20618,0l1.06836,2.00422" fill="none" stroke="#323232" stroke-linecap="round" stroke-linejoin="round" stroke-width="1.5"/><path d="M9.82855,9.41622,8.048,9.70962a1.25,1.25,0,0,0-.67979,2.11808l1.34863,1.346" fill="none" stroke="#323232" stroke-linecap="round" stroke-linejoin="round" stroke-width="1.5"/><path d="M14.17145,9.41622l1.78052.2934a1.25,1.25,0,0,1,.67979,2.11808l-1.34863,1.346" fill="none" stroke="#323232" stroke-linecap="round" stroke-linejoin="round" stroke-width="1.5"/><path d="M8.71687,13.17368l-.324,2.1365a1.25,1.25,0,0,0,1.78308,1.31128L12,15.73338" fill="none" stroke="#323232" stroke-linecap="round" stroke-linejoin="round" stroke-width="1.5"/><path d="M15.28313,13.17368l.324,2.1365a1.25,1.25,0,0,1-1.78308,1.31128L12,15.73338" fill="none" stroke="#323232" stroke-linecap="round" stroke-linejoin="round" stroke-width="1.5"/></svg>