<svg xmlns="http://www.w3.org/2000/svg" viewBox="0 0 24 24"><path d="M6.64479,12.93479l2.13258.81035a6,6,0,0,1,3.4775,3.4775l.81034,2.13258a1,1,0,0,0,1.86957,0l.81035-2.13258a6,6,0,0,1,3.4775-3.4775l2.13258-.81035a1,1,0,0,0,0-1.86957l-2.13258-.81034a6,6,0,0,1-3.4775-3.47751L14.93478,4.6448a1,1,0,0,0-1.86957,0l-.81034,2.13257a6,6,0,0,1-3.4775,3.47751l-2.13258.81034A1,1,0,0,0,6.64479,12.93479Z" fill="none" stroke="#323232" stroke-linecap="round" stroke-linejoin="round" stroke-width="1.5"/><line x1="6" y1="21" x2="6" y2="17" fill="none" stroke="#323232" stroke-linecap="round" stroke-linejoin="round" stroke-width="1.5"/><line x1="4" y1="19" x2="8" y2="19" fill="none" stroke="#323232" stroke-linecap="round" stroke-linejoin="round" stroke-width="1.5"/><line x1="5" y1="7" x2="5" y2="3" fill="none" stroke="#323232" stroke-linecap="round" stroke-linejoin="round" stroke-width="1.5"/><line x1="3" y1="5" x2="7" y2="5" fill="none" stroke="#323232" stroke-linecap="round" stroke-linejoin="round" stroke-width="1.5"/></svg>