<svg xmlns="http://www.w3.org/2000/svg" viewBox="0 0 24 24"><path d="M8.56537,8.42065l2.54809-4.8833a1,1,0,0,1,1.77308,0l2.54809,4.8833" fill="none" stroke="#323232" stroke-linecap="round" stroke-linejoin="round" stroke-width="1.5"/><path d="M8.56537,8.42065,3.835,9.217a1,1,0,0,0-.54791,1.68634l3.52,3.58887" fill="none" stroke="#323232" stroke-linecap="round" stroke-linejoin="round" stroke-width="1.5"/><path d="M15.43463,8.42065,20.165,9.217a1,1,0,0,1,.54791,1.68634l-3.52,3.58887" fill="none" stroke="#323232" stroke-linecap="round" stroke-linejoin="round" stroke-width="1.5"/><path d="M6.807,14.49219l-.7956,5.359a1,1,0,0,0,1.43451,1.04217L12,18.6283" fill="none" stroke="#323232" stroke-linecap="round" stroke-linejoin="round" stroke-width="1.5"/><path d="M17.193,14.49219l.7956,5.359a1,1,0,0,1-1.43451,1.04217L12,18.6283" fill="none" stroke="#323232" stroke-linecap="round" stroke-linejoin="round" stroke-width="1.5"/><path d="M0,0H24V24H0Z" fill="none"/></svg>