<svg xmlns="http://www.w3.org/2000/svg" viewBox="0 0 24 24"><rect x="8" y="3" width="8" height="4" rx="1" stroke-width="1.5" stroke="#323232" stroke-linecap="round" stroke-linejoin="round" fill="none"/><path d="M15,21V18a2,2,0,0,1,2-2h3" fill="none" stroke="#323232" stroke-linecap="round" stroke-linejoin="round" stroke-width="1.5"/><path d="M16,5h2a2,2,0,0,1,2,2v9.75736a3,3,0,0,1-.87868,2.12132l-1.24264,1.24264A3,3,0,0,1,15.75736,21H6a2,2,0,0,1-2-2V7A2,2,0,0,1,6,5H8" fill="none" stroke="#323232" stroke-linecap="round" stroke-linejoin="round" stroke-width="1.5"/></svg>