<svg id="Layer_3" data-name="Layer 3" xmlns="http://www.w3.org/2000/svg" viewBox="0 0 24 24"><path d="M16,5h2a2,2,0,0,1,2,2V19a2,2,0,0,1-2,2H17" fill="none" stroke="#323232" stroke-linecap="round" stroke-linejoin="round" stroke-width="1.5"/><rect x="8" y="2.99999" width="8" height="4" rx="1" stroke-width="1.5" stroke="#323232" stroke-linecap="round" stroke-linejoin="round" fill="none"/><path d="M8,5H6A2,2,0,0,0,4,7V17" fill="none" stroke="#323232" stroke-linecap="round" stroke-linejoin="round" stroke-width="1.5"/><line x1="5.5" y1="20.99999" x2="2.5" y2="20.99999" fill="none" stroke="#323232" stroke-linecap="round" stroke-linejoin="round" stroke-width="1.5"/><path d="M11.63366,20.70712l3.07347-3.07348a1,1,0,0,0,0-1.41422l-.92654-.92651a1,1,0,0,0-1.41421,0L9.29288,18.3664A1,1,0,0,0,9,19.0735V20.75a.25.25,0,0,0,.25.25h1.67656A1.0001,1.0001,0,0,0,11.63366,20.70712Z" fill="none" stroke="#323232" stroke-linecap="round" stroke-linejoin="round" stroke-width="1.5"/><rect y="-0.00001" width="24" height="24" fill="none"/></svg>