<svg xmlns="http://www.w3.org/2000/svg" viewBox="0 0 24 24"><rect width="24" height="24" fill="none"/><path d="M14.5,9.49878V6.52613a3.5,3.5,0,0,0-2.366-3.3112l-.39-.13357a1.5,1.5,0,0,0-1.90822.94233L8,9.5H4.4375A1.4375,1.4375,0,0,0,3,10.9375v8.625A1.4375,1.4375,0,0,0,4.4375,21H17.68608a2.875,2.875,0,0,0,2.78916-2.17771l1.4375-5.75A2.875,2.875,0,0,0,19.12358,9.5H14.5" fill="none" stroke="#323232" stroke-linecap="round" stroke-linejoin="round" stroke-width="1.5"/><line x1="7.99999" y1="21" x2="7.99999" y2="9.5" fill="none" stroke="#323232" stroke-linecap="round" stroke-linejoin="round" stroke-width="1.5"/></svg>