<svg xmlns="http://www.w3.org/2000/svg" viewBox="0 0 24 24"><path d="M24,24H0V0H24Z" fill="none"/><circle cx="12" cy="12" r="9" fill="none" stroke="#323232" stroke-linecap="round" stroke-linejoin="round" stroke-width="1.5"/><line x1="13.76" y1="14.25" x2="13.76" y2="8.25001" fill="none" stroke="#323232" stroke-linecap="round" stroke-linejoin="round" stroke-width="1.5"/><path d="M13.5379,14.25H16.01a.75.75,0,0,0,.75-.75V9a.75.75,0,0,0-.75-.75H8.921A1.5,1.5,0,0,0,7.45607,9.42752l-.6604,3A1.5,1.5,0,0,0,8.2606,14.25H9.76v1.7978a1.04263,1.04263,0,0,0,.57662.93269l.26379.1318a1.30328,1.30328,0,0,0,1.738-.563Z" fill="none" stroke="#323232" stroke-linecap="round" stroke-linejoin="round" stroke-width="1.5"/></svg>