<svg xmlns="http://www.w3.org/2000/svg" viewBox="0 0 24 24"><path d="M14.21429,9.71429h4.28448a2.5,2.5,0,0,1,2.42535,3.10634l-1.3079,5.2316A2.57142,2.57142,0,0,1,17.12157,20H5.28571A1.28571,1.28571,0,0,1,4,18.71429V11A1.28571,1.28571,0,0,1,5.28571,9.71429H8.5V9.71164l1.66827-4.9345A1.14285,1.14285,0,0,1,11.62122,4.062l.66165.2266a2.85714,2.85714,0,0,1,1.93142,2.703V9.71164" fill="none" stroke="#323232" stroke-linecap="round" stroke-linejoin="round" stroke-width="1.5"/><line x1="8.5" y1="19.99775" x2="8.5" y2="9.71429" fill="none" stroke="#323232" stroke-linecap="round" stroke-linejoin="round" stroke-width="1.5"/></svg>