<?xml version="1.0" encoding="UTF-8"?><svg version="1.1" viewBox="0 0 24 24" xmlns="http://www.w3.org/2000/svg" xmlns:xlink="http://www.w3.org/1999/xlink"><g stroke-linecap="round" stroke-width="1.5" stroke="#323232" fill="none" stroke-linejoin="round"><line x1="7.25" x2="7.25" y1="11.43" y2="15.43"></line><path d="M15.75 10.432h-2.05v-1.7l1.08358e-13-4.75737e-07c0-.580061-.46994-1.05045-1.05-1.051h-.4l-3.80395e-08-7.98028e-12c-.351544-7.37414e-05-.677307.184449-.858.486l-1.607 2.679 -9.01044e-08 1.50179e-07c-.186495.310835-.285006.666511-.285 1.029v2.809l1.06581e-14 1.50996e-07c8.33927e-08.552285.447715 1 1 1h4.179l-8.70071e-09-9.99911e-12c.334633.000384567.647279-.166635.833-.445l1.07-1.606 5.04614e-08-7.56772e-08c.109586-.164347.168044-.357468.168-.555v-1.646l-3.55271e-15-1.06581e-14c0-.552285-.447715-1-1-1 -4.86109e-08 0-9.75585e-08 3.55271e-15-1.46169e-07 1.06581e-14Z"></path><circle cx="12" cy="12" r="9"></circle></g><path fill="none" d="M0 0h24v24h-24Z"></path></svg>