<svg xmlns="http://www.w3.org/2000/svg" viewBox="0 0 24 24"><path d="M24,24H0V0H24Z" fill="none"/><line x1="14" y1="14" x2="14" y2="8.00001" fill="none" stroke="#323232" stroke-linecap="round" stroke-linejoin="round" stroke-width="1.5"/><rect x="3" y="3" width="18" height="18" rx="5" stroke-width="1.5" stroke="#323232" stroke-linecap="round" stroke-linejoin="round" fill="none"/><path d="M13.7779,14H16.25a.75.75,0,0,0,.75-.75V8.75A.75.75,0,0,0,16.25,8H9.161A1.5,1.5,0,0,0,7.69607,9.17752l-.6604,3A1.5,1.5,0,0,0,8.5006,14H10v1.7978a1.04263,1.04263,0,0,0,.57662.93269l.26379.1318a1.30328,1.30328,0,0,0,1.738-.563Z" fill="none" stroke="#323232" stroke-linecap="round" stroke-linejoin="round" stroke-width="1.5"/></svg>