<svg xmlns="http://www.w3.org/2000/svg" viewBox="0 0 24 24"><rect width="24" height="24" fill="none"/><path d="M10.5,14.50122v2.97265a3.5,3.5,0,0,0,2.366,3.3112l.39.13357a1.5,1.5,0,0,0,1.90822-.94233L17,14.5H20.5625A1.4375,1.4375,0,0,0,22,13.0625V4.4375A1.4375,1.4375,0,0,0,20.5625,3H7.31392A2.875,2.875,0,0,0,4.52476,5.17771l-1.4375,5.75A2.875,2.875,0,0,0,5.87642,14.5H10.5" fill="none" stroke="#323232" stroke-linecap="round" stroke-linejoin="round" stroke-width="1.5"/><line x1="17.00001" y1="3" x2="17.00001" y2="14.5" fill="none" stroke="#323232" stroke-linecap="round" stroke-linejoin="round" stroke-width="1.5"/></svg>