<svg xmlns="http://www.w3.org/2000/svg" viewBox="0 0 24 24"><line x1="10" y1="16.49859" x2="10" y2="10" fill="none" stroke="#323232" stroke-linecap="round" stroke-linejoin="round" stroke-width="1.5"/><path d="M10,10H7.5625a.8125.8125,0,0,0-.8125.8125v4.875a.8125.8125,0,0,0,.8125.8125h7.81176a1.5,1.5,0,0,0,1.45521-1.1362l.875-3.5A1.5,1.5,0,0,0,16.24926,10H14" fill="none" stroke="#323232" stroke-linecap="round" stroke-linejoin="round" stroke-width="1.5"/><rect x="3" y="3" width="18" height="18" rx="5" stroke-width="1.5" stroke="#323232" stroke-linecap="round" stroke-linejoin="round" fill="none"/><path d="M10,10l.86953-2.7966a1,1,0,0,1,1.27891-.64915l.49957.17109A2,2,0,0,1,14,8.61745V9.9998" fill="none" stroke="#323232" stroke-linecap="round" stroke-linejoin="round" stroke-width="1.5"/><rect width="24" height="24" fill="none"/></svg>