<svg xmlns="http://www.w3.org/2000/svg" viewBox="0 0 24 24"><line x1="14" y1="7.5014" x2="14" y2="14" fill="none" stroke="#323232" stroke-linecap="round" stroke-linejoin="round" stroke-width="1.5"/><path d="M14,14h2.43748a.81251.81251,0,0,0,.81252-.8125V8.3125A.81251.81251,0,0,0,16.43748,7.5H8.62574A1.5,1.5,0,0,0,7.17053,8.63619l-.875,3.5A1.5,1.5,0,0,0,7.75074,14H10" fill="none" stroke="#323232" stroke-linecap="round" stroke-linejoin="round" stroke-width="1.5"/><rect x="3" y="3" width="18" height="18" rx="5" transform="translate(24 24) rotate(180)" stroke-width="1.5" stroke="#323232" stroke-linecap="round" stroke-linejoin="round" fill="none"/><path d="M14,14l-.86953,2.79659a1,1,0,0,1-1.27891.64915l-.49957-.17109A2,2,0,0,1,10,15.38254V14.00019" fill="none" stroke="#323232" stroke-linecap="round" stroke-linejoin="round" stroke-width="1.5"/><rect width="24" height="24" fill="none"/></svg>