<?xml version="1.0" encoding="UTF-8"?><svg version="1.1" viewBox="0 0 24 24" xmlns="http://www.w3.org/2000/svg" xmlns:xlink="http://www.w3.org/1999/xlink"><g fill="none"><path d="M0 0h24v24h-24Z"></path><path stroke="#323232" stroke-linecap="round" stroke-linejoin="round" stroke-width="1.5" d="M17.925 5.237l-1.39026e-07-1.21503e-07c1.4934 1.30517 2.51305 3.06775 2.9 5.013"></path><path stroke="#323232" stroke-linecap="round" stroke-linejoin="round" stroke-width="1.5" d="M6.075 18.763l-4.5249e-07-3.95457e-07c-1.4934-1.30517-2.51305-3.06775-2.9-5.013"></path><path stroke="#323232" stroke-linecap="round" stroke-linejoin="round" stroke-width="1.5" d="M14.9 20.515l-1.42619e-09 4.91461e-10c-1.87652.646644-3.91548.646644-5.792-9.82922e-10"></path><path stroke="#323232" stroke-linecap="round" stroke-linejoin="round" stroke-width="1.5" d="M14.9 3.485l-1.42619e-09-4.91461e-10c-1.87652-.646644-3.91548-.646644-5.792 9.82924e-10"></path><path stroke="#323232" stroke-linecap="round" stroke-linejoin="round" stroke-width="1.5" d="M17.925 18.763l-1.39026e-07 1.21503e-07c1.4934-1.30517 2.51305-3.06775 2.9-5.013"></path><path stroke="#323232" stroke-linecap="round" stroke-linejoin="round" stroke-width="1.5" d="M3.173 10.25l-9.02016e-08 4.54175e-07c.38638-1.94546 1.40612-3.70822 2.9-5.013"></path><path stroke="#323232" stroke-linecap="round" stroke-linejoin="round" stroke-width="1.5" d="M11.275 7.3l-3.187 5.415 -3.77055e-08 6.2952e-08c-.17623.294229-.0805734.675611.213655.851841 .09329.0558767.199617.0862766.308345.0881587h2.984v2.724l-8.15447e-09 3.85247e-07c-.00709421.335162.258857.612615.594019.619709 .220308.00466315.425839-.110435.536981-.30071l3.187-5.413 9.80952e-09-1.63777e-08c.17623-.294229.0805735-.675611-.213655-.851841 -.09329-.0558767-.199617-.0862766-.308345-.0881588h-2.984v-2.723l2.22552e-08-8.45475e-07c.00882104-.335121-.255697-.613941-.590818-.622762 -.221453-.00582909-.428495.109448-.540183.300763Z"></path></g></svg>