<?xml version="1.0" encoding="UTF-8"?><svg version="1.1" viewBox="0 0 24 24" xmlns="http://www.w3.org/2000/svg" xmlns:xlink="http://www.w3.org/1999/xlink"><path d="M12 12c-2.467 0-4.483-2.015-4.483-4.483 0-2.468 2.016-4.517 4.483-4.517 2.467 0 4.483 2.015 4.483 4.483 0 2.468-2.016 4.517-4.483 4.517Zm7 9h-14c-.55 0-1-.45-1-1v-1c0-2.2 1.8-4 4-4h8c2.2 0 4 1.8 4 4v1c0 .55-.45 1-1 1Z" stroke-linecap="round" stroke-width="1.5" stroke="#323232" fill="none" stroke-linejoin="round"></path><path fill="none" d="M0 0h24v24h-24v-24Z"></path></svg>