<svg xmlns="http://www.w3.org/2000/svg" viewBox="0 0 24 24"><rect y="0.00001" width="24" height="24" fill="none"/><rect x="3" y="3.00001" width="18" height="18" rx="5" stroke-width="1.5" stroke="#323232" stroke-linecap="round" stroke-linejoin="round" fill="none"/><path d="M14.74374,9.14853c.00835.23388.00835.46906,0,.703A2.74665,2.74665,0,0,1,12,12.5h0A2.74665,2.74665,0,0,1,9.25626,9.85148c-.00835-.23389-.00835-.46907,0-.703A2.74665,2.74665,0,0,1,12,6.5h0A2.74665,2.74665,0,0,1,14.74374,9.14853Z" fill="none" stroke="#323232" stroke-linecap="round" stroke-linejoin="round" stroke-width="1.5"/><path d="M7.5,16.5a10.625,10.625,0,0,1,9,0" fill="none" stroke="#323232" stroke-linecap="round" stroke-linejoin="round" stroke-width="1.5"/></svg>