<?xml version="1.0" encoding="UTF-8"?><svg version="1.1" viewBox="0 0 24 24" xmlns="http://www.w3.org/2000/svg" xmlns:xlink="http://www.w3.org/1999/xlink"><g stroke-linecap="round" stroke-width="1.5" stroke="#323232" fill="none" stroke-linejoin="round"><path d="M15.2143 10.4286l-4.28503e-08 1.55842e-09c1.78555-.0649386 3.20283-1.52531 3.21428-3.312l5.49038e-08 3.47791e-06c-.0275929-1.74795-1.46631-3.14293-3.21428-3.11657"></path><path d="M9.42857 10.4286l2.52452e-08-9.18067e-10c1.78555-.0649335 3.20284-1.5253 3.21429-3.312l2.26024e-08 1.43145e-06c-.0275996-1.74795-1.46632-3.14293-3.21429-3.11657l-1.20417e-07-1.81606e-09c-1.74797-.0263617-3.18669 1.36862-3.21428 3.11657l-3.18048e-08-5.16486e-06c.0110021 1.78688 1.42853 3.2475 3.21427 3.312Z"></path><path d="M16 20v-2 0c0-2.20914-1.79086-4-4-4h-5l-1.74846e-07 3.55271e-15c-2.20914 9.65645e-08-4 1.79086-4 4 0 0 0 0 0 0v2"></path><path d="M21 20v-3 0c0-1.65685-1.34315-3-3-3"></path></g><path fill="none" d="M0 0h24v24h-24Z"></path></svg>