<?xml version="1.0" encoding="UTF-8"?><svg version="1.1" viewBox="0 0 24 24" xmlns="http://www.w3.org/2000/svg" xmlns:xlink="http://www.w3.org/1999/xlink"><g fill="none"><path d="M0 0h24v24h-24v-24Z"></path><path stroke="#323232" stroke-linecap="round" stroke-linejoin="round" stroke-width="1.5" d="M15.493 18.25c-.966 0-1.75.784-1.743 1.75 0 .966.784 1.75 1.75 1.75 .966 0 1.75-.784 1.75-1.75 0-.966-.784-1.75-1.757-1.75"></path><path stroke="#323232" stroke-linecap="round" stroke-linejoin="round" stroke-width="1.5" d="M19 15h-14c-1.105 0-2-.895-2-2v-8c0-1.105.895-2 2-2h14c1.105 0 2 .895 2 2v8c0 1.105-.895 2-2 2Z"></path><line x1="3" x2="13.75" y1="20" y2="20" stroke="#323232" stroke-linecap="round" stroke-linejoin="round" stroke-width="1.5"></line><line x1="17.25" x2="21" y1="20" y2="20" stroke="#323232" stroke-linecap="round" stroke-linejoin="round" stroke-width="1.5"></line></g></svg>