<svg xmlns="http://www.w3.org/2000/svg" viewBox="0 0 24 24"><path d="M0,0H24V24H0Z" fill="none"/><path d="M8.11091,10.61091a5.5,5.5,0,0,1,7.77818,0" fill="none" stroke="#323232" stroke-linecap="round" stroke-linejoin="round" stroke-width="1.5"/><path d="M10.23223,12.73223a2.5,2.5,0,0,1,3.53554,0" fill="none" stroke="#323232" stroke-linecap="round" stroke-linejoin="round" stroke-width="1.5"/><path d="M7.121,20.121,3.878,16.878A2.99949,2.99949,0,0,1,3,14.757V9.243a2.99624,2.99624,0,0,1,.879-2.121L7.122,3.879A2.99624,2.99624,0,0,1,9.243,3h5.514a2.99624,2.99624,0,0,1,2.121.879l3.244,3.244A2.99949,2.99949,0,0,1,21,9.244v5.513a3.00123,3.00123,0,0,1-.878,2.121l-3.243,3.244A3.00358,3.00358,0,0,1,14.757,21H9.243A3.00034,3.00034,0,0,1,7.121,20.121Z" fill="none" stroke="#323232" stroke-linecap="round" stroke-linejoin="round" stroke-width="1.5"/><path d="M12.005,15,12,15.005,11.995,15,12,14.995l.005.005" fill="none" stroke="#323232" stroke-linecap="round" stroke-linejoin="round" stroke-width="1.5"/></svg>