<?xml version="1.0" encoding="UTF-8"?><svg version="1.1" viewBox="0 0 24 24" xmlns="http://www.w3.org/2000/svg" xmlns:xlink="http://www.w3.org/1999/xlink"><g stroke-linecap="round" stroke-width="1.5" stroke="#323232" fill="none" stroke-linejoin="round"><polyline points="16.938,9.982 14,9.982 14,6.969"></polyline><line x1="17.92" x2="14" y1="5.99" y2="9.98"></line><path d="M11 14.033v2.934c0 .571-.462 1.033-1.033 1.033h-2.934c-.571 0-1.033-.462-1.033-1.033v-2.934c0-.571.462-1.033 1.033-1.033h2.934c.571 0 1.033.462 1.033 1.033Z"></path><path d="M21 5v14c0 1.105-.895 2-2 2h-14c-1.105 0-2-.895-2-2v-14c0-1.105.895-2 2-2h14c1.105 0 2 .895 2 2Z"></path></g><path fill="none" d="M0 0h24v24h-24v-24Z"></path></svg>