<?xml version="1.0" encoding="UTF-8"?><svg version="1.1" viewBox="0 0 24 24" xmlns="http://www.w3.org/2000/svg" xmlns:xlink="http://www.w3.org/1999/xlink"><g fill="none"><rect width="24" height="24"></rect><path stroke="#323232" stroke-linecap="round" stroke-linejoin="round" stroke-width="1.5" d="M10.5 14l6.28577e-07 3.60904e-07c-2.32222-1.33333-5.17778-1.33333-7.5-7.21808e-07"></path><path stroke="#323232" stroke-linecap="round" stroke-linejoin="round" stroke-width="1.5" d="M8 5.40216l-.89623-.29875 -2.73509e-08-9.11696e-09c-1.04789-.349295-2.18053.217025-2.52982 1.26491 -.0217367.0652101-.0400971.131497-.0550082.198598l-1.42369 6.4066 -1.87008e-07 8.41559e-07c-.0633099.284902-.09525.575878-.0952498.86773v2.15875l3.4639e-14 4.52987e-07c2.50178e-07 1.65685 1.34315 3 3 3h1.285l-2.93309e-08 1.42109e-14c1.54125-8.51289e-07 2.83175-1.16788 2.98511-2.70149l.22989-2.29851"></path><path stroke="#323232" stroke-linecap="round" stroke-linejoin="round" stroke-width="1.5" d="M16 5.40216l.89623-.29875 8.76616e-08-2.92205e-08c1.04789-.349295 2.18053.217025 2.52982 1.26491 .0217367.0652101.0400971.131497.0550082.198598l1.42369 6.4066 9.73581e-08 4.38123e-07c.0633099.284902.09525.575878.0952499.86773v2.15875 0c0 1.65685-1.34315 3-3 3h-1.285l1.2469e-07 6.75016e-14c-1.54125-8.02298e-07-2.83175-1.16788-2.98511-2.70149l-.22989-2.29851"></path><path stroke="#323232" stroke-linecap="round" stroke-linejoin="round" stroke-width="1.5" d="M10.5 14l-1.94894e-07 1.46171e-07c.888889-.666667 2.11111-.666667 3-2.92341e-07"></path><path stroke="#323232" stroke-linecap="round" stroke-linejoin="round" stroke-width="1.5" d="M21 14l6.28577e-07 3.60904e-07c-2.32222-1.33333-5.17778-1.33333-7.5-7.21808e-07"></path></g></svg>