<svg id="Layer_3" data-name="Layer 3" xmlns="http://www.w3.org/2000/svg" viewBox="0 0 24 24"><rect y="0.00001" width="24" height="24" fill="none"/><line x1="2.00102" y1="15.50001" x2="21.99888" y2="15.50001" fill="none" stroke="#323232" stroke-linecap="round" stroke-linejoin="round" stroke-width="1.5"/><path d="M2.001,11.50205v4.5a2,2,0,0,0,2,2h16a2,2,0,0,0,2-2V15.575a2.427,2.427,0,0,0-.25623-1.08541l-.22954-.45909a2.5,2.5,0,0,0-1.62973-1.30732l-2.461-.61526a2.00007,2.00007,0,0,1-.76432-.37855L12.27494,8.22118a1,1,0,0,0-.6247-.21913H10.61906a1,1,0,0,0-.89443.55279l-.94721,1.89443a1,1,0,0,1-.89443.55278H5.501a1,1,0,0,1-.8-.4h0A1.5,1.5,0,0,0,2.001,11.50205Z" fill="none" stroke="#323232" stroke-linecap="round" stroke-linejoin="round" stroke-width="1.5"/></svg>