<?xml version="1.0" encoding="UTF-8"?><svg version="1.1" viewBox="0 0 24 24" xmlns="http://www.w3.org/2000/svg" xmlns:xlink="http://www.w3.org/1999/xlink"><g fill="none"><rect width="24" height="24"></rect><path stroke="#323232" stroke-linecap="round" stroke-linejoin="round" stroke-width="1.5" d="M17.9875 11l9e-05 8.54307 -4.93877e-09-4.47428e-07c.00991229.897994-.587432 1.68956-1.4537 1.92635l3.93246e-07-9.30547e-08c-2.98964.707445-6.10312.707445-9.09276 1.86109e-07l-6.61232e-08-1.80743e-08c-.866274-.236789-1.46363-1.02835-1.45372-1.92635l8.91454e-05-8.54307"></path><path stroke="#323232" stroke-linecap="round" stroke-linejoin="round" stroke-width="1.5" d="M18.0039 13l3.22509-.75969 -1.0218e-08 2.40695e-09c.537572-.12663.870706-.665072.744075-1.20264 -.00358898-.015236-.0075352-.0303856-.0118354-.0454363l-1.213-4.24558 1.38536e-07 4.84876e-07c-.317111-1.10989-1.09823-2.02868-2.14263-2.52026l-1.79641-.84553 -1.15036e-07-5.41458e-08c-.532868-.250813-1.11455-.380863-1.70349-.38086h-6.21138l1.18232e-07-1.33227e-13c-.588937 6.57604e-07-1.17061.13005-1.70347.38086l-1.79641.84553 -3.42682e-07 1.61294e-07c-1.0444.491579-1.82552 1.41037-2.14263 2.52026l-1.213 4.24558 -4.23225e-08 1.48124e-07c-.151729.531034.155759 1.08452.686793 1.23625 .0150412.00429763.0301812.00824173.0454075.011829l3.22511.75969"></path><path stroke="#323232" stroke-linecap="round" stroke-linejoin="round" stroke-width="1.5" d="M15.5 3.01987v0 0c0 1.64588-1.33425 2.98013-2.98013 2.98013 0 0-1.77636e-15 0-1.77636e-15 0h-1.03974l-1.30266e-07-3.55271e-15c-1.64588-7.19437e-08-2.98013-1.33425-2.98013-2.98013 0 0 0-1.33227e-15 0-1.33227e-15v0"></path></g></svg>