<svg xmlns="http://www.w3.org/2000/svg" viewBox="0 0 24 24"><path d="M15,7h4.5a1,1,0,0,0,.70711-.29289l.5-.5a1,1,0,0,0,0-1.41422l-.5-.5A1,1,0,0,0,19.5,4H15" fill="none" stroke="#323232" stroke-linecap="round" stroke-linejoin="round" stroke-width="1.5"/><path d="M10.5,3h3.25A1.25,1.25,0,0,1,15,4.25v2.5A1.25,1.25,0,0,1,13.75,8H10.5A2.5,2.5,0,0,1,8,5.5v0A2.5,2.5,0,0,1,10.5,3Z" fill="none" stroke="#323232" stroke-linecap="round" stroke-linejoin="round" stroke-width="1.5"/><path d="M9,17H4.5a1,1,0,0,0-.70711.29289l-.5.5a1,1,0,0,0,0,1.41422l.5.5A1,1,0,0,0,4.5,20H9" fill="none" stroke="#323232" stroke-linecap="round" stroke-linejoin="round" stroke-width="1.5"/><path d="M11.5,16h3.25A1.25,1.25,0,0,1,16,17.25v2.5A1.25,1.25,0,0,1,14.75,21H11.5A2.5,2.5,0,0,1,9,18.5v0A2.5,2.5,0,0,1,11.5,16Z" transform="translate(25 37) rotate(180)" fill="none" stroke="#323232" stroke-linecap="round" stroke-linejoin="round" stroke-width="1.5"/><path d="M8,5.5l-1.7501,0A3.25,3.25,0,0,0,3,8.75H3A3.25,3.25,0,0,0,6.25,12L17.75005,12A3.25,3.25,0,0,1,21,15.25h0a3.25,3.25,0,0,1-3.2499,3.25L16,18.5" fill="none" stroke="#323232" stroke-linecap="round" stroke-linejoin="round" stroke-width="1.5"/><rect y="0.00001" width="24" height="24" fill="none"/></svg>