<svg xmlns="http://www.w3.org/2000/svg" viewBox="0 0 24 24"><line x1="20" y1="13.33356" x2="22" y2="13.33356" fill="none" stroke="#323232" stroke-linecap="round" stroke-linejoin="round" stroke-width="1.5"/><line x1="19.97221" y1="16.00001" x2="22" y2="16.00001" fill="none" stroke="#323232" stroke-linecap="round" stroke-linejoin="round" stroke-width="1.5"/><line x1="19.97221" y1="8.00001" x2="22" y2="8.00001" fill="none" stroke="#323232" stroke-linecap="round" stroke-linejoin="round" stroke-width="1.5"/><line x1="20" y1="10.66689" x2="22" y2="10.66689" fill="none" stroke="#323232" stroke-linecap="round" stroke-linejoin="round" stroke-width="1.5"/><rect x="4" y="4.00001" width="16" height="16" rx="4.5" stroke-width="1.5" stroke="#323232" stroke-linecap="round" stroke-linejoin="round" fill="none"/><path d="M12.76667,10.66667h1.66494a1.06718,1.06718,0,0,1,.88728,1.65938l-2.13169,3.197a1.0665,1.0665,0,0,1-1.95387-.59222V13.33333H9.56839A1.06718,1.06718,0,0,1,8.68111,11.674l2.13169-3.197a1.0665,1.0665,0,0,1,1.95387.59222Z" fill="none" stroke="#323232" stroke-linecap="round" stroke-linejoin="round" stroke-width="1.5"/><line x1="4" y1="10.66646" x2="2" y2="10.66646" fill="none" stroke="#323232" stroke-linecap="round" stroke-linejoin="round" stroke-width="1.5"/><line x1="4.02779" y1="8.00001" x2="2" y2="8.00001" fill="none" stroke="#323232" stroke-linecap="round" stroke-linejoin="round" stroke-width="1.5"/><line x1="4.02779" y1="16.00001" x2="2" y2="16.00001" fill="none" stroke="#323232" stroke-linecap="round" stroke-linejoin="round" stroke-width="1.5"/><line x1="4" y1="13.33312" x2="2" y2="13.33312" fill="none" stroke="#323232" stroke-linecap="round" stroke-linejoin="round" stroke-width="1.5"/><line x1="13.33355" y1="4.00001" x2="13.33355" y2="2.00001" fill="none" stroke="#323232" stroke-linecap="round" stroke-linejoin="round" stroke-width="1.5"/><line x1="16" y1="4.0278" x2="16" y2="2.00001" fill="none" stroke="#323232" stroke-linecap="round" stroke-linejoin="round" stroke-width="1.5"/><line x1="8" y1="4.0278" x2="8" y2="2.00001" fill="none" stroke="#323232" stroke-linecap="round" stroke-linejoin="round" stroke-width="1.5"/><line x1="10.66688" y1="4.00001" x2="10.66688" y2="2.00001" fill="none" stroke="#323232" stroke-linecap="round" stroke-linejoin="round" stroke-width="1.5"/><line x1="10.66645" y1="20.00001" x2="10.66645" y2="22.00001" fill="none" stroke="#323232" stroke-linecap="round" stroke-linejoin="round" stroke-width="1.5"/><line x1="8" y1="19.97222" x2="8" y2="22.00001" fill="none" stroke="#323232" stroke-linecap="round" stroke-linejoin="round" stroke-width="1.5"/><line x1="16" y1="19.97222" x2="16" y2="22.00001" fill="none" stroke="#323232" stroke-linecap="round" stroke-linejoin="round" stroke-width="1.5"/><line x1="13.33312" y1="20.00001" x2="13.33312" y2="22.00001" fill="none" stroke="#323232" stroke-linecap="round" stroke-linejoin="round" stroke-width="1.5"/><rect y="0.00001" width="24" height="24" fill="none"/></svg>