<svg xmlns="http://www.w3.org/2000/svg" viewBox="0 0 24 24"><path d="M7,9h3a.5.5,0,0,1,.5.5v5a.5.5,0,0,1-.5.5H7" fill="none" stroke="#323232" stroke-linecap="round" stroke-linejoin="round" stroke-width="1.5"/><line x1="7" y1="12" x2="10.5" y2="12" fill="none" stroke="#323232" stroke-linecap="round" stroke-linejoin="round" stroke-width="1.5"/><path d="M13.5,9h3a.5.5,0,0,1,.5.5v2a.5.5,0,0,1-.5.5H14a.5.5,0,0,0-.5.5v2a.5.5,0,0,0,.5.5h3" fill="none" stroke="#323232" stroke-linecap="round" stroke-linejoin="round" stroke-width="1.5"/><rect x="3" y="3" width="18" height="18" rx="5" stroke-width="1.5" stroke="#323232" stroke-linecap="round" stroke-linejoin="round" fill="none"/><path d="M0,0H24V24H0Z" fill="none"/></svg>