<svg xmlns="http://www.w3.org/2000/svg" viewBox="0 0 24 24"><path d="M18,12.0005a6,6,0,1,1,0-.001v.001" fill="none" stroke="#323232" stroke-linecap="round" stroke-linejoin="round" stroke-width="1.5"/><line x1="17.48533" y1="14.40086" x2="12" y2="14.40086" fill="none" stroke="#323232" stroke-linecap="round" stroke-linejoin="round" stroke-width="1.5"/><line x1="6.51372" y1="9.60086" x2="12" y2="9.60086" fill="none" stroke="#323232" stroke-linecap="round" stroke-linejoin="round" stroke-width="1.5"/><circle cx="12" cy="12" r="2.4" fill="none" stroke="#323232" stroke-linecap="round" stroke-linejoin="round" stroke-width="1.5"/><line x1="9.59952" y1="17.48666" x2="9.59952" y2="12.00134" fill="none" stroke="#323232" stroke-linecap="round" stroke-linejoin="round" stroke-width="1.5"/><rect x="3" y="3" width="18" height="18" rx="4" stroke-width="1.5" stroke="#323232" stroke-linecap="round" stroke-linejoin="round" fill="none"/><path d="M17.95,6A.05.05,0,1,0,18,5.95h0a.0495.0495,0,0,0-.05.049V6" fill="none" stroke="#323232" stroke-linecap="round" stroke-linejoin="round" stroke-width="1.5"/><path d="M6.05,18a.05.05,0,1,0-.05.05H6a.0495.0495,0,0,0,.05-.049V18" fill="none" stroke="#323232" stroke-linecap="round" stroke-linejoin="round" stroke-width="1.5"/><path d="M6,6.05A.05.05,0,1,0,5.95,6V6a.0495.0495,0,0,0,.049.05H6" fill="none" stroke="#323232" stroke-linecap="round" stroke-linejoin="round" stroke-width="1.5"/><path d="M18,17.95a.05.05,0,1,0,.05.05v0a.0495.0495,0,0,0-.049-.05H18" fill="none" stroke="#323232" stroke-linecap="round" stroke-linejoin="round" stroke-width="1.5"/><line x1="14.39952" y1="6.51506" x2="14.39952" y2="12.00134" fill="none" stroke="#323232" stroke-linecap="round" stroke-linejoin="round" stroke-width="1.5"/><rect width="24" height="24" fill="none"/></svg>