<svg xmlns="http://www.w3.org/2000/svg" viewBox="0 0 24 24"><rect x="2" y="4" width="20" height="16" rx="2" stroke-width="1.5" stroke="#323232" stroke-linecap="round" stroke-linejoin="round" fill="none"/><path d="M19.5,17.45a.05.05,0,1,0,.05.05v0a.0495.0495,0,0,0-.049-.05H19.5" fill="none" stroke="#323232" stroke-linecap="round" stroke-linejoin="round" stroke-width="1.5"/><rect x="11" y="8" width="8" height="8" rx="4" stroke-width="1.5" stroke="#323232" stroke-linecap="round" stroke-linejoin="round" fill="none"/><path d="M19.45,6.5a.05.05,0,1,0,.05-.05h0a.0495.0495,0,0,0-.05.049V6.5" fill="none" stroke="#323232" stroke-linecap="round" stroke-linejoin="round" stroke-width="1.5"/><path d="M4.5,6.55a.05.05,0,1,0-.05-.05v0a.0495.0495,0,0,0,.049.05H4.5" fill="none" stroke="#323232" stroke-linecap="round" stroke-linejoin="round" stroke-width="1.5"/><path d="M4.55,17.5a.05.05,0,1,0-.05.05h0a.0495.0495,0,0,0,.05-.049V17.5" fill="none" stroke="#323232" stroke-linecap="round" stroke-linejoin="round" stroke-width="1.5"/><path d="M15,8H8a2,2,0,0,0-2,2v4a2,2,0,0,0,2,2h7" fill="none" stroke="#323232" stroke-linecap="round" stroke-linejoin="round" stroke-width="1.5"/><rect width="24" height="24" fill="none"/></svg>