<svg xmlns="http://www.w3.org/2000/svg" viewBox="0 0 24 24"><path d="M21,16H19a1,1,0,0,1-1-1V9a1,1,0,0,1,1-1h2" fill="none" stroke="#323232" stroke-linecap="round" stroke-linejoin="round" stroke-width="1.5"/><path d="M3,8H5A1,1,0,0,1,6,9v6a1,1,0,0,1-1,1H3" fill="none" stroke="#323232" stroke-linecap="round" stroke-linejoin="round" stroke-width="1.5"/><path d="M16,3V5a1,1,0,0,1-1,1H9A1,1,0,0,1,8,5V3" fill="none" stroke="#323232" stroke-linecap="round" stroke-linejoin="round" stroke-width="1.5"/><path d="M8,21V19a1,1,0,0,1,1-1h6a1,1,0,0,1,1,1v2" fill="none" stroke="#323232" stroke-linecap="round" stroke-linejoin="round" stroke-width="1.5"/><rect x="3" y="3" width="18" height="18" rx="5" stroke-width="1.5" stroke="#323232" stroke-linecap="round" stroke-linejoin="round" fill="none"/><path d="M0,0H24V24H0Z" fill="none"/></svg>