<svg xmlns="http://www.w3.org/2000/svg" viewBox="0 0 24 24"><line x1="3" y1="17" x2="6" y2="17" fill="none" stroke="#323232" stroke-linecap="round" stroke-linejoin="round" stroke-width="1.5"/><path d="M5,14v5a2.00005,2.00005,0,0,0,2,2H19a2.00005,2.00005,0,0,0,2-2V5a2,2,0,0,0-2-2H7A2,2,0,0,0,5,5V6" fill="none" stroke="#323232" stroke-linecap="round" stroke-linejoin="round" stroke-width="1.5"/><line x1="9" y1="10.13996" x2="9" y2="7.13995" fill="none" stroke="#323232" stroke-linecap="round" stroke-linejoin="round" stroke-width="1.5"/><line x1="11.99999" y1="10.13996" x2="11.99999" y2="7.13996" fill="none" stroke="#323232" stroke-linecap="round" stroke-linejoin="round" stroke-width="1.5"/><rect x="9" y="13.5" width="3" height="4" rx="0.5" stroke-width="1.5" stroke="#323232" stroke-linecap="round" stroke-linejoin="round" fill="none"/><rect x="15" y="7" width="3" height="10.5" rx="0.5" stroke-width="1.5" stroke="#323232" stroke-linecap="round" stroke-linejoin="round" fill="none"/><rect x="3" y="6" width="3" height="8" rx="0.5" stroke-width="1.5" stroke="#323232" stroke-linecap="round" stroke-linejoin="round" fill="none"/><path d="M0,0H24V24H0Z" fill="none"/></svg>