<svg xmlns="http://www.w3.org/2000/svg" viewBox="0 0 24 24"><path d="M14,15H8.5A5.5,5.5,0,0,1,3,9.5H3A5.5,5.5,0,0,1,8.5,4H10" fill="none" stroke="#323232" stroke-linecap="round" stroke-linejoin="round" stroke-width="1.5"/><rect x="14" y="13.5" width="4" height="8" rx="1" stroke-width="1.5" stroke="#323232" stroke-linecap="round" stroke-linejoin="round" fill="none"/><path d="M18,14.5h2a1,1,0,0,1,1,1v4a1,1,0,0,1-1,1H18" fill="none" stroke="#323232" stroke-linecap="round" stroke-linejoin="round" stroke-width="1.5"/><rect x="10.00001" y="2.5" width="4" height="8" rx="1" stroke-width="1.5" stroke="#323232" stroke-linecap="round" stroke-linejoin="round" fill="none"/><path d="M14,3.5h2a1,1,0,0,1,1,1v4a1,1,0,0,1-1,1H14" fill="none" stroke="#323232" stroke-linecap="round" stroke-linejoin="round" stroke-width="1.5"/><path d="M3,14.5A5.5,5.5,0,0,0,8.5,20H14" fill="none" stroke="#323232" stroke-linecap="round" stroke-linejoin="round" stroke-width="1.5"/><path d="M10,9H8.5a5.49529,5.49529,0,0,0-4.89478,3" fill="none" stroke="#323232" stroke-linecap="round" stroke-linejoin="round" stroke-width="1.5"/><line x1="3.00001" y1="14.49999" x2="3.00001" y2="9.49999" fill="none" stroke="#323232" stroke-linecap="round" stroke-linejoin="round" stroke-width="1.5"/><path d="M0,24,0,0,24,0l0,24Z" fill="none"/></svg>