<svg xmlns="http://www.w3.org/2000/svg" viewBox="0 0 24 24"><path d="M20,7V18.97542A2.02459,2.02459,0,0,1,17.97542,21H6.02458A2.02459,2.02459,0,0,1,4,18.97542V7" fill="none" stroke="#323232" stroke-linecap="round" stroke-linejoin="round" stroke-width="1.5"/><path d="M5.00182,8H18.99818a1,1,0,0,0,.7994-1.6008L17.84292,3.7984A2,2,0,0,0,16.24412,3H7.75972a2,2,0,0,0-1.59766.79689L4.203,6.39845A1,1,0,0,0,5.00182,8Z" fill="none" stroke="#323232" stroke-linecap="round" stroke-linejoin="round" stroke-width="1.5"/><line x1="16" y1="14.5" x2="8" y2="14.5" fill="none" stroke="#323232" stroke-linecap="round" stroke-linejoin="round" stroke-width="1.5"/><rect x="8" y="11" width="8" height="7" rx="1" stroke-width="1.5" stroke="#323232" stroke-linecap="round" stroke-linejoin="round" fill="none"/><rect width="24" height="24" fill="none"/></svg>