<svg xmlns="http://www.w3.org/2000/svg" viewBox="0 0 24 24"><path d="M18,21H6a2,2,0,0,1-2-2V5A2,2,0,0,1,6,3h7.75736a3,3,0,0,1,2.12132.87868l3.24263,3.24263A3,3,0,0,1,20,9.24265V19A2,2,0,0,1,18,21Z" fill="none" stroke="#323232" stroke-linecap="round" stroke-linejoin="round" stroke-width="1.5"/><line x1="15.99999" y1="13.5" x2="8" y2="13.5" fill="none" stroke="#323232" stroke-linecap="round" stroke-linejoin="round" stroke-width="1.5"/><line x1="12.00001" y1="13.5" x2="12.00001" y2="17" fill="none" stroke="#323232" stroke-linecap="round" stroke-linejoin="round" stroke-width="1.5"/><rect x="8" y="10" width="8" height="7" rx="1" stroke-width="1.5" stroke="#323232" stroke-linecap="round" stroke-linejoin="round" fill="none"/><path d="M0,0H24V24H0Z" fill="none"/></svg>