<svg xmlns="http://www.w3.org/2000/svg" viewBox="0 0 24 24"><path d="M3.91667,6H8.08333A.41667.41667,0,0,1,8.5,6.41667v3.91666A1.66667,1.66667,0,0,1,6.83333,12H5.16667A1.66667,1.66667,0,0,1,3.5,10.33333V6.41667A.41667.41667,0,0,1,3.91667,6Z" fill="none" stroke="#323232" stroke-linecap="round" stroke-linejoin="round" stroke-width="1.5"/><path d="M4,6V3.5A.5.5,0,0,1,4.5,3h3a.5.5,0,0,1,.5.5V6" fill="none" stroke="#323232" stroke-linecap="round" stroke-linejoin="round" stroke-width="1.5"/><path d="M18,12V6a3,3,0,0,0-3-3h0a3,3,0,0,0-3,3V18a3,3,0,0,1-3,3H9a3,3,0,0,1-3-3V12" fill="none" stroke="#323232" stroke-linecap="round" stroke-linejoin="round" stroke-width="1.5"/><path d="M20,18v2.5a.5.5,0,0,1-.5.5h-3a.5.5,0,0,1-.5-.5V18" fill="none" stroke="#323232" stroke-linecap="round" stroke-linejoin="round" stroke-width="1.5"/><path d="M20.08333,18H15.91667A.41667.41667,0,0,1,15.5,17.58333V13.66667A1.66667,1.66667,0,0,1,17.16667,12h1.66666A1.66667,1.66667,0,0,1,20.5,13.66667v3.91666A.41667.41667,0,0,1,20.08333,18Z" fill="none" stroke="#323232" stroke-linecap="round" stroke-linejoin="round" stroke-width="1.5"/><rect width="24" height="24" fill="none"/></svg>