<svg xmlns="http://www.w3.org/2000/svg" viewBox="0 0 24 24"><path d="M15.5,11.5a1,1,0,0,0-1-1h-5a1,1,0,0,0-1,1V14a2,2,0,0,0,2,2h3a2,2,0,0,0,2-2Z" fill="none" stroke="#323232" stroke-linecap="round" stroke-linejoin="round" stroke-width="1.5"/><path d="M10,10.5V8a.5.5,0,0,1,.5-.5h3A.5.5,0,0,1,14,8v2.5" fill="none" stroke="#323232" stroke-linecap="round" stroke-linejoin="round" stroke-width="1.5"/><path d="M12,16v4a1,1,0,0,1-1,1H8a5,5,0,0,1-5-5V8A5,5,0,0,1,8,3h8a5,5,0,0,1,5,5v8a5,5,0,0,1-5,5H15" fill="none" stroke="#323232" stroke-linecap="round" stroke-linejoin="round" stroke-width="1.5"/><rect width="24" height="24" fill="none"/></svg>