<svg xmlns="http://www.w3.org/2000/svg" viewBox="0 0 24 24"><path d="M12,18h6.5A2.5,2.5,0,0,0,21,15.5V5.5A2.5,2.5,0,0,0,18.5,3h-7A2.5,2.5,0,0,0,9,5.5V14" fill="none" stroke="#323232" stroke-linecap="round" stroke-linejoin="round" stroke-width="1.5"/><line x1="11.5" y1="7.5" x2="12" y2="7.5" fill="none" stroke="#323232" stroke-linecap="round" stroke-linejoin="round" stroke-width="1.5"/><line x1="14.75" y1="7.49995" x2="15.25" y2="7.50005" fill="none" stroke="#323232" stroke-linecap="round" stroke-linejoin="round" stroke-width="1.5"/><line x1="18" y1="7.5" x2="18.5" y2="7.5" fill="none" stroke="#323232" stroke-linecap="round" stroke-linejoin="round" stroke-width="1.5"/><path d="M2,15l2.55056-4.25091A3,3,0,0,1,5.78138,9.60929l.58519-.29259A3.00013,3.00013,0,0,1,7.70824,9H9" fill="none" stroke="#323232" stroke-linecap="round" stroke-linejoin="round" stroke-width="1.5"/><path d="M7,21l2.80849-1.07382a4,4,0,0,0,1.89938-1.51694l3.01557-4.5219a1.64572,1.64572,0,0,0-.20551-2.07681h0a1.64581,1.64581,0,0,0-2.32725-.00024L10.00006,14H8" fill="none" stroke="#323232" stroke-linecap="round" stroke-linejoin="round" stroke-width="1.5"/></svg>