<svg xmlns="http://www.w3.org/2000/svg" viewBox="0 0 24 24"><path d="M9.999,9.5,7.13372,4.497A1,1,0,0,1,8.00148,3H9.11435a1,1,0,0,1,.70874.29453L16,9.5" fill="none" stroke="#323232" stroke-linecap="round" stroke-linejoin="round" stroke-width="1.5"/><path d="M9.07978,14l-2.96,5.528A1,1,0,0,0,7.00139,21H8.16221a1,1,0,0,0,.71114-.297L15.5,14" fill="none" stroke="#323232" stroke-linecap="round" stroke-linejoin="round" stroke-width="1.5"/><path d="M9,14H4.55486a1.99994,1.99994,0,0,1-1.89732-1.3675L1.05209,7.81623A1,1,0,0,1,2.00077,6.5H3.43523a1.5,1.5,0,0,1,1.30736.76461L6,9.5H20.75A2.25,2.25,0,0,1,23,11.75h0A2.25,2.25,0,0,1,20.75,14H15.5" fill="none" stroke="#323232" stroke-linecap="round" stroke-linejoin="round" stroke-width="1.5"/></svg>