<svg xmlns="http://www.w3.org/2000/svg" viewBox="0 0 24 24"><path d="M10.02261,13,8.59606,15.75968A.85.85,0,0,0,9.35114,17h.73465a1,1,0,0,0,.7071-.29289L14.5,13h3A1.5,1.5,0,0,0,19,11.5h0A1.5,1.5,0,0,0,17.5,10h-9L7.91459,8.82918A1.5,1.5,0,0,0,6.573,8H6.00077a1,1,0,0,0-.94869,1.31623l.886,2.65811A1.5,1.5,0,0,0,7.36115,13Z" fill="none" stroke="#323232" stroke-linecap="round" stroke-linejoin="round" stroke-width="1.5"/><path d="M15.5,10,11.79289,6.29289A1,1,0,0,0,11.08579,6h-.73465a.85.85,0,0,0-.75508,1.24032L11.02261,10" fill="none" stroke="#323232" stroke-linecap="round" stroke-linejoin="round" stroke-width="1.5"/><path d="M10.82325,21.88349h0A10.97578,10.97578,0,0,1,2,11.12087V7.5A5.5,5.5,0,0,1,7.5,2h9A5.5,5.5,0,0,1,22,7.5v3.62085a10.97575,10.97575,0,0,1-8.823,10.76257l-.00026,0A6,6,0,0,1,10.82325,21.88349Z" fill="none" stroke="#323232" stroke-linecap="round" stroke-linejoin="round" stroke-width="1.5"/></svg>