<svg xmlns="http://www.w3.org/2000/svg" viewBox="0 0 24 24"><circle cx="12" cy="12" r="10" fill="none" stroke="#323232" stroke-linecap="round" stroke-linejoin="round" stroke-width="1.5"/><path d="M10.75,13.75l-2-.0001L7.96268,14.8a.5.5,0,0,1-.4.2H6.25012a.5.5,0,0,1-.49319-.5822L6.15989,12l-.403-2.4178A.5.5,0,0,1,6.25012,9H7.56265a.5.5,0,0,1,.4.2L8.75,10.25l2,0-1.462-3.56A.5.5,0,0,1,9.75049,6h1.631a.99994.99994,0,0,1,.832.44528L14.75,10.25H17A1.75,1.75,0,0,1,18.75,12h0A1.75,1.75,0,0,1,17,13.75H14.75l-2.53646,3.80472a.99994.99994,0,0,1-.832.44528h-1.631a.5.5,0,0,1-.46252-.68994Z" fill="none" stroke="#323232" stroke-linecap="round" stroke-linejoin="round" stroke-width="1.5"/></svg>