<svg xmlns="http://www.w3.org/2000/svg" viewBox="0 0 24 24"><path d="M3.51387,15H6a2,2,0,0,0,2-2V11a2,2,0,0,1,2-2h2a2,2,0,0,0,2-2V3.22468" fill="none" stroke="#323232" stroke-linecap="round" stroke-linejoin="round" stroke-width="1.5"/><path d="M16.50094,16.25a.25.25,0,1,1-.251.25.24868.24868,0,0,1,.251-.25" fill="none" stroke="#323232" stroke-linecap="round" stroke-linejoin="round" stroke-width="1.5"/><path d="M13,16.5h0A3.5,3.5,0,0,1,16.5,13h0A3.5,3.5,0,0,1,20,16.5h0c0,1.66146-1.8567,3.43844-2.86618,4.28163a1.03042,1.03042,0,0,1-1.269-.0003C14.85628,19.93808,13,18.16128,13,16.5Z" fill="none" stroke="#323232" stroke-linecap="round" stroke-linejoin="round" stroke-width="1.5"/><path d="M12,21a9,9,0,1,1,9-9" fill="none" stroke="#323232" stroke-linecap="round" stroke-linejoin="round" stroke-width="1.5"/><path d="M20,16.5h0A3.5,3.5,0,0,0,16.5,13h0A3.5,3.5,0,0,0,13,16.5h0" fill="none" stroke="#323232" stroke-linecap="round" stroke-linejoin="round" stroke-width="1.5"/></svg>