<svg xmlns="http://www.w3.org/2000/svg" viewBox="0 0 24 24"><circle cx="12" cy="7" r="5" fill="none" stroke="#323232" stroke-linecap="round" stroke-linejoin="round" stroke-width="1.5"/><path d="M19.5,8.35l1.01447.60867A1,1,0,0,1,21,9.81618v9.6676a1,1,0,0,1-1.51447.85754L16.5766,18.596a.9999.9999,0,0,0-1.1145.0575L12.6,20.8a.99993.99993,0,0,1-1.2,0L8.5379,18.65346a.9999.9999,0,0,0-1.1145-.0575L4.51447,20.34132A1,1,0,0,1,3,19.48378V9.81618a1,1,0,0,1,.48553-.85749L4.5,8.35" fill="none" stroke="#323232" stroke-linecap="round" stroke-linejoin="round" stroke-width="1.5"/><line x1="10.25" y1="7" x2="13.75" y2="7" fill="none" stroke="#323232" stroke-linecap="round" stroke-linejoin="round" stroke-width="1.5"/><line x1="12" y1="8.75" x2="12" y2="5.25" fill="none" stroke="#323232" stroke-linecap="round" stroke-linejoin="round" stroke-width="1.5"/><line x1="8" y1="14" x2="8" y2="18.45582" fill="none" stroke="#323232" stroke-linecap="round" stroke-linejoin="round" stroke-width="1.5"/><line x1="16" y1="14" x2="16" y2="18.45582" fill="none" stroke="#323232" stroke-linecap="round" stroke-linejoin="round" stroke-width="1.5"/></svg>