<svg xmlns="http://www.w3.org/2000/svg" viewBox="0 0 24 24"><path d="M4,5V19a2,2,0,0,0,2,2H19a1,1,0,0,0,1-1V8a1,1,0,0,0-1-1H6A2,2,0,0,1,4,5H4A2,2,0,0,1,6,3H18.0428a1,1,0,0,1,1,1V7" fill="none" stroke="#323232" stroke-linecap="round" stroke-linejoin="round" stroke-width="1.5"/><path d="M11.58814,17.45922h0A3.84152,3.84152,0,0,1,8.5,13.69231V12.5a2,2,0,0,1,2-2h3a2,2,0,0,1,2,2v1.19229a3.84151,3.84151,0,0,1-3.088,3.7669l-.00009,0A2.1,2.1,0,0,1,11.58814,17.45922Z" fill="none" stroke="#323232" stroke-linecap="round" stroke-linejoin="round" stroke-width="1.5"/></svg>