<svg xmlns="http://www.w3.org/2000/svg" viewBox="0 0 24 24"><path d="M10.77076,9.29146h0a3.65752,3.65752,0,0,1,2.089,4.36788l-.032.1129a.875.875,0,0,1-1.18385.56713l-5.1106-2.16964a.875.875,0,0,1-.41582-1.24295L6.178,10.8221A3.65774,3.65774,0,0,1,10.77076,9.29146Z" fill="none" stroke="#323232" stroke-linecap="round" stroke-linejoin="round" stroke-width="1.5"/><line x1="9.11163" y1="13.26434" x2="7.52803" y2="17" fill="none" stroke="#323232" stroke-linecap="round" stroke-linejoin="round" stroke-width="1.5"/><rect x="2" y="6" width="15" height="15" rx="2" stroke-width="1.5" stroke="#323232" stroke-linecap="round" stroke-linejoin="round" fill="none"/><line x1="2" y1="17" x2="17" y2="17" fill="none" stroke="#323232" stroke-linecap="round" stroke-linejoin="round" stroke-width="1.5"/><path d="M7.76813,6,8.182,3.65308a2,2,0,0,1,2.3169-1.62233L20.347,3.76721a2,2,0,0,1,1.62232,2.3169L20.05915,16.917a2,2,0,0,1-2.3169,1.62235L17,18.40845" fill="none" stroke="#323232" stroke-linecap="round" stroke-linejoin="round" stroke-width="1.5"/></svg>