<?xml version="1.0" encoding="UTF-8"?><svg version="1.1" viewBox="0 0 24 24" xmlns="http://www.w3.org/2000/svg" xmlns:xlink="http://www.w3.org/1999/xlink"><!--Generated by IJSVG (https://github.com/iconjar/IJSVG)--><g stroke-linecap="round" stroke-width="1.5" fill-rule="evenodd" stroke="#323232" fill="none" stroke-linejoin="round"><path d="M19.063,16h-14.126c-1.07,0 -1.937,-0.867 -1.937,-1.937v-8.126c0,-1.07 0.867,-1.937 1.937,-1.937h14.125c1.071,0 1.938,0.867 1.938,1.937v8.125c0,1.071 -0.867,1.938 -1.937,1.938Z"></path><path d="M7,11l0.89,-0.974l-0.89,-1.026"></path><path d="M9,13l2.486,-2.974l-2.486,-3.026"></path><path d="M7.89,10.03l6.11,-0.03"></path></g><path fill="none" stroke="#323232" stroke-linecap="round" stroke-linejoin="round" stroke-width="1.5" d="M4,20h16"></path><g stroke-linecap="round" stroke-width="1.5" stroke="#323232" fill="none" stroke-linejoin="round"><path d="M17,7c-0.003,0 -0.005,0.002 -0.005,0.005c0,0.003 0.002,0.005 0.005,0.005c0.003,0 0.005,-0.002 0.005,-0.005c0,-0.003 -0.002,-0.005 -0.005,-0.005"></path><path d="M17.005,9.995c-0.003,0 -0.005,0.002 -0.005,0.005c0,0.003 0.002,0.005 0.005,0.005c0.003,0 0.005,-0.002 0.005,-0.005c3.55271e-15,-0.003 -0.002,-0.005 -0.005,-0.005"></path><path d="M17,13c-0.003,0 -0.005,0.002 -0.005,0.005c0,0.003 0.002,0.005 0.005,0.005c0.003,0 0.005,-0.002 0.005,-0.005c0,-0.003 -0.002,-0.005 -0.005,-0.005"></path></g><path fill="none" d="M0,0h24v24h-24Z"></path></svg>