<?xml version="1.0" encoding="UTF-8"?><svg version="1.1" viewBox="0 0 24 24" xmlns="http://www.w3.org/2000/svg" xmlns:xlink="http://www.w3.org/1999/xlink"><!--Generated by IJSVG (https://github.com/iconjar/IJSVG)--><g stroke-linecap="round" stroke-width="1.5" stroke="#323232" fill="none" stroke-linejoin="round"><path d="M3,20h13"></path><path d="M5.636,14.636l-2.636,-2.636l1.553,-0.776c0.282,-0.141 0.613,-0.141 0.894,0l1.553,0.776l3.192,-1.977l-4.192,-4l3,-1.023l5,3l4.707,-2.69c1.151,-0.658 2.612,-0.034 2.933,1.252v0c0.214,0.854 -0.157,1.748 -0.912,2.201l-8.403,5.042c-0.215,0.129 -0.453,0.217 -0.7,0.258l-5.118,0.853c-0.318,0.052 -0.643,-0.052 -0.871,-0.28Z"></path></g><path fill="none" d="M0,0h24v24h-24v-24Z"></path></svg>