<svg xmlns="http://www.w3.org/2000/svg" viewBox="0 0 24 24"><circle cx="12" cy="4.5" r="2.5" fill="none" stroke="#323232" stroke-linecap="round" stroke-linejoin="round" stroke-width="1.5"/><line x1="12" y1="13" x2="12" y2="9.5" fill="none" stroke="#323232" stroke-linecap="round" stroke-linejoin="round" stroke-width="1.5"/><line x1="21" y1="13" x2="21" y2="21" fill="none" stroke="#323232" stroke-linecap="round" stroke-linejoin="round" stroke-width="1.5"/><line x1="3" y1="21" x2="3" y2="13" fill="none" stroke="#323232" stroke-linecap="round" stroke-linejoin="round" stroke-width="1.5"/><path d="M17,13v-.5a3,3,0,0,0-3-3H10a3,3,0,0,0-3,3V13" fill="none" stroke="#323232" stroke-linecap="round" stroke-linejoin="round" stroke-width="1.5"/><path d="M11.70581,20.97087h0A2.74393,2.74393,0,0,1,9.5,18.28022V17.5A1.5,1.5,0,0,1,11,16h2a1.5,1.5,0,0,1,1.5,1.5v.78021a2.74393,2.74393,0,0,1-2.20575,2.69064l-.00006,0A1.50011,1.50011,0,0,1,11.70581,20.97087Z" fill="none" stroke="#323232" stroke-linecap="round" stroke-linejoin="round" stroke-width="1.5"/><line x1="22" y1="13" x2="2" y2="13" fill="none" stroke="#323232" stroke-linecap="round" stroke-linejoin="round" stroke-width="1.5"/></svg>