<?xml version="1.0" encoding="UTF-8"?><svg version="1.1" viewBox="0 0 24 24" xmlns="http://www.w3.org/2000/svg" xmlns:xlink="http://www.w3.org/1999/xlink"><!--Generated by IJSVG (https://github.com/iconjar/IJSVG)--><g stroke-linecap="round" stroke-width="1.5" stroke="#323232" fill="none" stroke-linejoin="round"><path d="M5.996,12.782c-0.997,-0.19 -1.935,-0.747 -2.527,-1.776c-0.688,-1.195 -0.618,-2.745 0.187,-3.863c1.123,-1.56 3.124,-1.935 4.696,-1.172c0.324,-1.69 1.831,-2.971 3.648,-2.971c1.817,0 3.324,1.281 3.647,2.971c1.569,-0.761 3.564,-0.39 4.688,1.16c0.809,1.116 0.881,2.663 0.201,3.862c-0.591,1.042 -1.532,1.595 -2.532,1.784l-0.007,6.223c-0.001,1.104 -0.896,1.998 -2,1.998l-8.008,0.002c-1.106,0 -2.002,-0.897 -2,-2.002l0.007,-6.216Z"></path><path d="M18,16.5h-12"></path></g><path fill="none" d="M0,0h24v24h-24Z"></path></svg>