<?xml version="1.0" encoding="UTF-8"?><svg version="1.1" viewBox="0 0 24 24" xmlns="http://www.w3.org/2000/svg" xmlns:xlink="http://www.w3.org/1999/xlink"><!--Generated by IJSVG (https://github.com/iconjar/IJSVG)--><g stroke-linecap="round" stroke-width="1.5" stroke="#323232" fill="none" stroke-linejoin="round"><path d="M18,15.052v0c-1.657,0 -3,-1.343 -3,-3v-6c0,-1.657 1.343,-3 3,-3v0"></path><path d="M18,3.052h1c0.552,0 1,0.448 1,1v17"></path><path d="M18,15.05h2"></path><path d="M6.5,11.55l-0.01,9.45"></path><path d="M6.5,8.55v-5.55"></path><path d="M3,3.084v4.552v-0.09c0,2.209 1.567,4 3.5,4c1.933,0 3.5,-1.791 3.5,-4v0.09v-4.552"></path></g><path fill="none" d="M0,0h24v24h-24Z"></path></svg>