<?xml version="1.0" encoding="UTF-8"?><svg version="1.1" viewBox="0 0 24 24" xmlns="http://www.w3.org/2000/svg" xmlns:xlink="http://www.w3.org/1999/xlink"><!--Generated by IJSVG (https://github.com/iconjar/IJSVG)--><g fill="none"><path d="M0,0h24v24h-24Z"></path><path stroke="#323232" stroke-linecap="round" stroke-linejoin="round" stroke-width="1.5" d="M12.595,7.235c-0.037,-0.512 -0.056,-1.025 -0.056,-1.539c-1.77636e-15,-1.489 -1.208,-2.696 -2.697,-2.696h-3.078c-1.489,0 -2.696,1.207 -2.696,2.696v1.539l-1.045,7.103c-0.188,1.279 0.802,2.426 2.095,2.426h5.582"></path><path stroke="#323232" stroke-linecap="round" stroke-linejoin="round" stroke-width="1.5" d="M20.162,12.993l0.816,5.583c0.186,1.278 -0.805,2.424 -2.096,2.424h-6.364c-1.292,0 -2.283,-1.147 -2.095,-2.426l1.045,-7.103v-1.539c0,-1.489 1.207,-2.696 2.696,-2.696h3.078c1.489,0 2.696,1.207 2.696,2.696v0c0.001,1.024 0.076,2.047 0.224,3.061Z"></path><path stroke="#323232" stroke-linecap="round" stroke-linejoin="round" stroke-width="1.5" d="M20,11.47h-8.53"></path><path stroke="#323232" stroke-linecap="round" stroke-linejoin="round" stroke-width="1.5" d="M14.18,7.24h-10.11"></path></g></svg>