<svg xmlns="http://www.w3.org/2000/svg" viewBox="0 0 24 24"><path d="M16.5,10H14.75a1.25,1.25,0,0,0-1.25,1.25v2.5A1.25,1.25,0,0,0,14.75,15H16.5" fill="none" stroke="#323232" stroke-linecap="round" stroke-linejoin="round" stroke-width="1.5"/><path d="M10.5,10H8.75A1.25,1.25,0,0,0,7.5,11.25v2.5A1.25,1.25,0,0,0,8.75,15H10.5" fill="none" stroke="#323232" stroke-linecap="round" stroke-linejoin="round" stroke-width="1.5"/><path d="M20.12132,6.12132,17.87868,3.87868A3,3,0,0,0,15.75736,3H6A3,3,0,0,0,3,6V18a3,3,0,0,0,3,3H18a3,3,0,0,0,3-3V8.24264A3,3,0,0,0,20.12132,6.12132Z" fill="none" stroke="#323232" stroke-linecap="round" stroke-linejoin="round" stroke-width="1.5"/></svg>