<svg xmlns="http://www.w3.org/2000/svg" viewBox="0 0 24 24"><path d="M4.61108,11H19a1,1,0,0,1,1,1v7a2,2,0,0,1-2,2H6.61108a2,2,0,0,1-2-2V11A0,0,0,0,1,4.61108,11Z" fill="none" stroke="#323232" stroke-linecap="round" stroke-linejoin="round" stroke-width="1.5"/><line x1="9.15419" y1="9.44454" x2="9.15419" y2="5.77397" fill="none" stroke="#323232" stroke-linecap="round" stroke-linejoin="round" stroke-width="1.5"/><line x1="14.2965" y1="7.96868" x2="14.2965" y2="4.02912" fill="none" stroke="#323232" stroke-linecap="round" stroke-linejoin="round" stroke-width="1.5"/><path d="M19.08676,7.13982,4.61108,11,4.06016,8.79636a2,2,0,0,1,1.425-2.41754L18.0281,3.034a1,1,0,0,1,1.2278.7237l.54334,2.17332A1,1,0,0,1,19.08676,7.13982Z" fill="none" stroke="#323232" stroke-linecap="round" stroke-linejoin="round" stroke-width="1.5"/></svg>