<svg xmlns="http://www.w3.org/2000/svg" viewBox="0 0 24 24"><path d="M10,16.336l2.00893-1.23831A.65.65,0,0,1,13,15.651V19.349a.65.65,0,0,1-.99108.55333L10,18.664" fill="none" stroke="#323232" stroke-linecap="round" stroke-linejoin="round" stroke-width="1.5"/><rect x="3" y="14" width="7" height="7" rx="1.5" stroke-width="1.5" stroke="#323232" stroke-linecap="round" stroke-linejoin="round" fill="none"/><path d="M16,21h1a3,3,0,0,0,3-3V8.50932A3,3,0,0,0,19.12132,6.388L16.612,3.87867A3,3,0,0,0,14.49067,3H7A3,3,0,0,0,4,6v4.5" fill="none" stroke="#323232" stroke-linecap="round" stroke-linejoin="round" stroke-width="1.5"/></svg>