<svg xmlns="http://www.w3.org/2000/svg" viewBox="0 0 24 24"><path d="M7,10v5" fill="none" stroke="#323232" stroke-linecap="round" stroke-linejoin="round" stroke-width="1.5"/><path d="M10.5,10v5" fill="none" stroke="#323232" stroke-linecap="round" stroke-linejoin="round" stroke-width="1.5"/><path d="M7,12.5h3.5" fill="none" stroke="#323232" stroke-linecap="round" stroke-linejoin="round" stroke-width="1.5"/><path d="M17,13.25v-1.5A1.75,1.75,0,0,0,15.25,10H13.5v5h1.75A1.75,1.75,0,0,0,17,13.25Z" fill="none" stroke="#323232" stroke-linecap="round" stroke-linejoin="round" stroke-width="1.5"/><path d="M20.12132,6.12132,17.87868,3.87868A3,3,0,0,0,15.75736,3H6A3,3,0,0,0,3,6V18a3,3,0,0,0,3,3H18a3,3,0,0,0,3-3V8.24264A3,3,0,0,0,20.12132,6.12132Z" fill="none" stroke="#323232" stroke-linecap="round" stroke-linejoin="round" stroke-width="1.5"/></svg>