<svg xmlns="http://www.w3.org/2000/svg" viewBox="0 0 24 24"><path d="M3,17V5A2,2,0,0,1,5,3H19a2,2,0,0,1,2,2V17" fill="none" stroke="#323232" stroke-linecap="round" stroke-linejoin="round" stroke-width="1.5"/><path d="M9.75,8.25152a1,1,0,0,1,1.51446-.85747l3.33079,1.99848a1,1,0,0,1,0,1.71494L11.26447,13.106A1,1,0,0,1,9.75,12.24848Z" fill="none" stroke="#323232" stroke-linecap="round" stroke-linejoin="round" stroke-width="1.5"/><path d="M2.5,17h19a1,1,0,0,1,1,1v0a3,3,0,0,1-3,3H4.5a3,3,0,0,1-3-3v0A1,1,0,0,1,2.5,17Z" fill="none" stroke="#323232" stroke-linecap="round" stroke-linejoin="round" stroke-width="1.5"/></svg>