<svg xmlns="http://www.w3.org/2000/svg" viewBox="0 0 24 24"><path d="M9.75,8.55149A1,1,0,0,1,11.26446,7.694L14.59525,9.6925a1,1,0,0,1,0,1.71494l-3.33078,1.99848A1,1,0,0,1,9.75,12.54845Z" fill="none" stroke="#323232" stroke-linecap="round" stroke-linejoin="round" stroke-width="1.5"/><path d="M12.5,18,8.90349,20.87712A.5561.5561,0,0,1,8,20.44288V18H6a3,3,0,0,1-3-3V6A3,3,0,0,1,6,3H18a3,3,0,0,1,3,3v9a3,3,0,0,1-3,3Z" fill="none" stroke="#323232" stroke-linecap="round" stroke-linejoin="round" stroke-width="1.5"/></svg>