<svg xmlns="http://www.w3.org/2000/svg" viewBox="0 0 24 24"><path d="M6,21H5a2,2,0,0,1-2-2V5A2,2,0,0,1,5,3h8a2,2,0,0,1,2,2V9" fill="none" stroke="#323232" stroke-linecap="round" stroke-linejoin="round" stroke-width="1.5"/><path d="M11.49809,3V5a.5.5,0,0,1-.5.5h-4a.5.5,0,0,1-.5-.5V3" fill="none" stroke="#323232" stroke-linecap="round" stroke-linejoin="round" stroke-width="1.5"/><path d="M14,15H13a1,1,0,0,0-1,1v1a1,1,0,0,0,1,1h1" fill="none" stroke="#323232" stroke-linecap="round" stroke-linejoin="round" stroke-width="1.5"/><path d="M18,15H17a1,1,0,0,0-1,1v1a1,1,0,0,0,1,1h1" fill="none" stroke="#323232" stroke-linecap="round" stroke-linejoin="round" stroke-width="1.5"/><rect x="9" y="12" width="12" height="9" rx="2" stroke-width="1.5" stroke="#323232" stroke-linecap="round" stroke-linejoin="round" fill="none"/></svg>