<svg xmlns="http://www.w3.org/2000/svg" viewBox="0 0 24 24"><path d="M7.12132,20.12132,3.87868,16.87868A3,3,0,0,1,3,14.75736V9.24364a3,3,0,0,1,.87868-2.12132L7.12232,3.87868A3,3,0,0,1,9.24364,3h5.51172a3,3,0,0,1,2.12132.87868l3.24464,3.24464A3,3,0,0,1,21,9.24464v5.51161a3,3,0,0,1-.87828,2.12092l-3.24253,3.24375A3,3,0,0,1,14.75747,21H9.24264A3,3,0,0,1,7.12132,20.12132Z" fill="none" stroke="#323232" stroke-linecap="round" stroke-linejoin="round" stroke-width="1.5"/><path d="M9.75,10.00152a1,1,0,0,1,1.51446-.85747l3.33079,1.99848a1,1,0,0,1,0,1.71494L11.26447,14.856A1,1,0,0,1,9.75,13.99848Z" fill="none" stroke="#323232" stroke-linecap="round" stroke-linejoin="round" stroke-width="1.5"/></svg>