<svg xmlns="http://www.w3.org/2000/svg" viewBox="0 0 24 24"><path d="M13.65,9.75h-2a.5.5,0,0,0-.5.5v3.5a.5.5,0,0,0,.5.5h2" fill="none" stroke="#323232" stroke-linecap="round" stroke-linejoin="round" stroke-width="1.5"/><path d="M11.152,12h2.05" fill="none" stroke="#323232" stroke-linecap="round" stroke-linejoin="round" stroke-width="1.5"/><path d="M18.5,9.75H17a1,1,0,0,0-1,1v2.5a1,1,0,0,0,1,1h1.5" fill="none" stroke="#323232" stroke-linecap="round" stroke-linejoin="round" stroke-width="1.5"/><circle cx="12" cy="12" r="10" fill="none" stroke="#323232" stroke-linecap="round" stroke-linejoin="round" stroke-width="1.5"/><path d="M7.166,12.2536,8.5,14.25" fill="none" stroke="#323232" stroke-linecap="round" stroke-linejoin="round" stroke-width="1.5"/><path d="M5.5,9.75H7.25A1.25,1.25,0,0,1,8.5,11v0a1.25,1.25,0,0,1-1.25,1.25H5.5a0,0,0,0,1,0,0V9.75A0,0,0,0,1,5.5,9.75Z" fill="none" stroke="#323232" stroke-linecap="round" stroke-linejoin="round" stroke-width="1.5"/><path d="M5.5,9.75v4.5" fill="none" stroke="#323232" stroke-linecap="round" stroke-linejoin="round" stroke-width="1.5"/></svg>