<svg xmlns="http://www.w3.org/2000/svg" viewBox="0 0 24 24"><path d="M20.12132,6.12132,17.87868,3.87868A3,3,0,0,0,15.75736,3H6A3,3,0,0,0,3,6V18a3,3,0,0,0,3,3H18a3,3,0,0,0,3-3V8.24264A3,3,0,0,0,20.12132,6.12132Z" fill="none" stroke="#323232" stroke-linecap="round" stroke-linejoin="round" stroke-width="1.5"/><path d="M7.13474,15H9.25281A1.2472,1.2472,0,0,0,10.5,13.75281v-.01122A1.24719,1.24719,0,0,0,9.25281,12.4944H8.24719A1.2472,1.2472,0,0,1,7,11.2472H7A1.2472,1.2472,0,0,1,8.24719,10h1.86392" fill="none" stroke="#323232" stroke-linecap="round" stroke-linejoin="round" stroke-width="1.5"/><path d="M13.5,10v5h1.75A1.75,1.75,0,0,0,17,13.25v-1.5A1.75,1.75,0,0,0,15.25,10Z" fill="none" stroke="#323232" stroke-linecap="round" stroke-linejoin="round" stroke-width="1.5"/></svg>