<svg xmlns="http://www.w3.org/2000/svg" viewBox="0 0 24 24"><path d="M7,15.40872H2" fill="none" stroke="#323232" stroke-linecap="round" stroke-linejoin="round" stroke-width="1.5"/><path d="M7,8.625H2" fill="none" stroke="#323232" stroke-linecap="round" stroke-linejoin="round" stroke-width="1.5"/><path d="M7,3V21" fill="none" stroke="#323232" stroke-linecap="round" stroke-linejoin="round" stroke-width="1.5"/><path d="M17,15.375h5" fill="none" stroke="#323232" stroke-linecap="round" stroke-linejoin="round" stroke-width="1.5"/><path d="M17,21V13" fill="none" stroke="#323232" stroke-linecap="round" stroke-linejoin="round" stroke-width="1.5"/><path d="M17.62261,2.52021a1,1,0,0,1,1.75478,0l.77948,1.42535a.99993.99993,0,0,0,.39757.39757l1.42535.77948a1,1,0,0,1,0,1.75478l-1.42535.77948a.99993.99993,0,0,0-.39757.39757l-.77948,1.42535a1,1,0,0,1-1.75478,0l-.77948-1.42535a.99993.99993,0,0,0-.39757-.39757l-1.42535-.77948a1,1,0,0,1,0-1.75478l1.42535-.77948a.99993.99993,0,0,0,.39757-.39757Z" fill="none" stroke="#323232" stroke-linecap="round" stroke-linejoin="round" stroke-width="1.5"/><path d="M22,12v6.75A2.25,2.25,0,0,1,19.75,21H4.25A2.25,2.25,0,0,1,2,18.75V5.25A2.25,2.25,0,0,1,4.25,3H12.5" fill="none" stroke="#323232" stroke-linecap="round" stroke-linejoin="round" stroke-width="1.5"/></svg>