<svg xmlns="http://www.w3.org/2000/svg" viewBox="0 0 24 24"><path d="M21.5,18.5A2.5,2.5,0,0,0,19,16h0a2.5,2.5,0,0,0-2.5,2.5" fill="none" stroke="#323232" stroke-linecap="round" stroke-linejoin="round" stroke-width="1.5"/><path d="M11.5,8h1a4,4,0,0,1,4,4v6.5A2.5,2.5,0,0,0,19,21h0a2.5,2.5,0,0,0,2.5-2.5V12a9,9,0,0,0-9-9h-1" fill="none" stroke="#323232" stroke-linecap="round" stroke-linejoin="round" stroke-width="1.5"/><path d="M11.5,8h0a4,4,0,0,0-4,4h0a4,4,0,0,0,4,4h0a2.5,2.5,0,0,1,0,5h0a9,9,0,0,1-9-9v0a9,9,0,0,1,9-9h0a2.5,2.5,0,0,1,0,5Z" fill="none" stroke="#323232" stroke-linecap="round" stroke-linejoin="round" stroke-width="1.5"/></svg>