<svg xmlns="http://www.w3.org/2000/svg" viewBox="0 0 24 24"><rect width="24" height="24" fill="none"/><rect x="3" y="3" width="18" height="18" rx="5" stroke-width="1.5" stroke="#323232" stroke-linecap="round" stroke-linejoin="round" fill="none"/><path d="M12,15.18359l.42966.67268A2.47723,2.47723,0,0,0,14.51734,17h0a2.47906,2.47906,0,0,0,2.16458-3.68748L13.7222,8.01091a1.9724,1.9724,0,0,0-3.4444,0L7.31807,13.31252A2.47906,2.47906,0,0,0,9.48265,17h0a2.47906,2.47906,0,0,0,2.09066-1.14682Z" fill="none" stroke="#323232" stroke-linecap="round" stroke-linejoin="round" stroke-width="1.5"/><path d="M12,15.18359l-1.23327-1.93532A1.46239,1.46239,0,0,1,12,11h0a1.46239,1.46239,0,0,1,1.23327,2.24827Z" fill="none" stroke="#323232" stroke-linecap="round" stroke-linejoin="round" stroke-width="1.5"/></svg>