<?xml version="1.0" encoding="utf-8"?>
<!-- Generator: Adobe Illustrator 24.3.0, SVG Export Plug-In . SVG Version: 6.00 Build 0)  -->
<svg version="1.1" id="Layer_1" xmlns="http://www.w3.org/2000/svg" xmlns:xlink="http://www.w3.org/1999/xlink" x="0px" y="0px"
	 viewBox="0 0 24 24" style="enable-background:new 0 0 24 24;" xml:space="preserve">
<style type="text/css">
	.st0{fill:none;stroke:#323232;stroke-width:1.5;stroke-linecap:round;stroke-linejoin:round;}
</style>
<path class="st0" d="M8,3h8c2.8,0,5,2.2,5,5v8c0,2.8-2.2,5-5,5H8c-2.8,0-5-2.2-5-5V8C3,5.2,5.2,3,8,3z"/>
<line class="st0" x1="15.8" y1="8.5" x2="8.2" y2="8.5"/>
<line class="st0" x1="15.2" y1="11" x2="8.8" y2="11"/>
<line class="st0" x1="11.8" y1="6.5" x2="11.8" y2="11"/>
<path class="st0" d="M20.8,17.5l-7-3.2c-1.2-0.5-2.5-0.8-3.8-0.8l0,0"/>
<path class="st0" d="M10,17.5L10,17.5c2.9,0,5.2-2.4,5.2-5.2l0,0V11"/>
<path class="st0" d="M10,17.5c-1.4,0-2.5-0.9-2.5-2s1.1-2,2.5-2"/>
</svg>
