<svg xmlns="http://www.w3.org/2000/svg" viewBox="0 0 24 24"><path d="M19.29289,19.29289,16,16V9a1,1,0,0,0-1-1H8L4.70711,4.70711A1,1,0,0,1,5.41421,3H20a1,1,0,0,1,1,1V18.58579A1,1,0,0,1,19.29289,19.29289Z" fill="none" stroke="#323232" stroke-linecap="round" stroke-linejoin="round" stroke-width="1.5"/><path d="M11.29289,20.70711,16,16H9a1,1,0,0,1-1-1V8L3.29289,12.70711A1,1,0,0,0,3,13.41421V20a1,1,0,0,0,1,1h6.58579A1,1,0,0,0,11.29289,20.70711Z" fill="none" stroke="#323232" stroke-linecap="round" stroke-linejoin="round" stroke-width="1.5"/></svg>