<svg xmlns="http://www.w3.org/2000/svg" viewBox="0 0 24 24"><rect x="2.99999" y="3" width="18" height="18" rx="5" transform="translate(23.99998 24) rotate(-180)" stroke-width="1.5" stroke="#323232" stroke-linecap="round" stroke-linejoin="round" fill="none"/><path d="M18,15l-.10558-.58066A5.991,5.991,0,0,0,12,9.5h0a5.99106,5.99106,0,0,0-5.89442,4.91934L6,15a1,1,0,0,0,1,1H17A1,1,0,0,0,18,15Z" fill="none" stroke="#323232" stroke-linecap="round" stroke-linejoin="round" stroke-width="1.5"/><line x1="14.70999" y1="10.14996" x2="16" y2="8" fill="none" stroke="#323232" stroke-linecap="round" stroke-linejoin="round" stroke-width="1.5"/><line x1="8" y1="8" x2="9.28682" y2="10.14464" fill="none" stroke="#323232" stroke-linecap="round" stroke-linejoin="round" stroke-width="1.5"/><path d="M14,12.95l-.005.005-.005-.005.005-.005L14,12.95" fill="none" stroke="#323232" stroke-linecap="round" stroke-linejoin="round" stroke-width="1.5"/><path d="M10.1,12.95l-.005.005-.005-.005.005-.005.005.005" fill="none" stroke="#323232" stroke-linecap="round" stroke-linejoin="round" stroke-width="1.5"/></svg>