<svg xmlns="http://www.w3.org/2000/svg" viewBox="0 0 24 24"><path d="M18,14.5l-.10558-.58066A5.991,5.991,0,0,0,12,9h0a5.99106,5.99106,0,0,0-5.89442,4.91934L6,14.5a1,1,0,0,0,1,1H17A1,1,0,0,0,18,14.5Z" fill="none" stroke="#323232" stroke-linecap="round" stroke-linejoin="round" stroke-width="1.5"/><line x1="14.70999" y1="9.64996" x2="16" y2="7.5" fill="none" stroke="#323232" stroke-linecap="round" stroke-linejoin="round" stroke-width="1.5"/><line x1="8" y1="7.5" x2="9.28682" y2="9.64464" fill="none" stroke="#323232" stroke-linecap="round" stroke-linejoin="round" stroke-width="1.5"/><circle cx="12" cy="12" r="10" fill="none" stroke="#323232" stroke-linecap="round" stroke-linejoin="round" stroke-width="1.5"/><path d="M14,12.45l-.005.005-.005-.005.005-.005L14,12.45" fill="none" stroke="#323232" stroke-linecap="round" stroke-linejoin="round" stroke-width="1.5"/><path d="M10.1,12.45l-.005.005-.005-.005.005-.005.005.005" fill="none" stroke="#323232" stroke-linecap="round" stroke-linejoin="round" stroke-width="1.5"/></svg>