<svg xmlns="http://www.w3.org/2000/svg" viewBox="0 0 24 24"><rect width="24" height="24" fill="none"/><path d="M15.75,12h-1.5a1.5,1.5,0,0,0-1.5,1.5h0a1.5,1.5,0,0,0,1.5,1.5h.5a1,1,0,0,0,1-1V8.00141a1,1,0,0,0-1.47885-.87789l-3.5,1.90909A1,1,0,0,0,10.25,9.9105V16a1,1,0,0,1-1,1h-.5a1.5,1.5,0,0,1-1.5-1.5h0A1.5,1.5,0,0,1,8.75,14h1.5" fill="none" stroke="#323232" stroke-linecap="round" stroke-linejoin="round" stroke-width="1.5"/><rect x="3" y="3" width="18" height="18" rx="5" stroke-width="1.5" stroke="#323232" stroke-linecap="round" stroke-linejoin="round" fill="none"/></svg>