<svg xmlns="http://www.w3.org/2000/svg" viewBox="0 0 24 24"><path d="M15.5,11.5H14A1.5,1.5,0,0,0,12.5,13h0A1.5,1.5,0,0,0,14,14.5h.5a1,1,0,0,0,1-1V7.50141a1,1,0,0,0-1.47885-.87789l-3.5,1.90909A1,1,0,0,0,10,9.4105V15.5a1,1,0,0,1-1,1H8.5A1.5,1.5,0,0,1,7,15H7a1.5,1.5,0,0,1,1.5-1.5H10" fill="none" stroke="#323232" stroke-linecap="round" stroke-linejoin="round" stroke-width="1.5"/><circle cx="12" cy="12" r="10" fill="none" stroke="#323232" stroke-linecap="round" stroke-linejoin="round" stroke-width="1.5"/><path d="M0,0H24V24H0Z" fill="none"/></svg>