<svg xmlns="http://www.w3.org/2000/svg" viewBox="0 0 24 24"><path d="M11.55062,14.5h.11878a1.8,1.8,0,0,0,1.76505-1.447l.28-1.4A1.8,1.8,0,0,0,11.9494,9.5h-.11878a1.8,1.8,0,0,0-1.765,1.447l-.28,1.4A1.8,1.8,0,0,0,11.55062,14.5Z" fill="none" stroke="#323232" stroke-linecap="round" stroke-linejoin="round" stroke-width="1.5"/><path d="M13.71445,11.653l-.17622.88106A1.64359,1.64359,0,0,0,15.14991,14.5h0a1.64358,1.64358,0,0,0,1.61167-1.32126l.13964-.69816A5,5,0,0,0,11.99831,6.5h-.2966a5,5,0,0,0-4.9029,4.01942l-.2,1A5,5,0,0,0,11.50171,17.5H14" fill="none" stroke="#323232" stroke-linecap="round" stroke-linejoin="round" stroke-width="1.5"/><rect x="3" y="3" width="18" height="18" rx="5" stroke-width="1.5" stroke="#323232" stroke-linecap="round" stroke-linejoin="round" fill="none"/></svg>