<svg xmlns="http://www.w3.org/2000/svg" viewBox="0 0 24 24"><path d="M8.38889,8.5H10.75a1.75,1.75,0,0,1,1.75,1.75v0A1.75,1.75,0,0,1,10.75,12H8a0,0,0,0,1,0,0V8.88889A.38889.38889,0,0,1,8.38889,8.5Z" fill="none" stroke="#323232" stroke-linecap="round" stroke-linejoin="round" stroke-width="1.5"/><path d="M8,12h3.5a1.75,1.75,0,0,1,1.75,1.75v0A1.75,1.75,0,0,1,11.5,15.5h-3A.5.5,0,0,1,8,15V12A0,0,0,0,1,8,12Z" fill="none" stroke="#323232" stroke-linecap="round" stroke-linejoin="round" stroke-width="1.5"/><line x1="16" y1="12.5" x2="16" y2="8.5" fill="none" stroke="#323232" stroke-linecap="round" stroke-linejoin="round" stroke-width="1.5"/><circle cx="12" cy="12" r="10" fill="none" stroke="#323232" stroke-linecap="round" stroke-linejoin="round" stroke-width="1.5"/><path d="M16.125,15.37548A.125.125,0,1,1,16,15.25a.12434.12434,0,0,1,.125.12548" fill="none" stroke="#323232" stroke-linecap="round" stroke-linejoin="round" stroke-width="1.5"/></svg>