<svg xmlns="http://www.w3.org/2000/svg" viewBox="0 0 24 24"><path d="M22,9.40857a5.4848,5.4848,0,0,0-1.5496-3.7984,5.30163,5.30163,0,0,0-3.72-1.608l-.0008-.0008A5.08312,5.08312,0,0,0,12,6.967a5.06561,5.06561,0,0,0-4.728-2.9656,5.30167,5.30167,0,0,0-3.7224,1.608A5.48485,5.48485,0,0,0,2,9.40857" fill="none" stroke="#323232" stroke-linecap="round" stroke-linejoin="round" stroke-width="1.5"/><path d="M2,9.40857C2,15.2586,7.496,20,12,20c4.5024,0,10-4.7414,10-10.59143" fill="none" stroke="#323232" stroke-linecap="round" stroke-linejoin="round" stroke-width="1.5"/><path d="M16.50159,11a4.6007,4.6007,0,0,1-4.50037,4,4.60087,4.60087,0,0,1-4.49963-4" fill="none" stroke="#323232" stroke-linecap="round" stroke-linejoin="round" stroke-width="1.5"/></svg>