<svg xmlns="http://www.w3.org/2000/svg" viewBox="0 0 24 24"><path d="M13.5,14h0a1.99945,1.99945,0,0,1-2,2h-4V12h4A1.99945,1.99945,0,0,1,13.5,14Z" fill="none" stroke="#323232" stroke-linecap="round" stroke-linejoin="round" stroke-width="1.5"/><path d="M12.5,10h0a1.99945,1.99945,0,0,1-2,2h-3V9a1.00036,1.00036,0,0,1,1-1h2A1.99945,1.99945,0,0,1,12.5,10Z" fill="none" stroke="#323232" stroke-linecap="round" stroke-linejoin="round" stroke-width="1.5"/><path d="M16.49963,15.5a.25.25,0,1,0,.25037.25037A.25086.25086,0,0,0,16.49963,15.5" fill="none" stroke="#323232" stroke-linecap="round" stroke-linejoin="round" stroke-width="1.5"/><rect x="2.99999" y="3" width="18" height="18" rx="5" stroke-width="1.5" stroke="#323232" stroke-linecap="round" stroke-linejoin="round" fill="none"/></svg>