<svg xmlns="http://www.w3.org/2000/svg" viewBox="0 0 24 24"><path d="M8.75,7.5h4.5A2.25,2.25,0,0,1,15.5,9.75v0A2.25,2.25,0,0,1,13.25,12h-5a0,0,0,0,1,0,0V8a.5.5,0,0,1,.5-.5Z" fill="none" stroke="#323232" stroke-linecap="round" stroke-linejoin="round" stroke-width="1.5"/><path d="M8.25,12H14a2.25,2.25,0,0,1,2.25,2.25v0A2.25,2.25,0,0,1,14,16.5H8.75a.5.5,0,0,1-.5-.5V12A0,0,0,0,1,8.25,12Z" fill="none" stroke="#323232" stroke-linecap="round" stroke-linejoin="round" stroke-width="1.5"/><path d="M7,3H17a4,4,0,0,1,4,4V9.17157a2,2,0,0,0,.58579,1.41422L22.5,11.5v1l-.91421.91421A2,2,0,0,0,21,14.82843V17a4,4,0,0,1-4,4H7a4,4,0,0,1-4-4V14.82843a2,2,0,0,0-.58579-1.41422L1.5,12.5v-1l.91421-.91421A2,2,0,0,0,3,9.17157V7A4,4,0,0,1,7,3Z" fill="none" stroke="#323232" stroke-linecap="round" stroke-linejoin="round" stroke-width="1.5"/></svg>