<svg xmlns="http://www.w3.org/2000/svg" viewBox="0 0 24 24"><path d="M9.05466,6.61768a5.98944,5.98944,0,0,0,8.32773,8.3276" fill="none" stroke="#323232" stroke-linecap="round" stroke-linejoin="round" stroke-width="1.5"/><circle cx="12" cy="12" r="10" fill="none" stroke="#323232" stroke-linecap="round" stroke-linejoin="round" stroke-width="1.5"/><path d="M18,12.375A6.375,6.375,0,1,1,11.625,6" fill="none" stroke="#323232" stroke-linecap="round" stroke-linejoin="round" stroke-width="1.5"/><path d="M18,12.375V11.07027a1.96951,1.96951,0,0,1,1.96952-1.96951h0a1.97719,1.97719,0,0,1,1.96371,1.74676A9.96279,9.96279,0,0,1,22,12" fill="none" stroke="#323232" stroke-linecap="round" stroke-linejoin="round" stroke-width="1.5"/><path d="M11.625,6h1.30473a1.96951,1.96951,0,0,0,1.96951-1.96952h0a1.97719,1.97719,0,0,0-1.74676-1.96371A9.96279,9.96279,0,0,0,12,2" fill="none" stroke="#323232" stroke-linecap="round" stroke-linejoin="round" stroke-width="1.5"/></svg>