<svg xmlns="http://www.w3.org/2000/svg" viewBox="0 0 24 24"><rect x="2" y="2" width="20" height="20" rx="9.99999" stroke-width="1.5" stroke="#323232" stroke-linecap="round" stroke-linejoin="round" fill="none"/><path d="M6.5,12h6a4,4,0,0,1,4,4v0a1,1,0,0,1-1,1h-4a5,5,0,0,1-5-5v0A0,0,0,0,1,6.5,12Z" fill="none" stroke="#323232" stroke-linecap="round" stroke-linejoin="round" stroke-width="1.5"/><path d="M11.5,7h4a1,1,0,0,1,1,1V8a4,4,0,0,1-4,4h-6a0,0,0,0,1,0,0v0a5,5,0,0,1,5-5Z" fill="none" stroke="#323232" stroke-linecap="round" stroke-linejoin="round" stroke-width="1.5"/><line x1="11.5" y1="7" x2="11.5" y2="12" fill="none" stroke="#323232" stroke-linecap="round" stroke-linejoin="round" stroke-width="1.5"/></svg>