<svg xmlns="http://www.w3.org/2000/svg" viewBox="0 0 24 24"><rect x="3" y="3" width="18" height="18" rx="5" stroke-width="1.5" stroke="#323232" stroke-linecap="round" stroke-linejoin="round" fill="none"/><path d="M7,12h6a4,4,0,0,1,4,4v0a1,1,0,0,1-1,1H12a5,5,0,0,1-5-5v0A0,0,0,0,1,7,12Z" fill="none" stroke="#323232" stroke-linecap="round" stroke-linejoin="round" stroke-width="1.5"/><path d="M12,7h4a1,1,0,0,1,1,1V8a4,4,0,0,1-4,4H7a0,0,0,0,1,0,0v0a5,5,0,0,1,5-5Z" fill="none" stroke="#323232" stroke-linecap="round" stroke-linejoin="round" stroke-width="1.5"/><line x1="12" y1="7" x2="12" y2="12" fill="none" stroke="#323232" stroke-linecap="round" stroke-linejoin="round" stroke-width="1.5"/></svg>