<svg xmlns="http://www.w3.org/2000/svg" viewBox="0 0 24 24"><rect width="24" height="24" fill="none"/><rect x="3" y="3" width="18" height="18" rx="5" stroke-width="1.5" stroke="#323232" stroke-linecap="round" stroke-linejoin="round" fill="none"/><path d="M7.85685,8.63687a1.03241,1.03241,0,0,1,.49788-.42849,9.73053,9.73053,0,0,1,7.29054,0,1.03243,1.03243,0,0,1,.49789.42849,9.78383,9.78383,0,0,1,1.31049,5.93307.98735.98735,0,0,1-.47491.74812,9.725,9.725,0,0,1-1.19468.60132,1.01589,1.01589,0,0,1-1.28381-.43821q-.23121-.41854-.42438-.86a9.63917,9.63917,0,0,1-4.15173,0q-.19342.44073-.42438.86a1.01591,1.01591,0,0,1-1.28381.43822,9.72515,9.72515,0,0,1-1.19469-.60132.98738.98738,0,0,1-.47492-.74813A9.78393,9.78393,0,0,1,7.85685,8.63687Z" fill="none" stroke="#323232" stroke-linecap="round" stroke-linejoin="round" stroke-width="1.5"/><path d="M13.625,11.90048A.125.125,0,1,1,13.5,11.775a.12434.12434,0,0,1,.125.12548" fill="none" stroke="#323232" stroke-linecap="round" stroke-linejoin="round" stroke-width="1.5"/><path d="M10.625,11.90048A.125.125,0,1,1,10.5,11.775a.12434.12434,0,0,1,.125.12548" fill="none" stroke="#323232" stroke-linecap="round" stroke-linejoin="round" stroke-width="1.5"/></svg>