<svg xmlns="http://www.w3.org/2000/svg" viewBox="0 0 24 24"><path d="M13.625,11.37548A.125.125,0,1,1,13.5,11.25a.12434.12434,0,0,1,.125.12548" fill="none" stroke="#323232" stroke-linecap="round" stroke-linejoin="round" stroke-width="1.5"/><path d="M10.625,11.37548A.125.125,0,1,1,10.5,11.25a.12434.12434,0,0,1,.125.12548" fill="none" stroke="#323232" stroke-linecap="round" stroke-linejoin="round" stroke-width="1.5"/><path d="M17.448,15.44106a11.76051,11.76051,0,0,1-1.56267.7547.861.861,0,0,1-1.03005-.36269,11.41486,11.41486,0,0,1-.59588-1.13572,10.82981,10.82981,0,0,1-4.51881,0A11.41517,11.41517,0,0,1,9.14478,15.833a.861.861,0,0,1-1.03.36273,11.75177,11.75177,0,0,1-1.56288-.75487.98608.98608,0,0,1-.49412-.746,10.44482,10.44482,0,0,1,1.26391-6.1928,1.02016,1.02016,0,0,1,.51013-.44662A11.27217,11.27217,0,0,1,12,7.25a11.14293,11.14293,0,0,1,4.16111.80537,1.02328,1.02328,0,0,1,.50664.44309,10.38617,10.38617,0,0,1,1.27445,6.19661A.98608.98608,0,0,1,17.448,15.44106Z" fill="none" stroke="#323232" stroke-linecap="round" stroke-linejoin="round" stroke-width="1.5"/><rect x="2.99999" y="3" width="18" height="18" rx="5" transform="translate(23.99998 24) rotate(-180)" stroke-width="1.5" stroke="#323232" stroke-linecap="round" stroke-linejoin="round" fill="none"/></svg>