<svg xmlns="http://www.w3.org/2000/svg" viewBox="0 0 24 24"><path d="M17,16.5a13.45949,13.45949,0,0,1-5,1,13.45949,13.45949,0,0,1-5-1" fill="none" stroke="#323232" stroke-linecap="round" stroke-linejoin="round" stroke-width="1.5"/><ellipse cx="15.33323" cy="11.66748" rx="1.5" ry="1.75" fill="none" stroke="#323232" stroke-linecap="round" stroke-linejoin="round" stroke-width="1.5"/><ellipse cx="8.66658" cy="11.66748" rx="1.5" ry="1.75" fill="none" stroke="#323232" stroke-linecap="round" stroke-linejoin="round" stroke-width="1.5"/><path d="M8.30232,16.951A19.17667,19.17667,0,0,1,6.6268,20a17.74212,17.74212,0,0,1-4.4344-2.11846h.00185A17.46317,17.46317,0,0,1,4.82416,5.74769,17.63632,17.63632,0,0,1,8.997,4.5c.10546.35075.19023.70991.27486,1.06913A17.818,17.818,0,0,1,12,5.33842a17.818,17.818,0,0,1,2.72814.23071c.08463-.35922.1694-.71838.27486-1.06913a17.63632,17.63632,0,0,1,4.17284,1.24769,17.46317,17.46317,0,0,1,2.62991,12.13385h.00185A17.74212,17.74212,0,0,1,17.3732,20a19.17667,19.17667,0,0,1-1.67552-3.049" fill="none" stroke="#323232" stroke-linecap="round" stroke-linejoin="round" stroke-width="1.5"/></svg>