<svg xmlns="http://www.w3.org/2000/svg" viewBox="0 0 24 24"><path d="M18.48285,6.13079a15.953,15.953,0,0,1,2.344,10.96312A15.96971,15.96971,0,0,1,16.83588,19a16.46376,16.46376,0,0,1-1.439-2.61793,15.80773,15.80773,0,0,1-6.7937,0A16.46376,16.46376,0,0,1,7.16412,19a15.97041,15.97041,0,0,1-3.991-1.90609,15.95317,15.95317,0,0,1,2.344-10.96312l.0246-.00817A15.87575,15.87575,0,0,1,9.2973,5c.09491.31559.17121.63874.24738.962A16.0403,16.0403,0,0,1,12,5.75437a16.0403,16.0403,0,0,1,2.45532.20759c.07617-.32322.15247-.64637.24738-.962a15.87575,15.87575,0,0,1,3.75555,1.12262" fill="none" stroke="#323232" stroke-linecap="round" stroke-linejoin="round" stroke-width="1.5"/><path d="M14.82262,11.32383l.00044-.00044a.24945.24945,0,1,1-.00044.00044" fill="none" stroke="#323232" stroke-linecap="round" stroke-linejoin="round" stroke-width="1.5"/><path d="M8.82262,11.32383l.00044-.00044a.24945.24945,0,1,1-.00044.00044" fill="none" stroke="#323232" stroke-linecap="round" stroke-linejoin="round" stroke-width="1.5"/></svg>