<?xml version="1.0" encoding="UTF-8"?><svg version="1.1" viewBox="0 0 24 24" xmlns="http://www.w3.org/2000/svg" xmlns:xlink="http://www.w3.org/1999/xlink"><!--Generated by IJSVG (https://github.com/iconjar/IJSVG)--><g fill="none"><path d="M0,0h24v24h-24Z"></path><path stroke="#323232" stroke-linecap="round" stroke-linejoin="round" stroke-width="1.5" d="M15.283,14.848l-0.019,1.115c-0.002,0.22 -0.117,0.425 -0.304,0.541l-2.273,1.421c-0.42,0.262 -0.952,0.262 -1.372,0l-2.265,-1.415c-0.191,-0.12 -0.307,-0.331 -0.304,-0.557l0.018,-1.105"></path><path stroke="#323232" stroke-linecap="round" stroke-linejoin="round" stroke-width="1.5" d="M15.206,10.983l-3.206,2.041l-3.206,-2.04l3.206,-2.04l3.206,2.039Z"></path><path stroke="#323232" stroke-linecap="round" stroke-linejoin="round" stroke-width="1.5" d="M15.206,10.983l2.426,1.544c0.363,0.231 0.363,0.762 0,0.992l-1.794,1.142c-0.386,0.245 -0.878,0.245 -1.263,0l-2.575,-1.637l-2.574,1.638c-0.386,0.245 -0.878,0.245 -1.263,0l-1.795,-1.142c-0.363,-0.231 -0.363,-0.762 0,-0.992l2.426,-1.544l-2.426,-1.544c-0.363,-0.231 -0.363,-0.762 0,-0.992l1.794,-1.142c0.386,-0.245 0.878,-0.245 1.263,0l2.575,1.638l2.574,-1.638c0.386,-0.245 0.878,-0.245 1.263,0l1.794,1.142c0.363,0.231 0.363,0.762 0,0.992l-2.425,1.543Z"></path><path stroke="#323232" stroke-linecap="round" stroke-linejoin="round" stroke-width="1.5" d="M19.071,4.929c3.905,3.905 3.905,10.237 0,14.142c-3.905,3.905 -10.237,3.905 -14.142,0c-3.905,-3.905 -3.905,-10.237 0,-14.142c3.905,-3.905 10.237,-3.905 14.142,1.77636e-15"></path></g></svg>