<svg xmlns="http://www.w3.org/2000/svg" viewBox="0 0 24 24"><path d="M0,0H24V24H0Z" fill="none"/><path d="M8.49486,10.77571,8.171,12.39489A3.432,3.432,0,0,0,11.5364,16.5h0a3.432,3.432,0,0,0,3.36538-2.759l.53054-2.6527A3,3,0,0,0,12.49059,7.5h0A4.07485,4.07485,0,0,0,8.49486,10.77571Z" fill="none" stroke="#323232" stroke-linecap="round" stroke-linejoin="round" stroke-width="1.5"/><path d="M15.43235,11.08832l-.449,2.24483A2.64756,2.64756,0,0,0,17.57947,16.5h0a2.64755,2.64755,0,0,0,2.59612-2.12821l.24531-1.22632A8.482,8.482,0,0,0,12.10361,3h0a8.482,8.482,0,0,0-8.3173,6.81855l-.2072,1.036A8.482,8.482,0,0,0,11.89639,21h0A8.45567,8.45567,0,0,0,16.15,19.85394" fill="none" stroke="#323232" stroke-linecap="round" stroke-linejoin="round" stroke-width="1.5"/></svg>