<svg xmlns="http://www.w3.org/2000/svg" viewBox="0 0 24 24"><path d="M16.4293,10.30242l-2.54723,4.36667a.5.5,0,0,1-.70923.16408L10.47708,13.036l-2.2266,1.27235a.5.5,0,0,1-.69528-.65772L9.70087,9.35928a.5.5,0,0,1,.72456-.19242l2.66622,1.77749L15.7738,9.60327A.5.5,0,0,1,16.4293,10.30242Z" fill="none" stroke="#323232" stroke-linecap="round" stroke-linejoin="round" stroke-width="1.5"/><path d="M7.13763,19.566l-2.555.427a.5.5,0,0,1-.57556-.57556l.42688-2.55518A9.01668,9.01668,0,1,1,7.13763,19.566Z" fill="none" stroke="#323232" stroke-linecap="round" stroke-linejoin="round" stroke-width="1.5"/></svg>