<svg xmlns="http://www.w3.org/2000/svg" viewBox="0 0 24 24"><path d="M20.5,10h-10a.5.5,0,0,0-.5.5v3a.5.5,0,0,0,.5.5H17v6.5a.5.5,0,0,0,.5.5h3a.5.5,0,0,0,.5-.5v-10A.5.5,0,0,0,20.5,10Z" fill="none" stroke="#323232" stroke-linecap="round" stroke-linejoin="round" stroke-width="1.5"/><path d="M20.5,3H3.5a.5.5,0,0,0-.5.5v17a.5.5,0,0,0,.5.5h10a.5.5,0,0,0,.5-.5v-3a.5.5,0,0,0-.5-.5H7V7H20.5a.5.5,0,0,0,.5-.5v-3A.5.5,0,0,0,20.5,3Z" fill="none" stroke="#323232" stroke-linecap="round" stroke-linejoin="round" stroke-width="1.5"/></svg>