<svg xmlns="http://www.w3.org/2000/svg" viewBox="0 0 24 24"><rect width="24" height="24" fill="none"/><rect x="3" y="3" width="18" height="18" rx="5" stroke-width="1.5" stroke="#323232" stroke-linecap="round" stroke-linejoin="round" fill="none"/><path d="M6.5,12.43039C6.5,14.95412,8.96243,17,12,17s5.5-2.04588,5.5-4.56961a3.23453,3.23453,0,0,0-.77165-2.04683L16.69059,8.974a1,1,0,0,0-1.33949-.9137l-1.57131.5678a7.33119,7.33119,0,0,0-3.55958,0L8.6489,8.06031a1,1,0,0,0-1.33949.9137l-.03776,1.40955A3.23453,3.23453,0,0,0,6.5,12.43039Z" fill="none" stroke="#323232" stroke-linecap="round" stroke-linejoin="round" stroke-width="1.5"/></svg>