<svg xmlns="http://www.w3.org/2000/svg" viewBox="0 0 24 24"><path d="M9.05183,15.44377A5.65464,5.65464,0,0,1,4,9.632,4.7046,4.7046,0,0,1,5.12186,6.65473L5.194,3.9739a1,1,0,0,1,1.33956-.91356L9.411,4.10039a10.69011,10.69011,0,0,1,5.178.00138l2.87745-1.04a1,1,0,0,1,1.33956.91355l.07212,2.67945A4.71242,4.71242,0,0,1,20,9.632a5.65464,5.65464,0,0,1-5.05183,5.81175" fill="none" stroke="#323232" stroke-linecap="round" stroke-linejoin="round" stroke-width="1.5"/><path d="M8.05185,21V18.86574a6.88118,6.88118,0,0,1,1-3.42211" fill="none" stroke="#323232" stroke-linecap="round" stroke-linejoin="round" stroke-width="1.5"/><path d="M14.94817,15.44363A7.23777,7.23777,0,0,1,16,19.0431V21" fill="none" stroke="#323232" stroke-linecap="round" stroke-linejoin="round" stroke-width="1.5"/><path d="M3,16.56558H3a3,3,0,0,0,3,3H8.05183" fill="none" stroke="#323232" stroke-linecap="round" stroke-linejoin="round" stroke-width="1.5"/></svg>