<svg xmlns="http://www.w3.org/2000/svg" viewBox="0 0 24 24"><path d="M17.07527,12.9041l-4.49783,3.16382a1,1,0,0,1-1.15064,0L6.92473,12.90113a1,1,0,0,1-.37243-1.13692L7.6742,8.43105a1,1,0,0,1,1.86048-.08956l.82388,1.84057V10.187h3.28288v-.002l.82388-1.84057A1,1,0,0,1,16.3258,8.434l1.1219,3.33316A1,1,0,0,1,17.07527,12.9041Z" fill="none" stroke="#323232" stroke-linecap="round" stroke-linejoin="round" stroke-width="1.5"/><rect x="3" y="3" width="18" height="18" rx="5" stroke-width="1.5" stroke="#323232" stroke-linecap="round" stroke-linejoin="round" fill="none"/><path d="M0,24V0H24V24Z" fill="none"/></svg>