<svg xmlns="http://www.w3.org/2000/svg" viewBox="0 0 24 24"><path d="M15.74458,19.35779,9.15268,7.91633A3.27928,3.27928,0,0,1,11.9941,3h.01758A3.27927,3.27927,0,0,1,14.855,4.64549L21.42931,16.087A3.27927,3.27927,0,0,1,18.586,21h0A3.27929,3.27929,0,0,1,15.74458,19.35779Z" fill="none" stroke="#323232" stroke-linecap="round" stroke-linejoin="round" stroke-width="1.5"/><path d="M8.2554,19.35779a3.27927,3.27927,0,0,0-2.8433-4.91305h0A3.27929,3.27929,0,0,0,2.57067,16.087" fill="none" stroke="#323232" stroke-linecap="round" stroke-linejoin="round" stroke-width="1.5"/><path d="M9.145,4.64545,2.57071,16.08691A3.27927,3.27927,0,0,0,8.2554,19.35779L12,12.85834" fill="none" stroke="#323232" stroke-linecap="round" stroke-linejoin="round" stroke-width="1.5"/></svg>