<svg xmlns="http://www.w3.org/2000/svg" viewBox="0 0 24 24"><rect x="2.99999" y="3" width="18" height="18" rx="5" stroke-width="1.5" stroke="#323232" stroke-linecap="round" stroke-linejoin="round" fill="none"/><path d="M9.5,12.46429V15.65a.85.85,0,0,1-.85.85H7.35a.85.85,0,0,1-.85-.85V9.00275a1.5,1.5,0,0,1,2.4-1.2L12,10.12768l3.1-2.325a1.5,1.5,0,0,1,2.4,1.2V15.64a.86.86,0,0,1-.86.86H15.35a.85.85,0,0,1-.85-.85V12.46429L12,14.25Z" fill="none" stroke="#323232" stroke-linecap="round" stroke-linejoin="round" stroke-width="1.5"/></svg>