<svg xmlns="http://www.w3.org/2000/svg" viewBox="0 0 24 24"><line x1="6.5" y1="9.49317" x2="6.5" y2="21" fill="none" stroke="#323232" stroke-linecap="round" stroke-linejoin="round" stroke-width="1.5"/><line x1="17.5" y1="21" x2="17.5" y2="9.70859" fill="none" stroke="#323232" stroke-linecap="round" stroke-linejoin="round" stroke-width="1.5"/><path d="M12,7.99041,18.881,3.3457A2,2,0,0,1,22,5.00339V19a2,2,0,0,1-2,2H4a2,2,0,0,1-2-2V5.00339A2,2,0,0,1,5.119,3.3457Z" fill="none" stroke="#323232" stroke-linecap="round" stroke-linejoin="round" stroke-width="1.5"/><path d="M2,6.45789l9.04128,6.09842a2,2,0,0,0,2.23677,0L22,6.67328" fill="none" stroke="#323232" stroke-linecap="round" stroke-linejoin="round" stroke-width="1.5"/><line x1="20" y1="3" x2="3.92313" y2="3" fill="none" stroke="#323232" stroke-linecap="round" stroke-linejoin="round" stroke-width="1.5"/></svg>