<svg xmlns="http://www.w3.org/2000/svg" viewBox="0 0 24 24"><path d="M9.88889,8.5H12.25A1.75,1.75,0,0,1,14,10.25v0A1.75,1.75,0,0,1,12.25,12H9.5a0,0,0,0,1,0,0V8.88889A.38889.38889,0,0,1,9.88889,8.5Z" fill="none" stroke="#323232" stroke-linecap="round" stroke-linejoin="round" stroke-width="1.5"/><path d="M9.5,12h3.25a1.75,1.75,0,0,1,1.75,1.75v0a1.75,1.75,0,0,1-1.75,1.75H9.88889A.38889.38889,0,0,1,9.5,15.11111V12A0,0,0,0,1,9.5,12Z" fill="none" stroke="#323232" stroke-linecap="round" stroke-linejoin="round" stroke-width="1.5"/><line x1="6.5" y1="8.5" x2="6.5" y2="15.5" fill="none" stroke="#323232" stroke-linecap="round" stroke-linejoin="round" stroke-width="1.5"/><line x1="1.5" y1="15.5" x2="1.5" y2="8.5" fill="none" stroke="#323232" stroke-linecap="round" stroke-linejoin="round" stroke-width="1.5"/><line x1="6.5" y1="12" x2="1.5" y2="12" fill="none" stroke="#323232" stroke-linecap="round" stroke-linejoin="round" stroke-width="1.5"/><rect x="17" y="8.5" width="5.5" height="7" rx="2.25" stroke-width="1.5" stroke="#323232" stroke-linecap="round" stroke-linejoin="round" fill="none"/></svg>