<?xml version="1.0" encoding="utf-8"?>
<!-- Generator: Adobe Illustrator 24.3.0, SVG Export Plug-In . SVG Version: 6.00 Build 0)  -->
<svg version="1.1" id="Layer_1" xmlns="http://www.w3.org/2000/svg" xmlns:xlink="http://www.w3.org/1999/xlink" x="0px" y="0px"
	 viewBox="0 0 24 24" style="enable-background:new 0 0 24 24;" xml:space="preserve">
<style type="text/css">
	.st0{fill:none;stroke:#323232;stroke-width:1.5;stroke-linecap:round;stroke-linejoin:round;}
</style>
<g>
	<path class="st0" d="M8,3h8c2.8,0,5,2.2,5,5v8c0,2.8-2.2,5-5,5H8c-2.8,0-5-2.2-5-5V8C3,5.2,5.2,3,8,3z"/>
	<g>
		<path class="st0" d="M17,11.2c0-0.7-0.3-1.4-0.8-1.9c-0.5-0.5-1.2-0.8-1.9-0.8l0,0C12.7,8.5,12,9.9,12,10
			c-0.4-0.9-1.4-1.5-2.4-1.5c-0.7,0-1.4,0.3-1.9,0.8C7.3,9.8,7,10.5,7,11.2"/>
		<path class="st0" d="M7,11.2c0,2.9,2.7,5.3,5,5.3c2.3,0,5-2.4,5-5.3"/>
	</g>
</g>
</svg>
