<svg xmlns="http://www.w3.org/2000/svg" viewBox="0 0 24 24"><rect x="3" y="3" width="18" height="18" rx="5" stroke-width="1.5" stroke="#323232" stroke-linecap="round" stroke-linejoin="round" fill="none"/><path d="M16,17V14.5a4,4,0,0,0-4-4h0a3.96,3.96,0,0,0-1.27362.22638" fill="none" stroke="#323232" stroke-linecap="round" stroke-linejoin="round" stroke-width="1.5"/><path d="M8.04578,14.04578A3.9374,3.9374,0,0,0,8,14.5V17" fill="none" stroke="#323232" stroke-linecap="round" stroke-linejoin="round" stroke-width="1.5"/><path d="M8,7V9.5a4,4,0,0,0,4,4h0a3.95973,3.95973,0,0,0,1.27362-.22638" fill="none" stroke="#323232" stroke-linecap="round" stroke-linejoin="round" stroke-width="1.5"/><path d="M15.95422,9.95422A3.9374,3.9374,0,0,0,16,9.5V7" fill="none" stroke="#323232" stroke-linecap="round" stroke-linejoin="round" stroke-width="1.5"/></svg>