<svg xmlns="http://www.w3.org/2000/svg" viewBox="0 0 24 24"><circle cx="11.99999" cy="12" r="10" fill="none" stroke="#323232" stroke-linecap="round" stroke-linejoin="round" stroke-width="1.5"/><line x1="9.5" y1="7.5001" x2="9.5001" y2="7.5" fill="none" stroke="#323232" stroke-linecap="round" stroke-linejoin="round" stroke-width="1.5"/><path d="M17,15.5h-.6046a1,1,0,0,1-.97014-1.24254l.47342-1.89368A1.5,1.5,0,0,0,14.44348,10.5H13.449a1,1,0,0,0-.97016.75747l-.77661,3.10634A1.5,1.5,0,0,1,10.24706,15.5H9.643a1.5,1.5,0,0,1-1.45521-1.8638l.62873-2.515A.5.5,0,0,0,8.33148,10.5H7" fill="none" stroke="#323232" stroke-linecap="round" stroke-linejoin="round" stroke-width="1.5"/></svg>