<svg xmlns="http://www.w3.org/2000/svg" viewBox="0 0 24 24"><line x1="9.50001" y1="7.5001" x2="9.50011" y2="7.5" fill="none" stroke="#323232" stroke-linecap="round" stroke-linejoin="round" stroke-width="1.5"/><rect x="3" y="3" width="18" height="18" rx="5" stroke-width="1.5" stroke="#323232" stroke-linecap="round" stroke-linejoin="round" fill="none"/><path d="M17,15.5h-.6046a1,1,0,0,1-.97014-1.24254l.47342-1.89368A1.5,1.5,0,0,0,14.44349,10.5h-.99444a1,1,0,0,0-.97016.75747l-.77661,3.10634A1.5,1.5,0,0,1,10.24707,15.5H9.643a1.5,1.5,0,0,1-1.45521-1.8638l.62873-2.515A.5.5,0,0,0,8.33149,10.5H7" fill="none" stroke="#323232" stroke-linecap="round" stroke-linejoin="round" stroke-width="1.5"/></svg>