<svg xmlns="http://www.w3.org/2000/svg" viewBox="0 0 24 24"><path d="M0,0H24V24H0Z" fill="none"/><path d="M13.55093,15.73678A1.95077,1.95077,0,0,0,15.5,17a1.83893,1.83893,0,0,0,2-1.61572h0a1.20062,1.20062,0,0,0-.96516-1.17731L14.46516,13.793A1.20062,1.20062,0,0,1,13.5,12.61572h0A1.83893,1.83893,0,0,1,15.5,11a1.95077,1.95077,0,0,1,1.94907,1.26322" fill="none" stroke="#323232" stroke-linecap="round" stroke-linejoin="round" stroke-width="1.5"/><path d="M6.5,15.54464a1.95078,1.95078,0,0,0,1.94907,1.26322,1.83893,1.83893,0,0,0,2-1.61572V11" fill="none" stroke="#323232" stroke-linecap="round" stroke-linejoin="round" stroke-width="1.5"/><rect x="3" y="3" width="18" height="18" rx="5" stroke-width="1.5" stroke="#323232" stroke-linecap="round" stroke-linejoin="round" fill="none"/></svg>