<svg xmlns="http://www.w3.org/2000/svg" viewBox="0 0 24 24"><path d="M12,15.66885,15.66884,12,11.13523,7.46639a3.96559,3.96559,0,0,1,0-5.60819h0a1.223,1.223,0,0,1,1.72952,0l9.277,9.277a1.22294,1.22294,0,0,1,0,1.72952l-9.277,9.277" fill="none" stroke="#323232" stroke-linecap="round" stroke-linejoin="round" stroke-width="1.5"/><path d="M12,8.33115,8.33113,12l4.53362,4.53361a3.96559,3.96559,0,0,1,0,5.60819h0a1.223,1.223,0,0,1-1.72952,0l-9.277-9.277a1.223,1.223,0,0,1,0-1.72952l9.277-9.277" fill="none" stroke="#323232" stroke-linecap="round" stroke-linejoin="round" stroke-width="1.5"/></svg>