<svg xmlns="http://www.w3.org/2000/svg" viewBox="0 0 24 24"><path d="M11.97944,2.01239A10.083,10.083,0,0,0,2,12.01688,10.07719,10.07719,0,0,0,11.97944,22" fill="none" stroke="#323232" stroke-linecap="round" stroke-linejoin="round" stroke-width="1.5" fill-rule="evenodd"/><path d="M11.97223,7.17927a5.07573,5.07573,0,0,1,2.93924,4.86882,5.09416,5.09416,0,0,1-2.92841,4.83936" fill="none" stroke="#323232" stroke-linecap="round" stroke-linejoin="round" stroke-width="1.5" fill-rule="evenodd"/><path d="M11.9779,7.1751c-2.92376-1.00773-6.50538,1.402-6.50538,6.2286,0,7.881,5.84007,8.5963,6.548,8.5963A10.083,10.083,0,0,0,22,11.99551a10.07719,10.07719,0,0,0-9.97945-9.98312c1.21851-.16875,6.56761,1.31874,6.56761,8.6296,0,4.76765-3.99411,7.36312-6.59193,6.25418A5.0757,5.0757,0,0,1,9.057,12.02735,5.12148,5.12148,0,0,1,11.9779,7.1751Z" fill="none" stroke="#323232" stroke-linecap="round" stroke-linejoin="round" stroke-width="1.5" fill-rule="evenodd"/></svg>