<svg xmlns="http://www.w3.org/2000/svg" viewBox="0 0 24 24"><path d="M14.32844,12l1.58578-1.58579a2,2,0,0,0,0-2.82842h0a2,2,0,0,0-2.82843,0L11.5,9.17157V9a2,2,0,0,0-2-2h0a2,2,0,0,0-2,2v6a2,2,0,0,0,2,2h0a2,2,0,0,0,2-2v-.17163l1.5858,1.5858a2,2,0,0,0,2.8284,0h0a2,2,0,0,0,0-2.8284Z" fill="none" stroke="#323232" stroke-linecap="round" stroke-linejoin="round" stroke-width="1.5"/><rect x="3" y="3" width="18" height="18" rx="5" stroke-width="1.5" stroke="#323232" stroke-linecap="round" stroke-linejoin="round" fill="none"/><path d="M0,0H24V24H0Z" fill="none"/></svg>