<svg xmlns="http://www.w3.org/2000/svg" viewBox="0 0 24 24"><path d="M10.106,15.88605l1.00744.43191a2.2501,2.2501,0,0,0,1.77322,0l1.00744-.43191a1,1,0,0,0,0-1.83812l-.71192-.30522a3.00011,3.00011,0,0,0-2.36426,0l-.71192.30522A1,1,0,0,0,10.106,15.88605Z" fill="none" stroke="#323232" stroke-linecap="round" stroke-linejoin="round" stroke-width="1.5"/><line x1="10.5" y1="11.99998" x2="10.5" y2="13.87899" fill="none" stroke="#323232" stroke-linecap="round" stroke-linejoin="round" stroke-width="1.5"/><line x1="13.5" y1="11.99998" x2="13.5" y2="13.87899" fill="none" stroke="#323232" stroke-linecap="round" stroke-linejoin="round" stroke-width="1.5"/><rect x="2.5" y="2.5" width="19" height="19" rx="5" stroke-width="1.5" stroke="#323232" stroke-linecap="round" stroke-linejoin="round" fill="none"/><path d="M17.5,16V12.5A5.5,5.5,0,0,0,12,7h0a5.5,5.5,0,0,0-5.5,5.5V16" fill="none" stroke="#323232" stroke-linecap="round" stroke-linejoin="round" stroke-width="1.5"/></svg>