<svg xmlns="http://www.w3.org/2000/svg" viewBox="0 0 24 24"><circle cx="11.99999" cy="12" r="10" fill="none" stroke="#323232" stroke-linecap="round" stroke-linejoin="round" stroke-width="1.5"/><path d="M11.59575,9.13636a.75.75,0,0,1,1.31609,0l.5846,1.069a.75.75,0,0,0,.29818.29818l1.069.5846a.75.75,0,0,1,0,1.31609l-1.069.58461a.75.75,0,0,0-.29818.29818l-.5846,1.069a.75.75,0,0,1-1.31609,0l-.58461-1.069a.75.75,0,0,0-.29817-.29818l-1.069-.5846a.75.75,0,0,1,0-1.31609l1.069-.58461a.74993.74993,0,0,0,.29818-.29818Z" fill="none" stroke="#323232" stroke-linecap="round" stroke-linejoin="round" stroke-width="1.5"/><path d="M12.25379,5.7462h0a6,6,0,0,1,6,6v3.95051A2.04949,2.04949,0,0,1,16.2043,17.7462H12.25379a6,6,0,0,1-6-6v0A6,6,0,0,1,12.25379,5.7462Z" transform="translate(23.99999 -0.50759) rotate(90)" fill="none" stroke="#323232" stroke-linecap="round" stroke-linejoin="round" stroke-width="1.5"/></svg>