<svg xmlns="http://www.w3.org/2000/svg" viewBox="0 0 24 24"><rect width="24" height="24" fill="none"/><rect x="3" y="3" width="18" height="18" rx="5" stroke-width="1.5" stroke="#323232" stroke-linecap="round" stroke-linejoin="round" fill="none"/><path d="M11.00269,16.41406A6.05693,6.05693,0,0,0,12,16.50024,5.26808,5.26808,0,0,0,17.5,11.5a5.26789,5.26789,0,0,0-5.5-5,5.26789,5.26789,0,0,0-5.5,5,4.82841,4.82841,0,0,0,2,3.85718" fill="none" stroke="#323232" stroke-linecap="round" stroke-linejoin="round" stroke-width="1.5"/><path d="M8.5,15.35718v1.89258a.25.25,0,0,0,.36084.224l2.14185-1.05969" fill="none" stroke="#323232" stroke-linecap="round" stroke-linejoin="round" stroke-width="1.5"/><polyline points="10 12.008 11.5 10.75 12.5 12.25 14 10.992" fill="none" stroke="#323232" stroke-linecap="round" stroke-linejoin="round" stroke-width="1.5"/></svg>