<svg xmlns="http://www.w3.org/2000/svg" viewBox="0 0 24 24"><circle cx="11.99999" cy="12" r="10" fill="none" stroke="#323232" stroke-linecap="round" stroke-linejoin="round" stroke-width="1.5"/><path d="M12,10.73057l-1.3317,2.35292C9.64668,14.86931,9.072,15.246,8.273,15.246c-1.11017,0-1.773-.86411-1.773-2.23417C6.5,10.82249,7.71781,8.754,9.30724,8.754a2.77656,2.77656,0,0,1,2.21,1.36976Z" fill="none" stroke="#323232" stroke-linecap="round" stroke-linejoin="round" stroke-width="1.5"/><path d="M12,10.73057l1.3317,2.35292C14.35332,14.86931,14.928,15.246,15.727,15.246c1.11017,0,1.773-.86411,1.773-2.23417,0-2.18935-1.21781-4.25785-2.80724-4.25785a2.77656,2.77656,0,0,0-2.21,1.36976Z" fill="none" stroke="#323232" stroke-linecap="round" stroke-linejoin="round" stroke-width="1.5"/></svg>