<svg xmlns="http://www.w3.org/2000/svg" viewBox="0 0 24 24"><path d="M13,14.5v4.83319a1,1,0,0,0,.88956.99389l6,.66668A1,1,0,0,0,21,19.99988V14.5a1,1,0,0,0-1-1H14A1,1,0,0,0,13,14.5Z" fill="none" stroke="#323232" stroke-linecap="round" stroke-linejoin="round" stroke-width="1.5"/><path d="M13,9.5V4.66681a1,1,0,0,1,.88956-.99389l6-.66668A1,1,0,0,1,21,4.00012V9.5a1,1,0,0,1-1,1H14A1,1,0,0,1,13,9.5Z" fill="none" stroke="#323232" stroke-linecap="round" stroke-linejoin="round" stroke-width="1.5"/><path d="M3,9.5V5.895a1,1,0,0,1,.88957-.99388l5-.55555A1,1,0,0,1,10,5.33946V9.5a1,1,0,0,1-1,1H4A1,1,0,0,1,3,9.5Z" fill="none" stroke="#323232" stroke-linecap="round" stroke-linejoin="round" stroke-width="1.5"/><path d="M3,14.5v3.605a1,1,0,0,0,.88957.99388l5,.55555A1,1,0,0,0,10,18.66054V14.5a1,1,0,0,0-1-1H4A1,1,0,0,0,3,14.5Z" fill="none" stroke="#323232" stroke-linecap="round" stroke-linejoin="round" stroke-width="1.5"/></svg>