<svg xmlns="http://www.w3.org/2000/svg" viewBox="0 0 24 24"><path d="M6.5,9.5v-2a1,1,0,0,1,1-1h2A.5.5,0,0,0,10,6V3.5A.5.5,0,0,0,9.5,3H7A4,4,0,0,0,3,7V9.5a.5.5,0,0,0,.5.5H6A.5.5,0,0,0,6.5,9.5Z" fill="none" stroke="#323232" stroke-linecap="round" stroke-linejoin="round" stroke-width="1.5"/><path d="M9.5,17.5h-2a1,1,0,0,1-1-1v-2A.5.5,0,0,0,6,14H3.5a.5.5,0,0,0-.5.5V17a4,4,0,0,0,4,4H9.5a.5.5,0,0,0,.5-.5V18A.5.5,0,0,0,9.5,17.5Z" fill="none" stroke="#323232" stroke-linecap="round" stroke-linejoin="round" stroke-width="1.5"/><path d="M14.5,6.5h2a1,1,0,0,1,1,1v2a.5.5,0,0,0,.5.5h2.5a.5.5,0,0,0,.5-.5V7a4,4,0,0,0-4-4H14.5a.5.5,0,0,0-.5.5V6A.5.5,0,0,0,14.5,6.5Z" fill="none" stroke="#323232" stroke-linecap="round" stroke-linejoin="round" stroke-width="1.5"/><circle cx="12" cy="12" r="2.5" fill="none" stroke="#323232" stroke-linecap="round" stroke-linejoin="round" stroke-width="1.5"/><circle cx="18.5" cy="18.5" r="2.5" fill="none" stroke="#323232" stroke-linecap="round" stroke-linejoin="round" stroke-width="1.5"/></svg>