<svg xmlns="http://www.w3.org/2000/svg" viewBox="0 0 24 24"><path d="M13.79056,11.43432c1.52462.94577,3.37942,1.57575,6.62943.21621L22,6.19266a7.66,7.66,0,0,1-6.57991-.49952Z" fill="none" stroke="#323232" stroke-linecap="round" stroke-linejoin="round" stroke-width="1.5"/><path d="M7.3977,8.68542l.07562.00053a7.85469,7.85469,0,0,1,3.56633.99849L12.691,3.99012C11.13231,3.01879,9.4032,2.46177,6.04934,3.7638L4.488,9.19931A9.629,9.629,0,0,1,7.3977,8.68542Z" fill="none" stroke="#323232" stroke-linecap="round" stroke-linejoin="round" stroke-width="1.5"/><path d="M11.31111,20.01015c1.55924.97079,3.28623,1.52835,6.62943.22579l1.572-5.41953a7.69761,7.69761,0,0,1-6.54263-.51443Z" fill="none" stroke="#323232" stroke-linecap="round" stroke-linejoin="round" stroke-width="1.5"/><path d="M3.5667,12.42749,2,17.90293a9.92156,9.92156,0,0,1,2.85914-.46223,7.14832,7.14832,0,0,1,3.66432,1.015l1.68439-5.78911C8.64754,11.6926,6.91789,11.13185,3.5667,12.42749Z" fill="none" stroke="#323232" stroke-linecap="round" stroke-linejoin="round" stroke-width="1.5"/></svg>