<svg xmlns="http://www.w3.org/2000/svg" viewBox="0 0 24 24"><path d="M3.5,10.20357C3.5,16.16627,9.44155,21,12,21s8.5-4.83373,8.49983-10.79643L20.5,8.68375a4.03788,4.03788,0,0,0-1.48677-3.12119,10.87809,10.87809,0,0,0-14.0264,0A4.03869,4.03869,0,0,0,3.5,8.684C3.50006,9.45659,3.50008,10.20357,3.5,10.20357Z" fill="none" stroke="#323232" stroke-linecap="round" stroke-linejoin="round" stroke-width="1.5"/><path d="M14.08937,14.00481l-1.4293,1.25591a1.03019,1.03019,0,0,1-1.32014,0l-1.4293-1.25591a3.90566,3.90566,0,0,1,0-6.00966l1.4293-1.2559a1.03016,1.03016,0,0,1,1.32014,0l1.4293,1.2559A3.90566,3.90566,0,0,1,14.08937,14.00481Z" fill="none" stroke="#323232" stroke-linecap="round" stroke-linejoin="round" stroke-width="1.5"/><line x1="12" y1="11.25" x2="12" y2="17" fill="none" stroke="#323232" stroke-linecap="round" stroke-linejoin="round" stroke-width="1.5"/></svg>