<svg xmlns="http://www.w3.org/2000/svg" viewBox="0 0 24 24"><circle cx="11.99999" cy="12" r="10" fill="none" stroke="#323232" stroke-linecap="round" stroke-linejoin="round" stroke-width="1.5"/><path d="M17,15.33333,10.425,7.36362A1,1,0,0,0,9.65361,7H8A1,1,0,0,0,7,8v8a1,1,0,0,0,1,1H9.33333a1,1,0,0,0,1-1V12.70708" fill="none" stroke="#323232" stroke-linecap="round" stroke-linejoin="round" stroke-width="1.5"/><path d="M7,8.66667l6.575,7.96972A1,1,0,0,0,14.34639,17H16a1,1,0,0,0,1-1V8a1,1,0,0,0-1-1H14.66666a1,1,0,0,0-1,1v3.29087" fill="none" stroke="#323232" stroke-linecap="round" stroke-linejoin="round" stroke-width="1.5"/></svg>