<svg xmlns="http://www.w3.org/2000/svg" viewBox="0 0 24 24"><path d="M6.5,3h3a1,1,0,0,1,1,1V20a1,1,0,0,1-1,1h-3a4,4,0,0,1-4-4V7A4,4,0,0,1,6.5,3Z" fill="none" stroke="#323232" stroke-linecap="round" stroke-linejoin="round" stroke-width="1.5"/><path d="M17.5,3h3a1,1,0,0,1,1,1V20a1,1,0,0,1-1,1h-3a4,4,0,0,1-4-4V7A4,4,0,0,1,17.5,3Z" transform="translate(34.99998 24) rotate(180)" fill="none" stroke="#323232" stroke-linecap="round" stroke-linejoin="round" stroke-width="1.5"/><path d="M17.32261,15.82383l.00044-.00044a.24945.24945,0,1,1-.00044.00044" fill="none" stroke="#323232" stroke-linecap="round" stroke-linejoin="round" stroke-width="1.5"/><path d="M6.32261,7.82383l.00044-.00044a.24945.24945,0,1,1-.00044.00044" fill="none" stroke="#323232" stroke-linecap="round" stroke-linejoin="round" stroke-width="1.5"/></svg>