<svg xmlns="http://www.w3.org/2000/svg" viewBox="0 0 24 24"><line x1="3.87942" y1="3.87943" x2="7.73376" y2="7.73378" fill="none" stroke="#323232" stroke-linecap="round" stroke-linejoin="round" stroke-width="1.5"/><rect x="6.99999" y="7" width="14" height="14" rx="2.5" stroke-width="1.5" stroke="#323232" stroke-linecap="round" stroke-linejoin="round" fill="none"/><polyline points="17 11 17 17 11 11 11 17" fill="none" stroke="#323232" stroke-linecap="round" stroke-linejoin="round" stroke-width="1.5"/><path d="M21,8.24264V18.5A2.5,2.5,0,0,1,18.5,21H8.65684a4,4,0,0,1-2.82843-1.17157L4.17156,18.17157A4,4,0,0,1,3,15.34315V6A3,3,0,0,1,6,3h9.34314a4,4,0,0,1,2.82843,1.17157l1.94975,1.94975A3,3,0,0,1,21,8.24264Z" fill="none" stroke="#323232" stroke-linecap="round" stroke-linejoin="round" stroke-width="1.5"/></svg>