<svg xmlns="http://www.w3.org/2000/svg" viewBox="0 0 24 24"><rect x="3" y="3" width="18" height="18" rx="5" stroke-width="1.5" stroke="#323232" stroke-linecap="round" stroke-linejoin="round" fill="none"/><path d="M14,16.5v-6a.5.5,0,0,0-.5-.5h-2a.5.5,0,0,0-.5.5v6a.5.5,0,0,1-.5.5h-3a.5.5,0,0,1-.5-.5V8A1,1,0,0,1,8,7h8a1,1,0,0,1,1,1v8.5a.5.5,0,0,1-.5.5h-2A.5.5,0,0,1,14,16.5Z" fill="none" stroke="#323232" stroke-linecap="round" stroke-linejoin="round" stroke-width="1.5"/><path d="M0,0H24V24H0Z" fill="none"/></svg>