<svg xmlns="http://www.w3.org/2000/svg" viewBox="0 0 24 24"><path d="M12,6a5.991,5.991,0,0,1,5.15008,9.06689l1.60816,4.28846a10,10,0,1,0-13.51648,0L6.8499,15.06689A5.991,5.991,0,0,1,12,6Z" fill="none" stroke="#323232" stroke-linecap="round" stroke-linejoin="round" stroke-width="1.5"/><path d="M12.55377,9.0496a2.99292,2.99292,0,0,1,1.33566,5.26993.51445.51445,0,0,0-.17714.57989L16,21v.16235a9.96935,9.96935,0,0,1-8,0V21l2.29036-6.10768a.50347.50347,0,0,0-.17382-.56794A2.9948,2.9948,0,0,1,12.55377,9.0496Z" fill="none" stroke="#323232" stroke-linecap="round" stroke-linejoin="round" stroke-width="1.5"/></svg>