<svg xmlns="http://www.w3.org/2000/svg" viewBox="0 0 24 24"><rect width="24" height="24" fill="none"/><path d="M10.92713,10.9315a6.55554,6.55554,0,0,0,2.14139,2.1414l.82185-.49312a1,1,0,0,1,1.13919.07662l1.59511,1.27607a1,1,0,0,1,.07641,1.494l-.7211.709a3.001,3.001,0,0,1-3.70991.40029,16.20436,16.20436,0,0,1-4.80579-4.8058A3.001,3.001,0,0,1,7.86458,8.02l.709-.72111a1,1,0,0,1,1.49395.07641l1.27609,1.59512a1,1,0,0,1,.07662,1.13918Z" fill="none" stroke="#323232" stroke-linecap="round" stroke-linejoin="round" stroke-width="1.5"/><circle cx="12" cy="12" r="9.5" fill="none" stroke="#323232" stroke-linecap="round" stroke-linejoin="round" stroke-width="1.5"/></svg>