<svg xmlns="http://www.w3.org/2000/svg" viewBox="0 0 24 24"><path d="M0,24V0H24V24Z" fill="none"/><path d="M12.17675,10.82319a.25.25,0,1,1-.3535,0,.24987.24987,0,0,1,.3535,0" fill="none" stroke="#323232" stroke-linecap="round" stroke-linejoin="round" stroke-width="1.5"/><path d="M16,11h0a3.43179,3.43179,0,0,1-1.31689,2.68408l-1.31093,1.04359a3.48845,3.48845,0,0,0-1.12888,1.57877L12,17l-.24245-.69356a3.49042,3.49042,0,0,0-1.12888-1.57877L9.31689,13.68408A3.43179,3.43179,0,0,1,8,11H8v.01949" fill="none" stroke="#323232" stroke-linecap="round" stroke-linejoin="round" stroke-width="1.5"/><path d="M8,11a4,4,0,0,1,8,0" fill="none" stroke="#323232" stroke-linecap="round" stroke-linejoin="round" stroke-width="1.5"/><circle cx="12" cy="12" r="9.5" fill="none" stroke="#323232" stroke-linecap="round" stroke-linejoin="round" stroke-width="1.5"/></svg>