<svg xmlns="http://www.w3.org/2000/svg" viewBox="0 0 24 24"><path d="M7,3H17a4,4,0,0,1,4,4v5a9,9,0,0,1-9,9h0a9,9,0,0,1-9-9V7A4,4,0,0,1,7,3Z" fill="none" stroke="#323232" stroke-linecap="round" stroke-linejoin="round" stroke-width="1.5"/><path d="M13.91258,14.20791l2.64809-2.64765a1.49959,1.49959,0,0,0,0-2.121h0a1.5002,1.5002,0,0,0-2.12134,0L12,11.8782,9.56067,9.43927a1.5002,1.5002,0,0,0-2.12134,0h0a1.49959,1.49959,0,0,0,0,2.121l2.64809,2.64765A2.7051,2.7051,0,0,0,13.91258,14.20791Z" fill="none" stroke="#323232" stroke-linecap="round" stroke-linejoin="round" stroke-width="1.5"/><rect width="24" height="24" fill="none"/></svg>