<svg xmlns="http://www.w3.org/2000/svg" viewBox="0 0 24 24"><path d="M19.47951,17.00467l1.22757,1.22752A1,1,0,0,1,21,18.93931V20a1,1,0,0,1-1,1H18.93935a1,1,0,0,1-.70711-.29289l-1.22755-1.22756a9.00166,9.00166,0,1,1,2.47482-2.47488Z" fill="none" stroke="#323232" stroke-linecap="round" stroke-linejoin="round" stroke-width="1.5"/><path d="M16.92077,14.44592l-3.43336-3.43336a1.75,1.75,0,0,0-2.47485,0h0a1.75,1.75,0,0,0,0,2.47485l3.43335,3.43337a5.51432,5.51432,0,1,1,2.47486-2.47486Z" fill="none" stroke="#323232" stroke-linecap="round" stroke-linejoin="round" stroke-width="1.5"/></svg>