<svg xmlns="http://www.w3.org/2000/svg" viewBox="0 0 24 24"><circle cx="11.71991" cy="9.5133" r="1.68055" fill="none" stroke="#323232" stroke-linecap="round" stroke-linejoin="round" stroke-width="1.5"/><circle cx="8.07872" cy="15.67531" r="1.68055" fill="none" stroke="#323232" stroke-linecap="round" stroke-linejoin="round" stroke-width="1.5"/><circle cx="15.3611" cy="15.11512" r="1.68055" fill="none" stroke="#323232" stroke-linecap="round" stroke-linejoin="round" stroke-width="1.5"/><path d="M6.5002,10.425c-.02344.01318-.04718.024-.07056.03747C2.8055,12.55488,1.05342,16.305,2.51625,18.83869s5.58655,2.89136,9.2107.799a9.955,9.955,0,0,0,3.209-2.89746" fill="none" stroke="#323232" stroke-linecap="round" stroke-linejoin="round" stroke-width="1.5"/><path d="M17.04854,10.18568c.00525-.13739.02747-.2677.02747-.407,0-4.18488-2.37165-7.57727-5.29725-7.57727s-5.2973,3.39239-5.2973,7.57714a9.81838,9.81838,0,0,0,.97864,4.33368" fill="none" stroke="#323232" stroke-linecap="round" stroke-linejoin="round" stroke-width="1.5"/><path d="M13.35323,9.12611a9.9007,9.9007,0,0,1,4.21716,1.33636c3.62408,2.09241,5.37616,5.84253,3.91339,8.37622s-5.58661,2.89136-9.21075.799c-.09211-.05322-.17786-.11157-.26721-.16717" fill="none" stroke="#323232" stroke-linecap="round" stroke-linejoin="round" stroke-width="1.5"/></svg>