<?xml version="1.0" encoding="utf-8"?>
<!-- Generator: Adobe Illustrator 24.3.0, SVG Export Plug-In . SVG Version: 6.00 Build 0)  -->
<svg version="1.1" id="Layer_1" xmlns="http://www.w3.org/2000/svg" xmlns:xlink="http://www.w3.org/1999/xlink" x="0px" y="0px"
	 viewBox="0 0 24 24" style="enable-background:new 0 0 24 24;" xml:space="preserve">
<style type="text/css">
	.st0{fill:none;stroke:#323232;stroke-width:1.5;stroke-linecap:round;stroke-linejoin:round;}
</style>
<path class="st0" d="M7.5,2.5h9c2.8,0,5,2.2,5,5v9c0,2.8-2.2,5-5,5h-9c-2.8,0-5-2.2-5-5v-9C2.5,4.7,4.7,2.5,7.5,2.5z"/>
<g>
	<path class="st0" d="M7.5,16c0-1.5,1-3.6,5-3.6s2.3,3.8,2,4.1"/>
	<path class="st0" d="M12.6,10c2.6,0,3.9-0.7,3.9-2.1S14.9,6,12.5,6s-4,1.4-4,2.9c0,2.5,3,4,3,7.1"/>
	<path class="st0" d="M11.5,16c0,1.4-0.9,2.5-2,2.5s-2-1.1-2-2.5"/>
</g>
</svg>
