<svg xmlns="http://www.w3.org/2000/svg" viewBox="0 0 24 24"><rect width="24" height="24" fill="none"/><path d="M16.54441,14.33881l-3.72776,2.41941a1.50008,1.50008,0,0,1-1.6333,0L7.45559,14.33881a1,1,0,0,1,0-1.67762l3.72776-2.41941a1.50008,1.50008,0,0,1,1.6333,0l3.72776,2.41941A1,1,0,0,1,16.54441,14.33881Z" fill="none" stroke="#323232" stroke-linecap="round" stroke-linejoin="round" stroke-width="1.5"/><path d="M16.54441,11.33881l-3.72776,2.41941a1.50008,1.50008,0,0,1-1.6333,0L7.45559,11.33881a1,1,0,0,1,0-1.67762l3.72776-2.41941a1.50008,1.50008,0,0,1,1.6333,0l3.72776,2.41941A1,1,0,0,1,16.54441,11.33881Z" fill="none" stroke="#323232" stroke-linecap="round" stroke-linejoin="round" stroke-width="1.5"/><rect x="3" y="3" width="18" height="18" rx="5" stroke-width="1.5" stroke="#323232" stroke-linecap="round" stroke-linejoin="round" fill="none"/></svg>