<svg xmlns="http://www.w3.org/2000/svg" viewBox="0 0 24 24"><path d="M20.39981,10.66447,13.66608,15.4669a2.87005,2.87005,0,0,1-3.33218,0L3.60017,10.66447a1.42974,1.42974,0,0,1,0-2.32894L10.3339,3.5331a2.87005,2.87005,0,0,1,3.33218,0l6.73373,4.80243A1.42974,1.42974,0,0,1,20.39981,10.66447Z" fill="none" stroke="#323232" stroke-linecap="round" stroke-linejoin="round" stroke-width="1.5"/><path d="M20.39981,15.66447,13.66608,20.4669a2.87005,2.87005,0,0,1-3.33218,0L3.60017,15.66447a1.42974,1.42974,0,0,1,0-2.32894L10.3339,8.5331a2.87005,2.87005,0,0,1,3.33218,0l6.73373,4.80243A1.42974,1.42974,0,0,1,20.39981,15.66447Z" fill="none" stroke="#323232" stroke-linecap="round" stroke-linejoin="round" stroke-width="1.5"/></svg>