<svg xmlns="http://www.w3.org/2000/svg" viewBox="0 0 24 24"><path d="M17.08549,11.06069l-4.5,3.25a1,1,0,0,1-1.171,0l-4.5-3.25a1,1,0,0,1,0-1.62138l4.5-3.25a1,1,0,0,1,1.171,0l4.5,3.25A1,1,0,0,1,17.08549,11.06069Z" fill="none" stroke="#323232" stroke-linecap="round" stroke-linejoin="round" stroke-width="1.5"/><circle cx="11.99999" cy="12" r="10" fill="none" stroke="#323232" stroke-linecap="round" stroke-linejoin="round" stroke-width="1.5"/><path d="M17.08549,14.56069l-4.5,3.25a1,1,0,0,1-1.171,0l-4.5-3.25a1,1,0,0,1,0-1.62138l4.5-3.25a1,1,0,0,1,1.171,0l4.5,3.25A1,1,0,0,1,17.08549,14.56069Z" fill="none" stroke="#323232" stroke-linecap="round" stroke-linejoin="round" stroke-width="1.5"/></svg>