<svg xmlns="http://www.w3.org/2000/svg" viewBox="0 0 24 24"><path d="M5.5,12H8a0,0,0,0,1,0,0v2.5A2.5,2.5,0,0,1,5.5,17h0A2.5,2.5,0,0,1,3,14.5v0A2.5,2.5,0,0,1,5.5,12Z" fill="none" stroke="#323232" stroke-linecap="round" stroke-linejoin="round" stroke-width="1.5"/><path d="M9.5,3H12a0,0,0,0,1,0,0V5.5A2.5,2.5,0,0,1,9.5,8h0A2.5,2.5,0,0,1,7,5.5v0A2.5,2.5,0,0,1,9.5,3Z" transform="translate(14.99999 -3.99999) rotate(90)" fill="none" stroke="#323232" stroke-linecap="round" stroke-linejoin="round" stroke-width="1.5"/><path d="M18.5,7H21a0,0,0,0,1,0,0V9.5A2.5,2.5,0,0,1,18.5,12h0A2.5,2.5,0,0,1,16,9.5v0A2.5,2.5,0,0,1,18.5,7Z" transform="translate(36.99997 19.00001) rotate(-179.99998)" fill="none" stroke="#323232" stroke-linecap="round" stroke-linejoin="round" stroke-width="1.5"/><path d="M14.5,16H17a0,0,0,0,1,0,0v2.5A2.5,2.5,0,0,1,14.5,21h0A2.5,2.5,0,0,1,12,18.5v0A2.5,2.5,0,0,1,14.5,16Z" transform="translate(-4.00001 32.99999) rotate(-90)" fill="none" stroke="#323232" stroke-linecap="round" stroke-linejoin="round" stroke-width="1.5"/><path d="M12,12h8a2,2,0,0,1,2,2h0a2,2,0,0,1-2,2H12" fill="none" stroke="#323232" stroke-linecap="round" stroke-linejoin="round" stroke-width="1.5"/><path d="M12,12v8a2,2,0,0,1-2,2h0a2,2,0,0,1-2-2V12" fill="none" stroke="#323232" stroke-linecap="round" stroke-linejoin="round" stroke-width="1.5"/><path d="M12,12V4a2,2,0,0,1,2-2h0a2,2,0,0,1,2,2v8" fill="none" stroke="#323232" stroke-linecap="round" stroke-linejoin="round" stroke-width="1.5"/><path d="M12,12H4a2,2,0,0,1-2-2H2A2,2,0,0,1,4,8h8" fill="none" stroke="#323232" stroke-linecap="round" stroke-linejoin="round" stroke-width="1.5"/></svg>