<svg xmlns="http://www.w3.org/2000/svg" viewBox="0 0 24 24"><path d="M11.99545,22c-2.62192,0-3.3609-1.75524-5.65635-1.75524-1.053,0-1.581.00769-1.81512-1.11609C4.40851,18.57443,2,18.53979,2,17.3505c0-.90606,1.36932-.66971,2.86343-2.49818a11.888,11.888,0,0,0,1.16578-1.58414.7205.7205,0,0,0-.27011-.953l-1.54349-.94661a1.30783,1.30783,0,0,1-.43708-1.622h0a1.30788,1.30788,0,0,1,1.61265-.68633l1.05327.36309V7.55555A5.55554,5.55554,0,0,1,12,2h0a5.55554,5.55554,0,0,1,5.55554,5.55555V9.4233l1.05327-.36309a1.30788,1.30788,0,0,1,1.61265.68633h0a1.30783,1.30783,0,0,1-.43708,1.622l-1.54349.94661a.7205.7205,0,0,0-.27011.953,11.888,11.888,0,0,0,1.16578,1.58414C20.63067,16.68079,22,16.44444,22,17.3505c0,1.18929-2.40851,1.22393-2.524,1.77817-.23412,1.12378-.76207,1.11609-1.81512,1.11609C15.36544,20.24476,14.62646,22,12.00454,22" fill="none" stroke="#323232" stroke-linecap="round" stroke-linejoin="round" stroke-width="1.5"/></svg>