<?xml version="1.0" encoding="utf-8"?>
<!-- Generator: Adobe Illustrator 24.3.0, SVG Export Plug-In . SVG Version: 6.00 Build 0)  -->
<svg version="1.1" id="Layer_1" xmlns="http://www.w3.org/2000/svg" xmlns:xlink="http://www.w3.org/1999/xlink" x="0px" y="0px"
	 viewBox="0 0 24 24" style="enable-background:new 0 0 24 24;" xml:space="preserve">
<style type="text/css">
	.st0{fill-rule:evenodd;clip-rule:evenodd;fill:none;stroke:#323232;stroke-width:1.5;stroke-linecap:round;stroke-linejoin:round;}
</style>
<path class="st0" d="M10.7,8.4c0-0.8,0.6-1.1,1.7-1.1c1.3,0,2.8,0.3,4.2,0.9c0.3,0.1,0.7-0.1,0.7-0.5V4.3c0-0.2-0.1-0.4-0.3-0.5
	c-1.5-0.6-3-0.8-4.6-0.8c-4,0-6.7,2.1-6.7,5.6c0,5.5,7.1,4.6,7.1,7c0,1-0.4,1.2-1.5,1.2c-1.4,0-3.2-0.5-4.7-1.2
	C6.3,15.4,6,15.6,6,16v3.6c0,0.2,0.1,0.4,0.3,0.5c1.7,0.7,3.5,1,5.1,1c4.1,0,6.9-2,6.9-5.6C18.2,9.5,10.7,10.6,10.7,8.4z"/>
</svg>
