<svg xmlns="http://www.w3.org/2000/svg" viewBox="0 0 24 24"><path d="M16,14.99216A6,6,0,1,1,9.897,9h.10679v3.5H9.95707A2.50241,2.50241,0,0,0,7.574,15.623a2.46493,2.46493,0,0,0,1.70194,1.77446A2.50851,2.50851,0,0,0,12.5,14.99673h.00375V3.5a.5.5,0,0,1,.5-.5h3v.17208A3.9967,3.9967,0,0,0,19.534,7.14134.50626.50626,0,0,1,20,7.635v2.58a.49788.49788,0,0,1-.53037.50232A6.92378,6.92378,0,0,1,16.00375,9.4014h0V15Z" fill="none" stroke="#323232" stroke-linecap="round" stroke-linejoin="round" stroke-width="1.5"/></svg>