<svg xmlns="http://www.w3.org/2000/svg" viewBox="0 0 24 24"><path d="M10,16.5H9a1.00036,1.00036,0,0,1-1-1v-7a1.00036,1.00036,0,0,1,1-1h1a1.00036,1.00036,0,0,1,1,1v7A1.00036,1.00036,0,0,1,10,16.5Z" fill="none" stroke="#323232" stroke-linecap="round" stroke-linejoin="round" stroke-width="1.5"/><path d="M15.5,12.5h-1a1.00036,1.00036,0,0,1-1-1v-3a1.00036,1.00036,0,0,1,1-1h1a1.00036,1.00036,0,0,1,1,1v3A1.00036,1.00036,0,0,1,15.5,12.5Z" fill="none" stroke="#323232" stroke-linecap="round" stroke-linejoin="round" stroke-width="1.5"/><circle cx="12" cy="12" r="9.5" fill="none" stroke="#323232" stroke-linecap="round" stroke-linejoin="round" stroke-width="1.5"/><path d="M0,0H24V24H0Z" fill="none"/></svg>