<svg xmlns="http://www.w3.org/2000/svg" viewBox="0 0 24 24"><line x1="8.99999" y1="17" x2="8.99999" y2="11" fill="none" stroke="#323232" stroke-linecap="round" stroke-linejoin="round" stroke-width="1.5"/><line x1="10.99999" y1="11" x2="6.99999" y2="11" fill="none" stroke="#323232" stroke-linecap="round" stroke-linejoin="round" stroke-width="1.5"/><rect x="2.99999" y="3" width="18" height="18" rx="5" stroke-width="1.5" stroke="#323232" stroke-linecap="round" stroke-linejoin="round" fill="none"/><path d="M17.44906,12.07108A1.95078,1.95078,0,0,0,15.5,10.80786a1.83893,1.83893,0,0,0-2,1.61572h0a1.435,1.435,0,0,0,1.15357,1.40713l1.69285.33858A1.435,1.435,0,0,1,17.5,15.57642h0a1.83893,1.83893,0,0,1-2,1.61572,1.95077,1.95077,0,0,1-1.94907-1.26322" fill="none" stroke="#323232" stroke-linecap="round" stroke-linejoin="round" stroke-width="1.5"/></svg>