<svg xmlns="http://www.w3.org/2000/svg" viewBox="0 0 24 24"><path d="M13.88023,4.337l3.25632,9.305a2.008,2.008,0,0,1-1.07127,2.4985,10.04444,10.04444,0,0,1-8.13057,0,2.008,2.008,0,0,1-1.07126-2.49849l3.25632-9.305A1.99057,1.99057,0,0,1,13.88023,4.337Z" fill="none" stroke="#323232" stroke-linecap="round" stroke-linejoin="round" stroke-width="1.5"/><path d="M6.76156,14H5.57265A2,2,0,0,0,3.6496,15.45056l-.57143,2A2,2,0,0,0,5.00122,20H18.99878a2,2,0,0,0,1.92305-2.54945l-.57143-2A2,2,0,0,0,18.42735,14H17.22588" fill="none" stroke="#323232" stroke-linecap="round" stroke-linejoin="round" stroke-width="1.5"/></svg>