<svg xmlns="http://www.w3.org/2000/svg" viewBox="0 0 24 24"><path d="M10.92713,10.9315a6.55544,6.55544,0,0,0,2.14139,2.1414l.82185-.49312a1,1,0,0,1,1.13919.07662l1.59511,1.27607a1,1,0,0,1,.07641,1.494l-.7211.709a3.001,3.001,0,0,1-3.70991.4003,16.20451,16.20451,0,0,1-4.80579-4.80581A3.001,3.001,0,0,1,7.86458,8.02l.709-.72111a1,1,0,0,1,1.49395.07641l1.27609,1.59512a1,1,0,0,1,.07662,1.13918Z" fill="none" stroke="#323232" stroke-linecap="round" stroke-linejoin="round" stroke-width="1.5"/><path d="M6.8675,19.98631l-2.697.45072A.52778.52778,0,0,1,3.563,19.8295l.4506-2.69713A9.51765,9.51765,0,1,1,6.8675,19.98631Z" fill="none" stroke="#323232" stroke-linecap="round" stroke-linejoin="round" stroke-width="1.5"/></svg>