<svg xmlns="http://www.w3.org/2000/svg" viewBox="0 0 24 24"><path d="M15.95855,21H8.04145a2,2,0,0,1-1.732-1L2.268,13a2,2,0,0,1,0-2L6.3094,4a2,2,0,0,1,1.732-1h7.9171a2,2,0,0,1,1.732,1l4.04145,7a2,2,0,0,1,0,2L17.6906,20A2,2,0,0,1,15.95855,21Z" fill="none" stroke="#323232" stroke-linecap="round" stroke-linejoin="round" stroke-width="1.5"/><line x1="15" y1="16" x2="9" y2="8" fill="none" stroke="#323232" stroke-linecap="round" stroke-linejoin="round" stroke-width="1.5"/><line x1="9" y1="16" x2="15" y2="8" fill="none" stroke="#323232" stroke-linecap="round" stroke-linejoin="round" stroke-width="1.5"/></svg>