<svg xmlns="http://www.w3.org/2000/svg" viewBox="0 0 24 24"><rect x="2.49999" y="2.5" width="19" height="19" rx="5" stroke-width="1.5" stroke="#323232" stroke-linecap="round" stroke-linejoin="round" fill="none"/><path d="M11.78438,11.25088,10.49367,9H7.6738a.5.5,0,0,0-.43347.7492l.94566,1.645L6.56571,14.25349A.5.5,0,0,0,7.00072,15H9.66765l4.36816-7.74561A.5.5,0,0,1,14.47132,7h2.52794a.5.5,0,0,1,.43521.74614l-2.86931,5.0734v.01135l1.87679,3.42905A.5.5,0,0,1,16.00334,17H13.46623a.5.5,0,0,1-.439-.26071L10.894,12.82552" fill="none" stroke="#323232" stroke-linecap="round" stroke-linejoin="round" stroke-width="1.5"/></svg>