<svg xmlns="http://www.w3.org/2000/svg" viewBox="0 0 24 24"><path d="M10.73819,3.06345,7.06306,4.32571a1.15046,1.15046,0,0,0-.47027,1.8699l3.41794,3.68967a1.15046,1.15046,0,0,0,1.9929-.72216l.25718-4.95193A1.15046,1.15046,0,0,0,10.73819,3.06345Z" fill="none" stroke="#323232" stroke-linecap="round" stroke-linejoin="round" stroke-width="1.5"/><path d="M4.33871,14.61447,4.24418,12.5794A1.15047,1.15047,0,0,1,5.795,11.44792l2.26854.845a1.15046,1.15046,0,0,1,.15083,2.08725l-2.174,1.19A1.15045,1.15045,0,0,1,4.33871,14.61447Z" fill="none" stroke="#323232" stroke-linecap="round" stroke-linejoin="round" stroke-width="1.5"/><path d="M19.59457,9.5825,18.55423,7.83159a1.15046,1.15046,0,0,0-1.951-.0434L15.24447,9.85943a1.15046,1.15046,0,0,0,1.11419,1.7714l2.39912-.32032A1.15046,1.15046,0,0,0,19.59457,9.5825Z" fill="none" stroke="#323232" stroke-linecap="round" stroke-linejoin="round" stroke-width="1.5"/><path d="M10.52748,20.91965,8.63287,20.179a1.15046,1.15046,0,0,1-.40377-1.87573l1.69219-1.73093a1.15047,1.15047,0,0,1,1.96928.71034l.20241,2.47159A1.15046,1.15046,0,0,1,10.52748,20.91965Z" fill="none" stroke="#323232" stroke-linecap="round" stroke-linejoin="round" stroke-width="1.5"/><path d="M17.361,19.26251,18.8109,17.8353a1.15046,1.15046,0,0,0-.42527-1.90514l-2.3361-.82185a1.15046,1.15046,0,0,0-1.45216,1.507l.88623,2.24905A1.15046,1.15046,0,0,0,17.361,19.26251Z" fill="none" stroke="#323232" stroke-linecap="round" stroke-linejoin="round" stroke-width="1.5"/></svg>