<svg xmlns="http://www.w3.org/2000/svg" viewBox="0 0 24 24"><path d="M0,24V0H24V24Z" fill="none"/><line x1="8.46" y1="8.47083" x2="9.88349" y2="9.88766" fill="none" stroke="#323232" stroke-linecap="round" stroke-linejoin="round" stroke-width="1.5"/><line x1="14.11375" y1="14.11634" x2="15.54" y2="15.53" fill="none" stroke="#323232" stroke-linecap="round" stroke-linejoin="round" stroke-width="1.5"/><line x1="9.885" y1="14.11132" x2="8.46" y2="15.52917" fill="none" stroke="#323232" stroke-linecap="round" stroke-linejoin="round" stroke-width="1.5"/><line x1="15.53917" y1="8.47" x2="14.11504" y2="9.88746" fill="none" stroke="#323232" stroke-linecap="round" stroke-linejoin="round" stroke-width="1.5"/><line x1="17.005" y1="12.00333" x2="14.5" y2="12.00333" fill="none" stroke="#323232" stroke-linecap="round" stroke-linejoin="round" stroke-width="1.5"/><line x1="9.5" y1="12.00333" x2="7.005" y2="12.00333" fill="none" stroke="#323232" stroke-linecap="round" stroke-linejoin="round" stroke-width="1.5"/><line x1="11.9975" y1="7.0075" x2="11.9975" y2="9.5" fill="none" stroke="#323232" stroke-linecap="round" stroke-linejoin="round" stroke-width="1.5"/><line x1="11.9975" y1="14.49999" x2="11.9975" y2="16.9925" fill="none" stroke="#323232" stroke-linecap="round" stroke-linejoin="round" stroke-width="1.5"/><path d="M14.11375,14.11634A5.98508,5.98508,0,0,0,14.5,12h0a5.97993,5.97993,0,0,0-.38375-2.11133A5.953,5.953,0,0,0,12,9.5h0a5.97038,5.97038,0,0,0-2.1125.38365A6.03406,6.03406,0,0,0,9.5,12h0a6.00881,6.00881,0,0,0,.385,2.11132A5.95783,5.95783,0,0,0,12,14.5h0A5.95294,5.95294,0,0,0,14.11375,14.11634Z" fill="none" stroke="#323232" stroke-linecap="round" stroke-linejoin="round" stroke-width="1.5"/><circle cx="12" cy="12" r="9" fill="none" stroke="#323232" stroke-linecap="round" stroke-linejoin="round" stroke-width="1.5"/></svg>