<svg xmlns="http://www.w3.org/2000/svg" viewBox="0 0 24 24"><path d="M0,24V0H24V24Z" fill="none"/><path d="M8,8.5h3.5A2.5,2.5,0,0,1,14,11v3.5a1,1,0,0,1-1,1H9.5A2.5,2.5,0,0,1,7,13V9.5A1,1,0,0,1,8,8.5Z" fill="none" stroke="#323232" stroke-linecap="round" stroke-linejoin="round" stroke-width="1.5"/><circle cx="12" cy="12" r="9.5" fill="none" stroke="#323232" stroke-linecap="round" stroke-linejoin="round" stroke-width="1.5"/><path d="M14,10.336,16.00893,9.0977A.65.65,0,0,1,17,9.651V14.349a.65.65,0,0,1-.99108.55333L14,13.664" fill="none" stroke="#323232" stroke-linecap="round" stroke-linejoin="round" stroke-width="1.5"/></svg>