<svg xmlns="http://www.w3.org/2000/svg" viewBox="0 0 24 24"><path d="M24,24H0V0H24Z" fill="none"/><path d="M6.89909,20.62132,3.37868,17.10091A3,3,0,0,1,2.5,14.97959V9.02144a3,3,0,0,1,.87869-2.12133L6.90017,3.37867A3,3,0,0,1,9.02147,2.5h5.95706a3,3,0,0,1,2.12132.87868l3.22858,3.22858A4,4,0,0,1,21.5,9.4357v5.54384a3,3,0,0,1-.87835,2.121L17.10231,20.621a3,3,0,0,1-2.12166.879H9.02041A3,3,0,0,1,6.89909,20.62132Z" fill="none" stroke="#323232" stroke-linecap="round" stroke-linejoin="round" stroke-width="1.5"/><line x1="16.44444" y1="16.44444" x2="7.55556" y2="7.55556" fill="none" stroke="#323232" stroke-linecap="round" stroke-linejoin="round" stroke-width="1.5"/><path d="M17,13V8.77789a.5555.5555,0,0,0-.44659-.54474l-.24872-.04974a9.44348,9.44348,0,0,0-4.14282.09857L12,8.32245" fill="none" stroke="#323232" stroke-linecap="round" stroke-linejoin="round" stroke-width="1.5"/><path d="M7,11v4.22211a.5555.5555,0,0,0,.44659.54474l.24872.04974a9.44333,9.44333,0,0,0,4.14282-.09857L12,15.67753" fill="none" stroke="#323232" stroke-linecap="round" stroke-linejoin="round" stroke-width="1.5"/></svg>