<svg xmlns="http://www.w3.org/2000/svg" viewBox="0 0 24 24"><circle cx="12" cy="12" r="9.5" fill="none" stroke="#323232" stroke-linecap="round" stroke-linejoin="round" stroke-width="1.5"/><path d="M10.333,15.5V12.334A.83328.83328,0,0,0,9.5,11.5H7.833A.83307.83307,0,0,0,7,12.333V15.5" fill="none" stroke="#323232" stroke-linecap="round" stroke-linejoin="round" stroke-width="1.5"/><path d="M17,15.5V10.333a.83307.83307,0,0,0-.833-.833H14.5a.83307.83307,0,0,0-.833.833V15.5" fill="none" stroke="#323232" stroke-linecap="round" stroke-linejoin="round" stroke-width="1.5"/><path d="M13.667,15.5V8.333a.83307.83307,0,0,0-.833-.833H11.167a.83307.83307,0,0,0-.833.833V15.5" fill="none" stroke="#323232" stroke-linecap="round" stroke-linejoin="round" stroke-width="1.5"/><line x1="17" y1="15.5" x2="7" y2="15.5" fill="none" stroke="#323232" stroke-linecap="round" stroke-linejoin="round" stroke-width="1.5"/></svg>