<svg xmlns="http://www.w3.org/2000/svg" viewBox="0 0 24 24"><line x1="4.5" y1="9" x2="1" y2="9" fill="none" stroke="#323232" stroke-linecap="round" stroke-linejoin="round" stroke-width="1.5"/><line x1="4.5" y1="15" x2="3" y2="15" fill="none" stroke="#323232" stroke-linecap="round" stroke-linejoin="round" stroke-width="1.5"/><line x1="4.5" y1="11.99995" x2="2" y2="12.00005" fill="none" stroke="#323232" stroke-linecap="round" stroke-linejoin="round" stroke-width="1.5"/><path d="M3.5,18.148A4.98791,4.98791,0,0,0,8,21h8a4.99994,4.99994,0,0,0,5-5V8a4.99994,4.99994,0,0,0-5-5H8A4.98791,4.98791,0,0,0,3.5,5.85205" fill="none" stroke="#323232" stroke-linecap="round" stroke-linejoin="round" stroke-width="1.5"/><line x1="12" y1="7.5" x2="12" y2="8.5" fill="none" stroke="#323232" stroke-linecap="round" stroke-linejoin="round" stroke-width="1.5"/><line x1="12" y1="16.5" x2="12" y2="15.5" fill="none" stroke="#323232" stroke-linecap="round" stroke-linejoin="round" stroke-width="1.5"/><path d="M9.8587,14.25A2.23144,2.23144,0,0,0,12,15.5a2.0478,2.0478,0,0,0,2.25-1.75h0a1.58574,1.58574,0,0,0-1.27475-1.55495l-1.9505-.3901A1.58574,1.58574,0,0,1,9.75,10.25h0A2.0478,2.0478,0,0,1,12,8.5a2.23144,2.23144,0,0,1,2.1413,1.25" fill="none" stroke="#323232" stroke-linecap="round" stroke-linejoin="round" stroke-width="1.5"/></svg>