<svg xmlns="http://www.w3.org/2000/svg" viewBox="0 0 24 24"><line x1="5" y1="9" x2="1.5" y2="9" fill="none" stroke="#323232" stroke-linecap="round" stroke-linejoin="round" stroke-width="1.5"/><line x1="5" y1="15" x2="3.5" y2="15" fill="none" stroke="#323232" stroke-linecap="round" stroke-linejoin="round" stroke-width="1.5"/><line x1="5" y1="12" x2="2.5" y2="12" fill="none" stroke="#323232" stroke-linecap="round" stroke-linejoin="round" stroke-width="1.5"/><path d="M5.636,5.636a9,9,0,1,1,0,12.72792" fill="none" stroke="#323232" stroke-linecap="round" stroke-linejoin="round" stroke-width="1.5"/><line x1="12" y1="7.5" x2="12" y2="8.5" fill="none" stroke="#323232" stroke-linecap="round" stroke-linejoin="round" stroke-width="1.5"/><line x1="12" y1="16.5" x2="12" y2="15.5" fill="none" stroke="#323232" stroke-linecap="round" stroke-linejoin="round" stroke-width="1.5"/><path d="M14.19271,9.92112A2.19463,2.19463,0,0,0,12,8.5a2.06879,2.06879,0,0,0-2.25,1.81768h0a1.50319,1.50319,0,0,0,1.20838,1.474l2.08324.41664a1.50319,1.50319,0,0,1,1.20838,1.474h0A2.06879,2.06879,0,0,1,12,15.5a2.19463,2.19463,0,0,1-2.19271-1.42112" fill="none" stroke="#323232" stroke-linecap="round" stroke-linejoin="round" stroke-width="1.5"/><path d="M24,0V24H0V0Z" fill="none"/></svg>