<svg xmlns="http://www.w3.org/2000/svg" viewBox="0 0 24 24"><path d="M24,24H0V0H24Z" fill="none"/><path d="M3.50087,21h6.99826a1,1,0,0,0,.9398-1.34174l-1.33487-3.67087A1.5,1.5,0,0,0,8.69437,15H5.30563a1.5,1.5,0,0,0-1.40969.98739L2.56107,19.65826A1,1,0,0,0,3.50087,21Z" fill="none" stroke="#323232" stroke-linecap="round" stroke-linejoin="round" stroke-width="1.5"/><path d="M13.50087,21h6.99826a1,1,0,0,0,.9398-1.34174l-1.33487-3.67087A1.5,1.5,0,0,0,18.69437,15H15.30563a1.5,1.5,0,0,0-1.40969.98739l-1.33487,3.67087A1,1,0,0,0,13.50087,21Z" fill="none" stroke="#323232" stroke-linecap="round" stroke-linejoin="round" stroke-width="1.5"/><path d="M8.50087,15h6.99826a1,1,0,0,0,.9398-1.34174L15.10406,9.98739A1.5,1.5,0,0,0,13.69437,9H10.30563a1.5,1.5,0,0,0-1.40969.98739L7.56107,13.65826A1,1,0,0,0,8.50087,15Z" fill="none" stroke="#323232" stroke-linecap="round" stroke-linejoin="round" stroke-width="1.5"/><line x1="16.5" y1="4.5" x2="19.5" y2="4.5" fill="none" stroke="#323232" stroke-linecap="round" stroke-linejoin="round" stroke-width="1.5"/><line x1="18" y1="3" x2="18" y2="6" fill="none" stroke="#323232" stroke-linecap="round" stroke-linejoin="round" stroke-width="1.5"/><line x1="3" y1="6" x2="6" y2="6" fill="none" stroke="#323232" stroke-linecap="round" stroke-linejoin="round" stroke-width="1.5"/><line x1="4.5" y1="4.5" x2="4.5" y2="7.5" fill="none" stroke="#323232" stroke-linecap="round" stroke-linejoin="round" stroke-width="1.5"/><line x1="13.50087" y1="21" x2="10.49913" y2="21" fill="none" stroke="#323232" stroke-linecap="round" stroke-linejoin="round" stroke-width="1.5"/></svg>