<svg xmlns="http://www.w3.org/2000/svg" viewBox="0 0 24 24"><path d="M16.99913,15.5H13.00087a1,1,0,0,1-.9398-1.34173l.72725-2a1,1,0,0,1,.9398-.65827h2.54372a1,1,0,0,1,.93979.65825l.72729,2A1,1,0,0,1,16.99913,15.5Z" fill="none" stroke="#323232" stroke-linecap="round" stroke-linejoin="round" stroke-width="1.5"/><path d="M6.89909,20.62132,3.37868,17.10091A3,3,0,0,1,2.5,14.97959V9.02144a3,3,0,0,1,.87869-2.12133L6.90017,3.37868A3,3,0,0,1,9.02147,2.5h5.95706a3,3,0,0,1,2.12132.87868l3.52147,3.52148A3,3,0,0,1,21.5,9.02149v5.95806a3,3,0,0,1-.87835,2.121L17.10231,20.621a3,3,0,0,1-2.12166.879H9.02041A3,3,0,0,1,6.89909,20.62132Z" fill="none" stroke="#323232" stroke-linecap="round" stroke-linejoin="round" stroke-width="1.5"/><path d="M14.75,9l-.48792-1.34174A.99993.99993,0,0,0,13.32233,7H10.67761a1,1,0,0,0-.93976.65826L9.25,9" fill="none" stroke="#323232" stroke-linecap="round" stroke-linejoin="round" stroke-width="1.5"/><path d="M9,15.5H7.00087a1,1,0,0,1-.9398-1.34173l.72725-2A1,1,0,0,1,7.72812,11.5H10" fill="none" stroke="#323232" stroke-linecap="round" stroke-linejoin="round" stroke-width="1.5"/></svg>