<svg xmlns="http://www.w3.org/2000/svg" viewBox="0 0 24 24"><path d="M16,17h2a3,3,0,0,0,3-3V7a3,3,0,0,0-3-3H6A3,3,0,0,0,3,7V9" fill="none" stroke="#323232" stroke-linecap="round" stroke-linejoin="round" stroke-width="1.5"/><path d="M10.23224,9.23224a2.5,2.5,0,1,1,3.53553,3.53554" fill="none" stroke="#323232" stroke-linecap="round" stroke-linejoin="round" stroke-width="1.5"/><path d="M3,20l1.15551.57774A4.00009,4.00009,0,0,0,5.94432,21H12.5A1.5,1.5,0,0,0,14,19.5h0A1.5,1.5,0,0,0,12.5,18h-4" fill="none" stroke="#323232" stroke-linecap="round" stroke-linejoin="round" stroke-width="1.5"/><path d="M3,13H5.91335a2,2,0,0,1,1.2.4l2.23727,1.67794a1.62336,1.62336,0,0,1,.17388,2.44657h0a1.62335,1.62335,0,0,1-2.1219.15079L6,16.62335" fill="none" stroke="#323232" stroke-linecap="round" stroke-linejoin="round" stroke-width="1.5"/></svg>