<svg xmlns="http://www.w3.org/2000/svg" viewBox="0 0 24 24"><line x1="7" y1="8.5" x2="16" y2="8.5" fill="none" stroke="#323232" stroke-linecap="round" stroke-linejoin="round" stroke-width="1.5"/><line x1="7" y1="12" x2="8" y2="12" fill="none" stroke="#323232" stroke-linecap="round" stroke-linejoin="round" stroke-width="1.5"/><line x1="7" y1="15.5" x2="8" y2="15.5" fill="none" stroke="#323232" stroke-linecap="round" stroke-linejoin="round" stroke-width="1.5"/><circle cx="16.5" cy="16.5" r="1.75" fill="none" stroke="#323232" stroke-linecap="round" stroke-linejoin="round" stroke-width="1.5"/><rect x="11" y="12" width="11" height="9" rx="2" stroke-width="1.5" stroke="#323232" stroke-linecap="round" stroke-linejoin="round" fill="none"/><path d="M8,21H5a2,2,0,0,1-2-2V4.59787a.99629.99629,0,0,1,.525-.88c.48035-.2578,1.11675-.59913,1.11675-.59913a1,1,0,0,1,.93941-.00314l1.675.884,1.64162-.88015a1,1,0,0,1,.94173-.00177L11.5,4l1.66051-.88228a1,1,0,0,1,.94173.00177l1.64162.88015,1.675-.884a1,1,0,0,1,.9394.00314s.63637.34131,1.11668.59911a.99625.99625,0,0,1,.525.88L20,8.5" fill="none" stroke="#323232" stroke-linecap="round" stroke-linejoin="round" stroke-width="1.5"/></svg>