<svg xmlns="http://www.w3.org/2000/svg" viewBox="0 0 24 24"><path d="M0,0H24V24H0Z" fill="none"/><path d="M0,0H24V24H0Z" fill="none"/><path d="M8,21,3.97163,21a1.85206,1.85206,0,0,1-1.20834-.403,2.04673,2.04673,0,0,1-.60158-2.38489l1.28572-3A2,2,0,0,1,5.28572,14H8" fill="none" stroke="#323232" stroke-linecap="round" stroke-linejoin="round" stroke-width="1.5"/><path d="M8,14H5.5A1.5,1.5,0,0,1,4,12.5V5A2,2,0,0,1,6,3H18a2,2,0,0,1,2,2v5" fill="none" stroke="#323232" stroke-linecap="round" stroke-linejoin="round" stroke-width="1.5"/><circle cx="16.5" cy="16.875" r="1.5" fill="none" stroke="#323232" stroke-linecap="round" stroke-linejoin="round" stroke-width="1.5"/><path d="M13.25,21h6.5A2.25,2.25,0,0,0,22,18.75V15a2.25,2.25,0,0,0-2.25-2.25h-6.5A2.25,2.25,0,0,0,11,15v3.75A2.25,2.25,0,0,0,13.25,21Z" fill="none" stroke="#323232" stroke-linecap="round" stroke-linejoin="round" stroke-width="1.5"/></svg>