<svg xmlns="http://www.w3.org/2000/svg" viewBox="0 0 24 24"><path d="M8,18v2.49908a.5.5,0,0,0,.80839.39356L12.5,18H18a3,3,0,0,0,3-3V6a3,3,0,0,0-3-3H6A3,3,0,0,0,3,6v9a3,3,0,0,0,3,3Z" fill="none" stroke="#323232" stroke-linecap="round" stroke-linejoin="round" stroke-width="1.5"/><line x1="12" y1="14.30786" x2="12" y2="13.30786" fill="none" stroke="#323232" stroke-linecap="round" stroke-linejoin="round" stroke-width="1.5"/><path d="M10,8.80786h0a1.3418,1.3418,0,0,0,1.07864,1.31573l1.84272.36854A1.3418,1.3418,0,0,1,14,11.80786h0" fill="none" stroke="#323232" stroke-linecap="round" stroke-linejoin="round" stroke-width="1.5"/><path d="M14,11.80786c0,.82837-.89545,1.5-2,1.5a2.03959,2.03959,0,0,1-1.87756-1" fill="none" stroke="#323232" stroke-linecap="round" stroke-linejoin="round" stroke-width="1.5"/><path d="M13.86945,8.28833A2.05134,2.05134,0,0,0,12,7.30786c-1.10455,0-2,.67163-2,1.5" fill="none" stroke="#323232" stroke-linecap="round" stroke-linejoin="round" stroke-width="1.5"/><line x1="12" y1="6.30786" x2="12" y2="7.30786" fill="none" stroke="#323232" stroke-linecap="round" stroke-linejoin="round" stroke-width="1.5"/></svg>