<?xml version="1.0" encoding="UTF-8"?><svg version="1.1" viewBox="0 0 24 24" xmlns="http://www.w3.org/2000/svg" xmlns:xlink="http://www.w3.org/1999/xlink"><g fill="none"><path d="M0 0h24v24h-24v-24Z"></path><path stroke="#323232" stroke-linecap="round" stroke-linejoin="round" stroke-width="1.5" d="M11 15.9h-7.1c-1.05 0-1.9-.85-1.9-1.9v-9.1c0-1.05.85-1.9 1.9-1.9h15.2c1.05 0 1.9.85 1.9 1.9v5.1"></path><path stroke="#323232" stroke-linecap="round" stroke-linejoin="round" stroke-width="1.5" d="M13.179 7.971c.927.927.927 2.431 0 3.359 -.927.927-2.431.927-3.359 0 -.927-.927-.927-2.431 0-3.359 .928-.928 2.432-.928 3.359 8.88178e-16"></path><line x1="6" x2="5" y1="13" y2="13" stroke="#323232" stroke-linecap="round" stroke-linejoin="round" stroke-width="1.5"></line><line x1="18" x2="17" y1="6" y2="6" stroke="#323232" stroke-linecap="round" stroke-linejoin="round" stroke-width="1.5"></line><path stroke="#323232" stroke-linecap="round" stroke-linejoin="round" stroke-width="1.5" d="M18 21c-2.209 0-4-1.79-4-3.999 0-2.164 1.84-4.002 4.004-4.001 2.207.002 3.996 1.792 3.996 4 0 2.209-1.79 4-4 4"></path><path stroke="#323232" stroke-linecap="round" stroke-linejoin="round" stroke-width="1.5" d="M19.2 17h-1.6v-1.6"></path></g></svg>