<svg xmlns="http://www.w3.org/2000/svg" viewBox="0 0 24 24"><path d="M20,17.54327V11a2,2,0,0,0-2-2H6a2,2,0,0,0-2,2v6.54327a2,2,0,0,0,1.194,1.8304l5.194,2.28713a4,4,0,0,0,3.224,0l5.194-2.28713A2,2,0,0,0,20,17.54327Z" fill="none" stroke="#323232" stroke-linecap="round" stroke-linejoin="round" stroke-width="1.5"/><line x1="16" y1="13" x2="8" y2="13" fill="none" stroke="#323232" stroke-linecap="round" stroke-linejoin="round" stroke-width="1.5"/><path d="M8,3h8a2,2,0,0,1,2,2V9a0,0,0,0,1,0,0H6A0,0,0,0,1,6,9V5A2,2,0,0,1,8,3Z" fill="none" stroke="#323232" stroke-linecap="round" stroke-linejoin="round" stroke-width="1.5"/></svg>