<svg xmlns="http://www.w3.org/2000/svg" viewBox="0 0 24 24"><path d="M24,0V24H0V0Z" fill="none"/><rect x="3" y="13" width="7" height="4" rx="1.5" stroke-width="1.5" stroke="#323232" stroke-linecap="round" stroke-linejoin="round" fill="none"/><rect x="3" y="17" width="7" height="4" rx="1.5" stroke-width="1.5" stroke="#323232" stroke-linecap="round" stroke-linejoin="round" fill="none"/><path d="M10.5,3h5A1.5,1.5,0,0,1,17,4.5v0A3.5,3.5,0,0,1,13.5,8h-1A3.5,3.5,0,0,1,9,4.5v0A1.5,1.5,0,0,1,10.5,3Z" fill="none" stroke="#323232" stroke-linecap="round" stroke-linejoin="round" stroke-width="1.5"/><path d="M13,21h4a4,4,0,0,0,4-4V16A7.99114,7.99114,0,0,0,7.7207,10" fill="none" stroke="#323232" stroke-linecap="round" stroke-linejoin="round" stroke-width="1.5"/></svg>