<svg xmlns="http://www.w3.org/2000/svg" viewBox="0 0 24 24"><path d="M19.5,21.00119h0a1.5,1.5,0,0,1-1.5-1.5v-1.5a1,1,0,0,0-1-1H4a1,1,0,0,0-1,1v1a2,2,0,0,0,2,2H19.5a1.5,1.5,0,0,0,1.5-1.5v-14.5a2,2,0,0,0-2-2H17.5" fill="none" stroke="#323232" stroke-linecap="round" stroke-linejoin="round" stroke-width="1.5"/><circle cx="9" cy="7.5" r="1.75" fill="none" stroke="#323232" stroke-linecap="round" stroke-linejoin="round" stroke-width="1.5"/><rect x="3" y="3" width="12" height="9" rx="2" transform="translate(18 15) rotate(180)" stroke-width="1.5" stroke="#323232" stroke-linecap="round" stroke-linejoin="round" fill="none"/><path d="M6,17.00119v-2" fill="none" stroke="#323232" stroke-linecap="round" stroke-linejoin="round" stroke-width="1.5"/></svg>