<svg xmlns="http://www.w3.org/2000/svg" viewBox="0 0 24 24"><path d="M17,21h2a3,3,0,0,0,3-3V6a3,3,0,0,0-3-3H17" fill="none" stroke="#323232" stroke-linecap="round" stroke-linejoin="round" stroke-width="1.5"/><path d="M15,16v2a3,3,0,0,1-3,3H5a3,3,0,0,1-3-3V6A3,3,0,0,1,5,3h7a3,3,0,0,1,3,3V8" fill="none" stroke="#323232" stroke-linecap="round" stroke-linejoin="round" stroke-width="1.5"/><polyline points="17 10 19 12 17 14" fill="none" stroke="#323232" stroke-linecap="round" stroke-linejoin="round" stroke-width="1.5"/><line x1="15" y1="11.99999" x2="19" y2="11.99999" fill="none" stroke="#323232" stroke-linecap="round" stroke-linejoin="round" stroke-width="1.5"/><path d="M17,21h2a3,3,0,0,0,3-3V6a3,3,0,0,0-3-3H17" fill="none" stroke="#323232" stroke-linecap="round" stroke-linejoin="round" stroke-width="1.5"/><circle cx="8.5" cy="11.99998" r="2.5" fill="none" stroke="#323232" stroke-linecap="round" stroke-linejoin="round" stroke-width="1.5"/></svg>