<svg xmlns="http://www.w3.org/2000/svg" viewBox="0 0 24 24"><path d="M11,19H6a3,3,0,0,1-3-3V8A3,3,0,0,1,6,5H18a3,3,0,0,1,3,3v3" fill="none" stroke="#323232" stroke-linecap="round" stroke-linejoin="round" stroke-width="1.5"/><path d="M17.08813,20.95922h0A3.84151,3.84151,0,0,1,14,17.19231V16a2,2,0,0,1,2-2h3a2,2,0,0,1,2,2v1.1923a3.8415,3.8415,0,0,1-3.088,3.76689l-.00008,0A2.1,2.1,0,0,1,17.08813,20.95922Z" fill="none" stroke="#323232" stroke-linecap="round" stroke-linejoin="round" stroke-width="1.5"/><path d="M13.76777,10.23228a2.5,2.5,0,0,0-3.53554,3.53554" fill="none" stroke="#323232" stroke-linecap="round" stroke-linejoin="round" stroke-width="1.5"/></svg>