<svg xmlns="http://www.w3.org/2000/svg" viewBox="0 0 24 24"><path d="M3,16v2.75A2.24954,2.24954,0,0,0,5.25,21H8" fill="none" stroke="#323232" stroke-linecap="round" stroke-linejoin="round" stroke-width="1.5"/><path d="M16,21h2.75A2.24954,2.24954,0,0,0,21,18.75V16" fill="none" stroke="#323232" stroke-linecap="round" stroke-linejoin="round" stroke-width="1.5"/><path d="M21,8V5.25A2.24954,2.24954,0,0,0,18.75,3H16" fill="none" stroke="#323232" stroke-linecap="round" stroke-linejoin="round" stroke-width="1.5"/><path d="M8,3H5.25A2.24954,2.24954,0,0,0,3,5.25V8" fill="none" stroke="#323232" stroke-linecap="round" stroke-linejoin="round" stroke-width="1.5"/><line x1="12" y1="4" x2="12" y2="20" fill="none" stroke="#323232" stroke-linecap="round" stroke-linejoin="round" stroke-width="1.5"/><path d="M15,7.5h1a2,2,0,0,1,2,2v5a2,2,0,0,1-2,2H15" fill="none" stroke="#323232" stroke-linecap="round" stroke-linejoin="round" stroke-width="1.5"/><path d="M12,7.5H8a2,2,0,0,0-2,2v5a2,2,0,0,0,2,2h4" fill="none" stroke="#323232" stroke-linecap="round" stroke-linejoin="round" stroke-width="1.5"/></svg>