<svg xmlns="http://www.w3.org/2000/svg" viewBox="0 0 24 24"><path d="M6.89909,20.62251,3.37868,17.1021A3,3,0,0,1,2.5,14.98078V9.02263a3,3,0,0,1,.87869-2.12134L6.90017,3.37986a3,3,0,0,1,2.1213-.87866h5.95706a3,3,0,0,1,2.12132.87868l3.52147,3.52147A3,3,0,0,1,21.5,9.02267v5.95806a3,3,0,0,1-.87835,2.121l-3.51934,3.52045a3,3,0,0,1-2.12166.879H9.02041A3,3,0,0,1,6.89909,20.62251Z" fill="none" stroke="#323232" stroke-linecap="round" stroke-linejoin="round" stroke-width="1.5"/><path d="M7.5,14.4A4.71286,4.71286,0,0,1,12,9.5a4.71286,4.71286,0,0,1,4.5,4.9h0a2.10016,2.10016,0,0,1-2.1,2.1H9.6a2.10016,2.10016,0,0,1-2.1-2.1Z" fill="none" stroke="#323232" stroke-linecap="round" stroke-linejoin="round" stroke-width="1.5"/><path d="M10.5,6.5h3a.75.75,0,0,1,.75.75v0A2.25,2.25,0,0,1,12,9.5h0A2.25,2.25,0,0,1,9.75,7.25v0A.75.75,0,0,1,10.5,6.5Z" fill="none" stroke="#323232" stroke-linecap="round" stroke-linejoin="round" stroke-width="1.5"/></svg>