<?xml version="1.0" encoding="UTF-8"?><svg version="1.1" viewBox="0 0 24 24" xmlns="http://www.w3.org/2000/svg" xmlns:xlink="http://www.w3.org/1999/xlink"><g fill="none"><path d="M0 0h24v24h-24v-24Z"></path><path stroke="#323232" stroke-linecap="round" stroke-linejoin="round" stroke-width="1.5" d="M20.121 14.879c1.172 1.172 1.172 3.071 0 4.243 -1.172 1.172-3.071 1.172-4.243 0 -1.172-1.172-1.172-3.071 0-4.243 1.172-1.172 3.072-1.172 4.243 1.77636e-15"></path><path stroke="#323232" stroke-linecap="round" stroke-linejoin="round" stroke-width="1.5" d="M22 21l-1.879-1.878"></path><path stroke="#323232" stroke-linecap="round" stroke-linejoin="round" stroke-width="1.5" d="M13.414 7.586c.781.781.781 2.047 0 2.828 -.781.781-2.047.781-2.828 0 -.781-.781-.781-2.047 0-2.828 .781-.781 2.047-.781 2.828 0"></path><path stroke="#323232" stroke-linecap="round" stroke-linejoin="round" stroke-width="1.5" d="M6.5 7.5v3"></path><path stroke="#323232" stroke-linecap="round" stroke-linejoin="round" stroke-width="1.5" d="M17.5 7.5v3"></path><path stroke="#323232" stroke-linecap="round" stroke-linejoin="round" stroke-width="1.5" d="M11 15h-6c-1.105 0-2-.895-2-2v-8c0-1.105.895-2 2-2h14c1.105 0 2 .895 2 2v6"></path></g></svg>