<svg xmlns="http://www.w3.org/2000/svg" viewBox="0 0 24 24"><path d="M10,19H6a3,3,0,0,1-3-3V8A3,3,0,0,1,6,5H18a3,3,0,0,1,3,3v3" fill="none" stroke="#323232" stroke-linecap="round" stroke-linejoin="round" stroke-width="1.5"/><line x1="17" y1="7.99999" x2="18" y2="7.99999" fill="none" stroke="#323232" stroke-linecap="round" stroke-linejoin="round" stroke-width="1.5"/><line x1="6" y1="15.99999" x2="7" y2="15.99999" fill="none" stroke="#323232" stroke-linecap="round" stroke-linejoin="round" stroke-width="1.5"/><path d="M10.23223,13.76776a2.5,2.5,0,0,1,0-3.53554" fill="none" stroke="#323232" stroke-linecap="round" stroke-linejoin="round" stroke-width="1.5"/><path d="M10.23223,10.23222a2.5,2.5,0,0,1,3.53554,0" fill="none" stroke="#323232" stroke-linecap="round" stroke-linejoin="round" stroke-width="1.5"/><path d="M17,21a4,4,0,1,1,4-4,4,4,0,0,1-4,4" fill="none" stroke="#323232" stroke-linecap="round" stroke-linejoin="round" stroke-width="1.5"/><path d="M19.82843,19.82837,17,16.99995V13.00621" fill="none" stroke="#323232" stroke-linecap="round" stroke-linejoin="round" stroke-width="1.5"/></svg>