<svg xmlns="http://www.w3.org/2000/svg" viewBox="0 0 24 24"><path d="M16,21h2a3,3,0,0,0,3-3V16" fill="none" stroke="#323232" stroke-linecap="round" stroke-linejoin="round" stroke-width="1.5"/><path d="M16,3h2a3,3,0,0,1,3,3V8" fill="none" stroke="#323232" stroke-linecap="round" stroke-linejoin="round" stroke-width="1.5"/><path d="M3,16v2a3,3,0,0,0,3,3H8" fill="none" stroke="#323232" stroke-linecap="round" stroke-linejoin="round" stroke-width="1.5"/><path d="M3,8V6A3,3,0,0,1,6,3H8" fill="none" stroke="#323232" stroke-linecap="round" stroke-linejoin="round" stroke-width="1.5"/><path d="M7.5,14.9A4.71286,4.71286,0,0,1,12,10a4.71286,4.71286,0,0,1,4.5,4.9h0A2.10016,2.10016,0,0,1,14.4,17H9.6a2.10016,2.10016,0,0,1-2.1-2.1Z" fill="none" stroke="#323232" stroke-linecap="round" stroke-linejoin="round" stroke-width="1.5"/><path d="M10.5,7h3a.75.75,0,0,1,.75.75v0A2.25,2.25,0,0,1,12,10h0A2.25,2.25,0,0,1,9.75,7.75v0A.75.75,0,0,1,10.5,7Z" fill="none" stroke="#323232" stroke-linecap="round" stroke-linejoin="round" stroke-width="1.5"/></svg>