<svg xmlns="http://www.w3.org/2000/svg" viewBox="0 0 24 24"><path d="M9.5,3h5A1.5,1.5,0,0,1,16,4.5v0A3.5,3.5,0,0,1,12.5,8h-1A3.5,3.5,0,0,1,8,4.5v0A1.5,1.5,0,0,1,9.5,3Z" fill="none" stroke="#323232" stroke-linecap="round" stroke-linejoin="round" stroke-width="1.5"/><path d="M4,17V16a8,8,0,0,1,8-8h0a8,8,0,0,1,8,8v1h0a4,4,0,0,1-4,4H8a4,4,0,0,1-4-4Z" fill="none" stroke="#323232" stroke-linecap="round" stroke-linejoin="round" stroke-width="1.5"/><line x1="10.25" y1="14.5" x2="13.75" y2="14.5" fill="none" stroke="#323232" stroke-linecap="round" stroke-linejoin="round" stroke-width="1.5"/><line x1="12" y1="16.25" x2="12" y2="12.75" fill="none" stroke="#323232" stroke-linecap="round" stroke-linejoin="round" stroke-width="1.5"/><path d="M24,0V24H0V0Z" fill="none"/></svg>