<svg xmlns="http://www.w3.org/2000/svg" viewBox="0 0 24 24"><path d="M3,19V12.50275a1.5,1.5,0,0,1,2.412-1.19094l5.37211,4.11364a2,2,0,0,0,2.43188,0l5.37211-4.11364A1.5,1.5,0,0,1,21,12.50275V19a2,2,0,0,1-2,2H5A2,2,0,0,1,3,19Z" fill="none" stroke="#323232" stroke-linecap="round" stroke-linejoin="round" stroke-width="1.5"/><path d="M19,11.08621V4a2,2,0,0,0-2-2H7A2,2,0,0,0,5,4v7.08621" fill="none" stroke="#323232" stroke-linecap="round" stroke-linejoin="round" stroke-width="1.5"/><line x1="12" y1="12.5" x2="12" y2="11.5" fill="none" stroke="#323232" stroke-linecap="round" stroke-linejoin="round" stroke-width="1.5"/><path d="M10,7h0a1.3418,1.3418,0,0,0,1.07864,1.31573l1.84272.36854A1.3418,1.3418,0,0,1,14,10h0" fill="none" stroke="#323232" stroke-linecap="round" stroke-linejoin="round" stroke-width="1.5"/><path d="M14,10c0,.82837-.89545,1.5-2,1.5a2.03959,2.03959,0,0,1-1.87756-1" fill="none" stroke="#323232" stroke-linecap="round" stroke-linejoin="round" stroke-width="1.5"/><path d="M13.86945,6.48047A2.05134,2.05134,0,0,0,12,5.5c-1.10455,0-2,.67163-2,1.5" fill="none" stroke="#323232" stroke-linecap="round" stroke-linejoin="round" stroke-width="1.5"/><line x1="12" y1="4.5" x2="12" y2="5.5" fill="none" stroke="#323232" stroke-linecap="round" stroke-linejoin="round" stroke-width="1.5"/></svg>