<svg xmlns="http://www.w3.org/2000/svg" viewBox="0 0 24 24"><path d="M16,21h1a3,3,0,0,0,3-3V8.24264a3,3,0,0,0-.87868-2.12132L16.87868,3.87868A3,3,0,0,0,14.75736,3H7A3,3,0,0,0,4,6V8" fill="none" stroke="#323232" stroke-linecap="round" stroke-linejoin="round" stroke-width="1.5"/><path d="M20,8.5H16.5a2,2,0,0,1-2-2V3" fill="none" stroke="#323232" stroke-linecap="round" stroke-linejoin="round" stroke-width="1.5"/><path d="M13,17.75V19a2,2,0,0,1-2,2H5a2,2,0,0,1-2-2V13a2,2,0,0,1,2-2h6a2,2,0,0,1,2,2v1.25" fill="none" stroke="#323232" stroke-linecap="round" stroke-linejoin="round" stroke-width="1.5"/><path d="M12.25,14.25H13.5a.5.5,0,0,1,.5.5v2.5a.5.5,0,0,1-.5.5H12.25A1.75,1.75,0,0,1,10.5,16v0a1.75,1.75,0,0,1,1.75-1.75Z" fill="none" stroke="#323232" stroke-linecap="round" stroke-linejoin="round" stroke-width="1.5"/></svg>