<svg xmlns="http://www.w3.org/2000/svg" viewBox="0 0 24 24"><line x1="5.37945" y1="18.12055" x2="3.5" y2="20" fill="none" stroke="#323232" stroke-linecap="round" stroke-linejoin="round" stroke-width="1.5"/><circle cx="7.5" cy="16" r="3" fill="none" stroke="#323232" stroke-linecap="round" stroke-linejoin="round" stroke-width="1.5"/><path d="M3,11V6.5A2.5,2.5,0,0,1,5.5,4h12A2.5,2.5,0,0,1,20,6.5v3" fill="none" stroke="#323232" stroke-linecap="round" stroke-linejoin="round" stroke-width="1.5"/><path d="M20,14.5v3A2.5,2.5,0,0,1,17.5,20H13" fill="none" stroke="#323232" stroke-linecap="round" stroke-linejoin="round" stroke-width="1.5"/><path d="M18.5,9.5H20a1,1,0,0,1,1,1v3a1,1,0,0,1-1,1H18.5A2.5,2.5,0,0,1,16,12v0a2.5,2.5,0,0,1,2.5-2.5Z" fill="none" stroke="#323232" stroke-linecap="round" stroke-linejoin="round" stroke-width="1.5"/></svg>