<svg xmlns="http://www.w3.org/2000/svg" viewBox="0 0 24 24"><rect width="24" height="24" fill="none"/><path d="M21,17V10.5a3,3,0,0,0-3-3H6a3,3,0,0,0-3,3V17" fill="none" stroke="#323232" stroke-linecap="round" stroke-linejoin="round" stroke-width="1.5"/><path d="M3,12H6.92963a2,2,0,0,1,1.6641.8906l.29687.4453A3.737,3.737,0,0,0,12,15h0a3.737,3.737,0,0,0,3.1094-1.6641l.29687-.4453A2,2,0,0,1,17.07037,12H21" fill="none" stroke="#323232" stroke-linecap="round" stroke-linejoin="round" stroke-width="1.5"/><rect x="3" y="3" width="18" height="18" rx="4" stroke-width="1.5" stroke="#323232" stroke-linecap="round" stroke-linejoin="round" fill="none"/></svg>