<svg xmlns="http://www.w3.org/2000/svg" viewBox="0 0 24 24"><path d="M18.5,9.5H20a1,1,0,0,1,1,1v3a1,1,0,0,1-1,1H18.5A2.5,2.5,0,0,1,16,12v0A2.5,2.5,0,0,1,18.5,9.5Z" fill="none" stroke="#323232" stroke-linecap="round" stroke-linejoin="round" stroke-width="1.5"/><path d="M20,9.5v-3A2.5,2.5,0,0,0,17.5,4H5.5A2.5,2.5,0,0,0,3,6.50025L3.00005,7.5" fill="none" stroke="#323232" stroke-linecap="round" stroke-linejoin="round" stroke-width="1.5"/><line x1="8" y1="12.00001" x2="3" y2="12" fill="none" stroke="#323232" stroke-linecap="round" stroke-linejoin="round" stroke-width="1.5"/><polyline points="5 14 3 12 5 10" fill="none" stroke="#323232" stroke-linecap="round" stroke-linejoin="round" stroke-width="1.5"/><path d="M20,14.5v3A2.5,2.5,0,0,1,17.5,20H5.5A2.5,2.5,0,0,1,3,17.49975L3.00005,16.5" fill="none" stroke="#323232" stroke-linecap="round" stroke-linejoin="round" stroke-width="1.5"/></svg>