<svg xmlns="http://www.w3.org/2000/svg" viewBox="0 0 24 24"><path d="M0,0H24V24H0Z" fill="none"/><path d="M0,0H24V24H0Z" fill="none"/><path d="M21,9.5v-3A2.5,2.5,0,0,0,18.5,4H5.5A2.5,2.5,0,0,0,3,6.5V9" fill="none" stroke="#323232" stroke-linecap="round" stroke-linejoin="round" stroke-width="1.5"/><path d="M19.5,9.5H21a1,1,0,0,1,1,1v3a1,1,0,0,1-1,1H19.5A2.5,2.5,0,0,1,17,12v0a2.5,2.5,0,0,1,2.5-2.5Z" fill="none" stroke="#323232" stroke-linecap="round" stroke-linejoin="round" stroke-width="1.5"/><rect x="3" y="12" width="7" height="4" rx="1.5" stroke-width="1.5" stroke="#323232" stroke-linecap="round" stroke-linejoin="round" fill="none"/><rect x="3" y="16" width="7" height="4" rx="1.5" stroke-width="1.5" stroke="#323232" stroke-linecap="round" stroke-linejoin="round" fill="none"/><path d="M21,14.5v3A2.5,2.5,0,0,1,18.5,20H13" fill="none" stroke="#323232" stroke-linecap="round" stroke-linejoin="round" stroke-width="1.5"/></svg>