<svg xmlns="http://www.w3.org/2000/svg" viewBox="0 0 24 24"><rect width="24" height="24" fill="none"/><path d="M20,16.5V19a2,2,0,0,1-2,2H5.5A2.5,2.5,0,0,1,3,18.5V5.5" fill="none" stroke="#323232" stroke-linecap="round" stroke-linejoin="round" stroke-width="1.5"/><path d="M18.5,11.5H20a1,1,0,0,1,1,1v3a1,1,0,0,1-1,1H18.5A2.5,2.5,0,0,1,16,14v0A2.5,2.5,0,0,1,18.5,11.5Z" fill="none" stroke="#323232" stroke-linecap="round" stroke-linejoin="round" stroke-width="1.5"/><path d="M8,4H4.5A1.5,1.5,0,0,0,3,5.5H3A1.5,1.5,0,0,0,4.5,7H18a2,2,0,0,1,2,2v2.5" fill="none" stroke="#323232" stroke-linecap="round" stroke-linejoin="round" stroke-width="1.5"/><path d="M8,7V4a2,2,0,0,1,2-2h6a2,2,0,0,1,2,2V7" fill="none" stroke="#323232" stroke-linecap="round" stroke-linejoin="round" stroke-width="1.5"/></svg>