<svg xmlns="http://www.w3.org/2000/svg" viewBox="0 0 24 24"><line x1="3" y1="12" x2="8" y2="12" fill="none" stroke="#323232" stroke-linecap="round" stroke-linejoin="round" stroke-width="1.5"/><polyline points="6 10 8 12 6 14" fill="none" stroke="#323232" stroke-linecap="round" stroke-linejoin="round" stroke-width="1.5"/><path d="M3,16v1.5A2.5,2.5,0,0,0,5.5,20h12A2.5,2.5,0,0,0,20,17.5v-3" fill="none" stroke="#323232" stroke-linecap="round" stroke-linejoin="round" stroke-width="1.5"/><path d="M18.5,9.5H20a1,1,0,0,1,1,1v3a1,1,0,0,1-1,1H18.5A2.5,2.5,0,0,1,16,12v0A2.5,2.5,0,0,1,18.5,9.5Z" fill="none" stroke="#323232" stroke-linecap="round" stroke-linejoin="round" stroke-width="1.5"/><path d="M20,9.5v-3A2.5,2.5,0,0,0,17.5,4H5.5A2.5,2.5,0,0,0,3,6.5V8" fill="none" stroke="#323232" stroke-linecap="round" stroke-linejoin="round" stroke-width="1.5"/></svg>