<svg xmlns="http://www.w3.org/2000/svg" viewBox="0 0 24 24"><path d="M15,21h3a3,3,0,0,0,3-3V6a3,3,0,0,0-3-3H7A3,3,0,0,0,4,6V8" fill="none" stroke="#323232" stroke-linecap="round" stroke-linejoin="round" stroke-width="1.5"/><path d="M12,17.75V19a2,2,0,0,1-2,2H4a2,2,0,0,1-2-2V13a2,2,0,0,1,2-2h6a2,2,0,0,1,2,2v1.25" fill="none" stroke="#323232" stroke-linecap="round" stroke-linejoin="round" stroke-width="1.5"/><path d="M11.25,14.25H12.5a.5.5,0,0,1,.5.5v2.5a.5.5,0,0,1-.5.5H11.25A1.75,1.75,0,0,1,9.5,16v0a1.75,1.75,0,0,1,1.75-1.75Z" fill="none" stroke="#323232" stroke-linecap="round" stroke-linejoin="round" stroke-width="1.5"/></svg>