<svg xmlns="http://www.w3.org/2000/svg" viewBox="0 0 24 24"><path d="M20,14.5v3A2.5,2.5,0,0,1,17.5,20H13" fill="none" stroke="#323232" stroke-linecap="round" stroke-linejoin="round" stroke-width="1.5"/><path d="M18.5,9.5H20a1,1,0,0,1,1,1v3a1,1,0,0,1-1,1H18.5A2.5,2.5,0,0,1,16,12v0A2.5,2.5,0,0,1,18.5,9.5Z" fill="none" stroke="#323232" stroke-linecap="round" stroke-linejoin="round" stroke-width="1.5"/><path d="M10.32978,14.17062l.00035.00036a2.29649,2.29649,0,0,1-.12267,3.35659L7.62221,19.76793a.95.95,0,0,1-1.24431,0L3.79245,17.52739a2.29623,2.29623,0,0,1-.12265-3.35622h0a2.2809,2.2809,0,0,1,3.10812-.11469l.22214.19223.22119-.19168A2.28029,2.28029,0,0,1,10.32978,14.17062Z" fill="none" stroke="#323232" stroke-linecap="round" stroke-linejoin="round" stroke-width="1.5"/><path d="M3,10.5v-4A2.5,2.5,0,0,1,5.5,4h12A2.5,2.5,0,0,1,20,6.5v3" fill="none" stroke="#323232" stroke-linecap="round" stroke-linejoin="round" stroke-width="1.5"/></svg>