<svg xmlns="http://www.w3.org/2000/svg" viewBox="0 0 24 24"><path d="M0,0H24V24H0Z" fill="none"/><path d="M17,18h1a3,3,0,0,0,3-3V6a3,3,0,0,0-3-3H6A3,3,0,0,0,3,6V16.15255" fill="none" stroke="#323232" stroke-linecap="round" stroke-linejoin="round" stroke-width="1.5"/><path d="M17,17.99867V9.10408a3,3,0,0,0-2.32547-2.92322L5.44972,4.05208A2,2,0,0,0,3,6.00087V16.15255a3,3,0,0,0,2.32542,2.92317l8,1.84616A3,3,0,0,0,17,17.99867Z" fill="none" stroke="#323232" stroke-linecap="round" stroke-linejoin="round" stroke-width="1.5"/></svg>