<svg id="Layer_3" data-name="Layer 3" xmlns="http://www.w3.org/2000/svg" viewBox="0 0 24 24"><path d="M24,24H0V0H24Z" fill="none"/><path d="M21,9.5v-3A2.5,2.5,0,0,0,18.5,4H5.5A2.5,2.5,0,0,0,3,6.5V8" fill="none" stroke="#323232" stroke-linecap="round" stroke-linejoin="round" stroke-width="1.5"/><path d="M21,14.5v3A2.5,2.5,0,0,1,18.5,20H13" fill="none" stroke="#323232" stroke-linecap="round" stroke-linejoin="round" stroke-width="1.5"/><path d="M2,12.6v6.8c.00114.88343,1.79086,1.6,4,1.6s3.99886-.71657,4-1.6V12.6" fill="none" stroke="#323232" stroke-linecap="round" stroke-linejoin="round" stroke-width="1.5"/><path d="M9.99886,12.6c0,.88343-1.79086,1.6-4,1.6S2,13.48343,2,12.6C2,11.71543,3.792,11,6,11s3.99886.71657,4,1.6" fill="none" stroke="#323232" stroke-linecap="round" stroke-linejoin="round" stroke-width="1.5"/><path d="M2.00057,16c0,.88343,1.78972,1.6,3.99886,1.6s4-.71657,4-1.6" fill="none" stroke="#323232" stroke-linecap="round" stroke-linejoin="round" stroke-width="1.5"/><path d="M18.5,9.5H21a1,1,0,0,1,1,1v3a1,1,0,0,1-1,1H18.5A2.5,2.5,0,0,1,16,12v0A2.5,2.5,0,0,1,18.5,9.5Z" fill="none" stroke="#323232" stroke-linecap="round" stroke-linejoin="round" stroke-width="1.5"/></svg>