<svg xmlns="http://www.w3.org/2000/svg" viewBox="0 0 24 24"><path d="M21,12V10.99988a3,3,0,0,0-3-3H6a3,3,0,0,0-3,3V13" fill="none" stroke="#323232" stroke-linecap="round" stroke-linejoin="round" stroke-width="1.5"/><path d="M21,13H16.73607a2,2,0,0,0-1.78886,1.10557l-.05278.10558A3.23609,3.23609,0,0,1,12,16h0a3.23609,3.23609,0,0,1-2.89443-1.78885l-.05278-.10558A2,2,0,0,0,7.26393,13H3" fill="none" stroke="#323232" stroke-linecap="round" stroke-linejoin="round" stroke-width="1.5"/><rect x="3" y="3" width="18" height="18" rx="4" stroke-width="1.5" stroke="#323232" stroke-linecap="round" stroke-linejoin="round" fill="none"/></svg>