<svg xmlns="http://www.w3.org/2000/svg" viewBox="0 0 24 24"><line x1="20.99999" y1="21" x2="2.99999" y2="21" fill="none" stroke="#323232" stroke-linecap="round" stroke-linejoin="round" stroke-width="1.5"/><path d="M7.5,6h9a.5.5,0,0,1,.5.5V11H7V6.5A.5.5,0,0,1,7.5,6Z" fill="none" stroke="#323232" stroke-linecap="round" stroke-linejoin="round" stroke-width="1.5"/><line x1="6.99999" y1="14" x2="12.99999" y2="14" fill="none" stroke="#323232" stroke-linecap="round" stroke-linejoin="round" stroke-width="1.5"/><path d="M20,21V6a3,3,0,0,0-3-3H7A3,3,0,0,0,4,6V21" fill="none" stroke="#323232" stroke-linecap="round" stroke-linejoin="round" stroke-width="1.5"/><path d="M12,14v2.5a.5.5,0,0,1-.5.5h-3a.5.5,0,0,1-.5-.5V14" fill="none" stroke="#323232" stroke-linecap="round" stroke-linejoin="round" stroke-width="1.5"/><line x1="16.99999" y1="14" x2="15.99999" y2="14" fill="none" stroke="#323232" stroke-linecap="round" stroke-linejoin="round" stroke-width="1.5"/></svg>