<svg xmlns="http://www.w3.org/2000/svg" viewBox="0 0 24 24"><path d="M7.90909,11h8.18182A.90909.90909,0,0,0,17,10.09091V9.92083a.90907.90907,0,0,0-.46745-.7946L13.32491,7.34345a2.72726,2.72726,0,0,0-2.64982,0L7.46745,9.12623A.90907.90907,0,0,0,7,9.92083v.17008A.90909.90909,0,0,0,7.90909,11Z" fill="none" stroke="#323232" stroke-linecap="round" stroke-linejoin="round" stroke-width="1.5"/><path d="M7,16H17" fill="none" stroke="#323232" stroke-linecap="round" stroke-linejoin="round" stroke-width="1.5"/><path d="M7.90909,16V11" fill="none" stroke="#323232" stroke-linecap="round" stroke-linejoin="round" stroke-width="1.5"/><path d="M16.09091,16V11" fill="none" stroke="#323232" stroke-linecap="round" stroke-linejoin="round" stroke-width="1.5"/><path d="M10.63636,16V11" fill="none" stroke="#323232" stroke-linecap="round" stroke-linejoin="round" stroke-width="1.5"/><path d="M13.36364,16V11" fill="none" stroke="#323232" stroke-linecap="round" stroke-linejoin="round" stroke-width="1.5"/><rect x="2.5" y="2.5" width="19" height="19" rx="9.49999" stroke-width="1.5" stroke="#323232" stroke-linecap="round" stroke-linejoin="round" fill="none"/><path d="M24,0H0V24H24Z" fill="none"/></svg>