<svg xmlns="http://www.w3.org/2000/svg" viewBox="0 0 24 24"><path d="M7,16H17" fill="none" stroke="#323232" stroke-linecap="round" stroke-linejoin="round" stroke-width="1.5"/><rect x="2.99999" y="3" width="18" height="18" rx="5" stroke-width="1.5" stroke="#323232" stroke-linecap="round" stroke-linejoin="round" fill="none"/><path d="M17,9.785V11a.5.5,0,0,1-.5.5h-9A.5.5,0,0,1,7,11V9.785a.5.5,0,0,1,.2571-.437l3.7713-2.09606a2,2,0,0,1,1.9432,0l3.7713,2.09606A.5.5,0,0,1,17,9.785Z" fill="none" stroke="#323232" stroke-linecap="round" stroke-linejoin="round" stroke-width="1.5"/><path d="M8,16V11.5" fill="none" stroke="#323232" stroke-linecap="round" stroke-linejoin="round" stroke-width="1.5"/><path d="M16,16V11.5" fill="none" stroke="#323232" stroke-linecap="round" stroke-linejoin="round" stroke-width="1.5"/><path d="M10.66665,16V11.5" fill="none" stroke="#323232" stroke-linecap="round" stroke-linejoin="round" stroke-width="1.5"/><path d="M13.33332,16V11.5" fill="none" stroke="#323232" stroke-linecap="round" stroke-linejoin="round" stroke-width="1.5"/></svg>