<?xml version="1.0" encoding="UTF-8"?><svg version="1.1" viewBox="0 0 24 24" xmlns="http://www.w3.org/2000/svg" xmlns:xlink="http://www.w3.org/1999/xlink"><g fill="none"><path d="M0 0h24v24h-24v-24Z"></path><path stroke="#323232" stroke-linecap="round" stroke-linejoin="round" stroke-width="1.5" d="M15.643 8.934v8.066"></path><path stroke="#323232" stroke-linecap="round" stroke-linejoin="round" stroke-width="1.5" d="M20 17v-8.066"></path><path stroke="#323232" stroke-linecap="round" stroke-linejoin="round" stroke-width="1.5" d="M14 20h8v-1l-1-2h-7"></path><path stroke="#323232" stroke-linecap="round" stroke-linejoin="round" stroke-width="1.5" d="M2 15.75v3.5c0 .966.784 1.75 1.75 1.75h5.25c.966 0 1.75-.784 1.75-1.75v-3.5c0-.966-.784-1.75-1.75-1.75h-5.25c-.966 0-1.75.784-1.75 1.75Z"></path><path stroke="#323232" stroke-linecap="round" stroke-linejoin="round" stroke-width="1.5" d="M10.75 17h-8.75"></path><polygon stroke="#323232" stroke-linecap="round" stroke-linejoin="round" stroke-width="1.5" points="4,8.934 22,8.934 22,5.928 13,2 4,5.928"></polygon></g></svg>