<svg xmlns="http://www.w3.org/2000/svg" viewBox="0 0 24 24"><path d="M7,15.25H17" fill="none" stroke="#323232" stroke-linecap="round" stroke-linejoin="round" stroke-width="1.5"/><path d="M17,9.035V10.25a.5.5,0,0,1-.5.5h-9a.5.5,0,0,1-.5-.5V9.035a.5.5,0,0,1,.2571-.437l3.7713-2.09606a2,2,0,0,1,1.9432,0l3.7713,2.09606A.5.5,0,0,1,17,9.035Z" fill="none" stroke="#323232" stroke-linecap="round" stroke-linejoin="round" stroke-width="1.5"/><path d="M8,15.25v-4.5" fill="none" stroke="#323232" stroke-linecap="round" stroke-linejoin="round" stroke-width="1.5"/><path d="M16,15.25v-4.5" fill="none" stroke="#323232" stroke-linecap="round" stroke-linejoin="round" stroke-width="1.5"/><path d="M10.66667,15.25v-4.5" fill="none" stroke="#323232" stroke-linecap="round" stroke-linejoin="round" stroke-width="1.5"/><path d="M13.33333,15.25v-4.5" fill="none" stroke="#323232" stroke-linecap="round" stroke-linejoin="round" stroke-width="1.5"/><path d="M18,19H14.5l-1.81034,1.72415a1,1,0,0,1-1.37933,0L9.5,19.00006,6,19A3,3,0,0,1,3,16V6A3,3,0,0,1,6,3H18a3,3,0,0,1,3,3V16A3,3,0,0,1,18,19Z" fill="none" stroke="#323232" stroke-linecap="round" stroke-linejoin="round" stroke-width="1.5"/></svg>