<svg xmlns="http://www.w3.org/2000/svg" viewBox="0 0 24 24"><path d="M24,0H0V24H24Z" fill="none"/><path d="M7.5,11h9a1,1,0,0,0,1-1V9.71292a1,1,0,0,0-.5142-.87407L13.4574,6.87779a3,3,0,0,0-2.9148,0L7.0142,8.83885A1,1,0,0,0,6.5,9.71292V10A1,1,0,0,0,7.5,11Z" fill="none" stroke="#323232" stroke-linecap="round" stroke-linejoin="round" stroke-width="1.5"/><path d="M6.5,16.5h11" fill="none" stroke="#323232" stroke-linecap="round" stroke-linejoin="round" stroke-width="1.5"/><rect x="3" y="3" width="18" height="18" rx="5" stroke-width="1.5" stroke="#323232" stroke-linecap="round" stroke-linejoin="round" fill="none"/><path d="M7.5,16.5V11" fill="none" stroke="#323232" stroke-linecap="round" stroke-linejoin="round" stroke-width="1.5"/><path d="M16.5,16.5V11" fill="none" stroke="#323232" stroke-linecap="round" stroke-linejoin="round" stroke-width="1.5"/><path d="M10.5,16.5V11" fill="none" stroke="#323232" stroke-linecap="round" stroke-linejoin="round" stroke-width="1.5"/><path d="M13.5,16.5V11" fill="none" stroke="#323232" stroke-linecap="round" stroke-linejoin="round" stroke-width="1.5"/></svg>