<svg xmlns="http://www.w3.org/2000/svg" viewBox="0 0 24 24"><path d="M15.4,12h4.1A2.5,2.5,0,0,0,22,9.5v-4A2.5,2.5,0,0,0,19.5,3H15.4A2.4,2.4,0,0,0,13,5.4V9.6A2.4,2.4,0,0,0,15.4,12Z" fill="none" stroke="#323232" stroke-linecap="round" stroke-linejoin="round" stroke-width="1.5"/><line x1="16.375" y1="6.375" x2="18.625" y2="8.625" fill="none" stroke="#323232" stroke-linecap="round" stroke-linejoin="round" stroke-width="1.5"/><line x1="16.375" y1="8.625" x2="18.625" y2="6.375" fill="none" stroke="#323232" stroke-linecap="round" stroke-linejoin="round" stroke-width="1.5"/><path d="M16,15v3a3,3,0,0,1-3,3H6a3,3,0,0,1-3-3V6A3,3,0,0,1,6,3h4" fill="none" stroke="#323232" stroke-linecap="round" stroke-linejoin="round" stroke-width="1.5"/><path d="M12,14.995l.005.005L12,15.005,11.995,15,12,14.995" fill="none" stroke="#323232" stroke-linecap="round" stroke-linejoin="round" stroke-width="1.5"/><path d="M9.5,14.995,9.505,15l-.005.005L9.495,15l.005-.005" fill="none" stroke="#323232" stroke-linecap="round" stroke-linejoin="round" stroke-width="1.5"/><path d="M7,14.995,7.005,15,7,15.005,6.995,15,7,14.995" fill="none" stroke="#323232" stroke-linecap="round" stroke-linejoin="round" stroke-width="1.5"/><path d="M12,17.495l.005.005L12,17.505l-.005-.005L12,17.495" fill="none" stroke="#323232" stroke-linecap="round" stroke-linejoin="round" stroke-width="1.5"/><path d="M9.5,17.495l.005.005-.005.005L9.495,17.5l.005-.005" fill="none" stroke="#323232" stroke-linecap="round" stroke-linejoin="round" stroke-width="1.5"/><path d="M7,17.495l.005.005L7,17.505,6.995,17.5,7,17.495" fill="none" stroke="#323232" stroke-linecap="round" stroke-linejoin="round" stroke-width="1.5"/><path d="M10,6H7A1,1,0,0,0,6,7v4a1,1,0,0,0,1,1h3" fill="none" stroke="#323232" stroke-linecap="round" stroke-linejoin="round" stroke-width="1.5"/></svg>