<svg xmlns="http://www.w3.org/2000/svg" viewBox="0 0 24 24"><path d="M7,15H6a3,3,0,0,1-3-3V5A3,3,0,0,1,6,2H18a3,3,0,0,1,3,3v7a3,3,0,0,1-3,3H17" fill="none" stroke="#323232" stroke-linecap="round" stroke-linejoin="round" stroke-width="1.5"/><path d="M3,17v1a3,3,0,0,0,3,3H18a3,3,0,0,0,3-3V17" fill="none" stroke="#323232" stroke-linecap="round" stroke-linejoin="round" stroke-width="1.5"/><line x1="21.00001" y1="6.99999" x2="3.00001" y2="6.99999" fill="none" stroke="#323232" stroke-linecap="round" stroke-linejoin="round" stroke-width="1.5"/><polyline points="10 15 12 13 14 15" fill="none" stroke="#323232" stroke-linecap="round" stroke-linejoin="round" stroke-width="1.5"/><line x1="12" y1="17.99999" x2="12.00001" y2="12.99999" fill="none" stroke="#323232" stroke-linecap="round" stroke-linejoin="round" stroke-width="1.5"/></svg>