<svg xmlns="http://www.w3.org/2000/svg" viewBox="0 0 24 24"><path d="M17,12h1.8A2.2,2.2,0,0,0,21,9.8V5.2A2.2,2.2,0,0,0,18.8,3H12.2A2.2,2.2,0,0,0,10,5.2V9" fill="none" stroke="#323232" stroke-linecap="round" stroke-linejoin="round" stroke-width="1.5"/><path d="M21,6.5H10" fill="none" stroke="#323232" stroke-linecap="round" stroke-linejoin="round" stroke-width="1.5"/><path d="M3,9V6A3,3,0,0,1,6,3H7" fill="none" stroke="#323232" stroke-linecap="round" stroke-linejoin="round" stroke-width="1.5"/><path d="M21,15v3a3,3,0,0,1-3,3H17" fill="none" stroke="#323232" stroke-linecap="round" stroke-linejoin="round" stroke-width="1.5"/><path d="M3,14.2v4.6A2.2,2.2,0,0,0,5.2,21h6.6A2.2,2.2,0,0,0,14,18.8V14.2A2.2,2.2,0,0,0,11.8,12H5.2A2.2,2.2,0,0,0,3,14.2Z" fill="none" stroke="#323232" stroke-linecap="round" stroke-linejoin="round" stroke-width="1.5"/><line x1="6.99999" y1="16.5" x2="9.99999" y2="16.5" fill="none" stroke="#323232" stroke-linecap="round" stroke-linejoin="round" stroke-width="1.5"/><line x1="8.49999" y1="18" x2="8.49999" y2="15" fill="none" stroke="#323232" stroke-linecap="round" stroke-linejoin="round" stroke-width="1.5"/></svg>