<?xml version="1.0" encoding="UTF-8"?><svg version="1.1" viewBox="0 0 24 24" xmlns="http://www.w3.org/2000/svg" xmlns:xlink="http://www.w3.org/1999/xlink"><!--Generated by IJSVG (https://github.com/iconjar/IJSVG)--><g stroke-linecap="round" stroke-width="1.5" stroke="#323232" fill="none" stroke-linejoin="round"><path d="M9.996,6.6h-4.201c-0.991,0 -1.795,0.804 -1.795,1.795v10.811c0,0.99 0.804,1.794 1.795,1.794h7.147c0.991,0 1.795,-0.804 1.795,-1.795v-0.763"></path><path d="M9.295,16.976l6.509,1.754c1.069,0.288 2.168,-0.347 2.453,-1.416l2.676,-10.044c0.282,-1.06 -0.353,-2.16 -1.412,-2.446l-6.509,-1.754c-1.069,-0.288 -2.168,0.347 -2.453,1.416l-2.676,10.044c-0.283,1.065 0.348,2.159 1.412,2.446Z"></path><path d="M11.4,17.54l3.72,-13.9"></path></g><path fill="none" d="M0,0h24v24h-24Z"></path></svg>