<svg xmlns="http://www.w3.org/2000/svg" viewBox="0 0 24 24"><path d="M21,15v3a3,3,0,0,1-3,3h0" fill="none" stroke="#323232" stroke-linecap="round" stroke-linejoin="round" stroke-width="1.5"/><path d="M3,10V6A3,3,0,0,1,6,3H7" fill="none" stroke="#323232" stroke-linecap="round" stroke-linejoin="round" stroke-width="1.5"/><path d="M5.995,17,6,17.005,6.005,17,6,16.995,5.995,17" fill="none" stroke="#323232" stroke-linecap="round" stroke-linejoin="round" stroke-width="1.5"/><path d="M8.995,17,9,17.005,9.005,17,9,16.995,8.995,17" fill="none" stroke="#323232" stroke-linecap="round" stroke-linejoin="round" stroke-width="1.5"/><path d="M11.995,17l.005.005L12.005,17,12,16.995,11.995,17" fill="none" stroke="#323232" stroke-linecap="round" stroke-linejoin="round" stroke-width="1.5"/><rect x="3" y="13" width="12" height="8" rx="2" stroke-width="1.5" stroke="#323232" stroke-linecap="round" stroke-linejoin="round" fill="none"/><path d="M17,12h1.75A2.25,2.25,0,0,0,21,9.75V5.25A2.25,2.25,0,0,0,18.75,3h-6.5A2.25,2.25,0,0,0,10,5.25V9.8" fill="none" stroke="#323232" stroke-linecap="round" stroke-linejoin="round" stroke-width="1.5"/><path d="M21,7.10991,10,7.11" fill="none" stroke="#323232" stroke-linecap="round" stroke-linejoin="round" stroke-width="1.5"/></svg>