<svg xmlns="http://www.w3.org/2000/svg" viewBox="0 0 24 24"><line x1="7.70571" y1="14.29427" x2="17.29427" y2="4.70572" fill="none" stroke="#323232" stroke-linecap="round" stroke-linejoin="round" stroke-width="1.5"/><path d="M5,15H19a2,2,0,0,1,2,2v3a1,1,0,0,1-1,1H4a1,1,0,0,1-1-1V17A2,2,0,0,1,5,15Z" fill="none" stroke="#323232" stroke-linecap="round" stroke-linejoin="round" stroke-width="1.5"/><line x1="3.99999" y1="3" x2="6.99999" y2="3" fill="none" stroke="#323232" stroke-linecap="round" stroke-linejoin="round" stroke-width="1.5"/><line x1="3.99999" y1="6" x2="4.99999" y2="6" fill="none" stroke="#323232" stroke-linecap="round" stroke-linejoin="round" stroke-width="1.5"/><path d="M16.67078,15l3.53039-3.5304a2.72725,2.72725,0,0,0,0-3.85693l-3.81384-3.8139a2.72725,2.72725,0,0,0-3.85693,0L6.79877,9.5304a2.72725,2.72725,0,0,0,0,3.85693L8.41144,15" fill="none" stroke="#323232" stroke-linecap="round" stroke-linejoin="round" stroke-width="1.5"/></svg>