<svg xmlns="http://www.w3.org/2000/svg" viewBox="0 0 24 24"><line x1="4" y1="9" x2="2" y2="9" fill="none" stroke="#323232" stroke-linecap="round" stroke-linejoin="round" stroke-width="1.5"/><line x1="4" y1="15" x2="2" y2="15" fill="none" stroke="#323232" stroke-linecap="round" stroke-linejoin="round" stroke-width="1.5"/><line x1="4" y1="12" x2="2" y2="12" fill="none" stroke="#323232" stroke-linecap="round" stroke-linejoin="round" stroke-width="1.5"/><line x1="16.78673" y1="11.5" x2="7.51325" y2="11.5" fill="none" stroke="#323232" stroke-linecap="round" stroke-linejoin="round" stroke-width="1.5"/><path d="M9.90133,8.5h5.09734a2,2,0,0,1,1.91566,2.57469l-.90053,3.00164A1.998,1.998,0,0,1,14.09864,15.5H9.0013a2,2,0,0,1-1.91565-2.57471l.9-3A2,2,0,0,1,9.90133,8.5Z" fill="none" stroke="#323232" stroke-linecap="round" stroke-linejoin="round" stroke-width="1.5"/><path d="M4.63721,6a9.5,9.5,0,1,1,0,12" fill="none" stroke="#323232" stroke-linecap="round" stroke-linejoin="round" stroke-width="1.5"/></svg>