<svg xmlns="http://www.w3.org/2000/svg" viewBox="0 0 24 24"><rect x="3" y="4" width="18" height="15" rx="3" stroke-width="1.5" stroke="#323232" stroke-linecap="round" stroke-linejoin="round" fill="none"/><path d="M12,14.5a4.3521,4.3521,0,0,1-3.7405-2.06431h0a1.81668,1.81668,0,0,1,0-1.87138h0A4.3521,4.3521,0,0,1,12,8.5" fill="none" stroke="#323232" stroke-linecap="round" stroke-linejoin="round" stroke-width="1.5"/><path d="M12,8.5a4.3521,4.3521,0,0,1,3.7405,2.06431h0a1.81668,1.81668,0,0,1,0,1.87138h0A4.3521,4.3521,0,0,1,12,14.5" fill="none" stroke="#323232" stroke-linecap="round" stroke-linejoin="round" stroke-width="1.5"/><path d="M12,11.5l-.005.005L11.99,11.5l.005-.005L12,11.5" fill="none" stroke="#323232" stroke-linecap="round" stroke-linejoin="round" stroke-width="1.5"/></svg>