<svg xmlns="http://www.w3.org/2000/svg" viewBox="0 0 24 24"><path d="M11.5,19H6a3,3,0,0,1-3-3V7A3,3,0,0,1,6,4H18a3,3,0,0,1,3,3v4" fill="none" stroke="#323232" stroke-linecap="round" stroke-linejoin="round" stroke-width="1.5"/><line x1="21" y1="9.03555" x2="3" y2="9.03555" fill="none" stroke="#323232" stroke-linecap="round" stroke-linejoin="round" stroke-width="1.5"/><path d="M17.62263,14.52019a1,1,0,0,1,1.75474,0l.60272,1.10215a.99993.99993,0,0,0,.39757.39757l1.10215.60272a1,1,0,0,1,0,1.75474l-1.10215.60272a.99993.99993,0,0,0-.39757.39757l-.60272,1.10215a1,1,0,0,1-1.75474,0l-.60272-1.10215a.99993.99993,0,0,0-.39757-.39757l-1.10215-.60272a1,1,0,0,1,0-1.75474l1.10215-.60272a.99993.99993,0,0,0,.39757-.39757Z" fill="none" stroke="#323232" stroke-linecap="round" stroke-linejoin="round" stroke-width="1.5"/></svg>