<?xml version="1.0" encoding="UTF-8"?><svg version="1.1" viewBox="0 0 24 24" xmlns="http://www.w3.org/2000/svg" xmlns:xlink="http://www.w3.org/1999/xlink"><!--Generated by IJSVG (https://github.com/iconjar/IJSVG)--><g stroke-linecap="round" stroke-width="1.5" stroke="#323232" fill="none" stroke-linejoin="round"><path d="M5.636,5.636c3.515,-3.515 9.213,-3.515 12.728,0c3.515,3.514 3.514,9.213 0,12.728c-3.514,3.515 -9.213,3.514 -12.728,0c-3.515,-3.514 -3.515,-9.213 -8.88178e-16,-12.728"></path><path d="M16,8h-5.442c-0.552,0 -1,0.448 -1,1v3.279c0,0.514 0.416,0.93 0.93,0.93h5.512c0.552,0 1,-0.448 1,-1v-3.209c0,-0.552 -0.448,-1 -1,-1Z"></path><path d="M14.443,13.209v1.791c0,0.552 -0.448,1 -1,1h-5.443c-0.552,0 -1,-0.448 -1,-1v-3.442c0,-0.552 0.448,-1 1,-1h1.558"></path></g><path fill="none" d="M24,24h-24v-24h24v24Z"></path></svg>