<?xml version="1.0" encoding="UTF-8"?><svg version="1.1" viewBox="0 0 24 24" xmlns="http://www.w3.org/2000/svg" xmlns:xlink="http://www.w3.org/1999/xlink"><!--Generated by IJSVG (https://github.com/iconjar/IJSVG)--><g stroke-linecap="round" stroke-width="1.5" stroke="#323232" fill="none" stroke-linejoin="round"><path d="M3,8h18"></path><path d="M18.694,12.605l3.046,5.414c0.75,1.333 -0.213,2.981 -1.743,2.981h-6.091c-1.53,0 -2.493,-1.647 -1.743,-2.981l3.046,-5.414c0.763,-1.36 2.72,-1.36 3.485,1.77636e-15Z"></path><path d="M16.951,16.42v-1.835"></path><path d="M16.95,18.444c-0.05,0 -0.091,0.041 -0.09,0.091c0,0.05 0.041,0.091 0.091,0.091c0.05,0 0.09,-0.041 0.09,-0.091c0,-0.05 -0.04,-0.091 -0.091,-0.091"></path><path d="M9.5,12h-2.5"></path><path d="M9,18h-3c-1.657,0 -3,-1.343 -3,-3v-8c0,-1.657 1.343,-3 3,-3h12c1.657,0 3,1.343 3,3v4"></path></g><path fill="none" d="M0,0h24v24h-24v-24Z"></path></svg>