<?xml version="1.0" encoding="UTF-8"?><svg version="1.1" viewBox="0 0 24 24" xmlns="http://www.w3.org/2000/svg" xmlns:xlink="http://www.w3.org/1999/xlink"><!--Generated by IJSVG (https://github.com/iconjar/IJSVG)--><g stroke-linecap="round" stroke-width="1.5" stroke="#323232" fill="none" stroke-linejoin="round"><path d="M3,8h18"></path><path d="M7,12.91h3"></path><path d="M11,17h-6c-1.105,0 -2,-0.895 -2,-2v-9c0,-1.105 0.895,-2 2,-2h14c1.105,0 2,0.895 2,2v5"></path><path d="M20.121,14.879c1.172,1.172 1.172,3.071 0,4.243c-1.172,1.172 -3.071,1.172 -4.243,0c-1.172,-1.172 -1.172,-3.071 0,-4.243c1.172,-1.172 3.072,-1.172 4.243,0"></path><path d="M22,21l-1.879,-1.878"></path></g><path fill="none" d="M0,0h24v24h-24v-24Z"></path></svg>