<?xml version="1.0" encoding="UTF-8"?><svg version="1.1" viewBox="0 0 24 24" xmlns="http://www.w3.org/2000/svg" xmlns:xlink="http://www.w3.org/1999/xlink"><!--Generated by IJSVG (https://github.com/iconjar/IJSVG)--><g fill="none"><path d="M0,0h24v24h-24Z"></path><path stroke="#323232" stroke-linecap="round" stroke-linejoin="round" stroke-width="1.5" d="M14,15v4.129c0,1.033 -0.838,1.871 -1.871,1.871h-7.258c-1.033,0 -1.871,-0.838 -1.871,-1.871v-14.258c0,-1.033 0.838,-1.871 1.871,-1.871h7.257c1.034,0 1.872,0.838 1.872,1.871v2.129"></path><path stroke="#323232" stroke-linecap="round" stroke-linejoin="round" stroke-width="1.5" d="M6.3,18.5h4.4"></path><path stroke="#323232" stroke-linecap="round" stroke-linejoin="round" stroke-width="1.5" d="M10.333,7h9.333c0.737,0 1.334,0.597 1.334,1.333v5.333c0,0.737 -0.597,1.334 -1.333,1.334h-9.333c-0.737,0 -1.334,-0.597 -1.334,-1.333v-5.334c0,-0.736 0.597,-1.333 1.333,-1.333Z"></path><path stroke="#323232" stroke-linecap="round" stroke-linejoin="round" stroke-width="1.5" d="M9,10h12"></path></g></svg>