<?xml version="1.0" encoding="UTF-8"?><svg version="1.1" viewBox="0 0 24 24" xmlns="http://www.w3.org/2000/svg" xmlns:xlink="http://www.w3.org/1999/xlink"><!--Generated by IJSVG (https://github.com/iconjar/IJSVG)--><g stroke-linecap="round" stroke-width="1.5" stroke="#323232" fill="none" stroke-linejoin="round"><path d="M17,21c-2.761,0 -5,-2.239 -5,-5c0,-2.761 2.239,-5 5,-5c2.762,0 5,2.239 5,5c0,2.761 -2.238,5 -5,5"></path><path d="M15.25,17.75l3.5,-3.5"></path><path d="M2,6.85h19"></path><path d="M21,13v-8c0,-1.105 -0.895,-2 -2,-2h-15c-1.105,0 -2,0.895 -2,2v9c0,1.105 0.895,2 2,2h8"></path><path d="M18.9084,17.6276c0.0781049,0.0781049 0.0781049,0.204738 0,0.282843c-0.0781049,0.0781049 -0.204738,0.0781049 -0.282843,0c-0.0781049,-0.0781049 -0.0781049,-0.204738 0,-0.282843c0.0781049,-0.0781049 0.204738,-0.0781049 0.282843,0"></path><path d="M15.3754,14.0896c0.0781049,0.0781049 0.0781049,0.204738 0,0.282843c-0.0781049,0.0781049 -0.204738,0.0781049 -0.282843,0c-0.0781049,-0.0781049 -0.0781049,-0.204738 0,-0.282843c0.0781049,-0.0781049 0.204738,-0.0781049 0.282843,0"></path></g><path fill="none" d="M0,0h24v24h-24Z"></path></svg>