<svg xmlns="http://www.w3.org/2000/svg" viewBox="0 0 24 24"><path d="M7,12H5.25A2.25,2.25,0,0,0,3,14.25v4.5A2.25,2.25,0,0,0,5.25,21h6.5A2.25,2.25,0,0,0,14,18.75V15" fill="none" stroke="#323232" stroke-linecap="round" stroke-linejoin="round" stroke-width="1.5"/><path d="M21,15v3a3,3,0,0,1-3,3H17" fill="none" stroke="#323232" stroke-linecap="round" stroke-linejoin="round" stroke-width="1.5"/><path d="M3,9V6A3,3,0,0,1,6,3H7" fill="none" stroke="#323232" stroke-linecap="round" stroke-linejoin="round" stroke-width="1.5"/><path d="M10,5.2V9.8A2.2,2.2,0,0,0,12.2,12h6.6A2.2,2.2,0,0,0,21,9.8V5.2A2.2,2.2,0,0,0,18.8,3H12.2A2.2,2.2,0,0,0,10,5.2Z" fill="none" stroke="#323232" stroke-linecap="round" stroke-linejoin="round" stroke-width="1.5"/><path d="M21,6.9999,10,7" fill="none" stroke="#323232" stroke-linecap="round" stroke-linejoin="round" stroke-width="1.5"/><line x1="7.25" y1="15.25" x2="9.75" y2="17.75" fill="none" stroke="#323232" stroke-linecap="round" stroke-linejoin="round" stroke-width="1.5"/><line x1="7.25" y1="17.75" x2="9.75" y2="15.25" fill="none" stroke="#323232" stroke-linecap="round" stroke-linejoin="round" stroke-width="1.5"/></svg>