<?xml version="1.0" encoding="UTF-8"?><svg version="1.1" viewBox="0 0 24 24" xmlns="http://www.w3.org/2000/svg" xmlns:xlink="http://www.w3.org/1999/xlink"><g fill="none"><path d="M0 0h24v24h-24v-24Z"></path><path stroke="#323232" stroke-linecap="round" stroke-linejoin="round" stroke-width="1.5" d="M15.997 3h3.286c.947 0 1.714.767 1.714 1.714v3.286"></path><path stroke="#323232" stroke-linecap="round" stroke-linejoin="round" stroke-width="1.5" d="M8 21h-3.286c-.947 0-1.714-.767-1.714-1.714v-3.286"></path><path stroke="#323232" stroke-linecap="round" stroke-linejoin="round" stroke-width="1.5" d="M2 5v4c0 1.105.895 2 2 2h6c1.105 0 2-.895 2-2v-4c0-1.105-.895-2-2-2h-6c-1.105 0-2 .895-2 2Z"></path><path stroke="#323232" stroke-linecap="round" stroke-linejoin="round" stroke-width="1.5" d="M12 6h-10"></path><path stroke="#323232" stroke-linecap="round" stroke-linejoin="round" stroke-width="1.5" d="M17.393 15.983v1.758l1.382.843"></path><path stroke="#323232" stroke-width="1.5" d="M17.5 22c-2.485 0-4.5-2.014-4.5-4.5 0-2.434 2.07-4.503 4.504-4.5 2.484.002 4.496 2.016 4.496 4.5 0 2.485-2.014 4.5-4.5 4.5"></path></g></svg>