<svg xmlns="http://www.w3.org/2000/svg" viewBox="0 0 24 24"><line x1="12.07362" y1="6" x2="12.07362" y2="5.5" fill="none" stroke="#323232" stroke-linecap="round" stroke-linejoin="round" stroke-width="1.5"/><line x1="15.25" y1="7" x2="15.75" y2="6.5" fill="none" stroke="#323232" stroke-linecap="round" stroke-linejoin="round" stroke-width="1.5"/><line x1="9" y1="7" x2="8.5" y2="6.5" fill="none" stroke="#323232" stroke-linecap="round" stroke-linejoin="round" stroke-width="1.5"/><line x1="7" y1="13" x2="17" y2="13" fill="none" stroke="#323232" stroke-linecap="round" stroke-linejoin="round" stroke-width="1.5"/><path d="M21,7.5v9.004A4.49609,4.49609,0,0,1,16.504,21H7.495A4.49588,4.49588,0,0,1,3,16.504V7.496A4.49609,4.49609,0,0,1,7.496,3H16.5A4.50036,4.50036,0,0,1,21,7.5Z" fill="none" stroke="#323232" stroke-linecap="round" stroke-linejoin="round" stroke-width="1.5"/><rect x="7" y="9.5" width="10" height="8" rx="2" stroke-width="1.5" stroke="#323232" stroke-linecap="round" stroke-linejoin="round" fill="none"/><path d="M0,0H24V24H0Z" fill="none"/></svg>