<svg xmlns="http://www.w3.org/2000/svg" viewBox="0 0 24 24"><path d="M3.0992,8.94458v-1a4,4,0,0,1,4-4h0" fill="none" stroke="#323232" stroke-linecap="round" stroke-linejoin="round" stroke-width="1.5"/><path d="M21.0992,14.94458v1a4,4,0,0,1-4,4h0" fill="none" stroke="#323232" stroke-linecap="round" stroke-linejoin="round" stroke-width="1.5"/><path d="M3,14.25v4.5A2.25,2.25,0,0,0,5.25,21h6.5A2.25,2.25,0,0,0,14,18.75v-4.5A2.25,2.25,0,0,0,11.75,12H5.25A2.25,2.25,0,0,0,3,14.25Z" fill="none" stroke="#323232" stroke-linecap="round" stroke-linejoin="round" stroke-width="1.5"/><path d="M14,15.5H3" fill="none" stroke="#323232" stroke-linecap="round" stroke-linejoin="round" stroke-width="1.5"/><path d="M17.0992,12H18.75A2.25,2.25,0,0,0,21,9.75V5.25A2.25,2.25,0,0,0,18.75,3h-6.5A2.25,2.25,0,0,0,10,5.25V8.94458" fill="none" stroke="#323232" stroke-linecap="round" stroke-linejoin="round" stroke-width="1.5"/><path d="M21,6.5H10" fill="none" stroke="#323232" stroke-linecap="round" stroke-linejoin="round" stroke-width="1.5"/><rect width="24" height="24" fill="none"/></svg>