<svg xmlns="http://www.w3.org/2000/svg" viewBox="0 0 24 24"><polyline points="14 17 12 19 10 17" fill="none" stroke="#323232" stroke-linecap="round" stroke-linejoin="round" stroke-width="1.5"/><line x1="12" y1="14" x2="11.99999" y2="19" fill="none" stroke="#323232" stroke-linecap="round" stroke-linejoin="round" stroke-width="1.5"/><path d="M8,15H6a3,3,0,0,1-3-3V5A3,3,0,0,1,6,2H18a3,3,0,0,1,3,3v7a3,3,0,0,1-3,3H16" fill="none" stroke="#323232" stroke-linecap="round" stroke-linejoin="round" stroke-width="1.5"/><path d="M3,17v2a3,3,0,0,0,3,3H18a3,3,0,0,0,3-3V17" fill="none" stroke="#323232" stroke-linecap="round" stroke-linejoin="round" stroke-width="1.5"/><line x1="20.99999" y1="7" x2="2.99999" y2="7" fill="none" stroke="#323232" stroke-linecap="round" stroke-linejoin="round" stroke-width="1.5"/></svg>