<svg xmlns="http://www.w3.org/2000/svg" viewBox="0 0 24 24"><path d="M12.75,16.5H9.25A2.25,2.25,0,0,1,7,14.25V9.75A2.25,2.25,0,0,1,9.25,7.5h5.5A2.25,2.25,0,0,1,17,9.75V12" fill="none" stroke="#323232" stroke-linecap="round" stroke-linejoin="round" stroke-width="1.5"/><path d="M20.04975,14.29287a1,1,0,0,0-1.41416,0l-2.84268,2.84268a1.00007,1.00007,0,0,0-.29291.70716V19.75a.25.25,0,0,0,.25.25h1.90727a1,1,0,0,0,.70715-.29291l2.84269-2.84269a1,1,0,0,0,0-1.41422Z" fill="none" stroke="#323232" stroke-linecap="round" stroke-linejoin="round" stroke-width="1.5"/><line x1="17" y1="11" x2="7" y2="11" fill="none" stroke="#323232" stroke-linecap="round" stroke-linejoin="round" stroke-width="1.5"/><path d="M21.44653,10.5A9.49967,9.49967,0,1,0,12,21" fill="none" stroke="#323232" stroke-linecap="round" stroke-linejoin="round" stroke-width="1.5"/></svg>