<svg xmlns="http://www.w3.org/2000/svg" viewBox="0 0 24 24"><line x1="16.71174" y1="11.75002" x2="7.43826" y2="11.75002" fill="none" stroke="#323232" stroke-linecap="round" stroke-linejoin="round" stroke-width="1.5"/><path d="M9.90134,8.5h5.09735a2,2,0,0,1,1.91565,2.57469l-.90052,3.00164A1.998,1.998,0,0,1,14.09865,15.5H9.00131a2,2,0,0,1-1.91565-2.57471l.9-3A2,2,0,0,1,9.90134,8.5Z" fill="none" stroke="#323232" stroke-linecap="round" stroke-linejoin="round" stroke-width="1.5"/><path d="M7.12132,20.12132,3.87868,16.87868A3,3,0,0,1,3,14.75736V9.24364a3,3,0,0,1,.87868-2.12132L7.12232,3.87868A3,3,0,0,1,9.24364,3h5.51272a3,3,0,0,1,2.12132.87868l3.24364,3.24364A3,3,0,0,1,21,9.24364v5.51372a3,3,0,0,1-.87835,2.121L16.88,20.121A3,3,0,0,1,14.75836,21H9.24264A3,3,0,0,1,7.12132,20.12132Z" fill="none" stroke="#323232" stroke-linecap="round" stroke-linejoin="round" stroke-width="1.5"/></svg>