<svg id="Layer_3" data-name="Layer 3" xmlns="http://www.w3.org/2000/svg" viewBox="0 0 24 24"><rect width="24" height="24" fill="none"/><rect x="16" y="18" width="6" height="4" rx="1.25" stroke-width="1.5" stroke="#323232" stroke-linecap="round" stroke-linejoin="round" fill="none"/><path d="M17.25,18V16.75A1.75,1.75,0,0,1,19,15h0a1.75,1.75,0,0,1,1.75,1.75V18" fill="none" stroke="#323232" stroke-linecap="round" stroke-linejoin="round" stroke-width="1.5"/><path d="M8.25,9.5v3A1.5,1.5,0,0,0,9.75,14h4.5a1.5,1.5,0,0,0,1.5-1.5v-3A1.5,1.5,0,0,0,14.25,8H9.75A1.5,1.5,0,0,0,8.25,9.5Z" fill="none" stroke="#323232" stroke-linecap="round" stroke-linejoin="round" stroke-width="1.5"/><path d="M15.75,10.5H8.25" fill="none" stroke="#323232" stroke-linecap="round" stroke-linejoin="round" stroke-width="1.5"/><path d="M12,20a9,9,0,1,1,9-9" fill="none" stroke="#323232" stroke-linecap="round" stroke-linejoin="round" stroke-width="1.5"/></svg>