<svg xmlns="http://www.w3.org/2000/svg" viewBox="0 0 24 24"><line x1="7.5" y1="14.99999" x2="8.5" y2="14.99999" fill="none" stroke="#323232" stroke-linecap="round" stroke-linejoin="round" stroke-width="1.5"/><path d="M18,20H6a3,3,0,0,1-3-3V8A3,3,0,0,1,6,5H18a3,3,0,0,1,3,3v9A3,3,0,0,1,18,20Z" fill="none" stroke="#323232" stroke-linecap="round" stroke-linejoin="round" stroke-width="1.5"/><path d="M15.279,10.2929l.9281.9281a1.00006,1.00006,0,0,1,0,1.41427l-2.07183,2.07182A1,1,0,0,1,13.42814,15H11.75a.25.25,0,0,1-.25-.25V13.07186a1,1,0,0,1,.29291-.70713l2.07182-2.07183A1.00006,1.00006,0,0,1,15.279,10.2929Z" fill="none" stroke="#323232" stroke-linecap="round" stroke-linejoin="round" stroke-width="1.5"/><rect width="24" height="24" fill="none"/></svg>