<svg xmlns="http://www.w3.org/2000/svg" viewBox="0 0 24 24"><path d="M24,24H0V0H24Z" fill="none"/><path d="M13.903,16l5.0112-5.01117a2,2,0,0,0,0-2.82842L14.33959,3.58578a2,2,0,0,0-2.82842,0L5.08578,10.01117a2,2,0,0,0,0,2.82843L8.24622,16" fill="none" stroke="#323232" stroke-linecap="round" stroke-linejoin="round" stroke-width="1.5"/><line x1="6.58864" y1="14.34245" x2="15.84245" y2="5.08864" fill="none" stroke="#323232" stroke-linecap="round" stroke-linejoin="round" stroke-width="1.5"/><path d="M5,16H19a2,2,0,0,1,2,2v2a1,1,0,0,1-1,1H4a1,1,0,0,1-1-1V18A2,2,0,0,1,5,16Z" fill="none" stroke="#323232" stroke-linecap="round" stroke-linejoin="round" stroke-width="1.5"/></svg>