<?xml version="1.0" encoding="UTF-8"?><svg version="1.1" viewBox="0 0 24 24" xmlns="http://www.w3.org/2000/svg" xmlns:xlink="http://www.w3.org/1999/xlink"><g fill="none"><path d="M0 0h24v24h-24v-24Z"></path><path stroke="#323232" stroke-linecap="round" stroke-linejoin="round" stroke-width="1.5" d="M16 3h3.286c.947 0 1.714.767 1.714 1.714v3.286"></path><path stroke="#323232" stroke-linecap="round" stroke-linejoin="round" stroke-width="1.5" d="M8 21h-3.286c-.947 0-1.714-.767-1.714-1.714v-3.286"></path><path stroke="#323232" stroke-linecap="round" stroke-linejoin="round" stroke-width="1.5" d="M18.694 12.605l3.046 5.413c.75 1.334-.213 2.982-1.744 2.982h-6.091c-1.53 0-2.493-1.648-1.743-2.981l3.046-5.414c.765-1.359 2.722-1.359 3.486 1.77636e-15Z"></path><path stroke="#323232" stroke-linecap="round" stroke-linejoin="round" stroke-width="1.5" d="M16.951 16.42v-1.835"></path><path stroke="#323232" stroke-linecap="round" stroke-linejoin="round" stroke-width="1.5" d="M16.95 18.445c-.05 0-.091.041-.09.091 0 .05.041.091.091.091 .05 0 .091-.041.091-.091 0-.05-.041-.091-.092-.091"></path><path stroke="#323232" stroke-linecap="round" stroke-linejoin="round" stroke-width="1.5" d="M2 5v4c0 1.105.895 2 2 2h6c1.105 0 2-.895 2-2v-4c0-1.105-.895-2-2-2h-6c-1.105 0-2 .895-2 2Z"></path><path stroke="#323232" stroke-linecap="round" stroke-linejoin="round" stroke-width="1.5" d="M12 6h-10"></path></g></svg>