<?xml version="1.0" encoding="UTF-8"?><svg version="1.1" viewBox="0 0 24 24" xmlns="http://www.w3.org/2000/svg" xmlns:xlink="http://www.w3.org/1999/xlink"><!--Generated by IJSVG (https://github.com/iconjar/IJSVG)--><g stroke-linecap="round" stroke-width="1.5" stroke="#323232" fill="none" stroke-linejoin="round"><path d="M12.6898,9.64321c1.30162,1.30162 1.30162,3.41196 0,4.71357c-1.30162,1.30162 -3.41196,1.30162 -4.71357,1.77636e-15c-1.30162,-1.30162 -1.30162,-3.41196 -1.77636e-15,-4.71357c1.30162,-1.30162 3.41196,-1.30162 4.71357,-1.77636e-15"></path><path d="M16.0238,9.64321c1.30162,1.30162 1.30162,3.41196 0,4.71357c-1.30162,1.30162 -3.41196,1.30162 -4.71357,1.77636e-15c-1.30162,-1.30162 -1.30162,-3.41196 -1.77636e-15,-4.71357c1.30162,-1.30162 3.41196,-1.30162 4.71357,-1.77636e-15"></path><path d="M19,19h-14c-1.657,0 -3,-1.343 -3,-3v-8c0,-1.657 1.343,-3 3,-3h14c1.657,0 3,1.343 3,3v8c0,1.657 -1.343,3 -3,3Z"></path></g><path fill="none" d="M0,0h24v24h-24Z"></path></svg>