<svg xmlns="http://www.w3.org/2000/svg" viewBox="0 0 24 24"><path d="M15,20h3a3,3,0,0,0,3-3V8a3,3,0,0,0-3-3H6A3,3,0,0,0,3,8v8" fill="none" stroke="#323232" stroke-linecap="round" stroke-linejoin="round" stroke-width="1.5"/><path d="M12.70763,17.63464l-2.07246,2.07247A1,1,0,0,1,9.92806,20H8.25A.25.25,0,0,1,8,19.75V18.07185a1,1,0,0,1,.29279-.707L10.364,15.293a.99994.99994,0,0,1,1.41437-.00012l.9284.9284A.99919.99919,0,0,1,12.70763,17.63464Z" fill="none" stroke="#323232" stroke-linecap="round" stroke-linejoin="round" stroke-width="1.5"/><line x1="2.99999" y1="19.99998" x2="4.99999" y2="19.99998" fill="none" stroke="#323232" stroke-linecap="round" stroke-linejoin="round" stroke-width="1.5"/><line x1="20.99999" y1="10" x2="2.99999" y2="10" fill="none" stroke="#323232" stroke-linecap="round" stroke-linejoin="round" stroke-width="1.5"/></svg>