<svg xmlns="http://www.w3.org/2000/svg" viewBox="0 0 24 24"><path d="M6,15.9999,14,16" fill="none" stroke="#323232" stroke-linecap="round" stroke-linejoin="round" stroke-width="1.5"/><path d="M9,3H4A2,2,0,0,0,2,5V19a2,2,0,0,0,2,2H16a2,2,0,0,0,2-2V14" fill="none" stroke="#323232" stroke-linecap="round" stroke-linejoin="round" stroke-width="1.5"/><path d="M12,5.25v3.5A2.25,2.25,0,0,0,14.25,11h5.5A2.25,2.25,0,0,0,22,8.75V5.25A2.25,2.25,0,0,0,19.75,3h-5.5A2.25,2.25,0,0,0,12,5.25Z" fill="none" stroke="#323232" stroke-linecap="round" stroke-linejoin="round" stroke-width="1.5"/><path d="M22,6.5H12" fill="none" stroke="#323232" stroke-linecap="round" stroke-linejoin="round" stroke-width="1.5"/><path d="M8.5,8,6,7.9999" fill="none" stroke="#323232" stroke-linecap="round" stroke-linejoin="round" stroke-width="1.5"/><path d="M6,11.9999,8.5,12" fill="none" stroke="#323232" stroke-linecap="round" stroke-linejoin="round" stroke-width="1.5"/></svg>