<svg xmlns="http://www.w3.org/2000/svg" viewBox="0 0 24 24"><path d="M8.5,21H6a3,3,0,0,1-3-3V6A3,3,0,0,1,6,3h8.49069a3,3,0,0,1,2.12132.87868L19.12132,6.388A3,3,0,0,1,20,8.50931V10" fill="none" stroke="#323232" stroke-linecap="round" stroke-linejoin="round" stroke-width="1.5" fill-rule="evenodd"/><path d="M11,15.25v3.5A2.25,2.25,0,0,0,13.25,21h5.5A2.25,2.25,0,0,0,21,18.75v-3.5A2.25,2.25,0,0,0,18.75,13h-5.5A2.25,2.25,0,0,0,11,15.25Z" fill="none" stroke="#323232" stroke-linecap="round" stroke-linejoin="round" stroke-width="1.5"/><path d="M21,16.5H11" fill="none" stroke="#323232" stroke-linecap="round" stroke-linejoin="round" stroke-width="1.5"/></svg>