<svg xmlns="http://www.w3.org/2000/svg" viewBox="0 0 24 24"><path d="M16,3l-4.2509,2.55055a3,3,0,0,0-1.1398,1.23085l-.29259.58519A2.99994,2.99994,0,0,0,10,8.70821V10" fill="none" stroke="#323232" stroke-linecap="round" stroke-linejoin="round" stroke-width="1.5"/><path d="M3.5,14.5V13a3,3,0,0,1,3-3H15" fill="none" stroke="#323232" stroke-linecap="round" stroke-linejoin="round" stroke-width="1.5"/><path d="M9.5,21H15a3,3,0,0,0,3-3V13.64755" fill="none" stroke="#323232" stroke-linecap="round" stroke-linejoin="round" stroke-width="1.5"/><path d="M22,8l-1.07382,2.80844a4,4,0,0,1-1.51694,1.89934l-4.52189,3.0155a1.64576,1.64576,0,0,1-2.07681-.20549h0a1.64574,1.64574,0,0,1-.00023-2.3272L15,11V9" fill="none" stroke="#323232" stroke-linecap="round" stroke-linejoin="round" stroke-width="1.5"/><line x1="5.99999" y1="21" x2="3.99999" y2="21" fill="none" stroke="#323232" stroke-linecap="round" stroke-linejoin="round" stroke-width="1.5"/><line x1="5.99999" y1="18" x2="1.99999" y2="18" fill="none" stroke="#323232" stroke-linecap="round" stroke-linejoin="round" stroke-width="1.5"/></svg>