<svg xmlns="http://www.w3.org/2000/svg" viewBox="0 0 24 24"><path d="M3,20l1.156.578A3.99768,3.99768,0,0,0,5.94377,21H12.5A1.5,1.5,0,0,0,14,19.5h0A1.5,1.5,0,0,0,12.5,18h-4" fill="none" stroke="#323232" stroke-linecap="round" stroke-linejoin="round" stroke-width="1.5"/><path d="M3,13H5.91334a2,2,0,0,1,1.2.4l2.23727,1.67794a1.62335,1.62335,0,0,1,.17387,2.44657h0a1.62336,1.62336,0,0,1-2.12191.15079L6,16.62335" fill="none" stroke="#323232" stroke-linecap="round" stroke-linejoin="round" stroke-width="1.5"/><path d="M17,18h1a3,3,0,0,0,3-3V6a3,3,0,0,0-3-3H6A3,3,0,0,0,3,6v4" fill="none" stroke="#323232" stroke-linecap="round" stroke-linejoin="round" stroke-width="1.5"/><line x1="20.99999" y1="8" x2="2.99999" y2="8" fill="none" stroke="#323232" stroke-linecap="round" stroke-linejoin="round" stroke-width="1.5"/></svg>