<svg xmlns="http://www.w3.org/2000/svg" viewBox="0 0 24 24"><path d="M14.5,3H13a3,3,0,0,0-3,3v9" fill="none" stroke="#323232" stroke-linecap="round" stroke-linejoin="round" stroke-width="1.5"/><path d="M21,9.5V15a3,3,0,0,1-3,3H13.64755" fill="none" stroke="#323232" stroke-linecap="round" stroke-linejoin="round" stroke-width="1.5"/><line x1="18" y1="6" x2="20" y2="6" fill="none" stroke="#323232" stroke-linecap="round" stroke-linejoin="round" stroke-width="1.5"/><line x1="18" y1="3" x2="22" y2="3" fill="none" stroke="#323232" stroke-linecap="round" stroke-linejoin="round" stroke-width="1.5"/><path d="M3,16l2.55055-4.2509A3,3,0,0,1,6.7814,10.6093l.5852-.29259A2.99993,2.99993,0,0,1,8.70821,10H10" fill="none" stroke="#323232" stroke-linecap="round" stroke-linejoin="round" stroke-width="1.5"/><path d="M8,22l2.80844-1.07381a4,4,0,0,0,1.89934-1.51694l3.01551-4.52189a1.64576,1.64576,0,0,0-.2055-2.07681h0a1.64575,1.64575,0,0,0-2.32721-.00024L11,15H9" fill="none" stroke="#323232" stroke-linecap="round" stroke-linejoin="round" stroke-width="1.5"/></svg>