<svg xmlns="http://www.w3.org/2000/svg" viewBox="0 0 24 24"><line x1="12" y1="8.49999" x2="8" y2="8.49999" fill="none" stroke="#323232" stroke-linecap="round" stroke-linejoin="round" stroke-width="1.5"/><line x1="16" y1="11.99999" x2="8" y2="11.99999" fill="none" stroke="#323232" stroke-linecap="round" stroke-linejoin="round" stroke-width="1.5"/><line x1="8" y1="15.49999" x2="12" y2="15.49999" fill="none" stroke="#323232" stroke-linecap="round" stroke-linejoin="round" stroke-width="1.5"/><line x1="15" y1="15.49999" x2="16" y2="15.49999" fill="none" stroke="#323232" stroke-linecap="round" stroke-linejoin="round" stroke-width="1.5"/><path d="M20,4.4975v15.005a1,1,0,0,1-.551.89352l-.99.49752a1,1,0,0,1-.89228.00287l-1.57248-.77759-1.5409.77408a1,1,0,0,1-.89456.00161L12,20.11848l-1.55876.776a1,1,0,0,1-.89456-.00161l-1.5409-.77408-1.57248.77759a1,1,0,0,1-.89228-.00287l-.99-.49752A1,1,0,0,1,4,19.50247V4.49752A1,1,0,0,1,4.551,3.604l.99-.49752A1,1,0,0,1,6.4333,3.1036l1.57247.77759,1.54091-.77408a1,1,0,0,1,.89455-.00161L12,3.8815l1.55877-.776a1,1,0,0,1,.89455.00162l1.54091.77407,1.57247-.77759a1,1,0,0,1,.89229.00287l.99.49752A1,1,0,0,1,20,4.4975Z" fill="none" stroke="#323232" stroke-linecap="round" stroke-linejoin="round" stroke-width="1.5"/><rect y="-0.00001" width="24" height="24" fill="none"/></svg>