<svg xmlns="http://www.w3.org/2000/svg" viewBox="0 0 24 24"><g id="Layer_2" data-name="Layer 2"><path d="M19.449,20.396l-.99.49752a1,1,0,0,1-.89228.00287l-1.57248-.77759-1.5409.77407a1,1,0,0,1-.89456.00162L12,20.11849l-1.55876.776a1,1,0,0,1-.89456-.00162l-1.5409-.77407-1.57248.77759a1,1,0,0,1-.89228-.00287l-.99-.49752A1,1,0,0,1,4,19.50248V4.49752A1,1,0,0,1,4.551,3.604l.99-.49752a1,1,0,0,1,.89228-.00287l1.57248.77759,1.5409-.77407a1,1,0,0,1,.89456-.00162L12,3.88151l1.55876-.776a1,1,0,0,1,.89456.00162l1.5409.77407,1.57248-.77759a1,1,0,0,1,.89228.00287l.99.49752A1,1,0,0,1,20,4.49752v15.005A1,1,0,0,1,19.449,20.396Z" fill="none" stroke="#323232" stroke-linecap="round" stroke-linejoin="round" stroke-width="1.5"/><line x1="16" y1="9" x2="8" y2="9" fill="none" stroke="#323232" stroke-linecap="round" stroke-linejoin="round" stroke-width="1.5"/><line x1="16" y1="11.99994" x2="8" y2="11.99994" fill="none" stroke="#323232" stroke-linecap="round" stroke-linejoin="round" stroke-width="1.5"/><line x1="13" y1="15" x2="8" y2="15" fill="none" stroke="#323232" stroke-linecap="round" stroke-linejoin="round" stroke-width="1.5"/><path d="M0,0H24V24H0Z" fill="none"/></g></svg>