<svg xmlns="http://www.w3.org/2000/svg" viewBox="0 0 24 24"><path d="M5,17V4.57621A1,1,0,0,1,5.49854,3.711l.99291-.57548a1,1,0,0,1,.99953-.002l1.50484.86435L9.00062,4c.02668-.0157.91268-.5293,1.49336-.86589a.99526.99526,0,0,1,.997-.00049l1.50485.86436h.00832L14.509,3.13359a1,1,0,0,1,.99953.002l1.48728.862.00834,0L18.509,3.13323a1,1,0,0,1,.99953.00195l.99291.57549A1,1,0,0,1,21,4.57585V19.5A1.5,1.5,0,0,1,19.5,21h0A1.5,1.5,0,0,1,18,19.5V18a1,1,0,0,0-1-1H4a1,1,0,0,0-1,1v1a2,2,0,0,0,2,2H19.5" fill="none" stroke="#323232" stroke-linecap="round" stroke-linejoin="round" stroke-width="1.5"/><line x1="13.00001" y1="12.49999" x2="9.00401" y2="12.49999" fill="none" stroke="#323232" stroke-linecap="round" stroke-linejoin="round" stroke-width="1.5"/><line x1="13.00001" y1="8.99999" x2="9.00401" y2="8.99999" fill="none" stroke="#323232" stroke-linecap="round" stroke-linejoin="round" stroke-width="1.5"/><line x1="17.00001" y1="12.49999" x2="16.00001" y2="12.49999" fill="none" stroke="#323232" stroke-linecap="round" stroke-linejoin="round" stroke-width="1.5"/><line x1="17.00001" y1="8.99999" x2="16.00001" y2="8.99999" fill="none" stroke="#323232" stroke-linecap="round" stroke-linejoin="round" stroke-width="1.5"/></svg>