<?xml version="1.0" encoding="UTF-8"?><svg version="1.1" viewBox="0 0 24 24" xmlns="http://www.w3.org/2000/svg" xmlns:xlink="http://www.w3.org/1999/xlink"><!--Generated by IJSVG (https://github.com/iconjar/IJSVG)--><g stroke-linecap="round" stroke-width="1.5" stroke="#323232" fill="none" stroke-linejoin="round"><path d="M17.5,21h-11c-1.105,0 -2,-0.895 -2,-2v-14c0,-1.105 0.895,-2 2,-2h11c1.105,0 2,0.895 2,2v14c0,1.105 -0.895,2 -2,2Z"></path><path d="M12.041,5.875c-0.069,0 -0.125,0.056 -0.124,0.125c0,0.069 0.056,0.125 0.125,0.125c0.069,0 0.125,-0.056 0.125,-0.125c0,-0.069 -0.056,-0.125 -0.126,-0.125"></path><path d="M8,9h8"></path><path d="M13,12v6"></path><path d="M16,15h-8"></path><path d="M8,12h8v6h-8Z"></path></g><path fill="none" d="M0,0h24v24h-24Z"></path></svg>