<svg xmlns="http://www.w3.org/2000/svg" viewBox="0 0 24 24"><path d="M0,0H24V24H0Z" fill="none"/><path d="M10.50215,20h-6.5a2,2,0,0,1-1.83829-2.78783l1.28572-3A2,2,0,0,1,5.28787,13H18.5" fill="none" stroke="#323232" stroke-linecap="round" stroke-linejoin="round" stroke-width="1.5"/><path d="M6,2H18a2,2,0,0,1,2,2v7.5A1.5,1.5,0,0,1,18.5,13H5.5A1.5,1.5,0,0,1,4,11.5V4A2,2,0,0,1,6,2Z" fill="none" stroke="#323232" stroke-linecap="round" stroke-linejoin="round" stroke-width="1.5"/><rect x="14" y="15.99999" width="8" height="6" rx="1.5" stroke-width="1.5" stroke="#323232" stroke-linecap="round" stroke-linejoin="round" fill="none"/></svg>