<svg xmlns="http://www.w3.org/2000/svg" viewBox="0 0 24 24"><line x1="20.99999" y1="14" x2="20.99999" y2="17" fill="none" stroke="#323232" stroke-linecap="round" stroke-linejoin="round" stroke-width="1.5"/><path d="M12,5V9a2,2,0,0,0,2,2h6a2,2,0,0,0,2-2V5a2,2,0,0,0-2-2H14A2,2,0,0,0,12,5Z" fill="none" stroke="#323232" stroke-linecap="round" stroke-linejoin="round" stroke-width="1.5"/><path d="M22,6.5H12" fill="none" stroke="#323232" stroke-linecap="round" stroke-linejoin="round" stroke-width="1.5"/><path d="M3,17V5A2,2,0,0,1,5,3H9" fill="none" stroke="#323232" stroke-linecap="round" stroke-linejoin="round" stroke-width="1.5"/><path d="M2.5,17h19a1,1,0,0,1,1,1v0a3,3,0,0,1-3,3H4.5a3,3,0,0,1-3-3v0A1,1,0,0,1,2.5,17Z" fill="none" stroke="#323232" stroke-linecap="round" stroke-linejoin="round" stroke-width="1.5"/></svg>