<?xml version="1.0" encoding="UTF-8"?><svg version="1.1" viewBox="0 0 24 24" xmlns="http://www.w3.org/2000/svg" xmlns:xlink="http://www.w3.org/1999/xlink"><!--Generated by IJSVG (https://github.com/iconjar/IJSVG)--><g stroke-linecap="round" stroke-width="1.5" stroke="#323232" fill="none" stroke-linejoin="round"><path d="M19,16h-3.465c-0.334,0 -0.647,0.167 -0.832,0.445l-0.406,0.609c-0.185,0.278 -0.498,0.445 -0.832,0.445h-4.93c-0.334,0 -0.647,-0.167 -0.832,-0.445l-0.406,-0.609c-0.186,-0.278 -0.498,-0.445 -0.833,-0.445h-3.464c-0.552,0 -1,0.448 -1,1v1c0,1.105 0.895,2 2,2h14c1.105,0 2,-0.895 2,-2v-1c0,-0.552 -0.448,-1 -1,-1Z"></path><path d="M19,16v-3"></path><path d="M15,7h6c0.553,0 1,0.448 1,1v4c0,0.553 -0.448,1 -1,1h-6c-0.553,0 -1,-0.448 -1,-1v-4c0,-0.552 0.448,-1 1,-1Z"></path><path d="M9.262,12l-2,-2.001l2,-1.999"></path><path d="M7.26,10h3.7"></path><path d="M19,7v-1c0,-1.105 -0.895,-2 -2,-2h-12c-1.105,0 -2,0.895 -2,2v10"></path></g><path fill="none" d="M0,0h24v24h-24v-24Z"></path></svg>