<svg xmlns="http://www.w3.org/2000/svg" viewBox="0 0 24 24"><line x1="7.49999" y1="3" x2="7.49999" y2="6" fill="none" stroke="#323232" stroke-linecap="round" stroke-linejoin="round" stroke-width="1.5"/><line x1="16.49999" y1="3" x2="16.49999" y2="6" fill="none" stroke="#323232" stroke-linecap="round" stroke-linejoin="round" stroke-width="1.5"/><path d="M7,21H6a3,3,0,0,1-3-3V7.5a3,3,0,0,1,3-3H18a3,3,0,0,1,3,3V9" fill="none" stroke="#323232" stroke-linecap="round" stroke-linejoin="round" stroke-width="1.5"/><line x1="10" y1="16" x2="21" y2="16" fill="none" stroke="#323232" stroke-linecap="round" stroke-linejoin="round" stroke-width="1.5"/><path d="M12.25,21h6.5A2.25,2.25,0,0,0,21,18.75v-4.5A2.25,2.25,0,0,0,18.75,12h-6.5A2.25,2.25,0,0,0,10,14.25v4.5A2.25,2.25,0,0,0,12.25,21Z" fill="none" stroke="#323232" stroke-linecap="round" stroke-linejoin="round" stroke-width="1.5"/><line x1="11.99999" y1="3" x2="11.99999" y2="6" fill="none" stroke="#323232" stroke-linecap="round" stroke-linejoin="round" stroke-width="1.5"/></svg>