<svg xmlns="http://www.w3.org/2000/svg" viewBox="0 0 24 24"><circle cx="11.5" cy="6.50002" r="3.5" fill="none" stroke="#323232" stroke-linecap="round" stroke-linejoin="round" stroke-width="1.5"/><path d="M14.98,6.859a3.13947,3.13947,0,0,0,.922-.389A2.93749,2.93749,0,0,1,17.5,6h1V8.554a5.98388,5.98388,0,0,1,1.62616,2.381H21a1,1,0,0,1,1,1V15a1,1,0,0,1-1,1H19.68927A6.0366,6.0366,0,0,1,17.5,18.191V20a1,1,0,0,1-1,1h-2a1,1,0,0,1-1-1V19H10v.868a1,1,0,0,1-1,1H7a1,1,0,0,1-1-1V17.46313A5.98936,5.98936,0,0,1,8.09839,7.31274" fill="none" stroke="#323232" stroke-linecap="round" stroke-linejoin="round" stroke-width="1.5"/><path d="M2.288,10a1.61289,1.61289,0,0,0-.78119,1.53926A1.70282,1.70282,0,0,0,3.24456,13H4" fill="none" stroke="#323232" stroke-linecap="round" stroke-linejoin="round" stroke-width="1.5"/><path d="M17.00354,11.99646v.00708h-.00708v-.00708h.00708" fill="none" stroke="#323232" stroke-linecap="round" stroke-linejoin="round" stroke-width="1.5"/></svg>