<svg xmlns="http://www.w3.org/2000/svg" viewBox="0 0 24 24"><path d="M17.25351,10.49649v.00707h-.00707v-.00707h.00707" fill="none" stroke="#323232" stroke-linecap="round" stroke-linejoin="round" stroke-width="1.5"/><path d="M2.538,8.5a1.57229,1.57229,0,0,0,.789,2.935H4.25" fill="none" stroke="#323232" stroke-linecap="round" stroke-linejoin="round" stroke-width="1.5"/><path d="M18.75,4.5V7.054a5.98355,5.98355,0,0,1,1.626,2.381h.874a1.00036,1.00036,0,0,1,1,1V13.5a1.00036,1.00036,0,0,1-1,1H19.939a6.03516,6.03516,0,0,1-2.189,2.191V18.5a1.00036,1.00036,0,0,1-1,1h-2a1.00036,1.00036,0,0,1-1-1v-1h-3.5v.868a1.00036,1.00036,0,0,1-1,1h-2a1.00036,1.00036,0,0,1-1-1V15.96313A5.99378,5.99378,0,0,1,10.25,5.5h4.52649a1.9704,1.9704,0,0,0,1.18745-.39914A2.95234,2.95234,0,0,1,17.75,4.5Z" fill="none" stroke="#323232" stroke-linecap="round" stroke-linejoin="round" stroke-width="1.5"/><path d="M0,24V0H24V24Z" fill="none"/></svg>