<svg xmlns="http://www.w3.org/2000/svg" viewBox="0 0 24 24"><path d="M19.50206,3.71016l-.99047-.575a1,1,0,0,0-.99809-.00348l-1.51928.86791L14.50611,3.136a1,1,0,0,0-1.00047-.002L12,4l-1.50564-.8659a1,1,0,0,0-1.00047.002L8.00577,3.9996,6.48648,3.1317a1,1,0,0,0-.99808.00348l-.99047.575A1,1,0,0,0,4,4.575V19a2,2,0,0,0,2,2H18a2,2,0,0,0,2-2V4.575A1,1,0,0,0,19.50206,3.71016Z" fill="none" stroke="#323232" stroke-linecap="round" stroke-linejoin="round" stroke-width="1.5"/><line x1="12" y1="16.5" x2="12" y2="15.5" fill="none" stroke="#323232" stroke-linecap="round" stroke-linejoin="round" stroke-width="1.5"/><path d="M10,11h0a1.3418,1.3418,0,0,0,1.07864,1.31573l1.84272.36854A1.3418,1.3418,0,0,1,14,14h0" fill="none" stroke="#323232" stroke-linecap="round" stroke-linejoin="round" stroke-width="1.5"/><path d="M14,14c0,.82837-.89545,1.5-2,1.5a2.03959,2.03959,0,0,1-1.87756-1" fill="none" stroke="#323232" stroke-linecap="round" stroke-linejoin="round" stroke-width="1.5"/><path d="M13.86945,10.48047A2.05134,2.05134,0,0,0,12,9.5c-1.10455,0-2,.67163-2,1.5" fill="none" stroke="#323232" stroke-linecap="round" stroke-linejoin="round" stroke-width="1.5"/><line x1="12" y1="8.5" x2="12" y2="9.5" fill="none" stroke="#323232" stroke-linecap="round" stroke-linejoin="round" stroke-width="1.5"/></svg>