<svg xmlns="http://www.w3.org/2000/svg" viewBox="0 0 24 24"><line x1="11" y1="15.5" x2="22" y2="15.5" fill="none" stroke="#323232" stroke-linecap="round" stroke-linejoin="round" stroke-width="1.5"/><line x1="6.99999" y1="8.5" x2="15.99999" y2="8.5" fill="none" stroke="#323232" stroke-linecap="round" stroke-linejoin="round" stroke-width="1.5"/><line x1="6.99999" y1="12" x2="7.99999" y2="12" fill="none" stroke="#323232" stroke-linecap="round" stroke-linejoin="round" stroke-width="1.5"/><line x1="6.99999" y1="15.5" x2="7.99999" y2="15.5" fill="none" stroke="#323232" stroke-linecap="round" stroke-linejoin="round" stroke-width="1.5"/><path d="M20,8.5V4.59769a1,1,0,0,0-.52734-.88125l-1.11438-.59769a1,1,0,0,0-.93941-.00314l-1.675.884-1.64161-.88015a1,1,0,0,0-.94173-.00177L11.5,4,9.83948,3.11771a1,1,0,0,0-.94173.00177l-1.64161.88015-1.675-.884a1,1,0,0,0-.93941.00314l-1.11438.59769A1,1,0,0,0,3,4.59769V19a2,2,0,0,0,2,2H8" fill="none" stroke="#323232" stroke-linecap="round" stroke-linejoin="round" stroke-width="1.5"/><rect x="11" y="12" width="11" height="9" rx="2.25" stroke-width="1.5" stroke="#323232" stroke-linecap="round" stroke-linejoin="round" fill="none"/></svg>