<svg xmlns="http://www.w3.org/2000/svg" viewBox="0 0 24 24"><path d="M20,4.575v14.85a1,1,0,0,1-.49794.86483l-.99047.575a1,1,0,0,1-.99809.00347l-1.51929-.8679-1.4881.86359a1,1,0,0,1-1.00047.002L12,20l-1.50564.8659A1,1,0,0,1,9.49387,20.864L8.00576,20.0004l-1.51929.86791a1,1,0,0,1-.99809-.00348l-.99045-.575A1,1,0,0,1,4,19.425V4.575a1,1,0,0,1,.49794-.86483l.99046-.575a1,1,0,0,1,.99809-.00348l1.51929.8679L9.49387,3.136a1,1,0,0,1,1.00047-.002L12,4l1.50565-.8659a1,1,0,0,1,1.00047.002l1.4881.86359,1.51929-.86791a1,1,0,0,1,.99809.00348l.99046.575A1,1,0,0,1,20,4.575Z" fill="none" stroke="#323232" stroke-linecap="round" stroke-linejoin="round" stroke-width="1.5"/><line x1="12" y1="8" x2="12" y2="8.80786" fill="none" stroke="#323232" stroke-linecap="round" stroke-linejoin="round" stroke-width="1.5"/><line x1="12" y1="16" x2="12" y2="15.19214" fill="none" stroke="#323232" stroke-linecap="round" stroke-linejoin="round" stroke-width="1.5"/><path d="M13.94907,10.07108A1.95077,1.95077,0,0,0,12,8.80786a1.83893,1.83893,0,0,0-2,1.61572h0a1.435,1.435,0,0,0,1.15357,1.40713l1.69286.33858A1.435,1.435,0,0,1,14,13.57642h0a1.83893,1.83893,0,0,1-2,1.61572,1.95077,1.95077,0,0,1-1.94907-1.26322" fill="none" stroke="#323232" stroke-linecap="round" stroke-linejoin="round" stroke-width="1.5"/></svg>