<?xml version="1.0" encoding="UTF-8"?><svg version="1.1" viewBox="0 0 24 24" xmlns="http://www.w3.org/2000/svg" xmlns:xlink="http://www.w3.org/1999/xlink"><!--Generated by IJSVG (https://github.com/iconjar/IJSVG)--><g fill="none"><path d="M0,0h24v24h-24v-24Z"></path><path stroke="#323232" stroke-linecap="round" stroke-linejoin="round" stroke-width="1.5" d="M10.03,5h-5.53"></path><path stroke="#323232" stroke-linecap="round" stroke-linejoin="round" stroke-width="1.5" d="M13.4412,3.58579c0.781049,0.781049 0.781049,2.04738 0,2.82843c-0.781049,0.781049 -2.04738,0.781049 -2.82843,0c-0.781049,-0.781049 -0.781049,-2.04738 0,-2.82843c0.781049,-0.781049 2.04738,-0.781049 2.82843,-4.44089e-16"></path><path stroke="#323232" stroke-linecap="round" stroke-linejoin="round" stroke-width="1.5" d="M19.5,5h-5.47"></path><path stroke="#323232" stroke-linecap="round" stroke-linejoin="round" stroke-width="1.5" d="M4.5,20.75h15"></path><path stroke="#323232" stroke-linecap="round" stroke-linejoin="round" stroke-width="1.5" d="M12.03,7l-0.03,13.75"></path><path stroke="#323232" stroke-linecap="round" stroke-linejoin="round" stroke-width="1.5" d="M8.814,13.227c0.114,0.18 0.179,0.391 0.159,0.603c-0.167,1.778 -1.663,3.17 -3.485,3.17c-1.821,0 -3.317,-1.391 -3.485,-3.169c-0.02,-0.212 0.046,-0.427 0.161,-0.607l3.324,-5.224c0,0 2.619,4.115 3.326,5.227Z"></path><path stroke="#323232" stroke-linecap="round" stroke-linejoin="round" stroke-width="1.5" d="M8.94,13.5h-6.9"></path><path stroke="#323232" stroke-linecap="round" stroke-linejoin="round" stroke-width="1.5" d="M21.841,13.227c0.114,0.18 0.179,0.391 0.159,0.603c-0.167,1.778 -1.663,3.17 -3.485,3.17c-1.821,0 -3.317,-1.391 -3.485,-3.169c-0.02,-0.212 0.046,-0.427 0.161,-0.607l3.324,-5.224c0,0 2.618,4.115 3.326,5.227Z"></path><path stroke="#323232" stroke-linecap="round" stroke-linejoin="round" stroke-width="1.5" d="M21.97,13.5h-6.91"></path></g></svg>