<svg xmlns="http://www.w3.org/2000/svg" viewBox="0 0 24 24"><path d="M10.88206,21.38931h0A10.427,10.427,0,0,1,2.5,11.16483V7.5a5,5,0,0,1,5-5h9a5,5,0,0,1,5,5v3.66481a10.427,10.427,0,0,1-8.38185,10.22443l-.00023,0A5.70014,5.70014,0,0,1,10.88206,21.38931Z" fill="none" stroke="#323232" stroke-linecap="round" stroke-linejoin="round" stroke-width="1.5"/><path d="M7,15H17" fill="none" stroke="#323232" stroke-linecap="round" stroke-linejoin="round" stroke-width="1.5"/><path d="M17,8.785V10a.5.5,0,0,1-.5.5h-9A.5.5,0,0,1,7,10V8.785a.5.5,0,0,1,.2571-.437l3.7713-2.09606a2,2,0,0,1,1.9432,0l3.7713,2.09606A.5.5,0,0,1,17,8.785Z" fill="none" stroke="#323232" stroke-linecap="round" stroke-linejoin="round" stroke-width="1.5"/><path d="M8,15V10.5" fill="none" stroke="#323232" stroke-linecap="round" stroke-linejoin="round" stroke-width="1.5"/><path d="M16,15V10.5" fill="none" stroke="#323232" stroke-linecap="round" stroke-linejoin="round" stroke-width="1.5"/><path d="M10.66667,15V10.5" fill="none" stroke="#323232" stroke-linecap="round" stroke-linejoin="round" stroke-width="1.5"/><path d="M13.33333,15V10.5" fill="none" stroke="#323232" stroke-linecap="round" stroke-linejoin="round" stroke-width="1.5"/></svg>