<svg xmlns="http://www.w3.org/2000/svg" viewBox="0 0 24 24"><path d="M21,17.5A2.5,2.5,0,0,1,18.5,20H16" fill="none" stroke="#323232" stroke-linecap="round" stroke-linejoin="round" stroke-width="1.5"/><path d="M3,8V6.5A2.5,2.5,0,0,1,5.5,4h13A2.5,2.5,0,0,1,21,6.5" fill="none" stroke="#323232" stroke-linecap="round" stroke-linejoin="round" stroke-width="1.5"/><line x1="20.99999" y1="6.5" x2="20.99999" y2="9.5" fill="none" stroke="#323232" stroke-linecap="round" stroke-linejoin="round" stroke-width="1.5"/><line x1="20.99999" y1="14.5" x2="20.99999" y2="17.5" fill="none" stroke="#323232" stroke-linecap="round" stroke-linejoin="round" stroke-width="1.5"/><path d="M19.5,9.5H21a1,1,0,0,1,1,1v3a1,1,0,0,1-1,1H19.5A2.5,2.5,0,0,1,17,12v0a2.5,2.5,0,0,1,2.5-2.5Z" fill="none" stroke="#323232" stroke-linecap="round" stroke-linejoin="round" stroke-width="1.5"/><line x1="1.99999" y1="14.5" x2="12.99999" y2="14.5" fill="none" stroke="#323232" stroke-linecap="round" stroke-linejoin="round" stroke-width="1.5"/><path d="M4.25,20h6.5A2.25,2.25,0,0,0,13,17.75v-4.5A2.25,2.25,0,0,0,10.75,11H4.25A2.25,2.25,0,0,0,2,13.25v4.5A2.25,2.25,0,0,0,4.25,20Z" fill="none" stroke="#323232" stroke-linecap="round" stroke-linejoin="round" stroke-width="1.5"/></svg>