<?xml version="1.0" encoding="UTF-8"?><svg version="1.1" viewBox="0 0 24 24" xmlns="http://www.w3.org/2000/svg" xmlns:xlink="http://www.w3.org/1999/xlink"><g stroke-linecap="round" stroke-width="1.5" stroke="#323232" fill="none" stroke-linejoin="round"><line x1="21" x2="3" y1="16.53" y2="16.53"></line><path d="M20.2494 11.4162l-8.65082-6.93643 -3.51045e-08-2.77642e-08c-.429297-.339532-.97651-.493362-1.51984-.42725l-5.19331e-07 6.09573e-08c-4.03908.474094-7.08245 3.89872-7.07873 7.96553v7.0159l1.30067e-08-1.13875e-05c-.00126621 1.10582.894154 2.0033 1.99998 2.00456 4.19498e-06 4.8034e-09 8.38991e-06 9.59357e-09 1.25849e-05 1.43706e-08h14l-4.77354e-08 5.40901e-11c1.10582-.00125294 2.00125-.898715 2-2.00454 -4.74813e-09-4.19061e-06-9.50954e-09-8.38132e-06-1.4284e-08-1.25719e-05v-6.05247l7.30028e-08-.000541224c0-.608602-.276261-1.1843-.751032-1.56508Z"></path><line x1="3" x2="20.75" y1="12.02" y2="12.02"></line></g><rect width="24" height="24" fill="none"></rect></svg>