<svg id="Layer_3" data-name="Layer 3" xmlns="http://www.w3.org/2000/svg" viewBox="0 0 24 24"><path d="M19.02861,6.37375h0a1.83735,1.83735,0,0,1,1.35817,2.35242h0a1.83734,1.83734,0,0,0,.5133,1.91566h0a1.83736,1.83736,0,0,1,0,2.71634h0a1.83734,1.83734,0,0,0-.5133,1.91566h0a1.83735,1.83735,0,0,1-1.35817,2.35242h0a1.83733,1.83733,0,0,0-1.40236,1.40236h0a1.83735,1.83735,0,0,1-2.35242,1.35817h0a1.83734,1.83734,0,0,0-1.91566.5133h0a1.83736,1.83736,0,0,1-2.71634,0h0a1.83734,1.83734,0,0,0-1.91566-.5133h0a1.83735,1.83735,0,0,1-2.35242-1.35817h0a1.83733,1.83733,0,0,0-1.40236-1.40236h0a1.83735,1.83735,0,0,1-1.35817-2.35242h0a1.83734,1.83734,0,0,0-.5133-1.91566h0a1.83736,1.83736,0,0,1,0-2.71634h0a1.83734,1.83734,0,0,0,.5133-1.91566h0A1.83735,1.83735,0,0,1,4.97139,6.37375h0A1.83733,1.83733,0,0,0,6.37375,4.97139h0A1.83735,1.83735,0,0,1,8.72617,3.61322h0a1.83734,1.83734,0,0,0,1.91566-.5133h0a1.83736,1.83736,0,0,1,2.71634,0h0a1.83734,1.83734,0,0,0,1.91566.5133h0a1.83735,1.83735,0,0,1,2.35242,1.35817h0A1.83733,1.83733,0,0,0,19.02861,6.37375Z" fill="none" stroke="#323232" stroke-linecap="round" stroke-linejoin="round" stroke-width="1.5"/><path d="M13.8052,10.23612a2.474,2.474,0,0,0-3.52875.02192,2.52009,2.52009,0,0,0,0,3.55066,2.5108,2.5108,0,0,0,3.52875-3.57258" fill="none" stroke="#323232" stroke-linecap="round" stroke-linejoin="round" stroke-width="1.5"/><path d="M17.46479,12.03549a.05011.05011,0,1,0,0-.0707.04964.04964,0,0,0,0,.0707" fill="none" stroke="#323232" stroke-linecap="round" stroke-linejoin="round" stroke-width="1.5"/><path d="M6.46479,12.03549a.05011.05011,0,1,0,0-.0707.04964.04964,0,0,0,0,.0707" fill="none" stroke="#323232" stroke-linecap="round" stroke-linejoin="round" stroke-width="1.5"/><path d="M12.03565,6.53521a.0501.0501,0,1,0-.0707,0,.04964.04964,0,0,0,.0707,0" fill="none" stroke="#323232" stroke-linecap="round" stroke-linejoin="round" stroke-width="1.5"/><path d="M12.03565,17.53521a.0501.0501,0,1,0-.0707,0,.04964.04964,0,0,0,.0707,0" fill="none" stroke="#323232" stroke-linecap="round" stroke-linejoin="round" stroke-width="1.5"/><path d="M8.16106,8.11072a.0501.0501,0,1,0-.05.05.04962.04962,0,0,0,.05-.05" fill="none" stroke="#323232" stroke-linecap="round" stroke-linejoin="round" stroke-width="1.5"/><path d="M15.93924,15.8889a.05011.05011,0,1,0-.05.05.04963.04963,0,0,0,.05-.05" fill="none" stroke="#323232" stroke-linecap="round" stroke-linejoin="round" stroke-width="1.5"/><path d="M15.839,8.11072a.05011.05011,0,1,1,.05.05.04963.04963,0,0,1-.05-.05" fill="none" stroke="#323232" stroke-linecap="round" stroke-linejoin="round" stroke-width="1.5"/><path d="M8.06086,15.8889a.0501.0501,0,1,1,.05.05.04963.04963,0,0,1-.05-.05" fill="none" stroke="#323232" stroke-linecap="round" stroke-linejoin="round" stroke-width="1.5"/><path d="M0,0H24V24H0Z" fill="none"/></svg>