<svg id="Layer_3" data-name="Layer 3" xmlns="http://www.w3.org/2000/svg" viewBox="0 0 24 24"><rect width="24" height="24" fill="none"/><path d="M19.99146,12H4.00854a1.00647,1.00647,0,0,0-.9986,1.13879A7.99911,7.99911,0,0,0,6.99969,18.962V20a1,1,0,0,0,1,1h8.00062a1,1,0,0,0,1-1V18.962a7.99911,7.99911,0,0,0,3.98975-5.82324A1.00647,1.00647,0,0,0,19.99146,12Z" fill="none" stroke="#323232" stroke-linecap="round" stroke-linejoin="round" stroke-width="1.5"/><path d="M18.68,12A5.515,5.515,0,0,0,20,8.4V8a1,1,0,0,0-1-1h-.4a5.60357,5.60357,0,0,0-5.57,5" fill="none" stroke="#323232" stroke-linecap="round" stroke-linejoin="round" stroke-width="1.5"/><path d="M13.03,12H6.5155a2,2,0,0,1-1.41421-.58579l-.41493-.4149a2.34261,2.34261,0,0,1,3.3125-3.3134V7.50054H8a4,4,0,0,1,8-.00108V7.6391" fill="none" stroke="#323232" stroke-linecap="round" stroke-linejoin="round" stroke-width="1.5"/></svg>