<svg id="Layer_3" data-name="Layer 3" xmlns="http://www.w3.org/2000/svg" viewBox="0 0 24 24"><rect width="24" height="24" fill="none"/><circle cx="16.5" cy="7.5" r="1.5" fill="none" stroke="#323232" stroke-linecap="round" stroke-linejoin="round" stroke-width="1.5"/><line x1="15.50781" y1="8.62348" x2="13.63597" y2="10.49533" fill="none" stroke="#323232" stroke-linecap="round" stroke-linejoin="round" stroke-width="1.5"/><path d="M15.70128,12.56064,11.43936,8.29872a1.5,1.5,0,0,1,0-2.12132L13.29476,4.322a4.51361,4.51361,0,0,1,6.38322,0h0a4.51361,4.51361,0,0,1,0,6.38322l-1.85539,1.8554A1.5,1.5,0,0,1,15.70128,12.56064Z" fill="none" stroke="#323232" stroke-linecap="round" stroke-linejoin="round" stroke-width="1.5"/><path d="M11.13788,7.86212,4.03553,14.96447a3.53553,3.53553,0,0,0,0,5h0a3.53553,3.53553,0,0,0,5,0l7.10216-7.10216" fill="none" stroke="#323232" stroke-linecap="round" stroke-linejoin="round" stroke-width="1.5"/><path d="M9.03553,19.96447a3.53554,3.53554,0,0,0,0-5h0a3.53554,3.53554,0,0,0-5,0" fill="none" stroke="#323232" stroke-linecap="round" stroke-linejoin="round" stroke-width="1.5"/></svg>