<svg id="Layer_3" data-name="Layer 3" xmlns="http://www.w3.org/2000/svg" viewBox="0 0 24 24"><rect width="24" height="24" fill="none"/><line x1="8.99987" y1="21.00295" x2="8.99987" y2="18.99945" fill="none" stroke="#323232" stroke-linecap="round" stroke-linejoin="round" stroke-width="1.5"/><line x1="12.00017" y1="21.00009" x2="12.00017" y2="19.00006" fill="none" stroke="#323232" stroke-linecap="round" stroke-linejoin="round" stroke-width="1.5"/><line x1="14.99987" y1="21.00295" x2="14.99987" y2="18.99945" fill="none" stroke="#323232" stroke-linecap="round" stroke-linejoin="round" stroke-width="1.5"/><line x1="18.00017" y1="21.00009" x2="18.00017" y2="19.00006" fill="none" stroke="#323232" stroke-linecap="round" stroke-linejoin="round" stroke-width="1.5"/><line x1="17.00007" y1="3" x2="17.00007" y2="4.95396" fill="none" stroke="#323232" stroke-linecap="round" stroke-linejoin="round" stroke-width="1.5"/><line x1="14.00011" y1="3" x2="14.00011" y2="5" fill="none" stroke="#323232" stroke-linecap="round" stroke-linejoin="round" stroke-width="1.5"/><line x1="11.00007" y1="3" x2="11.00007" y2="5" fill="none" stroke="#323232" stroke-linecap="round" stroke-linejoin="round" stroke-width="1.5"/><path d="M15,15l5.70711-5.70711A1,1,0,0,0,21,8.58579V4a1,1,0,0,0-1-1H4A1,1,0,0,0,3,4V8A1,1,0,0,0,4,9H20.90939" fill="none" stroke="#323232" stroke-linecap="round" stroke-linejoin="round" stroke-width="1.5"/><path d="M6.09112,15H20a1,1,0,0,1,1,1v4a1,1,0,0,1-1,1H7a1,1,0,0,1-1-1V15.41421a1,1,0,0,1,.29289-.7071L12,9" fill="none" stroke="#323232" stroke-linecap="round" stroke-linejoin="round" stroke-width="1.5"/><line x1="7.5" y1="3" x2="7.5" y2="9" fill="none" stroke="#323232" stroke-linecap="round" stroke-linejoin="round" stroke-width="1.5"/></svg>