<svg xmlns="http://www.w3.org/2000/svg" viewBox="0 0 24 24"><path d="M9.53629,12.07314,3.82146,16.90877a2.32009,2.32009,0,0,0-.14191,3.41167h0a2.32008,2.32008,0,0,0,3.41167-.14191l4.83563-5.71483" fill="none" stroke="#323232" stroke-linecap="round" stroke-linejoin="round" stroke-width="1.5"/><path d="M10.25735,4.67158h8.07109a1,1,0,0,1,1,1v7.0711a2,2,0,0,1-2,2H11.25734a2,2,0,0,1-2-2V5.67156a1,1,0,0,1,1-1Z" transform="translate(11.05025 -7.26346) rotate(45)" fill="none" stroke="#323232" stroke-linecap="round" stroke-linejoin="round" stroke-width="1.5"/><line x1="17.06066" y1="14.06066" x2="9.93934" y2="6.93934" fill="none" stroke="#323232" stroke-linecap="round" stroke-linejoin="round" stroke-width="1.5"/><rect width="24" height="24" fill="none"/></svg>