<svg xmlns="http://www.w3.org/2000/svg" viewBox="0 0 24 24"><path d="M24,0V24H0V0Z" fill="none"/><path d="M6.75,6.49933A.25.25,0,1,0,6.5,6.75a.25052.25052,0,0,0,.25-.25067" fill="none" stroke="#323232" stroke-linecap="round" stroke-linejoin="round" stroke-width="1.5"/><path d="M4.025,8.975l9.711,9.711a1.99957,1.99957,0,0,0,2.828,0l2.121-2.121a1.99957,1.99957,0,0,0,0-2.828L14.95,10" fill="none" stroke="#323232" stroke-linecap="round" stroke-linejoin="round" stroke-width="1.5"/><path d="M10,14.95V19a1.99945,1.99945,0,0,1-2,2H5a1.99945,1.99945,0,0,1-2-2V6.5" fill="none" stroke="#323232" stroke-linecap="round" stroke-linejoin="round" stroke-width="1.5"/><path d="M6.5,3H19a2,2,0,0,1,2,2V8a2,2,0,0,1-2,2H6.5A3.5,3.5,0,0,1,3,6.5v0A3.5,3.5,0,0,1,6.5,3Z" fill="none" stroke="#323232" stroke-linecap="round" stroke-linejoin="round" stroke-width="1.5"/></svg>