<svg xmlns="http://www.w3.org/2000/svg" viewBox="0 0 24 24"><path d="M7.25533,11.95584l-4.101,1.91333a2,2,0,0,0,0,3.6248l6.30885,2.94336a5.99993,5.99993,0,0,0,5.07352,0L20.84561,17.494a2,2,0,0,0,0-3.62488L16.74272,11.955" fill="none" stroke="#323232" stroke-linecap="round" stroke-linejoin="round" stroke-width="1.5"/><path d="M12.00569,3h-.04682A2.36184,2.36184,0,0,0,9.71252,4.61066L6.57871,13.97818a1.50145,1.50145,0,0,0,.64747,1.77025,9.72734,9.72734,0,0,0,9.546.00014,1.4948,1.4948,0,0,0,.64941-1.76458c-.68741-2.05467-2.20425-6.58876-3.1233-9.336A2.41427,2.41427,0,0,0,12.00569,3Z" fill="none" stroke="#323232" stroke-linecap="round" stroke-linejoin="round" stroke-width="1.5"/></svg>