<svg xmlns="http://www.w3.org/2000/svg" viewBox="0 0 24 24"><path d="M9.58085,7.8496A2.29662,2.29662,0,0,0,12,10h-.01914A2.29662,2.29662,0,0,0,14.4,7.8496" fill="none" stroke="#323232" stroke-linecap="round" stroke-linejoin="round" stroke-width="1.5"/><path d="M12,3.5V5.28891l1.32718.73734A2.08583,2.08583,0,0,1,14.4,7.84958h0" fill="none" stroke="#323232" stroke-linecap="round" stroke-linejoin="round" stroke-width="1.5"/><rect x="3" y="13.5" width="18" height="7.5" rx="1.5" stroke-width="1.5" stroke="#323232" stroke-linecap="round" stroke-linejoin="round" fill="none"/><path d="M14,1.5v1a1,1,0,0,1-1,1H11a1,1,0,0,1-1-1v-1" fill="none" stroke="#323232" stroke-linecap="round" stroke-linejoin="round" stroke-width="1.5"/><path d="M8,13.5l2.50272-2.826a2.00006,2.00006,0,0,1,2.99456,0L16,13.5" fill="none" stroke="#323232" stroke-linecap="round" stroke-linejoin="round" stroke-width="1.5"/></svg>