<svg xmlns="http://www.w3.org/2000/svg" viewBox="0 0 24 24"><path d="M15.5,3,12.863,7.50515a1,1,0,0,1-1.72608,0L8.5,3" fill="none" stroke="#323232" stroke-linecap="round" stroke-linejoin="round" stroke-width="1.5"/><path d="M12,19a2,2,0,0,1-2,2H6a2,2,0,0,1-2-2V10.82843a2,2,0,0,1,.58579-1.41422l.82842-.82842A2,2,0,0,0,6,7.17157V5A2,2,0,0,1,8,3h8a2,2,0,0,1,2,2V7.17157a2,2,0,0,0,.58579,1.41422l.82842.82842A2,2,0,0,1,20,10.82843V19a2,2,0,0,1-2,2H14A2,2,0,0,1,12,19Z" fill="none" stroke="#323232" stroke-linecap="round" stroke-linejoin="round" stroke-width="1.5"/><path d="M20,13H17a1,1,0,0,0-1,1v2a1,1,0,0,0,1,1h3" fill="none" stroke="#323232" stroke-linecap="round" stroke-linejoin="round" stroke-width="1.5"/><path d="M4,17H7a1,1,0,0,0,1-1V14a1,1,0,0,0-1-1H4" fill="none" stroke="#323232" stroke-linecap="round" stroke-linejoin="round" stroke-width="1.5"/><line x1="12" y1="19" x2="12" y2="8" fill="none" stroke="#323232" stroke-linecap="round" stroke-linejoin="round" stroke-width="1.5"/></svg>