<svg xmlns="http://www.w3.org/2000/svg" viewBox="0 0 24 24"><path d="M4.5,18h3a2,2,0,0,1,2,2v1a1,1,0,0,1-1,1h-5a1,1,0,0,1-1-1V20a2,2,0,0,1,2-2Z" fill="none" stroke="#323232" stroke-linecap="round" stroke-linejoin="round" stroke-width="1.5"/><path d="M15.5,2h5a1,1,0,0,1,1,1V4a2,2,0,0,1-2,2h-3a2,2,0,0,1-2-2V3A1,1,0,0,1,15.5,2Z" fill="none" stroke="#323232" stroke-linecap="round" stroke-linejoin="round" stroke-width="1.5"/><rect x="9" y="10" width="6" height="4" rx="1" transform="translate(24 0) rotate(90)" stroke-width="1.5" stroke="#323232" stroke-linecap="round" stroke-linejoin="round" fill="none"/><path d="M10,10H7a3,3,0,0,0-3,3v5" fill="none" stroke="#323232" stroke-linecap="round" stroke-linejoin="round" stroke-width="1.5"/><polyline points="8 18 8 14 10 14" fill="none" stroke="#323232" stroke-linecap="round" stroke-linejoin="round" stroke-width="1.5"/><path d="M14,14h3a3,3,0,0,0,3-3V6" fill="none" stroke="#323232" stroke-linecap="round" stroke-linejoin="round" stroke-width="1.5"/><polyline points="16 6 16 10 14 10" fill="none" stroke="#323232" stroke-linecap="round" stroke-linejoin="round" stroke-width="1.5"/></svg>