<svg xmlns="http://www.w3.org/2000/svg" viewBox="0 0 24 24"><path d="M5.70711,3.2929,3.29289,5.70711A1,1,0,0,0,3,6.41422V8A1,1,0,0,0,4,9h9a1,1,0,0,0,1-1V4a1,1,0,0,0-1-1H6.41421A1,1,0,0,0,5.70711,3.2929Z" fill="none" stroke="#323232" stroke-linecap="round" stroke-linejoin="round" stroke-width="1.5"/><path d="M11,9V20a1,1,0,0,1-1,1H8a1,1,0,0,1-1-1V9" fill="none" stroke="#323232" stroke-linecap="round" stroke-linejoin="round" stroke-width="1.5"/><path d="M17,3h3a1,1,0,0,1,1,1V20a1,1,0,0,1-1,1H16a1,1,0,0,1-1-1V13" fill="none" stroke="#323232" stroke-linecap="round" stroke-linejoin="round" stroke-width="1.5"/><line x1="19.5" y1="18.5" x2="20.99999" y2="18.5" fill="none" stroke="#323232" stroke-linecap="round" stroke-linejoin="round" stroke-width="1.5"/><line x1="19" y1="14.5" x2="20.99999" y2="14.5" fill="none" stroke="#323232" stroke-linecap="round" stroke-linejoin="round" stroke-width="1.5"/><line x1="19.49999" y1="10.5" x2="20.99999" y2="10.5" fill="none" stroke="#323232" stroke-linecap="round" stroke-linejoin="round" stroke-width="1.5"/><line x1="19" y1="6.5" x2="21" y2="6.5" fill="none" stroke="#323232" stroke-linecap="round" stroke-linejoin="round" stroke-width="1.5"/><rect width="24" height="24" fill="none"/></svg>