<svg xmlns="http://www.w3.org/2000/svg" viewBox="0 0 24 24"><path d="M15.5,7.5v12a1,1,0,0,0,.29289.70711l.5.5a1,1,0,0,0,1.41421,0l.5-.5A1,1,0,0,0,18.5,19.5V7.5" fill="none" stroke="#323232" stroke-linecap="round" stroke-linejoin="round" stroke-width="1.5"/><rect x="12" y="4" width="10" height="3.5" rx="1.5" stroke-width="1.5" stroke="#323232" stroke-linecap="round" stroke-linejoin="round" fill="none"/><path d="M8.5,17.5V5.5a1,1,0,0,0-.29289-.70711l-.5-.5a1,1,0,0,0-1.41421,0l-.5.5A1,1,0,0,0,5.5,5.5v12" fill="none" stroke="#323232" stroke-linecap="round" stroke-linejoin="round" stroke-width="1.5"/><rect x="2" y="17.5" width="10" height="3.5" rx="1.5" transform="translate(14 38.5) rotate(180)" stroke-width="1.5" stroke="#323232" stroke-linecap="round" stroke-linejoin="round" fill="none"/></svg>