<svg xmlns="http://www.w3.org/2000/svg" viewBox="0 0 24 24"><rect x="2" y="3" width="10" height="4" rx="1" stroke-width="1.5" stroke="#323232" stroke-linecap="round" stroke-linejoin="round" fill="none"/><path d="M5,7H9A0,0,0,0,1,9,7V20a1,1,0,0,1-1,1H6a1,1,0,0,1-1-1V7A0,0,0,0,1,5,7Z" fill="none" stroke="#323232" stroke-linecap="round" stroke-linejoin="round" stroke-width="1.5"/><circle cx="18.75" cy="6.25" r="3.25" fill="none" stroke="#323232" stroke-linecap="round" stroke-linejoin="round" stroke-width="1.5"/><path d="M13,15.42854v3.14292a.97431.97431,0,0,0,.48715.84378L16,20.866a1,1,0,0,0,1,0l2.51285-1.45079A.97431.97431,0,0,0,20,18.57146V15.42854a.97431.97431,0,0,0-.48715-.84378L17,13.134a1,1,0,0,0-1,0l-2.51285,1.45079A.97431.97431,0,0,0,13,15.42854Z" fill="none" stroke="#323232" stroke-linecap="round" stroke-linejoin="round" stroke-width="1.5"/><rect width="24" height="24" fill="none"/></svg>