<svg xmlns="http://www.w3.org/2000/svg" viewBox="0 0 24 24"><path d="M15.62765,4.5H6.33333a3,3,0,0,0-1.8.6L3.2,6.1a.5.5,0,0,0,0,.8l1.33333,1a3,3,0,0,0,1.8.6H15.6289" fill="none" stroke="#323232" stroke-linecap="round" stroke-linejoin="round" stroke-width="1.5"/><path d="M16.5,9.37023v8.29644a3,3,0,0,0,.6,1.8L18.1,20.8a.5.5,0,0,0,.8,0l1-1.33333a3,3,0,0,0,.6-1.8V9.37087" fill="none" stroke="#323232" stroke-linecap="round" stroke-linejoin="round" stroke-width="1.5"/><path d="M14,21A10,10,0,0,1,4,11" fill="none" stroke="#323232" stroke-linecap="round" stroke-linejoin="round" stroke-width="1.5"/><line x1="20.97487" y1="4.02513" x2="22" y2="3" fill="none" stroke="#323232" stroke-linecap="round" stroke-linejoin="round" stroke-width="1.5"/><circle cx="18.5" cy="6.5" r="3.5" fill="none" stroke="#323232" stroke-linecap="round" stroke-linejoin="round" stroke-width="1.5"/><path d="M18.505,6.495,18.5,6.5l-.005-.005L18.5,6.49l.005.005" fill="none" stroke="#323232" stroke-linecap="round" stroke-linejoin="round" stroke-width="1.5"/></svg>