<svg xmlns="http://www.w3.org/2000/svg" viewBox="0 0 24 24"><path d="M19,5.50005h2a1,1,0,0,1,1,1v1a1,1,0,0,1-1,1H19a0,0,0,0,1,0,0v-3A0,0,0,0,1,19,5.50005Z" fill="none" stroke="#323232" stroke-linecap="round" stroke-linejoin="round" stroke-width="1.5"/><path d="M14,11l-.65811,1.97434A1.5,1.5,0,0,1,11.91886,14H9.5" fill="none" stroke="#323232" stroke-linecap="round" stroke-linejoin="round" stroke-width="1.5"/><line x1="14" y1="3" x2="14" y2="11" fill="none" stroke="#323232" stroke-linecap="round" stroke-linejoin="round" stroke-width="1.5"/><path d="M9.073,17H3.5A1.5,1.5,0,0,0,2,18.5v1A1.5,1.5,0,0,0,3.5,21h6A1.5,1.5,0,0,0,11,19.5v-.118a1.618,1.618,0,0,0-.17082-.72361l-.41459-.82918A1.5,1.5,0,0,0,9.073,17Z" fill="none" stroke="#323232" stroke-linecap="round" stroke-linejoin="round" stroke-width="1.5"/><path d="M10.5,11l-2,6" fill="none" stroke="#323232" stroke-linecap="round" stroke-linejoin="round" stroke-width="1.5"/><path d="M3.5,17l2-6" fill="none" stroke="#323232" stroke-linecap="round" stroke-linejoin="round" stroke-width="1.5"/><line x1="6" y1="7" x2="8.5" y2="7" fill="none" stroke="#323232" stroke-linecap="round" stroke-linejoin="round" stroke-width="1.5"/><path d="M2,9.00339V4.99662A1.99362,1.99362,0,0,1,3.99307,3C7.6586,3,13.36222,3,15.39935,3a1.98428,1.98428,0,0,1,1.10459.33592l1.60549,1.07037A2,2,0,0,1,19,6.07035V7.92962a2,2,0,0,1-.89057,1.66408l-1.60549,1.07038A1.98429,1.98429,0,0,1,15.39934,11c-2.03712,0-7.74073,0-11.40626,0A1.99363,1.99363,0,0,1,2,9.00339Z" fill="none" stroke="#323232" stroke-linecap="round" stroke-linejoin="round" stroke-width="1.5"/><rect width="24" height="24" fill="none"/></svg>