<svg xmlns="http://www.w3.org/2000/svg" viewBox="0 0 24 24"><line x1="12.00057" y1="3" x2="12.00057" y2="11" fill="none" stroke="#323232" stroke-linecap="round" stroke-linejoin="round" stroke-width="1.5"/><path d="M12,11l-2,6" fill="none" stroke="#323232" stroke-linecap="round" stroke-linejoin="round" stroke-width="1.5"/><path d="M5,17l2-6" fill="none" stroke="#323232" stroke-linecap="round" stroke-linejoin="round" stroke-width="1.5"/><rect x="3" y="17" width="9" height="4" rx="1.5" stroke-width="1.5" stroke="#323232" stroke-linecap="round" stroke-linejoin="round" fill="none"/><path d="M3,7H3A4,4,0,0,1,7,3h7.52786a2,2,0,0,1,.89443.21115l.47214.23607A2,2,0,0,1,17,5.23607V8.76393a2,2,0,0,1-1.10557,1.78886l-.47214.23607A2.00008,2.00008,0,0,1,14.52786,11H7A4,4,0,0,1,3,7Z" fill="none" stroke="#323232" stroke-linecap="round" stroke-linejoin="round" stroke-width="1.5"/><path d="M17,8.5h3.5a1,1,0,0,0,.70711-.29289l.5-.5a1,1,0,0,0,0-1.41421l-.5-.5A1,1,0,0,0,20.5,5.5H17" fill="none" stroke="#323232" stroke-linecap="round" stroke-linejoin="round" stroke-width="1.5"/><rect width="24" height="24" fill="none"/></svg>