<svg xmlns="http://www.w3.org/2000/svg" viewBox="0 0 24 24"><path d="M3,18.5V5.5A2.5,2.5,0,0,1,5.5,3H6A1,1,0,0,1,7,4V15a1,1,0,0,1-1,1H5.5A2.5,2.5,0,0,0,3,18.5H3A2.5,2.5,0,0,0,5.5,21H8" fill="none" stroke="#323232" stroke-linecap="round" stroke-linejoin="round" stroke-width="1.5"/><path d="M21,8V7a2,2,0,0,0-2-2H7" fill="none" stroke="#323232" stroke-linecap="round" stroke-linejoin="round" stroke-width="1.5"/><path d="M12.002,21H20a1,1,0,0,0,1-1V12.002a1,1,0,0,0-1.7071-.7071l-7.998,7.998A1,1,0,0,0,12.002,21Z" fill="none" stroke="#323232" stroke-linecap="round" stroke-linejoin="round" stroke-width="1.5"/></svg>