<svg xmlns="http://www.w3.org/2000/svg" viewBox="0 0 24 24"><path d="M0,0H24V24H0Z" fill="none"/><path d="M6,5H9V4.6a3,3,0,0,1,3-3h0a3,3,0,0,1,3,3V5h3a2,2,0,0,1,2,2V19a2,2,0,0,1-2,2H6a2,2,0,0,1-2-2V7A2,2,0,0,1,6,5Z" fill="none" stroke="#323232" stroke-linecap="round" stroke-linejoin="round" stroke-width="1.5"/><path d="M8,15.5v-3a1.5,1.5,0,0,1,.563-1.1713l2.5-2a1.5,1.5,0,0,1,1.87409,0l2.5,2A1.5,1.5,0,0,1,16,12.5v3A1.5,1.5,0,0,1,14.5,17h-5A1.5,1.5,0,0,1,8,15.5Z" fill="none" stroke="#323232" stroke-linecap="round" stroke-linejoin="round" stroke-width="1.5"/></svg>