<svg xmlns="http://www.w3.org/2000/svg" viewBox="0 0 24 24"><path d="M8,17V13.5a.5.5,0,0,1,.5-.5H11a.5.5,0,0,1,.5.5V17" fill="none" stroke="#323232" stroke-linecap="round" stroke-linejoin="round" stroke-width="1.5"/><path d="M11.5,17V10.5A.5.5,0,0,1,12,10h3.5a.5.5,0,0,1,.5.5V17" fill="none" stroke="#323232" stroke-linecap="round" stroke-linejoin="round" stroke-width="1.5"/><line x1="17" y1="17" x2="7" y2="17" fill="none" stroke="#323232" stroke-linecap="round" stroke-linejoin="round" stroke-width="1.5"/><path d="M6,4.9H9V4.5a3,3,0,0,1,3-3h0a3,3,0,0,1,3,3v.4h3a2,2,0,0,1,2,2V19a2,2,0,0,1-2,2H6a2,2,0,0,1-2-2V6.9A2,2,0,0,1,6,4.9Z" fill="none" stroke="#323232" stroke-linecap="round" stroke-linejoin="round" stroke-width="1.5"/></svg>