<svg xmlns="http://www.w3.org/2000/svg" viewBox="0 0 24 24"><path d="M11.25,13.125V4.75A1.75,1.75,0,0,0,9.5,3h0A1.75,1.75,0,0,0,7.75,4.75v8.41667a2.5,2.5,0,0,0,.5,1.5L9.1,15.8a.5.5,0,0,0,.8,0l.825-1.1A2.625,2.625,0,0,0,11.25,13.125Z" fill="none" stroke="#323232" stroke-linecap="round" stroke-linejoin="round" stroke-width="1.5"/><path d="M21,18.5V5.5A2.5,2.5,0,0,0,18.5,3H18a1,1,0,0,0-1,1V15a1,1,0,0,0,1,1h.5A2.5,2.5,0,0,1,21,18.5h0A2.5,2.5,0,0,1,18.5,21H4a2,2,0,0,1-2-2V9A2,2,0,0,1,4,7H5" fill="none" stroke="#323232" stroke-linecap="round" stroke-linejoin="round" stroke-width="1.5"/><line x1="14" y1="7" x2="17" y2="7" fill="none" stroke="#323232" stroke-linecap="round" stroke-linejoin="round" stroke-width="1.5"/></svg>