<svg xmlns="http://www.w3.org/2000/svg" viewBox="0 0 24 24"><path d="M15,17v2a2,2,0,0,1-2,2H4a2,2,0,0,1-2-2V12a2,2,0,0,1,2-2H6" fill="none" stroke="#323232" stroke-linecap="round" stroke-linejoin="round" stroke-width="1.5"/><path d="M19,13v2a2,2,0,0,1-2,2H8a2,2,0,0,1-2-2V8A2,2,0,0,1,8,6h2" fill="none" stroke="#323232" stroke-linecap="round" stroke-linejoin="round" stroke-width="1.5"/><path d="M10,4v7a2,2,0,0,0,2,2h8a2,2,0,0,0,2-2V6.82843a2,2,0,0,0-.58579-1.41421L18.58579,2.58579A2,2,0,0,0,17.17157,2H12A2,2,0,0,0,10,4Z" fill="none" stroke="#323232" stroke-linecap="round" stroke-linejoin="round" stroke-width="1.5"/><path d="M24,24H0V0H24Z" fill="none"/></svg>