<svg xmlns="http://www.w3.org/2000/svg" viewBox="0 0 24 24"><path d="M4.5,9.5H3a1,1,0,0,0-1,1V13a1,1,0,0,0,1,1H21a1,1,0,0,0,1-1V10.5a1,1,0,0,0-1-1H19.5" fill="none" stroke="#323232" stroke-linecap="round" stroke-linejoin="round" stroke-width="1.5"/><path d="M19.5,9.5a7.5,7.5,0,0,0-15,0" fill="none" stroke="#323232" stroke-linecap="round" stroke-linejoin="round" stroke-width="1.5"/><path d="M19.5,9.5a7.5,7.5,0,0,0-15,0" fill="none" stroke="#323232" stroke-linecap="round" stroke-linejoin="round" stroke-width="1.5"/><path d="M8,9.5h8a4,4,0,0,0-8,0Z" fill="none" stroke="#323232" stroke-linecap="round" stroke-linejoin="round" stroke-width="1.5"/><path d="M5.75651,17H20.5A1.5,1.5,0,0,1,22,18.5v1A1.5,1.5,0,0,1,20.5,21H5.75651a3,3,0,0,1-1.5064-.40563l-2.00118-1.162a.5.5,0,0,1,0-.86479l2.00118-1.162A3,3,0,0,1,5.75651,17Z" fill="none" stroke="#323232" stroke-linecap="round" stroke-linejoin="round" stroke-width="1.5"/><line x1="17.5" y1="17" x2="17.5" y2="21" fill="none" stroke="#323232" stroke-linecap="round" stroke-linejoin="round" stroke-width="1.5"/><rect width="24" height="24" transform="translate(24 0) rotate(90)" fill="none"/></svg>