<svg xmlns="http://www.w3.org/2000/svg" viewBox="0 0 24 24"><path d="M14.5,16V5a2,2,0,0,0-2-2h-1a2,2,0,0,0-2,2V16" fill="none" stroke="#323232" stroke-linecap="round" stroke-linejoin="round" stroke-width="1.5"/><path d="M2.50777,18.79187a21.50652,21.50652,0,0,0,18.98446,0A.999.999,0,0,0,22,17.91213V17a1,1,0,0,0-1-1H3a1,1,0,0,0-1,1v.91214A.999.999,0,0,0,2.50777,18.79187Z" fill="none" stroke="#323232" stroke-linecap="round" stroke-linejoin="round" stroke-width="1.5"/><path d="M21,16V13.64075A8.99836,8.99836,0,0,0,14.5,5" fill="none" stroke="#323232" stroke-linecap="round" stroke-linejoin="round" stroke-width="1.5"/><path d="M9.5,5A8.99836,8.99836,0,0,0,3,13.64075V16" fill="none" stroke="#323232" stroke-linecap="round" stroke-linejoin="round" stroke-width="1.5"/></svg>