<svg xmlns="http://www.w3.org/2000/svg" viewBox="0 0 24 24"><path d="M2.43844,18.30444a18.30593,18.30593,0,0,0,19.12312,0A1.00619,1.00619,0,0,0,22,17.46541V17a1,1,0,0,0-1-1H3a1,1,0,0,0-1,1v.46541A1.00619,1.00619,0,0,0,2.43844,18.30444Z" fill="none" stroke="#323232" stroke-linecap="round" stroke-linejoin="round" stroke-width="1.5"/><path d="M14.5,5h.47732a5.5,5.5,0,0,1,5.47741,5.00206L21,16" fill="none" stroke="#323232" stroke-linecap="round" stroke-linejoin="round" stroke-width="1.5"/><path d="M9.55014,5H9.02267a5.5,5.5,0,0,0-5.4774,5.00205L3,16" fill="none" stroke="#323232" stroke-linecap="round" stroke-linejoin="round" stroke-width="1.5"/><path d="M10.5,10h3a1,1,0,0,0,1-1V5.5A2.5,2.5,0,0,0,12,3h0A2.5,2.5,0,0,0,9.5,5.5V9A1,1,0,0,0,10.5,10Z" fill="none" stroke="#323232" stroke-linecap="round" stroke-linejoin="round" stroke-width="1.5"/><rect width="24" height="24" fill="none"/></svg>