<svg xmlns="http://www.w3.org/2000/svg" viewBox="0 0 24 24"><path d="M12.49966,15.04841h0a1.41317,1.41317,0,0,0,.08642-2.07805l-1.55645-1.55645a1.41316,1.41316,0,0,0-2.078.08642h0a46.42166,46.42166,0,0,1-5.45126,5.45125h0a1.41317,1.41317,0,0,0-.08642,2.07805l1.55644,1.55644a1.41317,1.41317,0,0,0,2.078-.08642h0A46.42064,46.42064,0,0,1,12.49966,15.04841Z" fill="none" stroke="#323232" stroke-linecap="round" stroke-linejoin="round" stroke-width="1.5"/><path d="M17.317,8.5H18.963a1,1,0,0,0,.94881-.68408l1.06254-3.19074a.5.5,0,0,0-.12084-.51154l-.96716-.96717a.5.5,0,0,0-.51155-.12084L16.18408,4.08816A1,1,0,0,0,15.5,5.037V6.46732" fill="none" stroke="#323232" stroke-linecap="round" stroke-linejoin="round" stroke-width="1.5"/><line x1="15.5" y1="6.46732" x2="10.76296" y2="11.20436" fill="none" stroke="#323232" stroke-linecap="round" stroke-linejoin="round" stroke-width="1.5"/><line x1="17.31696" y1="8.5" x2="12.70786" y2="13.1091" fill="none" stroke="#323232" stroke-linecap="round" stroke-linejoin="round" stroke-width="1.5"/></svg>