<svg xmlns="http://www.w3.org/2000/svg" viewBox="0 0 24 24"><line x1="9.5" y1="16.32525" x2="9.5" y2="21" fill="none" stroke="#323232" stroke-linecap="round" stroke-linejoin="round" stroke-width="1.5"/><line x1="14.5" y1="16.32566" x2="14.5" y2="21" fill="none" stroke="#323232" stroke-linecap="round" stroke-linejoin="round" stroke-width="1.5"/><rect x="3" y="3" width="18" height="18" rx="5" stroke-width="1.5" stroke="#323232" stroke-linecap="round" stroke-linejoin="round" fill="none"/><path d="M17,12.0043a4.9679,4.9679,0,0,0-2.77338-4.4519A.50548.50548,0,0,0,13.5,8.00565V11.7543a.25.25,0,0,1-.25.25h-2.5a.25.25,0,0,1-.25-.25V8.00565a.50548.50548,0,0,0-.72661-.45325A4.9679,4.9679,0,0,0,7,12.0043" fill="none" stroke="#323232" stroke-linecap="round" stroke-linejoin="round" stroke-width="1.5"/><path d="M17,12.0043h0A4.99569,4.99569,0,0,1,12.00431,17h-.00862A4.99569,4.99569,0,0,1,7,12.00431H7" fill="none" stroke="#323232" stroke-linecap="round" stroke-linejoin="round" stroke-width="1.5"/><rect width="24" height="24" fill="none"/></svg>