<svg xmlns="http://www.w3.org/2000/svg" viewBox="0 0 24 24"><line x1="15.55966" y1="10.06166" x2="11.8406" y2="13.78072" fill="none" stroke="#323232" stroke-linecap="round" stroke-linejoin="round" stroke-width="1.5"/><line x1="9.7191" y1="11.65958" x2="13.43834" y2="7.94034" fill="none" stroke="#323232" stroke-linecap="round" stroke-linejoin="round" stroke-width="1.5"/><path d="M8.558,18.058l2.91159-2.46371a1.49822,1.49822,0,0,0,.09162-2.20311l-1.45231-1.45231a1.49822,1.49822,0,0,0-2.20311.09162L5.442,14.942,2.53045,17.40575a1.49822,1.49822,0,0,0-.09162,2.20311l1.45231,1.45231a1.49822,1.49822,0,0,0,2.20311-.09162Z" fill="none" stroke="#323232" stroke-linecap="round" stroke-linejoin="round" stroke-width="1.5"/><path d="M22.20711,11.1193l-2.0878,2.0878a1,1,0,0,1-1.41421,0l-8.384-8.384a1,1,0,0,1,.53657-1.69243l3.55962-.616a1,1,0,0,1,.87761.27824l6.9122,6.91219A1,1,0,0,1,22.20711,11.1193Z" fill="none" stroke="#323232" stroke-linecap="round" stroke-linejoin="round" stroke-width="1.5"/></svg>