<svg xmlns="http://www.w3.org/2000/svg" viewBox="0 0 24 24"><path d="M18.5,8.5h3a1,1,0,0,0,.70711-.29289l.5-.5a1,1,0,0,0,0-1.41422l-.5-.5A1,1,0,0,0,21.5,5.5h-3" fill="none" stroke="#323232" stroke-linecap="round" stroke-linejoin="round" stroke-width="1.5"/><path d="M6.02786,11H4A2,2,0,0,1,2,9V5A2,2,0,0,1,4,3H16.02786a2,2,0,0,1,.89443.21115l.47214.23606A2,2,0,0,1,18.5,5.23607V8.76393a2,2,0,0,1-1.10557,1.78886l-.47214.23606A2,2,0,0,1,16.02786,11Z" fill="none" stroke="#323232" stroke-linecap="round" stroke-linejoin="round" stroke-width="1.5"/><line x1="9" y1="7" x2="5" y2="7" fill="none" stroke="#323232" stroke-linecap="round" stroke-linejoin="round" stroke-width="1.5"/><path d="M2.96358,10.70874l.87215,6.97731A1.5,1.5,0,0,0,5.32415,19h.97663a1.5,1.5,0,0,0,1.48841-1.68605L7,11.00009" fill="none" stroke="#323232" stroke-linecap="round" stroke-linejoin="round" stroke-width="1.5"/><path d="M12,3V19.85714A1.14285,1.14285,0,0,0,13.14286,21h1.71428A1.14285,1.14285,0,0,0,16,19.85714V11" fill="none" stroke="#323232" stroke-linecap="round" stroke-linejoin="round" stroke-width="1.5"/></svg>