<svg xmlns="http://www.w3.org/2000/svg" viewBox="0 0 24 24"><path d="M16.89178,4.76508l1.27979-1.2798a1.65686,1.65686,0,0,1,2.34315,0h0a1.65686,1.65686,0,0,1,0,2.34315L19.23493,7.10822" fill="none" stroke="#323232" stroke-linecap="round" stroke-linejoin="round" stroke-width="1.5"/><path d="M13.20065,13.27423,5.98744,20.48744a1.75,1.75,0,0,1-2.47487,0h0a1.75,1.75,0,0,1,0-2.47487l7.21321-7.21322" fill="none" stroke="#323232" stroke-linecap="round" stroke-linejoin="round" stroke-width="1.5"/><path d="M15.91036,12.39561l4.306,4.306a1.01492,1.01492,0,0,0,1.72239-.57412h0a6.08962,6.08962,0,0,0-1.72239-5.16717L18.781,9.525l.72822-.72822a1,1,0,0,0,0-1.41422L16.61746,4.49076a1,1,0,0,0-1.41421,0L14.475,5.219,13.03971,3.78366a6.08961,6.08961,0,0,0-5.16718-1.7224h0a1.01493,1.01493,0,0,0-.57413,1.72239l4.306,4.306L10.51733,9.17669a1,1,0,0,0,0,1.41421l2.89176,2.89177a1,1,0,0,0,1.41422,0Z" fill="none" stroke="#323232" stroke-linecap="round" stroke-linejoin="round" stroke-width="1.5"/></svg>