<svg xmlns="http://www.w3.org/2000/svg" viewBox="0 0 24 24"><path d="M8,3h8a4,4,0,0,1,4,4v6a8,8,0,0,1-8,8h0a8,8,0,0,1-8-8V7A4,4,0,0,1,8,3Z" fill="none" stroke="#323232" stroke-linecap="round" stroke-linejoin="round" stroke-width="1.5"/><rect x="7" y="8" width="10" height="4" rx="1" stroke-width="1.5" stroke="#323232" stroke-linecap="round" stroke-linejoin="round" fill="none"/><path d="M20,7h2a1,1,0,0,1,1,1v3a1,1,0,0,1-1,1H20" fill="none" stroke="#323232" stroke-linecap="round" stroke-linejoin="round" stroke-width="1.5"/><path d="M4,12H2a1,1,0,0,1-1-1V8A1,1,0,0,1,2,7H4" fill="none" stroke="#323232" stroke-linecap="round" stroke-linejoin="round" stroke-width="1.5"/><path d="M0,0H24V24H0Z" fill="none"/></svg>