<svg xmlns="http://www.w3.org/2000/svg" viewBox="0 0 24 24"><path d="M3,22V20.5285a3,3,0,0,1,2.41165-2.94174l2.846-.56919a.9045.9045,0,0,1,.67911.13434l.01242.00828a5.5,5.5,0,0,0,6.1017,0l.01242-.00828a.9045.9045,0,0,1,.67911-.13434l2.846.56919A3,3,0,0,1,21,20.5285V22" fill="none" stroke="#323232" stroke-linecap="round" stroke-linejoin="round" stroke-width="1.5"/><line x1="8" y1="21" x2="8" y2="17.06909" fill="none" stroke="#323232" stroke-linecap="round" stroke-linejoin="round" stroke-width="1.5"/><line x1="16" y1="21" x2="16" y2="17.06909" fill="none" stroke="#323232" stroke-linecap="round" stroke-linejoin="round" stroke-width="1.5"/><path d="M8,9h8a1,1,0,0,0,1-1V7a5,5,0,0,0-5-5h0A5,5,0,0,0,7,7V8A1,1,0,0,0,8,9Z" fill="none" stroke="#323232" stroke-linecap="round" stroke-linejoin="round" stroke-width="1.5"/><line x1="6.5" y1="9" x2="17.5" y2="9" fill="none" stroke="#323232" stroke-linecap="round" stroke-linejoin="round" stroke-width="1.5"/><path d="M16,9v1.99951a4,4,0,0,1-4,4h0a4,4,0,0,1-4-4V9" fill="none" stroke="#323232" stroke-linecap="round" stroke-linejoin="round" stroke-width="1.5"/><line x1="14.10126" y1="14.40491" x2="14.82533" y2="17.30139" fill="none" stroke="#323232" stroke-linecap="round" stroke-linejoin="round" stroke-width="1.5"/><line x1="9.90123" y1="14.40491" x2="9.17719" y2="17.30127" fill="none" stroke="#323232" stroke-linecap="round" stroke-linejoin="round" stroke-width="1.5"/><path d="M10.25,9V7.25A1.75,1.75,0,0,1,12,5.5h0a1.75,1.75,0,0,1,1.75,1.75V9" fill="none" stroke="#323232" stroke-linecap="round" stroke-linejoin="round" stroke-width="1.5"/></svg>