<?xml version="1.0" encoding="UTF-8"?><svg version="1.1" viewBox="0 0 24 24" xmlns="http://www.w3.org/2000/svg" xmlns:xlink="http://www.w3.org/1999/xlink"><!--Generated by IJSVG (https://github.com/iconjar/IJSVG)--><g fill="none"><path d="M0,0h24v24h-24Z"></path><path stroke="#323232" stroke-linecap="round" stroke-linejoin="round" stroke-width="1.5" d="M12.708,21.707l8.998,-9c0.391,-0.391 0.391,-1.025 0,-1.417l-8.998,-9c-0.389,-0.39 -1.027,-0.39 -1.416,0l-8.998,9c-0.391,0.391 -0.391,1.025 0,1.417l8.998,9c0.389,0.389 1.027,0.389 1.416,0Z"></path><path stroke="#323232" stroke-linecap="round" stroke-linejoin="round" stroke-width="1.5" d="M12.229,21.58l3.771,-8.716l-3.764,-10.637c-0.079,-0.222 -0.393,-0.222 -0.471,-4.44089e-16l-3.765,10.637l3.771,8.717c0.086,0.2 0.372,0.2 0.458,-0.001Z"></path><path stroke="#323232" stroke-linecap="round" stroke-linejoin="round" stroke-width="1.5" d="M2.005,11.972l6.529,1.068h6.932l6.529,-1.068"></path></g></svg>