<?xml version="1.0" encoding="UTF-8"?><svg version="1.1" viewBox="0 0 24 24" xmlns="http://www.w3.org/2000/svg" xmlns:xlink="http://www.w3.org/1999/xlink"><!--Generated by IJSVG (https://github.com/iconjar/IJSVG)--><g fill="none"><path d="M0,0h24v24h-24Z"></path><path stroke="#323232" stroke-linecap="round" stroke-linejoin="round" stroke-width="1.5" d="M16.43,9.44l-8.93,-5.23"></path><path stroke="#323232" stroke-linecap="round" stroke-linejoin="round" stroke-width="1.5" d="M16.43,9.44v10.35"></path><path stroke="#323232" stroke-linecap="round" stroke-linejoin="round" stroke-width="1.5" d="M12,17.11l-9,-5.11"></path><path fill-rule="evenodd" stroke="#323232" stroke-linecap="round" stroke-linejoin="round" stroke-width="1.5" d="M12,17.11l9,-5.19"></path><path fill-rule="evenodd" stroke="#323232" stroke-linecap="round" stroke-linejoin="round" stroke-width="1.5" d="M7.5,9.4l9,-5.19"></path><path stroke="#323232" stroke-linecap="round" stroke-linejoin="round" stroke-width="1.5" d="M7.5,9.4v10.39"></path><path fill-rule="evenodd" stroke="#323232" stroke-linecap="round" stroke-linejoin="round" stroke-width="1.5" d="M3.278,6.965l8.722,5.035l8.721,-5.035"></path><path stroke="#323232" stroke-linecap="round" stroke-linejoin="round" stroke-width="1.5" d="M12,12v10.07"></path><path fill-rule="evenodd" stroke="#323232" stroke-linecap="round" stroke-linejoin="round" stroke-width="1.5" d="M21,15.996v-7.992c0,-0.743 -0.396,-1.429 -1.039,-1.8l-6.922,-3.996c-0.643,-0.371 -1.435,-0.371 -2.078,0l-6.922,3.996c-0.643,0.371 -1.039,1.057 -1.039,1.8v7.992c0,0.743 0.396,1.429 1.039,1.8l6.922,3.996c0.643,0.371 1.435,0.371 2.078,0l6.922,-3.996c0.643,-0.371 1.039,-1.057 1.039,-1.8Z"></path></g></svg>