<svg xmlns="http://www.w3.org/2000/svg" viewBox="0 0 24 24"><path d="M3,12V6A3,3,0,0,1,6,3H9" fill="none" stroke="#323232" stroke-linecap="round" stroke-linejoin="round" stroke-width="1.5"/><path d="M11.5,21H5.14916a3.10173,3.10173,0,0,1-3.13649-2.72088,2.98874,2.98874,0,0,1,2.639-3.244A3.49085,3.49085,0,0,1,11.5,16a2.5,2.5,0,0,1,0,5Z" fill="none" stroke="#323232" stroke-linecap="round" stroke-linejoin="round" stroke-width="1.5"/><path d="M14.024,13H19a2,2,0,0,0,2-2V7.25971A2,2,0,0,0,20.24939,5.698L17.56174,3.54784a2.5,2.5,0,0,0-3.12349,0L11.7506,5.698A2,2,0,0,0,11,7.25971V10" fill="none" stroke="#323232" stroke-linecap="round" stroke-linejoin="round" stroke-width="1.5"/><path d="M16.5,21H18a3,3,0,0,0,3-3V16" fill="none" stroke="#323232" stroke-linecap="round" stroke-linejoin="round" stroke-width="1.5"/><path d="M24,0H0V24H24Z" fill="none"/></svg>