<svg xmlns="http://www.w3.org/2000/svg" viewBox="0 0 24 24"><path d="M3,17V11.2a5,5,0,0,1,1.8765-3.90431l4-3.2a5,5,0,0,1,6.247,0l4,3.2A5,5,0,0,1,21,11.2V17a4,4,0,0,1-4,4H7A4,4,0,0,1,3,17Z" fill="none" stroke="#323232" stroke-linecap="round" stroke-linejoin="round" stroke-width="1.5"/><path d="M17,14a2.5,2.5,0,0,1-2.5,2.5H9a2,2,0,0,1,0-4,2.99222,2.99222,0,0,1,5.82648-.9671A2.49211,2.49211,0,0,1,17,14Z" fill="none" stroke="#323232" stroke-linecap="round" stroke-linejoin="round" stroke-width="1.5"/><path d="M0,0H24V24H0Z" fill="none"/></svg>