<svg xmlns="http://www.w3.org/2000/svg" viewBox="0 0 24 24"><path d="M13.79782,20.91907l-1.5728-1.1268a.42857.42857,0,0,0-.49874-.00032L10.1537,20.91548a.42857.42857,0,0,1-.67771-.34872V16.07142A1.07141,1.07141,0,0,1,10.5474,15h2.85718A1.07141,1.07141,0,0,1,14.476,16.07142v4.49926A.42857.42857,0,0,1,13.79782,20.91907Z" fill="none" stroke="#323232" stroke-linecap="round" stroke-linejoin="round" stroke-width="1.5"/><path d="M7,19a5,5,0,0,1-5-5H2A4.98474,4.98474,0,0,1,6.32379,9.06818,5.99809,5.99809,0,0,1,12,5h0a6,6,0,0,1,6,6h0a4,4,0,0,1,4,4h0a4,4,0,0,1-4,4H17" fill="none" stroke="#323232" stroke-linecap="round" stroke-linejoin="round" stroke-width="1.5"/><rect width="24" height="24" fill="none"/></svg>