<svg xmlns="http://www.w3.org/2000/svg" viewBox="0 0 24 24"><path d="M17,2a5,5,0,0,1,5,5" fill="none" stroke="#323232" stroke-linecap="round" stroke-linejoin="round" stroke-width="1.5"/><path d="M17,5a2,2,0,0,1,2,2" fill="none" stroke="#323232" stroke-linecap="round" stroke-linejoin="round" stroke-width="1.5"/><path d="M17,12.5A2.5,2.5,0,0,1,14.5,15H9a2,2,0,0,1,0-4,2.99222,2.99222,0,0,1,5.82648-.9671A2.49211,2.49211,0,0,1,17,12.5Z" fill="none" stroke="#323232" stroke-linecap="round" stroke-linejoin="round" stroke-width="1.5"/><path d="M13,3.05866A9.0278,9.0278,0,1,0,20.94135,11" fill="none" stroke="#323232" stroke-linecap="round" stroke-linejoin="round" stroke-width="1.5"/><path d="M0,0H24V24H0Z" fill="none"/></svg>