<svg xmlns="http://www.w3.org/2000/svg" viewBox="0 0 24 24"><path d="M-.024,24h24V0h-24" fill="none"/><path d="M3,18.5A2.5,2.5,0,0,0,5.5,21H11a2,2,0,0,0,0-4,2.99222,2.99222,0,0,0-5.82648-.9671A2.49211,2.49211,0,0,0,3,18.5Z" fill="none" stroke="#323232" stroke-linecap="round" stroke-linejoin="round" stroke-width="1.5"/><path d="M16,21h2a3,3,0,0,0,3-3V8.50932A3,3,0,0,0,20.12132,6.388L17.612,3.87869A3,3,0,0,0,15.49069,3H7A3,3,0,0,0,4,6v6" fill="none" stroke="#323232" stroke-linecap="round" stroke-linejoin="round" stroke-width="1.5" fill-rule="evenodd"/><path d="M0,0H24V24H0" fill="none"/></svg>