<svg xmlns="http://www.w3.org/2000/svg" viewBox="0 0 24 24"><circle cx="15.75" cy="15.75001" r="3.75" fill="none" stroke="#323232" stroke-linecap="round" stroke-linejoin="round" stroke-width="1.5"/><path d="M14,3h2.976a4,4,0,0,1,4,4v3" fill="none" stroke="#323232" stroke-linecap="round" stroke-linejoin="round" stroke-width="1.5"/><path d="M9.976,21h-3a4,4,0,0,1-4-4V13" fill="none" stroke="#323232" stroke-linecap="round" stroke-linejoin="round" stroke-width="1.5"/><path d="M3,7.5A2.5,2.5,0,0,0,5.5,10H11a2,2,0,0,0,0-4,2.99222,2.99222,0,0,0-5.82648-.9671A2.49211,2.49211,0,0,0,3,7.5Z" fill="none" stroke="#323232" stroke-linecap="round" stroke-linejoin="round" stroke-width="1.5"/><line x1="18.40166" y1="18.40165" x2="20" y2="19.99998" fill="none" stroke="#323232" stroke-linecap="round" stroke-linejoin="round" stroke-width="1.5"/><path d="M0,24V0H24V24Z" fill="none"/></svg>