<svg xmlns="http://www.w3.org/2000/svg" viewBox="0 0 24 24"><path d="M0,0H24V24H0Z" fill="none"/><path d="M10.56178,11.58579l2.82842,2.82843" fill="none" stroke="#323232" stroke-linecap="round" stroke-linejoin="round" stroke-width="1.5"/><path d="M13.3902,11.58579l-2.82842,2.82843" fill="none" stroke="#323232" stroke-linecap="round" stroke-linejoin="round" stroke-width="1.5"/><path d="M2,14H2a5,5,0,0,0,5,5H18a4,4,0,0,0,4-4h0a4,4,0,0,0-4-4h0a6,6,0,0,0-6-6h0a5.9981,5.9981,0,0,0-5.6762,4.06817A4.98475,4.98475,0,0,0,2,14Z" fill="none" stroke="#323232" stroke-linecap="round" stroke-linejoin="round" stroke-width="1.5"/></svg>