<svg xmlns="http://www.w3.org/2000/svg" viewBox="0 0 24 24"><path d="M7.976,3h-3a2,2,0,0,0-2,2V7" fill="none" stroke="#323232" stroke-linecap="round" stroke-linejoin="round" stroke-width="1.5"/><path d="M15.976,21h3a2,2,0,0,0,2-2V15" fill="none" stroke="#323232" stroke-linecap="round" stroke-linejoin="round" stroke-width="1.5"/><path d="M12.5,11.5H19a2.99215,2.99215,0,0,0,.34833-5.96485A3.49085,3.49085,0,0,0,12.5,6.5a2.5,2.5,0,0,0,0,5Z" fill="none" stroke="#323232" stroke-linecap="round" stroke-linejoin="round" stroke-width="1.5"/><path d="M13,15v4a2,2,0,0,1-2,2H4a2,2,0,0,1-2-2V12a2,2,0,0,1,2-2H7" fill="none" stroke="#323232" stroke-linecap="round" stroke-linejoin="round" stroke-width="1.5"/><line x1="10" y1="17.00001" x2="5" y2="17.00001" fill="none" stroke="#323232" stroke-linecap="round" stroke-linejoin="round" stroke-width="1.5"/><line x1="8" y1="14.00001" x2="5" y2="14.00001" fill="none" stroke="#323232" stroke-linecap="round" stroke-linejoin="round" stroke-width="1.5"/><path d="M24,24H0V0H24Z" fill="none"/></svg>