<svg xmlns="http://www.w3.org/2000/svg" viewBox="0 0 24 24"><path d="M7,19a5,5,0,0,1-5-5H2A4.98474,4.98474,0,0,1,6.32379,9.06818,5.99809,5.99809,0,0,1,12,5h0a6,6,0,0,1,6,6h0a4,4,0,0,1,4,4h0a4,4,0,0,1-4,4H17" fill="none" stroke="#323232" stroke-linecap="round" stroke-linejoin="round" stroke-width="1.5"/><rect x="9.25" y="17.50001" width="5.5" height="3.5" rx="1" stroke-width="1.5" stroke="#323232" stroke-linecap="round" stroke-linejoin="round" fill="none"/><path d="M12,14.5h0a1.625,1.625,0,0,1,1.625,1.625V17.5a0,0,0,0,1,0,0h-3.25a0,0,0,0,1,0,0V16.125A1.625,1.625,0,0,1,12,14.5Z" fill="none" stroke="#323232" stroke-linecap="round" stroke-linejoin="round" stroke-width="1.5"/><rect width="24" height="24" fill="none"/></svg>