<svg xmlns="http://www.w3.org/2000/svg" viewBox="0 0 24 24"><path d="M16.5,21H17a4,4,0,0,0,4-4V7a4,4,0,0,0-4-4H7A4,4,0,0,0,3,7v5" fill="none" stroke="#323232" stroke-linecap="round" stroke-linejoin="round" stroke-width="1.5"/><line x1="13.97599" y1="10.00001" x2="16.97599" y2="7.00001" fill="none" stroke="#323232" stroke-linecap="round" stroke-linejoin="round" stroke-width="1.5"/><polyline points="13.976 7 16.976 7 16.976 10" fill="none" stroke="#323232" stroke-linecap="round" stroke-linejoin="round" stroke-width="1.5"/><path d="M11.5,21H5a2.99215,2.99215,0,0,1-.34833-5.96485A3.49085,3.49085,0,0,1,11.5,16a2.5,2.5,0,0,1,0,5Z" fill="none" stroke="#323232" stroke-linecap="round" stroke-linejoin="round" stroke-width="1.5"/><path d="M0,24V0H24V24Z" fill="none"/></svg>