<svg xmlns="http://www.w3.org/2000/svg" viewBox="0 0 24 24"><path d="M7.976,21H4.00215a2,2,0,0,1-1.83829-2.78783l1.28572-3A2,2,0,0,1,5.28787,14H10" fill="none" stroke="#323232" stroke-linecap="round" stroke-linejoin="round" stroke-width="1.5"/><path d="M10,14H5.5A1.5,1.5,0,0,1,4,12.5V5A2,2,0,0,1,6,3H18a2,2,0,0,1,2,2v7" fill="none" stroke="#323232" stroke-linecap="round" stroke-linejoin="round" stroke-width="1.5"/><path d="M21,18.5A2.5,2.5,0,0,1,18.5,21H13a2,2,0,0,1,0-4,2.99222,2.99222,0,0,1,5.82648-.9671A2.49211,2.49211,0,0,1,21,18.5Z" fill="none" stroke="#323232" stroke-linecap="round" stroke-linejoin="round" stroke-width="1.5"/><path d="M0,0H24V24H0Z" fill="none"/></svg>