<svg xmlns="http://www.w3.org/2000/svg" viewBox="0 0 24 24"><rect width="24" height="24" fill="none"/><path d="M21,13v2a2,2,0,0,1-2,2H5a2,2,0,0,1-2-2V5A2,2,0,0,1,5,3h5" fill="none" stroke="#323232" stroke-linecap="round" stroke-linejoin="round" stroke-width="1.5"/><line x1="12" y1="21.00001" x2="12" y2="17.00001" fill="none" stroke="#323232" stroke-linecap="round" stroke-linejoin="round" stroke-width="1.5"/><line x1="15.5" y1="21.00001" x2="8.5" y2="21.00001" fill="none" stroke="#323232" stroke-linecap="round" stroke-linejoin="round" stroke-width="1.5"/><path d="M21,7.5A2.5,2.5,0,0,1,18.5,10H13a2,2,0,0,1,0-4,2.99222,2.99222,0,0,1,5.82648-.9671A2.49211,2.49211,0,0,1,21,7.5Z" fill="none" stroke="#323232" stroke-linecap="round" stroke-linejoin="round" stroke-width="1.5"/></svg>