<svg xmlns="http://www.w3.org/2000/svg" viewBox="0 0 24 24"><path d="M10,3H6A3,3,0,0,0,3,6v9a3,3,0,0,0,3,3H8V20.4429a.5561.5561,0,0,0,.90349.43425L12.5,18H18a3,3,0,0,0,3-3V14" fill="none" stroke="#323232" stroke-linecap="round" stroke-linejoin="round" stroke-width="1.5"/><path d="M22,7.95a2.75,2.75,0,0,1-2.75,2.75H13.2a2.2,2.2,0,1,1,0-4.4A3.29144,3.29144,0,0,1,19.60912,5.2362,2.74133,2.74133,0,0,1,22,7.95Z" fill="none" stroke="#323232" stroke-linecap="round" stroke-linejoin="round" stroke-width="1.5"/><path d="M0,0H24V24H0Z" fill="none"/></svg>