<svg xmlns="http://www.w3.org/2000/svg" viewBox="0 0 24 24"><path d="M13.5,2.75H18a.5.5,0,0,1,.5.5v1.5A2.5,2.5,0,0,1,16,7.25h-.5A2.5,2.5,0,0,1,13,4.75V3.25a.5.5,0,0,1,.5-.5Z" transform="translate(20.75 -10.75) rotate(90)" fill="none" stroke="#323232" stroke-linecap="round" stroke-linejoin="round" stroke-width="1.5"/><path d="M18,6.5h2" fill="none" stroke="#323232" stroke-linecap="round" stroke-linejoin="round" stroke-width="1.5"/><path d="M18,3.5h2" fill="none" stroke="#323232" stroke-linecap="round" stroke-linejoin="round" stroke-width="1.5"/><path d="M13.5,5H12a8,8,0,0,0-8,8v0a8,8,0,0,0,8,8h0a8,8,0,0,0,8-8v0" fill="none" stroke="#323232" stroke-linecap="round" stroke-linejoin="round" stroke-width="1.5"/><path d="M10.1225,15.04942h0a2.67693,2.67693,0,0,1,0-3.43234l1.11519-1.33141a.99241.99241,0,0,1,1.52464,0l1.11519,1.33141a2.67693,2.67693,0,0,1,0,3.43234h0A2.44418,2.44418,0,0,1,10.1225,15.04942Z" fill="none" stroke="#323232" stroke-linecap="round" stroke-linejoin="round" stroke-width="1.5"/><path d="M0,24V0H24V24Z" fill="none"/></svg>