<svg xmlns="http://www.w3.org/2000/svg" viewBox="0 0 24 24"><rect width="24" height="24" transform="translate(24 24) rotate(180)" fill="none"/><circle cx="12" cy="12" r="9.5" fill="none" stroke="#323232" stroke-linecap="round" stroke-linejoin="round" stroke-width="1.5"/><path d="M12.98621,13.74081l1.50244,2.60233a1.01,1.01,0,0,0,1.522.28607,6.09391,6.09391,0,0,0,1.96686-3.34949,1.02718,1.02718,0,0,0-.99628-1.247H14" fill="none" stroke="#323232" stroke-linecap="round" stroke-linejoin="round" stroke-width="1.5"/><circle cx="12" cy="12" r="2" fill="none" stroke="#323232" stroke-linecap="round" stroke-linejoin="round" stroke-width="1.5"/><path d="M11.01379,13.74081,9.51135,16.34314a1.01,1.01,0,0,1-1.522.28607,6.09391,6.09391,0,0,1-1.96686-3.34949,1.02718,1.02718,0,0,1,.99628-1.247H10" fill="none" stroke="#323232" stroke-linecap="round" stroke-linejoin="round" stroke-width="1.5"/><path d="M11.01392,10.25914,9.50983,7.65405a1.00944,1.00944,0,0,1,.50958-1.45978,6.066,6.066,0,0,1,3.96118,0,1.00944,1.00944,0,0,1,.50958,1.45978L12.986,10.25936" fill="none" stroke="#323232" stroke-linecap="round" stroke-linejoin="round" stroke-width="1.5"/></svg>