<svg xmlns="http://www.w3.org/2000/svg" viewBox="0 0 24 24"><line x1="16" y1="6" x2="8" y2="6" fill="none" stroke="#323232" stroke-linecap="round" stroke-linejoin="round" stroke-width="1.5"/><path d="M7,18,9.83922,3.80388A1,1,0,0,1,10.8198,3h2.3604a1,1,0,0,1,.98058.80388L17,18" fill="none" stroke="#323232" stroke-linecap="round" stroke-linejoin="round" stroke-width="1.5"/><path d="M7.5,21A3.03126,3.03126,0,0,1,3,21" fill="none" stroke="#323232" stroke-linecap="round" stroke-linejoin="round" stroke-width="1.5"/><path d="M12,21a3.03126,3.03126,0,0,1-4.5,0" fill="none" stroke="#323232" stroke-linecap="round" stroke-linejoin="round" stroke-width="1.5"/><path d="M16.5,21A3.03126,3.03126,0,0,1,12,21" fill="none" stroke="#323232" stroke-linecap="round" stroke-linejoin="round" stroke-width="1.5"/><path d="M21,21a3.03126,3.03126,0,0,1-4.5,0" fill="none" stroke="#323232" stroke-linecap="round" stroke-linejoin="round" stroke-width="1.5"/><line x1="7.76494" y1="14.17879" x2="17" y2="18" fill="none" stroke="#323232" stroke-linecap="round" stroke-linejoin="round" stroke-width="1.5"/><line x1="7.76494" y1="14.17879" x2="15.61943" y2="11.09221" fill="none" stroke="#323232" stroke-linecap="round" stroke-linejoin="round" stroke-width="1.5"/><line x1="15.61943" y1="11.09221" x2="8.93028" y2="8.35714" fill="none" stroke="#323232" stroke-linecap="round" stroke-linejoin="round" stroke-width="1.5"/><path d="M0,24V0H24V24Z" fill="none"/></svg>