<svg xmlns="http://www.w3.org/2000/svg" viewBox="0 0 24 24"><path d="M0,24V0H24V24Z" fill="none"/><line x1="19.5" y1="22" x2="19.5" y2="11.31369" fill="none" stroke="#323232" stroke-linecap="round" stroke-linejoin="round" stroke-width="1.5"/><path d="M14.36084,6.60528,13.75132,3.6268a1.0231,1.0231,0,0,1,.49077-1.09115l.68-.39258a1.01485,1.01485,0,0,1,.82367-.095,7.23538,7.23538,0,0,1,4.78593,8.28948,1.01486,1.01486,0,0,1-.49411.66579l-.72837.42053a1.02311,1.02311,0,0,1-1.20661-.13529L15.88,9.23082,4.9516,15.57842A1.51666,1.51666,0,1,1,3.435,12.95149Z" fill="none" stroke="#323232" stroke-linecap="round" stroke-linejoin="round" stroke-width="1.5"/><line x1="22" y1="22" x2="2" y2="22" fill="none" stroke="#323232" stroke-linecap="round" stroke-linejoin="round" stroke-width="1.5"/><line x1="4" y1="22" x2="4" y2="15.78187" fill="none" stroke="#323232" stroke-linecap="round" stroke-linejoin="round" stroke-width="1.5"/><line x1="15" y1="22" x2="13.93411" y2="10.36359" fill="none" stroke="#323232" stroke-linecap="round" stroke-linejoin="round" stroke-width="1.5"/><line x1="9.84931" y1="12.73366" x2="9.00339" y2="22" fill="none" stroke="#323232" stroke-linecap="round" stroke-linejoin="round" stroke-width="1.5"/></svg>