<svg xmlns="http://www.w3.org/2000/svg" viewBox="0 0 24 24"><path d="M0,24V0H24V24Z" fill="none"/><path d="M10,18V12.5A1.5,1.5,0,0,0,8.5,11h0A1.5,1.5,0,0,0,7,12.5V18" fill="none" stroke="#323232" stroke-linecap="round" stroke-linejoin="round" stroke-width="1.5"/><path d="M17,18V12.5A1.5,1.5,0,0,0,15.5,11h0A1.5,1.5,0,0,0,14,12.5V18" fill="none" stroke="#323232" stroke-linecap="round" stroke-linejoin="round" stroke-width="1.5"/><line x1="22" y1="6" x2="2" y2="6" fill="none" stroke="#323232" stroke-linecap="round" stroke-linejoin="round" stroke-width="1.5"/><path d="M8,6.01691V4.00564A1.00564,1.00564,0,0,0,6.99436,3H4.00564A1.00564,1.00564,0,0,0,3,4.00564V18" fill="none" stroke="#323232" stroke-linecap="round" stroke-linejoin="round" stroke-width="1.5"/><path d="M22,21a2.5,2.5,0,0,1-4,0" fill="none" stroke="#323232" stroke-linecap="round" stroke-linejoin="round" stroke-width="1.5"/><path d="M6,21a2.5,2.5,0,0,1-4,0" fill="none" stroke="#323232" stroke-linecap="round" stroke-linejoin="round" stroke-width="1.5"/><path d="M10,21a2.5,2.5,0,0,1-4,0" fill="none" stroke="#323232" stroke-linecap="round" stroke-linejoin="round" stroke-width="1.5"/><path d="M14,21a2.5,2.5,0,0,1-4,0" fill="none" stroke="#323232" stroke-linecap="round" stroke-linejoin="round" stroke-width="1.5"/><path d="M18,21a2.5,2.5,0,0,1-4,0" fill="none" stroke="#323232" stroke-linecap="round" stroke-linejoin="round" stroke-width="1.5"/><path d="M16,6.01691V4.00564A1.00564,1.00564,0,0,1,17.00564,3h2.98872A1.00564,1.00564,0,0,1,21,4.00564V18" fill="none" stroke="#323232" stroke-linecap="round" stroke-linejoin="round" stroke-width="1.5"/></svg>