<svg xmlns="http://www.w3.org/2000/svg" viewBox="0 0 24 24"><rect y="-0.00001" width="24" height="24" fill="none"/><line x1="8.25" y1="17" x2="8.75" y2="2.99999" fill="none" stroke="#323232" stroke-linecap="round" stroke-linejoin="round" stroke-width="1.5"/><line x1="21.62653" y1="10" x2="2.34036" y2="10" fill="none" stroke="#323232" stroke-linecap="round" stroke-linejoin="round" stroke-width="1.5"/><line x1="16" y1="20.99999" x2="8" y2="20.99999" fill="none" stroke="#323232" stroke-linecap="round" stroke-linejoin="round" stroke-width="1.5"/><path d="M14,18c0,1.65685.67157,3,1.5,3" fill="none" stroke="#323232" stroke-linecap="round" stroke-linejoin="round" stroke-width="1.5"/><path d="M10,18c0,1.65685-.67157,3-1.5,3" fill="none" stroke="#323232" stroke-linecap="round" stroke-linejoin="round" stroke-width="1.5"/><line x1="14" y1="17.99999" x2="14" y2="16.99999" fill="none" stroke="#323232" stroke-linecap="round" stroke-linejoin="round" stroke-width="1.5"/><line x1="10" y1="17.99999" x2="10" y2="16.99999" fill="none" stroke="#323232" stroke-linecap="round" stroke-linejoin="round" stroke-width="1.5"/><path d="M4.71439,3H19.28561A2,2,0,0,1,21.28053,4.8575l.71428,10A2,2,0,0,1,19.9999,17H4.0001a2,2,0,0,1-1.99491-2.14249l.71428-10A2,2,0,0,1,4.71439,3Z" fill="none" stroke="#323232" stroke-linecap="round" stroke-linejoin="round" stroke-width="1.5"/><line x1="15.75" y1="17" x2="15.25" y2="2.99999" fill="none" stroke="#323232" stroke-linecap="round" stroke-linejoin="round" stroke-width="1.5"/></svg>