<svg xmlns="http://www.w3.org/2000/svg" viewBox="0 0 24 24"><path d="M12,21H7a4,4,0,0,1-4-4V14" fill="none" stroke="#323232" stroke-linecap="round" stroke-linejoin="round" stroke-width="1.5"/><path d="M14,3h3a4,4,0,0,1,4,4v3" fill="none" stroke="#323232" stroke-linecap="round" stroke-linejoin="round" stroke-width="1.5"/><circle cx="6.99999" cy="7" r="2" fill="none" stroke="#323232" stroke-linecap="round" stroke-linejoin="round" stroke-width="1.5"/><line x1="2.48999" y1="7" x2="1.99999" y2="7" fill="none" stroke="#323232" stroke-linecap="round" stroke-linejoin="round" stroke-width="1.5"/><line x1="11.50999" y1="7" x2="11.99999" y2="7" fill="none" stroke="#323232" stroke-linecap="round" stroke-linejoin="round" stroke-width="1.5"/><line x1="6.99999" y1="11.51" x2="6.99999" y2="12" fill="none" stroke="#323232" stroke-linecap="round" stroke-linejoin="round" stroke-width="1.5"/><line x1="6.99999" y1="2.49" x2="6.99999" y2="2" fill="none" stroke="#323232" stroke-linecap="round" stroke-linejoin="round" stroke-width="1.5"/><line x1="3.81099" y1="10.189" x2="3.46399" y2="10.536" fill="none" stroke="#323232" stroke-linecap="round" stroke-linejoin="round" stroke-width="1.5"/><line x1="10.18899" y1="3.811" x2="10.53599" y2="3.464" fill="none" stroke="#323232" stroke-linecap="round" stroke-linejoin="round" stroke-width="1.5"/><line x1="10.18899" y1="10.189" x2="10.53599" y2="10.536" fill="none" stroke="#323232" stroke-linecap="round" stroke-linejoin="round" stroke-width="1.5"/><line x1="3.81099" y1="3.811" x2="3.46399" y2="3.464" fill="none" stroke="#323232" stroke-linecap="round" stroke-linejoin="round" stroke-width="1.5"/><path d="M16.68017,11.2187a.49993.49993,0,0,1,.91261.28225v3.24443h2.90641a.5.5,0,0,1,.41268.78227L17.31981,20.7813a.49993.49993,0,0,1-.91261-.28225V17.25462H13.50079a.5.5,0,0,1-.41268-.78227Z" fill="none" stroke="#323232" stroke-linecap="round" stroke-linejoin="round" stroke-width="1.5"/><path d="M24,24,0,24,0,0,24,0Z" fill="none"/></svg>