<svg xmlns="http://www.w3.org/2000/svg" viewBox="0 0 24 24"><rect width="24" height="24" fill="none"/><path d="M11.5,7a1.5,1.5,0,0,1,0,3H8" fill="none" stroke="#323232" stroke-linecap="round" stroke-linejoin="round" stroke-width="1.5"/><rect x="3" y="3" width="18" height="18" rx="5" stroke-width="1.5" stroke="#323232" stroke-linecap="round" stroke-linejoin="round" fill="none"/><path d="M14.5,14.61072A1.48881,1.48881,0,0,0,15.5,15h0A1.5,1.5,0,0,0,17,13.5h0A1.5,1.5,0,0,0,15.5,12H13" fill="none" stroke="#323232" stroke-linecap="round" stroke-linejoin="round" stroke-width="1.5"/><path d="M7.5,16.31018A1.98675,1.98675,0,0,0,9,17H9a2,2,0,0,0,2-2h0a2,2,0,0,0-2-2H7" fill="none" stroke="#323232" stroke-linecap="round" stroke-linejoin="round" stroke-width="1.5"/><path d="M10.5,7.38928A1.48881,1.48881,0,0,1,11.5,7h0A1.5,1.5,0,0,1,13,8.5h0A1.5,1.5,0,0,1,11.5,10H8" fill="none" stroke="#323232" stroke-linecap="round" stroke-linejoin="round" stroke-width="1.5"/></svg>