<svg xmlns="http://www.w3.org/2000/svg" viewBox="0 0 24 24"><circle cx="12" cy="12" r="9.5" fill="none" stroke="#323232" stroke-linecap="round" stroke-linejoin="round" stroke-width="1.5"/><line x1="13.98719" y1="21.29137" x2="13.42031" y2="14.48872" fill="none" stroke="#323232" stroke-linecap="round" stroke-linejoin="round" stroke-width="1.5"/><line x1="10.01281" y1="21.29137" x2="10.57969" y2="14.48872" fill="none" stroke="#323232" stroke-linecap="round" stroke-linejoin="round" stroke-width="1.5"/><path d="M10.55556,11.01235V6.94445A1.44444,1.44444,0,0,1,12,5.5h0a1.44444,1.44444,0,0,1,1.44444,1.44445v4.0677" fill="none" stroke="#323232" stroke-linecap="round" stroke-linejoin="round" stroke-width="1.5"/><circle cx="12" cy="12" r="1.75" fill="none" stroke="#323232" stroke-linecap="round" stroke-linejoin="round" stroke-width="1.5"/><path d="M12.1293,13.74536l3.53006,2.034a1.44318,1.44318,0,0,0,1.97107-.53013h0a1.44317,1.44317,0,0,0-.52892-1.97013l-3.52222-2.03376" fill="none" stroke="#323232" stroke-linecap="round" stroke-linejoin="round" stroke-width="1.5"/><path d="M11.872,13.74612l-3.53,2.034A1.44319,1.44319,0,0,1,6.37084,15.25h0a1.44316,1.44316,0,0,1,.52892-1.97012L10.422,11.24612" fill="none" stroke="#323232" stroke-linecap="round" stroke-linejoin="round" stroke-width="1.5"/><rect width="24" height="24" fill="none"/></svg>