<svg xmlns="http://www.w3.org/2000/svg" viewBox="0 0 24 24"><path d="M21,14v.928A2.57112,2.57112,0,0,1,18.42976,17.5H5.571A2.5709,2.5709,0,0,1,3,14.92921V5.571A2.5709,2.5709,0,0,1,5.5708,3H9" fill="none" stroke="#323232" stroke-linecap="round" stroke-linejoin="round" stroke-width="1.5"/><line x1="14.25" y1="17.5" x2="14.5" y2="21" fill="none" stroke="#323232" stroke-linecap="round" stroke-linejoin="round" stroke-width="1.5"/><line x1="9.75" y1="17.5" x2="9.5" y2="21" fill="none" stroke="#323232" stroke-linecap="round" stroke-linejoin="round" stroke-width="1.5"/><line x1="8" y1="21.00001" x2="16" y2="21.00001" fill="none" stroke="#323232" stroke-linecap="round" stroke-linejoin="round" stroke-width="1.5"/><path d="M15.79687,3.4453,16.5,4.5H20a1,1,0,0,1,1,1V10a1,1,0,0,1-1,1H13a1,1,0,0,1-1-1V4a1,1,0,0,1,1-1h1.96482A1,1,0,0,1,15.79687,3.4453Z" fill="none" stroke="#323232" stroke-linecap="round" stroke-linejoin="round" stroke-width="1.5"/></svg>