<svg xmlns="http://www.w3.org/2000/svg" viewBox="0 0 24 24"><path d="M8,21H6a2,2,0,0,1-2-2V7A2,2,0,0,1,6,5H8" fill="none" stroke="#323232" stroke-linecap="round" stroke-linejoin="round" stroke-width="1.5"/><path d="M20,11V7a2,2,0,0,0-2-2H16" fill="none" stroke="#323232" stroke-linecap="round" stroke-linejoin="round" stroke-width="1.5"/><path d="M12.5,21h7A1.5,1.5,0,0,0,21,19.5v-4A1.5,1.5,0,0,0,19.5,14H16.625a.5.5,0,0,1-.41343-.21878l-.914-1.34365A1,1,0,0,0,14.4708,12H12.5A1.5,1.5,0,0,0,11,13.5v6A1.5,1.5,0,0,0,12.5,21Z" fill="none" stroke="#323232" stroke-linecap="round" stroke-linejoin="round" stroke-width="1.5"/><rect x="8" y="3" width="8" height="4" rx="1" stroke-width="1.5" stroke="#323232" stroke-linecap="round" stroke-linejoin="round" fill="none"/></svg>