<svg xmlns="http://www.w3.org/2000/svg" viewBox="0 0 24 24"><path d="M12.5,20h7A1.5,1.5,0,0,0,21,18.5v-4A1.5,1.5,0,0,0,19.5,13H16.625a.5.5,0,0,1-.41343-.21878l-.914-1.34365A1,1,0,0,0,14.4708,11H12.5A1.5,1.5,0,0,0,11,12.5v6A1.5,1.5,0,0,0,12.5,20Z" fill="none" stroke="#323232" stroke-linecap="round" stroke-linejoin="round" stroke-width="1.5"/><path d="M21,10V9a2,2,0,0,0-2-2H12.53518a1,1,0,0,1-.83205-.4453L10.29687,4.4453A1,1,0,0,0,9.46482,4H5A2,2,0,0,0,3,6V18a2,2,0,0,0,2,2H8" fill="none" stroke="#323232" stroke-linecap="round" stroke-linejoin="round" stroke-width="1.5"/></svg>