<svg xmlns="http://www.w3.org/2000/svg" viewBox="0 0 24 24"><line x1="5.50001" y1="20" x2="5.50001" y2="17.5" fill="none" stroke="#323232" stroke-linecap="round" stroke-linejoin="round" stroke-width="1.5"/><path d="M3.389,14.0423,3.01979,12.196A1,1,0,0,1,4.00033,11H6.99971a1,1,0,0,1,.98053,1.196L7.611,14.0423a1,1,0,0,0,.1231.71059L8.928,16.74269A.5.5,0,0,1,8.49922,17.5H2.50082a.50005.50005,0,0,1-.42879-.75732L3.2659,14.75289A1,1,0,0,0,3.389,14.0423Z" fill="none" stroke="#323232" stroke-linecap="round" stroke-linejoin="round" stroke-width="1.5"/><path d="M11,20h8a2,2,0,0,0,2-2V9a2,2,0,0,0-2-2H12.53518a1,1,0,0,1-.83205-.4453L10.29687,4.4453A1,1,0,0,0,9.46482,4H5A2,2,0,0,0,3,6V8" fill="none" stroke="#323232" stroke-linecap="round" stroke-linejoin="round" stroke-width="1.5"/></svg>