<svg xmlns="http://www.w3.org/2000/svg" viewBox="0 0 24 24"><path d="M21,10V9a2,2,0,0,0-2-2H12.53518a1,1,0,0,1-.83205-.4453L10.29687,4.4453A1,1,0,0,0,9.46482,4H5A2,2,0,0,0,3,6V18a2,2,0,0,0,2,2H7" fill="none" stroke="#323232" stroke-linecap="round" stroke-linejoin="round" stroke-width="1.5"/><rect x="10" y="13" width="12" height="7" rx="2" stroke-width="1.5" stroke="#323232" stroke-linecap="round" stroke-linejoin="round" fill="none"/><path d="M12.995,16.5l.005.005.005-.005L13,16.495l-.005.005" fill="none" stroke="#323232" stroke-linecap="round" stroke-linejoin="round" stroke-width="1.5"/><path d="M15.995,16.5l.005.005.005-.005L16,16.495l-.005.005" fill="none" stroke="#323232" stroke-linecap="round" stroke-linejoin="round" stroke-width="1.5"/><path d="M18.995,16.5l.005.005.005-.005L19,16.495l-.005.005" fill="none" stroke="#323232" stroke-linecap="round" stroke-linejoin="round" stroke-width="1.5"/></svg>