<svg xmlns="http://www.w3.org/2000/svg" viewBox="0 0 24 24"><path d="M10.32977,14.17062l.00036.00036a2.29651,2.29651,0,0,1-.12267,3.35659L7.62221,19.76793a.95.95,0,0,1-1.24431,0L3.79244,17.52739a2.29623,2.29623,0,0,1-.12265-3.35622h0a2.2809,2.2809,0,0,1,3.10812-.11469l.22214.19223.22119-.19168A2.28029,2.28029,0,0,1,10.32977,14.17062Z" fill="none" stroke="#323232" stroke-linecap="round" stroke-linejoin="round" stroke-width="1.5"/><path d="M3,10.5V6A2,2,0,0,1,5,4H9.47056a1,1,0,0,1,.82678.43748l1.44584,2.125A1,1,0,0,0,12.57,7H19a2,2,0,0,1,2,2v9a2,2,0,0,1-2,2H13" fill="none" stroke="#323232" stroke-linecap="round" stroke-linejoin="round" stroke-width="1.5"/></svg>