<svg xmlns="http://www.w3.org/2000/svg" viewBox="0 0 24 24"><path d="M3,12.995,3.005,13,3,13.005,2.995,13,3,12.995" fill="none" stroke="#323232" stroke-linecap="round" stroke-linejoin="round" stroke-width="1.5"/><path d="M6,12.995,6.005,13,6,13.005,5.995,13,6,12.995" fill="none" stroke="#323232" stroke-linecap="round" stroke-linejoin="round" stroke-width="1.5"/><path d="M9,12.995,9.005,13,9,13.005,8.995,13,9,12.995" fill="none" stroke="#323232" stroke-linecap="round" stroke-linejoin="round" stroke-width="1.5"/><path d="M12,12.995l.005.005L12,13.005,11.995,13,12,12.995" fill="none" stroke="#323232" stroke-linecap="round" stroke-linejoin="round" stroke-width="1.5"/><path d="M15,12.995l.005.005L15,13.005,14.995,13,15,12.995" fill="none" stroke="#323232" stroke-linecap="round" stroke-linejoin="round" stroke-width="1.5"/><path d="M18,12.995l.005.005L18,13.005,17.995,13,18,12.995" fill="none" stroke="#323232" stroke-linecap="round" stroke-linejoin="round" stroke-width="1.5"/><path d="M21,12.995l.005.005L21,13.005,20.995,13,21,12.995" fill="none" stroke="#323232" stroke-linecap="round" stroke-linejoin="round" stroke-width="1.5"/><path d="M3,9.99881V6A2,2,0,0,1,5,4H9.46482a1,1,0,0,1,.83205.4453l1.40626,2.1094A1,1,0,0,0,12.53518,7H19a2,2,0,0,1,2,2v.99881" fill="none" stroke="#323232" stroke-linecap="round" stroke-linejoin="round" stroke-width="1.5"/><path d="M3,15.99881V18a2,2,0,0,0,2,2H19a2,2,0,0,0,2-2V15.99881" fill="none" stroke="#323232" stroke-linecap="round" stroke-linejoin="round" stroke-width="1.5"/></svg>