<svg xmlns="http://www.w3.org/2000/svg" viewBox="0 0 24 24"><path d="M8.625,16.64874V19a1,1,0,0,1-1,1H6.375a1,1,0,0,1-1-1V16.64874" fill="none" stroke="#323232" stroke-linecap="round" stroke-linejoin="round" stroke-width="1.5"/><path d="M5.375,16.64874,3.42974,15.29833A1,1,0,0,1,3,14.47687V13a1,1,0,0,1,1-1h6a1,1,0,0,1,1,1v1.47687a1,1,0,0,1-.42974.82146L8.625,16.64874" fill="none" stroke="#323232" stroke-linecap="round" stroke-linejoin="round" stroke-width="1.5"/><path d="M12,20h7a2,2,0,0,0,2-2V9a2,2,0,0,0-2-2H12.53518a1,1,0,0,1-.83205-.4453L10.29687,4.4453A1,1,0,0,0,9.46482,4H5A2,2,0,0,0,3,6V9" fill="none" stroke="#323232" stroke-linecap="round" stroke-linejoin="round" stroke-width="1.5"/></svg>