<svg xmlns="http://www.w3.org/2000/svg" viewBox="0 0 24 24"><path d="M16,3h2a3,3,0,0,1,3,3v4" fill="none" stroke="#323232" stroke-linecap="round" stroke-linejoin="round" stroke-width="1.5"/><path d="M7,21H6a3,3,0,0,1-3-3V16" fill="none" stroke="#323232" stroke-linecap="round" stroke-linejoin="round" stroke-width="1.5"/><path d="M14,8V7a2,2,0,0,0-2-2H9.1671a1,1,0,0,1-.82686-.43758L7.5751,3.43757A1,1,0,0,0,6.74826,3H4.5A1.5,1.5,0,0,0,3,4.5V11a2,2,0,0,0,2,2H7" fill="none" stroke="#323232" stroke-linecap="round" stroke-linejoin="round" stroke-width="1.5"/><path d="M12,21h7.3698A1.63021,1.63021,0,0,0,21,19.3698V15a2,2,0,0,0-2-2H16.1671a1,1,0,0,1-.82686-.43758l-.76513-1.12484A1,1,0,0,0,13.74825,11H11.5A1.5,1.5,0,0,0,10,12.5V19A2,2,0,0,0,12,21Z" fill="none" stroke="#323232" stroke-linecap="round" stroke-linejoin="round" stroke-width="1.5"/><path d="M0,0H24V24H0Z" fill="none"/></svg>