<svg xmlns="http://www.w3.org/2000/svg" viewBox="0 0 24 24"><path d="M16.20764,13.63345l-2.07246,2.07246a1,1,0,0,1-.70711.2929H11.75a.25.25,0,0,1-.25-.25V14.07066a1,1,0,0,1,.29279-.707L13.864,11.29184a.99994.99994,0,0,1,1.41437-.00012l.92841.9284A.9992.9992,0,0,1,16.20764,13.63345Z" fill="none" stroke="#323232" stroke-linecap="round" stroke-linejoin="round" stroke-width="1.5"/><line x1="7.5" y1="15.99878" x2="8.5" y2="15.99878" fill="none" stroke="#323232" stroke-linecap="round" stroke-linejoin="round" stroke-width="1.5"/><path d="M11.70313,6.5547,10.29687,4.4453A1,1,0,0,0,9.46482,4H5A2,2,0,0,0,3,6V18a2,2,0,0,0,2,2H19a2,2,0,0,0,2-2V9a2,2,0,0,0-2-2H12.53518A1,1,0,0,1,11.70313,6.5547Z" fill="none" stroke="#323232" stroke-linecap="round" stroke-linejoin="round" stroke-width="1.5"/></svg>