<svg xmlns="http://www.w3.org/2000/svg" viewBox="0 0 24 24"><path d="M0,0H24V24H0Z" fill="none"/><path d="M15.9008,13.02771l-2,2,2,2" fill="none" stroke="#323232" stroke-linecap="round" stroke-linejoin="round" stroke-width="1.5"/><path d="M11.9008,20H5a2,2,0,0,1-2-2V6A2,2,0,0,1,5,4H9.47056a1,1,0,0,1,.82678.43748l1.44584,2.125A1,1,0,0,0,12.57,7H19a2,2,0,0,1,2,2v3.02771" fill="none" stroke="#323232" stroke-linecap="round" stroke-linejoin="round" stroke-width="1.5"/><path d="M16,20h2.5A2.5,2.5,0,0,0,21,17.5h0A2.5,2.5,0,0,0,18.5,15H14" fill="none" stroke="#323232" stroke-linecap="round" stroke-linejoin="round" stroke-width="1.5"/></svg>