<svg xmlns="http://www.w3.org/2000/svg" viewBox="0 0 24 24"><path d="M0,0V24H24V0Z" fill="none"/><path d="M16.5,15a1,1,0,0,1-1,1h-7a1,1,0,0,1-1-1V9a1,1,0,0,1,1-1h1.96482a1,1,0,0,1,.83205.4453L12,9.5h3.5a1,1,0,0,1,1,1Z" fill="none" stroke="#323232" stroke-linecap="round" stroke-linejoin="round" stroke-width="1.5"/><path d="M7.13763,19.566l-2.555.427a.5.5,0,0,1-.57556-.57556l.42688-2.55518A9.01668,9.01668,0,1,1,7.13763,19.566Z" fill="none" stroke="#323232" stroke-linecap="round" stroke-linejoin="round" stroke-width="1.5"/></svg>