<svg xmlns="http://www.w3.org/2000/svg" viewBox="0 0 24 24"><path d="M6.5,6H5A2,2,0,0,0,3,8V19.25A1.75,1.75,0,0,0,4.75,21h0A1.75,1.75,0,0,0,6.5,19.25V4.71429A1.71429,1.71429,0,0,1,8.21429,3H15.368a2.25,2.25,0,0,1,1.591.659l1.882,1.882A2.25,2.25,0,0,1,19.5,7.132V12" fill="none" stroke="#323232" stroke-linecap="round" stroke-linejoin="round" stroke-width="1.5"/><path d="M6.47288,19.64257,8.906,13.28513A2,2,0,0,1,10.77386,12h9.22431A2,2,0,0,1,21.866,14.71486l-1.91363,5A2.00006,2.00006,0,0,1,18.08446,21H4.75" fill="none" stroke="#323232" stroke-linecap="round" stroke-linejoin="round" stroke-width="1.5"/><path d="M0,0H24V24H0Z" fill="none"/></svg>