<svg xmlns="http://www.w3.org/2000/svg" viewBox="0 0 24 24"><path d="M21,16v2a3,3,0,0,1-3,3H16" fill="none" stroke="#323232" stroke-linecap="round" stroke-linejoin="round" stroke-width="1.5"/><path d="M3,7V6A3,3,0,0,1,6,3H7" fill="none" stroke="#323232" stroke-linecap="round" stroke-linejoin="round" stroke-width="1.5"/><path d="M16,13h3.3709A1.6291,1.6291,0,0,0,21,11.37089V6.6291A1.6291,1.6291,0,0,0,19.3709,5H16L14.8,3.4A1,1,0,0,0,14,3H11.6291A1.6291,1.6291,0,0,0,10,4.6291V7" fill="none" stroke="#323232" stroke-linecap="round" stroke-linejoin="round" stroke-width="1.5"/><path d="M5,21h6a2,2,0,0,0,2-2V13.43583a2,2,0,0,0-.58579-1.41421l-1.43583-1.43583A2,2,0,0,0,9.56417,10H5a2,2,0,0,0-2,2v7A2,2,0,0,0,5,21Z" fill="none" stroke="#323232" stroke-linecap="round" stroke-linejoin="round" stroke-width="1.5" fill-rule="evenodd"/></svg>