<?xml version="1.0" encoding="UTF-8"?><svg version="1.1" viewBox="0 0 24 24" xmlns="http://www.w3.org/2000/svg" xmlns:xlink="http://www.w3.org/1999/xlink"><g stroke-linecap="round" stroke-width="1.5" stroke="#323232" fill="none" stroke-linejoin="round"><path d="M18 6.94h1c1.105 0 2 .896 2 2v9.06c0 1.105-.895 2-2 2h-14c-1.105 0-2-.895-2-2v-12c0-1.105.895-2 2-2h4.471c.331 0 .64.164.826.437l1.405 2.065c.186.274.496.438.827.438h1.471"></path><path d="M17 6h-2c-.552 0-1 .448-1 1v5l2-1 2 1v-5c0-.552-.448-1-1-1Z"></path></g><path fill="none" d="M0 0h24v24h-24v-24Z"></path></svg>