<?xml version="1.0" encoding="UTF-8"?><svg version="1.1" viewBox="0 0 24 24" xmlns="http://www.w3.org/2000/svg" xmlns:xlink="http://www.w3.org/1999/xlink"><g fill="none"><path d="M0 0h24v24h-24v-24Z"></path><path stroke="#323232" stroke-linecap="round" stroke-linejoin="round" stroke-width="1.5" d="M15.753 19.389c1.005 1.005 2.632 1.005 3.637 0 1.005-1.005 1.005-2.632 0-3.637 -1.005-1.005-2.632-1.005-3.637 0 -1.004 1.005-1.004 2.634 0 3.637"></path><path stroke="#323232" stroke-linecap="round" stroke-linejoin="round" stroke-width="1.5" d="M21 21l-1.61-1.611"></path><path stroke="#323232" stroke-linecap="round" stroke-linejoin="round" stroke-width="1.5" d="M21 12v-4.06c0-1.104-.895-2-2-2h-6.471c-.331 0-.641-.164-.827-.438l-1.405-2.065c-.186-.273-.495-.437-.826-.437h-4.471c-1.105 0-2 .895-2 2v12c0 1.105.895 2 2 2h6"></path></g></svg>