<svg xmlns="http://www.w3.org/2000/svg" viewBox="0 0 24 24"><path d="M20,17.73192V19a2,2,0,0,1-2,2H6a2,2,0,0,1-2-2V17.73192" fill="none" stroke="#323232" stroke-linecap="round" stroke-linejoin="round" stroke-width="1.5"/><path d="M11.70313,5.5547,10.29687,3.4453A1,1,0,0,0,9.46482,3H5A2,2,0,0,0,3,5V16a2,2,0,0,0,2,2H19a2,2,0,0,0,2-2V8a2,2,0,0,0-2-2H12.53518A1,1,0,0,1,11.70313,5.5547Z" fill="none" stroke="#323232" stroke-linecap="round" stroke-linejoin="round" stroke-width="1.5"/><line x1="13.5" y1="13.5" x2="10.5" y2="10.5" fill="none" stroke="#323232" stroke-linecap="round" stroke-linejoin="round" stroke-width="1.5"/><line x1="10.5" y1="13.5" x2="13.5" y2="10.5" fill="none" stroke="#323232" stroke-linecap="round" stroke-linejoin="round" stroke-width="1.5"/></svg>