<svg xmlns="http://www.w3.org/2000/svg" viewBox="0 0 24 24"><path d="M3,9.06V5A1.99945,1.99945,0,0,1,5,3H19a1.99945,1.99945,0,0,1,2,2v7" fill="none" stroke="#323232" stroke-linecap="round" stroke-linejoin="round" stroke-width="1.5"/><path d="M19,10H12.52914a1,1,0,0,1-.82678-.43747l-1.405-2.06506A1,1,0,0,0,9.47054,7.06H5a2,2,0,0,0-2,2V19a2,2,0,0,0,2,2H19a2,2,0,0,0,2-2V12A2,2,0,0,0,19,10Z" fill="none" stroke="#323232" stroke-linecap="round" stroke-linejoin="round" stroke-width="1.5"/><line x1="10" y1="17" x2="7" y2="17" fill="none" stroke="#323232" stroke-linecap="round" stroke-linejoin="round" stroke-width="1.5"/></svg>