<svg xmlns="http://www.w3.org/2000/svg" viewBox="0 0 24 24"><line x1="9" y1="14" x2="9" y2="16" fill="none" stroke="#323232" stroke-linecap="round" stroke-linejoin="round" stroke-width="1.5"/><line x1="12" y1="16" x2="12" y2="14" fill="none" stroke="#323232" stroke-linecap="round" stroke-linejoin="round" stroke-width="1.5"/><path d="M15,16V14a3,3,0,0,0-3-3h0a2.97334,2.97334,0,0,0-1.55444.44556" fill="none" stroke="#323232" stroke-linecap="round" stroke-linejoin="round" stroke-width="1.5"/><path d="M11.70313,6.5547,10.29687,4.4453A1,1,0,0,0,9.46482,4H5A2,2,0,0,0,3,6V18a2,2,0,0,0,2,2H19a2,2,0,0,0,2-2V9a2,2,0,0,0-2-2H12.53518A1,1,0,0,1,11.70313,6.5547Z" fill="none" stroke="#323232" stroke-linecap="round" stroke-linejoin="round" stroke-width="1.5"/></svg>