<svg xmlns="http://www.w3.org/2000/svg" viewBox="0 0 24 24"><path d="M21,15v3a3,3,0,0,1-3,3H17" fill="none" stroke="#323232" stroke-linecap="round" stroke-linejoin="round" stroke-width="1.5"/><path d="M3,7V6A3,3,0,0,1,6,3H8" fill="none" stroke="#323232" stroke-linecap="round" stroke-linejoin="round" stroke-width="1.5"/><path d="M14,15v4a2,2,0,0,1-2,2H5a2,2,0,0,1-2-2V12a2,2,0,0,1,2-2H8" fill="none" stroke="#323232" stroke-linecap="round" stroke-linejoin="round" stroke-width="1.5"/><line x1="11" y1="17" x2="6" y2="17" fill="none" stroke="#323232" stroke-linecap="round" stroke-linejoin="round" stroke-width="1.5"/><line x1="8" y1="14" x2="6" y2="14" fill="none" stroke="#323232" stroke-linecap="round" stroke-linejoin="round" stroke-width="1.5"/><path d="M15.29992,3.4l1.2,1.6H19.5A1.5,1.5,0,0,1,21,6.5v4A1.5,1.5,0,0,1,19.5,12h-7A1.5,1.5,0,0,1,11,10.5v-6A1.5,1.5,0,0,1,12.5,3h1.99992A1,1,0,0,1,15.29992,3.4Z" fill="none" stroke="#323232" stroke-linecap="round" stroke-linejoin="round" stroke-width="1.5"/></svg>