<svg xmlns="http://www.w3.org/2000/svg" viewBox="0 0 24 24"><path d="M6,8V5A2,2,0,0,1,8,3h4.47056a1,1,0,0,1,.82678.43748l1.44584,2.125A1,1,0,0,0,15.57,6H20a2,2,0,0,1,2,2v6a2,2,0,0,1-2,2H18" fill="none" stroke="#323232" stroke-linecap="round" stroke-linejoin="round" stroke-width="1.5"/><path d="M18,19a2,2,0,0,1-2,2H5a2,2,0,0,1-2-2V10A2,2,0,0,1,5,8H9.47056a1,1,0,0,1,.82678.43748l1.44584,2.125A1,1,0,0,0,12.57,11H16a2,2,0,0,1,2,2Z" fill="none" stroke="#323232" stroke-linecap="round" stroke-linejoin="round" stroke-width="1.5"/><path d="M0,0H24V24H0Z" fill="none"/><path d="M0,0H24V24H0Z" fill="none"/></svg>