<svg xmlns="http://www.w3.org/2000/svg" viewBox="0 0 24 24"><path d="M0,0H24V24H0Z" fill="none"/><path d="M19,8v3" fill="none" stroke="#323232" stroke-linecap="round" stroke-linejoin="round" stroke-width="1.5"/><path d="M5,8V5A1.99945,1.99945,0,0,1,7,3h3" fill="none" stroke="#323232" stroke-linecap="round" stroke-linejoin="round" stroke-width="1.5"/><path d="M21,19V13a2,2,0,0,0-2-2H12.53519a1,1,0,0,1-.83205-.4453L10.29688,8.4453A1,1,0,0,0,9.46483,8H5a2,2,0,0,0-2,2v9a1.99945,1.99945,0,0,0,2,2H19A1.99945,1.99945,0,0,0,21,19Z" fill="none" stroke="#323232" stroke-linecap="round" stroke-linejoin="round" stroke-width="1.5"/><path d="M14,4.5,15.50134,6,18,3.5" fill="none" stroke="#323232" stroke-linecap="round" stroke-linejoin="round" stroke-width="1.5"/></svg>