<svg xmlns="http://www.w3.org/2000/svg" viewBox="0 0 24 24"><path d="M3,9H21" fill="none" stroke="#323232" stroke-linecap="round" stroke-linejoin="round" stroke-width="1.5"/><path d="M4.5,21h7A1.5,1.5,0,0,0,13,19.5v-4A1.5,1.5,0,0,0,11.5,14H8.625a.5.5,0,0,1-.41343-.21878l-.914-1.34365A1,1,0,0,0,6.4708,12H4.5A1.5,1.5,0,0,0,3,13.5v6A1.5,1.5,0,0,0,4.5,21Z" fill="none" stroke="#323232" stroke-linecap="round" stroke-linejoin="round" stroke-width="1.5"/><path d="M11,5.99l-.005.005L11,6l.005-.005L11,5.99" fill="none" stroke="#323232" stroke-linecap="round" stroke-linejoin="round" stroke-width="1.5"/><path d="M8.5,5.99l-.005.005L8.5,6l.005-.005L8.5,5.99" fill="none" stroke="#323232" stroke-linecap="round" stroke-linejoin="round" stroke-width="1.5"/><path d="M6,5.99l-.005.005L6,6l.005-.005L6,5.99" fill="none" stroke="#323232" stroke-linecap="round" stroke-linejoin="round" stroke-width="1.5"/><path d="M11,5.99l-.005.005L11,6l.005-.005L11,5.99" fill="none" stroke="#323232" stroke-linecap="round" stroke-linejoin="round" stroke-width="1.5"/><path d="M8.5,5.99l-.005.005L8.5,6l.005-.005L8.5,5.99" fill="none" stroke="#323232" stroke-linecap="round" stroke-linejoin="round" stroke-width="1.5"/><path d="M6,5.99l-.005.005L6,6l.005-.005L6,5.99" fill="none" stroke="#323232" stroke-linecap="round" stroke-linejoin="round" stroke-width="1.5"/><path d="M3,9V6A3,3,0,0,1,6,3H18a3,3,0,0,1,3,3V18a3,3,0,0,1-3,3H16" fill="none" stroke="#323232" stroke-linecap="round" stroke-linejoin="round" stroke-width="1.5"/></svg>