<svg xmlns="http://www.w3.org/2000/svg" viewBox="0 0 24 24"><path d="M19,10V7.56176a2,2,0,0,0-.58579-1.41421L15.85245,3.58579A2,2,0,0,0,14.43824,3H7A2,2,0,0,0,5,5V7" fill="none" stroke="#323232" stroke-linecap="round" stroke-linejoin="round" stroke-width="1.5" fill-rule="evenodd"/><path d="M7,17H17" fill="none" stroke="#323232" stroke-linecap="round" stroke-linejoin="round" stroke-width="1.5"/><path d="M21,19a2,2,0,0,1-2,2H5a2,2,0,0,1-2-2V9A2,2,0,0,1,5,7H9.47056a1,1,0,0,1,.82678.43748l1.44584,2.125A1,1,0,0,0,12.57,10H19a2,2,0,0,1,2,2Z" fill="none" stroke="#323232" stroke-linecap="round" stroke-linejoin="round" stroke-width="1.5"/></svg>