<svg xmlns="http://www.w3.org/2000/svg" viewBox="0 0 24 24"><path d="M0,0H24V24H0Z" fill="none"/><path d="M4,9.27232V8A1.99944,1.99944,0,0,1,5.9989,6H18a1.99944,1.99944,0,0,1,2,1.9989v4.27184" fill="none" stroke="#323232" stroke-linecap="round" stroke-linejoin="round" stroke-width="1.5"/><path d="M5,6.271V5A1.99944,1.99944,0,0,1,6.9989,3H17a1.99944,1.99944,0,0,1,2,1.9989V6.271" fill="none" stroke="#323232" stroke-linecap="round" stroke-linejoin="round" stroke-width="1.5"/><path d="M21,19V14a2,2,0,0,0-2-2H12.53519a1,1,0,0,1-.83205-.4453L10.29688,9.4453A1,1,0,0,0,9.46483,9H5a2,2,0,0,0-2,2v8a1.99945,1.99945,0,0,0,2,2H19A1.99945,1.99945,0,0,0,21,19Z" fill="none" stroke="#323232" stroke-linecap="round" stroke-linejoin="round" stroke-width="1.5"/></svg>