<?xml version="1.0" encoding="UTF-8"?><svg version="1.1" viewBox="0 0 24 24" xmlns="http://www.w3.org/2000/svg" xmlns:xlink="http://www.w3.org/1999/xlink"><g stroke-linecap="round" stroke-width="1.5" stroke="#323232" fill="none" stroke-linejoin="round"><path d="M19.542 14.758l2.265 4.025c.557.991-.159 2.217-1.296 2.217h-4.529c-1.138 0-1.853-1.224-1.296-2.217l2.265-4.025c.567-1.011 2.022-1.011 2.591-3.55271e-15Z"></path><path d="M21 11v-3.06c0-1.104-.895-2-2-2h-6.471c-.331 0-.641-.164-.827-.438l-1.405-2.065c-.186-.273-.495-.437-.826-.437h-4.471c-1.105 0-2 .895-2 2v12c0 1.105.895 2 2 2h6"></path></g><path fill="none" d="M0 0h24v24h-24v-24Z"></path></svg>