<svg xmlns="http://www.w3.org/2000/svg" viewBox="0 0 24 24"><line x1="10" y1="13" x2="10" y2="16" fill="none" stroke="#323232" stroke-linecap="round" stroke-linejoin="round" stroke-width="1.5"/><line x1="8.5" y1="14.5" x2="11.5" y2="14.5" fill="none" stroke="#323232" stroke-linecap="round" stroke-linejoin="round" stroke-width="1.5"/><line x1="4.5" y1="17" x2="4.5" y2="20" fill="none" stroke="#323232" stroke-linecap="round" stroke-linejoin="round" stroke-width="1.5"/><line x1="6" y1="18.5" x2="3" y2="18.5" fill="none" stroke="#323232" stroke-linecap="round" stroke-linejoin="round" stroke-width="1.5"/><path d="M10,20h9a2,2,0,0,0,2-2V9a2,2,0,0,0-2-2H12.53518a1,1,0,0,1-.83205-.4453L10.29687,4.4453A1,1,0,0,0,9.46482,4H5A2,2,0,0,0,3,6v7" fill="none" stroke="#323232" stroke-linecap="round" stroke-linejoin="round" stroke-width="1.5"/></svg>