<svg xmlns="http://www.w3.org/2000/svg" viewBox="0 0 24 24"><path d="M10.74017,13.26371l-1.0937-1.6075A1.5,1.5,0,0,0,8.40629,11H4.5A1.5,1.5,0,0,0,3,12.5v6A1.5,1.5,0,0,0,4.5,20h5A1.5,1.5,0,0,0,11,18.5V14.10749A1.49994,1.49994,0,0,0,10.74017,13.26371Z" fill="none" stroke="#323232" stroke-linecap="round" stroke-linejoin="round" stroke-width="1.5"/><path d="M14,20h5a2,2,0,0,0,2-2V9a2,2,0,0,0-2-2H12.53518a1,1,0,0,1-.83205-.4453L10.29687,4.4453A1,1,0,0,0,9.46482,4H5A2,2,0,0,0,3,6V8" fill="none" stroke="#323232" stroke-linecap="round" stroke-linejoin="round" stroke-width="1.5"/></svg>