<svg xmlns="http://www.w3.org/2000/svg" viewBox="0 0 24 24"><path d="M0,0H24V24H0Z" fill="none"/><path d="M21,11.2712V9a2,2,0,0,0-2-2H12.57a1,1,0,0,1-.82678-.43748l-1.44584-2.125A1,1,0,0,0,9.47056,4H5A2,2,0,0,0,3,6V18.41692A1.58308,1.58308,0,0,0,4.58308,20h0a1.58307,1.58307,0,0,0,1.57339-1.40825l.64585-5.81261A2,2,0,0,1,8.79009,11H19.99976a2,2,0,0,1,1.98777,2.22086l-.55556,5A2,2,0,0,1,19.44421,20H4.58308" fill="none" stroke="#323232" stroke-linecap="round" stroke-linejoin="round" stroke-width="1.5"/></svg>