<svg xmlns="http://www.w3.org/2000/svg" viewBox="0 0 24 24"><path d="M3,18a1.99944,1.99944,0,0,0,1.99888,2H5" fill="none" stroke="#323232" stroke-linecap="round" stroke-linejoin="round" stroke-width="1.5"/><path d="M8.33,20h2" fill="none" stroke="#323232" stroke-linecap="round" stroke-linejoin="round" stroke-width="1.5"/><path d="M19,20a1.99944,1.99944,0,0,0,2-1.99888V18" fill="none" stroke="#323232" stroke-linecap="round" stroke-linejoin="round" stroke-width="1.5"/><path d="M15.67,20h-2" fill="none" stroke="#323232" stroke-linecap="round" stroke-linejoin="round" stroke-width="1.5"/><path d="M3,9.5V6A2,2,0,0,1,5,4H9.46482a1,1,0,0,1,.83205.4453l1.40626,2.1094A1,1,0,0,0,12.53518,7H19a2,2,0,0,1,2,2v.5" fill="none" stroke="#323232" stroke-linecap="round" stroke-linejoin="round" stroke-width="1.5"/><path d="M3,12.75v2" fill="none" stroke="#323232" stroke-linecap="round" stroke-linejoin="round" stroke-width="1.5"/><path d="M21,12.75v2" fill="none" stroke="#323232" stroke-linecap="round" stroke-linejoin="round" stroke-width="1.5"/></svg>