<?xml version="1.0" encoding="UTF-8"?><svg version="1.1" viewBox="0 0 24 24" xmlns="http://www.w3.org/2000/svg" xmlns:xlink="http://www.w3.org/1999/xlink"><g stroke-linecap="round" stroke-width="1.5" stroke="#323232" fill="none" stroke-linejoin="round"><path d="M19.687 17.354v-1.751c0-.841-.717-1.603-1.603-1.603 -.886 0-1.603.717-1.603 1.603v1.751"></path><path d="M20.345 21h-4.521c-.363 0-.657-.294-.657-.656v-2.333c0-.363.294-.656.656-.656h4.521c.363 0 .656.294.656.656v2.333c.001.362-.293.656-.655.656Z"></path><path d="M21 11v-3.06c0-1.104-.895-2-2-2h-6.471c-.331 0-.641-.164-.827-.438l-1.405-2.065c-.186-.273-.495-.437-.826-.437h-4.471c-1.105 0-2 .895-2 2v12c0 1.105.895 2 2 2h6"></path></g><path fill="none" d="M0 0h24v24h-24v-24Z"></path></svg>