<svg xmlns="http://www.w3.org/2000/svg" viewBox="0 0 24 24"><path d="M0,0H24V24H0Z" fill="none"/><path d="M7,7V5A2,2,0,0,1,9,3H19a2,2,0,0,1,2,2v7" fill="none" stroke="#323232" stroke-linecap="round" stroke-linejoin="round" stroke-width="1.5"/><path d="M21,19V12a2,2,0,0,0-2-2H12.53519a1,1,0,0,1-.83205-.4453L10.29688,7.4453A1,1,0,0,0,9.46483,7H5A2,2,0,0,0,3,9V19a1.99945,1.99945,0,0,0,2,2H19A1.99945,1.99945,0,0,0,21,19Z" fill="none" stroke="#323232" stroke-linecap="round" stroke-linejoin="round" stroke-width="1.5"/><line x1="14" y1="6.5" x2="17" y2="6.5" fill="none" stroke="#323232" stroke-linecap="round" stroke-linejoin="round" stroke-width="1.5"/></svg>