<svg xmlns="http://www.w3.org/2000/svg" viewBox="0 0 24 24"><path d="M6.08814,19.95922h0A3.84152,3.84152,0,0,1,3,16.19231V15a2,2,0,0,1,2-2H8a2,2,0,0,1,2,2v1.19229a3.84152,3.84152,0,0,1-3.088,3.7669l-.00009,0A2.1,2.1,0,0,1,6.08814,19.95922Z" fill="none" stroke="#323232" stroke-linecap="round" stroke-linejoin="round" stroke-width="1.5"/><path d="M3,10V6A2,2,0,0,1,5,4H9.47056a1,1,0,0,1,.82678.43748l1.44584,2.125A1,1,0,0,0,12.57,7H19a2,2,0,0,1,2,2v9a2,2,0,0,1-2,2H13" fill="none" stroke="#323232" stroke-linecap="round" stroke-linejoin="round" stroke-width="1.5"/></svg>