<svg xmlns="http://www.w3.org/2000/svg" viewBox="0 0 24 24"><path d="M0,0H24V24H0Z" fill="none"/><path d="M19,7H12.71281a1,1,0,0,0-.82678.43747L10.44017,9.56253A1,1,0,0,1,9.61339,10H3" fill="none" stroke="#323232" stroke-linecap="round" stroke-linejoin="round" stroke-width="1.5"/><path d="M10.29688,4.4453l1.40626,2.1094A1,1,0,0,0,12.53519,7H19a2,2,0,0,1,2,2v9a2,2,0,0,1-2,2H5a2,2,0,0,1-2-2V6A2,2,0,0,1,5,4H9.46483A1,1,0,0,1,10.29688,4.4453Z" fill="none" stroke="#323232" stroke-linecap="round" stroke-linejoin="round" stroke-width="1.5"/></svg>