<svg xmlns="http://www.w3.org/2000/svg" viewBox="0 0 24 24"><rect width="24" height="24" fill="none"/><path d="M17.5,8H19a2,2,0,0,1,2,2v2.27164" fill="none" stroke="#323232" stroke-linecap="round" stroke-linejoin="round" stroke-width="1.5"/><path d="M3,12.27164V8A2,2,0,0,1,5,6H6.5" fill="none" stroke="#323232" stroke-linecap="round" stroke-linejoin="round" stroke-width="1.5"/><path d="M4.00022,12H19.99975a2,2,0,0,1,1.987,2.22782l-.57328,5A2,2,0,0,1,19.42646,21H4.53805a2,2,0,0,1-1.98853-1.7861l-.53783-5A2,2,0,0,1,4.00022,12Z" fill="none" stroke="#323232" stroke-linecap="round" stroke-linejoin="round" stroke-width="1.5"/><path d="M17.5,12V5a2,2,0,0,0-2-2h-7a2,2,0,0,0-2,2v7" fill="none" stroke="#323232" stroke-linecap="round" stroke-linejoin="round" stroke-width="1.5"/></svg>