<svg id="Layer_3" data-name="Layer 3" xmlns="http://www.w3.org/2000/svg" viewBox="0 0 24 24"><path d="M0,24H24V0H0Z" fill="none"/><path d="M16,21h2a3,3,0,0,0,3-3V8.50931A3,3,0,0,0,20.12132,6.388L17.612,3.87868A3,3,0,0,0,15.49069,3H8A3,3,0,0,0,5,6V9" fill="none" stroke="#323232" stroke-linecap="round" stroke-linejoin="round" stroke-width="1.5" fill-rule="evenodd"/><path d="M21,8.5H17.5a2,2,0,0,1-2-2V3" fill="none" stroke="#323232" stroke-linecap="round" stroke-linejoin="round" stroke-width="1.5" fill-rule="evenodd"/><path d="M13,19.5v-4A1.5,1.5,0,0,0,11.5,14H8.625a.5.5,0,0,1-.41343-.21878l-.914-1.34365A1,1,0,0,0,6.4708,12H4.5A1.5,1.5,0,0,0,3,13.5v6A1.5,1.5,0,0,0,4.5,21h7A1.5,1.5,0,0,0,13,19.5Z" fill="none" stroke="#323232" stroke-linecap="round" stroke-linejoin="round" stroke-width="1.5"/><path d="M0,0H24V24H0Z" fill="none"/></svg>