<svg xmlns="http://www.w3.org/2000/svg" viewBox="0 0 24 24"><path d="M13,18.5v-4A1.5,1.5,0,0,0,11.5,13H8.625a.5.5,0,0,1-.41343-.21878l-.914-1.34365A1,1,0,0,0,6.4708,11H4.5A1.5,1.5,0,0,0,3,12.5v6A1.5,1.5,0,0,0,4.5,20h7A1.5,1.5,0,0,0,13,18.5Z" fill="none" stroke="#323232" stroke-linecap="round" stroke-linejoin="round" stroke-width="1.5"/><path d="M3,8V6A2,2,0,0,1,5,4H9.47056a1,1,0,0,1,.82678.43748l1.44584,2.125A1,1,0,0,0,12.57,7H19a2,2,0,0,1,2,2v9a2,2,0,0,1-2,2H16" fill="none" stroke="#323232" stroke-linecap="round" stroke-linejoin="round" stroke-width="1.5"/><path d="M0,0H24V24H0Z" fill="none"/></svg>