<svg xmlns="http://www.w3.org/2000/svg" viewBox="0 0 24 24"><line x1="3" y1="12.99881" x2="8" y2="12.99881" fill="none" stroke="#323232" stroke-linecap="round" stroke-linejoin="round" stroke-width="1.5"/><polyline points="6 10.999 8 12.999 6 14.999" fill="none" stroke="#323232" stroke-linecap="round" stroke-linejoin="round" stroke-width="1.5"/><path d="M3,8.99881V6A2,2,0,0,1,5,4H9.46482a1,1,0,0,1,.83205.4453l1.40626,2.1094A1,1,0,0,0,12.53518,7H19a2,2,0,0,1,2,2v9a2,2,0,0,1-2,2H5a2,2,0,0,1-2-2V16.99881" fill="none" stroke="#323232" stroke-linecap="round" stroke-linejoin="round" stroke-width="1.5"/></svg>