<svg xmlns="http://www.w3.org/2000/svg" viewBox="0 0 24 24"><path d="M6.12263,13.52019a1,1,0,0,1,1.75474,0l.60272,1.10215a.99993.99993,0,0,0,.39757.39757l1.10215.60272a1,1,0,0,1,0,1.75474l-1.10215.60272a.99993.99993,0,0,0-.39757.39757l-.60272,1.10215a1,1,0,0,1-1.75474,0l-.60272-1.10215a.99993.99993,0,0,0-.39757-.39757l-1.10215-.60272a1,1,0,0,1,0-1.75474l1.10215-.60272a.99993.99993,0,0,0,.39757-.39757Z" fill="none" stroke="#323232" stroke-linecap="round" stroke-linejoin="round" stroke-width="1.5"/><path d="M3,11V6A2,2,0,0,1,5,4H9.47056a1,1,0,0,1,.82678.43748l1.44584,2.125A1,1,0,0,0,12.57,7H19a2,2,0,0,1,2,2v9a2,2,0,0,1-2,2H13" fill="none" stroke="#323232" stroke-linecap="round" stroke-linejoin="round" stroke-width="1.5"/></svg>