<svg xmlns="http://www.w3.org/2000/svg" viewBox="0 0 24 24"><path d="M17,21.97229l-2-2,2-2" fill="none" stroke="#323232" stroke-linecap="round" stroke-linejoin="round" stroke-width="1.5"/><path d="M16,19.97229h3a2,2,0,0,0,2-2v-2" fill="none" stroke="#323232" stroke-linecap="round" stroke-linejoin="round" stroke-width="1.5"/><path d="M0-.02771H24v24H0Z" fill="none"/><path d="M11,19.97229H5a2,2,0,0,1-2-2v-12a2,2,0,0,1,2-2H9.47056a1,1,0,0,1,.82678.43747l1.44584,2.12505a1,1,0,0,0,.82678.43748H19a2,2,0,0,1,2,2v3" fill="none" stroke="#323232" stroke-linecap="round" stroke-linejoin="round" stroke-width="1.5"/></svg>