<svg xmlns="http://www.w3.org/2000/svg" viewBox="0 0 24 24"><line x1="12" y1="20.00001" x2="12" y2="15" fill="none" stroke="#323232" stroke-linecap="round" stroke-linejoin="round" stroke-width="1.5"/><polyline points="14 17 12 15 10 17" fill="none" stroke="#323232" stroke-linecap="round" stroke-linejoin="round" stroke-width="1.5"/><path d="M16,20h3a2,2,0,0,0,2-2V9a2,2,0,0,0-2-2H12.53518a1,1,0,0,1-.83205-.4453L10.29687,4.4453A1,1,0,0,0,9.46482,4H5A2,2,0,0,0,3,6V18a2,2,0,0,0,2,2H8" fill="none" stroke="#323232" stroke-linecap="round" stroke-linejoin="round" stroke-width="1.5"/></svg>