<svg xmlns="http://www.w3.org/2000/svg" viewBox="0 0 24 24"><path d="M4,9V5A2,2,0,0,1,6,3H19a2,2,0,0,1,2,2V19a2,2,0,0,1-2,2H16" fill="none" stroke="#323232" stroke-linecap="round" stroke-linejoin="round" stroke-width="1.5"/><line x1="17" y1="8" x2="8" y2="8" fill="none" stroke="#323232" stroke-linecap="round" stroke-linejoin="round" stroke-width="1.5"/><line x1="17" y1="12" x2="15.5" y2="12" fill="none" stroke="#323232" stroke-linecap="round" stroke-linejoin="round" stroke-width="1.5"/><line x1="17" y1="16" x2="16" y2="16" fill="none" stroke="#323232" stroke-linecap="round" stroke-linejoin="round" stroke-width="1.5"/><path d="M4.5,21h7A1.5,1.5,0,0,0,13,19.5v-4A1.5,1.5,0,0,0,11.5,14H8.625a.5.5,0,0,1-.41343-.21878l-.914-1.34365A1,1,0,0,0,6.4708,12H4.5A1.5,1.5,0,0,0,3,13.5v6A1.5,1.5,0,0,0,4.5,21Z" fill="none" stroke="#323232" stroke-linecap="round" stroke-linejoin="round" stroke-width="1.5"/></svg>