<svg xmlns="http://www.w3.org/2000/svg" viewBox="0 0 24 24"><path d="M4.00024,12H19.99976a2,2,0,0,1,1.98777,2.22086l-.55556,5A2,2,0,0,1,19.44421,21H4.55579A2,2,0,0,1,2.568,19.22086l-.55556-5A2,2,0,0,1,4.00024,12Z" fill="none" stroke="#323232" stroke-linecap="round" stroke-linejoin="round" stroke-width="1.5"/><path d="M3,12.26754V5A2,2,0,0,1,5,3H9.47056a1,1,0,0,1,.82678.43748l1.44584,2.125A1,1,0,0,0,12.57,6H19a2,2,0,0,1,2,2v4.26754" fill="none" stroke="#323232" stroke-linecap="round" stroke-linejoin="round" stroke-width="1.5"/></svg>