<svg xmlns="http://www.w3.org/2000/svg" viewBox="0 0 24 24"><path d="M13,20h6a2,2,0,0,0,2-2V9a2,2,0,0,0-2-2H12.53518a1,1,0,0,1-.83205-.4453L10.29687,4.4453A1,1,0,0,0,9.46482,4H5A2,2,0,0,0,3,6v4" fill="none" stroke="#323232" stroke-linecap="round" stroke-linejoin="round" stroke-width="1.5"/><path d="M4.92835,15.55937a4.80569,4.80569,0,0,1-.19274-.538A2.47294,2.47294,0,0,1,5.3854,12.5981l.85019-.85019a2.42674,2.42674,0,0,1,2.30223-.67735,4.74129,4.74129,0,0,1,3.39166,3.39182,2.42677,2.42677,0,0,1-.67739,2.30208l-.85014.85014a2.473,2.473,0,0,1-2.42326.6498,4.80728,4.80728,0,0,1-.53808-.19277L5.80515,19.70708A1,1,0,0,1,5.09805,20H4a1,1,0,0,1-1-1V17.90192a1,1,0,0,1,.29289-.7071Z" fill="none" stroke="#323232" stroke-linecap="round" stroke-linejoin="round" stroke-width="1.5"/><path d="M8.3,14.75019A.05.05,0,1,1,8.25,14.7a.04974.04974,0,0,1,.05.05019" fill="none" stroke="#323232" stroke-linecap="round" stroke-linejoin="round" stroke-width="1.5"/></svg>