<svg xmlns="http://www.w3.org/2000/svg" viewBox="0 0 24 24"><path d="M24,24H0V0H24Z" fill="none"/><path d="M17,16v3a2,2,0,0,1-2,2H5a2,2,0,0,1-2-2V10A2,2,0,0,1,5,8H7" fill="none" stroke="#323232" stroke-linecap="round" stroke-linejoin="round" stroke-width="1.5"/><path d="M13.09668,3.43747l1.10568,1.62506A1,1,0,0,0,15.02913,5.5H19a2,2,0,0,1,2,2V14a2,2,0,0,1-2,2H9a2,2,0,0,1-2-2V5A2,2,0,0,1,9,3h3.2699A1,1,0,0,1,13.09668,3.43747Z" fill="none" stroke="#323232" stroke-linecap="round" stroke-linejoin="round" stroke-width="1.5"/></svg>