<?xml version="1.0" encoding="UTF-8"?><svg version="1.1" viewBox="0 0 24 24" xmlns="http://www.w3.org/2000/svg" xmlns:xlink="http://www.w3.org/1999/xlink"><!--Generated by IJSVG (https://github.com/iconjar/IJSVG)--><g stroke-linecap="round" stroke-width="1.5" stroke="#323232" fill="none" stroke-linejoin="round"><path d="M19,6.94h-6.471c-0.331,0 -0.641,-0.164 -0.827,-0.438l-1.405,-2.065c-0.186,-0.273 -0.495,-0.437 -0.826,-0.437h-4.471c-1.105,0 -2,0.895 -2,2v12c0,1.105 0.895,2 2,2h14c1.105,0 2,-0.895 2,-2v-9.06c0,-1.104 -0.895,-2 -2,-2Z"></path><path d="M12,10.2v7"></path><path d="M15,17.203h-6c-0.552,0 -1,-0.448 -1,-1v-5c0,-0.552 0.448,-1 1,-1h6c0.552,0 1,0.448 1,1v5c0,0.552 -0.448,1 -1,1Z"></path><path d="M8,13.7h8"></path></g><path fill="none" d="M0,0h24v24h-24v-24Z"></path></svg>