<svg xmlns="http://www.w3.org/2000/svg" viewBox="0 0 24 24"><path d="M21,17.97229a2,2,0,0,1-2,2H5a2,2,0,0,1-2-2v-12a2,2,0,0,1,2-2H9.47056a1,1,0,0,1,.82678.43747l1.44584,2.12505a1,1,0,0,0,.82678.43748H19a2,2,0,0,1,2,2Z" fill="none" stroke="#323232" stroke-linecap="round" stroke-linejoin="round" stroke-width="1.5"/><path d="M3,17.97229v-4a2,2,0,0,1,2-2H19a2,2,0,0,1,2,2v4" fill="none" stroke="#323232" stroke-linecap="round" stroke-linejoin="round" stroke-width="1.5"/><rect y="-0.02771" width="24" height="24" fill="none"/></svg>