<svg xmlns="http://www.w3.org/2000/svg" viewBox="0 0 24 24"><rect width="24" height="24" fill="none"/><line x1="10.75" y1="12.25" x2="13.25" y2="14.75" fill="none" stroke="#323232" stroke-linecap="round" stroke-linejoin="round" stroke-width="1.5"/><line x1="10.75" y1="14.75" x2="13.25" y2="12.25" fill="none" stroke="#323232" stroke-linecap="round" stroke-linejoin="round" stroke-width="1.5"/><path d="M21,18a2,2,0,0,1-2,2H5a2,2,0,0,1-2-2V6A2,2,0,0,1,5,4H9.47056a1,1,0,0,1,.82678.43748l1.44584,2.125A1,1,0,0,0,12.57,7H19a2,2,0,0,1,2,2Z" fill="none" stroke="#323232" stroke-linecap="round" stroke-linejoin="round" stroke-width="1.5"/></svg>