<svg xmlns="http://www.w3.org/2000/svg" viewBox="0 0 24 24"><line x1="21" y1="14" x2="21" y2="17" fill="none" stroke="#323232" stroke-linecap="round" stroke-linejoin="round" stroke-width="1.5"/><path d="M3,17V5A2,2,0,0,1,5,3H9" fill="none" stroke="#323232" stroke-linecap="round" stroke-linejoin="round" stroke-width="1.5"/><path d="M2.5,17h19a1,1,0,0,1,1,1v0a3,3,0,0,1-3,3H4.5a3,3,0,0,1-3-3v0a1,1,0,0,1,1-1Z" fill="none" stroke="#323232" stroke-linecap="round" stroke-linejoin="round" stroke-width="1.5"/><path d="M15.79687,3.4453,16.5,4.5H20a1,1,0,0,1,1,1V10a1,1,0,0,1-1,1H13a1,1,0,0,1-1-1V4a1,1,0,0,1,1-1h1.96482A1,1,0,0,1,15.79687,3.4453Z" fill="none" stroke="#323232" stroke-linecap="round" stroke-linejoin="round" stroke-width="1.5"/></svg>