<svg xmlns="http://www.w3.org/2000/svg" viewBox="0 0 24 24"><path d="M12.5,3V5a.5.5,0,0,1-.5.5H8A.5.5,0,0,1,7.5,5V3" fill="none" stroke="#323232" stroke-linecap="round" stroke-linejoin="round" stroke-width="1.5"/><path d="M16,9V5a2,2,0,0,0-2-2H6A2,2,0,0,0,4,5V19a2,2,0,0,0,2,2H9" fill="none" stroke="#323232" stroke-linecap="round" stroke-linejoin="round" stroke-width="1.5"/><path d="M13.5,21h7A1.5,1.5,0,0,0,22,19.5v-4A1.5,1.5,0,0,0,20.5,14H17.625a.5.5,0,0,1-.41343-.21878l-.914-1.34365A1,1,0,0,0,15.4708,12H13.5A1.5,1.5,0,0,0,12,13.5v6A1.5,1.5,0,0,0,13.5,21Z" fill="none" stroke="#323232" stroke-linecap="round" stroke-linejoin="round" stroke-width="1.5"/></svg>