<?xml version="1.0" encoding="UTF-8"?><svg version="1.1" viewBox="0 0 24 24" xmlns="http://www.w3.org/2000/svg" xmlns:xlink="http://www.w3.org/1999/xlink"><g stroke-linecap="round" stroke-width="1.5" stroke="#323232" fill="none" stroke-linejoin="round"><path d="M17 21h-10c-2.209 0-4-1.791-4-4v-3c0-2.209 1.791-4 4-4h10c2.209 0 4 1.791 4 4v3c0 2.209-1.791 4-4 4Z"></path><line x1="21" x2="3" y1="16" y2="16"></line><path d="M12.5 7h-1c-1.105 0-2 .895-2 2v1h5v-1c0-1.105-.895-2-2-2Z"></path><line x1="12" x2="12" y1="7" y2="4.5"></line><line x1="3" x2="21" y1="6" y2="3"></line><line x1="12" x2="12" y1="10" y2="16"></line></g><path fill="none" d="M0 0h24v24h-24v-24Z"></path></svg>