<?xml version="1.0" encoding="UTF-8"?><svg version="1.1" viewBox="0 0 24 24" xmlns="http://www.w3.org/2000/svg" xmlns:xlink="http://www.w3.org/1999/xlink"><g stroke-linecap="round" stroke-width="1.5" stroke="#323232" fill="none" stroke-linejoin="round"><path d="M19.1 10h1.9c.552 0 1 .448 1 1v1c0 .552-.448 1-1 1h-1.5"></path><path d="M4.9 10h-1.9c-.552 0-1 .448-1 1v1c0 .552.448 1 1 1h1.5"></path><line x1="7.59" x2="8.59" y1="15.75" y2="15.75"></line><line x1="15.59" x2="16.59" y1="15.75" y2="15.75"></line><path d="M5 9.5v-4.5c0-1.105.895-2 2-2h10c1.105 0 2 .895 2 2v4.5"></path><line x1="19.46" x2="4.54" y1="12" y2="12"></line><path d="M4.5 12.792v4.208c0 1.105.895 2 2 2h11c1.105 0 2-.895 2-2v-4.208c0-.527-.052-1.052-.155-1.569l-.523-2.615c-.187-.935-1.008-1.608-1.962-1.608h-9.72c-.954 0-1.775.673-1.962 1.608l-.523 2.615c-.103.517-.155 1.042-.155 1.569Z"></path><path d="M8.236 19v1.5c0 .552-.448 1-1 1h-1c-.552 0-1-.448-1-1v-1.956"></path><path d="M18.764 18.544v1.956c0 .552-.448 1-1 1h-1c-.552 0-1-.448-1-1v-1.5"></path></g><path fill="none" d="M0 0h24v24h-24v-24Z"></path></svg>