<?xml version="1.0" encoding="UTF-8"?><svg version="1.1" viewBox="0 0 24 24" xmlns="http://www.w3.org/2000/svg" xmlns:xlink="http://www.w3.org/1999/xlink"><g fill="none"><path d="M24 24h-24v-24h24Z"></path><path stroke="#323232" stroke-linecap="round" stroke-linejoin="round" stroke-width="1.5" d="M12 12l-1.05913e-07 1.08747e-07c1.89473-1.94542 2.36298-4.87144 1.17-7.311l2.23259e-08 5.31216e-08c-.106992-.254573.0126468-.547679.26722-.654671 .10545-.0443184.222908-.051141.33278-.0193295l-1.66591e-07-4.29401e-08c1.42496.367295 2.72563 1.1093 3.767 2.149l-5.60746e-08-5.46279e-08c3.22313 3.13998 3.29118 8.29809.152 11.522l9.65557e-08-9.40342e-08c-3.22363 3.13945-8.38175 3.07185-11.522-.151l5.35459e-07 5.35653e-07c-1.0403-1.04067-1.78271-2.34111-2.15-3.766l-9.60678e-10-3.30566e-09c-.0770632-.265171.0754286-.542607.3406-.619671 .110413-.0320878.228511-.0251408.3344.0196706l1.93778e-07 9.47587e-08c2.43848 1.19243 5.36317.724593 7.308-1.169Z"></path></g></svg>