<?xml version="1.0" encoding="UTF-8"?><svg version="1.1" viewBox="0 0 24 24" xmlns="http://www.w3.org/2000/svg" xmlns:xlink="http://www.w3.org/1999/xlink"><g stroke-linecap="round" stroke-width="1.5" stroke="#323232" fill="none" stroke-linejoin="round"><path d="M14.25 17.5v4.5l-2.25-1.125 -2.25 1.125v-4.5"></path><path d="M8.22 14.837l.532.7 .115.865 -4.76987e-10-3.57929e-09c.0639251.479691.441309.857075.921.921l.867.116 .694.531 2.2063e-08 1.67736e-08c.38413.292038.91587.292038 1.3-3.35473e-08l.7-.531v0l.866-.116 8.89756e-08-1.1835e-08c.479919-.063836.857643-.44115.922-.921l.116-.867c0 0 .268-.351.531-.694l6.44301e-09-8.47476e-09c.292038-.38413.292038-.91587-1.2886e-08-1.3l-.531-.7 -.116-.865 -1.4823e-08-1.12161e-07c-.0634041-.479761-.440378-.857554-.92-.922l-.868-.115 -.7-.53 3.6076e-08 2.75487e-08c-.383782-.293067-.916218-.293067-1.3-5.50973e-08l-.7.53v0l-.866.115 -1.59287e-08 2.11112e-09c-.479853.0635979-.857402.441147-.921.921l-.116.867 -.531.694 4.66455e-08-6.19527e-08c-.290387.385681-.288343.917563.00499996 1.301Z"></path><path d="M17 19h2l-8.74228e-08-3.55271e-15c1.10457 4.82823e-08 2-.89543 2-2v-11.407 0c0-1.10457-.895431-2-2-2h-14l-8.74228e-08 1.77636e-15c-1.10457 4.82823e-08-2 .895431-2 2 0 0 0 0 0 0v11.407l2.30926e-14 3.01992e-07c1.66785e-07 1.10457.895431 2 2 2h2"></path><line x1="7.5" x2="16.5" y1="7" y2="7"></line></g><path fill="none" d="M0 0h24v24h-24Z"></path></svg>