<svg xmlns="http://www.w3.org/2000/svg" viewBox="0 0 24 24"><path d="M21,11h0a0,0,0,0,1,0,0v4a0,0,0,0,1,0,0H17a0,0,0,0,1,0,0v0A4,4,0,0,1,21,11Z" transform="translate(6 32) rotate(-90)" fill="none" stroke="#323232" stroke-linecap="round" stroke-linejoin="round" stroke-width="1.5"/><rect x="3" y="3" width="18" height="18" rx="5" transform="translate(24 0) rotate(90)" stroke-width="1.5" stroke="#323232" stroke-linecap="round" stroke-linejoin="round" fill="none"/><line x1="12" y1="16" x2="12" y2="21" fill="none" stroke="#323232" stroke-linecap="round" stroke-linejoin="round" stroke-width="1.5"/><line x1="12.00672" y1="11" x2="12.00672" y2="3" fill="none" stroke="#323232" stroke-linecap="round" stroke-linejoin="round" stroke-width="1.5"/><line x1="7" y1="11" x2="3" y2="11" fill="none" stroke="#323232" stroke-linecap="round" stroke-linejoin="round" stroke-width="1.5"/><path d="M24,0V24H0V0Z" fill="none"/></svg>