<svg xmlns="http://www.w3.org/2000/svg" viewBox="0 0 24 24"><path d="M24,24H0V0H24Z" fill="none"/><line x1="11" y1="13.637" x2="13" y2="11.637" fill="none" stroke="#323232" stroke-linecap="round" stroke-linejoin="round" stroke-width="1.5"/><line x1="13" y1="13.637" x2="11" y2="11.637" fill="none" stroke="#323232" stroke-linecap="round" stroke-linejoin="round" stroke-width="1.5"/><path d="M7,15V11.2597A2,2,0,0,1,7.75061,9.698l2.68765-2.15014a2.5,2.5,0,0,1,3.12349,0L16.2494,9.698A2,2,0,0,1,17,11.2597V15a2,2,0,0,1-2,2H9A2,2,0,0,1,7,15Z" fill="none" stroke="#323232" stroke-linecap="round" stroke-linejoin="round" stroke-width="1.5"/><rect x="3" y="3" width="18" height="18" rx="5" stroke-width="1.5" stroke="#323232" stroke-linecap="round" stroke-linejoin="round" fill="none"/></svg>