<svg xmlns="http://www.w3.org/2000/svg" viewBox="0 0 24 24"><path d="M8.5,11H11a.5.5,0,0,1,.5.5V16a0,0,0,0,1,0,0H8a0,0,0,0,1,0,0V11.5A.5.5,0,0,1,8.5,11Z" fill="none" stroke="#323232" stroke-linecap="round" stroke-linejoin="round" stroke-width="1.5"/><path d="M12,8h3.5a.5.5,0,0,1,.5.5V16a0,0,0,0,1,0,0H11.5a0,0,0,0,1,0,0V8.5A.5.5,0,0,1,12,8Z" fill="none" stroke="#323232" stroke-linecap="round" stroke-linejoin="round" stroke-width="1.5"/><line x1="17" y1="16.00001" x2="7" y2="16.00001" fill="none" stroke="#323232" stroke-linecap="round" stroke-linejoin="round" stroke-width="1.5"/><rect x="3" y="3.00001" width="18" height="18" rx="5" stroke-width="1.5" stroke="#323232" stroke-linecap="round" stroke-linejoin="round" fill="none"/><path d="M0,24V0H24V24Z" fill="none"/></svg>