<svg xmlns="http://www.w3.org/2000/svg" viewBox="0 0 24 24"><path d="M6,9h4a1,1,0,0,1,1,1V20a0,0,0,0,1,0,0H5a0,0,0,0,1,0,0V10A1,1,0,0,1,6,9Z" fill="none" stroke="#323232" stroke-linecap="round" stroke-linejoin="round" stroke-width="1.5"/><path d="M12,4h6a1,1,0,0,1,1,1V20a0,0,0,0,1,0,0H11a0,0,0,0,1,0,0V5A1,1,0,0,1,12,4Z" fill="none" stroke="#323232" stroke-linecap="round" stroke-linejoin="round" stroke-width="1.5"/><line x1="21" y1="20" x2="3" y2="20" fill="none" stroke="#323232" stroke-linecap="round" stroke-linejoin="round" stroke-width="1.5"/><path d="M0,24V0H24V24Z" fill="none"/></svg>