<svg xmlns="http://www.w3.org/2000/svg" viewBox="0 0 24 24"><rect y="0.00001" width="24" height="24" fill="none"/><path d="M11.75,16.5h3.5a1,1,0,0,0,1-1v-7a1,1,0,0,0-1-1h-4.3a1,1,0,0,0-1,1V11" fill="none" stroke="#323232" stroke-linecap="round" stroke-linejoin="round" stroke-width="1.5"/><path d="M7.25,15.5V13.32985a1,1,0,0,1,.3753-.78086l1.59382-1.27507a1.25,1.25,0,0,1,1.56175,0L12.3747,12.549a1,1,0,0,1,.3753.78087V15.5a1,1,0,0,1-1,1H8.25A1,1,0,0,1,7.25,15.5Z" fill="none" stroke="#323232" stroke-linecap="round" stroke-linejoin="round" stroke-width="1.5"/><circle cx="12" cy="12.00001" r="9.5" fill="none" stroke="#323232" stroke-linecap="round" stroke-linejoin="round" stroke-width="1.5"/></svg>