<svg xmlns="http://www.w3.org/2000/svg" viewBox="0 0 24 24"><rect width="24" height="24" fill="none"/><path d="M11.75,17H16a1,1,0,0,0,1-1V8a1,1,0,0,0-1-1H11a1,1,0,0,0-1,1v3" fill="none" stroke="#323232" stroke-linecap="round" stroke-linejoin="round" stroke-width="1.5"/><rect x="3" y="3" width="18" height="18" rx="5" stroke-width="1.5" stroke="#323232" stroke-linecap="round" stroke-linejoin="round" fill="none"/><path d="M7,15.75V13.57985a1.25,1.25,0,0,1,.46913-.97608L9.063,11.3287a1.5,1.5,0,0,1,1.87409,0l1.59383,1.27506A1.25,1.25,0,0,1,13,13.57985V15.75A1.25,1.25,0,0,1,11.75,17H8.25A1.25,1.25,0,0,1,7,15.75Z" fill="none" stroke="#323232" stroke-linecap="round" stroke-linejoin="round" stroke-width="1.5"/></svg>