<?xml version="1.0" encoding="UTF-8"?><svg version="1.1" viewBox="0 0 24 24" xmlns="http://www.w3.org/2000/svg" xmlns:xlink="http://www.w3.org/1999/xlink"><g stroke-linecap="round" stroke-width="1.5" stroke="#323232" fill="none" stroke-linejoin="round"><path d="M6 21h-2c-.552 0-1-.448-1-1v-6c0-.552.448-1 1-1h2c.552 0 1 .448 1 1v6c0 .552-.448 1-1 1Z"></path><path d="M13 17h2.333c.433 0 .854-.14 1.2-.4l2.416-1.812c.603-.452 1.447-.392 1.98.141v0c.592.592.592 1.551 0 2.142l-2.073 2.073c-.558.558-1.27.939-2.044 1.094l-2.93.586c-.581.116-1.18.102-1.755-.042l-2.65-.662c-.317-.08-.642-.12-.969-.12h-1.508"></path><path d="M13 17h1.485c.837 0 1.515-.678 1.515-1.515v-.303c0-.695-.473-1.301-1.147-1.469l-2.292-.573c-.373-.093-.755-.14-1.139-.14v0c-.927 0-1.834.274-2.605.789l-1.817 1.211"></path><path d="M13.449 4.174l-4.625.003c-.265 0-.519.106-.706.293l-.825.825c-.391.391-.391 1.024 0 1.414l.828.828c.187.187.442.293.707.292l4.624-.003 .011.001c.663 1.287 1.99 2.175 3.539 2.173 2.208-.006 3.998-1.801 3.998-4.008 .001-2.208-1.787-3.994-3.995-3.992 -1.543.004-2.867.893-3.533 2.175"></path><path d="M17.002 6.264c.144 0 .26-.117.26-.261 0-.144-.118-.261-.261-.261 -.144 0-.261.117-.261.261 -3.55271e-15.144.117.261.262.261"></path></g><path fill="none" d="M24 0v24h-24v-24h24Z"></path></svg>