<svg xmlns="http://www.w3.org/2000/svg" viewBox="0 0 24 24"><path d="M21,17V11.1a4.5,4.5,0,0,0-1.68886-3.5139l-4.5-3.6a4.5,4.5,0,0,0-5.62228,0l-4.5,3.6A4.5,4.5,0,0,0,3,11.1V17a4,4,0,0,0,4,4H17A4,4,0,0,0,21,17Z" fill="none" stroke="#323232" stroke-linecap="round" stroke-linejoin="round" stroke-width="1.5"/><path d="M11.47046,17.94758h0A4.9391,4.9391,0,0,1,7.5,13.10441V11.5A2.5,2.5,0,0,1,10,9h4a2.5,2.5,0,0,1,2.5,2.5v1.60437a4.93908,4.93908,0,0,1-3.97035,4.84315h-.00011A2.70006,2.70006,0,0,1,11.47046,17.94758Z" fill="none" stroke="#323232" stroke-linecap="round" stroke-linejoin="round" stroke-width="1.5"/><polyline points="10.75 13 11.75 14 13.25 12.5" fill="none" stroke="#323232" stroke-linecap="round" stroke-linejoin="round" stroke-width="1.5"/><rect width="24" height="24" fill="none"/></svg>