<svg xmlns="http://www.w3.org/2000/svg" viewBox="0 0 24 24"><rect width="24" height="24" fill="none"/><path d="M14,5h6.5" fill="none" stroke="#323232" stroke-linecap="round" stroke-linejoin="round" stroke-width="1.5"/><path d="M6,17V14" fill="none" stroke="#323232" stroke-linecap="round" stroke-linejoin="round" stroke-width="1.5"/><path d="M17.5,21H5a2,2,0,0,1-2-2V18a1,1,0,0,1,1-1H15a1,1,0,0,1,1,1v1.5A1.5,1.5,0,0,0,17.5,21h0A1.5,1.5,0,0,0,19,19.5V6.5A1.5,1.5,0,0,1,20.5,5h0A1.5,1.5,0,0,1,22,6.5V9a1,1,0,0,1-1,1H19" fill="none" stroke="#323232" stroke-linecap="round" stroke-linejoin="round" stroke-width="1.5"/><path d="M4.6,11H9.4A1.6,1.6,0,0,0,11,9.4V6.40776a1.6,1.6,0,0,0-.60048-1.24936L8.2494,3.43826a2,2,0,0,0-2.49879,0L3.60049,5.15838A1.6,1.6,0,0,0,3,6.40776V9.4A1.6,1.6,0,0,0,4.6,11Z" fill="none" stroke="#323232" stroke-linecap="round" stroke-linejoin="round" stroke-width="1.5"/></svg>