<svg xmlns="http://www.w3.org/2000/svg" viewBox="0 0 24 24"><rect x="0.00002" y="-0.00001" width="24" height="24" fill="none"/><path d="M14,12.336l2.00893-1.2383A.65.65,0,0,1,17,11.651V15.349a.65.65,0,0,1-.99108.55332L14,14.664" fill="none" stroke="#323232" stroke-linecap="round" stroke-linejoin="round" stroke-width="1.5"/><rect x="7.00002" y="10" width="7" height="7" rx="1.5" stroke-width="1.5" stroke="#323232" stroke-linecap="round" stroke-linejoin="round" fill="none"/><path d="M3,17V10.95971A4.5,4.5,0,0,1,4.68886,7.44582L8.8765,4.09567a5,5,0,0,1,6.247,0L19.31113,7.4458A4.5,4.5,0,0,1,21,10.9597V17a4,4,0,0,1-4,4H7A4,4,0,0,1,3,17Z" fill="none" stroke="#323232" stroke-linecap="round" stroke-linejoin="round" stroke-width="1.5"/></svg>