<svg xmlns="http://www.w3.org/2000/svg" viewBox="0 0 24 24"><rect y="0.00001" width="24" height="24" fill="none"/><path d="M11.5293,17.4534h0A4.3903,4.3903,0,0,1,8,13.14836V12a2.5,2.5,0,0,1,2.5-2.5h3A2.5,2.5,0,0,1,16,12v1.14834a4.39029,4.39029,0,0,1-3.5292,4.305l-.0001,0A2.39972,2.39972,0,0,1,11.5293,17.4534Z" fill="none" stroke="#323232" stroke-linecap="round" stroke-linejoin="round" stroke-width="1.5"/><path d="M3,17V10.95971A4.5,4.5,0,0,1,4.68886,7.44582L8.8765,4.09567a5,5,0,0,1,6.247,0L19.31113,7.4458A4.5,4.5,0,0,1,21,10.9597V17a4,4,0,0,1-4,4H7A4,4,0,0,1,3,17Z" fill="none" stroke="#323232" stroke-linecap="round" stroke-linejoin="round" stroke-width="1.5"/></svg>