<svg xmlns="http://www.w3.org/2000/svg" viewBox="0 0 24 24"><rect y="-0.00001" width="24" height="24" fill="none"/><line x1="15.5" y1="10.99999" x2="11" y2="10.99999" fill="none" stroke="#323232" stroke-linecap="round" stroke-linejoin="round" stroke-width="1.5"/><circle cx="9.5" cy="10.99999" r="1.5" fill="none" stroke="#323232" stroke-linecap="round" stroke-linejoin="round" stroke-width="1.5"/><line x1="8.5" y1="15.99999" x2="13" y2="15.99999" fill="none" stroke="#323232" stroke-linecap="round" stroke-linejoin="round" stroke-width="1.5"/><circle cx="14.5" cy="15.99999" r="1.5" fill="none" stroke="#323232" stroke-linecap="round" stroke-linejoin="round" stroke-width="1.5"/><path d="M21,17V11.1a4.5,4.5,0,0,0-1.68886-3.5139l-4.5-3.6a4.5,4.5,0,0,0-5.62228,0l-4.5,3.6A4.5,4.5,0,0,0,3,11.1V17a4,4,0,0,0,4,4H17A4,4,0,0,0,21,17Z" fill="none" stroke="#323232" stroke-linecap="round" stroke-linejoin="round" stroke-width="1.5"/></svg>