<svg xmlns="http://www.w3.org/2000/svg" viewBox="0 0 24 24"><path d="M0,24V0H24V24Z" fill="none"/><path d="M7,8V5A2,2,0,0,1,9,3H19a2,2,0,0,1,2,2V19a2,2,0,0,1-2,2H15" fill="none" stroke="#323232" stroke-linecap="round" stroke-linejoin="round" stroke-width="1.5"/><line x1="18" y1="12" x2="16" y2="12" fill="none" stroke="#323232" stroke-linecap="round" stroke-linejoin="round" stroke-width="1.5"/><path d="M3,19.2V15.76357A1.8,1.8,0,0,1,3.67554,14.358l2.26271-1.81018a2.5,2.5,0,0,1,3.12349,0L11.32445,14.358A1.8,1.8,0,0,1,12,15.76357V19.2A1.8,1.8,0,0,1,10.2,21H4.8A1.8,1.8,0,0,1,3,19.2Z" fill="none" stroke="#323232" stroke-linecap="round" stroke-linejoin="round" stroke-width="1.5"/></svg>