<svg xmlns="http://www.w3.org/2000/svg" viewBox="0 0 24 24"><line x1="4.5" y1="9.00001" x2="2" y2="9.00001" fill="none" stroke="#323232" stroke-linecap="round" stroke-linejoin="round" stroke-width="1.5"/><line x1="4.5" y1="15.00001" x2="2" y2="15.00001" fill="none" stroke="#323232" stroke-linecap="round" stroke-linejoin="round" stroke-width="1.5"/><line x1="4" y1="12.00001" x2="2" y2="12.00001" fill="none" stroke="#323232" stroke-linecap="round" stroke-linejoin="round" stroke-width="1.5"/><path d="M8,14.5V11.35971a1.5,1.5,0,0,1,.563-1.1713l2.18767-1.75015a2,2,0,0,1,2.49878,0l2.18766,1.75016A1.5,1.5,0,0,1,16,11.35973V14.5A1.5,1.5,0,0,1,14.5,16h-5A1.5,1.5,0,0,1,8,14.5Z" fill="none" stroke="#323232" stroke-linecap="round" stroke-linejoin="round" stroke-width="1.5"/><path d="M5.59326,5a9.5,9.5,0,1,1,0,14" fill="none" stroke="#323232" stroke-linecap="round" stroke-linejoin="round" stroke-width="1.5"/><path d="M0,24V0H24V24Z" fill="none"/></svg>