<svg xmlns="http://www.w3.org/2000/svg" viewBox="0 0 24 24"><path d="M24,0H0V24H24Z" fill="none"/><path d="M3,11V7A2,2,0,0,1,5,5H16" fill="none" stroke="#323232" stroke-linecap="round" stroke-linejoin="round" stroke-width="1.5"/><path d="M21,18.5V4.5A2.5,2.5,0,0,0,18.5,2H17a1,1,0,0,0-1,1V15a1,1,0,0,0,1,1h1.5A2.5,2.5,0,0,1,21,18.5h0A2.5,2.5,0,0,1,18.5,21H14" fill="none" stroke="#323232" stroke-linecap="round" stroke-linejoin="round" stroke-width="1.5"/><path d="M3,19.5V16.28954A1.5,1.5,0,0,1,3.563,15.11825l2.03148-1.6252a2.25,2.25,0,0,1,2.81113,0L10.437,15.11824A1.5,1.5,0,0,1,11,16.28954V19.5A1.5,1.5,0,0,1,9.5,21h-5A1.5,1.5,0,0,1,3,19.5Z" fill="none" stroke="#323232" stroke-linecap="round" stroke-linejoin="round" stroke-width="1.5"/></svg>