<svg xmlns="http://www.w3.org/2000/svg" viewBox="0 0 24 24"><line x1="18.84249" y1="17.84249" x2="6.1568" y2="5.1568" fill="none" stroke="#323232" stroke-linecap="round" stroke-linejoin="round" stroke-width="1.5"/><path d="M3,18.75V15.97986a1.25,1.25,0,0,1,.46913-.97609L5.563,13.3287a1.5,1.5,0,0,1,1.87409,0l2.09383,1.67507A1.25,1.25,0,0,1,10,15.97985V18.75A1.25,1.25,0,0,1,8.75,20H4.25A1.25,1.25,0,0,1,3,18.75Z" fill="none" stroke="#323232" stroke-linecap="round" stroke-linejoin="round" stroke-width="1.5"/><line x1="18.36387" y1="5.63612" x2="12.5" y2="11.49999" fill="none" stroke="#323232" stroke-linecap="round" stroke-linejoin="round" stroke-width="1.5"/><path d="M13,20.94135A8.99846,8.99846,0,1,0,3.05865,11" fill="none" stroke="#323232" stroke-linecap="round" stroke-linejoin="round" stroke-width="1.5"/><path d="M24,24H0V0H24Z" fill="none"/></svg>