<svg xmlns="http://www.w3.org/2000/svg" viewBox="0 0 24 24"><line x1="16.5" y1="8.50001" x2="7.5" y2="8.50001" fill="none" stroke="#323232" stroke-linecap="round" stroke-linejoin="round" stroke-width="1.5"/><line x1="16.5" y1="15.50001" x2="14.5" y2="15.50001" fill="none" stroke="#323232" stroke-linecap="round" stroke-linejoin="round" stroke-width="1.5"/><line x1="16.5" y1="12.00001" x2="14.5" y2="12.00001" fill="none" stroke="#323232" stroke-linecap="round" stroke-linejoin="round" stroke-width="1.5"/><rect x="3" y="3.00001" width="18" height="18" rx="5" transform="translate(-0.00001 24.00001) rotate(-90)" stroke-width="1.5" stroke="#323232" stroke-linecap="round" stroke-linejoin="round" fill="none"/><path d="M7.5,14.75V13.3a1,1,0,0,1,.3753-.78086l1-.8a1,1,0,0,1,1.24939,0l1,.8A1,1,0,0,1,11.5,13.3v1.36667a.83334.83334,0,0,1-.83333.83333H8.25A.75.75,0,0,1,7.5,14.75Z" fill="none" stroke="#323232" stroke-linecap="round" stroke-linejoin="round" stroke-width="1.5"/><path d="M24,0l0,24L0,24,0,0Z" fill="none"/></svg>