<svg xmlns="http://www.w3.org/2000/svg" viewBox="0 0 24 24"><rect width="24" height="24" fill="none"/><path d="M3,16.5V10.95971A4.5,4.5,0,0,1,4.68886,7.44582L8.8765,4.09567a5,5,0,0,1,6.247,0L19.31113,7.4458A4.5,4.5,0,0,1,21,10.9597V16.5A4.5,4.5,0,0,1,16.5,21h-9A4.5,4.5,0,0,1,3,16.5Z" fill="none" stroke="#323232" stroke-linecap="round" stroke-linejoin="round" stroke-width="1.5"/><path d="M3,11H5.83333a.5.5,0,0,1,.5.5v2.83333H9.16667a.5.5,0,0,1,.5.5v2.83334H12.5a.5.5,0,0,1,.5.5V21" fill="none" stroke="#323232" stroke-linecap="round" stroke-linejoin="round" stroke-width="1.5"/></svg>