<svg xmlns="http://www.w3.org/2000/svg" viewBox="0 0 24 24"><path d="M17,17v2a2,2,0,0,1-2,2H5a2,2,0,0,1-2-2V9A2,2,0,0,1,5,7H7" fill="none" stroke="#323232" stroke-linecap="round" stroke-linejoin="round" stroke-width="1.5"/><rect x="7" y="3" width="14" height="14" rx="2" transform="translate(28 19.99999) rotate(179.99998)" stroke-width="1.5" stroke="#323232" stroke-linecap="round" stroke-linejoin="round" fill="none"/><path d="M11,11.75V9.57985a1.25,1.25,0,0,1,.46913-.97608L13.063,7.3287a1.5,1.5,0,0,1,1.87409,0l1.59383,1.27507A1.25,1.25,0,0,1,17,9.57985V11.75A1.25,1.25,0,0,1,15.75,13h-3.5A1.25,1.25,0,0,1,11,11.75Z" fill="none" stroke="#323232" stroke-linecap="round" stroke-linejoin="round" stroke-width="1.5"/><rect width="24" height="24" fill="none"/></svg>