<svg xmlns="http://www.w3.org/2000/svg" viewBox="0 0 24 24"><path d="M0,24H24V0H0Z" fill="none"/><path d="M16,21h2a3,3,0,0,0,3-3V13" fill="none" stroke="#323232" stroke-linecap="round" stroke-linejoin="round" stroke-width="1.5"/><path d="M12,3H6A3,3,0,0,0,3,6v4" fill="none" stroke="#323232" stroke-linecap="round" stroke-linejoin="round" stroke-width="1.5"/><path d="M3,19V15.2597A2,2,0,0,1,3.75061,13.698l2.68765-2.15014a2.5,2.5,0,0,1,3.12349,0L12.2494,13.698A2,2,0,0,1,13,15.2597V19a2,2,0,0,1-2,2H5A2,2,0,0,1,3,19Z" fill="none" stroke="#323232" stroke-linecap="round" stroke-linejoin="round" stroke-width="1.5"/><path d="M15,4.5V9.49437a.5.5,0,0,0,.79066.40684l1.918-1.37032a.5.5,0,0,1,.58186.00038l1.91827,1.3743A.5.5,0,0,0,21,9.49912V4.5A1.5,1.5,0,0,0,19.5,3h-3A1.5,1.5,0,0,0,15,4.5Z" fill="none" stroke="#323232" stroke-linecap="round" stroke-linejoin="round" stroke-width="1.5"/></svg>