<svg xmlns="http://www.w3.org/2000/svg" viewBox="0 0 24 24"><line x1="7.5" y1="3" x2="7.5" y2="6" fill="none" stroke="#323232" stroke-linecap="round" stroke-linejoin="round" stroke-width="1.5"/><line x1="16.5" y1="3" x2="16.5" y2="6" fill="none" stroke="#323232" stroke-linecap="round" stroke-linejoin="round" stroke-width="1.5"/><path d="M8,21H6a3,3,0,0,1-3-3V7.5a3,3,0,0,1,3-3H18a3,3,0,0,1,3,3V10" fill="none" stroke="#323232" stroke-linecap="round" stroke-linejoin="round" stroke-width="1.5"/><line x1="12" y1="3" x2="12" y2="6" fill="none" stroke="#323232" stroke-linecap="round" stroke-linejoin="round" stroke-width="1.5"/><path d="M12,19.2V15.76357a1.8,1.8,0,0,1,.67554-1.40556l2.26271-1.81018a2.5,2.5,0,0,1,3.12349,0L20.32445,14.358A1.8,1.8,0,0,1,21,15.76357V19.2A1.8,1.8,0,0,1,19.2,21H13.8A1.8,1.8,0,0,1,12,19.2Z" fill="none" stroke="#323232" stroke-linecap="round" stroke-linejoin="round" stroke-width="1.5"/><rect width="24" height="24" fill="none"/></svg>