<svg xmlns="http://www.w3.org/2000/svg" viewBox="0 0 24 24"><path d="M24,0H0V24H24Z" fill="none"/><path d="M21,16h0a5,5,0,0,1-5,5h0" fill="none" stroke="#323232" stroke-linecap="round" stroke-linejoin="round" stroke-width="1.5"/><path d="M3,9H3A6,6,0,0,1,9,3H9" fill="none" stroke="#323232" stroke-linecap="round" stroke-linejoin="round" stroke-width="1.5"/><path d="M3,19V15.11939a2,2,0,0,1,.7506-1.56173L6.1259,11.6574a3,3,0,0,1,3.74819,0l2.3753,1.90025A2,2,0,0,1,13,15.11938V19a2,2,0,0,1-2,2H5A2,2,0,0,1,3,19Z" fill="none" stroke="#323232" stroke-linecap="round" stroke-linejoin="round" stroke-width="1.5"/><path d="M11,9V7.11939a2,2,0,0,1,.7506-1.56173L14.1259,3.6574a3,3,0,0,1,3.74819,0l2.3753,1.90025A2,2,0,0,1,21,7.11938V11a2,2,0,0,1-2,2H16" fill="none" stroke="#323232" stroke-linecap="round" stroke-linejoin="round" stroke-width="1.5"/></svg>