<svg xmlns="http://www.w3.org/2000/svg" viewBox="0 0 24 24"><line x1="4.5" y1="8.99999" x2="2" y2="8.99999" fill="none" stroke="#323232" stroke-linecap="round" stroke-linejoin="round" stroke-width="1.5"/><line x1="4.5" y1="14.99999" x2="2" y2="14.99999" fill="none" stroke="#323232" stroke-linecap="round" stroke-linejoin="round" stroke-width="1.5"/><line x1="4" y1="11.99999" x2="2" y2="11.99999" fill="none" stroke="#323232" stroke-linecap="round" stroke-linejoin="round" stroke-width="1.5"/><path d="M3.61969,5.636A4.97868,4.97868,0,0,1,8,3h8a5,5,0,0,1,5,5v8a5,5,0,0,1-5,5H8a4.97868,4.97868,0,0,1-4.38031-2.63605" fill="none" stroke="#323232" stroke-linecap="round" stroke-linejoin="round" stroke-width="1.5"/><path d="M8,14.5V11.3597a1.5,1.5,0,0,1,.563-1.1713l2.18767-1.75015a2,2,0,0,1,2.49878,0l2.18766,1.75017A1.5,1.5,0,0,1,16,11.35972V14.5A1.5,1.5,0,0,1,14.5,16h-5A1.5,1.5,0,0,1,8,14.5Z" fill="none" stroke="#323232" stroke-linecap="round" stroke-linejoin="round" stroke-width="1.5"/><path d="M0,24V0H24V24Z" fill="none"/></svg>