<svg xmlns="http://www.w3.org/2000/svg" viewBox="0 0 24 24"><line x1="16.5" y1="3" x2="16.5" y2="6" fill="none" stroke="#323232" stroke-linecap="round" stroke-linejoin="round" stroke-width="1.5"/><line x1="7.5" y1="3" x2="7.5" y2="6" fill="none" stroke="#323232" stroke-linecap="round" stroke-linejoin="round" stroke-width="1.5"/><path d="M15,21h3a3,3,0,0,0,3-3V7.5a3,3,0,0,0-3-3H6a3,3,0,0,0-3,3V11" fill="none" stroke="#323232" stroke-linecap="round" stroke-linejoin="round" stroke-width="1.5"/><path d="M2.9991,19.2V15.76357A1.8,1.8,0,0,1,3.67464,14.358l2.26271-1.81018a2.5,2.5,0,0,1,3.12349,0L11.32355,14.358a1.8,1.8,0,0,1,.67555,1.40557V19.2a1.8,1.8,0,0,1-1.8,1.8h-5.4A1.8,1.8,0,0,1,2.9991,19.2Z" fill="none" stroke="#323232" stroke-linecap="round" stroke-linejoin="round" stroke-width="1.5"/><path d="M24,0H0V24H24Z" fill="none"/></svg>