<svg xmlns="http://www.w3.org/2000/svg" viewBox="0 0 24 24"><rect width="24" height="24" fill="none"/><path d="M24,24H0V0H24Z" fill="none"/><path d="M13.5,18,9.80838,20.89265A.5.5,0,0,1,9,20.49908V18H7a4,4,0,0,1-4-4V7A4,4,0,0,1,7,3H17a4,4,0,0,1,4,4v7a4,4,0,0,1-4,4Z" fill="none" stroke="#323232" stroke-linecap="round" stroke-linejoin="round" stroke-width="1.5"/><path d="M8.5,12.75V9.97986a1.25,1.25,0,0,1,.46913-.97609L11.063,7.3287a1.5,1.5,0,0,1,1.87409,0l2.09383,1.67507A1.25,1.25,0,0,1,15.5,9.97985V12.75A1.25,1.25,0,0,1,14.25,14H9.75A1.25,1.25,0,0,1,8.5,12.75Z" fill="none" stroke="#323232" stroke-linecap="round" stroke-linejoin="round" stroke-width="1.5"/></svg>