<svg xmlns="http://www.w3.org/2000/svg" viewBox="0 0 24 24"><rect x="3" y="3" width="18" height="18" rx="5" stroke-width="1.5" stroke="#323232" stroke-linecap="round" stroke-linejoin="round" fill="none"/><path d="M12,12v2.36842" fill="none" stroke="#323232" stroke-linecap="round" stroke-linejoin="round" stroke-width="1.5"/><path d="M12,12l2.10526-1.31579" fill="none" stroke="#323232" stroke-linecap="round" stroke-linejoin="round" stroke-width="1.5"/><path d="M12,12,9.89474,10.68421" fill="none" stroke="#323232" stroke-linecap="round" stroke-linejoin="round" stroke-width="1.5"/><path d="M7,10.232V13.768A2,2,0,0,0,8,15.5l3,1.73205a2,2,0,0,0,2,0L16,15.5a2,2,0,0,0,1-1.732V10.232A2,2,0,0,0,16,8.5L13,6.768a2,2,0,0,0-2,0L8,8.5A2,2,0,0,0,7,10.232Z" fill="none" stroke="#323232" stroke-linecap="round" stroke-linejoin="round" stroke-width="1.5"/></svg>