<svg xmlns="http://www.w3.org/2000/svg" viewBox="0 0 24 24"><path d="M13,19H6a3,3,0,0,1-3-3V8A3,3,0,0,1,6,5h7" fill="none" stroke="#323232" stroke-linecap="round" stroke-linejoin="round" stroke-width="1.5"/><line x1="16" y1="2" x2="16" y2="22" fill="none" stroke="#323232" stroke-linecap="round" stroke-linejoin="round" stroke-width="1.5"/><path d="M16,19h2a3,3,0,0,0,3-3V8a3,3,0,0,0-3-3H16" fill="none" stroke="#323232" stroke-linecap="round" stroke-linejoin="round" stroke-width="1.5"/><path d="M9.25,14.25H8a1.00036,1.00036,0,0,1-1-1v-2.5a1.00036,1.00036,0,0,1,1-1H9.25" fill="none" stroke="#323232" stroke-linecap="round" stroke-linejoin="round" stroke-width="1.5"/><path d="M11.96,13.25l-.005.005-.005-.005.005-.005.005.005" fill="none" stroke="#323232" stroke-linecap="round" stroke-linejoin="round" stroke-width="1.5"/><path d="M11.96,10.75l-.005.005-.005-.005.005-.005.005.005" fill="none" stroke="#323232" stroke-linecap="round" stroke-linejoin="round" stroke-width="1.5"/></svg>