<svg xmlns="http://www.w3.org/2000/svg" viewBox="0 0 24 24"><path d="M11.70313,6.5547,10.29687,4.4453A1,1,0,0,0,9.46482,4H5A2,2,0,0,0,3,6V18a2,2,0,0,0,2,2H19a2,2,0,0,0,2-2V9a2,2,0,0,0-2-2H12.53518A1,1,0,0,1,11.70313,6.5547Z" fill="none" stroke="#323232" stroke-linecap="round" stroke-linejoin="round" stroke-width="1.5"/><path d="M14,13h2" fill="none" stroke="#323232" stroke-linecap="round" stroke-linejoin="round" stroke-width="1.5"/><path d="M9,11l2,2L9,15" fill="none" stroke="#323232" stroke-linecap="round" stroke-linejoin="round" stroke-width="1.5"/></svg>