<svg xmlns="http://www.w3.org/2000/svg" viewBox="0 0 24 24"><path d="M21,21l.57774-1.15551A4.00009,4.00009,0,0,0,22,18.05568V11.5A1.5,1.5,0,0,0,20.5,10h0A1.5,1.5,0,0,0,19,11.5v4" fill="none" stroke="#323232" stroke-linecap="round" stroke-linejoin="round" stroke-width="1.5"/><path d="M14,21V18.42a3,3,0,0,1,.6-1.8l1.47794-1.9706a1.62336,1.62336,0,0,1,2.44657-.17388h0a1.62335,1.62335,0,0,1,.15079,2.1219L17.62335,18" fill="none" stroke="#323232" stroke-linecap="round" stroke-linejoin="round" stroke-width="1.5"/><path d="M3,21l-.578-1.156A3.99768,3.99768,0,0,1,2,18.05569V11.5A1.5,1.5,0,0,1,3.5,10h0A1.5,1.5,0,0,1,5,11.5v4" fill="none" stroke="#323232" stroke-linecap="round" stroke-linejoin="round" stroke-width="1.5"/><path d="M10,21V18.42a3,3,0,0,0-.6-1.8l-1.47794-1.9706a1.62336,1.62336,0,0,0-2.44657-.17388h0a1.62335,1.62335,0,0,0-.15079,2.1219L6.37665,18" fill="none" stroke="#323232" stroke-linecap="round" stroke-linejoin="round" stroke-width="1.5"/><polyline points="10.5 11.5 8.5 9.5 10.5 7.5" fill="none" stroke="#323232" stroke-linecap="round" stroke-linejoin="round" stroke-width="1.5"/><polyline points="13.5 7.5 15.5 9.5 13.5 11.5" fill="none" stroke="#323232" stroke-linecap="round" stroke-linejoin="round" stroke-width="1.5"/><path d="M4,7V5A2,2,0,0,1,6,3H18a2,2,0,0,1,2,2V7" fill="none" stroke="#323232" stroke-linecap="round" stroke-linejoin="round" stroke-width="1.5"/></svg>