<svg xmlns="http://www.w3.org/2000/svg" viewBox="0 0 24 24"><path d="M3,14.75H4a1,1,0,0,0,1-1v-3.5" fill="none" stroke="#323232" stroke-linecap="round" stroke-linejoin="round" stroke-width="1.5"/><path d="M7.61549,14.75h1.757A1.12755,1.12755,0,0,0,10.5,13.62248h0a1.12754,1.12754,0,0,0-1.12754-1.12754h-.75A1.12245,1.12245,0,0,1,7.5,11.37248h0A1.12245,1.12245,0,0,1,8.62246,10.25h1.54421" fill="none" stroke="#323232" stroke-linecap="round" stroke-linejoin="round" stroke-width="1.5"/><path d="M4,18a3,3,0,0,0,3,3H18a3,3,0,0,0,3-3V8.24264a3,3,0,0,0-.87868-2.12132L17.87868,3.87868A3,3,0,0,0,15.75736,3H7A3,3,0,0,0,4,6" fill="none" stroke="#323232" stroke-linecap="round" stroke-linejoin="round" stroke-width="1.5"/><line x1="4" y1="6" x2="4" y2="7" fill="none" stroke="#323232" stroke-linecap="round" stroke-linejoin="round" stroke-width="1.5"/></svg>