<svg xmlns="http://www.w3.org/2000/svg" viewBox="0 0 24 24"><line x1="4" y1="10.25" x2="4" y2="14.75" fill="none" stroke="#323232" stroke-linecap="round" stroke-linejoin="round" stroke-width="1.5"/><path d="M14.5,10.25h1.75A1.25,1.25,0,0,1,17.5,11.5h0a1.25,1.25,0,0,1-1.25,1.25H14.5" fill="none" stroke="#323232" stroke-linecap="round" stroke-linejoin="round" stroke-width="1.5"/><line x1="14.5" y1="10.25" x2="14.5" y2="14.75" fill="none" stroke="#323232" stroke-linecap="round" stroke-linejoin="round" stroke-width="1.5"/><line x1="9.15" y1="10.25" x2="9.15" y2="14.75" fill="none" stroke="#323232" stroke-linecap="round" stroke-linejoin="round" stroke-width="1.5"/><line x1="12.15" y1="10.25" x2="12.15" y2="14.75" fill="none" stroke="#323232" stroke-linecap="round" stroke-linejoin="round" stroke-width="1.5"/><line x1="12.15" y1="12.5" x2="9.15" y2="12.5" fill="none" stroke="#323232" stroke-linecap="round" stroke-linejoin="round" stroke-width="1.5"/><path d="M4,10.25H5.75A1.25,1.25,0,0,1,7,11.5H7a1.25,1.25,0,0,1-1.25,1.25H4" fill="none" stroke="#323232" stroke-linecap="round" stroke-linejoin="round" stroke-width="1.5"/><path d="M4,18H4a3,3,0,0,0,3,3H18a3,3,0,0,0,3-3V8.24264a3,3,0,0,0-.87868-2.12132L17.87868,3.87868A3,3,0,0,0,15.75736,3H7A3,3,0,0,0,4,6V7" fill="none" stroke="#323232" stroke-linecap="round" stroke-linejoin="round" stroke-width="1.5"/></svg>