<svg xmlns="http://www.w3.org/2000/svg" viewBox="0 0 24 24"><line x1="16" y1="9.75" x2="16" y2="14.25" fill="none" stroke="#323232" stroke-linecap="round" stroke-linejoin="round" stroke-width="1.5"/><line x1="10.65" y1="9.75" x2="10.65" y2="14.25" fill="none" stroke="#323232" stroke-linecap="round" stroke-linejoin="round" stroke-width="1.5"/><line x1="13.65" y1="9.75" x2="13.65" y2="14.25" fill="none" stroke="#323232" stroke-linecap="round" stroke-linejoin="round" stroke-width="1.5"/><line x1="13.65" y1="12" x2="10.65" y2="12" fill="none" stroke="#323232" stroke-linecap="round" stroke-linejoin="round" stroke-width="1.5"/><path d="M16,9.75h1.5a1.5,1.5,0,0,1,1.5,1.5v0a1.5,1.5,0,0,1-1.5,1.5H16a0,0,0,0,1,0,0v-3A0,0,0,0,1,16,9.75Z" fill="none" stroke="#323232" stroke-linecap="round" stroke-linejoin="round" stroke-width="1.5"/><line x1="5.5" y1="9.75" x2="5.5" y2="14.25" fill="none" stroke="#323232" stroke-linecap="round" stroke-linejoin="round" stroke-width="1.5"/><path d="M5.5,9.75H7a1.5,1.5,0,0,1,1.5,1.5v0A1.5,1.5,0,0,1,7,12.75H5.5a0,0,0,0,1,0,0v-3A0,0,0,0,1,5.5,9.75Z" fill="none" stroke="#323232" stroke-linecap="round" stroke-linejoin="round" stroke-width="1.5"/><circle cx="12" cy="12" r="10" fill="none" stroke="#323232" stroke-linecap="round" stroke-linejoin="round" stroke-width="1.5"/></svg>