<svg xmlns="http://www.w3.org/2000/svg" viewBox="0 0 24 24"><line x1="13.5" y1="10.25" x2="13.5" y2="14.75" fill="none" stroke="#323232" stroke-linecap="round" stroke-linejoin="round" stroke-width="1.5"/><line x1="8.15" y1="10.25" x2="8.15" y2="14.75" fill="none" stroke="#323232" stroke-linecap="round" stroke-linejoin="round" stroke-width="1.5"/><line x1="11.15" y1="10.25" x2="11.15" y2="14.75" fill="none" stroke="#323232" stroke-linecap="round" stroke-linejoin="round" stroke-width="1.5"/><line x1="11.15" y1="12.5" x2="8.15" y2="12.5" fill="none" stroke="#323232" stroke-linecap="round" stroke-linejoin="round" stroke-width="1.5"/><path d="M13.5,10.25H15a1.5,1.5,0,0,1,1.5,1.5v0a1.5,1.5,0,0,1-1.5,1.5H13.5a0,0,0,0,1,0,0v-3A0,0,0,0,1,13.5,10.25Z" fill="none" stroke="#323232" stroke-linecap="round" stroke-linejoin="round" stroke-width="1.5"/><line x1="3" y1="10.25" x2="3" y2="14.75" fill="none" stroke="#323232" stroke-linecap="round" stroke-linejoin="round" stroke-width="1.5"/><path d="M3,10.25H4.5A1.5,1.5,0,0,1,6,11.75v0a1.5,1.5,0,0,1-1.5,1.5H3a0,0,0,0,1,0,0v-3A0,0,0,0,1,3,10.25Z" fill="none" stroke="#323232" stroke-linecap="round" stroke-linejoin="round" stroke-width="1.5"/><path d="M4,18a3,3,0,0,0,3,3H18a3,3,0,0,0,3-3V8.24264a3,3,0,0,0-.87868-2.12132L17.87868,3.87868A3,3,0,0,0,15.75736,3H7A3,3,0,0,0,4,6" fill="none" stroke="#323232" stroke-linecap="round" stroke-linejoin="round" stroke-width="1.5"/><line x1="4" y1="6" x2="4" y2="7" fill="none" stroke="#323232" stroke-linecap="round" stroke-linejoin="round" stroke-width="1.5"/></svg>