<svg xmlns="http://www.w3.org/2000/svg" viewBox="0 0 24 24"><circle cx="12" cy="12" r="10" fill="none" stroke="#323232" stroke-linecap="round" stroke-linejoin="round" stroke-width="1.5"/><path d="M17.5,10.02073v3.95854a2,2,0,0,1-1,1.73205L13,17.73205a2,2,0,0,1-2,0L7.5,15.71132a2,2,0,0,1-1-1.73205V10.02073a2,2,0,0,1,1-1.73205L11,6.268a2,2,0,0,1,2,0l3.5,2.02073A2,2,0,0,1,17.5,10.02073Z" fill="none" stroke="#323232" stroke-linecap="round" stroke-linejoin="round" stroke-width="1.5"/><path d="M12,12v2" fill="none" stroke="#323232" stroke-linecap="round" stroke-linejoin="round" stroke-width="1.5"/><path d="M10,10.75,12,12l2-1.25" fill="none" stroke="#323232" stroke-linecap="round" stroke-linejoin="round" stroke-width="1.5"/></svg>