<svg xmlns="http://www.w3.org/2000/svg" viewBox="0 0 24 24"><path d="M3,8V7A4,4,0,0,1,7,3H7" fill="none" stroke="#323232" stroke-linecap="round" stroke-linejoin="round" stroke-width="1.5"/><path d="M21,16v1a4,4,0,0,1-4,4H16" fill="none" stroke="#323232" stroke-linecap="round" stroke-linejoin="round" stroke-width="1.5"/><line x1="13" y1="6.5" x2="18" y2="6.5" fill="none" stroke="#323232" stroke-linecap="round" stroke-linejoin="round" stroke-width="1.5"/><line x1="15" y1="9.5" x2="18" y2="9.5" fill="none" stroke="#323232" stroke-linecap="round" stroke-linejoin="round" stroke-width="1.5"/><path d="M16,13h2.3a2.5,2.5,0,0,0,2.5-2.5v-5A2.5,2.5,0,0,0,18.3,3H12.5A2.5,2.5,0,0,0,10,5.5V8" fill="none" stroke="#323232" stroke-linecap="round" stroke-linejoin="round" stroke-width="1.5"/><path d="M7.4,17.5,8.9,16,7.4,14.5" fill="none" stroke="#323232" stroke-linecap="round" stroke-linejoin="round" stroke-width="1.5"/><rect x="3" y="11" width="10" height="10" rx="2.5" stroke-width="1.5" stroke="#323232" stroke-linecap="round" stroke-linejoin="round" fill="none"/></svg>