<svg xmlns="http://www.w3.org/2000/svg" viewBox="0 0 24 24"><line x1="12" y1="12" x2="17" y2="12" fill="none" stroke="#323232" stroke-linecap="round" stroke-linejoin="round" stroke-width="1.5"/><path d="M15,8.5h2" fill="none" stroke="#323232" stroke-linecap="round" stroke-linejoin="round" stroke-width="1.5"/><path d="M7,8.5h5" fill="none" stroke="#323232" stroke-linecap="round" stroke-linejoin="round" stroke-width="1.5"/><path d="M7,12H9" fill="none" stroke="#323232" stroke-linecap="round" stroke-linejoin="round" stroke-width="1.5"/><path d="M7,15.5h5" fill="none" stroke="#323232" stroke-linecap="round" stroke-linejoin="round" stroke-width="1.5"/><path d="M15,15.5h2" fill="none" stroke="#323232" stroke-linecap="round" stroke-linejoin="round" stroke-width="1.5"/><path d="M6.89909,20.62013,3.37868,17.09972A3,3,0,0,1,2.5,14.9784V9.02025a3,3,0,0,1,.87869-2.12134L6.90017,3.37748a3,3,0,0,1,2.1213-.87866h5.95706a3,3,0,0,1,2.12132.87868L20.62132,6.899A3,3,0,0,1,21.5,9.02029v5.95806a3,3,0,0,1-.87835,2.121l-3.51934,3.52045a3,3,0,0,1-2.12166.879H9.02041A3,3,0,0,1,6.89909,20.62013Z" fill="none" stroke="#323232" stroke-linecap="round" stroke-linejoin="round" stroke-width="1.5"/></svg>