<svg xmlns="http://www.w3.org/2000/svg" viewBox="0 0 24 24"><line x1="13.75" y1="7.25" x2="14.75" y2="7.25" fill="none" stroke="#323232" stroke-linecap="round" stroke-linejoin="round" stroke-width="1.5"/><line x1="14.75" y1="7.25" x2="14.75" y2="10.75" fill="none" stroke="#323232" stroke-linecap="round" stroke-linejoin="round" stroke-width="1.5"/><line x1="13.75" y1="10.75" x2="15.75" y2="10.75" fill="none" stroke="#323232" stroke-linecap="round" stroke-linejoin="round" stroke-width="1.5"/><line x1="8.25" y1="13.25" x2="9.25" y2="13.25" fill="none" stroke="#323232" stroke-linecap="round" stroke-linejoin="round" stroke-width="1.5"/><line x1="9.25" y1="13.25" x2="9.25" y2="16.75" fill="none" stroke="#323232" stroke-linecap="round" stroke-linejoin="round" stroke-width="1.5"/><line x1="8.25" y1="16.75" x2="10.25" y2="16.75" fill="none" stroke="#323232" stroke-linecap="round" stroke-linejoin="round" stroke-width="1.5"/><path d="M16,21h2a3,3,0,0,0,3-3V16" fill="none" stroke="#323232" stroke-linecap="round" stroke-linejoin="round" stroke-width="1.5"/><path d="M16,3h2a3,3,0,0,1,3,3V8" fill="none" stroke="#323232" stroke-linecap="round" stroke-linejoin="round" stroke-width="1.5"/><path d="M3,16v2a3,3,0,0,0,3,3H8" fill="none" stroke="#323232" stroke-linecap="round" stroke-linejoin="round" stroke-width="1.5"/><path d="M3,8V6A3,3,0,0,1,6,3H8" fill="none" stroke="#323232" stroke-linecap="round" stroke-linejoin="round" stroke-width="1.5"/><rect x="8" y="7.25" width="3" height="3.5" rx="0.5" stroke-width="1.5" stroke="#323232" stroke-linecap="round" stroke-linejoin="round" fill="none"/><rect x="13" y="13.25" width="3" height="3.5" rx="0.5" stroke-width="1.5" stroke="#323232" stroke-linecap="round" stroke-linejoin="round" fill="none"/></svg>