<svg xmlns="http://www.w3.org/2000/svg" viewBox="0 0 24 24"><path d="M9,15.2662a5.99923,5.99923,0,0,0-4.47754.59331A1.00177,1.00177,0,0,1,3,15.01275l.00008-9.4836a1.22072,1.22072,0,0,1,.37682-.9024A6.05186,6.05186,0,0,1,12,5" fill="none" stroke="#323232" stroke-linecap="round" stroke-linejoin="round" stroke-width="1.5"/><rect x="12" y="12" width="9" height="9" rx="2.5" stroke-width="1.5" stroke="#323232" stroke-linecap="round" stroke-linejoin="round" fill="none"/><path d="M15.75,18l1.5-1.5L15.75,15" fill="none" stroke="#323232" stroke-linecap="round" stroke-linejoin="round" stroke-width="1.5"/><path d="M21,9l-.00007-3.365a1.43343,1.43343,0,0,0-.45476-1.07838A6.05046,6.05046,0,0,0,12,5V9" fill="none" stroke="#323232" stroke-linecap="round" stroke-linejoin="round" stroke-width="1.5"/></svg>