<svg xmlns="http://www.w3.org/2000/svg" viewBox="0 0 24 24"><rect x="2" y="3" width="20" height="18" rx="5" stroke-width="1.5" stroke="#323232" stroke-linecap="round" stroke-linejoin="round" fill="none"/><line x1="15.5" y1="9.75" x2="15.5" y2="14.25" fill="none" stroke="#323232" stroke-linecap="round" stroke-linejoin="round" stroke-width="1.5"/><line x1="18.5" y1="14.25" x2="18.5" y2="9.75" fill="none" stroke="#323232" stroke-linecap="round" stroke-linejoin="round" stroke-width="1.5"/><line x1="15.5" y1="12" x2="18.5" y2="12" fill="none" stroke="#323232" stroke-linecap="round" stroke-linejoin="round" stroke-width="1.5"/><path d="M10.4,14.25h1.757a1.12755,1.12755,0,0,0,1.12754-1.12756h0A1.12754,1.12754,0,0,0,12.157,11.9949h-.75a1.12246,1.12246,0,0,1-1.12246-1.12246h0A1.12245,1.12245,0,0,1,11.407,9.75h1.54421" fill="none" stroke="#323232" stroke-linecap="round" stroke-linejoin="round" stroke-width="1.5"/><path d="M5.5,14.25H7.257a1.12755,1.12755,0,0,0,1.12754-1.12756h0A1.12754,1.12754,0,0,0,7.257,11.9949h-.75a1.12246,1.12246,0,0,1-1.12246-1.12246h0A1.12245,1.12245,0,0,1,6.507,9.75H8.05118" fill="none" stroke="#323232" stroke-linecap="round" stroke-linejoin="round" stroke-width="1.5"/></svg>