<?xml version="1.0" encoding="UTF-8"?><svg version="1.1" viewBox="0 0 24 24" xmlns="http://www.w3.org/2000/svg" xmlns:xlink="http://www.w3.org/1999/xlink"><g fill="none"><rect width="24" height="24"></rect><path stroke="#323232" stroke-linecap="round" stroke-linejoin="round" stroke-width="1.5" d="M20 12.5v5.5c0 1.657-1.343 3-3 3h-11c-1.657 0-3-1.343-3-3v-11c0-1.657 1.343-3 3-3h5.5"></path><line x1="20" x2="3" y1="12.5" y2="12.5" stroke="#323232" stroke-linecap="round" stroke-linejoin="round" stroke-width="1.5"></line><line x1="11.5" x2="11.5" y1="4" y2="21" stroke="#323232" stroke-linecap="round" stroke-linejoin="round" stroke-width="1.5"></line><path stroke="#323232" stroke-linecap="round" stroke-linejoin="round" stroke-width="1.5" d="M20.775 3.45c-.124 0-.225-.102-.225-.225 .001-.124.102-.225.225-.225 .123 0 .225.101.224.225 .001.124-.099.225-.224.225"></path><path stroke="#323232" stroke-linecap="round" stroke-linejoin="round" stroke-width="1.5" d="M21 6c-1.756-.039-2.961-1.244-3-3"></path><path stroke="#323232" stroke-linecap="round" stroke-linejoin="round" stroke-width="1.5" d="M15 3c.009.759.137 1.47.367 2.121 .588 1.665 1.847 2.924 3.513 3.513 .65.229 1.361.357 2.12.366"></path></g></svg>