<?xml version="1.0" encoding="UTF-8"?><svg version="1.1" viewBox="0 0 24 24" xmlns="http://www.w3.org/2000/svg" xmlns:xlink="http://www.w3.org/1999/xlink"><!--Generated by IJSVG (https://github.com/iconjar/IJSVG)--><g fill="none"><path d="M0,0h24v24h-24Z"></path><path stroke="#323232" stroke-linecap="round" stroke-linejoin="round" stroke-width="1.5" d="M15,18.5h-8c-1.657,0 -3,-1.343 -3,-3v-5c0,-0.552 0.448,-1 1,-1h12c0.552,0 1,0.448 1,1v5c0,1.657 -1.343,3 -3,3Z"></path><path stroke="#323232" stroke-linecap="round" stroke-linejoin="round" stroke-width="1.5" d="M16,3.5l-5,6"></path><path stroke="#323232" stroke-linecap="round" stroke-linejoin="round" stroke-width="1.5" d="M20,5.5l-5,4"></path><path stroke="#323232" stroke-linecap="round" stroke-linejoin="round" stroke-width="1.5" d="M16,18.329v1.421c0,0.69 -0.56,1.25 -1.25,1.25h-7.5c-0.69,0 -1.25,-0.56 -1.25,-1.25v-1.421"></path><path stroke="#323232" stroke-linecap="round" stroke-linejoin="round" stroke-width="1.5" d="M11,5c-0.667,-0.552 -0.667,-1.448 0,-2"></path><path stroke="#323232" stroke-linecap="round" stroke-linejoin="round" stroke-width="1.5" d="M7,5c0.667,0.552 0.667,1.448 0,2"></path></g></svg>