<svg xmlns="http://www.w3.org/2000/svg" viewBox="0 0 24 24"><line x1="6.99998" y1="12" x2="6.99998" y2="4" fill="none" stroke="#323232" stroke-linecap="round" stroke-linejoin="round" stroke-width="1.5"/><line x1="9.99998" y1="9" x2="9.99998" y2="4" fill="none" stroke="#323232" stroke-linecap="round" stroke-linejoin="round" stroke-width="1.5"/><path d="M6.99967,18.962A7.99912,7.99912,0,0,1,3.00993,13.1388,1.00647,1.00647,0,0,1,4.00852,12H19.99145A1.00646,1.00646,0,0,1,20.99,13.1388,7.9991,7.9991,0,0,1,17.0003,18.962V20a1,1,0,0,1-1,1H7.99967a1,1,0,0,1-1-1Z" fill="none" stroke="#323232" stroke-linecap="round" stroke-linejoin="round" stroke-width="1.5"/><line x1="2.99999" y1="9" x2="3.99999" y2="8.94446" fill="none" stroke="#323232" stroke-linecap="round" stroke-linejoin="round" stroke-width="1.5"/><line x1="3.99999" y1="5.83331" x2="2.99999" y2="6" fill="none" stroke="#323232" stroke-linecap="round" stroke-linejoin="round" stroke-width="1.5"/><line x1="12.99999" y1="8.44446" x2="20.99999" y2="8" fill="none" stroke="#323232" stroke-linecap="round" stroke-linejoin="round" stroke-width="1.5"/><line x1="20.99999" y1="3" x2="12.99999" y2="4.33331" fill="none" stroke="#323232" stroke-linecap="round" stroke-linejoin="round" stroke-width="1.5"/></svg>