<svg xmlns="http://www.w3.org/2000/svg" viewBox="0 0 24 24"><path d="M18,12l-4.6116,4.44765a2.02113,2.02113,0,0,1-2.7768,0L6,12" fill="none" stroke="#323232" stroke-linecap="round" stroke-linejoin="round" stroke-width="1.5"/><path d="M12,12H4.00654A.995.995,0,0,1,3.004,11.06373C2.85425,7.18231,6.93933,4,12,4s9.14573,3.18231,8.996,7.06373A.995.995,0,0,1,19.99343,12Z" fill="none" stroke="#323232" stroke-linecap="round" stroke-linejoin="round" stroke-width="1.5"/><path d="M13.85253,16H20a2,2,0,0,0,2-2h0a2,2,0,0,0-2-2H4a2,2,0,0,0-2,2H2a2,2,0,0,0,2,2h6.14745" fill="none" stroke="#323232" stroke-linecap="round" stroke-linejoin="round" stroke-width="1.5"/><path d="M19.78018,16a1,1,0,0,1,.98058,1.19612l-.43922,2.19611A2,2,0,0,1,18.36038,21H5.6396a2,2,0,0,1-1.96117-1.60777l-.43922-2.19611A1,1,0,0,1,4.21979,16" fill="none" stroke="#323232" stroke-linecap="round" stroke-linejoin="round" stroke-width="1.5"/></svg>