<svg xmlns="http://www.w3.org/2000/svg" viewBox="0 0 24 24"><line x1="11.99999" y1="10" x2="11.99999" y2="2" fill="none" stroke="#323232" stroke-linecap="round" stroke-linejoin="round" stroke-width="1.5"/><path d="M6,10V3.5A1.5,1.5,0,0,1,7.5,2h9A1.5,1.5,0,0,1,18,3.5V10" fill="none" stroke="#323232" stroke-linecap="round" stroke-linejoin="round" stroke-width="1.5"/><line x1="5.99999" y1="6" x2="17.99999" y2="6" fill="none" stroke="#323232" stroke-linecap="round" stroke-linejoin="round" stroke-width="1.5"/><path d="M19.5,12.99187V19a2,2,0,0,1-2,2H6.5a2,2,0,0,1-2-2V12.30437" fill="none" stroke="#323232" stroke-linecap="round" stroke-linejoin="round" stroke-width="1.5"/><path d="M17.37523,14.988l-11-.6875A2,2,0,0,1,4.5,12.30437V11.5A1.5,1.5,0,0,1,6,10H18a1.5,1.5,0,0,1,1.5,1.5v1.49187A2,2,0,0,1,17.37523,14.988Z" fill="none" stroke="#323232" stroke-linecap="round" stroke-linejoin="round" stroke-width="1.5"/></svg>