<svg xmlns="http://www.w3.org/2000/svg" viewBox="0 0 24 24"><line x1="6.99999" y1="3" x2="6.99999" y2="6" fill="none" stroke="#323232" stroke-linecap="round" stroke-linejoin="round" stroke-width="1.5"/><line x1="10.49999" y1="3" x2="10.49999" y2="6" fill="none" stroke="#323232" stroke-linecap="round" stroke-linejoin="round" stroke-width="1.5"/><line x1="13.99999" y1="3" x2="13.99999" y2="6" fill="none" stroke="#323232" stroke-linecap="round" stroke-linejoin="round" stroke-width="1.5"/><path d="M17,17h2a3,3,0,0,0,3-3V11.5A2.5,2.5,0,0,0,19.5,9H16" fill="none" stroke="#323232" stroke-linecap="round" stroke-linejoin="round" stroke-width="1.5"/><path d="M6.5,9h7A3.5,3.5,0,0,1,17,12.5V20a1,1,0,0,1-1,1H4a1,1,0,0,1-1-1V12.5A3.5,3.5,0,0,1,6.5,9Z" transform="translate(20 30) rotate(180)" fill="none" stroke="#323232" stroke-linecap="round" stroke-linejoin="round" stroke-width="1.5"/></svg>