<svg xmlns="http://www.w3.org/2000/svg" viewBox="0 0 24 24"><line x1="7.99999" y1="8" x2="7.99999" y2="8.5" fill="none" stroke="#323232" stroke-linecap="round" stroke-linejoin="round" stroke-width="1.5"/><line x1="7.99999" y1="15.5" x2="7.99999" y2="16" fill="none" stroke="#323232" stroke-linecap="round" stroke-linejoin="round" stroke-width="1.5"/><line x1="7.99999" y1="11.75" x2="7.99999" y2="12.25" fill="none" stroke="#323232" stroke-linecap="round" stroke-linejoin="round" stroke-width="1.5"/><line x1="11.99999" y1="8" x2="11.99999" y2="8.5" fill="none" stroke="#323232" stroke-linecap="round" stroke-linejoin="round" stroke-width="1.5"/><line x1="11.99999" y1="15.5" x2="11.99999" y2="16" fill="none" stroke="#323232" stroke-linecap="round" stroke-linejoin="round" stroke-width="1.5"/><line x1="11.99999" y1="11.75" x2="11.99999" y2="12.25" fill="none" stroke="#323232" stroke-linecap="round" stroke-linejoin="round" stroke-width="1.5"/><line x1="15.99999" y1="8" x2="15.99999" y2="8.5" fill="none" stroke="#323232" stroke-linecap="round" stroke-linejoin="round" stroke-width="1.5"/><line x1="15.99999" y1="15.5" x2="15.99999" y2="16" fill="none" stroke="#323232" stroke-linecap="round" stroke-linejoin="round" stroke-width="1.5"/><line x1="15.99999" y1="11.75" x2="15.99999" y2="12.25" fill="none" stroke="#323232" stroke-linecap="round" stroke-linejoin="round" stroke-width="1.5"/><path d="M17.67255,3.02181a49.33938,49.33938,0,0,1-11.34512,0A2.97976,2.97976,0,0,0,3.02182,6.32742a49.33938,49.33938,0,0,1,0,11.34512,2.97976,2.97976,0,0,0,3.30561,3.30561,49.33938,49.33938,0,0,1,11.34512,0,2.97976,2.97976,0,0,0,3.30561-3.30561,49.33938,49.33938,0,0,1,0-11.34512A2.97976,2.97976,0,0,0,17.67255,3.02181Z" fill="none" stroke="#323232" stroke-linecap="round" stroke-linejoin="round" stroke-width="1.5"/></svg>