<svg xmlns="http://www.w3.org/2000/svg" viewBox="0 0 24 24"><path d="M19,14l-.68557,4.45616A3,3,0,0,1,15.34931,21H8.65067a3,3,0,0,1-2.96512-2.54383L5,14" fill="none" stroke="#323232" stroke-linecap="round" stroke-linejoin="round" stroke-width="1.5"/><line x1="15.99999" y1="8.5" x2="15.49999" y2="9" fill="none" stroke="#323232" stroke-linecap="round" stroke-linejoin="round" stroke-width="1.5"/><line x1="7.99999" y1="8.5" x2="8.49999" y2="9" fill="none" stroke="#323232" stroke-linecap="round" stroke-linejoin="round" stroke-width="1.5"/><line x1="10.49999" y1="6" x2="9.99999" y2="6.5" fill="none" stroke="#323232" stroke-linecap="round" stroke-linejoin="round" stroke-width="1.5"/><line x1="13.49999" y1="6" x2="13.99999" y2="6.5" fill="none" stroke="#323232" stroke-linecap="round" stroke-linejoin="round" stroke-width="1.5"/><line x1="11.74999" y1="9" x2="12.24999" y2="9.5" fill="none" stroke="#323232" stroke-linecap="round" stroke-linejoin="round" stroke-width="1.5"/><path d="M12.11264,2.00037q-.11253-.00068-.22505,0a9.08533,9.08533,0,0,0-8.82,10.24262h0A1.9952,1.9952,0,0,0,5.04827,14H18.95185A1.9952,1.9952,0,0,0,20.93254,12.243l0-.00012A9.08537,9.08537,0,0,0,12.11264,2.00037Z" fill="none" stroke="#323232" stroke-linecap="round" stroke-linejoin="round" stroke-width="1.5"/></svg>