<svg xmlns="http://www.w3.org/2000/svg" viewBox="0 0 24 24"><path d="M8.79569,18l-.70838,1.59385A1,1,0,0,0,9.00111,21h5.99775a1,1,0,0,0,.91381-1.40613L15.2043,18" fill="none" stroke="#323232" stroke-linecap="round" stroke-linejoin="round" stroke-width="1.5"/><path d="M8.5,7h0A4.5,4.5,0,0,0,4,11.5v.58531" fill="none" stroke="#323232" stroke-linecap="round" stroke-linejoin="round" stroke-width="1.5"/><path d="M11.99567,8.67511A4.44936,4.44936,0,0,0,8.5,7" fill="none" stroke="#323232" stroke-linecap="round" stroke-linejoin="round" stroke-width="1.5"/><path d="M16.46051,7.108a4.47534,4.47534,0,0,0-8.92-.00537" fill="none" stroke="#323232" stroke-linecap="round" stroke-linejoin="round" stroke-width="1.5"/><path d="M4.50037,12H19.49963a1.5,1.5,0,0,1,1.47959,1.7466l-.097.5822A4.39348,4.39348,0,0,1,16.54848,18h-9.097a4.39348,4.39348,0,0,1-4.33371-3.6712l-.097-.5822A1.5,1.5,0,0,1,4.50037,12Z" fill="none" stroke="#323232" stroke-linecap="round" stroke-linejoin="round" stroke-width="1.5"/><path d="M20,12.08526V11.5A4.5,4.5,0,0,0,15.5,7h0A4.5,4.5,0,0,0,11,11.5V12" fill="none" stroke="#323232" stroke-linecap="round" stroke-linejoin="round" stroke-width="1.5"/></svg>