<svg xmlns="http://www.w3.org/2000/svg" viewBox="0 0 24 24"><path d="M17.99633,10H6.00365a2,2,0,0,0-1.60039,3.19947l5.99636,8.00006a2,2,0,0,0,3.20074,0l5.99636-8.00006A2,2,0,0,0,17.99633,10Z" fill="none" stroke="#323232" stroke-linecap="round" stroke-linejoin="round" stroke-width="1.5"/><path d="M8.02,5.6a4.00006,4.00006,0,0,1,7.96,0" fill="none" stroke="#323232" stroke-linecap="round" stroke-linejoin="round" stroke-width="1.5"/><path d="M19,10.26581V9.5a4,4,0,0,0-8,0" fill="none" stroke="#323232" stroke-linecap="round" stroke-linejoin="round" stroke-width="1.5"/><line x1="11" y1="9.5" x2="11" y2="10" fill="none" stroke="#323232" stroke-linecap="round" stroke-linejoin="round" stroke-width="1.5"/><path d="M5,10.2658V9.5a3.99652,3.99652,0,0,1,7-2.64" fill="none" stroke="#323232" stroke-linecap="round" stroke-linejoin="round" stroke-width="1.5"/></svg>