<svg xmlns="http://www.w3.org/2000/svg" viewBox="0 0 24 24"><path d="M19.77765,10H12.22233a1.22222,1.22222,0,0,0-1.2165,1.3404l.8133,8.37127A1.42623,1.42623,0,0,0,13.23868,21h5.52263a1.42623,1.42623,0,0,0,1.41954-1.28832l.8133-8.37127A1.22222,1.22222,0,0,0,19.77765,10Z" fill="none" stroke="#323232" stroke-linecap="round" stroke-linejoin="round" stroke-width="1.5"/><rect x="5.42304" y="1.65384" width="4.15389" height="4.8462" rx="1.38463" transform="translate(11.57693 -3.42304) rotate(90)" stroke-width="1.5" stroke="#323232" stroke-linecap="round" stroke-linejoin="round" fill="none"/><path d="M9.29852,5.92688,11.1,8.32886a4.48841,4.48841,0,0,1,.78009,1.72748" fill="none" stroke="#323232" stroke-linecap="round" stroke-linejoin="round" stroke-width="1.5"/><path d="M5.70166,5.92664,3.9,8.3288a4.50007,4.50007,0,0,0-.9,2.7V19a2,2,0,0,0,2,2h5a1.99836,1.99836,0,0,0,1.82849-1.19507" fill="none" stroke="#323232" stroke-linecap="round" stroke-linejoin="round" stroke-width="1.5"/></svg>