<svg xmlns="http://www.w3.org/2000/svg" viewBox="0 0 24 24"><path d="M7.93852,2.914A14.99482,14.99482,0,0,1,20.986,15.96148a1.9899,1.9899,0,0,1-1.61157,2.16637l-13.98974,2.734a2,2,0,0,1-2.34646-2.34646l2.734-13.98974A1.9899,1.9899,0,0,1,7.93852,2.914Z" fill="none" stroke="#323232" stroke-linecap="round" stroke-linejoin="round" stroke-width="1.5"/><path d="M9.6,7.9997A.04942.04942,0,0,0,9.55,7.95a.05034.05034,0,0,0-.05.05031.05.05,0,0,0,.1-.00062" fill="none" stroke="#323232" stroke-linecap="round" stroke-linejoin="round" stroke-width="1.5"/><path d="M7.6,13.4997A.04942.04942,0,0,0,7.55,13.45a.05034.05034,0,0,0-.05.05031.05.05,0,0,0,.1-.00062" fill="none" stroke="#323232" stroke-linecap="round" stroke-linejoin="round" stroke-width="1.5"/><path d="M11.6,11.9997a.04942.04942,0,0,0-.05-.04969.05034.05034,0,0,0-.05.05031.05.05,0,0,0,.1-.00062" fill="none" stroke="#323232" stroke-linecap="round" stroke-linejoin="round" stroke-width="1.5"/><path d="M11.55029,15.9997A.04957.04957,0,0,0,11.5,15.95a.0505.0505,0,0,0-.05031.05031.05031.05031,0,0,0,.10061-.00062" fill="none" stroke="#323232" stroke-linecap="round" stroke-linejoin="round" stroke-width="1.5"/><path d="M16.1,13.9997a.04942.04942,0,0,0-.05-.04969.05034.05034,0,0,0-.05.05031.05.05,0,0,0,.1-.00062" fill="none" stroke="#323232" stroke-linecap="round" stroke-linejoin="round" stroke-width="1.5"/><path d="M14.6,9.4997A.04942.04942,0,0,0,14.55,9.45a.05034.05034,0,0,0-.05.05031.05.05,0,0,0,.1-.00062" fill="none" stroke="#323232" stroke-linecap="round" stroke-linejoin="round" stroke-width="1.5"/></svg>