<svg xmlns="http://www.w3.org/2000/svg" viewBox="0 0 24 24"><path d="M2,9,3.41421,7.58579A2,2,0,0,1,4.82843,7H19.17157a2,2,0,0,1,1.41422.58579L22,9" fill="none" stroke="#323232" stroke-linecap="round" stroke-linejoin="round" stroke-width="1.5"/><line x1="11" y1="2" x2="10" y2="7" fill="none" stroke="#323232" stroke-linecap="round" stroke-linejoin="round" stroke-width="1.5"/><line x1="15" y1="3" x2="14" y2="7" fill="none" stroke="#323232" stroke-linecap="round" stroke-linejoin="round" stroke-width="1.5"/><path d="M20.03652,7.19847,19.139,19.14978A2,2,0,0,1,17.14457,21H6.85546a2,2,0,0,1-1.99439-1.85025L3.96358,7.19719" fill="none" stroke="#323232" stroke-linecap="round" stroke-linejoin="round" stroke-width="1.5"/><path d="M5,7,6.98026,9.97081A2.311,2.311,0,0,0,8.90316,11h6.19368a2.311,2.311,0,0,0,1.9229-1.02919L19,7" fill="none" stroke="#323232" stroke-linecap="round" stroke-linejoin="round" stroke-width="1.5"/></svg>