<svg xmlns="http://www.w3.org/2000/svg" viewBox="0 0 24 24"><path d="M20.00885,12.11115a1.05555,1.05555,0,0,0-.11-1.59A7.06812,7.06812,0,0,0,14.839,9.17188" fill="none" stroke="#323232" stroke-linecap="round" stroke-linejoin="round" stroke-width="1.5"/><path d="M12.81216,13.356l-.25346.25346a7.08814,7.08814,0,0,1-9.255.66593h0a1.05263,1.05263,0,0,1-.11423-1.58754l8.701-8.701a1.05263,1.05263,0,0,1,1.58754.11423h0A7.08814,7.08814,0,0,1,12.81216,13.356Z" fill="none" stroke="#323232" stroke-linecap="round" stroke-linejoin="round" stroke-width="1.5"/><path d="M13.11911,2.7582a2.60241,2.60241,0,0,1,3.4446-.20221,2.611,2.611,0,0,1,2.83221.57158,2.58375,2.58375,0,0,1,.667,1.17908,2.57887,2.57887,0,0,1,1.68666,3.62071,2.60346,2.60346,0,0,1-.50758,2.95373" fill="none" stroke="#323232" stroke-linecap="round" stroke-linejoin="round" stroke-width="1.5"/><path d="M21.242,10.88088,11.36768,20.7552a4.25,4.25,0,0,1-6.0104,0L3.24479,18.64274a4.25,4.25,0,0,1,0-6.01042L13.11914,2.758" fill="none" stroke="#323232" stroke-linecap="round" stroke-linejoin="round" stroke-width="1.5"/></svg>