<svg id="Layer_3" data-name="Layer 3" xmlns="http://www.w3.org/2000/svg" viewBox="0 0 24 24"><line x1="21.5" y1="12" x2="2.5" y2="12" fill="none" stroke="#323232" stroke-linecap="round" stroke-linejoin="round" stroke-width="1.5"/><path d="M10.14905,21H4.61111A2.11111,2.11111,0,0,1,2.5,18.88889V12.0908A2.11108,2.11108,0,0,1,3.11834,10.598l6.75425-6.7542a2.881,2.881,0,0,1,4.07436,0l6.93471,6.93465A2.1111,2.1111,0,0,1,21.5,12.27126v6.61763A2.11111,2.11111,0,0,1,19.38889,21H13.99011" fill="none" stroke="#323232" stroke-linecap="round" stroke-linejoin="round" stroke-width="1.5"/><path d="M18.99011,16,13.641,21.34911a2.22236,2.22236,0,0,1-3.14283,0L5.14905,16" fill="none" stroke="#323232" stroke-linecap="round" stroke-linejoin="round" stroke-width="1.5"/><line x1="21.5" y1="16" x2="2.5" y2="16" fill="none" stroke="#323232" stroke-linecap="round" stroke-linejoin="round" stroke-width="1.5"/><path d="M0,0H24V24H0Z" fill="none"/></svg>