<svg id="Layer_3" data-name="Layer 3" xmlns="http://www.w3.org/2000/svg" viewBox="0 0 24 24"><path d="M0,0H24V24H0Z" fill="none"/><path d="M14,15.625V19.75C14,20.99264,11.98528,22,9.5,22S5,20.99264,5,19.75V15.625" fill="none" stroke="#323232" stroke-linecap="round" stroke-linejoin="round" stroke-width="1.5"/><path d="M14,15.625V19.75C14,20.99264,11.98528,22,9.5,22S5,20.99264,5,19.75V15.625" fill="none" stroke="#323232" stroke-linecap="round" stroke-linejoin="round" stroke-width="1.5"/><ellipse cx="9.5" cy="15.625" rx="4.5" ry="2.625" fill="none" stroke="#323232" stroke-linecap="round" stroke-linejoin="round" stroke-width="1.5"/><line x1="10.25" y1="15.625" x2="8.75" y2="15.625" fill="none" stroke="#323232" stroke-linecap="round" stroke-linejoin="round" stroke-width="1.5"/><line x1="3" y1="7" x2="19" y2="2" fill="none" stroke="#323232" stroke-linecap="round" stroke-linejoin="round" stroke-width="1.5"/><line x1="4" y1="10" x2="21" y2="6" fill="none" stroke="#323232" stroke-linecap="round" stroke-linejoin="round" stroke-width="1.5"/><path d="M20,13.63v4.12C20,18.99,17.99,20,15.5,20a7.97954,7.97954,0,0,1-1.5-.13" fill="none" stroke="#323232" stroke-linecap="round" stroke-linejoin="round" stroke-width="1.5"/><path d="M14,16.09155a7.19252,7.19252,0,0,0,1.5.15845c2.49,0,4.5-1.18,4.5-2.62C20,12.18,17.99,11,15.5,11c-2.22,0-4.06.94-4.43,2.17" fill="none" stroke="#323232" stroke-linecap="round" stroke-linejoin="round" stroke-width="1.5"/></svg>