<svg xmlns="http://www.w3.org/2000/svg" viewBox="0 0 24 24"><line x1="17.49999" y1="3" x2="6.49999" y2="3" fill="none" stroke="#323232" stroke-linecap="round" stroke-linejoin="round" stroke-width="1.5"/><circle cx="11.99999" cy="14" r="3.5" fill="none" stroke="#323232" stroke-linecap="round" stroke-linejoin="round" stroke-width="1.5"/><line x1="18.50004" y1="7" x2="5.49996" y2="7" fill="none" stroke="#323232" stroke-linecap="round" stroke-linejoin="round" stroke-width="1.5"/><path d="M17,3v.52787a1.9978,1.9978,0,0,0,.21089.89393l1.37383,2.7475A3.90971,3.90971,0,0,1,19,8.92273c0,2.063,0,6.65806,0,8.43a3.98946,3.98946,0,0,1-.20529,1.26325h0A3.48658,3.48658,0,0,1,15.48706,21H8.51292a3.48658,3.48658,0,0,1-3.30765-2.384h0A3.98946,3.98946,0,0,1,5,17.35277c0-1.772,0-6.36706,0-8.43A3.90971,3.90971,0,0,1,5.41527,7.1693L6.7891,4.4218A1.9978,1.9978,0,0,0,7,3.52787V3" fill="none" stroke="#323232" stroke-linecap="round" stroke-linejoin="round" stroke-width="1.5"/></svg>