<svg xmlns="http://www.w3.org/2000/svg" viewBox="0 0 24 24"><ellipse cx="16.99999" cy="9.41667" rx="5" ry="2.91667" fill="none" stroke="#323232" stroke-linecap="round" stroke-linejoin="round" stroke-width="1.5"/><path d="M14,13.41667V19.5c0,1.38071-2.23858,2.5-5,2.5s-5-1.11929-5-2.5V13.41667" fill="none" stroke="#323232" stroke-linecap="round" stroke-linejoin="round" stroke-width="1.5"/><path d="M12,4.92c0,1.61-2.24,2.91-5,2.91S2,6.53,2,4.92,4.24,2,7,2,12,3.31,12,4.92Z" fill="none" stroke="#323232" stroke-linecap="round" stroke-linejoin="round" stroke-width="1.5"/><line x1="12" y1="4.92" x2="12" y2="11.09" fill="none" stroke="#323232" stroke-linecap="round" stroke-linejoin="round" stroke-width="1.5"/><path d="M14,17.5a8.71832,8.71832,0,0,0,3,.5c2.76142,0,5-1.11929,5-2.5V9.41667" fill="none" stroke="#323232" stroke-linecap="round" stroke-linejoin="round" stroke-width="1.5"/><ellipse cx="8.99999" cy="13.41667" rx="5" ry="2.91667" fill="none" stroke="#323232" stroke-linecap="round" stroke-linejoin="round" stroke-width="1.5"/><path d="M4.046,13.01831C2.80841,12.55823,2,11.829,2,11V4.92" fill="none" stroke="#323232" stroke-linecap="round" stroke-linejoin="round" stroke-width="1.5"/></svg>