<?xml version="1.0" encoding="UTF-8"?><svg version="1.1" viewBox="0 0 24 24" xmlns="http://www.w3.org/2000/svg" xmlns:xlink="http://www.w3.org/1999/xlink"><!--Generated by IJSVG (https://github.com/iconjar/IJSVG)--><g stroke-linecap="round" stroke-width="1.5" stroke="#323232" fill="none" stroke-linejoin="round"><path d="M18.965,16.61l-1.173,-1.173c-0.586,-0.586 -1.536,-0.586 -2.121,0l-0.922,0.922c-0.206,0.206 -0.518,0.275 -0.784,0.158c-1.336,-0.585 -2.656,-1.472 -3.833,-2.649c-1.172,-1.172 -2.056,-2.486 -2.642,-3.817c-0.122,-0.275 -0.051,-0.598 0.162,-0.811l0.826,-0.826c0.671,-0.671 0.671,-1.62 0.085,-2.206l-1.173,-1.173c-0.781,-0.781 -2.047,-0.781 -2.828,0l-0.652,0.651c-0.741,0.741 -1.05,1.81 -0.85,2.87c0.494,2.613 2.012,5.474 4.461,7.923c2.449,2.449 5.31,3.967 7.923,4.461c1.06,0.2 2.129,-0.109 2.87,-0.85l0.651,-0.651c0.781,-0.781 0.781,-2.047 0,-2.829Z"></path><path d="M13,6.991c1.031,-0.014 2.067,0.368 2.854,1.155"></path><path d="M18.682,5.318c-1.569,-1.569 -3.626,-2.354 -5.682,-2.354"></path><path d="M17.009,11c0.014,-1.031 -0.368,-2.067 -1.155,-2.854"></path><path d="M18.682,5.318c1.569,1.569 2.354,3.626 2.354,5.682"></path></g><path fill="none" d="M0,0h24v24h-24Z"></path></svg>