<svg xmlns="http://www.w3.org/2000/svg" viewBox="0 0 24 24"><g id="Layer_2" data-name="Layer 2"><path d="M10.667,21,12,19.667l-1.333-1.333" fill="none" stroke="#323232" stroke-linecap="round" stroke-linejoin="round" stroke-width="1.5"/><path d="M20.889,14.006A2.335,2.335,0,0,1,22,15.778c0,1.636-2.6,3.033-6.278,3.608" fill="none" stroke="#323232" stroke-linecap="round" stroke-linejoin="round" stroke-width="1.5"/><path d="M3.111,14.006A2.335,2.335,0,0,0,2,15.778c0,2.148,4.477,3.889,10,3.889" fill="none" stroke="#323232" stroke-linecap="round" stroke-linejoin="round" stroke-width="1.5"/><path d="M8.80328,12.54092h0a4.30742,4.30742,0,0,1,0-5.64428l2.06352-2.3794a1.5,1.5,0,0,1,2.26642,0l2.06352,2.3794a4.30743,4.30743,0,0,1,0,5.64428h0A4.23142,4.23142,0,0,1,8.80328,12.54092Z" fill="none" stroke="#323232" stroke-linecap="round" stroke-linejoin="round" stroke-width="1.5"/><path d="M0,0H24V24H0Z" fill="none"/></g></svg>