<svg xmlns="http://www.w3.org/2000/svg" viewBox="0 0 24 24"><path d="M14,21h4a3,3,0,0,0,3-3V14" fill="none" stroke="#323232" stroke-linecap="round" stroke-linejoin="round" stroke-width="1.5"/><path d="M10,3H6A3,3,0,0,0,3,6v4" fill="none" stroke="#323232" stroke-linecap="round" stroke-linejoin="round" stroke-width="1.5"/><path d="M18.25,9.25V11a1,1,0,0,1-1,1h-1.5a1,1,0,0,1-1-1V9.25H13a1,1,0,0,1-1-1V6.75a1,1,0,0,1,1-1h1.75V4a1,1,0,0,1,1-1h1.5a1,1,0,0,1,1,1V5.75H20a1,1,0,0,1,1,1v1.5a1,1,0,0,1-1,1Z" fill="none" stroke="#323232" stroke-linecap="round" stroke-linejoin="round" stroke-width="1.5"/><path d="M4.58589,13H7a4,4,0,0,1,4,4v0a4,4,0,0,1-4,4H7a4,4,0,0,1-4-4v-2.4141A1.5859,1.5859,0,0,1,4.58589,13Z" transform="translate(14.0711 0.02946) rotate(45.00002)" fill="none" stroke="#323232" stroke-linecap="round" stroke-linejoin="round" stroke-width="1.5"/></svg>