<?xml version="1.0" encoding="UTF-8"?><svg version="1.1" viewBox="0 0 24 24" xmlns="http://www.w3.org/2000/svg" xmlns:xlink="http://www.w3.org/1999/xlink"><!--Generated by IJSVG (https://github.com/iconjar/IJSVG)--><g stroke-linecap="round" stroke-width="1.5" stroke="#323232" fill="none" stroke-linejoin="round"><path d="M8,4v1"></path><path d="M4,9h1"></path><path d="M4.18,5l1,1"></path><path d="M16,20v-1"></path><path d="M20,15h-1"></path><path d="M19.82,19l-1,-1"></path><path d="M17.753,5.747h0.687c1.138,0 2.06,0.922 2.06,2.06v0c0,1.138 -0.922,2.06 -2.06,2.06h-0.966l-1.765,1.831c-0.515,0.534 -1.413,0.331 -1.647,-0.373l-0.472,-1.415l-1.415,-0.472c-0.704,-0.235 -0.907,-1.132 -0.373,-1.647l1.831,-1.765v-0.966c0,-1.138 0.922,-2.06 2.06,-2.06v0c1.138,0 2.06,0.922 2.06,2.06v0.687Z"></path><path d="M6.247,18.253h-0.687c-1.138,0 -2.06,-0.922 -2.06,-2.06v0c0,-1.138 0.922,-2.06 2.06,-2.06h0.966l1.75,-1.816c0.521,-0.541 1.431,-0.335 1.669,0.378l0.465,1.394l1.394,0.465c0.713,0.238 0.919,1.147 0.378,1.669l-1.816,1.75v0.966c0,1.138 -0.922,2.06 -2.06,2.06v0c-1.138,0 -2.06,-0.922 -2.06,-2.06v-0.686Z"></path></g><path fill="none" d="M0,0h24v24h-24Z"></path></svg>