<svg xmlns="http://www.w3.org/2000/svg" viewBox="0 0 24 24"><path d="M4,4.5V18c0,2.10457.89543,3,2,3H19a1,1,0,0,0,1-1V7a1,1,0,0,0-1-1H5.5A1.5,1.5,0,0,1,4,4.5H4A1.5,1.5,0,0,1,5.5,3H18a1,1,0,0,1,1,1V6" fill="none" stroke="#323232" stroke-linecap="round" stroke-linejoin="round" stroke-width="1.5"/><path d="M0,0H24V24H0Z" fill="none"/><path d="M13.625,15.125V16.5a1,1,0,0,1-1,1h-1.25a1,1,0,0,1-1-1V15.125H9a1,1,0,0,1-1-1v-1.25a1,1,0,0,1,1-1h1.375V10.5a1,1,0,0,1,1-1h1.25a1,1,0,0,1,1,1v1.375H15a1,1,0,0,1,1,1v1.25a1,1,0,0,1-1,1Z" fill="none" stroke="#323232" stroke-linecap="round" stroke-linejoin="round" stroke-width="1.5"/></svg>