<?xml version="1.0" encoding="UTF-8"?><svg version="1.1" viewBox="0 0 24 24" xmlns="http://www.w3.org/2000/svg" xmlns:xlink="http://www.w3.org/1999/xlink"><!--Generated by IJSVG (https://github.com/iconjar/IJSVG)--><g stroke-linecap="round" stroke-width="1.5" stroke="#323232" fill="none" stroke-linejoin="round"><path d="M18.364,5.63604c3.51472,3.51472 3.51472,9.2132 0,12.7279c-3.51472,3.51472 -9.2132,3.51472 -12.7279,0c-3.51472,-3.51472 -3.51472,-9.2132 -1.77636e-15,-12.7279c3.51472,-3.51472 9.2132,-3.51472 12.7279,-1.77636e-15"></path><path d="M13.803,14.746l-2.254,2.254l-1.353,-1.353"></path><path d="M9,9.364h-1c-0.828,0 -1.5,0.672 -1.5,1.5v8.136"></path><path d="M15,9.364h1c0.828,0 1.5,0.672 1.5,1.5v8.136"></path><path d="M13.905,10.727h-3.809c-0.606,0 -1.096,-0.49 -1.096,-1.095v-0.537c0,-0.605 0.49,-1.095 1.095,-1.095h3.809c0.606,0 1.096,0.49 1.096,1.095v0.536c0,0.606 -0.49,1.096 -1.095,1.096Z"></path></g><path fill="none" d="M0,0h24v24h-24v-24Z"></path></svg>