<svg xmlns="http://www.w3.org/2000/svg" viewBox="0 0 24 24"><path d="M9,8V4A1,1,0,0,0,8,3H6A1,1,0,0,0,5,4V8" fill="none" stroke="#323232" stroke-linecap="round" stroke-linejoin="round" stroke-width="1.5"/><rect x="13.99999" y="8" width="8" height="3" rx="1.25" transform="translate(35.99998 19) rotate(180)" stroke-width="1.5" stroke="#323232" stroke-linecap="round" stroke-linejoin="round" fill="none"/><path d="M20,8V4.5A1.5,1.5,0,0,0,18.5,3h-1A1.5,1.5,0,0,0,16,4.5V8" fill="none" stroke="#323232" stroke-linecap="round" stroke-linejoin="round" stroke-width="1.5"/><path d="M4,11,2.58577,12.41421A2,2,0,0,0,2,13.82843V19a2,2,0,0,0,2,2h6a2,2,0,0,0,2-2V13.82843a2,2,0,0,0-.58579-1.41422L10,11V9A1,1,0,0,0,9,8H5A1,1,0,0,0,4,9Z" fill="none" stroke="#323232" stroke-linecap="round" stroke-linejoin="round" stroke-width="1.5"/><line x1="3.99999" y1="11" x2="9.99999" y2="11" fill="none" stroke="#323232" stroke-linecap="round" stroke-linejoin="round" stroke-width="1.5"/><path d="M20,11v8a2,2,0,0,1-2,2h0a2,2,0,0,1-2-2V11" fill="none" stroke="#323232" stroke-linecap="round" stroke-linejoin="round" stroke-width="1.5"/></svg>