<svg xmlns="http://www.w3.org/2000/svg" viewBox="0 0 24 24"><path d="M21,14v4a3,3,0,0,1-3,3H17" fill="none" stroke="#323232" stroke-linecap="round" stroke-linejoin="round" stroke-width="1.5"/><path d="M3,10V6A3,3,0,0,1,6,3H9" fill="none" stroke="#323232" stroke-linecap="round" stroke-linejoin="round" stroke-width="1.5"/><path d="M3,20l1.156.578A3.99768,3.99768,0,0,0,5.94378,21H12.5A1.5,1.5,0,0,0,14,19.5h0A1.5,1.5,0,0,0,12.5,18h-4" fill="none" stroke="#323232" stroke-linecap="round" stroke-linejoin="round" stroke-width="1.5"/><path d="M3,13H5.91335a2,2,0,0,1,1.2.4l2.23727,1.67794a1.62336,1.62336,0,0,1,.17388,2.44657h0a1.62335,1.62335,0,0,1-2.1219.15079L6,16.62335" fill="none" stroke="#323232" stroke-linecap="round" stroke-linejoin="round" stroke-width="1.5"/><path d="M19.8,5.75H18.05V4a1,1,0,0,0-1-1h-1.5a1,1,0,0,0-1,1V5.75H12.8a1,1,0,0,0-1,1v1.5a1,1,0,0,0,1,1h1.75V11a1,1,0,0,0,1,1h1.5a1,1,0,0,0,1-1V9.25H19.8a1,1,0,0,0,1-1V6.75A1,1,0,0,0,19.8,5.75Z" fill="none" stroke="#323232" stroke-linecap="round" stroke-linejoin="round" stroke-width="1.5"/><path d="M0,0H24V24H0Z" fill="none"/></svg>