<svg xmlns="http://www.w3.org/2000/svg" viewBox="0 0 24 24"><path d="M3,20l1.36665.6833A3,3,0,0,0,5.70824,21H12.5A1.5,1.5,0,0,0,14,19.5h0A1.5,1.5,0,0,0,12.5,18h-4" fill="none" stroke="#323232" stroke-linecap="round" stroke-linejoin="round" stroke-width="1.5"/><path d="M3,13H5.91334a2,2,0,0,1,1.2.4l2.23727,1.67794a1.62335,1.62335,0,0,1,.17387,2.44657h0a1.62336,1.62336,0,0,1-2.12191.15079L6,16.62335" fill="none" stroke="#323232" stroke-linecap="round" stroke-linejoin="round" stroke-width="1.5"/><path d="M21,13v5a3,3,0,0,1-3,3H17" fill="none" stroke="#323232" stroke-linecap="round" stroke-linejoin="round" stroke-width="1.5"/><path d="M3,10V6A3,3,0,0,1,6,3H9" fill="none" stroke="#323232" stroke-linecap="round" stroke-linejoin="round" stroke-width="1.5"/><path d="M16.5,4.9801l-.2511-.25111a2.48893,2.48893,0,0,0-3.51988,0h0a2.48893,2.48893,0,0,0,0,3.51989l2.45685,2.45682a1.85848,1.85848,0,0,0,2.62827,0L20.271,8.24889a2.48893,2.48893,0,0,0,0-3.51989h0a2.48893,2.48893,0,0,0-3.51988,0Z" fill="none" stroke="#323232" stroke-linecap="round" stroke-linejoin="round" stroke-width="1.5"/></svg>