<svg xmlns="http://www.w3.org/2000/svg" viewBox="0 0 24 24"><path d="M9.10556,3.78886h0A3.23607,3.23607,0,0,1,12,2h0a3.23607,3.23607,0,0,1,2.89442,1.78885h0A.382.382,0,0,0,15.23605,4H15.5A1.5,1.5,0,0,1,17,5.5v1a.5.5,0,0,1-.5.5h-9A.5.5,0,0,1,7,6.5v-1A1.5,1.5,0,0,1,8.5,4h.26393A.382.382,0,0,0,9.10556,3.78886Z" fill="none" stroke="#323232" stroke-linecap="round" stroke-linejoin="round" stroke-width="1.5"/><line x1="15.99999" y1="16" x2="11" y2="16" fill="none" stroke="#323232" stroke-linecap="round" stroke-linejoin="round" stroke-width="1.5"/><line x1="15.99999" y1="12" x2="11" y2="12" fill="none" stroke="#323232" stroke-linecap="round" stroke-linejoin="round" stroke-width="1.5"/><path d="M7,5.5H6a2,2,0,0,0-2,2V19a2,2,0,0,0,2,2H18a2,2,0,0,0,2-2V7.5a2,2,0,0,0-2-2H17" fill="none" stroke="#323232" stroke-linecap="round" stroke-linejoin="round" stroke-width="1.5"/><path d="M8.005,16,8,16.005,7.995,16,8,15.995,8.005,16" fill="none" stroke="#323232" stroke-linecap="round" stroke-linejoin="round" stroke-width="1.5"/><path d="M8.005,12,8,12.005,7.995,12,8,11.995,8.005,12" fill="none" stroke="#323232" stroke-linecap="round" stroke-linejoin="round" stroke-width="1.5"/></svg>