<svg id="Layer_3" data-name="Layer 3" xmlns="http://www.w3.org/2000/svg" viewBox="0 0 24 24"><path d="M24,0H0V24H24Z" fill="none"/><path d="M20,17l-2.5,2.5L16,18" fill="none" stroke="#323232" stroke-linecap="round" stroke-linejoin="round" stroke-width="1.5"/><path d="M20.938,13A8.16134,8.16134,0,0,0,21,12h0a9,9,0,1,0-9,9,8.15936,8.15936,0,0,0,1-.062" fill="none" stroke="#323232" stroke-linecap="round" stroke-linejoin="round" stroke-width="1.5"/><path id="Health-Icon" d="M8,11.49042a4.26749,4.26749,0,0,0,1.127,2.68839,7.21947,7.21947,0,0,0,1.91439,1.57224,1.96271,1.96271,0,0,0,2.01168-.05927A7.83623,7.83623,0,0,0,14.80364,14.164,4.4043,4.4043,0,0,0,16,11.49042a2.33935,2.33935,0,0,0-.6229-1.60831,2.07548,2.07548,0,0,0-1.51219-.672,2.11786,2.11786,0,0,0-1.85113.85415l-.01368.02008-.01388-.02008a2.03162,2.03162,0,0,0-1.70768-.85415A2.24084,2.24084,0,0,0,8,11.49042Z" fill="none" stroke="#323232" stroke-linecap="round" stroke-linejoin="round" stroke-width="1.5" fill-rule="evenodd"/></svg>