<?xml version="1.0" encoding="UTF-8"?><svg version="1.1" viewBox="0 0 24 24" xmlns="http://www.w3.org/2000/svg" xmlns:xlink="http://www.w3.org/1999/xlink"><!--Generated by IJSVG (https://github.com/iconjar/IJSVG)--><g fill="none"><path d="M0,0h24v24h-24Z"></path><path stroke="#323232" stroke-linecap="round" stroke-linejoin="round" stroke-width="1.5" d="M7,8h8"></path><path stroke="#323232" stroke-linecap="round" stroke-linejoin="round" stroke-width="1.5" d="M16.884,13.88l-0.394,0.418l-0.394,-0.419c-0.865,-0.919 -2.299,-0.995 -3.256,-0.172v0c-0.977,0.841 -1.094,2.297 -0.29,3.305c1.15,1.442 2.468,2.866 3.94,3.987c1.509,-1.148 2.855,-2.615 4.026,-4.094c0.76,-0.96 0.604,-2.355 -0.324,-3.153l-0.043,-0.037c-0.964,-0.829 -2.4,-0.754 -3.265,0.165Z"></path><path stroke="#323232" stroke-linecap="round" stroke-linejoin="round" stroke-width="1.5" d="M10,21h-5c-1.105,0 -2,-0.895 -2,-2v-14c0,-1.105 0.895,-2 2,-2h12c1.105,0 2,0.895 2,2v4"></path></g></svg>