<?xml version="1.0" encoding="UTF-8"?><svg version="1.1" viewBox="0 0 24 24" xmlns="http://www.w3.org/2000/svg" xmlns:xlink="http://www.w3.org/1999/xlink"><!--Generated by IJSVG (https://github.com/iconjar/IJSVG)--><g fill="none"><path d="M0,0h24v24h-24v-24Z"></path><path stroke="#323232" stroke-linecap="round" stroke-linejoin="round" stroke-width="1.5" d="M4.5,10c0,4.411 5.014,9.166 6.843,10.754c0.379,0.329 0.936,0.329 1.315,0c1.828,-1.588 6.842,-6.343 6.842,-10.754c0,-3.866 -3.358,-7 -7.5,-7c-4.142,0 -7.5,3.134 -7.5,7Z"></path><path stroke="#323232" stroke-linecap="round" stroke-linejoin="round" stroke-width="1.5" d="M12,8.641c0.267,-0.301 0.728,-0.639 1.431,-0.639c1.229,0 2.053,1.112 2.053,2.148c0,2.166 -2.795,3.825 -3.484,3.825c-0.689,0 -3.484,-1.659 -3.484,-3.825c0,-1.036 0.825,-2.148 2.053,-2.148c0.703,-1.77636e-15 1.164,0.338 1.431,0.639Z"></path></g></svg>