<svg xmlns="http://www.w3.org/2000/svg" viewBox="0 0 24 24"><path d="M18.97652,14.099l1.9827-7.60025a1.25,1.25,0,0,0-.86612-1.51743l-3.26495-.93285a1.25,1.25,0,0,0-1.55292.88637L14.08222,9.508" fill="none" stroke="#323232" stroke-linecap="round" stroke-linejoin="round" stroke-width="1.5"/><path d="M12.27846,13l.71782-2.75178a1,1,0,0,1,1.67476-.4547l4.53606,4.53606a1,1,0,0,1,.26051.95953l-.8389,3.21574A2,2,0,0,1,16.69348,20H9a1,1,0,0,1-1-1V14a1,1,0,0,1,1-1Z" fill="none" stroke="#323232" stroke-linecap="round" stroke-linejoin="round" stroke-width="1.5"/><path d="M12.27846,13l.71782-2.75178a1,1,0,0,1,1.67476-.4547l4.53606,4.53606a1,1,0,0,1,.26051.95953l-.8389,3.21574A2,2,0,0,1,16.69348,20H9a1,1,0,0,1-1-1V14a1,1,0,0,1,1-1Z" fill="none" stroke="#323232" stroke-linecap="round" stroke-linejoin="round" stroke-width="1.5"/><line x1="4" y1="16.29289" x2="3" y2="16.29289" fill="none" stroke="#323232" stroke-linecap="round" stroke-linejoin="round" stroke-width="1.5"/><line x1="4.20711" y1="13.29289" x2="3.5" y2="12.58579" fill="none" stroke="#323232" stroke-linecap="round" stroke-linejoin="round" stroke-width="1.5"/><line x1="4.20711" y1="19.29289" x2="3.5" y2="20" fill="none" stroke="#323232" stroke-linecap="round" stroke-linejoin="round" stroke-width="1.5"/><rect width="24" height="24" fill="none"/></svg>