<svg xmlns="http://www.w3.org/2000/svg" viewBox="0 0 24 24"><rect x="3.5" y="2" width="17" height="19" rx="3" stroke-width="1.5" stroke="#323232" stroke-linecap="round" stroke-linejoin="round" fill="none"/><line x1="8.25" y1="17" x2="15.75" y2="17" fill="none" stroke="#323232" stroke-linecap="round" stroke-linejoin="round" stroke-width="1.5"/><path d="M0,0H24V24H0Z" fill="none"/><path d="M11.5293,13.95339h0A4.39029,4.39029,0,0,1,8,9.64835V8.22222A2.22222,2.22222,0,0,1,10.22222,6h3.55556A2.22222,2.22222,0,0,1,16,8.22222V9.64834a4.39029,4.39029,0,0,1-3.5292,4.305l-.0001,0A2.39972,2.39972,0,0,1,11.5293,13.95339Z" fill="none" stroke="#323232" stroke-linecap="round" stroke-linejoin="round" stroke-width="1.5"/><polyline points="10.75 9.65 11.75 10.65 13.25 9.15" fill="none" stroke="#323232" stroke-linecap="round" stroke-linejoin="round" stroke-width="1.5"/></svg>