<svg xmlns="http://www.w3.org/2000/svg" viewBox="0 0 24 24"><path d="M20,9V6a3,3,0,0,0-3-3H6A3,3,0,0,0,3,6V18a3,3,0,0,0,3,3H9" fill="none" stroke="#323232" stroke-linecap="round" stroke-linejoin="round" stroke-width="1.5"/><line x1="7" y1="8" x2="16" y2="8" fill="none" stroke="#323232" stroke-linecap="round" stroke-linejoin="round" stroke-width="1.5"/><line x1="7" y1="12" x2="9" y2="12" fill="none" stroke="#323232" stroke-linecap="round" stroke-linejoin="round" stroke-width="1.5"/><line x1="7" y1="16" x2="9" y2="16" fill="none" stroke="#323232" stroke-linecap="round" stroke-linejoin="round" stroke-width="1.5"/><path d="M15.97046,20.94757h0A4.93909,4.93909,0,0,1,12,16.10439V14.5A2.5,2.5,0,0,1,14.5,12h4A2.5,2.5,0,0,1,21,14.5v1.60438a4.93908,4.93908,0,0,1-3.97035,4.84315l-.00011,0A2.70006,2.70006,0,0,1,15.97046,20.94757Z" fill="none" stroke="#323232" stroke-linecap="round" stroke-linejoin="round" stroke-width="1.5"/><line x1="15.09375" y1="16.275" x2="17.90625" y2="16.275" fill="none" stroke="#323232" stroke-linecap="round" stroke-linejoin="round" stroke-width="1.5"/><line x1="16.5" y1="17.68125" x2="16.5" y2="14.86875" fill="none" stroke="#323232" stroke-linecap="round" stroke-linejoin="round" stroke-width="1.5"/><path d="M24,24H0V0H24Z" fill="none"/></svg>