<svg xmlns="http://www.w3.org/2000/svg" viewBox="0 0 24 24"><path d="M0,0H24V24H0Z" fill="none"/><path d="M3,17V5A2,2,0,0,1,5,3H19a2,2,0,0,1,2,2V17" fill="none" stroke="#323232" stroke-linecap="round" stroke-linejoin="round" stroke-width="1.5"/><path d="M2.5,17h19a1,1,0,0,1,1,1v0a3,3,0,0,1-3,3H4.5a3,3,0,0,1-3-3v0a1,1,0,0,1,1-1Z" fill="none" stroke="#323232" stroke-linecap="round" stroke-linejoin="round" stroke-width="1.5"/><path d="M15.75,9.75a1,1,0,0,0-1-1H13.5V7.5a1,1,0,0,0-1-1h-1a1,1,0,0,0-1,1V8.75H9.25a1,1,0,0,0-1,1v1a1,1,0,0,0,1,1H10.5V13a1,1,0,0,0,1,1h1a1,1,0,0,0,1-1V11.75h1.25a1,1,0,0,0,1-1Z" fill="none" stroke="#323232" stroke-linecap="round" stroke-linejoin="round" stroke-width="1.5"/></svg>