<svg xmlns="http://www.w3.org/2000/svg" viewBox="0 0 24 24"><path d="M2.5,12v0A9.5,9.5,0,0,0,12,21.5h0A9.5,9.5,0,0,0,21.5,12v0A9.5,9.5,0,0,0,12,2.5h0A9.5,9.5,0,0,0,2.5,12Z" fill="none" stroke="#323232" stroke-linecap="round" stroke-linejoin="round" stroke-width="1.5"/><path d="M14.33415,14.5436C15.75256,13.42318,16.75,12.11992,16.75,10.70649a2.91024,2.91024,0,0,0-2.79979-2.92871A2.54281,2.54281,0,0,0,12,8.64906a2.54282,2.54282,0,0,0-1.95021-.87128A2.91024,2.91024,0,0,0,7.25,10.70651c0,4.36185,9.43427,7.70494,11.75924,7.70494" fill="none" stroke="#323232" stroke-linecap="round" stroke-linejoin="round" stroke-width="1.5"/><path d="M9.36491,17.28158a15.19444,15.19444,0,0,1-4.37414,1.12984" fill="none" stroke="#323232" stroke-linecap="round" stroke-linejoin="round" stroke-width="1.5"/><path d="M0,0H24V24H0Z" fill="none"/></svg>