<svg xmlns="http://www.w3.org/2000/svg" viewBox="0 0 24 24"><path d="M10.94091,20.89514h0A9.87816,9.87816,0,0,1,3,11.20879V8A5,5,0,0,1,8,3h8a5,5,0,0,1,5,5v3.20876a9.87819,9.87819,0,0,1-7.94069,9.68631l-.00023,0A5.40017,5.40017,0,0,1,10.94091,20.89514Z" fill="none" stroke="#323232" stroke-linecap="round" stroke-linejoin="round" stroke-width="1.5"/><path d="M0,0H24V24H0Z" fill="none"/><path d="M13.625,13.125V14.5a1,1,0,0,1-1,1h-1.25a1,1,0,0,1-1-1V13.125H9a1,1,0,0,1-1-1v-1.25a1,1,0,0,1,1-1h1.375V8.5a1,1,0,0,1,1-1h1.25a1,1,0,0,1,1,1V9.875H15a1,1,0,0,1,1,1v1.25a1,1,0,0,1-1,1Z" fill="none" stroke="#323232" stroke-linecap="round" stroke-linejoin="round" stroke-width="1.5"/></svg>