<svg xmlns="http://www.w3.org/2000/svg" viewBox="0 0 24 24"><circle cx="12" cy="12" r="9.5" fill="none" stroke="#323232" stroke-linecap="round" stroke-linejoin="round" stroke-width="1.5"/><path d="M10,17h3.5a.5.5,0,0,0,.5-.5V14h2.5a.5.5,0,0,0,.5-.5v-3a.5.5,0,0,0-.5-.5H14" fill="none" stroke="#323232" stroke-linecap="round" stroke-linejoin="round" stroke-width="1.5"/><path d="M14,7H10.5a.5.5,0,0,0-.5.5V10H7.5a.5.5,0,0,0-.5.5v3a.5.5,0,0,0,.5.5H10" fill="none" stroke="#323232" stroke-linecap="round" stroke-linejoin="round" stroke-width="1.5"/><rect width="24" height="24" fill="none"/></svg>