<svg xmlns="http://www.w3.org/2000/svg" viewBox="0 0 24 24"><path d="M0,24V0H24V24Z" fill="none"/><path d="M16,21h2a3,3,0,0,0,3-3V16" fill="none" stroke="#323232" stroke-linecap="round" stroke-linejoin="round" stroke-width="1.5"/><path d="M16,3h2a3,3,0,0,1,3,3V8" fill="none" stroke="#323232" stroke-linecap="round" stroke-linejoin="round" stroke-width="1.5"/><path d="M3,16v2a3,3,0,0,0,3,3H8" fill="none" stroke="#323232" stroke-linecap="round" stroke-linejoin="round" stroke-width="1.5"/><path d="M3,8V6A3,3,0,0,1,6,3H8" fill="none" stroke="#323232" stroke-linecap="round" stroke-linejoin="round" stroke-width="1.5"/><path d="M14,14v1.75A1.25,1.25,0,0,1,12.75,17h-1.5A1.25,1.25,0,0,1,10,15.75V14H8.25A1.25,1.25,0,0,1,7,12.75v-1.5A1.25,1.25,0,0,1,8.25,10H10V8.25A1.25,1.25,0,0,1,11.25,7h1.5A1.25,1.25,0,0,1,14,8.25V10h1.75A1.25,1.25,0,0,1,17,11.25v1.5A1.25,1.25,0,0,1,15.75,14Z" fill="none" stroke="#323232" stroke-linecap="round" stroke-linejoin="round" stroke-width="1.5"/></svg>