<svg xmlns="http://www.w3.org/2000/svg" viewBox="0 0 24 24"><path d="M24,0H0V24H24Z" fill="none"/><rect x="1.75735" y="7.75735" width="20.4853" height="8.4853" rx="3" transform="translate(-4.97056 12) rotate(-45)" stroke-width="1.5" stroke="#323232" stroke-linecap="round" stroke-linejoin="round" fill="none"/><path d="M18,12l2.12132,2.12132a3,3,0,0,1,0,4.24264L18.364,20.12133a3,3,0,0,1-4.24264,0L12,18" fill="none" stroke="#323232" stroke-linecap="round" stroke-linejoin="round" stroke-width="1.5"/><path d="M12,6,9.87868,3.87867a3,3,0,0,0-4.24264,0L3.87867,5.636a3,3,0,0,0,0,4.24264L6,12" fill="none" stroke="#323232" stroke-linecap="round" stroke-linejoin="round" stroke-width="1.5"/><line x1="9.99999" y1="16.00001" x2="7.99999" y2="14.00001" fill="none" stroke="#323232" stroke-linecap="round" stroke-linejoin="round" stroke-width="1.5"/><line x1="13" y1="13" x2="11" y2="11" fill="none" stroke="#323232" stroke-linecap="round" stroke-linejoin="round" stroke-width="1.5"/><line x1="16.00001" y1="9.99999" x2="14.00001" y2="7.99999" fill="none" stroke="#323232" stroke-linecap="round" stroke-linejoin="round" stroke-width="1.5"/></svg>