<svg xmlns="http://www.w3.org/2000/svg" viewBox="0 0 24 24"><path d="M21,10V5a2,2,0,0,0-2-2H5A2,2,0,0,0,3,5V19a2,2,0,0,0,2,2h6" fill="none" stroke="#323232" stroke-linecap="round" stroke-linejoin="round" stroke-width="1.5"/><line x1="6.99999" y1="8" x2="9.99999" y2="8" fill="none" stroke="#323232" stroke-linecap="round" stroke-linejoin="round" stroke-width="1.5"/><line x1="8.49999" y1="9.5" x2="8.49999" y2="6.5" fill="none" stroke="#323232" stroke-linecap="round" stroke-linejoin="round" stroke-width="1.5"/><line x1="14" y1="8" x2="17" y2="8" fill="none" stroke="#323232" stroke-linecap="round" stroke-linejoin="round" stroke-width="1.5"/><path d="M16.52931,20.95339h0A4.39029,4.39029,0,0,1,13,16.64835V15.22222A2.22222,2.22222,0,0,1,15.22223,13h3.55556A2.22222,2.22222,0,0,1,21,15.22222v1.42612a4.39029,4.39029,0,0,1-3.5292,4.305l-.00009,0A2.39977,2.39977,0,0,1,16.52931,20.95339Z" fill="none" stroke="#323232" stroke-linecap="round" stroke-linejoin="round" stroke-width="1.5"/><line x1="6.99999" y1="13" x2="8.99999" y2="13" fill="none" stroke="#323232" stroke-linecap="round" stroke-linejoin="round" stroke-width="1.5"/><line x1="6.99999" y1="17" x2="8.99999" y2="17" fill="none" stroke="#323232" stroke-linecap="round" stroke-linejoin="round" stroke-width="1.5"/></svg>