<svg xmlns="http://www.w3.org/2000/svg" viewBox="0 0 24 24"><path d="M9,16.4a.05.05,0,1,1-.05.05A.04951.04951,0,0,1,9,16.4" fill="none" stroke="#323232" stroke-linecap="round" stroke-linejoin="round" stroke-width="1.5"/><path d="M10,7.45a.05.05,0,1,1-.05.05A.04951.04951,0,0,1,10,7.45" fill="none" stroke="#323232" stroke-linecap="round" stroke-linejoin="round" stroke-width="1.5"/><path d="M13,10a2.00073,2.00073,0,0,1,2-2" fill="none" stroke="#323232" stroke-linecap="round" stroke-linejoin="round" stroke-width="1.5"/><rect x="2.99999" y="3" width="18" height="18" rx="5" stroke-width="1.5" stroke="#323232" stroke-linecap="round" stroke-linejoin="round" fill="none"/><path d="M13,16h0a2,2,0,0,1,2-2h0a2,2,0,0,0,2-2h0" fill="none" stroke="#323232" stroke-linecap="round" stroke-linejoin="round" stroke-width="1.5"/><path d="M7,11a2.00073,2.00073,0,0,1,2,2" fill="none" stroke="#323232" stroke-linecap="round" stroke-linejoin="round" stroke-width="1.5"/></svg>