<?xml version="1.0" encoding="UTF-8"?><svg version="1.1" viewBox="0 0 24 24" xmlns="http://www.w3.org/2000/svg" xmlns:xlink="http://www.w3.org/1999/xlink"><!--Generated by IJSVG (https://github.com/iconjar/IJSVG)--><g stroke-linecap="round" stroke-width="1.5" stroke="#323232" fill="none" stroke-linejoin="round"><path d="M12,6.098l-2.437,-1.738c-0.893,-0.637 -2.116,-0.535 -2.892,0.241l-2.074,2.074c-0.777,0.777 -0.877,2.002 -0.238,2.895l1.739,2.43"></path><path d="M6.098,12l-1.739,2.43c-0.639,0.894 -0.539,2.118 0.238,2.895l2.074,2.074c0.776,0.776 1.999,0.878 2.892,0.241l2.437,-1.738"></path><path d="M12,17.902l2.43,1.739c0.894,0.639 2.118,0.539 2.895,-0.238l2.074,-2.074c0.776,-0.776 0.878,-1.999 0.241,-2.892l-1.738,-2.437l1.737,-2.437c0.637,-0.893 0.535,-2.116 -0.241,-2.892l-2.074,-2.074c-0.776,-0.777 -2.001,-0.877 -2.894,-0.238l-2.43,1.739"></path><path d="M9,15.05c-0.007,0 -0.013,-0.001 -0.019,-0.004c-0.006,-0.003 -0.011,-0.006 -0.016,-0.011c-0.01,-0.009 -0.015,-0.022 -0.015,-0.035c0,-0.007 0.001,-0.013 0.004,-0.019c0.003,-0.006 0.006,-0.011 0.011,-0.016c0.005,-0.005 0.01,-0.008 0.016,-0.011c0.018,-0.008 0.041,-0.003 0.055,0.011c0.005,0.005 0.008,0.01 0.011,0.016c0.002,0.006 0.003,0.012 0.003,0.019c0,0.013 -0.005,0.026 -0.015,0.035c-0.005,0.005 -0.01,0.008 -0.016,0.011c-0.006,0.003 -0.012,0.004 -0.019,0.004Z"></path><path d="M15,9.05c-0.013,0 -0.026,-0.005 -0.035,-0.015c-0.01,-0.009 -0.015,-0.022 -0.015,-0.035c0,-0.007 0.001,-0.013 0.004,-0.019c0.003,-0.006 0.006,-0.011 0.011,-0.016c0.014,-0.014 0.036,-0.019 0.055,-0.011c0.006,0.003 0.011,0.006 0.016,0.011c0.005,0.005 0.008,0.01 0.011,0.016c0.002,0.006 0.003,0.012 0.003,0.019c0,0.013 -0.005,0.026 -0.015,0.035c-0.005,0.005 -0.01,0.008 -0.016,0.011c-0.006,0.003 -0.012,0.004 -0.019,0.004Z"></path><path d="M12.0354,11.9646c0.0195262,0.0195262 0.0195262,0.0511845 0,0.0707107c-0.0195262,0.0195262 -0.0511845,0.0195262 -0.0707107,0c-0.0195262,-0.0195262 -0.0195262,-0.0511845 0,-0.0707107c0.0195262,-0.0195262 0.0511845,-0.0195262 0.0707107,0"></path><path d="M9.03536,11.9646c0.0195262,0.0195262 0.0195262,0.0511845 0,0.0707107c-0.0195262,0.0195262 -0.0511845,0.0195262 -0.0707107,0c-0.0195262,-0.0195262 -0.0195262,-0.0511845 0,-0.0707107c0.0195262,-0.0195262 0.0511845,-0.0195262 0.0707107,0"></path><path d="M15.0354,11.9646c0.0195262,0.0195262 0.0195262,0.0511845 0,0.0707107c-0.0195262,0.0195262 -0.0511845,0.0195262 -0.0707107,0c-0.0195262,-0.0195262 -0.0195262,-0.0511845 0,-0.0707107c0.0195262,-0.0195262 0.0511845,-0.0195262 0.0707107,0"></path><path d="M12.0354,14.9646c0.0195262,0.0195262 0.0195262,0.0511845 0,0.0707107c-0.0195262,0.0195262 -0.0511845,0.0195262 -0.0707107,0c-0.0195262,-0.0195262 -0.0195262,-0.0511845 0,-0.0707107c0.0195262,-0.0195262 0.0511845,-0.0195262 0.0707107,0"></path><path d="M12.0354,8.96464c0.0195262,0.0195262 0.0195262,0.0511845 0,0.0707107c-0.0195262,0.0195262 -0.0511845,0.0195262 -0.0707107,0c-0.0195262,-0.0195262 -0.0195262,-0.0511845 0,-0.0707107c0.0195262,-0.0195262 0.0511845,-0.0195262 0.0707107,0"></path><path d="M9.03536,14.9646c0.0195262,0.0195262 0.0195262,0.0511845 0,0.0707107c-0.0195262,0.0195262 -0.0511845,0.0195262 -0.0707107,0c-0.0195262,-0.0195262 -0.0195262,-0.0511845 0,-0.0707107c0.0195262,-0.0195262 0.0511845,-0.0195262 0.0707107,0"></path><path d="M15.0354,8.96464c0.0195262,0.0195262 0.0195262,0.0511845 0,0.0707107c-0.0195262,0.0195262 -0.0511845,0.0195262 -0.0707107,0c-0.0195262,-0.0195262 -0.0195262,-0.0511845 0,-0.0707107c0.0195262,-0.0195262 0.0511845,-0.0195262 0.0707107,0"></path></g><path fill="none" d="M0,0h24v24h-24Z"></path></svg>