<svg xmlns="http://www.w3.org/2000/svg" viewBox="0 0 24 24"><path d="M0,0H24V24H0Z" fill="none"/><path d="M8.23223,11.76777a2.5,2.5,0,0,1,3.53554-3.53554" fill="none" stroke="#323232" stroke-linecap="round" stroke-linejoin="round" stroke-width="1.5"/><line x1="12.0004" y1="12.00003" x2="15.0012" y2="15.00156" fill="none" stroke="#323232" stroke-linecap="round" stroke-linejoin="round" stroke-width="1.5"/><rect x="8.72264" y="11.37673" width="9.55473" height="4.24655" rx="2.12327" transform="translate(-5.59188 13.5) rotate(-45)" stroke-width="1.5" stroke="#323232" stroke-linecap="round" stroke-linejoin="round" fill="none"/><path d="M2.5,12v0A9.5,9.5,0,0,0,12,21.5h0A9.5,9.5,0,0,0,21.5,12v0A9.5,9.5,0,0,0,12,2.5h0A9.5,9.5,0,0,0,2.5,12Z" fill="none" stroke="#323232" stroke-linecap="round" stroke-linejoin="round" stroke-width="1.5"/></svg>