<svg xmlns="http://www.w3.org/2000/svg" viewBox="0 0 24 24"><line x1="9.2232" y1="13.66667" x2="14.77875" y2="13.66667" fill="none" stroke="#323232" stroke-linecap="round" stroke-linejoin="round" stroke-width="1.5"/><line x1="9.2232" y1="10.33333" x2="14.77875" y2="10.33333" fill="none" stroke="#323232" stroke-linecap="round" stroke-linejoin="round" stroke-width="1.5"/><line x1="9.2232" y1="13.66667" x2="14.77875" y2="13.66667" fill="none" stroke="#323232" stroke-linecap="round" stroke-linejoin="round" stroke-width="1.5"/><line x1="9.2232" y1="10.33333" x2="14.77875" y2="10.33333" fill="none" stroke="#323232" stroke-linecap="round" stroke-linejoin="round" stroke-width="1.5"/><path d="M19,15h1a2,2,0,0,0,2-2V11a2,2,0,0,0-2-2H19" fill="none" stroke="#323232" stroke-linecap="round" stroke-linejoin="round" stroke-width="1.5"/><path d="M5,9H4a2,2,0,0,0-2,2v2a2,2,0,0,0,2,2H5" fill="none" stroke="#323232" stroke-linecap="round" stroke-linejoin="round" stroke-width="1.5"/><path d="M5,15c0,2.83056,5.616,5,7,5s7-2.16944,7-5V7.98894a2,2,0,0,0-1.39484-1.90625L13.21032,4.6875a4.00008,4.00008,0,0,0-2.42064,0L6.39484,6.08269A2,2,0,0,0,5,7.98894Z" fill="none" stroke="#323232" stroke-linecap="round" stroke-linejoin="round" stroke-width="1.5"/><path d="M0,0H24V24H0Z" fill="none"/></svg>