<svg xmlns="http://www.w3.org/2000/svg" viewBox="0 0 24 24"><path d="M19,15h1a2,2,0,0,0,2-2V11a2,2,0,0,0-2-2H19" fill="none" stroke="#323232" stroke-linecap="round" stroke-linejoin="round" stroke-width="1.5"/><path d="M5,9H4a2,2,0,0,0-2,2v2a2,2,0,0,0,2,2H5" fill="none" stroke="#323232" stroke-linecap="round" stroke-linejoin="round" stroke-width="1.5"/><path d="M5,15c0,2.83056,5.616,5,7,5s7-2.16944,7.001-5V7.98894a2,2,0,0,0-1.39484-1.90625L13.2113,4.6875a4,4,0,0,0-2.42063,0L6.39583,6.08269A2,2,0,0,0,5.001,7.98894Z" fill="none" stroke="#323232" stroke-linecap="round" stroke-linejoin="round" stroke-width="1.5"/><path d="M9.17754,13.43745a5.90767,5.90767,0,0,1,0-2.8749,1.87274,1.87274,0,0,1,1.14625-1.27176,4.97651,4.97651,0,0,1,3.35242,0,1.87274,1.87274,0,0,1,1.14625,1.27176,5.90767,5.90767,0,0,1,0,2.8749,1.87274,1.87274,0,0,1-1.14625,1.27176,4.97651,4.97651,0,0,1-3.35242,0A1.87274,1.87274,0,0,1,9.17754,13.43745Z" fill="none" stroke="#323232" stroke-linecap="round" stroke-linejoin="round" stroke-width="1.5"/></svg>