<svg xmlns="http://www.w3.org/2000/svg" viewBox="0 0 24 24"><path d="M11.77389,9.15748,12,9.38707l.22614-.22962a2.18706,2.18706,0,0,1,3.12635,0h0a2.26919,2.26919,0,0,1,0,3.17449l-2.11508,2.14762a1.73132,1.73132,0,0,1-2.47487,0L8.6475,12.332a2.26922,2.26922,0,0,1,0-3.17451h0A2.18708,2.18708,0,0,1,11.77389,9.15748Z" fill="none" stroke="#323232" stroke-linecap="round" stroke-linejoin="round" stroke-width="1.5"/><path d="M10.9409,20.89514h0A9.87815,9.87815,0,0,1,3,11.20879V8A5,5,0,0,1,8,3h8a5,5,0,0,1,5,5v3.20876a9.87819,9.87819,0,0,1-7.9407,9.68631l-.00022,0A5.40017,5.40017,0,0,1,10.9409,20.89514Z" fill="none" stroke="#323232" stroke-linecap="round" stroke-linejoin="round" stroke-width="1.5"/></svg>