<svg xmlns="http://www.w3.org/2000/svg" viewBox="0 0 24 24"><rect width="24" height="24" fill="none"/><path d="M4,3H20a2,2,0,0,1,2,2V21a1,1,0,0,1-1,1H3a1,1,0,0,1-1-1V5A2,2,0,0,1,4,3Z" fill="none" stroke="#323232" stroke-linecap="round" stroke-linejoin="round" stroke-width="1.5"/><line x1="5.97599" y1="6.50001" x2="7.97599" y2="6.50001" fill="none" stroke="#323232" stroke-linecap="round" stroke-linejoin="round" stroke-width="1.5"/><path d="M19,22V12a1,1,0,0,0-1-1H6a1,1,0,0,0-1,1V22" fill="none" stroke="#323232" stroke-linecap="round" stroke-linejoin="round" stroke-width="1.5"/><path d="M15,11v2a1,1,0,0,1-1,1H10a1,1,0,0,1-1-1V11" fill="none" stroke="#323232" stroke-linecap="round" stroke-linejoin="round" stroke-width="1.5"/><line x1="12" y1="16.00001" x2="12" y2="14.00001" fill="none" stroke="#323232" stroke-linecap="round" stroke-linejoin="round" stroke-width="1.5"/><path d="M9.476,19h5a1,1,0,0,1,1,1v2a0,0,0,0,1,0,0h-7a0,0,0,0,1,0,0V20A1,1,0,0,1,9.476,19Z" fill="none" stroke="#323232" stroke-linecap="round" stroke-linejoin="round" stroke-width="1.5"/><path d="M18.005,6.5,18,6.505,17.995,6.5,18,6.495l.005.005" fill="none" stroke="#323232" stroke-linecap="round" stroke-linejoin="round" stroke-width="1.5"/><path d="M15.005,6.5,15,6.505,14.995,6.5,15,6.495l.005.005" fill="none" stroke="#323232" stroke-linecap="round" stroke-linejoin="round" stroke-width="1.5"/></svg>