<svg xmlns="http://www.w3.org/2000/svg" viewBox="0 0 24 24"><rect width="24" height="24" fill="none"/><path d="M17.71582,3.75H15a2.5,2.5,0,0,0-2.5,2.5h0A2.5,2.5,0,0,0,15,8.75h2.71482" fill="none" stroke="#323232" stroke-linecap="round" stroke-linejoin="round" stroke-width="1.5"/><path d="M19.7032,3H19.25A1.95,1.95,0,0,0,17.3,4.95v2.6A1.95,1.95,0,0,0,19.25,9.5h.4532a2.79679,2.79679,0,0,0,1.55138-.46972h0A2.7968,2.7968,0,0,0,22.5,6.7032V5.7968a2.7968,2.7968,0,0,0-1.24542-2.32708h0A2.79679,2.79679,0,0,0,19.7032,3Z" fill="none" stroke="#323232" stroke-linecap="round" stroke-linejoin="round" stroke-width="1.5"/><path d="M13.92625,8.50752l.87318,5.23908A1.5,1.5,0,0,0,16.279,15h.292a1.5,1.5,0,0,0,1.47959-1.7466L17.3,8.75" fill="none" stroke="#323232" stroke-linecap="round" stroke-linejoin="round" stroke-width="1.5"/><path d="M6.28418,9.75H9a2.5,2.5,0,0,1,2.5,2.5h0A2.5,2.5,0,0,1,9,14.75H6.28518" fill="none" stroke="#323232" stroke-linecap="round" stroke-linejoin="round" stroke-width="1.5"/><path d="M4.2968,9H4.75A1.95,1.95,0,0,1,6.7,10.95v2.6A1.95,1.95,0,0,1,4.75,15.5H4.2968a2.79679,2.79679,0,0,1-1.55138-.46972h0A2.7968,2.7968,0,0,1,1.5,12.7032v-.9064A2.7968,2.7968,0,0,1,2.74542,9.46972h0A2.79679,2.79679,0,0,1,4.2968,9Z" fill="none" stroke="#323232" stroke-linecap="round" stroke-linejoin="round" stroke-width="1.5"/><path d="M10.07375,14.50752,9.20057,19.7466A1.5,1.5,0,0,1,7.721,21H7.429a1.5,1.5,0,0,1-1.47959-1.7466L6.7,14.75" fill="none" stroke="#323232" stroke-linecap="round" stroke-linejoin="round" stroke-width="1.5"/></svg>