<svg xmlns="http://www.w3.org/2000/svg" viewBox="0 0 24 24"><rect width="24" height="24" fill="none"/><path d="M16.75242,21.09039a70.83349,70.83349,0,0,1-9.50487,0A3.49762,3.49762,0,0,1,4,17.59719L4,6.4028A3.4976,3.4976,0,0,1,7.24757,2.90962a70.833,70.833,0,0,1,9.50484,0A3.49761,3.49761,0,0,1,20,6.40279L20,17.5972A3.49762,3.49762,0,0,1,16.75242,21.09039Z" fill="none" stroke="#323232" stroke-linecap="round" stroke-linejoin="round" stroke-width="1.5"/><rect x="8" y="7" width="8" height="3" rx="1.5" stroke-width="1.5" stroke="#323232" stroke-linecap="round" stroke-linejoin="round" fill="none"/><line x1="16" y1="8.5" x2="19.99999" y2="8.5" fill="none" stroke="#323232" stroke-linecap="round" stroke-linejoin="round" stroke-width="1.5"/><line x1="4.00001" y1="8.5" x2="8" y2="8.5" fill="none" stroke="#323232" stroke-linecap="round" stroke-linejoin="round" stroke-width="1.5"/><path d="M11.82262,13.32383l.00044-.00044a.24945.24945,0,1,1-.00044.00044" fill="none" stroke="#323232" stroke-linecap="round" stroke-linejoin="round" stroke-width="1.5"/></svg>