<svg xmlns="http://www.w3.org/2000/svg" viewBox="0 0 24 24"><path d="M17.5,11v7a1,1,0,0,1-1,1h-1a1,1,0,0,1-1-1V9.644" fill="none" stroke="#323232" stroke-linecap="round" stroke-linejoin="round" stroke-width="1.5"/><path d="M20.59566,3.87652l.1846.14769A3.25,3.25,0,0,1,22,6.562v.9961a3,3,0,0,1-1.12591,2.3426l-.27843.22275A4,4,0,0,1,18.09688,11H17.5a4,4,0,0,1-4-4h0a4,4,0,0,1,4-4h.59688A4,4,0,0,1,20.59566,3.87652Z" fill="none" stroke="#323232" stroke-linecap="round" stroke-linejoin="round" stroke-width="1.5"/><path d="M6.5,13v7a1,1,0,0,0,1,1h1a1,1,0,0,0,1-1V11.644" fill="none" stroke="#323232" stroke-linecap="round" stroke-linejoin="round" stroke-width="1.5"/><path d="M3.40434,5.87652l-.27843.22275A3,3,0,0,0,2,8.44187V9.55813a3,3,0,0,0,1.12591,2.3426l.27843.22275A4,4,0,0,0,5.90312,13H6.5a4,4,0,0,0,4-4h0a4,4,0,0,0-4-4H5.90312A4,4,0,0,0,3.40434,5.87652Z" fill="none" stroke="#323232" stroke-linecap="round" stroke-linejoin="round" stroke-width="1.5"/><rect width="24" height="24" fill="none"/></svg>