<svg xmlns="http://www.w3.org/2000/svg" viewBox="0 0 24 24"><path d="M4,6.65279,4,17.3472a3.49762,3.49762,0,0,0,3.24756,3.49319,70.83349,70.83349,0,0,0,9.50487,0A3.49762,3.49762,0,0,0,20,17.3472L20,6.65279A3.49763,3.49763,0,0,0,16.75241,3.1596a70.83471,70.83471,0,0,0-9.50484,0A3.4976,3.4976,0,0,0,4,6.65279Z" fill="none" stroke="#323232" stroke-linecap="round" stroke-linejoin="round" stroke-width="1.5"/><rect x="8" y="7.5" width="8" height="3" rx="1.5" stroke-width="1.5" stroke="#323232" stroke-linecap="round" stroke-linejoin="round" fill="none"/><line x1="16" y1="9" x2="19.99999" y2="9" fill="none" stroke="#323232" stroke-linecap="round" stroke-linejoin="round" stroke-width="1.5"/><line x1="3.99999" y1="9" x2="8" y2="9" fill="none" stroke="#323232" stroke-linecap="round" stroke-linejoin="round" stroke-width="1.5"/><rect width="24" height="24" fill="none"/></svg>