<?xml version="1.0" encoding="UTF-8"?><svg version="1.1" viewBox="0 0 24 24" xmlns="http://www.w3.org/2000/svg" xmlns:xlink="http://www.w3.org/1999/xlink"><!--Generated by IJSVG (https://github.com/iconjar/IJSVG)--><g fill="none"><path d="M0,0h24v24h-24Z"></path><path stroke="#323232" stroke-linecap="round" stroke-linejoin="round" stroke-width="1.5" d="M17.066,21h-10.132c-1.068,0 -1.934,-0.866 -1.934,-1.934v-14.131c0,-1.068 0.866,-1.934 1.934,-1.934h10.131c1.069,4.44089e-16 1.935,0.866 1.935,1.934v14.13c0,1.069 -0.866,1.935 -1.934,1.935Z"></path><path stroke="#323232" stroke-linecap="round" stroke-linejoin="round" stroke-width="1.5" d="M19,8h-14"></path><path stroke="#323232" stroke-linecap="round" stroke-linejoin="round" stroke-width="1.5" d="M8.002,14.949c0.028,0 0.05,0.022 0.05,0.05c0,0.028 -0.022,0.05 -0.05,0.05c-0.028,0 -0.05,-0.022 -0.05,-0.05c-8.88178e-16,-0.027 0.022,-0.05 0.05,-0.05"></path><path stroke="#323232" stroke-linecap="round" stroke-linejoin="round" stroke-width="1.5" d="M12.001,14.951c0.028,0 0.05,0.022 0.05,0.05c0,0.028 -0.022,0.05 -0.05,0.05c-0.028,0 -0.05,-0.022 -0.05,-0.05c-0.001,-0.028 0.022,-0.05 0.05,-0.05"></path><path stroke="#323232" stroke-linecap="round" stroke-linejoin="round" stroke-width="1.5" d="M16.002,14.949c0.028,0 0.05,0.022 0.05,0.05c0,0.028 -0.022,0.05 -0.05,0.05c-0.028,0 -0.05,-0.022 -0.05,-0.05c1.77636e-15,-0.027 0.022,-0.05 0.05,-0.05"></path><path stroke="#323232" stroke-linecap="round" stroke-linejoin="round" stroke-width="1.5" d="M8.002,11.949c0.028,0 0.05,0.022 0.05,0.05c0,0.028 -0.022,0.05 -0.05,0.05c-0.028,0 -0.05,-0.022 -0.05,-0.05c-8.88178e-16,-0.027 0.022,-0.05 0.05,-0.05"></path><path stroke="#323232" stroke-linecap="round" stroke-linejoin="round" stroke-width="1.5" d="M12.001,11.951c0.028,0 0.05,0.022 0.05,0.05c0,0.028 -0.022,0.05 -0.05,0.05c-0.028,0 -0.05,-0.022 -0.05,-0.05c-0.001,-0.028 0.022,-0.05 0.05,-0.05"></path><path stroke="#323232" stroke-linecap="round" stroke-linejoin="round" stroke-width="1.5" d="M16.002,11.949c0.028,0 0.05,0.022 0.05,0.05c0,0.028 -0.022,0.05 -0.05,0.05c-0.028,0 -0.05,-0.022 -0.05,-0.05c1.77636e-15,-0.027 0.022,-0.05 0.05,-0.05"></path><path stroke="#323232" stroke-linecap="round" stroke-linejoin="round" stroke-width="1.5" d="M8.002,17.949c0.028,0 0.05,0.022 0.05,0.05c0,0.028 -0.022,0.05 -0.05,0.05c-0.028,0 -0.05,-0.022 -0.05,-0.05c-8.88178e-16,-0.027 0.022,-0.05 0.05,-0.05"></path><path stroke="#323232" stroke-linecap="round" stroke-linejoin="round" stroke-width="1.5" d="M12.001,17.951c0.028,0 0.05,0.022 0.05,0.05c0,0.028 -0.022,0.05 -0.05,0.05c-0.028,0 -0.05,-0.022 -0.05,-0.05c-0.001,-0.028 0.022,-0.05 0.05,-0.05"></path><path stroke="#323232" stroke-linecap="round" stroke-linejoin="round" stroke-width="1.5" d="M16.002,17.949c0.028,0 0.05,0.022 0.05,0.05c0,0.028 -0.022,0.05 -0.05,0.05c-0.028,0 -0.05,-0.022 -0.05,-0.05c1.77636e-15,-0.027 0.022,-0.05 0.05,-0.05"></path></g></svg>