<svg xmlns="http://www.w3.org/2000/svg" viewBox="0 0 24 24"><path d="M14,8h5.5A2.5,2.5,0,0,1,22,10.5v4A2.5,2.5,0,0,1,19.5,17H14" fill="none" stroke="#323232" stroke-linecap="round" stroke-linejoin="round" stroke-width="1.5"/><line x1="6" y1="18" x2="7" y2="18" fill="none" stroke="#323232" stroke-linecap="round" stroke-linejoin="round" stroke-width="1.5"/><circle cx="8.5" cy="8" r="2.5" fill="none" stroke="#323232" stroke-linecap="round" stroke-linejoin="round" stroke-width="1.5"/><path d="M8.5,2.5h0A5.5,5.5,0,0,1,14,8V19a2,2,0,0,1-2,2H5a2,2,0,0,1-2-2V8A5.5,5.5,0,0,1,8.5,2.5Z" fill="none" stroke="#323232" stroke-linecap="round" stroke-linejoin="round" stroke-width="1.5"/><path d="M14,8A5.5,5.5,0,0,1,3,8" fill="none" stroke="#323232" stroke-linecap="round" stroke-linejoin="round" stroke-width="1.5"/><rect width="24" height="24" fill="none"/></svg>