<svg xmlns="http://www.w3.org/2000/svg" viewBox="0 0 24 24"><line x1="8.5" y1="13.5" x2="8.5" y2="10.05029" fill="none" stroke="#323232" stroke-linecap="round" stroke-linejoin="round" stroke-width="1.5"/><line x1="15.24988" y1="13.5" x2="15.24988" y2="10.16496" fill="none" stroke="#323232" stroke-linecap="round" stroke-linejoin="round" stroke-width="1.5"/><line x1="17.5" y1="3" x2="6.5" y2="3" fill="none" stroke="#323232" stroke-linecap="round" stroke-linejoin="round" stroke-width="1.5"/><path d="M16.5,3l0,5.50371a1.5,1.5,0,0,1-.43934,1.06065l-.2463.2463a1.5,1.5,0,0,1-1.06066.43934H9.24633a1.5,1.5,0,0,1-1.06065-.43934l-.2463-.24629A1.5,1.5,0,0,1,7.5,8.50371L7.5,3" fill="none" stroke="#323232" stroke-linecap="round" stroke-linejoin="round" stroke-width="1.5"/><line x1="16.37494" y1="6.5" x2="7.50002" y2="6.5" fill="none" stroke="#323232" stroke-linecap="round" stroke-linejoin="round" stroke-width="1.5"/><rect x="16.25" y="16" width="3" height="3" rx="1.5" stroke-width="1.5" stroke="#323232" stroke-linecap="round" stroke-linejoin="round" fill="none"/><rect x="2" y="13.5" width="20" height="8" rx="2" stroke-width="1.5" stroke="#323232" stroke-linecap="round" stroke-linejoin="round" fill="none"/><line x1="10" y1="16.5" x2="10" y2="18.5" fill="none" stroke="#323232" stroke-linecap="round" stroke-linejoin="round" stroke-width="1.5"/><line x1="7" y1="18.5" x2="7" y2="16.5" fill="none" stroke="#323232" stroke-linecap="round" stroke-linejoin="round" stroke-width="1.5"/><rect width="24" height="24" fill="none"/></svg>