<svg xmlns="http://www.w3.org/2000/svg" viewBox="0 0 24 24"><path d="M8,7l.54415-1.63246A2,2,0,0,1,10.44152,4h5.117a2,2,0,0,1,1.89737,1.36754L18,7h2a2,2,0,0,1,2,2V19a2,2,0,0,1-2,2H4a2,2,0,0,1-2-2V9A2,2,0,0,1,4,7Z" fill="none" stroke="#323232" stroke-linecap="round" stroke-linejoin="round" stroke-width="1.5"/><line x1="14.5" y1="7" x2="11.5" y2="7" fill="none" stroke="#323232" stroke-linecap="round" stroke-linejoin="round" stroke-width="1.5"/><circle cx="13" cy="14" r="4" fill="none" stroke="#323232" stroke-linecap="round" stroke-linejoin="round" stroke-width="1.5"/><path d="M2,10.5H3.5A1.5,1.5,0,0,1,5,12v4a1.5,1.5,0,0,1-1.5,1.5H2" fill="none" stroke="#323232" stroke-linecap="round" stroke-linejoin="round" stroke-width="1.5"/><rect width="24" height="24" fill="none"/><rect width="24" height="24" fill="none"/></svg>