<svg xmlns="http://www.w3.org/2000/svg" viewBox="0 0 24 24"><line x1="14" y1="3" x2="3" y2="3" fill="none" stroke="#323232" stroke-linecap="round" stroke-linejoin="round" stroke-width="1.5"/><path d="M12.875,3l0,5.50366a1.5,1.5,0,0,1-.43935,1.06066l-.2463.2463a1.5,1.5,0,0,1-1.06065.43933H5.62128a1.5,1.5,0,0,1-1.06066-.43933l-.2463-.2463A1.5,1.5,0,0,1,3.875,8.50366L3.875,3" fill="none" stroke="#323232" stroke-linecap="round" stroke-linejoin="round" stroke-width="1.5"/><path d="M15.362,11.55213l-.1726.69041A1,1,0,0,1,14.21922,13H5a3,3,0,0,0-3,3v2a3,3,0,0,0,3,3H19a3,3,0,0,0,3-3V12.36931A3.36931,3.36931,0,0,0,18.63069,9h0A3.36931,3.36931,0,0,0,15.362,11.55213Z" fill="none" stroke="#323232" stroke-linecap="round" stroke-linejoin="round" stroke-width="1.5"/><line x1="10" y1="16" x2="10" y2="18" fill="none" stroke="#323232" stroke-linecap="round" stroke-linejoin="round" stroke-width="1.5"/><line x1="7" y1="18" x2="7" y2="16" fill="none" stroke="#323232" stroke-linecap="round" stroke-linejoin="round" stroke-width="1.5"/><rect x="16" y="15" width="3" height="3" rx="1.5" stroke-width="1.5" stroke="#323232" stroke-linecap="round" stroke-linejoin="round" fill="none"/><line x1="5" y1="13" x2="5" y2="10.11448" fill="none" stroke="#323232" stroke-linecap="round" stroke-linejoin="round" stroke-width="1.5"/><line x1="11.74988" y1="13" x2="11.74988" y2="10.11471" fill="none" stroke="#323232" stroke-linecap="round" stroke-linejoin="round" stroke-width="1.5"/><path d="M18.55,12.5l-.005.005L18.54,12.5l.005-.005.005.005" fill="none" stroke="#323232" stroke-linecap="round" stroke-linejoin="round" stroke-width="1.5"/><rect width="24" height="24" fill="none"/></svg>