<svg xmlns="http://www.w3.org/2000/svg" viewBox="0 0 24 24"><path d="M17,7l-.54415-1.63245A2,2,0,0,0,14.55848,4h-5.117A2,2,0,0,0,7.54415,5.36755L7,7H4A2,2,0,0,0,2,9V19a2,2,0,0,0,2,2H20a2,2,0,0,0,2-2V9a2,2,0,0,0-2-2Z" fill="none" stroke="#323232" stroke-linecap="round" stroke-linejoin="round" stroke-width="1.5"/><line x1="13.5" y1="7" x2="10.5" y2="7" fill="none" stroke="#323232" stroke-linecap="round" stroke-linejoin="round" stroke-width="1.5"/><circle cx="12" cy="14" r="4" fill="none" stroke="#323232" stroke-linecap="round" stroke-linejoin="round" stroke-width="1.5"/><rect width="24" height="24" fill="none"/><rect width="24" height="24" fill="none"/></svg>