<svg xmlns="http://www.w3.org/2000/svg" viewBox="0 0 24 24"><path d="M22,10v9a2,2,0,0,1-2,2H4a2,2,0,0,1-2-2V6A2,2,0,0,1,4,4h8" fill="none" stroke="#323232" stroke-linecap="round" stroke-linejoin="round" stroke-width="1.5"/><path d="M14.494,12.08585l5.97171-5.9717a1.82423,1.82423,0,0,0,0-2.57984h0a1.82423,1.82423,0,0,0-2.57984,0L11.91415,9.506a2.43234,2.43234,0,0,0-.688,1.37591l-.221,1.54724a.5.5,0,0,0,.56568.56568l1.54724-.221A2.43234,2.43234,0,0,0,14.494,12.08585Z" fill="none" stroke="#323232" stroke-linecap="round" stroke-linejoin="round" stroke-width="1.5"/><path d="M5,12.495l.005.005L5,12.505,4.995,12.5,5,12.495" fill="none" stroke="#323232" stroke-linecap="round" stroke-linejoin="round" stroke-width="1.5"/><rect width="24" height="24" fill="none"/></svg>