<svg xmlns="http://www.w3.org/2000/svg" viewBox="0 0 24 24"><rect x="7.58579" y="7.58579" width="8.82842" height="8.82842" rx="3" transform="translate(-4.97056 12) rotate(-45)" stroke-width="1.5" stroke="#323232" stroke-linecap="round" stroke-linejoin="round" fill="none"/><line x1="8.78226" y1="8.78226" x2="6" y2="6" fill="none" stroke="#323232" stroke-linecap="round" stroke-linejoin="round" stroke-width="1.5"/><line x1="15.21774" y1="15.21774" x2="18" y2="18" fill="none" stroke="#323232" stroke-linecap="round" stroke-linejoin="round" stroke-width="1.5"/><line x1="8.78226" y1="15.21774" x2="6" y2="18" fill="none" stroke="#323232" stroke-linecap="round" stroke-linejoin="round" stroke-width="1.5"/><line x1="15.21774" y1="8.78226" x2="18" y2="6" fill="none" stroke="#323232" stroke-linecap="round" stroke-linejoin="round" stroke-width="1.5"/><line x1="11" y1="12" x2="13" y2="12" fill="none" stroke="#323232" stroke-linecap="round" stroke-linejoin="round" stroke-width="1.5"/><path d="M4.24438,14.42212a3.993,3.993,0,1,0,5.07825,5.80377" fill="none" stroke="#323232" stroke-linecap="round" stroke-linejoin="round" stroke-width="1.5"/><path d="M19.75562,9.57788a3.993,3.993,0,1,0-5.07825-5.80377" fill="none" stroke="#323232" stroke-linecap="round" stroke-linejoin="round" stroke-width="1.5"/><path d="M9.57788,4.24438A3.993,3.993,0,1,0,3.77411,9.32263" fill="none" stroke="#323232" stroke-linecap="round" stroke-linejoin="round" stroke-width="1.5"/><path d="M14.42212,19.75562a3.993,3.993,0,1,0,5.80377-5.07825" fill="none" stroke="#323232" stroke-linecap="round" stroke-linejoin="round" stroke-width="1.5"/><rect width="24" height="24" fill="none"/></svg>