<svg id="Layer_3" data-name="Layer 3" xmlns="http://www.w3.org/2000/svg" viewBox="0 0 24 24"><rect width="24" height="24" fill="none"/><line x1="20" y1="21" x2="22" y2="21" fill="none" stroke="#323232" stroke-linecap="round" stroke-linejoin="round" stroke-width="1.5"/><line x1="4" y1="21" x2="2" y2="21" fill="none" stroke="#323232" stroke-linecap="round" stroke-linejoin="round" stroke-width="1.5"/><path d="M9,15h6a0,0,0,0,1,0,0v2.5A1.5,1.5,0,0,1,13.5,19h-3A1.5,1.5,0,0,1,9,17.5V15A0,0,0,0,1,9,15Z" fill="none" stroke="#323232" stroke-linecap="round" stroke-linejoin="round" stroke-width="1.5"/><line x1="10" y1="4" x2="7.5" y2="4" fill="none" stroke="#323232" stroke-linecap="round" stroke-linejoin="round" stroke-width="1.5"/><line x1="4.5" y1="4" x2="2" y2="4" fill="none" stroke="#323232" stroke-linecap="round" stroke-linejoin="round" stroke-width="1.5"/><line x1="6" y1="5.5" x2="6" y2="7" fill="none" stroke="#323232" stroke-linecap="round" stroke-linejoin="round" stroke-width="1.5"/><path d="M2,10.508V11.5A1.5,1.5,0,0,0,3.5,13H8l.72361,1.44721A1,1,0,0,0,9.618,15h4.764a1,1,0,0,0,.89441-.55276L16.00007,13H20.5A1.5,1.5,0,0,0,22,11.5v-1A1.5,1.5,0,0,0,20.5,9H16.82184a2,2,0,0,1-1.4135-.58508l-.82268-.82184a2,2,0,0,0-1.4135-.58508H10.832a2,2,0,0,0-1.41846.59l-.815.8199a2,2,0,0,1-1.41846.59H3.5A1.5,1.5,0,0,0,2,10.508Z" fill="none" stroke="#323232" stroke-linecap="round" stroke-linejoin="round" stroke-width="1.5"/><line x1="11" y1="11" x2="13" y2="11" fill="none" stroke="#323232" stroke-linecap="round" stroke-linejoin="round" stroke-width="1.5"/><line x1="22" y1="4" x2="19.5" y2="4" fill="none" stroke="#323232" stroke-linecap="round" stroke-linejoin="round" stroke-width="1.5"/><line x1="16.5" y1="4" x2="14" y2="4" fill="none" stroke="#323232" stroke-linecap="round" stroke-linejoin="round" stroke-width="1.5"/><line x1="18" y1="5.5" x2="18" y2="7" fill="none" stroke="#323232" stroke-linecap="round" stroke-linejoin="round" stroke-width="1.5"/><path d="M3,21v-.66666C3,16.28325,5.23858,13,8,13" fill="none" stroke="#323232" stroke-linecap="round" stroke-linejoin="round" stroke-width="1.5"/><path d="M21.00005,21v-.66662c0-4.05009-2.23857-7.33334-5-7.33334" fill="none" stroke="#323232" stroke-linecap="round" stroke-linejoin="round" stroke-width="1.5"/></svg>