<svg xmlns="http://www.w3.org/2000/svg" viewBox="0 0 24 24"><rect width="24" height="24" transform="translate(24 24) rotate(-180)" fill="none"/><rect width="24" height="24" fill="none"/><path d="M17.5,11v7a1,1,0,0,1-1,1h-1a1,1,0,0,1-1-1V9.644" fill="none" stroke="#323232" stroke-linecap="round" stroke-linejoin="round" stroke-width="1.5"/><path d="M20.59566,3.87652l.1846.14769A3.25,3.25,0,0,1,22,6.562v.9961a3,3,0,0,1-1.12591,2.3426l-.27843.22275A4,4,0,0,1,18.09688,11H17.5a4,4,0,0,1-4-4h0a4,4,0,0,1,4-4h.59688A4,4,0,0,1,20.59566,3.87652Z" fill="none" stroke="#323232" stroke-linecap="round" stroke-linejoin="round" stroke-width="1.5"/><circle cx="6.25" cy="9.25" r="4.25" fill="none" stroke="#323232" stroke-linecap="round" stroke-linejoin="round" stroke-width="1.5"/><path d="M4.75,13.5V20a1,1,0,0,0,1,1h1a1,1,0,0,0,1-1V13.5" fill="none" stroke="#323232" stroke-linecap="round" stroke-linejoin="round" stroke-width="1.5"/><path d="M6.07262,9.07383l.00044-.00044a.24945.24945,0,1,1-.00044.00044" fill="none" stroke="#323232" stroke-linecap="round" stroke-linejoin="round" stroke-width="1.5"/></svg>