<svg xmlns="http://www.w3.org/2000/svg" viewBox="0 0 24 24"><path d="M5.13134,8H9.60439a2.00915,2.00915,0,0,1,1.98429,2.23564c-.05706.57011-.08727,1.15984-.08727,1.76438s.03021,1.19427.08727,1.76439A2.00914,2.00914,0,0,1,9.60439,16H5.13133a2.009,2.009,0,0,1-1.98971-1.76011,17.78448,17.78448,0,0,1,0-4.47983A2.009,2.009,0,0,1,5.13134,8Z" fill="none" stroke="#323232" stroke-linecap="round" stroke-linejoin="round" stroke-width="1.5"/><path d="M7.45,3h9.1C19.00767,3,21,7.02944,21,12s-1.99233,9-4.45,9H7.45C4.99233,21,3,16.97057,3,12S4.99233,3,7.45,3Z" fill="none" stroke="#323232" stroke-linecap="round" stroke-linejoin="round" stroke-width="1.5"/><path d="M15.95,21c-2.45767,0-4.45-4.02944-4.45-9s1.99234-9,4.45-9" fill="none" stroke="#323232" stroke-linecap="round" stroke-linejoin="round" stroke-width="1.5"/><line x1="6.31492" y1="13.25" x2="8.31492" y2="13.25" fill="none" stroke="#323232" stroke-linecap="round" stroke-linejoin="round" stroke-width="1.5"/><line x1="6.31492" y1="10.75" x2="8.31492" y2="10.75" fill="none" stroke="#323232" stroke-linecap="round" stroke-linejoin="round" stroke-width="1.5"/><rect width="24" height="24" fill="none"/></svg>