<svg id="Layer_3" data-name="Layer 3" xmlns="http://www.w3.org/2000/svg" viewBox="0 0 24 24"><path d="M14,18v2a2,2,0,0,1-2,2H5a2,2,0,0,1-2-2V8A2,2,0,0,1,5,6h7a2,2,0,0,1,2,2v2" fill="none" stroke="#323232" stroke-linecap="round" stroke-linejoin="round" stroke-width="1.5"/><path d="M5.5,6V3a1,1,0,0,1,1-1h4a1,1,0,0,1,1,1V6" fill="none" stroke="#323232" stroke-linecap="round" stroke-linejoin="round" stroke-width="1.5"/><path d="M10,10h9a2,2,0,0,1,2,2v4a2,2,0,0,1-2,2H10a4,4,0,0,1-4-4v0a4,4,0,0,1,4-4Z" fill="none" stroke="#323232" stroke-linecap="round" stroke-linejoin="round" stroke-width="1.5"/><path d="M9.75,14.00032A.25.25,0,1,1,9.49968,13.75a.25.25,0,0,1,.25032.25032" fill="none" stroke="#323232" stroke-linecap="round" stroke-linejoin="round" stroke-width="1.5"/><path d="M0,0H24V24H0Z" fill="none"/></svg>