<svg xmlns="http://www.w3.org/2000/svg" viewBox="0 0 24 24"><line x1="12" y1="20.23429" x2="12" y2="4.50758" fill="none" stroke="#323232" stroke-linecap="round" stroke-linejoin="round" stroke-width="1.5"/><path d="M12,20.23429l-6.77914.75324A2,2,0,0,1,3,18.99976V5.00081A2,2,0,0,1,5.43386,3.04844L12,4.50758l6.56614-1.45914A2,2,0,0,1,21,5.00081V18.99976a2,2,0,0,1-2.22086,1.98777Z" fill="none" stroke="#323232" stroke-linecap="round" stroke-linejoin="round" stroke-width="1.5"/><path d="M16.625,6.54048A.125.125,0,1,1,16.5,6.415a.12434.12434,0,0,1,.125.12548" fill="none" stroke="#323232" stroke-linecap="round" stroke-linejoin="round" stroke-width="1.5"/><path d="M0,0H24V24H0Z" fill="none"/></svg>