<svg xmlns="http://www.w3.org/2000/svg" viewBox="0 0 24 24"><rect width="24" height="24" fill="none"/><path d="M6.91955,18.08045l.0482-.0482A6.93852,6.93852,0,0,0,9,13.126H9a6.93852,6.93852,0,0,0-.35606-2.19415l-.01149-.03445A12.32476,12.32476,0,0,1,8,7H8" fill="none" stroke="#323232" stroke-linecap="round" stroke-linejoin="round" stroke-width="1.5"/><line x1="13.5" y1="7.5" x2="13.5" y2="9.5" fill="none" stroke="#323232" stroke-linecap="round" stroke-linejoin="round" stroke-width="1.5"/><path d="M15.30513,3.32808h0A20.332,20.332,0,0,0,11.66732,3h-.16753a3.5,3.5,0,0,0-3.5,3.50039L8,7.9998A2,2,0,0,1,7.2,9.6l-.6.45A4,4,0,0,0,5,13.25v1.40643a4,4,0,0,0,1.67506,3.255l2.75949,1.971A6,6,0,0,0,12.922,21H13a6,6,0,0,0,6-6V7.75547A4.5,4.5,0,0,0,15.30513,3.32808Z" fill="none" stroke="#323232" stroke-linecap="round" stroke-linejoin="round" stroke-width="1.5"/></svg>