<svg xmlns="http://www.w3.org/2000/svg" viewBox="0 0 24 24"><path d="M16.24927,20.85382a61.83267,61.83267,0,0,1-8.49855,0A2.98663,2.98663,0,0,1,5,17.86477C5,14.66012,5,9.33988,5,6.13523a2.98664,2.98664,0,0,1,2.75075-2.989,61.83381,61.83381,0,0,1,8.49852,0A2.98662,2.98662,0,0,1,19,6.13522c0,3.20466,0,8.52489,0,11.72955A2.98664,2.98664,0,0,1,16.24927,20.85382Z" fill="none" stroke="#323232" stroke-linecap="round" stroke-linejoin="round" stroke-width="1.5"/><path d="M13.4995,16.875A.125.125,0,1,0,13.625,17a.1243.1243,0,0,0-.1255-.125" fill="none" stroke="#323232" stroke-linecap="round" stroke-linejoin="round" stroke-width="1.5"/><path d="M15.4995,14.875A.125.125,0,1,0,15.625,15a.1243.1243,0,0,0-.1255-.125" fill="none" stroke="#323232" stroke-linecap="round" stroke-linejoin="round" stroke-width="1.5"/><path d="M9.5,14.75v2.5" fill="none" stroke="#323232" stroke-linecap="round" stroke-linejoin="round" stroke-width="1.5"/><path d="M10.75,16H8.25" fill="none" stroke="#323232" stroke-linecap="round" stroke-linejoin="round" stroke-width="1.5"/><rect x="8" y="6" width="8" height="6" rx="1" stroke-width="1.5" stroke="#323232" stroke-linecap="round" stroke-linejoin="round" fill="none"/><path d="M0,0H24V24H0Z" fill="none"/></svg>