<svg xmlns="http://www.w3.org/2000/svg" viewBox="0 0 24 24"><rect width="24" height="24" fill="none"/><path d="M6.8739,18.1261l.71189-.71189A4.82843,4.82843,0,0,0,9,14H9a4.82843,4.82843,0,0,0-1.41421-3.41421l-.70711-.70711A3,3,0,0,1,6,7.75736V7.31977" fill="none" stroke="#323232" stroke-linecap="round" stroke-linejoin="round" stroke-width="1.5"/><line x1="12" y1="6.63031" x2="12" y2="8.63031" fill="none" stroke="#323232" stroke-linecap="round" stroke-linejoin="round" stroke-width="1.5"/><path d="M15.40221,3.57092A10.42245,10.42245,0,0,0,8.59773,3.571,3.96138,3.96138,0,0,0,6,7.32435V15a6,6,0,0,0,6,6h0a6,6,0,0,0,6-6V7.32431A3.96138,3.96138,0,0,0,15.40221,3.57092Z" fill="none" stroke="#323232" stroke-linecap="round" stroke-linejoin="round" stroke-width="1.5"/></svg>