<svg xmlns="http://www.w3.org/2000/svg" viewBox="0 0 24 24"><path d="M20.17157,6.17157l1.24264,1.24264A2,2,0,0,1,22,8.82843V17a2,2,0,0,1-2,2H15.5a1,1,0,0,1-.8-.4l-1.9-2.53333a1,1,0,0,0-1.6,0L9.3,18.6a1,1,0,0,1-.8.4H4a2,2,0,0,1-2-2V8.82843a2,2,0,0,1,.58579-1.41422L3.82843,6.17157A4,4,0,0,1,6.65685,5h10.6863A4,4,0,0,1,20.17157,6.17157Z" fill="none" stroke="#323232" stroke-linecap="round" stroke-linejoin="round" stroke-width="1.5"/><line x1="2" y1="9" x2="22" y2="9" fill="none" stroke="#323232" stroke-linecap="round" stroke-linejoin="round" stroke-width="1.5"/><rect width="24" height="24" fill="none"/><rect width="24" height="24" fill="none"/></svg>