<svg xmlns="http://www.w3.org/2000/svg" viewBox="0 0 24 24"><path d="M4,16H2a1,1,0,0,1-1-1V11a1,1,0,0,1,1-1H4" fill="none" stroke="#323232" stroke-linecap="round" stroke-linejoin="round" stroke-width="1.5"/><path d="M20,10h2a1,1,0,0,1,1,1v4a1,1,0,0,1-1,1H20" fill="none" stroke="#323232" stroke-linecap="round" stroke-linejoin="round" stroke-width="1.5"/><path d="M10.04815,18.5681,11.17759,16.932a.99933.99933,0,0,1,1.64482,0l1.12944,1.63611a1,1,0,0,0,.823.4319H18a2,2,0,0,0,2-2V10a2,2,0,0,0-2-2H6a2,2,0,0,0-2,2v7a2,2,0,0,0,2,2H9.22519A1,1,0,0,0,10.04815,18.5681Z" fill="none" stroke="#323232" stroke-linecap="round" stroke-linejoin="round" stroke-width="1.5"/><path d="M9,8V6a1,1,0,0,1,1-1h4a1,1,0,0,1,1,1V8" fill="none" stroke="#323232" stroke-linecap="round" stroke-linejoin="round" stroke-width="1.5"/><rect width="24" height="24" fill="none"/></svg>