<svg xmlns="http://www.w3.org/2000/svg" viewBox="0 0 24 24"><path d="M18.409,13.10085a3.004,3.004,0,0,1,1.98856,3.70633l-.58967,2.02711a3.004,3.004,0,0,1-3.73541,2.04185l-.06564-.01939a1.502,1.502,0,0,1-1.017-1.85907l1.42608-4.91389a1.502,1.502,0,0,1,1.89039-1.015Z" fill="none" stroke="#323232" stroke-linecap="round" stroke-linejoin="round" stroke-width="1.5"/><path d="M5.591,13.10085a3.004,3.004,0,0,0-1.98856,3.70633l.58967,2.02711a3.004,3.004,0,0,0,3.73541,2.04185l.06564-.01939a1.502,1.502,0,0,0,1.017-1.85907L7.58407,14.08379a1.502,1.502,0,0,0-1.89039-1.015Z" fill="none" stroke="#323232" stroke-linecap="round" stroke-linejoin="round" stroke-width="1.5"/><path d="M19.80786,18.83429l.428-1.47125A19.20118,19.20118,0,0,0,21,12h0a9,9,0,0,0-9-9h0a9,9,0,0,0-9,9H3a19.20118,19.20118,0,0,0,.76417,5.363l.428,1.47125" fill="none" stroke="#323232" stroke-linecap="round" stroke-linejoin="round" stroke-width="1.5"/><rect width="24" height="24" fill="none"/></svg>