<svg xmlns="http://www.w3.org/2000/svg" viewBox="0 0 24 24"><path d="M20.95179,14H18.00258a2,2,0,0,0-1.78885,1.10557l-1.5,3A2,2,0,0,0,16.50258,21h.26135a2,2,0,0,0,1.78886-1.10557l1.60263-3.20527A8,8,0,0,0,21,13.11146V12a9,9,0,0,0-9-9h0a9.00276,9.00276,0,0,0-9,9.00315v1.11244a7.98254,7.98254,0,0,0,.84458,3.57359l1.60262,3.20525A2,2,0,0,0,7.23607,21h.26135a2,2,0,0,0,1.78885-2.89443l-1.5-3A2,2,0,0,0,5.99742,14H3.05119" fill="none" stroke="#323232" stroke-linecap="round" stroke-linejoin="round" stroke-width="1.5"/><rect width="24" height="24" fill="none"/></svg>