<svg xmlns="http://www.w3.org/2000/svg" viewBox="0 0 24 24"><rect width="24" height="24" fill="none"/><path d="M5.5,9.6v4.9a1,1,0,0,0,1,1h1a1,1,0,0,0,1-1V9.236" fill="none" stroke="#323232" stroke-linecap="round" stroke-linejoin="round" stroke-width="1.5"/><path d="M5.86119,4.75H8.25A2.25,2.25,0,0,1,10.5,7h0A2.25,2.25,0,0,1,8.25,9.25H5.861" fill="none" stroke="#323232" stroke-linecap="round" stroke-linejoin="round" stroke-width="1.5"/><path d="M4.08166,4H4.3a2,2,0,0,1,2,2V8a2,2,0,0,1-2,2H4.08166a2.58166,2.58166,0,0,1-1.432-.43359l-.03637-.02424A2.5,2.5,0,0,1,1.5,7.462v-.9776A2.4,2.4,0,0,1,2.56872,4.48752l.0809-.05393A2.58166,2.58166,0,0,1,4.08166,4Z" fill="none" stroke="#323232" stroke-linecap="round" stroke-linejoin="round" stroke-width="1.5"/><line x1="7.00005" y1="15.5" x2="6.99995" y2="20" fill="none" stroke="#323232" stroke-linecap="round" stroke-linejoin="round" stroke-width="1.5"/><path d="M18.5,9.6v4.9a1,1,0,0,1-1,1h-1a1,1,0,0,1-1-1V9.236" fill="none" stroke="#323232" stroke-linecap="round" stroke-linejoin="round" stroke-width="1.5"/><path d="M18.13881,4.75H15.75A2.25,2.25,0,0,0,13.5,7h0a2.25,2.25,0,0,0,2.25,2.25h2.389" fill="none" stroke="#323232" stroke-linecap="round" stroke-linejoin="round" stroke-width="1.5"/><path d="M19.91834,4H19.7a2,2,0,0,0-2,2V8a2,2,0,0,0,2,2h.21834a2.58166,2.58166,0,0,0,1.432-.43359l.03637-.02424A2.5,2.5,0,0,0,22.5,7.462v-.9776a2.4,2.4,0,0,0-1.06872-1.99692l-.0809-.05393A2.58166,2.58166,0,0,0,19.91834,4Z" fill="none" stroke="#323232" stroke-linecap="round" stroke-linejoin="round" stroke-width="1.5"/><line x1="16.99995" y1="15.5" x2="17.00005" y2="20" fill="none" stroke="#323232" stroke-linecap="round" stroke-linejoin="round" stroke-width="1.5"/></svg>