<svg xmlns="http://www.w3.org/2000/svg" viewBox="0 0 24 24"><rect width="24" height="24" transform="translate(24 24) rotate(-180)" fill="none"/><path d="M18.095,13.95719h.02516a2,2,0,0,1,2,2V19.2414A2.02521,2.02521,0,0,1,18.095,21.26661h0a3,3,0,0,1-3-3V16.95719A3,3,0,0,1,18.095,13.95719Z" transform="translate(26.1224 41.01502) rotate(-154.99993)" fill="none" stroke="#323232" stroke-linecap="round" stroke-linejoin="round" stroke-width="1.5"/><path d="M12,6A7.46875,7.46875,0,0,0,7.06244,7.85537a1.26258,1.26258,0,0,1-1.73476-.02768l-.34761-.34761a1.24587,1.24587,0,0,1,.02929-1.80195,10.46279,10.46279,0,0,1,13.98128,0,1.24587,1.24587,0,0,1,.02929,1.80195l-.34761.34761a1.26258,1.26258,0,0,1-1.73476.02768A7.46875,7.46875,0,0,0,12,6Z" fill="none" stroke="#323232" stroke-linecap="round" stroke-linejoin="round" stroke-width="1.5"/><path d="M6.87978,13.95719h0A2.02521,2.02521,0,0,1,8.905,15.9824v3.28416a2,2,0,0,1-2,2H6.87978a3,3,0,0,1-3-3V16.95719a3,3,0,0,1,3-3Z" transform="translate(-6.84421 4.35165) rotate(-25.00008)" fill="none" stroke="#323232" stroke-linecap="round" stroke-linejoin="round" stroke-width="1.5"/><path d="M19.60809,19.26709l.36133-.77484A10.99972,10.99972,0,0,0,21,13.84351v-.90784a8.9525,8.9525,0,0,0-1.921-5.54541" fill="none" stroke="#323232" stroke-linecap="round" stroke-linejoin="round" stroke-width="1.5"/><path d="M4.921,7.39026A8.9525,8.9525,0,0,0,3,12.93567v.90784a10.99972,10.99972,0,0,0,1.03058,4.64874l.36133.77484" fill="none" stroke="#323232" stroke-linecap="round" stroke-linejoin="round" stroke-width="1.5"/></svg>