<?xml version="1.0" encoding="UTF-8"?><svg version="1.1" viewBox="0 0 24 24" xmlns="http://www.w3.org/2000/svg" xmlns:xlink="http://www.w3.org/1999/xlink"><g stroke-linecap="round" stroke-width="1.5" stroke="#323232" fill="none" stroke-linejoin="round"><path d="M19 18.75v-13.5c0-1.243-1.007-2.25-2.25-2.25h-9.5c-1.243 0-2.25 1.007-2.25 2.25v13.5c0 1.243 1.007 2.25 2.25 2.25h9.5c1.243 0 2.25-1.007 2.25-2.25Z"></path><path d="M11.999 17.875c-.069 0-.125.056-.124.125 0 .069.056.125.125.125 .069 0 .125-.056.125-.125 0-.069-.056-.125-.126-.125"></path></g><path fill="none" d="M0 0h24v24h-24v-24Z"></path></svg>