<svg xmlns="http://www.w3.org/2000/svg" viewBox="0 0 24 24"><rect width="24" height="24" fill="none"/><path d="M8,5l.758,2.27391A1.06188,1.06188,0,0,0,9.76536,8h4.46928A1.06188,1.06188,0,0,0,15.242,7.27391L16,5" fill="none" stroke="#323232" stroke-linecap="round" stroke-linejoin="round" stroke-width="1.5"/><path d="M7.39076,5h9.21848a4,4,0,0,1,3.93964,3.3077L21.966,16.37178a2.24039,2.24039,0,0,1-1.501,2.51412h0a2.24038,2.24038,0,0,1-2.37637-.6338L15.19591,15.014H8.80409L5.9114,18.2521a2.2404,2.2404,0,0,1-2.37637.6338h0a2.24038,2.24038,0,0,1-1.501-2.51412L3.45112,8.3077A4,4,0,0,1,7.39076,5Z" fill="none" stroke="#323232" stroke-linecap="round" stroke-linejoin="round" stroke-width="1.5"/></svg>