<svg xmlns="http://www.w3.org/2000/svg" viewBox="0 0 24 24"><path d="M17,17h0a3,3,0,0,0-3-3H10a3,3,0,0,0-3,3H7" fill="none" stroke="#323232" stroke-linecap="round" stroke-linejoin="round" stroke-width="1.5"/><path d="M5,17H19a2,2,0,0,1,2,2v1a1,1,0,0,1-1,1H4a1,1,0,0,1-1-1V19A2,2,0,0,1,5,17Z" fill="none" stroke="#323232" stroke-linecap="round" stroke-linejoin="round" stroke-width="1.5"/><path d="M10.06374,14,9.028,6.40475A2.99949,2.99949,0,0,1,12,3h0a2.99949,2.99949,0,0,1,2.972,3.40475L13.93626,14" fill="none" stroke="#323232" stroke-linecap="round" stroke-linejoin="round" stroke-width="1.5"/><rect width="24" height="24" fill="none"/></svg>