<svg xmlns="http://www.w3.org/2000/svg" viewBox="0 0 24 24"><rect width="24" height="24" fill="none"/><path d="M15.9955,5.01351l-.76758,2.30272A1,1,0,0,1,14.27924,8H9.72076a1,1,0,0,1-.94868-.68377l-.7677-2.3031" fill="none" stroke="#323232" stroke-linecap="round" stroke-linejoin="round" stroke-width="1.5"/><path d="M8.75966,15,7.20222,17.62914A2.79576,2.79576,0,0,1,4.79682,19h0a2.79577,2.79577,0,0,1-2.735-3.37549l1.412-6.66131A5,5,0,0,1,8.36513,5h7.2697a5,5,0,0,1,4.89135,3.9632l1.412,6.66131A2.79576,2.79576,0,0,1,19.20314,19h0a2.79576,2.79576,0,0,1-2.4054-1.37086L15.2403,15Z" fill="none" stroke="#323232" stroke-linecap="round" stroke-linejoin="round" stroke-width="1.5"/></svg>