<svg xmlns="http://www.w3.org/2000/svg" viewBox="0 0 24 24"><path d="M10.0102,15h3.924l3.01407,3.33993A2,2,0,0,0,18.43306,19h1.56588a2,2,0,0,0,1.93519-2.505l-2.21963-8.505A4,4,0,0,0,15.84414,5H8.15586A4,4,0,0,0,4.2855,7.98992L2.06587,16.495A2,2,0,0,0,4.00106,19H5.55769a2,2,0,0,0,1.49508-.67157Z" fill="none" stroke="#323232" stroke-linecap="round" stroke-linejoin="round" stroke-width="1.5"/><path d="M8,5l.77208,2.31623A1,1,0,0,0,9.72076,8h4.55848a1,1,0,0,0,.94868-.68377L16,5" fill="none" stroke="#323232" stroke-linecap="round" stroke-linejoin="round" stroke-width="1.5"/><rect width="24" height="24" fill="none"/></svg>