<svg xmlns="http://www.w3.org/2000/svg" viewBox="0 0 24 24"><rect width="24" height="24" fill="none"/><path d="M8,5l.77208,2.31621A1,1,0,0,0,9.72076,8h4.55848a1,1,0,0,0,.94868-.68379L16,5" fill="none" stroke="#323232" stroke-linecap="round" stroke-linejoin="round" stroke-width="1.5"/><path d="M18.43985,5H5.56015A3,3,0,0,0,2.56777,7.78628l-.55959,7.83428A3.1547,3.1547,0,0,0,5.15486,19h0A3.15471,3.15471,0,0,0,8.25415,16.434L8.52649,15h6.947l.27234,1.43393A3.15471,3.15471,0,0,0,18.84514,19h0a3.1547,3.1547,0,0,0,3.14668-3.37947l-.55959-7.83428A3,3,0,0,0,18.43985,5Z" fill="none" stroke="#323232" stroke-linecap="round" stroke-linejoin="round" stroke-width="1.5"/></svg>