<svg xmlns="http://www.w3.org/2000/svg" viewBox="0 0 24 24"><path d="M10,19H4a1.99945,1.99945,0,0,1-2-2V7A1.99945,1.99945,0,0,1,4,5h6" fill="none" stroke="#323232" stroke-linecap="round" stroke-linejoin="round" stroke-width="1.5"/><path d="M16.5,5h2A3.5,3.5,0,0,1,22,8.5v6A4.5,4.5,0,0,1,17.5,19h0A4.5,4.5,0,0,1,13,14.5v-6A3.5,3.5,0,0,1,16.5,5Z" fill="none" stroke="#323232" stroke-linecap="round" stroke-linejoin="round" stroke-width="1.5"/><line x1="17.5" y1="9" x2="17.5" y2="10" fill="none" stroke="#323232" stroke-linecap="round" stroke-linejoin="round" stroke-width="1.5"/><path d="M6,11.95a.05.05,0,1,1-.05.05A.04951.04951,0,0,1,6,11.95" fill="none" stroke="#323232" stroke-linecap="round" stroke-linejoin="round" stroke-width="1.5"/><path d="M6,14.95a.05.05,0,1,1-.05.05A.04951.04951,0,0,1,6,14.95" fill="none" stroke="#323232" stroke-linecap="round" stroke-linejoin="round" stroke-width="1.5"/><path d="M6,8.95A.05.05,0,1,1,5.95,9,.04951.04951,0,0,1,6,8.95" fill="none" stroke="#323232" stroke-linecap="round" stroke-linejoin="round" stroke-width="1.5"/><path d="M9,11.95a.05.05,0,1,1-.05.05A.04951.04951,0,0,1,9,11.95" fill="none" stroke="#323232" stroke-linecap="round" stroke-linejoin="round" stroke-width="1.5"/><path d="M9,14.95a.05.05,0,1,1-.05.05A.04951.04951,0,0,1,9,14.95" fill="none" stroke="#323232" stroke-linecap="round" stroke-linejoin="round" stroke-width="1.5"/><path d="M9,8.95A.05.05,0,1,1,8.95,9,.04951.04951,0,0,1,9,8.95" fill="none" stroke="#323232" stroke-linecap="round" stroke-linejoin="round" stroke-width="1.5"/><rect width="24" height="24" fill="none"/></svg>