<svg xmlns="http://www.w3.org/2000/svg" viewBox="0 0 24 24"><path d="M18,7V6a2,2,0,0,0-2-2H8A2,2,0,0,1,6,2H6" fill="none" stroke="#323232" stroke-linecap="round" stroke-linejoin="round" stroke-width="1.5"/><path d="M12,13.99h0" fill="none" stroke="#323232" stroke-linecap="round" stroke-linejoin="round" stroke-width="1.5"/><path d="M15,13.95a.05.05,0,1,1-.05.05.04951.04951,0,0,1,.05-.05" fill="none" stroke="#323232" stroke-linecap="round" stroke-linejoin="round" stroke-width="1.5"/><path d="M18,13.95a.05.05,0,1,1-.05.05.04951.04951,0,0,1,.05-.05" fill="none" stroke="#323232" stroke-linecap="round" stroke-linejoin="round" stroke-width="1.5"/><path d="M12,13.95a.05.05,0,1,1-.05.05.04951.04951,0,0,1,.05-.05" fill="none" stroke="#323232" stroke-linecap="round" stroke-linejoin="round" stroke-width="1.5"/><path d="M6,13.95a.05.05,0,1,1-.05.05A.04951.04951,0,0,1,6,13.95" fill="none" stroke="#323232" stroke-linecap="round" stroke-linejoin="round" stroke-width="1.5"/><path d="M9,13.95a.05.05,0,1,1-.05.05A.04951.04951,0,0,1,9,13.95" fill="none" stroke="#323232" stroke-linecap="round" stroke-linejoin="round" stroke-width="1.5"/><path d="M12,10.99h0" fill="none" stroke="#323232" stroke-linecap="round" stroke-linejoin="round" stroke-width="1.5"/><path d="M15,10.95a.05.05,0,1,1-.05.05.04951.04951,0,0,1,.05-.05" fill="none" stroke="#323232" stroke-linecap="round" stroke-linejoin="round" stroke-width="1.5"/><path d="M18,10.95a.05.05,0,1,1-.05.05.04951.04951,0,0,1,.05-.05" fill="none" stroke="#323232" stroke-linecap="round" stroke-linejoin="round" stroke-width="1.5"/><path d="M12,10.95a.05.05,0,1,1-.05.05.04951.04951,0,0,1,.05-.05" fill="none" stroke="#323232" stroke-linecap="round" stroke-linejoin="round" stroke-width="1.5"/><path d="M6,10.95a.05.05,0,1,1-.05.05A.04951.04951,0,0,1,6,10.95" fill="none" stroke="#323232" stroke-linecap="round" stroke-linejoin="round" stroke-width="1.5"/><path d="M9,10.95a.05.05,0,1,1-.05.05A.04951.04951,0,0,1,9,10.95" fill="none" stroke="#323232" stroke-linecap="round" stroke-linejoin="round" stroke-width="1.5"/><path d="M18,16.95a.05.05,0,1,1-.05.05.04951.04951,0,0,1,.05-.05" fill="none" stroke="#323232" stroke-linecap="round" stroke-linejoin="round" stroke-width="1.5"/><path d="M6,16.95a.05.05,0,1,1-.05.05A.04951.04951,0,0,1,6,16.95" fill="none" stroke="#323232" stroke-linecap="round" stroke-linejoin="round" stroke-width="1.5"/><path d="M9,17h6" fill="none" stroke="#323232" stroke-linecap="round" stroke-linejoin="round" stroke-width="1.5"/><rect x="2" y="7" width="20" height="14" rx="2" stroke-width="1.5" stroke="#323232" stroke-linecap="round" stroke-linejoin="round" fill="none"/><path d="M0,0H24V24H0Z" fill="none"/></svg>