<svg xmlns="http://www.w3.org/2000/svg" viewBox="0 0 24 24"><path d="M10.5,7V5a1,1,0,0,1,1-1h1a1,1,0,0,1,1,1V6.99984" fill="none" stroke="#323232" stroke-linecap="round" stroke-linejoin="round" stroke-width="1.5"/><path d="M12,2.25V4" fill="none" stroke="#323232" stroke-linecap="round" stroke-linejoin="round" stroke-width="1.5"/><path d="M20,21H4a1.99945,1.99945,0,0,1-2-2V9A1.99945,1.99945,0,0,1,4,7H20a1.99945,1.99945,0,0,1,2,2V19A1.99945,1.99945,0,0,1,20,21Z" fill="none" stroke="#323232" stroke-linecap="round" stroke-linejoin="round" stroke-width="1.5"/><path d="M12,13.99h0" fill="none" stroke="#323232" stroke-linecap="round" stroke-linejoin="round" stroke-width="1.5"/><path d="M9,17h6" fill="none" stroke="#323232" stroke-linecap="round" stroke-linejoin="round" stroke-width="1.5"/><path d="M15,13.95a.05.05,0,1,1-.05.05.04951.04951,0,0,1,.05-.05" fill="none" stroke="#323232" stroke-linecap="round" stroke-linejoin="round" stroke-width="1.5"/><path d="M18,13.95a.05.05,0,1,1-.05.05.04951.04951,0,0,1,.05-.05" fill="none" stroke="#323232" stroke-linecap="round" stroke-linejoin="round" stroke-width="1.5"/><path d="M12,13.95a.05.05,0,1,1-.05.05.04951.04951,0,0,1,.05-.05" fill="none" stroke="#323232" stroke-linecap="round" stroke-linejoin="round" stroke-width="1.5"/><path d="M6,13.95a.05.05,0,1,1-.05.05A.04951.04951,0,0,1,6,13.95" fill="none" stroke="#323232" stroke-linecap="round" stroke-linejoin="round" stroke-width="1.5"/><path d="M9,13.95a.05.05,0,1,1-.05.05A.04951.04951,0,0,1,9,13.95" fill="none" stroke="#323232" stroke-linecap="round" stroke-linejoin="round" stroke-width="1.5"/><path d="M18,16.95a.05.05,0,1,1-.05.05.04951.04951,0,0,1,.05-.05" fill="none" stroke="#323232" stroke-linecap="round" stroke-linejoin="round" stroke-width="1.5"/><path d="M6,16.95a.05.05,0,1,1-.05.05A.04951.04951,0,0,1,6,16.95" fill="none" stroke="#323232" stroke-linecap="round" stroke-linejoin="round" stroke-width="1.5"/><path d="M12,10.99h0" fill="none" stroke="#323232" stroke-linecap="round" stroke-linejoin="round" stroke-width="1.5"/><path d="M12,10.95a.05.05,0,1,1-.05.05.04951.04951,0,0,1,.05-.05" fill="none" stroke="#323232" stroke-linecap="round" stroke-linejoin="round" stroke-width="1.5"/><path d="M6,10.95a.05.05,0,1,1-.05.05A.04951.04951,0,0,1,6,10.95" fill="none" stroke="#323232" stroke-linecap="round" stroke-linejoin="round" stroke-width="1.5"/><path d="M9,10.95a.05.05,0,1,1-.05.05A.04951.04951,0,0,1,9,10.95" fill="none" stroke="#323232" stroke-linecap="round" stroke-linejoin="round" stroke-width="1.5"/><line x1="18" y1="11" x2="15" y2="11" fill="none" stroke="#323232" stroke-linecap="round" stroke-linejoin="round" stroke-width="1.5"/><rect width="24" height="24" fill="none"/></svg>