<?xml version="1.0" encoding="UTF-8"?><svg version="1.1" viewBox="0 0 24 24" xmlns="http://www.w3.org/2000/svg" xmlns:xlink="http://www.w3.org/1999/xlink"><!--Generated by IJSVG (https://github.com/iconjar/IJSVG)--><g fill="none"><path d="M0,0h24v24h-24Z"></path><path stroke="#323232" stroke-linecap="round" stroke-linejoin="round" stroke-width="1.5" d="M20,21h-16c-1.105,0 -2,-0.895 -2,-2v-6c0,-1.105 0.895,-2 2,-2h16c1.105,0 2,0.895 2,2v6c0,1.105 -0.895,2 -2,2Z"></path><path stroke="#323232" stroke-linecap="round" stroke-linejoin="round" stroke-width="1.5" d="M12,14.49v0"></path><path stroke="#323232" stroke-linecap="round" stroke-linejoin="round" stroke-width="1.5" d="M9,17.5h6"></path><path stroke="#323232" stroke-linecap="round" stroke-linejoin="round" stroke-width="1.5" d="M12,11v-1.5c0,-1.38 1.119,-2.5 2.5,-2.5v0c1.381,0 2.5,-1.119 2.5,-2.5v-1.5"></path><path stroke="#323232" stroke-linecap="round" stroke-linejoin="round" stroke-width="1.5" d="M15,14.445c0.028,0 0.05,0.022 0.05,0.05c0,0.028 -0.022,0.05 -0.05,0.05c-0.028,0 -0.05,-0.022 -0.05,-0.05c0,-0.028 0.022,-0.05 0.05,-0.05"></path><path stroke="#323232" stroke-linecap="round" stroke-linejoin="round" stroke-width="1.5" d="M18,14.445c0.028,0 0.05,0.022 0.05,0.05c0,0.028 -0.022,0.05 -0.05,0.05c-0.028,0 -0.05,-0.022 -0.05,-0.05c0,-0.028 0.022,-0.05 0.05,-0.05"></path><path stroke="#323232" stroke-linecap="round" stroke-linejoin="round" stroke-width="1.5" d="M12,14.45c0.028,0 0.05,0.022 0.05,0.05c0,0.028 -0.022,0.05 -0.05,0.05c-0.028,0 -0.05,-0.022 -0.05,-0.05c0,-0.028 0.022,-0.05 0.05,-0.05"></path><path stroke="#323232" stroke-linecap="round" stroke-linejoin="round" stroke-width="1.5" d="M6,14.45c0.028,0 0.05,0.022 0.05,0.05c0,0.028 -0.022,0.05 -0.05,0.05c-0.028,0 -0.05,-0.022 -0.05,-0.05c0,-0.028 0.022,-0.05 0.05,-0.05"></path><path stroke="#323232" stroke-linecap="round" stroke-linejoin="round" stroke-width="1.5" d="M9,14.45c0.028,0 0.05,0.022 0.05,0.05c0,0.028 -0.022,0.05 -0.05,0.05c-0.028,0 -0.05,-0.022 -0.05,-0.05c0,-0.028 0.022,-0.05 0.05,-0.05"></path><path stroke="#323232" stroke-linecap="round" stroke-linejoin="round" stroke-width="1.5" d="M18,17.45c0.028,0 0.05,0.022 0.05,0.05c0,0.028 -0.022,0.05 -0.05,0.05c-0.028,0 -0.05,-0.022 -0.05,-0.05c0,-0.028 0.022,-0.05 0.05,-0.05"></path><path stroke="#323232" stroke-linecap="round" stroke-linejoin="round" stroke-width="1.5" d="M6,17.445c0.028,0 0.05,0.022 0.05,0.05c0,0.028 -0.022,0.05 -0.05,0.05c-0.028,0 -0.05,-0.022 -0.05,-0.05c0,-0.028 0.022,-0.05 0.05,-0.05"></path></g></svg>