<svg xmlns="http://www.w3.org/2000/svg" viewBox="0 0 24 24"><rect width="24" height="24" fill="none"/><path d="M16.5,14h2.071a2,2,0,0,1,1.9799,1.71716l.42857,3A2,2,0,0,1,18.99962,21H5.00038a2,2,0,0,1-1.9799-2.28284l.42857-3A2,2,0,0,1,5.429,14H7.5" fill="none" stroke="#323232" stroke-linecap="round" stroke-linejoin="round" stroke-width="1.5"/><rect x="7.5" y="5" width="9" height="13" rx="2" stroke-width="1.5" stroke="#323232" stroke-linecap="round" stroke-linejoin="round" fill="none"/><line x1="16.5" y1="11" x2="7.5" y2="11" fill="none" stroke="#323232" stroke-linecap="round" stroke-linejoin="round" stroke-width="1.5"/><path d="M9,5.063V3.5A1.5,1.5,0,0,1,10.5,2h0A1.5,1.5,0,0,1,12,3.5V5" fill="none" stroke="#323232" stroke-linecap="round" stroke-linejoin="round" stroke-width="1.5"/></svg>