<?xml version="1.0" encoding="UTF-8"?><svg version="1.1" viewBox="0 0 24 24" xmlns="http://www.w3.org/2000/svg" xmlns:xlink="http://www.w3.org/1999/xlink"><!--Generated by IJSVG (https://github.com/iconjar/IJSVG)--><g fill="none"><path d="M0,0h24v24h-24Z"></path><path stroke="#323232" stroke-linecap="round" stroke-linejoin="round" stroke-width="1.5" d="M20,10.5v-5.5c0,-1.105 -0.895,-2 -2,-2h-13c-1.105,0 -2,0.895 -2,2v10"></path><path stroke="#323232" stroke-linecap="round" stroke-linejoin="round" stroke-width="1.5" d="M15,18h-12c-0.552,0 -1,-0.448 -1,-1v-1c0,-0.552 0.448,-1 1,-1h12"></path><path stroke="#323232" stroke-linecap="round" stroke-linejoin="round" stroke-width="1.5" d="M21,21h-5c-0.552,0 -1,-0.448 -1,-1v-8.5c0,-0.552 0.448,-1 1,-1h5c0.552,0 1,0.448 1,1v8.5c0,0.552 -0.448,1 -1,1Z"></path><path stroke="#323232" stroke-linecap="round" stroke-linejoin="round" stroke-width="1.5" d="M15,18h7"></path></g></svg>