<svg xmlns="http://www.w3.org/2000/svg" viewBox="0 0 24 24"><rect x="3.5" y="11" width="17" height="10" rx="1.5" stroke-width="1.5" stroke="#323232" stroke-linecap="round" stroke-linejoin="round" fill="none"/><path d="M3.50074,3H20.49926a1.5,1.5,0,0,1,1.45521,1.8638l-1.34468,5.37874A1,1,0,0,1,19.63965,11H4.36035a1,1,0,0,1-.97014-.75746L2.04553,4.8638A1.5,1.5,0,0,1,3.50074,3Z" fill="none" stroke="#323232" stroke-linecap="round" stroke-linejoin="round" stroke-width="1.5"/><path d="M9.5,17h5a.5.5,0,0,1,.5.5V21a0,0,0,0,1,0,0H9a0,0,0,0,1,0,0V17.5A.5.5,0,0,1,9.5,17Z" fill="none" stroke="#323232" stroke-linecap="round" stroke-linejoin="round" stroke-width="1.5"/><rect width="24" height="24" fill="none"/></svg>