<svg xmlns="http://www.w3.org/2000/svg" viewBox="0 0 24 24"><rect width="24" height="24" fill="none"/><path d="M19.49854,21H4.50146a2,2,0,0,1-1.905-2.60894L4,14H20l1.40359,4.39106A2,2,0,0,1,19.49854,21Z" fill="none" stroke="#323232" stroke-linecap="round" stroke-linejoin="round" stroke-width="1.5"/><path d="M4,14V5A2,2,0,0,1,6,3H18a2,2,0,0,1,2,2v9" fill="none" stroke="#323232" stroke-linecap="round" stroke-linejoin="round" stroke-width="1.5"/><path d="M10.32037,18a1,1,0,0,0-.95252.69553l-.31965,1A1,1,0,0,0,10.00072,21h3.99856a1,1,0,0,0,.95252-1.30447l-.31965-1A1,1,0,0,0,13.67963,18Z" fill="none" stroke="#323232" stroke-linecap="round" stroke-linejoin="round" stroke-width="1.5"/></svg>