<svg xmlns="http://www.w3.org/2000/svg" viewBox="0 0 24 24"><rect width="24" height="24" fill="none"/><path d="M3.50074,3H20.49926a1.5,1.5,0,0,1,1.45521,1.8638l-1.34468,5.37874A1,1,0,0,1,19.63965,11H4.36035a1,1,0,0,1-.97014-.75746L2.04553,4.8638A1.5,1.5,0,0,1,3.50074,3Z" fill="none" stroke="#323232" stroke-linecap="round" stroke-linejoin="round" stroke-width="1.5"/><rect x="3.5" y="11" width="17" height="10" rx="1.5" stroke-width="1.5" stroke="#323232" stroke-linecap="round" stroke-linejoin="round" fill="none"/><path d="M10.5,17.49h0" fill="none" stroke="#323232" stroke-linecap="round" stroke-linejoin="round" stroke-width="1.5"/><path d="M13.5,17.45a.05.05,0,1,1-.05.05.04951.04951,0,0,1,.05-.05" fill="none" stroke="#323232" stroke-linecap="round" stroke-linejoin="round" stroke-width="1.5"/><path d="M16.5,17.45a.05.05,0,1,1-.05.05.04951.04951,0,0,1,.05-.05" fill="none" stroke="#323232" stroke-linecap="round" stroke-linejoin="round" stroke-width="1.5"/><path d="M10.5,17.45a.05.05,0,1,1-.05.05.04951.04951,0,0,1,.05-.05" fill="none" stroke="#323232" stroke-linecap="round" stroke-linejoin="round" stroke-width="1.5"/><path d="M7.5,17.45a.05.05,0,1,1-.05.05.04951.04951,0,0,1,.05-.05" fill="none" stroke="#323232" stroke-linecap="round" stroke-linejoin="round" stroke-width="1.5"/><path d="M10.5,14.49h0" fill="none" stroke="#323232" stroke-linecap="round" stroke-linejoin="round" stroke-width="1.5"/><path d="M10.5,14.45a.05.05,0,1,1-.05.05.04951.04951,0,0,1,.05-.05" fill="none" stroke="#323232" stroke-linecap="round" stroke-linejoin="round" stroke-width="1.5"/><path d="M7.5,14.45a.05.05,0,1,1-.05.05.04951.04951,0,0,1,.05-.05" fill="none" stroke="#323232" stroke-linecap="round" stroke-linejoin="round" stroke-width="1.5"/><line x1="16.5" y1="14.5" x2="13.5" y2="14.5" fill="none" stroke="#323232" stroke-linecap="round" stroke-linejoin="round" stroke-width="1.5"/></svg>