<?xml version="1.0" encoding="UTF-8"?><svg version="1.1" viewBox="0 0 24 24" xmlns="http://www.w3.org/2000/svg" xmlns:xlink="http://www.w3.org/1999/xlink"><g fill="none"><path d="M0 0h24v24h-24v-24Z"></path><line x1="12" x2="12" y1="17" y2="21" stroke="#323232" stroke-linecap="round" stroke-linejoin="round" stroke-width="1.5"></line><line x1="8" x2="8" y1="17" y2="21" stroke="#323232" stroke-linecap="round" stroke-linejoin="round" stroke-width="1.5"></line><path stroke="#323232" stroke-linecap="round" stroke-linejoin="round" stroke-width="1.5" d="M17.083 17h-14.166c-.507 0-.917-.41-.917-.917v-8.166c0-.507.41-.917.917-.917h14.167c.506 0 .916.41.916.917v8.167c0 .506-.41.916-.917.916Z"></path><path stroke="#323232" stroke-linecap="round" stroke-linejoin="round" stroke-width="1.5" d="M17 21h4c.552 0 1-.448 1-1v-16c0-.552-.448-1-1-1h-8c-.552 0-1 .448-1 1v3"></path><line x1="6.5" x2="13.5" y1="21" y2="21" stroke="#323232" stroke-linecap="round" stroke-linejoin="round" stroke-width="1.5"></line></g></svg>