<svg xmlns="http://www.w3.org/2000/svg" viewBox="0 0 24 24"><path d="M5.001,11H18.99918a1.99984,1.99984,0,0,0,1.94014-2.48482L19.93938,4.515A2,2,0,0,0,17.99908,3H6.00088a2,2,0,0,0-1.9403,1.515l-.99989,4A2,2,0,0,0,5.001,11Z" fill="none" stroke="#323232" stroke-linecap="round" stroke-linejoin="round" stroke-width="1.5"/><path d="M21,9V19a2,2,0,0,1-2,2H5a2,2,0,0,1-2-2V9" fill="none" stroke="#323232" stroke-linecap="round" stroke-linejoin="round" stroke-width="1.5"/><line x1="6" y1="18" x2="8" y2="18" fill="none" stroke="#323232" stroke-linecap="round" stroke-linejoin="round" stroke-width="1.5"/><path d="M18.005,18,18,18.005,17.995,18,18,17.995l.005.005" fill="none" stroke="#323232" stroke-linecap="round" stroke-linejoin="round" stroke-width="1.5"/><path d="M15.505,18l-.005.005L15.495,18l.005-.005.005.005" fill="none" stroke="#323232" stroke-linecap="round" stroke-linejoin="round" stroke-width="1.5"/><rect width="24" height="24" fill="none"/></svg>