<?xml version="1.0" encoding="UTF-8"?><svg version="1.1" viewBox="0 0 24 24" xmlns="http://www.w3.org/2000/svg" xmlns:xlink="http://www.w3.org/1999/xlink"><g fill="none"><rect width="24" height="24"></rect><path stroke="#323232" stroke-linecap="round" stroke-linejoin="round" stroke-width="1.5" d="M20.883 7.092l-1.84818e-08-8.4342e-08c-.616501-2.81341-3.39699-4.59436-6.2104-3.97786 -2.23089.488853-3.88416 2.37241-4.0796 4.64786l-1.17813e-08 1.91971e-07c-.0176341.28734.0920937.567877.3.767l4.579 4.579 4.39771e-08 4.59966e-08c.198736.207863.478958.31761.766.3l-6.84848e-08 5.9686e-09c2.87149-.250256 4.99642-2.78093 4.74616-5.65242 -.0194467-.223135-.0532373-.444786-.101162-.663579Z"></path><path stroke="#323232" stroke-linecap="round" stroke-linejoin="round" stroke-width="1.5" d="M15.484 13.123l-8.614 6.513 -4.12957e-09 3.10831e-09c-.473568.356453-1.13718.310422-1.557-.108l-.84-.839 3.58905e-08 3.59698e-08c-.419103-.420029-.464745-1.08462-.107-1.558l6.512-8.614"></path><line x1="4.89" x2="3" y1="19.11" y2="21" stroke="#323232" stroke-linecap="round" stroke-linejoin="round" stroke-width="1.5"></line></g></svg>