<?xml version="1.0" encoding="UTF-8"?><svg version="1.1" viewBox="0 0 24 24" xmlns="http://www.w3.org/2000/svg" xmlns:xlink="http://www.w3.org/1999/xlink"><g stroke-linecap="round" stroke-width="1.5" stroke="#323232" fill="none" stroke-linejoin="round"><line x1="15.57" x2="8.43" y1="11" y2="11"></line><path d="M12 17v0l-4.21526e-08-1.29248e-10c-1.9697-.00603957-3.56496-1.6013-3.571-3.571v-2.857l-3.34117e-08 1.19954e-05c.00548414-1.97009 1.6009-3.56596 3.57099-3.57201v0l1.56011e-07 4.78369e-10c1.9697.00603963 3.56496 1.6013 3.571 3.571v2.857l3.44003e-08-1.23504e-05c-.00548401 1.97009-1.60089 3.56596-3.57098 3.57201Z"></path><path d="M12 11v-6.332l-4.70633e-09-3.1296e-06c-.00110312-.732977-.595026-1.3269-1.328-1.328v0l5.21101e-09-3.28626e-13c-1.84731.000116135-3.6193.732215-4.928 2.036v0l-5.15326e-07 5.14386e-07c-1.75873 1.75552-2.74611 4.13905-2.744 6.624l-1.38155e-07.00157507c-7.50034e-07 4.96725 4.02675 8.994 8.994 8.994 4.96725 7.50034e-07 8.994-4.02675 8.994-8.994 5.15467e-07-3.41378-1.93269-6.53329-4.98941-8.05328"></path></g><rect width="24" height="24" fill="none"></rect></svg>