<svg xmlns="http://www.w3.org/2000/svg" viewBox="0 0 24 24"><rect width="24" height="24" fill="none"/><path d="M17.5,3H21a1,1,0,0,1,1,1V20a1,1,0,0,1-1,1H17.5a4,4,0,0,1-4-4V7A4,4,0,0,1,17.5,3Z" transform="translate(35.5 24) rotate(180)" fill="none" stroke="#323232" stroke-linecap="round" stroke-linejoin="round" stroke-width="1.5"/><line x1="17.75" y1="11" x2="17.75" y2="8" fill="none" stroke="#323232" stroke-linecap="round" stroke-linejoin="round" stroke-width="1.5"/><line x1="16.25" y1="9.5" x2="19.25" y2="9.5" fill="none" stroke="#323232" stroke-linecap="round" stroke-linejoin="round" stroke-width="1.5"/><path d="M6,3H9.5a1,1,0,0,1,1,1V20a1,1,0,0,1-1,1H6a4,4,0,0,1-4-4V7A4,4,0,0,1,6,3Z" fill="none" stroke="#323232" stroke-linecap="round" stroke-linejoin="round" stroke-width="1.5"/><line x1="6.25" y1="13" x2="6.25" y2="16" fill="none" stroke="#323232" stroke-linecap="round" stroke-linejoin="round" stroke-width="1.5"/><line x1="7.75" y1="14.5" x2="4.75" y2="14.5" fill="none" stroke="#323232" stroke-linecap="round" stroke-linejoin="round" stroke-width="1.5"/><path d="M17.32262,15.82383l.00044-.00044a.24945.24945,0,1,1-.00044.00044" fill="none" stroke="#323232" stroke-linecap="round" stroke-linejoin="round" stroke-width="1.5"/><path d="M6.32262,7.82383l.00044-.00044a.24945.24945,0,1,1-.00044.00044" fill="none" stroke="#323232" stroke-linecap="round" stroke-linejoin="round" stroke-width="1.5"/></svg>