<?xml version="1.0" encoding="UTF-8"?><svg version="1.1" viewBox="0 0 24 24" xmlns="http://www.w3.org/2000/svg" xmlns:xlink="http://www.w3.org/1999/xlink"><g stroke-linecap="round" stroke-width="1.5" stroke="#323232" fill="none" stroke-linejoin="round"><path d="M6 19h-1c-1.105 0-2-.895-2-2v-9.814c0-1.105.895-2 2-2h1"></path><path d="M12.263 19h6.737c1.105 0 2-.895 2-2v-9.814c0-1.105-.895-2-2-2h-6.737"></path><path d="M10.263 21h-2.263c-1.105 0-2-.895-2-2v-14c0-1.105.895-2 2-2h2.263c1.105 0 2 .895 2 2v14c0 1.105-.895 2-2 2Z"></path><line x1="15" x2="18" y1="9" y2="9"></line><path d="M15.05 12.4c.028 0 .05.022.05.05 0 .028-.022.05-.05.05 -.028 0-.05-.022-.05-.05 0-.027.022-.05.05-.05"></path><path d="M15.05 14.9c.028 0 .05.022.05.05 0 .028-.022.05-.05.05 -.028 0-.05-.022-.05-.05 0-.027.022-.05.05-.05"></path><path d="M17.95 12.4c.028 0 .05.022.05.05 0 .028-.022.05-.05.05 -.028 0-.05-.022-.05-.05 -.001-.028.022-.05.05-.05"></path><path d="M17.95 14.9c.028 0 .05.022.05.05 0 .028-.022.05-.05.05 -.028 0-.05-.022-.05-.05 -.001-.028.022-.05.05-.05"></path></g><rect width="24" height="24" fill="none"></rect></svg>