<svg xmlns="http://www.w3.org/2000/svg" viewBox="0 0 24 24"><path d="M18,20h2a2,2,0,0,0,2-2V10a3,3,0,0,0-3-3H5a3,3,0,0,0-3,3v8a2,2,0,0,0,2,2H6" fill="none" stroke="#323232" stroke-linecap="round" stroke-linejoin="round" stroke-width="1.5"/><path d="M6,7H6V3A1,1,0,0,1,7,2H17a1,1,0,0,1,1,1V7h0" fill="none" stroke="#323232" stroke-linecap="round" stroke-linejoin="round" stroke-width="1.5"/><path d="M6,16H18a0,0,0,0,1,0,0v5a1,1,0,0,1-1,1H7a1,1,0,0,1-1-1V16A0,0,0,0,1,6,16Z" fill="none" stroke="#323232" stroke-linecap="round" stroke-linejoin="round" stroke-width="1.5"/><path d="M18,10l-.005.005L17.99,10l.005-.005L18,10" fill="none" stroke="#323232" stroke-linecap="round" stroke-linejoin="round" stroke-width="1.5"/><rect width="24" height="24" fill="none"/></svg>