<svg xmlns="http://www.w3.org/2000/svg" viewBox="0 0 24 24"><rect width="24" height="24" fill="none"/><line x1="17.5" y1="18" x2="6.5" y2="18" fill="none" stroke="#323232" stroke-linecap="round" stroke-linejoin="round" stroke-width="1.5"/><path d="M8,3h8a2,2,0,0,1,2,2v6a1,1,0,0,1-1,1H7a1,1,0,0,1-1-1V5A2,2,0,0,1,8,3Z" fill="none" stroke="#323232" stroke-linecap="round" stroke-linejoin="round" stroke-width="1.5"/><path d="M6.505,15.005,6.5,15l.005-.005L6.51,15l-.005.005" fill="none" stroke="#323232" stroke-linecap="round" stroke-linejoin="round" stroke-width="1.5"/><path d="M18,9h1a2,2,0,0,1,2,2v8a2,2,0,0,1-2,2H5a2,2,0,0,1-2-2V11A2,2,0,0,1,5,9H6" fill="none" stroke="#323232" stroke-linecap="round" stroke-linejoin="round" stroke-width="1.5"/></svg>