<?xml version="1.0" encoding="UTF-8"?><svg version="1.1" viewBox="0 0 24 24" xmlns="http://www.w3.org/2000/svg" xmlns:xlink="http://www.w3.org/1999/xlink"><!--Generated by IJSVG (https://github.com/iconjar/IJSVG)--><g stroke-linecap="round" stroke-width="1.5" stroke="#323232" fill="none" stroke-linejoin="round"><path d="M16.814,8v-4c0,-0.552 -0.448,-1 -1,-1h-7.628c-0.552,0 -1,0.448 -1,1v4"></path><path d="M17,11h1"></path><path d="M7,17h-3c-0.552,0 -1,-0.448 -1,-1v-7c0,-0.552 0.448,-1 1,-1h16c0.552,0 1,0.448 1,1v7c0,0.552 -0.448,1 -1,1h-3"></path><path d="M16,21h-8c-0.552,0 -1,-0.448 -1,-1v-6h10v6c0,0.552 -0.448,1 -1,1Z"></path></g><path fill="none" d="M0,0h24v24h-24Z"></path></svg>