<svg xmlns="http://www.w3.org/2000/svg" viewBox="0 0 24 24"><line x1="11" y1="18" x2="13" y2="18" fill="none" stroke="#323232" stroke-linecap="round" stroke-linejoin="round" stroke-width="1.5"/><rect width="24" height="24" fill="none"/><path d="M21,13.5a27.75,27.75,0,0,1-18,0" fill="none" stroke="#323232" stroke-linecap="round" stroke-linejoin="round" stroke-width="1.5"/><path d="M5,8V4A2,2,0,0,1,7,2H17a2,2,0,0,1,2,2V8" fill="none" stroke="#323232" stroke-linecap="round" stroke-linejoin="round" stroke-width="1.5"/><path d="M4.88428,10.87394a29.405,29.405,0,0,1,14.23146,0A2.52,2.52,0,0,1,21,13.29711l0,4.40576A2.52,2.52,0,0,1,19.11575,20.126a29.40486,29.40486,0,0,1-14.23148,0A2.52,2.52,0,0,1,3,17.70289c0-1.31478,0-3.091,0-4.4058A2.52,2.52,0,0,1,4.88428,10.87394Z" fill="none" stroke="#323232" stroke-linecap="round" stroke-linejoin="round" stroke-width="1.5"/></svg>