<svg xmlns="http://www.w3.org/2000/svg" viewBox="0 0 24 24"><path d="M21.62985,13.43492a9.07293,9.07293,0,0,1,0,5.13016A2.0188,2.0188,0,0,1,19.7039,20H4.2961a2.0188,2.0188,0,0,1-1.92595-1.43492,9.07293,9.07293,0,0,1,0-5.13016A2.01881,2.01881,0,0,1,4.2961,12H19.7039A2.01881,2.01881,0,0,1,21.62985,13.43492Z" fill="none" stroke="#323232" stroke-linecap="round" stroke-linejoin="round" stroke-width="1.5"/><path d="M12,8.5a3,3,0,0,1,6,0" fill="none" stroke="#323232" stroke-linecap="round" stroke-linejoin="round" stroke-width="1.5"/><path d="M9,8.5a6,6,0,0,1,12,0" fill="none" stroke="#323232" stroke-linecap="round" stroke-linejoin="round" stroke-width="1.5"/><line x1="15" y1="8.5" x2="15" y2="12" fill="none" stroke="#323232" stroke-linecap="round" stroke-linejoin="round" stroke-width="1.5"/><line x1="5" y1="21.00002" x2="5" y2="20.00002" fill="none" stroke="#323232" stroke-linecap="round" stroke-linejoin="round" stroke-width="1.5"/><line x1="19" y1="21.00002" x2="19" y2="20.00002" fill="none" stroke="#323232" stroke-linecap="round" stroke-linejoin="round" stroke-width="1.5"/><line x1="5.5" y1="16" x2="10.83333" y2="16" fill="none" stroke="#323232" stroke-linecap="round" stroke-linejoin="round" stroke-width="1.5"/><line x1="17.5" y1="16" x2="18.5" y2="16" fill="none" stroke="#323232" stroke-linecap="round" stroke-linejoin="round" stroke-width="1.5"/><path d="M0,0H24V24H0Z" fill="none"/></svg>