<svg xmlns="http://www.w3.org/2000/svg" viewBox="0 0 24 24"><path d="M21.62978,13.43481a9.072,9.072,0,0,1,0,5.13036A2.012,2.012,0,0,1,19.70948,20C16.394,19.99995,7.606,20,4.29052,20a2.012,2.012,0,0,1-1.92036-1.4349,9.07222,9.07222,0,0,1,.00006-5.13026A2.012,2.012,0,0,1,4.29055,12c3.31546.00008,12.10343.00007,15.4189,0A2.012,2.012,0,0,1,21.62978,13.43481Z" fill="none" stroke="#323232" stroke-linecap="round" stroke-linejoin="round" stroke-width="1.5"/><line x1="11" y1="16" x2="6" y2="16" fill="none" stroke="#323232" stroke-linecap="round" stroke-linejoin="round" stroke-width="1.5"/><path d="M4,12.02118V4.5A1.5,1.5,0,0,1,5.5,3h0A1.5,1.5,0,0,1,7,4.5V12" fill="none" stroke="#323232" stroke-linecap="round" stroke-linejoin="round" stroke-width="1.5"/><path d="M17,12V4.5A1.5,1.5,0,0,1,18.5,3h0A1.5,1.5,0,0,1,20,4.5v7.52114" fill="none" stroke="#323232" stroke-linecap="round" stroke-linejoin="round" stroke-width="1.5"/><line x1="4" y1="21" x2="4" y2="20" fill="none" stroke="#323232" stroke-linecap="round" stroke-linejoin="round" stroke-width="1.5"/><line x1="19" y1="21" x2="19" y2="20" fill="none" stroke="#323232" stroke-linecap="round" stroke-linejoin="round" stroke-width="1.5"/><path d="M18.005,16,18,16.005,17.995,16,18,15.995l.005.005" fill="none" stroke="#323232" stroke-linecap="round" stroke-linejoin="round" stroke-width="1.5"/><rect width="24" height="24" fill="none"/><rect width="24" height="24" fill="none"/></svg>