<svg xmlns="http://www.w3.org/2000/svg" viewBox="0 0 24 24"><rect width="24" height="24" fill="none"/><rect x="3" y="3" width="18" height="18" rx="4" stroke-width="1.5" stroke="#323232" stroke-linecap="round" stroke-linejoin="round" fill="none"/><path d="M6.999,12a4.97464,4.97464,0,0,0,.3716,1.87726l-.29964.29966a1.94775,1.94775,0,0,0-.00213,2.75329h0a1.946,1.946,0,0,0,2.75173,0l.30182-.30175a4.93026,4.93026,0,0,0,3.75528,0l.30182.30175a1.946,1.946,0,0,0,2.75173,0h0a1.94775,1.94775,0,0,0-.00213-2.75329l-.29964-.29966a4.9276,4.9276,0,0,0,0-3.75452l.29964-.29966a1.94775,1.94775,0,0,0,.00213-2.75329h0a1.946,1.946,0,0,0-2.75173,0l-.30182.30175a4.93026,4.93026,0,0,0-3.75528,0l-.30182-.30175a1.946,1.946,0,0,0-2.75173,0h0a1.94775,1.94775,0,0,0,.00213,2.75329l.29964.29966A4.97464,4.97464,0,0,0,6.999,12Z" fill="none" stroke="#323232" stroke-linecap="round" stroke-linejoin="round" stroke-width="1.5"/><circle cx="12" cy="12" r="2" fill="none" stroke="#323232" stroke-linecap="round" stroke-linejoin="round" stroke-width="1.5"/></svg>