<?xml version="1.0" encoding="UTF-8"?><svg version="1.1" viewBox="0 0 24 24" xmlns="http://www.w3.org/2000/svg" xmlns:xlink="http://www.w3.org/1999/xlink"><!--Generated by IJSVG (https://github.com/iconjar/IJSVG)--><g stroke-linecap="round" stroke-width="1.5" stroke="#323232" fill="none" stroke-linejoin="round"><path d="M8,6v-4m8,4v-4"></path><path d="M3,9h18"></path><path d="M3,6v13c0,1.105 0.895,2 2,2h14c1.105,0 2,-0.895 2,-2v-13c0,-1.105 -0.895,-2 -2,-2h-14c-1.105,0 -2,0.895 -2,2Z"></path><path d="M13.232,12.5c1.058,0 1.768,0.931 1.768,1.798c0,1.76 -2.946,3.202 -3,3.202"></path><path d="M10.768,12.5c-1.058,0 -1.768,0.931 -1.768,1.798c0,1.76 2.946,3.202 3,3.202"></path><path d="M12,13.035c0.23,-0.252 0.627,-0.535 1.232,-0.535"></path><path d="M12,13.035c-0.23,-0.252 -0.627,-0.535 -1.232,-0.535"></path></g><path fill="none" d="M0,0h24v24h-24Z"></path></svg>