<?xml version="1.0" encoding="UTF-8"?><svg version="1.1" viewBox="0 0 24 24" xmlns="http://www.w3.org/2000/svg" xmlns:xlink="http://www.w3.org/1999/xlink"><g fill="none"><path d="M0 24h24v-24h-24Z"></path><circle cx="18" cy="18" r="4" stroke="#323232" stroke-linecap="round" stroke-linejoin="round" stroke-width="1.5"></circle><path stroke="#323232" stroke-linecap="round" stroke-linejoin="round" stroke-width="1.5" d="M19.517 14.3l2.43002e-07-6.91356e-07c1.56161-4.44288-.774121-9.31048-5.217-10.8721 -4.44288-1.56161-9.31048.774121-10.8721 5.217 -1.56161 4.44288.774121 9.31048 5.217 10.8721 1.83015.643272 3.82494.643272 5.65509-4.86004e-07"></path><path stroke="#323232" stroke-linecap="round" stroke-linejoin="round" stroke-width="1.5" d="M11.5 7l-9.71267e-08 3.55271e-15c1.22718-5.36416e-08 2.222.994823 2.222 2.222 5.36416e-08 1.22718-.994823 2.222-2.222 2.222 -1.22718 5.36416e-08-2.222-.994823-2.222-2.222l2.13163e-14 2.38386e-07c-1.85299e-07-1.22718.994823-2.222 2.222-2.222 3.00994e-08-4.44089e-15 6.70273e-08-8.88178e-15 9.71267e-08-1.24345e-14"></path><path stroke="#323232" stroke-linecap="round" stroke-linejoin="round" stroke-width="1.5" d="M15.451 14.909l1.08089e-07 2.45978e-07c-.333184-.75823-1.08481-1.24621-1.913-1.242h-4.075l-7.43166e-08 1.45851e-10c-.865175.00169798-1.64234.529441-1.963 1.333"></path><circle cx="18" cy="18" r="4" stroke="#323232" stroke-linecap="round" stroke-linejoin="round" stroke-width="1.5"></circle><path stroke="#323232" stroke-linecap="round" stroke-linejoin="round" stroke-width="1.5" d="M19.473 17.264l-1.842 1.842 -1.104-1.106"></path></g></svg>