<?xml version="1.0" encoding="UTF-8"?><svg version="1.1" viewBox="0 0 24 24" xmlns="http://www.w3.org/2000/svg" xmlns:xlink="http://www.w3.org/1999/xlink"><!--Generated by IJSVG (https://github.com/iconjar/IJSVG)--><g fill="none"><path d="M0,0h24v24h-24Z"></path><path stroke="#323232" stroke-linecap="round" stroke-linejoin="round" stroke-width="1.5" d="M4,20v0c0,-2.485 2.015,-4.5 4.5,-4.5h2.583"></path><path stroke="#323232" stroke-linecap="round" stroke-linejoin="round" stroke-width="1.5" d="M17.497,21c0,0 2.497,-1.193 2.497,-2.983l0.006,-2.084l-1.821,-0.652c-0.438,-0.157 -0.916,-0.157 -1.353,0l-1.82,0.652l-0.006,2.083c0,1.79 2.497,2.984 2.497,2.984Z"></path><path stroke="#323232" stroke-linecap="round" stroke-linejoin="round" stroke-width="1.5" d="M15.0052,5.2448c1.65973,1.65973 1.65973,4.35068 0,6.01041c-1.65973,1.65973 -4.35068,1.65973 -6.01041,0c-1.65973,-1.65973 -1.65973,-4.35068 -1.77636e-15,-6.01041c1.65973,-1.65973 4.35068,-1.65973 6.01041,-1.77636e-15"></path></g></svg>