<svg xmlns="http://www.w3.org/2000/svg" viewBox="0 0 24 24"><rect x="3" y="7" width="14" height="14" rx="3" transform="translate(-4.00001 23.99999) rotate(-89.99996)" stroke-width="1.5" stroke="#323232" stroke-linecap="round" stroke-linejoin="round" fill="none"/><path d="M3,13H17" fill="none" stroke="#323232" stroke-linecap="round" stroke-linejoin="round" stroke-width="1.5"/><path d="M11,9.995,10.995,10l.005.005L11.005,10,11,9.995" fill="none" stroke="#323232" stroke-linecap="round" stroke-linejoin="round" stroke-width="1.5"/><path d="M8.5,9.995,8.495,10l.005.005L8.505,10,8.5,9.995" fill="none" stroke="#323232" stroke-linecap="round" stroke-linejoin="round" stroke-width="1.5"/><path d="M6,9.995,5.995,10,6,10.005,6.005,10,6,9.995" fill="none" stroke="#323232" stroke-linecap="round" stroke-linejoin="round" stroke-width="1.5"/><path d="M11,9.995,10.995,10l.005.005L11.005,10,11,9.995" fill="none" stroke="#323232" stroke-linecap="round" stroke-linejoin="round" stroke-width="1.5"/><path d="M8.5,9.995,8.495,10l.005.005L8.505,10,8.5,9.995" fill="none" stroke="#323232" stroke-linecap="round" stroke-linejoin="round" stroke-width="1.5"/><path d="M6,9.995,5.995,10,6,10.005,6.005,10,6,9.995" fill="none" stroke="#323232" stroke-linecap="round" stroke-linejoin="round" stroke-width="1.5"/><path d="M8,4a3.40346,3.40346,0,0,1,2.41428-1H18a3,3,0,0,1,3,3v7.58571A3.40346,3.40346,0,0,1,20,16" fill="none" stroke="#323232" stroke-linecap="round" stroke-linejoin="round" stroke-width="1.5"/><path d="M24,0V24H0V0Z" fill="none"/></svg>