<svg xmlns="http://www.w3.org/2000/svg" viewBox="0 0 24 24"><path d="M0,0H24V24H0Z" fill="none"/><path d="M11,21H6a3,3,0,0,1-3-3V6A3,3,0,0,1,6,3H18a3,3,0,0,1,3,3v6" fill="none" stroke="#323232" stroke-linecap="round" stroke-linejoin="round" stroke-width="1.5"/><path d="M3,9H21" fill="none" stroke="#323232" stroke-linecap="round" stroke-linejoin="round" stroke-width="1.5"/><path d="M11,5.995,10.995,6,11,6.005,11.005,6,11,5.995" fill="none" stroke="#323232" stroke-linecap="round" stroke-linejoin="round" stroke-width="1.5"/><path d="M8.5,5.995,8.495,6l.005.005L8.505,6,8.5,5.995" fill="none" stroke="#323232" stroke-linecap="round" stroke-linejoin="round" stroke-width="1.5"/><path d="M6,5.995,5.995,6,6,6.005,6.005,6,6,5.995" fill="none" stroke="#323232" stroke-linecap="round" stroke-linejoin="round" stroke-width="1.5"/><path d="M11,5.995,10.995,6,11,6.005,11.005,6,11,5.995" fill="none" stroke="#323232" stroke-linecap="round" stroke-linejoin="round" stroke-width="1.5"/><path d="M8.5,5.995,8.495,6l.005.005L8.505,6,8.5,5.995" fill="none" stroke="#323232" stroke-linecap="round" stroke-linejoin="round" stroke-width="1.5"/><path d="M6,5.995,5.995,6,6,6.005,6.005,6,6,5.995" fill="none" stroke="#323232" stroke-linecap="round" stroke-linejoin="round" stroke-width="1.5"/><line x1="15" y1="18" x2="15" y2="21" fill="none" stroke="#323232" stroke-linecap="round" stroke-linejoin="round" stroke-width="1.5"/><line x1="18" y1="21" x2="18" y2="17.91667" fill="none" stroke="#323232" stroke-linecap="round" stroke-linejoin="round" stroke-width="1.5"/><path d="M21,21V18a3,3,0,0,0-3-3h0a2.97334,2.97334,0,0,0-1.55444.44556" fill="none" stroke="#323232" stroke-linecap="round" stroke-linejoin="round" stroke-width="1.5"/></svg>