<svg xmlns="http://www.w3.org/2000/svg" viewBox="0 0 24 24"><rect x="2.99999" y="7" width="14" height="14" rx="3" transform="translate(-4.00003 23.99997) rotate(-89.9999)" stroke-width="1.5" stroke="#323232" stroke-linecap="round" stroke-linejoin="round" fill="none"/><path d="M3,13l14,0" fill="none" stroke="#323232" stroke-linecap="round" stroke-linejoin="round" stroke-width="1.5"/><path d="M11,9.995,10.995,10l.005.005L11.005,10,11,9.995" fill="none" stroke="#323232" stroke-linecap="round" stroke-linejoin="round" stroke-width="1.5"/><path d="M8.5,9.995,8.495,10l.005.005L8.505,10,8.5,9.995" fill="none" stroke="#323232" stroke-linecap="round" stroke-linejoin="round" stroke-width="1.5"/><path d="M6,9.995,5.995,10,6,10.005,6.005,10,6,9.995" fill="none" stroke="#323232" stroke-linecap="round" stroke-linejoin="round" stroke-width="1.5"/><path d="M11,9.995,10.995,10l.005.005L11.005,10,11,9.995" fill="none" stroke="#323232" stroke-linecap="round" stroke-linejoin="round" stroke-width="1.5"/><path d="M8.5,9.995,8.495,10l.005.005L8.505,10,8.5,9.995" fill="none" stroke="#323232" stroke-linecap="round" stroke-linejoin="round" stroke-width="1.5"/><path d="M6,9.995,5.995,10,6,10.005,6.005,10,6,9.995" fill="none" stroke="#323232" stroke-linecap="round" stroke-linejoin="round" stroke-width="1.5"/><path d="M10,3h8a3,3,0,0,1,3,3v8" fill="none" stroke="#323232" stroke-linecap="round" stroke-linejoin="round" stroke-width="1.5"/><path d="M0,24V0H24V24Z" fill="none"/></svg>