<svg xmlns="http://www.w3.org/2000/svg" viewBox="0 0 24 24"><path d="M3,9H21" fill="none" stroke="#323232" stroke-linecap="round" stroke-linejoin="round" stroke-width="1.5"/><path d="M11,5.995,10.995,6,11,6.005,11.005,6,11,5.995" fill="none" stroke="#323232" stroke-linecap="round" stroke-linejoin="round" stroke-width="1.5"/><path d="M8.5,5.995,8.495,6l.005.005L8.505,6,8.5,5.995" fill="none" stroke="#323232" stroke-linecap="round" stroke-linejoin="round" stroke-width="1.5"/><path d="M6,5.995,5.995,6,6,6.005,6.005,6,6,5.995" fill="none" stroke="#323232" stroke-linecap="round" stroke-linejoin="round" stroke-width="1.5"/><path d="M11,5.995,10.995,6,11,6.005,11.005,6,11,5.995" fill="none" stroke="#323232" stroke-linecap="round" stroke-linejoin="round" stroke-width="1.5"/><path d="M8.5,5.995,8.495,6l.005.005L8.505,6,8.5,5.995" fill="none" stroke="#323232" stroke-linecap="round" stroke-linejoin="round" stroke-width="1.5"/><path d="M6,5.995,5.995,6,6,6.005,6.005,6,6,5.995" fill="none" stroke="#323232" stroke-linecap="round" stroke-linejoin="round" stroke-width="1.5"/><rect x="3" y="3" width="18" height="18" rx="3" stroke-width="1.5" stroke="#323232" stroke-linecap="round" stroke-linejoin="round" fill="none"/><line x1="15.5" y1="13.5" x2="8.5" y2="13.5" fill="none" stroke="#323232" stroke-linecap="round" stroke-linejoin="round" stroke-width="1.5"/><line x1="14.25" y1="16.5" x2="9.75" y2="16.5" fill="none" stroke="#323232" stroke-linecap="round" stroke-linejoin="round" stroke-width="1.5"/><path d="M0,24H24V0H0Z" fill="none"/></svg>