<svg xmlns="http://www.w3.org/2000/svg" viewBox="0 0 24 24"><path d="M3,9H13" fill="none" stroke="#323232" stroke-linecap="round" stroke-linejoin="round" stroke-width="1.5"/><path d="M11,5.995,10.995,6,11,6.005,11.005,6,11,5.995" fill="none" stroke="#323232" stroke-linecap="round" stroke-linejoin="round" stroke-width="1.5"/><path d="M8.5,5.995,8.495,6l.005.005L8.505,6,8.5,5.995" fill="none" stroke="#323232" stroke-linecap="round" stroke-linejoin="round" stroke-width="1.5"/><path d="M6,5.995,5.995,6,6,6.005,6.005,6,6,5.995" fill="none" stroke="#323232" stroke-linecap="round" stroke-linejoin="round" stroke-width="1.5"/><path d="M11,5.995,10.995,6,11,6.005,11.005,6,11,5.995" fill="none" stroke="#323232" stroke-linecap="round" stroke-linejoin="round" stroke-width="1.5"/><path d="M8.5,5.995,8.495,6l.005.005L8.505,6,8.5,5.995" fill="none" stroke="#323232" stroke-linecap="round" stroke-linejoin="round" stroke-width="1.5"/><path d="M6,5.995,5.995,6,6,6.005,6.005,6,6,5.995" fill="none" stroke="#323232" stroke-linecap="round" stroke-linejoin="round" stroke-width="1.5"/><path d="M21,12v6a3,3,0,0,1-3,3H6a3,3,0,0,1-3-3V6A3,3,0,0,1,6,3h6" fill="none" stroke="#323232" stroke-linecap="round" stroke-linejoin="round" stroke-width="1.5"/><path d="M17.342,3.39016a.75.75,0,0,1,1.3161,0l.5846,1.069a.74993.74993,0,0,0,.29818.29818l1.069.5846a.75.75,0,0,1,0,1.3161l-1.069.5846a.74993.74993,0,0,0-.29818.29818l-.5846,1.069a.75.75,0,0,1-1.3161,0l-.5846-1.069a.74993.74993,0,0,0-.29818-.29818l-1.069-.5846a.75.75,0,0,1,0-1.3161l1.069-.5846a.74993.74993,0,0,0,.29818-.29818Z" fill="none" stroke="#323232" stroke-linecap="round" stroke-linejoin="round" stroke-width="1.5"/><path d="M0,24H24V0H0Z" fill="none"/></svg>