<svg xmlns="http://www.w3.org/2000/svg" viewBox="0 0 24 24"><rect x="7" y="7" width="14" height="14" rx="3" transform="translate(-0.00003 27.99998) rotate(-89.9999)" stroke-width="1.5" stroke="#323232" stroke-linecap="round" stroke-linejoin="round" fill="none"/><path d="M7,13l14,0" fill="none" stroke="#323232" stroke-linecap="round" stroke-linejoin="round" stroke-width="1.5"/><path d="M15,9.995,14.995,10l.005.005L15.005,10,15,9.995" fill="none" stroke="#323232" stroke-linecap="round" stroke-linejoin="round" stroke-width="1.5"/><path d="M12.5,9.995,12.495,10l.005.005L12.505,10,12.5,9.995" fill="none" stroke="#323232" stroke-linecap="round" stroke-linejoin="round" stroke-width="1.5"/><path d="M10,9.995,9.995,10l.005.005L10.005,10,10,9.995" fill="none" stroke="#323232" stroke-linecap="round" stroke-linejoin="round" stroke-width="1.5"/><path d="M15,9.995,14.995,10l.005.005L15.005,10,15,9.995" fill="none" stroke="#323232" stroke-linecap="round" stroke-linejoin="round" stroke-width="1.5"/><path d="M12.5,9.995,12.495,10l.005.005L12.505,10,12.5,9.995" fill="none" stroke="#323232" stroke-linecap="round" stroke-linejoin="round" stroke-width="1.5"/><path d="M10,9.995,9.995,10l.005.005L10.005,10,10,9.995" fill="none" stroke="#323232" stroke-linecap="round" stroke-linejoin="round" stroke-width="1.5"/><path d="M4,16a3.4034,3.4034,0,0,1-1-2.41428V6A3,3,0,0,1,6,3h7.58571A3.40346,3.40346,0,0,1,16,4" fill="none" stroke="#323232" stroke-linecap="round" stroke-linejoin="round" stroke-width="1.5"/><path d="M0,24V0H24V24Z" fill="none"/></svg>