<svg xmlns="http://www.w3.org/2000/svg" viewBox="0 0 24 24"><path d="M6,21h8a2.99053,2.99053,0,0,0,2.12134-.87866" fill="none" stroke="#323232" stroke-linecap="round" stroke-linejoin="round" stroke-width="1.5"/><path d="M3.87867,7.87866A2.9905,2.9905,0,0,0,3,10v8a3,3,0,0,0,3,3" fill="none" stroke="#323232" stroke-linecap="round" stroke-linejoin="round" stroke-width="1.5"/><path d="M0,0V24H24V0Z" fill="none"/><rect x="7" y="3" width="14" height="14" rx="3" transform="translate(4 23.99999) rotate(-89.99996)" stroke-width="1.5" stroke="#323232" stroke-linecap="round" stroke-linejoin="round" fill="none"/><path d="M7,9H21" fill="none" stroke="#323232" stroke-linecap="round" stroke-linejoin="round" stroke-width="1.5"/><path d="M15,5.995,14.995,6,15,6.005,15.005,6,15,5.995" fill="none" stroke="#323232" stroke-linecap="round" stroke-linejoin="round" stroke-width="1.5"/><path d="M12.5,5.995,12.495,6l.005.005L12.505,6,12.5,5.995" fill="none" stroke="#323232" stroke-linecap="round" stroke-linejoin="round" stroke-width="1.5"/><path d="M10,5.995,9.995,6,10,6.005,10.005,6,10,5.995" fill="none" stroke="#323232" stroke-linecap="round" stroke-linejoin="round" stroke-width="1.5"/></svg>