<svg xmlns="http://www.w3.org/2000/svg" viewBox="0 0 24 24"><path d="M8.58579,8.91421l2.32842-2.32842A2,2,0,0,1,12.32843,6H18.5A2.5,2.5,0,0,1,21,8.5v10A2.5,2.5,0,0,1,18.5,21h-8A2.5,2.5,0,0,1,8,18.5V10.32843A2,2,0,0,1,8.58579,8.91421Z" fill="none" stroke="#323232" stroke-linecap="round" stroke-linejoin="round" stroke-width="1.5"/><path d="M8,11h3.5A1.5,1.5,0,0,0,13,9.5V6" fill="none" stroke="#323232" stroke-linecap="round" stroke-linejoin="round" stroke-width="1.5"/><path d="M16,6V5.5A2.5,2.5,0,0,0,13.5,3h-8A2.5,2.5,0,0,0,3,5.5v10A2.5,2.5,0,0,0,5.5,18H8" fill="none" stroke="#323232" stroke-linecap="round" stroke-linejoin="round" stroke-width="1.5"/></svg>