<svg xmlns="http://www.w3.org/2000/svg" viewBox="0 0 24 24"><path d="M19.12132,6.12132,16.87868,3.87868A3,3,0,0,0,14.75736,3H7A3,3,0,0,0,4,6V18a3,3,0,0,0,3,3H17a3,3,0,0,0,3-3V8.24264A3,3,0,0,0,19.12132,6.12132Z" fill="none" stroke="#323232" stroke-linecap="round" stroke-linejoin="round" stroke-width="1.5"/><path d="M20,8.5H16.5a2,2,0,0,1-2-2V3" fill="none" stroke="#323232" stroke-linecap="round" stroke-linejoin="round" stroke-width="1.5"/><path d="M9.5,16l1.49888,1.5" fill="none" stroke="#323232" stroke-linecap="round" stroke-linejoin="round" stroke-width="1.5"/><path d="M14.5,16h-5" fill="none" stroke="#323232" stroke-linecap="round" stroke-linejoin="round" stroke-width="1.5"/><path d="M14.5,13l-1.49888-1.5" fill="none" stroke="#323232" stroke-linecap="round" stroke-linejoin="round" stroke-width="1.5"/><path d="M9.5,13h5" fill="none" stroke="#323232" stroke-linecap="round" stroke-linejoin="round" stroke-width="1.5"/></svg>