<?xml version="1.0" encoding="UTF-8"?><svg version="1.1" viewBox="0 0 24 24" xmlns="http://www.w3.org/2000/svg" xmlns:xlink="http://www.w3.org/1999/xlink"><g fill="none"><path d="M0 0h24v24h-24v-24Z"></path><path stroke="#323232" stroke-linecap="round" stroke-linejoin="round" stroke-width="1.5" d="M19 11v-3.172c0-.53-.211-1.039-.586-1.414l-2.828-2.828c-.375-.375-.884-.586-1.414-.586h-7.172c-1.105 0-2 .895-2 2v14c0 1.105.895 2 2 2h5"></path><path stroke="#323232" stroke-linecap="round" stroke-linejoin="round" stroke-width="1.5" d="M19 8h-4c-.552 0-1-.448-1-1v-4"></path><path stroke="#323232" stroke-linecap="round" stroke-linejoin="round" stroke-width="1.5" d="M14.345 17.579l2.998 3.297c.15.165.409.165.56 0 .681-.748 2.409-2.65 2.999-3.298 .117-.129.131-.322.032-.467l-1.328-1.948c-.07-.102-.185-.163-.309-.163h-3.349c-.124 0-.239.061-.309.163l-1.328 1.948c-.098.145-.084.338.034.468Z"></path></g></svg>