<svg xmlns="http://www.w3.org/2000/svg" viewBox="0 0 24 24"><path d="M12,17.5a4.3521,4.3521,0,0,1-3.7405-2.06431h0a1.81668,1.81668,0,0,1,0-1.87138h0A4.3521,4.3521,0,0,1,12,11.5" fill="none" stroke="#323232" stroke-linecap="round" stroke-linejoin="round" stroke-width="1.5"/><path d="M12,11.5a4.3521,4.3521,0,0,1,3.7405,2.06431h0a1.81668,1.81668,0,0,1,0,1.87138h0A4.3521,4.3521,0,0,1,12,17.5" fill="none" stroke="#323232" stroke-linecap="round" stroke-linejoin="round" stroke-width="1.5"/><path d="M12,14.5l-.005.005L11.99,14.5l.005-.005L12,14.5" fill="none" stroke="#323232" stroke-linecap="round" stroke-linejoin="round" stroke-width="1.5"/><path d="M19.12132,6.12132,16.87868,3.87868A3,3,0,0,0,14.75736,3H7A3,3,0,0,0,4,6V18a3,3,0,0,0,3,3H17a3,3,0,0,0,3-3V8.24264A3,3,0,0,0,19.12132,6.12132Z" fill="none" stroke="#323232" stroke-linecap="round" stroke-linejoin="round" stroke-width="1.5"/><path d="M20,8.5H16.5a2,2,0,0,1-2-2V3" fill="none" stroke="#323232" stroke-linecap="round" stroke-linejoin="round" stroke-width="1.5"/></svg>