<svg xmlns="http://www.w3.org/2000/svg" viewBox="0 0 24 24"><path d="M6.26284,15.133l.85469-1.60338a1,1,0,0,1,1.76494,0L9.73716,15.133" fill="none" stroke="#323232" stroke-linecap="round" stroke-linejoin="round" stroke-width="1.5"/><path d="M6.26284,15.133l-1.42442.23472a1,1,0,0,0-.54383,1.69446L5.37349,18.139" fill="none" stroke="#323232" stroke-linecap="round" stroke-linejoin="round" stroke-width="1.5"/><path d="M9.73716,15.133l1.42442.23472a1,1,0,0,1,.54383,1.69446L10.62651,18.139" fill="none" stroke="#323232" stroke-linecap="round" stroke-linejoin="round" stroke-width="1.5"/><path d="M5.37349,18.139l-.25922,1.70919a1,1,0,0,0,1.42647,1.049L8,20.18671" fill="none" stroke="#323232" stroke-linecap="round" stroke-linejoin="round" stroke-width="1.5"/><path d="M10.62651,18.139l.25922,1.70919a1,1,0,0,1-1.42647,1.049L8,20.18671" fill="none" stroke="#323232" stroke-linecap="round" stroke-linejoin="round" stroke-width="1.5"/><path d="M20,8.5H16.5a2,2,0,0,1-2-2V3" fill="none" stroke="#323232" stroke-linecap="round" stroke-linejoin="round" stroke-width="1.5"/><path d="M15,21h2a3,3,0,0,0,3-3V8.24264a3,3,0,0,0-.87868-2.12132L16.87868,3.87868A3,3,0,0,0,14.75736,3H7A3,3,0,0,0,4,6v4.94859" fill="none" stroke="#323232" stroke-linecap="round" stroke-linejoin="round" stroke-width="1.5"/></svg>