<?xml version="1.0" encoding="UTF-8"?><svg version="1.1" viewBox="0 0 24 24" xmlns="http://www.w3.org/2000/svg" xmlns:xlink="http://www.w3.org/1999/xlink"><!--Generated by IJSVG (https://github.com/iconjar/IJSVG)--><g stroke-linecap="round" stroke-width="1.5" stroke="#323232" fill="none" stroke-linejoin="round"><path d="M18.414,6.414l-2.828,-2.828c-0.375,-0.375 -0.884,-0.586 -1.414,-0.586h-7.172c-1.105,0 -2,0.895 -2,2v14c0,1.105 0.895,2 2,2h10c1.105,0 2,-0.895 2,-2v-11.172c0,-0.53 -0.211,-1.039 -0.586,-1.414Z"></path><path d="M19,8h-4c-0.552,0 -1,-0.448 -1,-1v-4"></path><path d="M13.479,12c1.27,0 2.121,1.117 2.121,2.158c0,2.112 -3.536,3.842 -3.6,3.842"></path><path d="M10.521,12c-1.269,0 -2.121,1.117 -2.121,2.158c0,2.112 3.536,3.842 3.6,3.842"></path><path d="M12,12.642c0.276,-0.303 0.752,-0.642 1.479,-0.642"></path><path d="M12,12.642c-0.276,-0.303 -0.753,-0.642 -1.479,-0.642"></path></g><path fill="none" d="M0,0h24v24h-24Z"></path></svg>