<svg xmlns="http://www.w3.org/2000/svg" viewBox="0 0 24 24"><path d="M20,8.5H16.5a2,2,0,0,1-2-2V3" fill="none" stroke="#323232" stroke-linecap="round" stroke-linejoin="round" stroke-width="1.5"/><path d="M11.32978,15.17062l.00035.00036a2.29649,2.29649,0,0,1-.12267,3.35659L8.62221,20.76793a.95.95,0,0,1-1.2443,0L4.79245,18.52739a2.29623,2.29623,0,0,1-.12265-3.35622h0a2.2809,2.2809,0,0,1,3.10812-.11469l.22214.19223.22119-.19168A2.28029,2.28029,0,0,1,11.32978,15.17062Z" fill="none" stroke="#323232" stroke-linecap="round" stroke-linejoin="round" stroke-width="1.5"/><path d="M14,21h3a3,3,0,0,0,3-3V8.24264a3,3,0,0,0-.87868-2.12132L16.87868,3.87868A3,3,0,0,0,14.75736,3H7A3,3,0,0,0,4,6v5" fill="none" stroke="#323232" stroke-linecap="round" stroke-linejoin="round" stroke-width="1.5"/></svg>