<svg xmlns="http://www.w3.org/2000/svg" viewBox="0 0 24 24"><path d="M7.58814,20.95922h0A3.84151,3.84151,0,0,1,4.5,17.19231V16a2,2,0,0,1,2-2h3a2,2,0,0,1,2,2v1.19229a3.84152,3.84152,0,0,1-3.088,3.7669l-.00009,0A2.1,2.1,0,0,1,7.58814,20.95922Z" fill="none" stroke="#323232" stroke-linecap="round" stroke-linejoin="round" stroke-width="1.5"/><path d="M20,8.5H16.5a2,2,0,0,1-2-2V3" fill="none" stroke="#323232" stroke-linecap="round" stroke-linejoin="round" stroke-width="1.5"/><path d="M14,21h3a3,3,0,0,0,3-3V8.24264a3,3,0,0,0-.87868-2.12132L16.87868,3.87868A3,3,0,0,0,14.75736,3H7A3,3,0,0,0,4,6v5" fill="none" stroke="#323232" stroke-linecap="round" stroke-linejoin="round" stroke-width="1.5"/></svg>