<?xml version="1.0" encoding="UTF-8"?><svg version="1.1" viewBox="0 0 24 24" xmlns="http://www.w3.org/2000/svg" xmlns:xlink="http://www.w3.org/1999/xlink"><!--Generated by IJSVG (https://github.com/iconjar/IJSVG)--><g stroke-linecap="round" stroke-width="1.5" stroke="#323232" fill="none" stroke-linejoin="round"><path d="M18.414,6.414l-2.828,-2.828c-0.375,-0.375 -0.884,-0.586 -1.414,-0.586h-7.172c-1.105,0 -2,0.895 -2,2v14c0,1.105 0.895,2 2,2h10c1.105,0 2,-0.895 2,-2v-11.172c0,-0.53 -0.211,-1.039 -0.586,-1.414Z"></path><path d="M19,8h-4c-0.552,0 -1,-0.448 -1,-1v-4"></path><path d="M11.999,17.023l1.755,0.922c0.342,0.18 0.741,-0.111 0.676,-0.491l-0.335,-1.954l1.42,-1.383c0.277,-0.269 0.124,-0.739 -0.258,-0.794l-1.962,-0.285l-0.877,-1.779c-0.171,-0.346 -0.665,-0.346 -0.835,0l-0.877,1.779l-1.962,0.285c-0.382,0.056 -0.535,0.525 -0.258,0.794l1.42,1.383l-0.336,1.955c-0.065,0.38 0.334,0.67 0.676,0.491l1.755,-0.922"></path></g><path fill="none" d="M0,0h24v24h-24Z"></path></svg>