<svg xmlns="http://www.w3.org/2000/svg" viewBox="0 0 24 24"><path d="M4,15a3.5,3.5,0,1,1,5.25,3.01453V19.5A1.5,1.5,0,0,1,7.75,21h-.5a1.5,1.5,0,0,1-1.5-1.5V18.01453A3.48511,3.48511,0,0,1,4,15Z" fill="none" stroke="#323232" stroke-linecap="round" stroke-linejoin="round" stroke-width="1.5"/><line x1="5.75" y1="18.01453" x2="9.25" y2="18.01453" fill="none" stroke="#323232" stroke-linecap="round" stroke-linejoin="round" stroke-width="1.5"/><path d="M20,8.5H16.5a2,2,0,0,1-2-2V3" fill="none" stroke="#323232" stroke-linecap="round" stroke-linejoin="round" stroke-width="1.5"/><path d="M13,21h4a3,3,0,0,0,3-3V8.24264a3,3,0,0,0-.87868-2.12132L16.87868,3.87868A3,3,0,0,0,14.75736,3H7A3,3,0,0,0,4,6V9" fill="none" stroke="#323232" stroke-linecap="round" stroke-linejoin="round" stroke-width="1.5"/></svg>