<svg xmlns="http://www.w3.org/2000/svg" viewBox="0 0 24 24"><path d="M5.92835,16.55939a4.80481,4.80481,0,0,1-.19274-.538,2.47293,2.47293,0,0,1,.64979-2.42328l.85019-.85019a2.42677,2.42677,0,0,1,2.30223-.67736,4.74132,4.74132,0,0,1,3.39166,3.39183,2.42678,2.42678,0,0,1-.67739,2.30208l-.85014.85014a2.473,2.473,0,0,1-2.42326.64979,4.80529,4.80529,0,0,1-.53808-.19277L6.80515,20.70711A1,1,0,0,1,6.09805,21H5a1,1,0,0,1-1-1V18.902a1,1,0,0,1,.29289-.7071Z" fill="none" stroke="#323232" stroke-linecap="round" stroke-linejoin="round" stroke-width="1.5"/><path d="M9.3,15.75022A.05.05,0,1,1,9.25,15.7a.04974.04974,0,0,1,.05.05019" fill="none" stroke="#323232" stroke-linecap="round" stroke-linejoin="round" stroke-width="1.5"/><path d="M20,8.5H16.5a2,2,0,0,1-2-2V3" fill="none" stroke="#323232" stroke-linecap="round" stroke-linejoin="round" stroke-width="1.5"/><path d="M14,21h3a3,3,0,0,0,3-3V8.24264a3,3,0,0,0-.87868-2.12132L16.87868,3.87868A3,3,0,0,0,14.75736,3H7A3,3,0,0,0,4,6v4.94859" fill="none" stroke="#323232" stroke-linecap="round" stroke-linejoin="round" stroke-width="1.5"/></svg>