<svg xmlns="http://www.w3.org/2000/svg" viewBox="0 0 24 24"><line x1="10" y1="13" x2="5" y2="13" fill="none" stroke="#323232" stroke-linecap="round" stroke-linejoin="round" stroke-width="1.5"/><polyline points="7 15 5 13 7 11" fill="none" stroke="#323232" stroke-linecap="round" stroke-linejoin="round" stroke-width="1.5"/><path d="M4,17v1a3,3,0,0,0,3,3H17a3,3,0,0,0,3-3V8.24264a3,3,0,0,0-.87868-2.12132L16.87868,3.87868A3,3,0,0,0,14.75736,3H7A3,3,0,0,0,4,6V9" fill="none" stroke="#323232" stroke-linecap="round" stroke-linejoin="round" stroke-width="1.5"/><path d="M20,8.5H16.5a2,2,0,0,1-2-2V3" fill="none" stroke="#323232" stroke-linecap="round" stroke-linejoin="round" stroke-width="1.5"/></svg>