<svg xmlns="http://www.w3.org/2000/svg" viewBox="0 0 24 24"><path d="M8,6H5A2,2,0,0,0,3,8V19a2,2,0,0,0,2,2h9a2,2,0,0,0,2-2V18" fill="none" stroke="#323232" stroke-linecap="round" stroke-linejoin="round" stroke-width="1.5"/><path d="M20.41421,5.91421,18.08579,3.58579A2,2,0,0,0,16.67157,3H10.5A2.5,2.5,0,0,0,8,5.5v10A2.5,2.5,0,0,0,10.5,18h8A2.5,2.5,0,0,0,21,15.5V7.32843A2,2,0,0,0,20.41421,5.91421Z" fill="none" stroke="#323232" stroke-linecap="round" stroke-linejoin="round" stroke-width="1.5"/><path d="M21,8H17.5A1.5,1.5,0,0,1,16,6.5V3" fill="none" stroke="#323232" stroke-linecap="round" stroke-linejoin="round" stroke-width="1.5"/></svg>