<svg xmlns="http://www.w3.org/2000/svg" viewBox="0 0 24 24"><path d="M19.121,17.87911l-2.24278,2.2425a3,3,0,0,1-2.12137.87856L6.99946,20.9997a3,3,0,0,1-2.99982-3.00018l.00072-12A3,3,0,0,1,7.00054,2.9997l10,.0006a3,3,0,0,1,2.99982,3.00018l-.00059,9.75736A3,3,0,0,1,19.121,17.87911Z" fill="none" stroke="#323232" stroke-linecap="round" stroke-linejoin="round" stroke-width="1.5"/><path d="M19.99979,15.50048l-3.5-.00021a2,2,0,0,0-2.00012,1.99988l-.00021,3.5" fill="none" stroke="#323232" stroke-linecap="round" stroke-linejoin="round" stroke-width="1.5"/><line x1="16.00027" y1="7.50024" x2="8.00027" y2="7.49976" fill="none" stroke="#323232" stroke-linecap="round" stroke-linejoin="round" stroke-width="1.5"/><line x1="8.00006" y1="10.99976" x2="16.00006" y2="11.00024" fill="none" stroke="#323232" stroke-linecap="round" stroke-linejoin="round" stroke-width="1.5"/><line x1="10.69985" y1="14.49992" x2="7.99985" y2="14.49976" fill="none" stroke="#323232" stroke-linecap="round" stroke-linejoin="round" stroke-width="1.5"/></svg>