<svg xmlns="http://www.w3.org/2000/svg" viewBox="0 0 24 24"><path d="M21.26777,5.26778,19.73224,3.73224A2.5,2.5,0,0,0,17.96447,3H9.5A2.5,2.5,0,0,0,7,5.5v8A2.5,2.5,0,0,0,9.5,16h10A2.5,2.5,0,0,0,22,13.5V7.03555A2.5,2.5,0,0,0,21.26777,5.26778Z" fill="none" stroke="#323232" stroke-linecap="round" stroke-linejoin="round" stroke-width="1.5"/><path d="M7,8H5.5A2.5,2.5,0,0,0,3,10.5v8A2.5,2.5,0,0,0,5.5,21h10A2.5,2.5,0,0,0,18,18.5V16" fill="none" stroke="#323232" stroke-linecap="round" stroke-linejoin="round" stroke-width="1.5"/></svg>