<svg xmlns="http://www.w3.org/2000/svg" viewBox="0 0 24 24"><path d="M12.41421,12.91421l-1.32842-1.32842A2,2,0,0,0,9.67157,11H5.5A1.5,1.5,0,0,0,4,12.5v7A1.5,1.5,0,0,0,5.5,21h6A1.5,1.5,0,0,0,13,19.5V14.32843A2,2,0,0,0,12.41421,12.91421Z" fill="none" stroke="#323232" stroke-linecap="round" stroke-linejoin="round" stroke-width="1.5"/><path d="M20,8.5H16.5a2,2,0,0,1-2-2V3" fill="none" stroke="#323232" stroke-linecap="round" stroke-linejoin="round" stroke-width="1.5"/><path d="M16,21h1a3,3,0,0,0,3-3V8.24264a3,3,0,0,0-.87868-2.12132L16.87868,3.87868A3,3,0,0,0,14.75736,3H7A3,3,0,0,0,4,6V8" fill="none" stroke="#323232" stroke-linecap="round" stroke-linejoin="round" stroke-width="1.5"/></svg>