<svg xmlns="http://www.w3.org/2000/svg" viewBox="0 0 24 24"><path d="M20,8.5H16.5a2,2,0,0,1-2-2V3" fill="none" stroke="#323232" stroke-linecap="round" stroke-linejoin="round" stroke-width="1.5"/><path d="M14,21h3a3,3,0,0,0,3-3V8.24264a3,3,0,0,0-.87868-2.12132L16.87868,3.87868A3,3,0,0,0,14.75736,3H7A3,3,0,0,0,4,6v6" fill="none" stroke="#323232" stroke-linecap="round" stroke-linejoin="round" stroke-width="1.5"/><path d="M7.12263,14.52019a1,1,0,0,1,1.75474,0l.60272,1.10215a.99993.99993,0,0,0,.39757.39757l1.10215.60272a1,1,0,0,1,0,1.75474l-1.10215.60272a.99993.99993,0,0,0-.39757.39757l-.60272,1.10215a1,1,0,0,1-1.75474,0l-.60272-1.10215a.99993.99993,0,0,0-.39757-.39757l-1.10215-.60272a1,1,0,0,1,0-1.75474l1.10215-.60272a.99993.99993,0,0,0,.39757-.39757Z" fill="none" stroke="#323232" stroke-linecap="round" stroke-linejoin="round" stroke-width="1.5"/></svg>