<svg xmlns="http://www.w3.org/2000/svg" viewBox="0 0 24 24"><path d="M15.41421,8.91421,13.08579,6.58579A2,2,0,0,0,11.67157,6H5.5A2.5,2.5,0,0,0,3,8.5v10A2.5,2.5,0,0,0,5.5,21h8A2.5,2.5,0,0,0,16,18.5V10.32843A2,2,0,0,0,15.41421,8.91421Z" fill="none" stroke="#323232" stroke-linecap="round" stroke-linejoin="round" stroke-width="1.5"/><path d="M16,11H12.5A1.5,1.5,0,0,1,11,9.5V6" fill="none" stroke="#323232" stroke-linecap="round" stroke-linejoin="round" stroke-width="1.5"/><path d="M8,6V5.5A2.5,2.5,0,0,1,10.5,3h8A2.5,2.5,0,0,1,21,5.5v10A2.5,2.5,0,0,1,18.5,18H16" fill="none" stroke="#323232" stroke-linecap="round" stroke-linejoin="round" stroke-width="1.5"/></svg>