<?xml version="1.0" encoding="UTF-8"?><svg version="1.1" viewBox="0 0 24 24" xmlns="http://www.w3.org/2000/svg" xmlns:xlink="http://www.w3.org/1999/xlink"><g stroke-linecap="round" stroke-width="1.5" stroke="#323232" fill="none" stroke-linejoin="round"><path d="M16.5 22c-2.485 0-4.5-2.015-4.5-4.5 0-2.485 2.015-4.5 4.5-4.5 2.486 0 4.5 2.015 4.5 4.5 0 2.485-2.014 4.5-4.5 4.5"></path><path d="M16.499 19.885c-.024 0-.045.021-.045.045 0 .024.021.045.045.045 .024 0 .045-.021.045-.045 0-.024-.02-.045-.045-.045v0"></path><path d="M16.499 18.063c.777 0 1.407-.63 1.407-1.407 0-.777-.629-1.407-1.407-1.407 -.758 0-1.371.599-1.4 1.35"></path></g><path fill="none" d="M0 0h24v24h-24v-24Z"></path><g stroke-linecap="round" stroke-width="1.5" stroke="#323232" fill="none" stroke-linejoin="round"><path d="M18 10v-2.172c0-.53-.211-1.039-.586-1.414l-2.828-2.828c-.375-.375-.884-.586-1.414-.586h-7.172c-1.105 0-2 .895-2 2v14c0 1.105.895 2 2 2h4"></path><path d="M18 8h-4c-.552 0-1-.448-1-1v-4"></path></g></svg>