<svg xmlns="http://www.w3.org/2000/svg" viewBox="0 0 24 24"><path d="M20,8.5H16.5a2,2,0,0,1-2-2V3" fill="none" stroke="#323232" stroke-linecap="round" stroke-linejoin="round" stroke-width="1.5"/><path d="M16.20764,14.63464l-2.07246,2.07247A1,1,0,0,1,13.42807,17H11.75a.25.25,0,0,1-.25-.25V15.07185a1,1,0,0,1,.29279-.707L13.864,12.293a.99994.99994,0,0,1,1.41437-.00012l.92841.9284A.9992.9992,0,0,1,16.20764,14.63464Z" fill="none" stroke="#323232" stroke-linecap="round" stroke-linejoin="round" stroke-width="1.5"/><line x1="7.5" y1="16.99998" x2="8.5" y2="16.99998" fill="none" stroke="#323232" stroke-linecap="round" stroke-linejoin="round" stroke-width="1.5"/><path d="M19.12132,6.12132,16.87868,3.87868A3,3,0,0,0,14.75736,3H7A3,3,0,0,0,4,6V18a3,3,0,0,0,3,3H17a3,3,0,0,0,3-3V8.24264A3,3,0,0,0,19.12132,6.12132Z" fill="none" stroke="#323232" stroke-linecap="round" stroke-linejoin="round" stroke-width="1.5"/></svg>