<svg id="Layer_3" data-name="Layer 3" xmlns="http://www.w3.org/2000/svg" viewBox="0 0 24 24"><path d="M8,18H5a2,2,0,0,1-2-2V3" fill="none" stroke="#323232" stroke-linecap="round" stroke-linejoin="round" stroke-width="1.5"/><line x1="8" y1="7" x2="3" y2="7" fill="none" stroke="#323232" stroke-linecap="round" stroke-linejoin="round" stroke-width="1.5"/><path d="M18.08477,3H12.5A1.5,1.5,0,0,0,11,4.5v5A1.5,1.5,0,0,0,12.5,11h7A1.5,1.5,0,0,0,21,9.5V5.91523a1.5,1.5,0,0,0-.43934-1.06066L19.14543,3.43934A1.5,1.5,0,0,0,18.08477,3Z" fill="none" stroke="#323232" stroke-linecap="round" stroke-linejoin="round" stroke-width="1.5" fill-rule="evenodd"/><path d="M18.08477,14H12.5A1.5,1.5,0,0,0,11,15.5v5A1.5,1.5,0,0,0,12.5,22h7A1.5,1.5,0,0,0,21,20.5V16.91523a1.5,1.5,0,0,0-.43934-1.06066l-1.41523-1.41523A1.5,1.5,0,0,0,18.08477,14Z" fill="none" stroke="#323232" stroke-linecap="round" stroke-linejoin="round" stroke-width="1.5" fill-rule="evenodd"/><path d="M0,0H24V24H0Z" fill="none"/></svg>