<svg xmlns="http://www.w3.org/2000/svg" viewBox="0 0 24 24"><path d="M9.2313,20.92085,6.99973,19.4988,4.76814,20.91671A.5.5,0,0,1,4,20.49469V15.5A1.50441,1.50441,0,0,1,5.5,14h3A1.5,1.5,0,0,1,10,15.5v4.99919A.5.5,0,0,1,9.2313,20.92085Z" fill="none" stroke="#323232" stroke-linecap="round" stroke-linejoin="round" stroke-width="1.5"/><path d="M20,8.5H16.5a2,2,0,0,1-2-2V3" fill="none" stroke="#323232" stroke-linecap="round" stroke-linejoin="round" stroke-width="1.5"/><path d="M13.5,21H17a3,3,0,0,0,3-3V8.24264a3,3,0,0,0-.87868-2.12132L16.87868,3.87868A3,3,0,0,0,14.75736,3H7A3,3,0,0,0,4,6v4.94859" fill="none" stroke="#323232" stroke-linecap="round" stroke-linejoin="round" stroke-width="1.5"/></svg>