<?xml version="1.0" encoding="UTF-8"?><svg version="1.1" viewBox="0 0 24 24" xmlns="http://www.w3.org/2000/svg" xmlns:xlink="http://www.w3.org/1999/xlink"><!--Generated by IJSVG (https://github.com/iconjar/IJSVG)--><g stroke-linecap="round" stroke-width="1.5" stroke="#323232" fill="none" stroke-linejoin="round"><path d="M11,9.5c0,-0.828 -0.672,-1.5 -1.5,-1.5v0c-0.828,0 -1.5,0.672 -1.5,1.5v4.5"></path><path d="M11,12v-8c0,-0.828 0.672,-1.5 1.5,-1.5v0c0.828,0 1.5,0.672 1.5,1.5v8"></path><path d="M14,9.5c0,-0.828 0.672,-1.5 1.5,-1.5v0c0.828,0 1.5,0.672 1.5,1.5v3.5"></path><path d="M17,10.5c0,-0.828 0.672,-1.5 1.5,-1.5v0c0.828,0 1.5,0.672 1.5,1.5v1.5v4c0,3.314 -2.686,6 -6,6h-1.789c-2.006,0 -3.88,-1.003 -4.992,-2.672l-3.526,-5.288c-0.403,-0.605 -0.323,-1.41 0.19,-1.924v0c0.617,-0.616 1.617,-0.616 2.233,0l1.884,1.884"></path></g><path fill="none" d="M0,0h24v24h-24Z"></path></svg>