<svg xmlns="http://www.w3.org/2000/svg" viewBox="0 0 24 24"><path d="M19.77828,11l.2151-3.77228A4,4,0,0,0,15.99987,3H8.00013A4,4,0,0,0,4.00662,7.22771L4.22172,11" fill="none" stroke="#323232" stroke-linecap="round" stroke-linejoin="round" stroke-width="1.5"/><path d="M8.995,8,9,7.995,9.005,8,9,8.005,8.995,8" fill="none" stroke="#323232" stroke-linecap="round" stroke-linejoin="round" stroke-width="1.5"/><path d="M11.995,8,12,7.995,12.005,8,12,8.005,11.995,8" fill="none" stroke="#323232" stroke-linecap="round" stroke-linejoin="round" stroke-width="1.5"/><path d="M14.995,8,15,7.995,15.005,8,15,8.005,14.995,8" fill="none" stroke="#323232" stroke-linecap="round" stroke-linejoin="round" stroke-width="1.5"/><line x1="4.51506" y1="18.93573" x2="4.51506" y2="21" fill="none" stroke="#323232" stroke-linecap="round" stroke-linejoin="round" stroke-width="1.5"/><line x1="19.54383" y1="18.91948" x2="19.54383" y2="21" fill="none" stroke="#323232" stroke-linecap="round" stroke-linejoin="round" stroke-width="1.5"/><path d="M18.98228,19H5.01772a2,2,0,0,1-1.94028-1.51493l-1.01855-4.0742A1.94028,1.94028,0,0,1,3.94124,11h0a1.94026,1.94026,0,0,1,1.88235,1.46969L6.45617,15H17.54383l.63258-2.53031A1.94026,1.94026,0,0,1,20.05876,11h0a1.94028,1.94028,0,0,1,1.88235,2.41087l-1.01855,4.0742A2,2,0,0,1,18.98228,19Z" fill="none" stroke="#323232" stroke-linecap="round" stroke-linejoin="round" stroke-width="1.5"/></svg>