<svg xmlns="http://www.w3.org/2000/svg" viewBox="0 0 24 24"><path d="M5,11V6A3,3,0,0,1,8,3h8a3,3,0,0,1,3,3v5" fill="none" stroke="#323232" stroke-linecap="round" stroke-linejoin="round" stroke-width="1.5"/><line x1="6.273" y1="18.454" x2="5" y2="21" fill="none" stroke="#323232" stroke-linecap="round" stroke-linejoin="round" stroke-width="1.5"/><path d="M15.76305,15H8.237a1,1,0,0,1-.97015-.75747l-.44321-1.77284A1.94026,1.94026,0,0,0,4.94124,11h0a1.94028,1.94028,0,0,0-1.88235,2.41087l.386,1.5439A5.34049,5.34049,0,0,0,8.6259,19h6.7482a5.34049,5.34049,0,0,0,5.181-4.04523l.386-1.5439A1.94028,1.94028,0,0,0,19.05876,11h0a1.94026,1.94026,0,0,0-1.88235,1.46969l-.44321,1.77284A1,1,0,0,1,15.76305,15Z" fill="none" stroke="#323232" stroke-linecap="round" stroke-linejoin="round" stroke-width="1.5"/><line x1="17.727" y1="18.454" x2="19" y2="21" fill="none" stroke="#323232" stroke-linecap="round" stroke-linejoin="round" stroke-width="1.5"/></svg>