<svg xmlns="http://www.w3.org/2000/svg" viewBox="0 0 24 24"><path d="M19,20v1" fill="none" stroke="#323232" stroke-linecap="round" stroke-linejoin="round" stroke-width="1.5"/><path d="M5,20v1" fill="none" stroke="#323232" stroke-linecap="round" stroke-linejoin="round" stroke-width="1.5"/><path d="M19,11V10a5,5,0,0,0-5-5H10a5,5,0,0,0-5,5v1" fill="none" stroke="#323232" stroke-linecap="round" stroke-linejoin="round" stroke-width="1.5"/><path d="M7,16V13.5a2.5,2.5,0,1,0-3,2.44958V18.5A1.5,1.5,0,0,0,5.5,20h13A1.5,1.5,0,0,0,20,18.5V15.94958A2.5,2.5,0,1,0,17,13.5V16Z" fill="none" stroke="#323232" stroke-linecap="round" stroke-linejoin="round" stroke-width="1.5"/></svg>