<svg xmlns="http://www.w3.org/2000/svg" viewBox="0 0 24 24"><path d="M5,11V6A3,3,0,0,1,8,3h8a3,3,0,0,1,3,3v5" fill="none" stroke="#323232" stroke-linecap="round" stroke-linejoin="round" stroke-width="1.5"/><line x1="5" y1="18.71992" x2="5" y2="21" fill="none" stroke="#323232" stroke-linecap="round" stroke-linejoin="round" stroke-width="1.5"/><line x1="19" y1="18.71992" x2="19" y2="21" fill="none" stroke="#323232" stroke-linecap="round" stroke-linejoin="round" stroke-width="1.5"/><path d="M16.54383,15H7.45617l-.63258-2.53031A1.94026,1.94026,0,0,0,4.94124,11h0a1.94028,1.94028,0,0,0-1.88235,2.41087l1.01855,4.0742A2,2,0,0,0,6.01772,19H17.98228a2,2,0,0,0,1.94028-1.51493l1.01855-4.0742A1.94028,1.94028,0,0,0,19.05876,11h0a1.94026,1.94026,0,0,0-1.88235,1.46969Z" fill="none" stroke="#323232" stroke-linecap="round" stroke-linejoin="round" stroke-width="1.5"/></svg>