<svg xmlns="http://www.w3.org/2000/svg" viewBox="0 0 24 24"><path d="M15.08228,14h2.83545a.97625.97625,0,0,0,.92435-.6074,2.6012,2.6012,0,0,0-.00008-1.78528A.97945.97945,0,0,0,17.91533,11H15.08467a.97944.97944,0,0,0-.92667.60733,2.6012,2.6012,0,0,0-.00008,1.78528A.97626.97626,0,0,0,15.08228,14Z" fill="none" stroke="#323232" stroke-linecap="round" stroke-linejoin="round" stroke-width="1.5"/><path d="M6.08228,14H8.91773a.97625.97625,0,0,0,.92435-.6074A2.6012,2.6012,0,0,0,9.842,11.60731.97945.97945,0,0,0,8.91533,11H6.08467a.97944.97944,0,0,0-.92667.60733,2.6012,2.6012,0,0,0-.00008,1.78528A.97626.97626,0,0,0,6.08228,14Z" fill="none" stroke="#323232" stroke-linecap="round" stroke-linejoin="round" stroke-width="1.5"/><line x1="2" y1="21" x2="2" y2="19" fill="none" stroke="#323232" stroke-linecap="round" stroke-linejoin="round" stroke-width="1.5"/><line x1="22" y1="21" x2="22" y2="19" fill="none" stroke="#323232" stroke-linecap="round" stroke-linejoin="round" stroke-width="1.5"/><path d="M3,7H21a2,2,0,0,1,2,2v9a1,1,0,0,1-1,1H2a1,1,0,0,1-1-1V9A2,2,0,0,1,3,7Z" fill="none" stroke="#323232" stroke-linecap="round" stroke-linejoin="round" stroke-width="1.5"/><line x1="1" y1="14" x2="23" y2="14" fill="none" stroke="#323232" stroke-linecap="round" stroke-linejoin="round" stroke-width="1.5"/><path d="M0,0H24V24H0Z" fill="none"/></svg>