<svg xmlns="http://www.w3.org/2000/svg" viewBox="0 0 24 24"><path d="M0,0H24V24H0Z" fill="none"/><line x1="3" y1="21" x2="3" y2="19" fill="none" stroke="#323232" stroke-linecap="round" stroke-linejoin="round" stroke-width="1.5"/><line x1="21" y1="21" x2="21" y2="19" fill="none" stroke="#323232" stroke-linecap="round" stroke-linejoin="round" stroke-width="1.5"/><path d="M14.91533,11H9.08467a.97944.97944,0,0,0-.92667.60733,2.6012,2.6012,0,0,0-.00008,1.78528A.97626.97626,0,0,0,9.08228,14h5.83545a.97625.97625,0,0,0,.92435-.6074,2.6012,2.6012,0,0,0-.00008-1.78528A.97945.97945,0,0,0,14.91533,11Z" fill="none" stroke="#323232" stroke-linecap="round" stroke-linejoin="round" stroke-width="1.5"/><path d="M4,7H20a2,2,0,0,1,2,2v9a1,1,0,0,1-1,1H3a1,1,0,0,1-1-1V9A2,2,0,0,1,4,7Z" fill="none" stroke="#323232" stroke-linecap="round" stroke-linejoin="round" stroke-width="1.5"/><line x1="22" y1="14" x2="2" y2="14" fill="none" stroke="#323232" stroke-linecap="round" stroke-linejoin="round" stroke-width="1.5"/></svg>