<svg xmlns="http://www.w3.org/2000/svg" viewBox="0 0 24 24"><line x1="9.5" y1="7" x2="9.5" y2="14" fill="none" stroke="#323232" stroke-linecap="round" stroke-linejoin="round" stroke-width="1.5"/><circle cx="9.5" cy="15.5" r="1.5" fill="none" stroke="#323232" stroke-linecap="round" stroke-linejoin="round" stroke-width="1.5"/><path d="M5.03035,15H4.00049a1,1,0,0,1-.97014-1.24254l.5-2A1,1,0,0,1,4.50049,11" fill="none" stroke="#323232" stroke-linecap="round" stroke-linejoin="round" stroke-width="1.5"/><path d="M14,15h5.99951a1,1,0,0,0,.97014-1.24254l-.5-2A1,1,0,0,0,19.49951,11" fill="none" stroke="#323232" stroke-linecap="round" stroke-linejoin="round" stroke-width="1.5"/><rect x="3" y="3" width="18" height="4" rx="1" stroke-width="1.5" stroke="#323232" stroke-linecap="round" stroke-linejoin="round" fill="none"/><path d="M19.49951,7a1,1,0,0,1,.97014.75746l.5,2A1,1,0,0,1,19.99951,11H12" fill="none" stroke="#323232" stroke-linecap="round" stroke-linejoin="round" stroke-width="1.5"/><path d="M7.03035,11H4.00049a1,1,0,0,1-.97014-1.24254l.5-2A1,1,0,0,1,4.50049,7" fill="none" stroke="#323232" stroke-linecap="round" stroke-linejoin="round" stroke-width="1.5"/><path d="M21,18v2a1,1,0,0,1-1,1H4a1,1,0,0,1-1-1V18" fill="none" stroke="#323232" stroke-linecap="round" stroke-linejoin="round" stroke-width="1.5"/><rect width="24" height="24" fill="none"/></svg>