<svg xmlns="http://www.w3.org/2000/svg" viewBox="0 0 24 24"><path d="M21,14v6a1,1,0,0,1-1,1H4a1,1,0,0,1-1-1V14" fill="none" stroke="#323232" stroke-linecap="round" stroke-linejoin="round" stroke-width="1.5"/><line x1="9.5" y1="11" x2="9.5" y2="15" fill="none" stroke="#323232" stroke-linecap="round" stroke-linejoin="round" stroke-width="1.5"/><circle cx="9.5" cy="16.5" r="1.5" fill="none" stroke="#323232" stroke-linecap="round" stroke-linejoin="round" stroke-width="1.5"/><path d="M4.00049,7a1,1,0,0,1-.97014-1.24254l.5-2A1,1,0,0,1,4.50049,3h14.999a1,1,0,0,1,.97014.75746l.5,2A1,1,0,0,1,19.99951,7Z" fill="none" stroke="#323232" stroke-linecap="round" stroke-linejoin="round" stroke-width="1.5"/><path d="M4.00049,11a1,1,0,0,1-.97014-1.24254l.5-2A1,1,0,0,1,4.50049,7h14.999a1,1,0,0,1,.97014.75746l.5,2A1,1,0,0,1,19.99951,11Z" fill="none" stroke="#323232" stroke-linecap="round" stroke-linejoin="round" stroke-width="1.5"/></svg>