<svg xmlns="http://www.w3.org/2000/svg" viewBox="0 0 24 24"><line x1="7" y1="16" x2="7" y2="21" fill="none" stroke="#323232" stroke-linecap="round" stroke-linejoin="round" stroke-width="1.5"/><line x1="17" y1="16" x2="17" y2="21" fill="none" stroke="#323232" stroke-linecap="round" stroke-linejoin="round" stroke-width="1.5"/><path d="M16,13V5a2,2,0,0,0-2-2H10A2,2,0,0,0,8,5v8" fill="none" stroke="#323232" stroke-linecap="round" stroke-linejoin="round" stroke-width="1.5"/><path d="M6.5,13h11a1,1,0,0,1,1,1h0a2,2,0,0,1-2,2h-9a2,2,0,0,1-2-2h0A1,1,0,0,1,6.5,13Z" fill="none" stroke="#323232" stroke-linecap="round" stroke-linejoin="round" stroke-width="1.5"/><line x1="16" y1="9" x2="8" y2="9" fill="none" stroke="#323232" stroke-linecap="round" stroke-linejoin="round" stroke-width="1.5"/></svg>