<svg xmlns="http://www.w3.org/2000/svg" viewBox="0 0 24 24"><rect width="24" height="24" fill="none"/><path d="M6.5,21.5A1.5,1.5,0,0,1,8,20h8a1.5,1.5,0,0,1,1.5,1.5" fill="none" stroke="#323232" stroke-linecap="round" stroke-linejoin="round" stroke-width="1.5"/><line x1="12" y1="17" x2="12" y2="20" fill="none" stroke="#323232" stroke-linecap="round" stroke-linejoin="round" stroke-width="1.5"/><rect x="6.5" y="13.99999" width="11" height="3" rx="1" stroke-width="1.5" stroke="#323232" stroke-linecap="round" stroke-linejoin="round" fill="none"/><path d="M5.5,10H4v2a2,2,0,0,0,2,2H18a2,2,0,0,0,2-2V10H18.5" fill="none" stroke="#323232" stroke-linecap="round" stroke-linejoin="round" stroke-width="1.5"/><path d="M16.5,14h0a12.4561,12.4561,0,0,1-1.29076-6.34757l.24005-3.84068A.9976.9976,0,0,0,14.678,2.771a13.36654,13.36654,0,0,0-5.35595,0,.99279.99279,0,0,0-.7716,1.03609l.24039,3.846A12.45373,12.45373,0,0,1,7.5,14h0" fill="none" stroke="#323232" stroke-linecap="round" stroke-linejoin="round" stroke-width="1.5"/><rect width="24" height="24" fill="none"/></svg>