<svg xmlns="http://www.w3.org/2000/svg" viewBox="0 0 24 24"><line x1="15.5" y1="21" x2="8.5" y2="21" fill="none" stroke="#323232" stroke-linecap="round" stroke-linejoin="round" stroke-width="1.5"/><line x1="12" y1="17" x2="12" y2="21" fill="none" stroke="#323232" stroke-linecap="round" stroke-linejoin="round" stroke-width="1.5"/><path d="M7.5,14h9a2,2,0,0,1,2,2v0a1,1,0,0,1-1,1H6.5a1,1,0,0,1-1-1v0A2,2,0,0,1,7.5,14Z" transform="translate(24 30.99998) rotate(-180)" fill="none" stroke="#323232" stroke-linecap="round" stroke-linejoin="round" stroke-width="1.5"/><path d="M8,14V5a2,2,0,0,1,2-2h4a2,2,0,0,1,2,2v9" fill="none" stroke="#323232" stroke-linecap="round" stroke-linejoin="round" stroke-width="1.5"/><rect width="24" height="24" fill="none"/></svg>