<svg xmlns="http://www.w3.org/2000/svg" viewBox="0 0 24 24"><rect width="24" height="24" fill="none"/><rect width="24" height="24" fill="none"/><line x1="12" y1="17" x2="12" y2="20" fill="none" stroke="#323232" stroke-linecap="round" stroke-linejoin="round" stroke-width="1.5"/><path d="M10,3h4a2,2,0,0,1,2,2v9a0,0,0,0,1,0,0H8a0,0,0,0,1,0,0V5A2,2,0,0,1,10,3Z" fill="none" stroke="#323232" stroke-linecap="round" stroke-linejoin="round" stroke-width="1.5"/><path d="M21,11H19l-.90427,4.4024A2,2,0,0,1,16.13663,17H7.86337a2,2,0,0,1-1.9591-1.59759L5,11H3" fill="none" stroke="#323232" stroke-linecap="round" stroke-linejoin="round" stroke-width="1.5"/><line x1="18.38379" y1="14" x2="5.61621" y2="14" fill="none" stroke="#323232" stroke-linecap="round" stroke-linejoin="round" stroke-width="1.5"/><path d="M8,14V5a2,2,0,0,1,2-2h4a2,2,0,0,1,2,2v9" fill="none" stroke="#323232" stroke-linecap="round" stroke-linejoin="round" stroke-width="1.5"/><line x1="15.5" y1="21.5" x2="8.5" y2="21.5" fill="none" stroke="#323232" stroke-linecap="round" stroke-linejoin="round" stroke-width="1.5"/><line x1="12" y1="17" x2="12" y2="21.5" fill="none" stroke="#323232" stroke-linecap="round" stroke-linejoin="round" stroke-width="1.5"/><rect width="24" height="24" fill="none"/></svg>