<svg xmlns="http://www.w3.org/2000/svg" viewBox="0 0 24 24"><path d="M8,13.5V5a2,2,0,0,1,2-2h4a2,2,0,0,1,2,2v8.5" fill="none" stroke="#323232" stroke-linecap="round" stroke-linejoin="round" stroke-width="1.5"/><path d="M6.5,21A1.5,1.5,0,0,1,8,19.5h8A1.5,1.5,0,0,1,17.5,21" fill="none" stroke="#323232" stroke-linecap="round" stroke-linejoin="round" stroke-width="1.5"/><line x1="12" y1="16.5" x2="12" y2="19.5" fill="none" stroke="#323232" stroke-linecap="round" stroke-linejoin="round" stroke-width="1.5"/><path d="M7.5,13.5h9a1,1,0,0,1,1,1V15A1.5,1.5,0,0,1,16,16.5H8A1.5,1.5,0,0,1,6.5,15v-.5A1,1,0,0,1,7.5,13.5Z" fill="none" stroke="#323232" stroke-linecap="round" stroke-linejoin="round" stroke-width="1.5"/><path d="M5.5,9.5H4v2a2,2,0,0,0,2,2H18a2,2,0,0,0,2-2v-2H18.5" fill="none" stroke="#323232" stroke-linecap="round" stroke-linejoin="round" stroke-width="1.5"/><rect width="24" height="24" fill="none"/></svg>