<svg xmlns="http://www.w3.org/2000/svg" viewBox="0 0 24 24"><path d="M22,21V13.5a.5.5,0,0,0-.5-.5H2.5a.5.5,0,0,0-.5.5V21" fill="none" stroke="#323232" stroke-linecap="round" stroke-linejoin="round" stroke-width="1.5"/><line x1="22" y1="17" x2="2" y2="17" fill="none" stroke="#323232" stroke-linecap="round" stroke-linejoin="round" stroke-width="1.5"/><rect x="2" y="3.5" width="10" height="6.5" rx="1" transform="translate(14 13.5) rotate(-180)" stroke-width="1.5" stroke="#323232" stroke-linecap="round" stroke-linejoin="round" fill="none"/><line x1="6.9999" y1="13" x2="7" y2="10" fill="none" stroke="#323232" stroke-linecap="round" stroke-linejoin="round" stroke-width="1.5"/><path d="M16,3h4a1,1,0,0,1,1,1v9a0,0,0,0,1,0,0H15a0,0,0,0,1,0,0V4a1,1,0,0,1,1-1Z" fill="none" stroke="#323232" stroke-linecap="round" stroke-linejoin="round" stroke-width="1.5"/><path d="M0,0H24V24H0Z" fill="none"/></svg>