<svg xmlns="http://www.w3.org/2000/svg" viewBox="0 0 24 24"><path d="M14,3h8a0,0,0,0,1,0,0V20a1,1,0,0,1-1,1H14a1,1,0,0,1-1-1V4A1,1,0,0,1,14,3Z" transform="translate(35 24) rotate(-180)" fill="none" stroke="#323232" stroke-linecap="round" stroke-linejoin="round" stroke-width="1.5"/><rect x="3" y="4" width="6" height="9" rx="1" stroke-width="1.5" stroke="#323232" stroke-linecap="round" stroke-linejoin="round" fill="none"/><path d="M13,17H3a1,1,0,0,0-1,1v2a1,1,0,0,0,1,1H13" fill="none" stroke="#323232" stroke-linecap="round" stroke-linejoin="round" stroke-width="1.5"/><line x1="13" y1="9" x2="22" y2="9" fill="none" stroke="#323232" stroke-linecap="round" stroke-linejoin="round" stroke-width="1.5"/><line x1="13" y1="15" x2="22" y2="15" fill="none" stroke="#323232" stroke-linecap="round" stroke-linejoin="round" stroke-width="1.5"/><rect width="24" height="24" fill="none"/></svg>