<svg xmlns="http://www.w3.org/2000/svg" viewBox="0 0 24 24"><path d="M5,5,2.4453,6.70313A1,1,0,0,0,2,7.53518V8.5a.5.5,0,0,0,.5.5h9a.5.5,0,0,0,.5-.5V7.53518a1,1,0,0,0-.4453-.83205L9,5V3.5A.5.5,0,0,0,8.5,3h-3a.5.5,0,0,0-.5.5Z" fill="none" stroke="#323232" stroke-linecap="round" stroke-linejoin="round" stroke-width="1.5"/><line x1="15" y1="17" x2="2" y2="17" fill="none" stroke="#323232" stroke-linecap="round" stroke-linejoin="round" stroke-width="1.5"/><path d="M22,13H3a1,1,0,0,0-1,1v6a1,1,0,0,0,1,1H21a1,1,0,0,0,1-1Z" fill="none" stroke="#323232" stroke-linecap="round" stroke-linejoin="round" stroke-width="1.5"/><polyline points="15 21 15 3 22 3 22 13" fill="none" stroke="#323232" stroke-linecap="round" stroke-linejoin="round" stroke-width="1.5"/></svg>