<svg xmlns="http://www.w3.org/2000/svg" viewBox="0 0 24 24"><rect x="2" y="13" width="20" height="8" rx="1" transform="translate(24 34) rotate(-180)" stroke-width="1.5" stroke="#323232" stroke-linecap="round" stroke-linejoin="round" fill="none"/><line x1="12" y1="13" x2="12" y2="21" fill="none" stroke="#323232" stroke-linecap="round" stroke-linejoin="round" stroke-width="1.5"/><polyline points="16 10 18 10 18 13" fill="none" stroke="#323232" stroke-linecap="round" stroke-linejoin="round" stroke-width="1.5"/><path d="M5,5,2.4453,6.70313A1,1,0,0,0,2,7.53518V8.5a.5.5,0,0,0,.5.5h9a.5.5,0,0,0,.5-.5V7.53518a1,1,0,0,0-.4453-.83205L9,5V3.5A.5.5,0,0,0,8.5,3h-3a.5.5,0,0,0-.5.5Z" fill="none" stroke="#323232" stroke-linecap="round" stroke-linejoin="round" stroke-width="1.5"/><line x1="12" y1="16" x2="2" y2="16" fill="none" stroke="#323232" stroke-linecap="round" stroke-linejoin="round" stroke-width="1.5"/></svg>