<svg xmlns="http://www.w3.org/2000/svg" viewBox="0 0 24 24"><path d="M14,3h8a0,0,0,0,1,0,0V20a1,1,0,0,1-1,1H14a1,1,0,0,1-1-1V4A1,1,0,0,1,14,3Z" transform="translate(35 24) rotate(-180)" fill="none" stroke="#323232" stroke-linecap="round" stroke-linejoin="round" stroke-width="1.5"/><path d="M2,10H12a1,1,0,0,1,1,1v9a1,1,0,0,1-1,1H2a0,0,0,0,1,0,0V10a0,0,0,0,1,0,0Z" transform="translate(15 31) rotate(-180)" fill="none" stroke="#323232" stroke-linecap="round" stroke-linejoin="round" stroke-width="1.5"/><line x1="13" y1="11" x2="22" y2="11" fill="none" stroke="#323232" stroke-linecap="round" stroke-linejoin="round" stroke-width="1.5"/><line x1="19" y1="6" x2="19" y2="8" fill="none" stroke="#323232" stroke-linecap="round" stroke-linejoin="round" stroke-width="1.5"/><line x1="19" y1="14" x2="19" y2="16" fill="none" stroke="#323232" stroke-linecap="round" stroke-linejoin="round" stroke-width="1.5"/><circle cx="7.5" cy="15.5" r="2.5" fill="none" stroke="#323232" stroke-linecap="round" stroke-linejoin="round" stroke-width="1.5"/></svg>