<svg xmlns="http://www.w3.org/2000/svg" viewBox="0 0 24 24"><path d="M13,3h9a0,0,0,0,1,0,0V20a1,1,0,0,1-1,1H13a1,1,0,0,1-1-1V4a1,1,0,0,1,1-1Z" transform="translate(34 24) rotate(-180)" fill="none" stroke="#323232" stroke-linecap="round" stroke-linejoin="round" stroke-width="1.5"/><path d="M12,21H3a1,1,0,0,1-1-1V12a1,1,0,0,1,1-1h9" fill="none" stroke="#323232" stroke-linecap="round" stroke-linejoin="round" stroke-width="1.5"/><line x1="12" y1="15.95233" x2="2" y2="15.95233" fill="none" stroke="#323232" stroke-linecap="round" stroke-linejoin="round" stroke-width="1.5"/><polyline points="8 7 5 7 5 11" fill="none" stroke="#323232" stroke-linecap="round" stroke-linejoin="round" stroke-width="1.5"/><line x1="19" y1="10" x2="19" y2="14" fill="none" stroke="#323232" stroke-linecap="round" stroke-linejoin="round" stroke-width="1.5"/><rect width="24" height="24" fill="none"/></svg>