<svg xmlns="http://www.w3.org/2000/svg" viewBox="0 0 24 24"><path d="M6,3H18a0,0,0,0,1,0,0V8.88889A1.11111,1.11111,0,0,1,16.88891,10H7.11113A1.11111,1.11111,0,0,1,6,8.88889V3A0,0,0,0,1,6,3Z" transform="translate(24.00004 13) rotate(-180)" fill="none" stroke="#323232" stroke-linecap="round" stroke-linejoin="round" stroke-width="1.5"/><path d="M5.5,10h13a.5.5,0,0,1,.5.5V11a2,2,0,0,1-2,2H7a2,2,0,0,1-2-2v-.5A.5.5,0,0,1,5.5,10Z" fill="none" stroke="#323232" stroke-linecap="round" stroke-linejoin="round" stroke-width="1.5"/><path d="M2,21V13.5a.5.5,0,0,1,.5-.5h19a.5.5,0,0,1,.5.5V21H14V13" fill="none" stroke="#323232" stroke-linecap="round" stroke-linejoin="round" stroke-width="1.5"/><line x1="22.00002" y1="17.00001" x2="14.00002" y2="17.00001" fill="none" stroke="#323232" stroke-linecap="round" stroke-linejoin="round" stroke-width="1.5"/></svg>