<svg xmlns="http://www.w3.org/2000/svg" viewBox="0 0 24 24"><path d="M22,21V13.5a.5.5,0,0,0-.5-.5H2.5a.5.5,0,0,0-.5.5V21" fill="none" stroke="#323232" stroke-linecap="round" stroke-linejoin="round" stroke-width="1.5"/><path d="M6,3H18a0,0,0,0,1,0,0V9a1,1,0,0,1-1,1H7A1,1,0,0,1,6,9V3A0,0,0,0,1,6,3Z" transform="translate(24 13) rotate(-180)" fill="none" stroke="#323232" stroke-linecap="round" stroke-linejoin="round" stroke-width="1.5"/><path d="M5.5,10h13a.5.5,0,0,1,.5.5V11a2,2,0,0,1-2,2H7a2,2,0,0,1-2-2v-.5a.5.5,0,0,1,.5-.5Z" fill="none" stroke="#323232" stroke-linecap="round" stroke-linejoin="round" stroke-width="1.5"/><line x1="22" y1="17" x2="2" y2="17" fill="none" stroke="#323232" stroke-linecap="round" stroke-linejoin="round" stroke-width="1.5"/><path d="M0,0H24V24H0Z" fill="none"/></svg>