<svg xmlns="http://www.w3.org/2000/svg" viewBox="0 0 24 24"><rect x="0.00001" width="24" height="24" fill="none"/><line x1="19.00001" y1="20" x2="19.00001" y2="21" fill="none" stroke="#323232" stroke-linecap="round" stroke-linejoin="round" stroke-width="1.5"/><line x1="5.00001" y1="20" x2="5.00001" y2="21" fill="none" stroke="#323232" stroke-linecap="round" stroke-linejoin="round" stroke-width="1.5"/><line x1="21.00001" y1="12" x2="3.00001" y2="12" fill="none" stroke="#323232" stroke-linecap="round" stroke-linejoin="round" stroke-width="1.5"/><line x1="14.00001" y1="15" x2="10.00001" y2="15" fill="none" stroke="#323232" stroke-linecap="round" stroke-linejoin="round" stroke-width="1.5"/><path d="M10,12V8A1,1,0,0,0,9,7H8A1,1,0,0,0,7,8v4" fill="none" stroke="#323232" stroke-linecap="round" stroke-linejoin="round" stroke-width="1.5"/><path d="M16,12V8a1,1,0,0,0-1-1H14a1,1,0,0,0-1,1v4" fill="none" stroke="#323232" stroke-linecap="round" stroke-linejoin="round" stroke-width="1.5"/><path d="M13,12V8a1,1,0,0,0-1-1H11a1,1,0,0,0-1,1v4" fill="none" stroke="#323232" stroke-linecap="round" stroke-linejoin="round" stroke-width="1.5"/><rect x="3" y="3" width="18" height="17" rx="2" stroke-width="1.5" stroke="#323232" stroke-linecap="round" stroke-linejoin="round" fill="none"/></svg>