<svg xmlns="http://www.w3.org/2000/svg" viewBox="0 0 24 24"><path d="M9,10V7A.99908.99908,0,0,0,8.0011,6H6.99894A.99908.99908,0,0,0,6,7v3" fill="none" stroke="#323232" stroke-linecap="round" stroke-linejoin="round" stroke-width="1.5"/><path d="M15,10V7a.99908.99908,0,0,0-.99892-1H12.99894A.99908.99908,0,0,0,12,7v3" fill="none" stroke="#323232" stroke-linecap="round" stroke-linejoin="round" stroke-width="1.5"/><path d="M12,10V7a.99908.99908,0,0,0-.99892-1H9.99894A.99908.99908,0,0,0,9,7v3" fill="none" stroke="#323232" stroke-linecap="round" stroke-linejoin="round" stroke-width="1.5"/><path d="M17,21V18a.99908.99908,0,0,0-.99892-1H14.99894A.99908.99908,0,0,0,14,18v3" fill="none" stroke="#323232" stroke-linecap="round" stroke-linejoin="round" stroke-width="1.5"/><path d="M14,21V18a.99908.99908,0,0,0-.99892-1H11.99894A.99908.99908,0,0,0,11,18v3" fill="none" stroke="#323232" stroke-linecap="round" stroke-linejoin="round" stroke-width="1.5"/><rect x="2.00002" y="3" width="18" height="7" rx="1" stroke-width="1.5" stroke="#323232" stroke-linecap="round" stroke-linejoin="round" fill="none"/><rect x="5.00002" y="14" width="17" height="7" rx="1" stroke-width="1.5" stroke="#323232" stroke-linecap="round" stroke-linejoin="round" fill="none"/></svg>