<svg xmlns="http://www.w3.org/2000/svg" viewBox="0 0 24 24"><path d="M3,15H20a1,1,0,0,1,1,1v4a1,1,0,0,1-1,1H10" fill="none" stroke="#323232" stroke-linecap="round" stroke-linejoin="round" stroke-width="1.5"/><path d="M4,3H9a1,1,0,0,1,1,1V21a0,0,0,0,1,0,0H4a1,1,0,0,1-1-1V4A1,1,0,0,1,4,3Z" fill="none" stroke="#323232" stroke-linecap="round" stroke-linejoin="round" stroke-width="1.5"/><path d="M3,9H15a1,1,0,0,1,1,1v5" fill="none" stroke="#323232" stroke-linecap="round" stroke-linejoin="round" stroke-width="1.5"/><rect x="0.00001" width="24" height="24" fill="none"/></svg>