<svg xmlns="http://www.w3.org/2000/svg" viewBox="0 0 24 24"><path d="M20,21V5a2,2,0,0,0-2-2H6A2,2,0,0,0,4,5V21" fill="none" stroke="#323232" stroke-linecap="round" stroke-linejoin="round" stroke-width="1.5"/><line x1="12" y1="3" x2="12" y2="7" fill="none" stroke="#323232" stroke-linecap="round" stroke-linejoin="round" stroke-width="1.5"/><path d="M11.05486,7h1.89028a2,2,0,0,1,1.89737,1.36754l.10541.31623A1,1,0,0,1,13.99923,10H10.00077a1,1,0,0,1-.94869-1.31623l.10541-.31623A2,2,0,0,1,11.05486,7Z" fill="none" stroke="#323232" stroke-linecap="round" stroke-linejoin="round" stroke-width="1.5"/><line x1="9.00002" y1="13.00001" x2="9.00002" y2="13.50001" fill="none" stroke="#323232" stroke-linecap="round" stroke-linejoin="round" stroke-width="1.5"/><line x1="12.00002" y1="13.00001" x2="12.00002" y2="14.00001" fill="none" stroke="#323232" stroke-linecap="round" stroke-linejoin="round" stroke-width="1.5"/><line x1="15.00002" y1="13.00001" x2="15.00002" y2="13.50001" fill="none" stroke="#323232" stroke-linecap="round" stroke-linejoin="round" stroke-width="1.5"/><line x1="15.00002" y1="16.00002" x2="15.00002" y2="17.00002" fill="none" stroke="#323232" stroke-linecap="round" stroke-linejoin="round" stroke-width="1.5"/><line x1="12.00002" y1="16.50002" x2="12.00002" y2="17.00002" fill="none" stroke="#323232" stroke-linecap="round" stroke-linejoin="round" stroke-width="1.5"/><line x1="9.00002" y1="15.99999" x2="9.00002" y2="16.99999" fill="none" stroke="#323232" stroke-linecap="round" stroke-linejoin="round" stroke-width="1.5"/><line x1="21" y1="21" x2="3" y2="21" fill="none" stroke="#323232" stroke-linecap="round" stroke-linejoin="round" stroke-width="1.5"/></svg>