<?xml version="1.0" encoding="UTF-8"?><svg version="1.1" viewBox="0 0 24 24" xmlns="http://www.w3.org/2000/svg" xmlns:xlink="http://www.w3.org/1999/xlink"><!--Generated by IJSVG (https://github.com/iconjar/IJSVG)--><g stroke-linecap="round" stroke-width="1.5" stroke="#323232" fill="none" stroke-linejoin="round"><path d="M20,12h-16c-1.105,0 -2,0.895 -2,2v2.933c0,0.552 0.448,1 1,1h18c0.552,0 1,-0.448 1,-1v-2.933c0,-1.105 -0.895,-2 -2,-2Z"></path><path d="M4,12v-5.067c0,-1.657 1.343,-3 3,-3h10c1.657,0 3,1.343 3,3v5.067"></path><path d="M21,18v1.93"></path><path d="M3,18v1.93"></path><path d="M7.5,12v0c0,-1.657 1.343,-3 3,-3h3c1.657,0 3,1.343 3,3v0"></path></g><path fill="none" d="M0,0h24v24h-24Z"></path></svg>