<svg xmlns="http://www.w3.org/2000/svg" viewBox="0 0 24 24"><path d="M20,19.91448V21" fill="none" stroke="#323232" stroke-linecap="round" stroke-linejoin="round" stroke-width="1.5"/><path d="M4,19.91449V21" fill="none" stroke="#323232" stroke-linecap="round" stroke-linejoin="round" stroke-width="1.5"/><path d="M20,11.05037V9.99984a5,5,0,0,0-5-5H9a5,5,0,0,0-5,5v1.05049" fill="none" stroke="#323232" stroke-linecap="round" stroke-linejoin="round" stroke-width="1.5"/><path d="M4.5,20A1.5,1.5,0,0,1,3,18.5V15.94958A2.5,2.5,0,1,1,6,13.5V16H18V13.5a2.5,2.5,0,1,1,3,2.44958V18.5A1.5,1.5,0,0,1,19.5,20Z" fill="none" stroke="#323232" stroke-linecap="round" stroke-linejoin="round" stroke-width="1.5"/></svg>