<svg xmlns="http://www.w3.org/2000/svg" viewBox="0 0 24 24"><path d="M4,11V8A2,2,0,0,1,6,6H18a2,2,0,0,1,2,2v3" fill="none" stroke="#323232" stroke-linecap="round" stroke-linejoin="round" stroke-width="1.5"/><path d="M3,19H21a1,1,0,0,0,1-1V12a1,1,0,0,0-1-1H19a1,1,0,0,0-1,1v2H6V12a1,1,0,0,0-1-1H3a1,1,0,0,0-1,1v6A1,1,0,0,0,3,19Z" fill="none" stroke="#323232" stroke-linecap="round" stroke-linejoin="round" stroke-width="1.5"/><line x1="4" y1="21" x2="4" y2="19" fill="none" stroke="#323232" stroke-linecap="round" stroke-linejoin="round" stroke-width="1.5"/><line x1="21" y1="21" x2="21" y2="19" fill="none" stroke="#323232" stroke-linecap="round" stroke-linejoin="round" stroke-width="1.5"/><path d="M0,0H24V24H0Z" fill="none"/></svg>