<svg xmlns="http://www.w3.org/2000/svg" viewBox="0 0 24 24"><line x1="4" y1="19" x2="4" y2="21" fill="none" stroke="#323232" stroke-linecap="round" stroke-linejoin="round" stroke-width="1.5"/><line x1="20" y1="19" x2="20" y2="21" fill="none" stroke="#323232" stroke-linecap="round" stroke-linejoin="round" stroke-width="1.5"/><path d="M4,19a2,2,0,0,1-2-2V12.5A1.5,1.5,0,0,1,3.5,11h1A1.5,1.5,0,0,1,6,12.5V15H18V12.5A1.5,1.5,0,0,1,19.5,11h1A1.5,1.5,0,0,1,22,12.5V17a2,2,0,0,1-2,2Z" fill="none" stroke="#323232" stroke-linecap="round" stroke-linejoin="round" stroke-width="1.5"/><path d="M4,11V7A3,3,0,0,1,7,4H17a3,3,0,0,1,3,3v4" fill="none" stroke="#323232" stroke-linecap="round" stroke-linejoin="round" stroke-width="1.5"/></svg>