<svg xmlns="http://www.w3.org/2000/svg" viewBox="0 0 24 24"><path d="M5,7H3A1,1,0,0,0,2,8V18a1,1,0,0,0,1,1H21a1,1,0,0,0,1-1V16a1,1,0,0,0-1-1H6V8A1,1,0,0,0,5,7Z" fill="none" stroke="#323232" stroke-linecap="round" stroke-linejoin="round" stroke-width="1.5"/><line x1="4" y1="21" x2="4" y2="19" fill="none" stroke="#323232" stroke-linecap="round" stroke-linejoin="round" stroke-width="1.5"/><line x1="19" y1="21" x2="19" y2="19" fill="none" stroke="#323232" stroke-linecap="round" stroke-linejoin="round" stroke-width="1.5"/><path d="M6,9H20a1,1,0,0,1,1,1v5" fill="none" stroke="#323232" stroke-linecap="round" stroke-linejoin="round" stroke-width="1.5"/><path d="M0,0H24V24H0Z" fill="none"/></svg>