<svg xmlns="http://www.w3.org/2000/svg" viewBox="0 0 24 24"><path d="M22,12.5V17a2,2,0,0,1-2,2H4a2,2,0,0,1-2-2V12.4A1.4,1.4,0,0,1,3.4,11H4.5A1.5,1.5,0,0,1,6,12.5V15H18V12.5A1.5,1.5,0,0,1,19.5,11h1A1.5,1.5,0,0,1,22,12.5Z" fill="none" stroke="#323232" stroke-linecap="round" stroke-linejoin="round" stroke-width="1.5"/><path d="M5,19v2" fill="none" stroke="#323232" stroke-linecap="round" stroke-linejoin="round" stroke-width="1.5"/><path d="M19,19v2" fill="none" stroke="#323232" stroke-linecap="round" stroke-linejoin="round" stroke-width="1.5"/><path d="M6,12.5V8A2,2,0,0,1,8,6h8a2,2,0,0,1,2,2v4.5" fill="none" stroke="#323232" stroke-linecap="round" stroke-linejoin="round" stroke-width="1.5"/><line x1="10" y1="11" x2="10" y2="11" fill="none" stroke="#323232" stroke-linecap="round" stroke-linejoin="round" stroke-width="1.5"/><line x1="14" y1="11" x2="14" y2="11" fill="none" stroke="#323232" stroke-linecap="round" stroke-linejoin="round" stroke-width="1.5"/><path d="M0,0H24V24H0Z" fill="none"/></svg>