<svg xmlns="http://www.w3.org/2000/svg" viewBox="0 0 24 24"><path d="M4,12V8A2,2,0,0,1,6,6H18a2,2,0,0,1,2,2v4" fill="none" stroke="#323232" stroke-linecap="round" stroke-linejoin="round" stroke-width="1.5"/><path d="M4,19a2,2,0,0,1-2-2V13.5A1.5,1.5,0,0,1,3.5,12h1A1.5,1.5,0,0,1,6,13.5V15H18V13.5A1.5,1.5,0,0,1,19.5,12h1A1.5,1.5,0,0,1,22,13.5V17a2,2,0,0,1-2,2Z" fill="none" stroke="#323232" stroke-linecap="round" stroke-linejoin="round" stroke-width="1.5"/><line x1="3.5" y1="21" x2="4.5" y2="19" fill="none" stroke="#323232" stroke-linecap="round" stroke-linejoin="round" stroke-width="1.5"/><line x1="20.5" y1="21" x2="19.5" y2="19" fill="none" stroke="#323232" stroke-linecap="round" stroke-linejoin="round" stroke-width="1.5"/></svg>