<svg xmlns="http://www.w3.org/2000/svg" viewBox="0 0 24 24"><line x1="3" y1="20.99999" x2="17" y2="20.99999" fill="none" stroke="#323232" stroke-linecap="round" stroke-linejoin="round" stroke-width="1.5"/><path d="M21,20V11a1,1,0,0,0-1-1H16a1,1,0,0,0-1,1v2H12a1,1,0,0,0-1,1v2H6a1,1,0,0,0-1,1v3a1,1,0,0,0,1,1H20A1,1,0,0,0,21,20Z" fill="none" stroke="#323232" stroke-linecap="round" stroke-linejoin="round" stroke-width="1.5"/><line x1="7.5" y1="16" x2="7.4999" y2="10.2619" fill="none" stroke="#323232" stroke-linecap="round" stroke-linejoin="round" stroke-width="1.5"/><line x1="18" y1="10" x2="18" y2="3.08213" fill="none" stroke="#323232" stroke-linecap="round" stroke-linejoin="round" stroke-width="1.5"/><path d="M21,3H18.62475a2,2,0,0,0-1.13842.35562L5,12" fill="none" stroke="#323232" stroke-linecap="round" stroke-linejoin="round" stroke-width="1.5"/><rect width="24" height="24" fill="none"/></svg>