<svg xmlns="http://www.w3.org/2000/svg" viewBox="0 0 24 24"><polyline points="13.5 11 11.5 11 11.5 14" fill="none" stroke="#323232" stroke-linecap="round" stroke-linejoin="round" stroke-width="1.5"/><path d="M17.33,21H6.67a4.375,4.375,0,0,1-4.32255-3.69965l-.33528-2.146A1,1,0,0,1,3.00022,14H20.99978a1,1,0,0,1,.988,1.15437l-.33528,2.146A4.375,4.375,0,0,1,17.33,21Z" fill="none" stroke="#323232" stroke-linecap="round" stroke-linejoin="round" stroke-width="1.5"/><path d="M6,14V7a4,4,0,0,1,4-4h4a4,4,0,0,1,4,4v7" fill="none" stroke="#323232" stroke-linecap="round" stroke-linejoin="round" stroke-width="1.5"/></svg>