<?xml version="1.0" encoding="UTF-8"?><svg version="1.1" viewBox="0 0 24 24" xmlns="http://www.w3.org/2000/svg" xmlns:xlink="http://www.w3.org/1999/xlink"><!--Generated by IJSVG (https://github.com/iconjar/IJSVG)--><g stroke-linecap="round" stroke-width="1.5" stroke="#323232" fill="none" stroke-linejoin="round"><path d="M8.243,15.5h2.68"></path><path d="M9.583,15.5v-5l-1.46,1.32"></path><path d="M12,6.601l-2.132,-2.132l2.132,-2.133"></path><path d="M12,6.6l-1.9,-1.9"></path><path d="M10.102,4.703c0.612,-0.14 1.243,-0.229 1.898,-0.229c4.709,0 8.526,3.817 8.526,8.526c0,4.709 -3.817,8.526 -8.526,8.526c-4.709,0 -8.526,-3.817 -8.526,-8.526c0,-1.919 0.657,-3.671 1.726,-5.095"></path><path d="M13.073,14.811c0.271,0.413 0.725,0.689 1.258,0.689c0.854,0 1.546,-0.692 1.546,-1.545c0,-0.69 -0.56,-1.25 -1.25,-1.25h-1.375l0.25,-2.205h2.161"></path></g><path fill="none" d="M0,0h24v24h-24v-24Z"></path></svg>