<svg xmlns="http://www.w3.org/2000/svg" viewBox="0 0 24 24"><path d="M8.54373,21H5.45616a1.52384,1.52384,0,0,1-1.29706-.73279C2.23019,17.113,2.8101,12.537,5.148,9.63154l-.57042-3.8206A2.44928,2.44928,0,0,1,7,3H7A2.44928,2.44928,0,0,1,9.42243,5.811L8.85193,9.632c2.338,2.905,2.91787,7.481.98884,10.63524A1.52387,1.52387,0,0,1,8.54373,21Z" fill="none" stroke="#323232" stroke-linecap="round" stroke-linejoin="round" stroke-width="1.5"/><line x1="8.87165" y1="9.49994" x2="5.12834" y2="9.49994" fill="none" stroke="#323232" stroke-linecap="round" stroke-linejoin="round" stroke-width="1.5"/><path d="M10.48029,18.94073a6.00372,6.00372,0,1,0-.41706-7.3349" fill="none" stroke="#323232" stroke-linecap="round" stroke-linejoin="round" stroke-width="1.5"/></svg>