<svg xmlns="http://www.w3.org/2000/svg" viewBox="0 0 24 24"><path d="M11.5,11H7.20965A2.70969,2.70969,0,0,1,4.5,8.29026h0" fill="none" stroke="#323232" stroke-linecap="round" stroke-linejoin="round" stroke-width="1.5"/><line x1="10.49999" y1="16" x2="12.49999" y2="18" fill="none" stroke="#323232" stroke-linecap="round" stroke-linejoin="round" stroke-width="1.5"/><line x1="10.49999" y1="18" x2="12.49999" y2="16" fill="none" stroke="#323232" stroke-linecap="round" stroke-linejoin="round" stroke-width="1.5"/><path d="M15.5,13l-2.00008,0A2,2,0,0,1,11.5,11h0a2,2,0,0,1,2-2h2.4645A3.53554,3.53554,0,0,1,19.5,12.53554h0a3.53555,3.53555,0,0,1-1.03554,2.5L16.5,17v2.5A1.5,1.5,0,0,1,15,21H8a1.5,1.5,0,0,1-1.5-1.5V17L5.279,15.07693A4.98579,4.98579,0,0,1,4.5,12.4011c0-.73967,0-2.52944-.00007-4.1854A4.92228,4.92228,0,0,1,8.15226,3.4006a14.18747,14.18747,0,0,1,6.69564.00013A4.92322,4.92322,0,0,1,18.50009,8.217l-.0002,1.85779" fill="none" stroke="#323232" stroke-linecap="round" stroke-linejoin="round" stroke-width="1.5"/></svg>