<svg xmlns="http://www.w3.org/2000/svg" viewBox="0 0 24 24"><path d="M19.5,13h1A1.5,1.5,0,0,1,22,14.5V19a2,2,0,0,1-2,2h0a2,2,0,0,1-2-2V14.5A1.5,1.5,0,0,1,19.5,13Z" fill="none" stroke="#323232" stroke-linecap="round" stroke-linejoin="round" stroke-width="1.5"/><line x1="22" y1="16" x2="18" y2="16" fill="none" stroke="#323232" stroke-linecap="round" stroke-linejoin="round" stroke-width="1.5"/><path d="M4.5,13h1A1.5,1.5,0,0,1,7,14.5V19a2,2,0,0,1-2,2H5a2,2,0,0,1-2-2V14.5A1.5,1.5,0,0,1,4.5,13Z" fill="none" stroke="#323232" stroke-linecap="round" stroke-linejoin="round" stroke-width="1.5"/><line x1="7" y1="16" x2="3" y2="16" fill="none" stroke="#323232" stroke-linecap="round" stroke-linejoin="round" stroke-width="1.5"/><path d="M5,13V8.5A5.5,5.5,0,0,1,10.5,3h0A5.5,5.5,0,0,1,16,8.5h0A3.5,3.5,0,0,1,12.5,12h0A3.5,3.5,0,0,1,9,8.5H9A5.5,5.5,0,0,1,14.5,3h0A5.5,5.5,0,0,1,20,8.5V13" fill="none" stroke="#323232" stroke-linecap="round" stroke-linejoin="round" stroke-width="1.5"/></svg>