<svg xmlns="http://www.w3.org/2000/svg" viewBox="0 0 24 24"><path d="M17.417,9.96992H20.5a1.5,1.5,0,0,1,1.5,1.5v1.06016a1.5,1.5,0,0,1-1.5,1.5H17.417" fill="none" stroke="#323232" stroke-linecap="round" stroke-linejoin="round" stroke-width="1.5"/><path d="M8.78,14A8.62522,8.62522,0,0,0,9,12a8.62484,8.62484,0,0,0-.22-2H3.5A1.5,1.5,0,0,0,2,11.5v1A1.5,1.5,0,0,0,3.5,14Z" fill="none" stroke="#323232" stroke-linecap="round" stroke-linejoin="round" stroke-width="1.5"/><path d="M9.16669,21H14.25c1.79493,0,3.25-4.02944,3.25-9s-1.45507-9-3.25-9H9.16669" fill="none" stroke="#323232" stroke-linecap="round" stroke-linejoin="round" stroke-width="1.5"/><path d="M6,10c.3288-4.00659,1.62036-7,3.16669-7,1.79493,0,3.25,4.02944,3.25,9s-1.45507,9-3.25,9C7.62036,21,6.3288,18.00653,6,14" fill="none" stroke="#323232" stroke-linecap="round" stroke-linejoin="round" stroke-width="1.5"/></svg>