<svg xmlns="http://www.w3.org/2000/svg" viewBox="0 0 24 24"><line x1="21.99999" y1="3" x2="19.83598" y2="9.4919" fill="none" stroke="#323232" stroke-linecap="round" stroke-linejoin="round" stroke-width="1.5"/><line x1="17.48282" y1="8.05128" x2="19.16664" y2="3" fill="none" stroke="#323232" stroke-linecap="round" stroke-linejoin="round" stroke-width="1.5"/><path d="M2,12.82783A3.1228,3.1228,0,0,1,6.07454,9.8536l7.96714,2.54949a1,1,0,0,0,1.2626-.66508L16.2115,8.714a1,1,0,0,1,1.454-.58089l1.83905,1.05088a1,1,0,0,1,.45255,1.18447l-1.843,5.52894A6,6,0,0,1,12.422,20H10.32744" fill="none" stroke="#323232" stroke-linecap="round" stroke-linejoin="round" stroke-width="1.5"/><circle cx="5.49999" cy="17" r="3" fill="none" stroke="#323232" stroke-linecap="round" stroke-linejoin="round" stroke-width="1.5"/><line x1="5.49999" y1="22" x2="5.49999" y2="20" fill="none" stroke="#323232" stroke-linecap="round" stroke-linejoin="round" stroke-width="1.5"/></svg>