<?xml version="1.0" encoding="UTF-8"?><svg version="1.1" viewBox="0 0 24 24" xmlns="http://www.w3.org/2000/svg" xmlns:xlink="http://www.w3.org/1999/xlink"><!--Generated by IJSVG (https://github.com/iconjar/IJSVG)--><path d="M9.224,16.722l-1.527,-1.527c-0.368,-0.368 -0.956,-0.392 -1.353,-0.056l-3.064,2.592c-0.447,0.378 -0.475,1.057 -0.061,1.47l1.998,1.999c0.414,0.414 1.093,0.385 1.47,-0.061l2.593,-3.064c0.336,-0.397 0.312,-0.985 -0.056,-1.353Z" stroke-linecap="round" stroke-width="1.5" fill-rule="evenodd" stroke="#323232" fill="none" stroke-linejoin="round"></path><path fill="none" stroke="#323232" stroke-linecap="round" stroke-linejoin="round" stroke-width="1.5" d="M7.863,6.95c-2.086,2.729 -1.831,6.58 0.598,9.009c2.429,2.429 6.28,2.685 9.009,0.598v0c0.825,-0.631 1.562,-1.368 2.193,-2.193l0.002,-0.003c2.086,-2.729 1.831,-6.58 -0.598,-9.009c-1.972,-1.972 -4.874,-2.484 -7.359,-1.501"></path><g stroke-linecap="round" stroke-width="1.5" stroke="#323232" fill="none" stroke-linejoin="round"><path d="M6.72,9.26l8.44,8.44"></path><path fill-rule="evenodd" d="M11.2678,3.23223c0.976311,0.976311 0.976311,2.55922 0,3.53553c-0.976311,0.976311 -2.55922,0.976311 -3.53553,0c-0.976311,-0.976311 -0.976311,-2.55922 0,-3.53553c0.976311,-0.976311 2.55922,-0.976311 3.53553,-4.44089e-16"></path></g><path fill="none" d="M0,0h24v24h-24Z"></path></svg>