<svg xmlns="http://www.w3.org/2000/svg" viewBox="0 0 24 24"><line x1="17.97675" y1="10.90381" x2="13.09806" y2="6.02512" fill="none" stroke="#323232" stroke-linecap="round" stroke-linejoin="round" stroke-width="1.5"/><line x1="10.90568" y1="17.97488" x2="6.02699" y2="13.09619" fill="none" stroke="#323232" stroke-linecap="round" stroke-linejoin="round" stroke-width="1.5"/><rect x="17.50188" y="9.5" width="3" height="5" rx="1.25" transform="translate(14.0508 -9.92164) rotate(45)" stroke-width="1.5" stroke="#323232" stroke-linecap="round" stroke-linejoin="round" fill="none"/><rect x="3.50186" y="9.5" width="3" height="5" rx="1.25" transform="translate(0.05342 24.02213) rotate(-135)" stroke-width="1.5" stroke="#323232" stroke-linecap="round" stroke-linejoin="round" fill="none"/><rect x="10.50187" y="2.49999" width="3" height="5" rx="1.25" transform="translate(16.95294 17.02212) rotate(-135)" stroke-width="1.5" stroke="#323232" stroke-linecap="round" stroke-linejoin="round" fill="none"/><rect x="10.50187" y="16.50001" width="3" height="5" rx="1.25" transform="translate(16.9503 -2.92163) rotate(45)" stroke-width="1.5" stroke="#323232" stroke-linecap="round" stroke-linejoin="round" fill="none"/><path d="M10.24221,20.7667a4.96684,4.96684,0,0,1-7.0087-7.00736" fill="none" stroke="#323232" stroke-linecap="round" stroke-linejoin="round" stroke-width="1.5"/><path d="M13.75779,3.2333a4.96684,4.96684,0,0,1,7.0087,7.00736" fill="none" stroke="#323232" stroke-linecap="round" stroke-linejoin="round" stroke-width="1.5"/><line x1="17.24033" y1="13.76682" x2="13.77315" y2="17.23576" fill="none" stroke="#323232" stroke-linecap="round" stroke-linejoin="round" stroke-width="1.5"/><line x1="10.24191" y1="6.74918" x2="6.76512" y2="10.22773" fill="none" stroke="#323232" stroke-linecap="round" stroke-linejoin="round" stroke-width="1.5"/></svg>