<svg xmlns="http://www.w3.org/2000/svg" viewBox="0 0 24 24"><path d="M8,3h8a1,1,0,0,1,1,1v6a5,5,0,0,1-5,5h0a5,5,0,0,1-5-5V4A1,1,0,0,1,8,3Z" fill="none" stroke="#323232" stroke-linecap="round" stroke-linejoin="round" stroke-width="1.5"/><path d="M7.41668,12H7A4,4,0,0,1,3,8V6A1,1,0,0,1,4,5H7" fill="none" stroke="#323232" stroke-linecap="round" stroke-linejoin="round" stroke-width="1.5"/><path d="M16.58311,12H17a4,4,0,0,0,4-4V6a1,1,0,0,0-1-1H17" fill="none" stroke="#323232" stroke-linecap="round" stroke-linejoin="round" stroke-width="1.5"/><path d="M15.66589,18H8.33409a1,1,0,0,0-.94869.68377l-.33333,1A1,1,0,0,0,8.00075,21h7.99847a1,1,0,0,0,.94868-1.31623l-.33333-1A1,1,0,0,0,15.66589,18Z" fill="none" stroke="#323232" stroke-linecap="round" stroke-linejoin="round" stroke-width="1.5"/><line x1="11.99998" y1="15" x2="11.99998" y2="18" fill="none" stroke="#323232" stroke-linecap="round" stroke-linejoin="round" stroke-width="1.5"/></svg>