<svg xmlns="http://www.w3.org/2000/svg" viewBox="0 0 24 24"><path d="M5.97416,21H17.00937A2,2,0,0,0,18.889,19.68347L21.87784,11.464a2,2,0,0,0-1.87959-2.68348H13.41812" fill="none" stroke="#323232" stroke-linecap="round" stroke-linejoin="round" stroke-width="1.5"/><path d="M10.77513,2h0A3.66869,3.66869,0,0,0,7.414,4.19821L2.31163,15.86084A3.66869,3.66869,0,0,0,5.67273,21h0a3.66869,3.66869,0,0,0,3.3611-2.19821l5.1024-11.66263A3.66869,3.66869,0,0,0,10.77513,2Z" fill="none" stroke="#323232" stroke-linecap="round" stroke-linejoin="round" stroke-width="1.5"/><path d="M9.03383,18.80179a3.66869,3.66869,0,0,0-3.3611-5.13916h0a3.66869,3.66869,0,0,0-3.3611,2.19821" fill="none" stroke="#323232" stroke-linecap="round" stroke-linejoin="round" stroke-width="1.5"/></svg>