<?xml version="1.0" encoding="UTF-8"?><svg version="1.1" viewBox="0 0 24 24" xmlns="http://www.w3.org/2000/svg" xmlns:xlink="http://www.w3.org/1999/xlink"><g stroke-linecap="round" stroke-width="1.5" stroke="#323232" fill="none" stroke-linejoin="round"><circle cx="12" cy="12" r="9"></circle><circle cx="12" cy="12" r="5.5"></circle><path d="M12.2006 14.0165v0l4.72027e-07-6.30692e-07c.497998-.665392 1.06802-1.2737 1.69967-1.81385l.01049-.009 -2.56006e-09 2.18916e-09c.106972-.0914739.119536-.252346.0280618-.359318 -.0086103-.0100691-.0179927-.0194515-.0280618-.0280618l-.01049-.009 1.43872e-07 1.23029e-07c-.631655-.540148-1.20167-1.14846-1.69967-1.81385v0l1.00124e-08 1.33787e-08c-.0829199-.110799-.23996-.1334-.35076-.0504802 -.0191497.0143313-.036149.0313305-.0504802.0504802v0l1.45623e-07-1.94571e-07c-.497998.665392-1.06802 1.2737-1.69967 1.81385l-.01049.009 -1.43729e-08 1.22905e-08c-.106972.0914739-.119536.252346-.0280618.359318 .0086103.0100691.0179927.0194515.0280618.0280618l.01049.009 -3.82333e-07-3.26946e-07c.631655.540148 1.20167 1.14846 1.69967 1.81385v0l9.94637e-09 1.32906e-08c.0829199.110799.23996.1334.35076.0504803 .0191495-.0143311.0361485-.03133.0504796-.0504794Z"></path><line x1="12" x2="12" y1="6.5" y2="3"></line><line x1="12" x2="12" y1="17.5" y2="21"></line><line x1="18.36" x2="15.89" y1="5.64" y2="8.11"></line><line x1="8.11" x2="5.64" y1="15.89" y2="18.36"></line><line x1="21" x2="17.5" y1="12" y2="12"></line><line x1="6.5" x2="3" y1="12" y2="12"></line><line x1="15.89" x2="18.36" y1="15.89" y2="18.36"></line><line x1="5.64" x2="8.11" y1="5.64" y2="8.11"></line></g><rect width="24" height="24" fill="none"></rect></svg>