<svg xmlns="http://www.w3.org/2000/svg" viewBox="0 0 24 24"><path d="M5,7.76818V5A2,2,0,0,1,7,3H17a2,2,0,0,1,2,2V7.76818" fill="none" stroke="#323232" stroke-linecap="round" stroke-linejoin="round" stroke-width="1.5"/><line x1="15" y1="16.5" x2="9" y2="16.5" fill="none" stroke="#323232" stroke-linecap="round" stroke-linejoin="round" stroke-width="1.5"/><path d="M4.5,12h15A1.5,1.5,0,0,1,21,13.5V19a2,2,0,0,1-2,2H5a2,2,0,0,1-2-2V13.5A1.5,1.5,0,0,1,4.5,12Z" fill="none" stroke="#323232" stroke-linecap="round" stroke-linejoin="round" stroke-width="1.5"/><path d="M4,12.08571V9.5a2,2,0,0,1,2-2H18a2,2,0,0,1,2,2v2.58575" fill="none" stroke="#323232" stroke-linecap="round" stroke-linejoin="round" stroke-width="1.5"/></svg>