<svg xmlns="http://www.w3.org/2000/svg" viewBox="0 0 24 24"><path d="M13,21H6a2,2,0,0,1-2-2H4a2,2,0,0,1,2-2h5" fill="none" stroke="#323232" stroke-linecap="round" stroke-linejoin="round" stroke-width="1.5"/><path d="M21,9V5a2,2,0,0,0-2-2H6A2,2,0,0,0,4,5V19" fill="none" stroke="#323232" stroke-linecap="round" stroke-linejoin="round" stroke-width="1.5"/><path d="M14.5,15a3.5,3.5,0,1,1,5.25,3.01453V19.5a1.5,1.5,0,0,1-1.5,1.5h-.5a1.5,1.5,0,0,1-1.5-1.5V18.01453A3.48511,3.48511,0,0,1,14.5,15Z" fill="none" stroke="#323232" stroke-linecap="round" stroke-linejoin="round" stroke-width="1.5"/><line x1="16.25" y1="18.01453" x2="19.75" y2="18.01453" fill="none" stroke="#323232" stroke-linecap="round" stroke-linejoin="round" stroke-width="1.5"/><rect width="24" height="24" fill="none"/></svg>