<?xml version="1.0" encoding="UTF-8"?><svg version="1.1" viewBox="0 0 24 24" xmlns="http://www.w3.org/2000/svg" xmlns:xlink="http://www.w3.org/1999/xlink"><!--Generated by IJSVG (https://github.com/iconjar/IJSVG)--><g stroke-linecap="round" stroke-width="1.5" stroke="#323232" fill="none" stroke-linejoin="round"><path d="M8,4v13"></path><path d="M19,17v4"></path><path d="M17,4h2c0.552,0 1,0.448 1,1v11c0,0.552 -0.448,1 -1,1h-13c-1.105,0 -2,0.895 -2,2v0c0,1.105 0.895,2 2,2h14"></path><path d="M4,19v-13c0,-1.105 0.895,-2 2,-2h7"></path><path d="M16,3h-2c-0.552,0 -1,0.448 -1,1v5l2,-1l2,1v-5c0,-0.552 -0.448,-1 -1,-1Z"></path></g><path fill="none" d="M0,0h24v24h-24Z"></path></svg>