<svg xmlns="http://www.w3.org/2000/svg" viewBox="0 0 24 24"><line x1="16" y1="21" x2="16" y2="13" fill="none" stroke="#323232" stroke-linecap="round" stroke-linejoin="round" stroke-width="1.5"/><path d="M12,13V7a4,4,0,0,1,4-4h0a4,4,0,0,1,4,4v6" fill="none" stroke="#323232" stroke-linecap="round" stroke-linejoin="round" stroke-width="1.5"/><line x1="8" y1="21" x2="8" y2="13" fill="none" stroke="#323232" stroke-linecap="round" stroke-linejoin="round" stroke-width="1.5"/><path d="M4,13V7A4,4,0,0,1,8,3H8a4,4,0,0,1,4,4v6" fill="none" stroke="#323232" stroke-linecap="round" stroke-linejoin="round" stroke-width="1.5"/><path d="M12,21V13a4,4,0,0,1,4-4h0a4,4,0,0,1,4,4v8" fill="none" stroke="#323232" stroke-linecap="round" stroke-linejoin="round" stroke-width="1.5"/><path d="M4,21V13A4,4,0,0,1,8,9H8a4,4,0,0,1,4,4v8" fill="none" stroke="#323232" stroke-linecap="round" stroke-linejoin="round" stroke-width="1.5"/></svg>