<svg xmlns="http://www.w3.org/2000/svg" viewBox="0 0 24 24"><path d="M0,0H24V24H0Z" fill="none"/><path d="M12,3V7.99916a.5.5,0,0,0,.77735.416L14.5,7.26675l1.72265,1.14843A.5.5,0,0,0,17,7.99916V3a1,1,0,0,0-1-1H13A1,1,0,0,0,12,3Z" fill="none" stroke="#323232" stroke-linecap="round" stroke-linejoin="round" stroke-width="1.5"/><path d="M12,3H6A3,3,0,0,0,3,6V19" fill="none" stroke="#323232" stroke-linecap="round" stroke-linejoin="round" stroke-width="1.5"/><path d="M17,3h3a1,1,0,0,1,1,1V20a1,1,0,0,1-1,1H5a2,2,0,0,1-2-2H3a2,2,0,0,1,2-2H21" fill="none" stroke="#323232" stroke-linecap="round" stroke-linejoin="round" stroke-width="1.5"/></svg>