<svg id="Layer_3" data-name="Layer 3" xmlns="http://www.w3.org/2000/svg" viewBox="0 0 24 24"><path d="M0,0H24V24H0Z" fill="none"/><rect x="3" y="3" width="18" height="18" rx="5" stroke-width="1.5" stroke="#323232" stroke-linecap="round" stroke-linejoin="round" fill="none"/><path d="M17,8.50077v6.1659a1,1,0,0,1-.68377.94868l-4,1.33333a.99991.99991,0,0,1-.63246,0l-4-1.33333A1,1,0,0,1,7,14.66667V8.50077a1,1,0,0,1,1.31623-.94869L11.68377,8.6746a1,1,0,0,0,.63246,0l3.36754-1.12252A1,1,0,0,1,17,8.50077Z" fill="none" stroke="#323232" stroke-linecap="round" stroke-linejoin="round" stroke-width="1.5"/><line x1="12" y1="8.72507" x2="12" y2="17" fill="none" stroke="#323232" stroke-linecap="round" stroke-linejoin="round" stroke-width="1.5"/></svg>