<svg xmlns="http://www.w3.org/2000/svg" viewBox="0 0 24 24"><path d="M12,21H6a2,2,0,0,1-2-2H4a2,2,0,0,1,2-2h4" fill="none" stroke="#323232" stroke-linecap="round" stroke-linejoin="round" stroke-width="1.5"/><path d="M16,14l-2,2,2,2" fill="none" stroke="#323232" stroke-linecap="round" stroke-linejoin="round" stroke-width="1.5"/><path d="M14,16h4.5A2.5,2.5,0,0,1,21,18.5h0A2.5,2.5,0,0,1,18.5,21H16" fill="none" stroke="#323232" stroke-linecap="round" stroke-linejoin="round" stroke-width="1.5"/><path d="M20,12V5a2,2,0,0,0-2-2H6A2,2,0,0,0,4,5V19" fill="none" stroke="#323232" stroke-linecap="round" stroke-linejoin="round" stroke-width="1.5"/><rect width="24" height="24" fill="none"/></svg>