<svg xmlns="http://www.w3.org/2000/svg" viewBox="0 0 24 24"><rect width="24" height="24" fill="none"/><path d="M19.5042,4H15.24A3.61622,3.61622,0,0,0,12,5.9998h0A3.61622,3.61622,0,0,0,8.76,4l-4.2606.0004h0A1.49939,1.49939,0,0,0,3,5.4998v12.001H3a1.49939,1.49939,0,0,0,1.4994,1.4994H8.76A3.61622,3.61622,0,0,1,12,21h0a3.61622,3.61622,0,0,1,3.24-1.9998H19.5a1.5,1.5,0,0,0,1.5-1.5V5.4998a1.49939,1.49939,0,0,0-1.4994-1.4994h0" fill="none" stroke="#323232" stroke-linecap="round" stroke-linejoin="round" stroke-width="1.5"/><line x1="12" y1="6" x2="12" y2="21" fill="none" stroke="#323232" stroke-linecap="round" stroke-linejoin="round" stroke-width="1.5"/></svg>