<?xml version="1.0" encoding="UTF-8"?><svg version="1.1" viewBox="0 0 24 24" xmlns="http://www.w3.org/2000/svg" xmlns:xlink="http://www.w3.org/1999/xlink"><!--Generated by IJSVG (https://github.com/iconjar/IJSVG)--><g stroke-linecap="round" stroke-width="1.5" stroke="#323232" fill="none" stroke-linejoin="round"><path d="M19,11v-6c0,-1.105 -0.895,-2 -2,-2h-12c-1.105,0 -2,0.895 -2,2v13"></path><path d="M7,3v13"></path><path d="M11,16h-6c-1.105,0 -2,0.895 -2,2v0c0,1.105 0.895,2 2,2h6"></path><path d="M19.121,14.879c1.298,1.298 1.158,3.487 -0.418,4.594c-1.003,0.704 -2.404,0.704 -3.407,0c-1.577,-1.106 -1.716,-3.296 -0.418,-4.594c1.172,-1.172 3.072,-1.172 4.243,1.77636e-15"></path><path d="M21,21l-1.88,-1.88"></path></g><path fill="none" d="M0,0h24v24h-24v-24Z"></path></svg>