<svg xmlns="http://www.w3.org/2000/svg" viewBox="0 0 24 24"><path d="M19.5042,4H15.24A3.61622,3.61622,0,0,0,12,5.9998h0A3.61622,3.61622,0,0,0,8.76,4l-4.2606.0004h0A1.49939,1.49939,0,0,0,3,5.4998v12.001H3a1.49939,1.49939,0,0,0,1.4994,1.4994H8.76A3.61622,3.61622,0,0,1,12,21h0a3.61622,3.61622,0,0,1,3.24-1.9998H19.5a1.5,1.5,0,0,0,1.5-1.5V5.4998a1.49939,1.49939,0,0,0-1.4994-1.4994h0" fill="none" stroke="#323232" stroke-linecap="round" stroke-linejoin="round" stroke-width="1.5"/><path d="M12.005,9,12,9.005,11.995,9,12,8.995,12.005,9" fill="none" stroke="#323232" stroke-linecap="round" stroke-linejoin="round" stroke-width="1.5"/><path d="M12.005,11.5,12,11.505l-.005-.005L12,11.495l.005.005" fill="none" stroke="#323232" stroke-linecap="round" stroke-linejoin="round" stroke-width="1.5"/><path d="M12.005,14,12,14.005,11.995,14,12,13.995l.005.005" fill="none" stroke="#323232" stroke-linecap="round" stroke-linejoin="round" stroke-width="1.5"/><path d="M12.005,16.5,12,16.505l-.005-.005L12,16.495l.005.005" fill="none" stroke="#323232" stroke-linecap="round" stroke-linejoin="round" stroke-width="1.5"/><rect width="24" height="24" fill="none"/></svg>