<?xml version="1.0" encoding="UTF-8"?><svg version="1.1" viewBox="0 0 24 24" xmlns="http://www.w3.org/2000/svg" xmlns:xlink="http://www.w3.org/1999/xlink"><!--Generated by IJSVG (https://github.com/iconjar/IJSVG)--><g fill="none"><path d="M0,0h24v24h-24Z"></path><path stroke="#323232" stroke-linecap="round" stroke-linejoin="round" stroke-width="1.5" d="M17.35,2.536c0.512,0.047 0.9,0.485 0.9,0.999v5.132l-1.75,-1.167l-1.75,1.167v-5.108c0,-0.508 0.38,-0.938 0.885,-0.998c0.318,-0.038 0.639,-0.06 0.961,-0.06c0.252,-0.001 0.503,0.012 0.754,0.035Z"></path><path stroke="#323232" stroke-linecap="round" stroke-linejoin="round" stroke-width="1.5" d="M18.25,3.713c0.839,0.193 1.641,0.511 2.343,0.987c0.264,0.178 0.407,0.491 0.407,0.81v12.729c0,0.721 -0.74,1.205 -1.397,0.909c-2.423,-1.089 -5.543,-0.805 -7.603,0.852c-2.06,-1.657 -5.18,-1.941 -7.603,-0.852c-0.657,0.296 -1.397,-0.187 -1.397,-0.908v-12.726c0,-0.322 0.146,-0.638 0.413,-0.818c2.501,-1.69 6.235,-1.588 8.587,0.304c0.792,-0.637 1.745,-1.053 2.75,-1.284"></path><path stroke="#323232" stroke-linecap="round" stroke-linejoin="round" stroke-width="1.5" d="M12,20v-15"></path></g></svg>