<svg id="Layer_3" data-name="Layer 3" xmlns="http://www.w3.org/2000/svg" viewBox="0 0 24 24"><path d="M10.54085,3.5h3.49553A6.96363,6.96363,0,0,1,21,10.46363v.07228a6.96363,6.96363,0,0,1-6.96363,6.96363H13.01309A.01309.01309,0,0,0,13,17.51263V19.775a.724.724,0,0,1-1.07288.63438L6.90686,17.64831A7.54085,7.54085,0,0,1,3,11.04086v0A7.54084,7.54084,0,0,1,10.54085,3.5Z" fill="none" stroke="#323232" stroke-linecap="round" stroke-linejoin="round" stroke-width="1.5"/><line x1="9" y1="9.5" x2="15" y2="9.5" fill="none" stroke="#323232" stroke-linecap="round" stroke-linejoin="round" stroke-width="1.5"/><line x1="9" y1="12.5" x2="11.4" y2="12.5" fill="none" stroke="#323232" stroke-linecap="round" stroke-linejoin="round" stroke-width="1.5"/><rect width="24" height="24" fill="none"/></svg>