<svg xmlns="http://www.w3.org/2000/svg" viewBox="0 0 24 24"><path d="M5,7.1937v-2.327A1.86667,1.86667,0,0,1,6.86667,3H17.13333A1.86667,1.86667,0,0,1,19,4.86667v2.327" fill="none" stroke="#323232" stroke-linecap="round" stroke-linejoin="round" stroke-width="1.5"/><path d="M18.59864,21H5.40136a2,2,0,0,1-1.99492-1.8575L3.00525,13.526a2.03343,2.03343,0,0,1,2.02826-2.1783H18.96657a2.03334,2.03334,0,0,1,2.02818,2.17822l-.40119,5.61656A2,2,0,0,1,18.59864,21Z" fill="none" stroke="#323232" stroke-linecap="round" stroke-linejoin="round" stroke-width="1.5"/><path d="M19.80988,11.5321l.18542-2.59588A1.80742,1.80742,0,0,0,18.19244,7H5.80756A1.80742,1.80742,0,0,0,4.0047,8.93622l.18542,2.596" fill="none" stroke="#323232" stroke-linecap="round" stroke-linejoin="round" stroke-width="1.5"/><path d="M0,24V0H24V24Z" fill="none"/></svg>