<svg xmlns="http://www.w3.org/2000/svg" viewBox="0 0 24 24"><rect width="24" height="24" fill="none"/><path d="M20.41421,14.41421,14.17157,8.17157A4,4,0,0,0,11.34315,7H5A2,2,0,0,0,3,9V19a2,2,0,0,0,2,2H19a2,2,0,0,0,2-2V15.82843A2,2,0,0,0,20.41421,14.41421Z" fill="none" stroke="#323232" stroke-linecap="round" stroke-linejoin="round" stroke-width="1.5"/><path d="M4,7.26862V5A2,2,0,0,1,6,3H18a2,2,0,0,1,2,2v9" fill="none" stroke="#323232" stroke-linecap="round" stroke-linejoin="round" stroke-width="1.5"/><rect x="6" y="15" width="5" height="3" rx="0.5" stroke-width="1.5" stroke="#323232" stroke-linecap="round" stroke-linejoin="round" fill="none"/></svg>