<svg xmlns="http://www.w3.org/2000/svg" viewBox="0 0 24 24"><path d="M21,8.5H17.33333A1.83333,1.83333,0,0,1,15.5,6.66667V3" fill="none" stroke="#323232" stroke-linecap="round" stroke-linejoin="round" stroke-width="1.5"/><path d="M6,21H18a3,3,0,0,0,3-3V8.24264a3,3,0,0,0-.87868-2.12132L17.87868,3.87868A3,3,0,0,0,15.75736,3H6A3,3,0,0,0,3,6V18A3,3,0,0,0,6,21Z" fill="none" stroke="#323232" stroke-linecap="round" stroke-linejoin="round" stroke-width="1.5"/><line x1="8" y1="12" x2="16" y2="12" fill="none" stroke="#323232" stroke-linecap="round" stroke-linejoin="round" stroke-width="1.5"/><line x1="8" y1="16" x2="16" y2="16" fill="none" stroke="#323232" stroke-linecap="round" stroke-linejoin="round" stroke-width="1.5"/><line x1="8" y1="8" x2="11" y2="8" fill="none" stroke="#323232" stroke-linecap="round" stroke-linejoin="round" stroke-width="1.5"/></svg>