<svg xmlns="http://www.w3.org/2000/svg" viewBox="0 0 24 24"><path d="M11,3H7A4,4,0,0,0,3,7V17a4,4,0,0,0,4,4H17a4,4,0,0,0,4-4V13" fill="none" stroke="#323232" stroke-linecap="round" stroke-linejoin="round" stroke-width="1.5"/><line x1="7" y1="12" x2="8.5" y2="12" fill="none" stroke="#323232" stroke-linecap="round" stroke-linejoin="round" stroke-width="1.5"/><line x1="7" y1="16" x2="17" y2="16" fill="none" stroke="#323232" stroke-linecap="round" stroke-linejoin="round" stroke-width="1.5"/><line x1="7" y1="8" x2="8.5" y2="8" fill="none" stroke="#323232" stroke-linecap="round" stroke-linejoin="round" stroke-width="1.5"/><path d="M17.5,6.5,12,12" fill="none" stroke="#323232" stroke-linecap="round" stroke-linejoin="round" stroke-width="1.5"/><path d="M18.74752,10.12754a7.99572,7.99572,0,0,0,2.25235-5.65672,1.483,1.483,0,0,0-1.47069-1.47069,7.99575,7.99575,0,0,0-5.65673,2.25234" fill="none" stroke="#323232" stroke-linecap="round" stroke-linejoin="round" stroke-width="1.5"/><path d="M18.74749,10.12751c-1.61715,1.61714-4.01942,1.83679-5.36563.49058s-1.12656-3.74847.49059-5.36562" fill="none" stroke="#323232" stroke-linecap="round" stroke-linejoin="round" stroke-width="1.5"/><path d="M0,0V24H24V0Z" fill="none"/></svg>