<svg xmlns="http://www.w3.org/2000/svg" viewBox="0 0 24 24"><path d="M0,0V24H24V0Z" fill="none"/><path d="M21,15H17a2,2,0,0,0-2,2v4" fill="none" stroke="#323232" stroke-linecap="round" stroke-linejoin="round" stroke-width="1.5"/><path d="M7,3H17a4,4,0,0,1,4,4v8.34315a4,4,0,0,1-1.17157,2.82842l-1.65686,1.65686A4,4,0,0,1,15.34315,21H7a4,4,0,0,1-4-4V7A4,4,0,0,1,7,3Z" fill="none" stroke="#323232" stroke-linecap="round" stroke-linejoin="round" stroke-width="1.5"/><line x1="8" y1="12" x2="16" y2="12" fill="none" stroke="#323232" stroke-linecap="round" stroke-linejoin="round" stroke-width="1.5"/><line x1="8" y1="8" x2="16" y2="8" fill="none" stroke="#323232" stroke-linecap="round" stroke-linejoin="round" stroke-width="1.5"/><line x1="8" y1="16" x2="11" y2="16" fill="none" stroke="#323232" stroke-linecap="round" stroke-linejoin="round" stroke-width="1.5"/></svg>