<svg xmlns="http://www.w3.org/2000/svg" viewBox="0 0 24 24"><path d="M0,24V0H24V24Z" fill="none"/><path d="M9,4H7A4,4,0,0,0,3,8v9a4,4,0,0,0,4,4H17a4,4,0,0,0,4-4V13" fill="none" stroke="#323232" stroke-linecap="round" stroke-linejoin="round" stroke-width="1.5"/><line x1="8" y1="16" x2="16" y2="16" fill="none" stroke="#323232" stroke-linecap="round" stroke-linejoin="round" stroke-width="1.5"/><path d="M16,7.5,11.5,12" fill="none" stroke="#323232" stroke-linecap="round" stroke-linejoin="round" stroke-width="1.5"/><path d="M18.24754,10.12752A7.99572,7.99572,0,0,0,20.49989,4.4708,1.483,1.483,0,0,0,19.0292,3.00011a7.99573,7.99573,0,0,0-5.65673,2.25234" fill="none" stroke="#323232" stroke-linecap="round" stroke-linejoin="round" stroke-width="1.5"/><path d="M18.24751,10.12748c-1.61715,1.61715-4.01942,1.8368-5.36562.49059s-1.12656-3.74847.49058-5.36562" fill="none" stroke="#323232" stroke-linecap="round" stroke-linejoin="round" stroke-width="1.5"/></svg>