<svg xmlns="http://www.w3.org/2000/svg" viewBox="0 0 24 24"><path d="M21,5V17.66667a3,3,0,0,1-.6,1.8L19.4,20.8a.5.5,0,0,1-.8,0l-1-1.33333a3,3,0,0,1-.6-1.8V5a2,2,0,0,1,2-2h0A2,2,0,0,1,21,5Z" fill="none" stroke="#323232" stroke-linecap="round" stroke-linejoin="round" stroke-width="1.5"/><path d="M14,21H6a3,3,0,0,1-3-3V6A3,3,0,0,1,6,3h8" fill="none" stroke="#323232" stroke-linecap="round" stroke-linejoin="round" stroke-width="1.5"/><line x1="21" y1="7" x2="17" y2="7" fill="none" stroke="#323232" stroke-linecap="round" stroke-linejoin="round" stroke-width="1.5"/><line x1="8" y1="21" x2="8" y2="3" fill="none" stroke="#323232" stroke-linecap="round" stroke-linejoin="round" stroke-width="1.5"/><rect width="24" height="24" fill="none"/></svg>