<svg id="Layer_3" data-name="Layer 3" xmlns="http://www.w3.org/2000/svg" viewBox="0 0 24 24"><rect width="24" height="24" fill="none"/><line x1="2.99999" y1="15.99999" x2="5.99999" y2="15.99999" fill="none" stroke="#323232" stroke-linecap="round" stroke-linejoin="round" stroke-width="1.5"/><line x1="2.99999" y1="8.49999" x2="5.99999" y2="8.49999" fill="none" stroke="#323232" stroke-linecap="round" stroke-linejoin="round" stroke-width="1.5"/><line x1="2.99999" y1="12.24999" x2="5.99999" y2="12.24999" fill="none" stroke="#323232" stroke-linecap="round" stroke-linejoin="round" stroke-width="1.5"/><path d="M12,3H7.5a3,3,0,0,0-3,3V18a3,3,0,0,0,3,3H18a3,3,0,0,0,3-3V6a3,3,0,0,0-3-3H17" fill="none" stroke="#323232" stroke-linecap="round" stroke-linejoin="round" stroke-width="1.5"/><path d="M12,3V7.99916a.5.5,0,0,0,.77735.416L14.5,7.26675l1.72265,1.14843A.5.5,0,0,0,17,7.99916V3a1,1,0,0,0-1-1H13A1,1,0,0,0,12,3Z" fill="none" stroke="#323232" stroke-linecap="round" stroke-linejoin="round" stroke-width="1.5"/></svg>