<svg xmlns="http://www.w3.org/2000/svg" viewBox="0 0 24 24"><path d="M12,6V8" fill="none" stroke="#323232" stroke-linecap="round" stroke-linejoin="round" stroke-width="1.5"/><circle cx="12" cy="4" r="2" fill="none" stroke="#323232" stroke-linecap="round" stroke-linejoin="round" stroke-width="1.5"/><path d="M21,15.5H17.33333A1.83333,1.83333,0,0,0,15.5,17.33333V21" fill="none" stroke="#323232" stroke-linecap="round" stroke-linejoin="round" stroke-width="1.5"/><path d="M7,5H5A1.99945,1.99945,0,0,0,3,7V19a2,2,0,0,0,2,2H16.17157a2,2,0,0,0,1.41422-.58579l2.82842-2.82842A2,2,0,0,0,21,16.17157V7a1.99945,1.99945,0,0,0-2-2H17" fill="none" stroke="#323232" stroke-linecap="round" stroke-linejoin="round" stroke-width="1.5"/></svg>