<svg xmlns="http://www.w3.org/2000/svg" viewBox="0 0 24 24"><line x1="2.99999" y1="15.99999" x2="5.99999" y2="15.99999" fill="none" stroke="#323232" stroke-linecap="round" stroke-linejoin="round" stroke-width="1.5"/><line x1="2.99999" y1="8" x2="5.99999" y2="8" fill="none" stroke="#323232" stroke-linecap="round" stroke-linejoin="round" stroke-width="1.5"/><line x1="2.99999" y1="11.99999" x2="5.99999" y2="11.99999" fill="none" stroke="#323232" stroke-linecap="round" stroke-linejoin="round" stroke-width="1.5"/><path d="M12,2.83333V7.999a.5.5,0,0,0,.81781.386L14.5,7l1.68219,1.385A.5.5,0,0,0,17,7.999V2.83333A.83334.83334,0,0,0,16.16667,2H12.83333A.83334.83334,0,0,0,12,2.83333Z" fill="none" stroke="#323232" stroke-linecap="round" stroke-linejoin="round" stroke-width="1.5"/><path d="M17,3h2a2,2,0,0,1,2,2V19a2,2,0,0,1-2,2H6.5a2,2,0,0,1-2-2V5a2,2,0,0,1,2-2H12" fill="none" stroke="#323232" stroke-linecap="round" stroke-linejoin="round" stroke-width="1.5"/></svg>