<svg xmlns="http://www.w3.org/2000/svg" viewBox="0 0 24 24"><path d="M21,15H17a2,2,0,0,0-2,2v4" fill="none" stroke="#323232" stroke-linecap="round" stroke-linejoin="round" stroke-width="1.5"/><path d="M6,3H19a2,2,0,0,1,2,2V15.34315a4,4,0,0,1-1.17157,2.82842l-1.65686,1.65686A4,4,0,0,1,15.34315,21H6a2,2,0,0,1-2-2V5A2,2,0,0,1,6,3Z" fill="none" stroke="#323232" stroke-linecap="round" stroke-linejoin="round" stroke-width="1.5"/><line x1="2.5" y1="16.5" x2="5.5" y2="16.5" fill="none" stroke="#323232" stroke-linecap="round" stroke-linejoin="round" stroke-width="1.5"/><line x1="2.5" y1="7.5" x2="5.5" y2="7.5" fill="none" stroke="#323232" stroke-linecap="round" stroke-linejoin="round" stroke-width="1.5"/><line x1="2.5" y1="12" x2="5.5" y2="12" fill="none" stroke="#323232" stroke-linecap="round" stroke-linejoin="round" stroke-width="1.5"/><path d="M0,0V24H24V0Z" fill="none"/></svg>