<svg xmlns="http://www.w3.org/2000/svg" viewBox="0 0 24 24"><path d="M14,3H6A2,2,0,0,0,4,5V19a2,2,0,0,0,2,2H19a2,2,0,0,0,2-2V12" fill="none" stroke="#323232" stroke-linecap="round" stroke-linejoin="round" stroke-width="1.5"/><line x1="2.5" y1="7.5" x2="5.5" y2="7.5" fill="none" stroke="#323232" stroke-linecap="round" stroke-linejoin="round" stroke-width="1.5"/><line x1="2.5" y1="16.5" x2="5.5" y2="16.5" fill="none" stroke="#323232" stroke-linecap="round" stroke-linejoin="round" stroke-width="1.5"/><line x1="2.5" y1="12" x2="5.5" y2="12" fill="none" stroke="#323232" stroke-linecap="round" stroke-linejoin="round" stroke-width="1.5"/><path d="M13.97153,8.2l4.76071-4.7607a1.5,1.5,0,0,1,2.12132,0l.7071.70711a1.5,1.5,0,0,1,0,2.12132L16.8,11.02846a2.5,2.5,0,0,1-1.41421.70711l-1.81491.25927a.5.5,0,0,1-.56568-.56568l.25927-1.8149A2.50005,2.50005,0,0,1,13.97153,8.2Z" fill="none" stroke="#323232" stroke-linecap="round" stroke-linejoin="round" stroke-width="1.5"/><line x1="20.20875" y1="7.61967" x2="17.38033" y2="4.79125" fill="none" stroke="#323232" stroke-linecap="round" stroke-linejoin="round" stroke-width="1.5"/></svg>