<svg xmlns="http://www.w3.org/2000/svg" viewBox="0 0 24 24"><line x1="7" y1="3" x2="7" y2="21" fill="none" stroke="#323232" stroke-linecap="round" stroke-linejoin="round" stroke-width="1.5"/><path d="M21,15.5H17.5a2,2,0,0,0-2,2V21" fill="none" stroke="#323232" stroke-linecap="round" stroke-linejoin="round" stroke-width="1.5"/><line x1="11" y1="10" x2="17" y2="10" fill="none" stroke="#323232" stroke-linecap="round" stroke-linejoin="round" stroke-width="1.5"/><line x1="11" y1="14" x2="13" y2="14" fill="none" stroke="#323232" stroke-linecap="round" stroke-linejoin="round" stroke-width="1.5"/><path d="M3,5V19a2,2,0,0,0,2,2H16.17157a2,2,0,0,0,1.41422-.58579l2.82842-2.82842A2,2,0,0,0,21,16.17157V5a2,2,0,0,0-2-2H5A2,2,0,0,0,3,5Z" fill="none" stroke="#323232" stroke-linecap="round" stroke-linejoin="round" stroke-width="1.5"/></svg>