<svg xmlns="http://www.w3.org/2000/svg" viewBox="0 0 24 24"><path d="M24,24H0V0H24Z" fill="none"/><path d="M18,5l1.63246.54415A2,2,0,0,1,21,7.44152v9.117a2,2,0,0,1-1.36754,1.89737L18,19" fill="none" stroke="#323232" stroke-linecap="round" stroke-linejoin="round" stroke-width="1.5"/><path d="M21,9.75H18" fill="none" stroke="#323232" stroke-linecap="round" stroke-linejoin="round" stroke-width="1.5"/><path d="M21,14.25H18" fill="none" stroke="#323232" stroke-linecap="round" stroke-linejoin="round" stroke-width="1.5"/><path d="M16,3H5A1.99945,1.99945,0,0,0,3,5V19a1.99945,1.99945,0,0,0,2,2H16a1.99945,1.99945,0,0,0,2-2V5a1.99945,1.99945,0,0,0-2-2" fill="none" stroke="#323232" stroke-linecap="round" stroke-linejoin="round" stroke-width="1.5"/></svg>