<svg xmlns="http://www.w3.org/2000/svg" viewBox="0 0 24 24"><path d="M6,3H18a2,2,0,0,1,2,2V17a2,2,0,0,1-2,2H16" fill="none" stroke="#323232" stroke-linecap="round" stroke-linejoin="round" stroke-width="1.5"/><line x1="8" y1="13.66659" x2="12" y2="15" fill="none" stroke="#323232" stroke-linecap="round" stroke-linejoin="round" stroke-width="1.5"/><line x1="8" y1="9.66659" x2="12" y2="11" fill="none" stroke="#323232" stroke-linecap="round" stroke-linejoin="round" stroke-width="1.5"/><path d="M13.36754,21.89583l-8-2.66666A2,2,0,0,1,4,17.3318V5.00153A2,2,0,0,1,6.63246,3.10417l8,2.66666A2,2,0,0,1,16,7.6682V19.99847A2,2,0,0,1,13.36754,21.89583Z" fill="none" stroke="#323232" stroke-linecap="round" stroke-linejoin="round" stroke-width="1.5"/></svg>