<svg xmlns="http://www.w3.org/2000/svg" viewBox="0 0 24 24"><path d="M13,5a3,3,0,0,0-3-3H6.4994A1.49939,1.49939,0,0,0,5,3.4994V16.5002a1.5,1.5,0,0,0,1.5,1.5h3.5002A2.9998,2.9998,0,0,1,13,21h0Z" fill="none" stroke="#323232" stroke-linecap="round" stroke-linejoin="round" stroke-width="1.5"/><line x1="16" y1="9" x2="19" y2="9" fill="none" stroke="#323232" stroke-linecap="round" stroke-linejoin="round" stroke-width="1.5"/><line x1="16" y1="12.5" x2="19" y2="12.5" fill="none" stroke="#323232" stroke-linecap="round" stroke-linejoin="round" stroke-width="1.5"/><line x1="16" y1="16" x2="19" y2="16" fill="none" stroke="#323232" stroke-linecap="round" stroke-linejoin="round" stroke-width="1.5"/><path d="M12.82666,4H20a2,2,0,0,1,2,2V19a2,2,0,0,1-2,2H4a2,2,0,0,1-2-2V6A2,2,0,0,1,4,4H5" fill="none" stroke="#323232" stroke-linecap="round" stroke-linejoin="round" stroke-width="1.5"/></svg>