<svg xmlns="http://www.w3.org/2000/svg" viewBox="0 0 24 24"><path d="M5.5,4.08416v13.027a1.08333,1.08333,0,0,0,.74075,1.02774l5.41667,1.80556a1.08339,1.08339,0,0,0,.68516,0l5.41667-1.80556A1.08333,1.08333,0,0,0,18.5,17.11111V4.08416a1.08333,1.08333,0,0,0-1.42591-1.02774L12,4.74779,6.92591,3.05642A1.08333,1.08333,0,0,0,5.5,4.08416Z" fill="none" stroke="#323232" stroke-linecap="round" stroke-linejoin="round" stroke-width="1.5"/><line x1="12" y1="4.74779" x2="12" y2="20" fill="none" stroke="#323232" stroke-linecap="round" stroke-linejoin="round" stroke-width="1.5"/><path d="M5,5H4A2,2,0,0,0,2,7V19a2,2,0,0,0,2,2H20a2,2,0,0,0,2-2V7a2,2,0,0,0-2-2H19" fill="none" stroke="#323232" stroke-linecap="round" stroke-linejoin="round" stroke-width="1.5"/><path d="M0,0H24V24H0Z" fill="none"/></svg>