<svg xmlns="http://www.w3.org/2000/svg" viewBox="0 0 24 24"><path d="M18.5,4.50115a1.5,1.5,0,0,0-1.97434-1.423L12,4.58668,7.47434,3.07813A1.5,1.5,0,0,0,5.5,4.50115" fill="none" stroke="#323232" stroke-linecap="round" stroke-linejoin="round" stroke-width="1.5"/><path d="M5.5,4.50115v10.17a1,1,0,0,0,.68377.94869l5.5,1.83333a1,1,0,0,0,.63246,0l5.5-1.83333A1,1,0,0,0,18.5,14.67117v-10.17" fill="none" stroke="#323232" stroke-linecap="round" stroke-linejoin="round" stroke-width="1.5"/><line x1="12" y1="4.58668" x2="12" y2="17.50451" fill="none" stroke="#323232" stroke-linecap="round" stroke-linejoin="round" stroke-width="1.5"/><path d="M5.5,5.78,3.31622,5.05206A1,1,0,0,0,2,6.00073v10.693a1.5,1.5,0,0,0,1.02563,1.423l8.34192,2.78064a2,2,0,0,0,1.2649,0l8-2.66663A2.00007,2.00007,0,0,0,22,16.33331V6.00073a1,1,0,0,0-1.31622-.94867L18.5,5.78" fill="none" stroke="#323232" stroke-linecap="round" stroke-linejoin="round" stroke-width="1.5"/></svg>