<svg xmlns="http://www.w3.org/2000/svg" viewBox="0 0 24 24"><path d="M2,20.5l.12128-.283A5.30788,5.30788,0,0,1,7,17H7a5.30788,5.30788,0,0,1,4.87872,3.217L12,20.5" fill="none" stroke="#323232" stroke-linecap="round" stroke-linejoin="round" stroke-width="1.5"/><path d="M12,20.5l.12128-.283A5.30788,5.30788,0,0,1,17,17h0a5.30788,5.30788,0,0,1,4.87872,3.217L22,20.5" fill="none" stroke="#323232" stroke-linecap="round" stroke-linejoin="round" stroke-width="1.5"/><path d="M12,21V7.53113a3.88284,3.88284,0,0,1,.51158-1.9264h0A5.16954,5.16954,0,0,1,17,3h0a5.16953,5.16953,0,0,1,4.48841,2.60473h0A3.88284,3.88284,0,0,1,22,7.53113V20.5a.5.5,0,0,1-.5.5H2.5a.5.5,0,0,1-.5-.5V7.53113a3.88284,3.88284,0,0,1,.51158-1.9264h0A5.16954,5.16954,0,0,1,7,3H7a5.16954,5.16954,0,0,1,4.48842,2.60473h0A3.88284,3.88284,0,0,1,12,7.53113Z" fill="none" stroke="#323232" stroke-linecap="round" stroke-linejoin="round" stroke-width="1.5"/></svg>