<svg xmlns="http://www.w3.org/2000/svg" viewBox="0 0 24 24"><path d="M3,5.86194V19.12681a1.00328,1.00328,0,0,0,1.47041.87881A6.87264,6.87264,0,0,1,12,21a6.87264,6.87264,0,0,1,7.52961-.99438A1.00328,1.00328,0,0,0,21,19.12681V5.86194a1.9992,1.9992,0,0,0-.7697-1.58719A6.115,6.115,0,0,0,12,4.96878a6.115,6.115,0,0,0-8.23031-.694A1.9992,1.9992,0,0,0,3,5.86194Z" fill="none" stroke="#323232" stroke-linecap="round" stroke-linejoin="round" stroke-width="1.5"/><line x1="12" y1="21" x2="12" y2="4.96878" fill="none" stroke="#323232" stroke-linecap="round" stroke-linejoin="round" stroke-width="1.5"/></svg>