<svg xmlns="http://www.w3.org/2000/svg" viewBox="0 0 24 24"><rect width="24" height="24" fill="none"/><path d="M11.17126,3.9994H4a2,2,0,0,0-2,2V19a2,2,0,0,0,2,2H20a2,2,0,0,0,2-2V5.9994a2,2,0,0,0-2-2H19" fill="none" stroke="#323232" stroke-linecap="round" stroke-linejoin="round" stroke-width="1.5"/><path d="M11,5a3,3,0,0,1,3-3h3.5006A1.49939,1.49939,0,0,1,19,3.4994V16.5002a1.5,1.5,0,0,1-1.5,1.5H13.9998A2.9998,2.9998,0,0,0,11,21h0Z" fill="none" stroke="#323232" stroke-linecap="round" stroke-linejoin="round" stroke-width="1.5"/><path d="M0,0H24V24H0Z" fill="none"/></svg>