<svg xmlns="http://www.w3.org/2000/svg" viewBox="0 0 24 24"><path d="M7,9.03167v6.52007a.50292.50292,0,0,0,.7539.42751A3.81852,3.81852,0,0,1,12,16.5a3.81852,3.81852,0,0,1,4.24611-.52075A.50292.50292,0,0,0,17,15.55174V9.03167a1.09159,1.09159,0,0,0-.32011-.7378A3.39813,3.39813,0,0,0,12,8.59376a3.39813,3.39813,0,0,0-4.67989-.29989A1.09159,1.09159,0,0,0,7,9.03167Z" fill="none" stroke="#323232" stroke-linecap="round" stroke-linejoin="round" stroke-width="1.5"/><line x1="12" y1="16.5" x2="12" y2="8.59376" fill="none" stroke="#323232" stroke-linecap="round" stroke-linejoin="round" stroke-width="1.5"/><circle cx="12" cy="12" r="10" fill="none" stroke="#323232" stroke-linecap="round" stroke-linejoin="round" stroke-width="1.5"/></svg>