<?xml version="1.0" encoding="UTF-8"?><svg version="1.1" viewBox="0 0 24 24" xmlns="http://www.w3.org/2000/svg" xmlns:xlink="http://www.w3.org/1999/xlink"><!--Generated by IJSVG (https://github.com/iconjar/IJSVG)--><path d="M0,0h24v24h-24Z" fill="none" fill-rule="evenodd"></path><path fill="none" stroke="#323232" stroke-linecap="round" stroke-linejoin="round" stroke-width="1.5" d="M21,13.067v5.905c0,1.12 -0.901,2.028 -2.013,2.028h-13.974c-1.112,0 -2.013,-0.908 -2.013,-2.028v-12.944c0,-1.12 0.901,-2.028 2.013,-2.028h6.987"></path><g stroke-linecap="round" stroke-width="1.5" stroke="#323232" fill="none" stroke-linejoin="round"><path d="M7.828,17.172l3.731,-0.933c0.176,-0.044 0.336,-0.135 0.465,-0.263l8.39,-8.39c0.781,-0.781 0.781,-2.047 0,-2.828l-0.172,-0.172c-0.781,-0.781 -2.047,-0.781 -2.828,0l-8.39,8.39c-0.128,0.128 -0.219,0.289 -0.263,0.465l-0.933,3.731"></path><path d="M15.83,6.17l3,3"></path><path d="M11.546,16.242c0.014,-0.106 0.032,-0.211 0.032,-0.321c0,-1.381 -1.119,-2.5 -2.5,-2.5c-0.11,0 -0.215,0.019 -0.321,0.032"></path></g></svg>