<svg xmlns="http://www.w3.org/2000/svg" viewBox="0 0 24 24"><path d="M0,24V0H24V24Z" fill="none"/><path d="M0,24V0H24V24Z" fill="none"/><rect x="3" y="3" width="18" height="18" rx="5" stroke-width="1.5" stroke="#323232" stroke-linecap="round" stroke-linejoin="round" fill="none"/><path d="M16,16H8.5A1.5,1.5,0,0,1,7,14.5H7A1.5,1.5,0,0,1,8.5,13H9" fill="none" stroke="#323232" stroke-linecap="round" stroke-linejoin="round" stroke-width="1.5"/><path d="M15.77893,8.2929l.9281.9281a1,1,0,0,1,0,1.41427L14.6352,12.7071A1,1,0,0,1,13.92807,13H12.24994a.25.25,0,0,1-.25-.25V11.07186a1,1,0,0,1,.2929-.70713L14.36467,8.2929A1,1,0,0,1,15.77893,8.2929Z" fill="none" stroke="#323232" stroke-linecap="round" stroke-linejoin="round" stroke-width="1.5"/></svg>