<svg xmlns="http://www.w3.org/2000/svg" viewBox="0 0 24 24"><path d="M11,4H8A5,5,0,0,0,3,9v7a5,5,0,0,0,5,5h8a5,5,0,0,0,5-5V10" fill="none" stroke="#323232" stroke-linecap="round" stroke-linejoin="round" stroke-width="1.5"/><line x1="8" y1="16" x2="16" y2="16" fill="none" stroke="#323232" stroke-linecap="round" stroke-linejoin="round" stroke-width="1.5"/><path d="M11.97153,8.2l4.76071-4.7607a1.5,1.5,0,0,1,2.12132,0l.7071.70711a1.5,1.5,0,0,1,0,2.12132L14.8,11.02846a2.5,2.5,0,0,1-1.41421.70711l-1.81491.25927a.5.5,0,0,1-.56568-.56568l.25927-1.8149A2.50005,2.50005,0,0,1,11.97153,8.2Z" fill="none" stroke="#323232" stroke-linecap="round" stroke-linejoin="round" stroke-width="1.5"/><line x1="18.20875" y1="7.61967" x2="15.38033" y2="4.79125" fill="none" stroke="#323232" stroke-linecap="round" stroke-linejoin="round" stroke-width="1.5"/></svg>