<svg xmlns="http://www.w3.org/2000/svg" viewBox="0 0 24 24"><path d="M0,0H24V24H0Z" fill="none"/><path d="M18,13V5a2,2,0,0,0-2-2h0a2,2,0,0,0-2,2v8" fill="none" stroke="#323232" stroke-linecap="round" stroke-linejoin="round" stroke-width="1.5"/><path d="M10,13V4.5A1.5,1.5,0,0,0,8.5,3h-1A1.5,1.5,0,0,0,6,4.5V13" fill="none" stroke="#323232" stroke-linecap="round" stroke-linejoin="round" stroke-width="1.5"/><path d="M20.5,10V7a1,1,0,0,0-1-1H18" fill="none" stroke="#323232" stroke-linecap="round" stroke-linejoin="round" stroke-width="1.5"/><line x1="10" y1="7" x2="6" y2="7" fill="none" stroke="#323232" stroke-linecap="round" stroke-linejoin="round" stroke-width="1.5"/><path d="M5,13H19a2,2,0,0,1,2,2v5a1,1,0,0,1-1,1H4a1,1,0,0,1-1-1V15A2,2,0,0,1,5,13Z" fill="none" stroke="#323232" stroke-linecap="round" stroke-linejoin="round" stroke-width="1.5"/></svg>