<svg xmlns="http://www.w3.org/2000/svg" viewBox="0 0 24 24"><rect width="24" height="24" fill="none"/><rect x="3" y="3" width="18" height="18" rx="5" stroke-width="1.5" stroke="#323232" stroke-linecap="round" stroke-linejoin="round" fill="none"/><path d="M13.58149,12.5h1.78493a1.5,1.5,0,0,1,1.48684,1.30175l.13333,1A1.5,1.5,0,0,1,15.49975,16.5H8.50037a1.5,1.5,0,0,1-1.47959-1.7466l.16667-1A1.5,1.5,0,0,1,8.667,12.5h1.75149l-.614-2.763A2.24908,2.24908,0,0,1,12,7h0a2.24915,2.24915,0,0,1,2.1955,2.73709Z" fill="none" stroke="#323232" stroke-linecap="round" stroke-linejoin="round" stroke-width="1.5"/></svg>