<svg xmlns="http://www.w3.org/2000/svg" viewBox="0 0 24 24"><path d="M24,24V0H0V24Z" fill="none"/><path d="M20,22H9a1.99945,1.99945,0,0,1-2-2V10A1.99945,1.99945,0,0,1,9,8H20a1.99945,1.99945,0,0,1,2,2V20A2.00009,2.00009,0,0,1,20,22Z" fill="none" stroke="#323232" stroke-linecap="round" stroke-linejoin="round" stroke-width="1.5"/><path d="M17.56934,8l-.76648-4.34692A1.99941,1.99941,0,0,0,14.486,2.03076L3.65308,3.94086A1.99945,1.99945,0,0,0,2.03076,6.25775l1.73645,9.84808a1.99944,1.99944,0,0,0,2.317,1.62232L7,17.56665" fill="none" stroke="#323232" stroke-linecap="round" stroke-linejoin="round" stroke-width="1.5"/></svg>