<svg xmlns="http://www.w3.org/2000/svg" viewBox="0 0 24 24"><path d="M11,19V14.875a2,2,0,0,1,.94-1.696l3-1.875a2,2,0,0,1,2.12,0l3,1.875A2,2,0,0,1,21,14.875V19a2,2,0,0,1-2,2H13A2,2,0,0,1,11,19Z" fill="none" stroke="#323232" stroke-linecap="round" stroke-linejoin="round" stroke-width="1.5"/><path d="M14,15.5l1.5.866a.99992.99992,0,0,0,1,0L18,15.5" fill="none" stroke="#323232" stroke-linecap="round" stroke-linejoin="round" stroke-width="1.5"/><path d="M4,8.5H7.5a2,2,0,0,0,2-2V3" fill="none" stroke="#323232" stroke-linecap="round" stroke-linejoin="round" stroke-width="1.5"/><path d="M8,21H7a3,3,0,0,1-3-3V8.24264a3,3,0,0,1,.87868-2.12132L7.12132,3.87868A3,3,0,0,1,9.24264,3H17a3,3,0,0,1,3,3V9" fill="none" stroke="#323232" stroke-linecap="round" stroke-linejoin="round" stroke-width="1.5"/></svg>