<svg xmlns="http://www.w3.org/2000/svg" viewBox="0 0 24 24"><path d="M24,24H0V0H24Z" fill="none"/><rect x="3" y="3" width="18" height="18" rx="5" stroke-width="1.5" stroke="#323232" stroke-linecap="round" stroke-linejoin="round" fill="none"/><path d="M7.08581,14.04707,9.953,16.9142a2,2,0,0,0,2.82842,0l4.13282-4.13281a2,2,0,0,0,0-2.82843L14.04705,7.08582a2,2,0,0,0-2.82842,0L7.08581,11.21864A2,2,0,0,0,7.08581,14.04707Z" fill="none" stroke="#323232" stroke-linecap="round" stroke-linejoin="round" stroke-width="1.5"/><path d="M9.78277,12.95027l1.82443-.6958a1.11983,1.11983,0,0,0,.64731-.64732l.69574-1.82436" fill="none" stroke="#323232" stroke-linecap="round" stroke-linejoin="round" stroke-width="1.5"/></svg>