<svg xmlns="http://www.w3.org/2000/svg" viewBox="0 0 24 24"><path d="M6,6.5l1.989.89079a1.25,1.25,0,0,0,1.02181,0L11,6.5" fill="none" stroke="#323232" stroke-linecap="round" stroke-linejoin="round" stroke-width="1.5"/><path d="M6,17V15" fill="none" stroke="#323232" stroke-linecap="round" stroke-linejoin="round" stroke-width="1.5"/><path d="M17,3h2a2,2,0,0,1,2,2V19.5A1.5,1.5,0,0,1,19.5,21h0A1.5,1.5,0,0,1,18,19.5V18a1,1,0,0,0-1-1H4a1,1,0,0,0-1,1v1a2,2,0,0,0,2,2H19.5" fill="none" stroke="#323232" stroke-linecap="round" stroke-linejoin="round" stroke-width="1.5"/><rect x="3" y="2.99997" width="11" height="9" rx="2.25" stroke-width="1.5" stroke="#323232" stroke-linecap="round" stroke-linejoin="round" fill="none"/></svg>