<svg xmlns="http://www.w3.org/2000/svg" viewBox="0 0 24 24"><rect width="24" height="24" fill="none"/><path d="M24,0H0V24H24Z" fill="none"/><path d="M0,0H24V24H0Z" fill="none"/><path d="M16.4008,19H17a4,4,0,0,0,4-4V8a4,4,0,0,0-4-4H7A4,4,0,0,0,3,8v7a4,4,0,0,0,4,4h.4008" fill="none" stroke="#323232" stroke-linecap="round" stroke-linejoin="round" stroke-width="1.5"/><line x1="10.75" y1="17.75" x2="13.25" y2="20.25" fill="none" stroke="#323232" stroke-linecap="round" stroke-linejoin="round" stroke-width="1.5"/><line x1="10.75" y1="20.25" x2="13.25" y2="17.75" fill="none" stroke="#323232" stroke-linecap="round" stroke-linejoin="round" stroke-width="1.5"/><path d="M17,8.50238l-4.19771,1.83083a2,2,0,0,1-1.59912,0L7,8.5" fill="none" stroke="#323232" stroke-linecap="round" stroke-linejoin="round" stroke-width="1.5"/></svg>