<svg xmlns="http://www.w3.org/2000/svg" viewBox="0 0 24 24"><rect width="24" height="24" fill="none"/><line x1="19.5" y1="16.25" x2="19.5" y2="20.75" fill="none" stroke="#323232" stroke-linecap="round" stroke-linejoin="round" stroke-width="1.5"/><polyline points="21.5 18.25 19.5 16.25 17.5 18.25" fill="none" stroke="#323232" stroke-linecap="round" stroke-linejoin="round" stroke-width="1.5"/><path d="M17,12h1.75A2.25,2.25,0,0,0,21,9.75V5.25A2.25,2.25,0,0,0,18.75,3h-6.5A2.25,2.25,0,0,0,10,5.25V9" fill="none" stroke="#323232" stroke-linecap="round" stroke-linejoin="round" stroke-width="1.5"/><path d="M13,6.5l1.98914.89079a1.25,1.25,0,0,0,1.02181,0L18,6.5" fill="none" stroke="#323232" stroke-linecap="round" stroke-linejoin="round" stroke-width="1.5"/><line x1="4.5" y1="7.75" x2="4.5" y2="3.25" fill="none" stroke="#323232" stroke-linecap="round" stroke-linejoin="round" stroke-width="1.5"/><polyline points="2.5 5.75 4.5 7.75 6.5 5.75" fill="none" stroke="#323232" stroke-linecap="round" stroke-linejoin="round" stroke-width="1.5"/><path d="M3,14.25v4.5A2.25,2.25,0,0,0,5.25,21h6.5A2.25,2.25,0,0,0,14,18.75v-4.5A2.25,2.25,0,0,0,11.75,12H5.25A2.25,2.25,0,0,0,3,14.25Z" fill="none" stroke="#323232" stroke-linecap="round" stroke-linejoin="round" stroke-width="1.5"/><path d="M6,15.5l1.98914.89079a1.25,1.25,0,0,0,1.02181,0L11,15.5" fill="none" stroke="#323232" stroke-linecap="round" stroke-linejoin="round" stroke-width="1.5"/></svg>