<svg xmlns="http://www.w3.org/2000/svg" viewBox="0 0 24 24"><path d="M17,11.5v4a2,2,0,0,1-2,2H9a2,2,0,0,1-2-2v-4a2,2,0,0,1,2-2h6A2,2,0,0,1,17,11.5Z" fill="none" stroke="#323232" stroke-linecap="round" stroke-linejoin="round" stroke-width="1.5"/><path d="M14.25,12.5l-1.79909.89429a1.01462,1.01462,0,0,1-.90188,0L9.75,12.5" fill="none" stroke="#323232" stroke-linecap="round" stroke-linejoin="round" stroke-width="1.5"/><line x1="12.07362" y1="6" x2="12.07362" y2="5.5" fill="none" stroke="#323232" stroke-linecap="round" stroke-linejoin="round" stroke-width="1.5"/><line x1="15.07362" y1="7" x2="15.57362" y2="6.5" fill="none" stroke="#323232" stroke-linecap="round" stroke-linejoin="round" stroke-width="1.5"/><line x1="9.07362" y1="7" x2="8.57362" y2="6.5" fill="none" stroke="#323232" stroke-linecap="round" stroke-linejoin="round" stroke-width="1.5"/><circle cx="12" cy="12" r="10" fill="none" stroke="#323232" stroke-linecap="round" stroke-linejoin="round" stroke-width="1.5"/><path d="M0,0H24V24H0Z" fill="none"/></svg>