<svg xmlns="http://www.w3.org/2000/svg" viewBox="0 0 24 24"><path d="M5.20926,5.2825v0a9.5,9.5,0,0,1,13.435,0l0,0a9.5,9.5,0,0,1,0,13.435l0,0a9.5,9.5,0,0,1-13.435,0v0" fill="none" stroke="#323232" stroke-linecap="round" stroke-linejoin="round" stroke-width="1.5"/><path d="M9.75,11l1.74563.88192a1.13638,1.13638,0,0,0,1.00881,0L14.25,11" fill="none" stroke="#323232" stroke-linecap="round" stroke-linejoin="round" stroke-width="1.5"/><rect x="7" y="8" width="10" height="8" rx="2" stroke-width="1.5" stroke="#323232" stroke-linecap="round" stroke-linejoin="round" fill="none"/><line x1="4" y1="9" x2="2" y2="9" fill="none" stroke="#323232" stroke-linecap="round" stroke-linejoin="round" stroke-width="1.5"/><line x1="4" y1="15" x2="2" y2="15" fill="none" stroke="#323232" stroke-linecap="round" stroke-linejoin="round" stroke-width="1.5"/><line x1="3.5" y1="12" x2="2" y2="12" fill="none" stroke="#323232" stroke-linecap="round" stroke-linejoin="round" stroke-width="1.5"/><path d="M0,24V0H24V24Z" fill="none"/></svg>