<svg xmlns="http://www.w3.org/2000/svg" viewBox="0 0 24 24"><rect width="24" height="24" fill="none"/><path d="M24,0H0V24H24Z" fill="none"/><path d="M0,0H24V24H0Z" fill="none"/><line x1="16.9" y1="4.1" x2="15.91" y2="5.09" fill="none" stroke="#323232" stroke-linecap="round" stroke-linejoin="round" stroke-width="1.5"/><line x1="12" y1="2" x2="12" y2="3.4" fill="none" stroke="#323232" stroke-linecap="round" stroke-linejoin="round" stroke-width="1.5"/><line x1="7.1" y1="4.1" x2="8.089" y2="5.09" fill="none" stroke="#323232" stroke-linecap="round" stroke-linejoin="round" stroke-width="1.5"/><path d="M4,17V11A3,3,0,0,1,7,8H17a3,3,0,0,1,3,3v6" fill="none" stroke="#323232" stroke-linecap="round" stroke-linejoin="round" stroke-width="1.5"/><path d="M16,12.00252,13.0016,13.73235a2,2,0,0,1-1.99889,0L8,12" fill="none" stroke="#323232" stroke-linecap="round" stroke-linejoin="round" stroke-width="1.5"/><line x1="22" y1="21" x2="2" y2="21" fill="none" stroke="#323232" stroke-linecap="round" stroke-linejoin="round" stroke-width="1.5"/></svg>