<svg xmlns="http://www.w3.org/2000/svg" viewBox="0 0 24 24"><path d="M0,0H24V24H0Z" fill="none"/><path d="M16.4008,19H17a4,4,0,0,0,4-4V8a4,4,0,0,0-4-4H7A4,4,0,0,0,3,8v7a4,4,0,0,0,4,4h.4008" fill="none" stroke="#323232" stroke-linecap="round" stroke-linejoin="round" stroke-width="1.5"/><path d="M17,8.50238l-4.19771,1.83083a2,2,0,0,1-1.59912,0L7,8.5" fill="none" stroke="#323232" stroke-linecap="round" stroke-linejoin="round" stroke-width="1.5"/><line x1="10.4008" y1="19" x2="13.4008" y2="19" fill="none" stroke="#323232" stroke-linecap="round" stroke-linejoin="round" stroke-width="1.5"/><line x1="11.9008" y1="20.5" x2="11.9008" y2="17.5" fill="none" stroke="#323232" stroke-linecap="round" stroke-linejoin="round" stroke-width="1.5"/></svg>