<?xml version="1.0" encoding="UTF-8"?><svg version="1.1" viewBox="0 0 24 24" xmlns="http://www.w3.org/2000/svg" xmlns:xlink="http://www.w3.org/1999/xlink"><!--Generated by IJSVG (https://github.com/iconjar/IJSVG)--><g fill="none"><path d="M0,0.028h24v24h-24v-24Z"></path><path stroke="#323232" stroke-linecap="round" stroke-linejoin="round" stroke-width="1.5" d="M19.994,11.002v-4.989"></path><path stroke="#323232" stroke-linecap="round" stroke-linejoin="round" stroke-width="1.5" d="M10.999,17.002h-5.996c-1.104,0 -1.999,-0.895 -1.999,-2v-9.017"></path><path stroke="#323232" stroke-linecap="round" stroke-linejoin="round" stroke-width="1.5" d="M17.985,3.974h-12.972c-1.11,0 -2.01,0.9 -2.01,2.011v0c0,0.667 0.33,1.29 0.882,1.664l5.355,3.631c1.365,0.925 3.155,0.925 4.52,0l5.353,-3.63c0.552,-0.374 0.882,-0.998 0.882,-1.664v-0.001c-0.001,-1.111 -0.9,-2.011 -2.01,-2.011Z"></path><path stroke="#323232" stroke-linecap="round" stroke-linejoin="round" stroke-width="1.5" d="M19.71,17v-1.29c0,-0.897 -0.765,-1.71 -1.71,-1.71c-0.945,0 -1.71,0.765 -1.71,1.71v1.29"></path><path stroke="#323232" stroke-linecap="round" stroke-linejoin="round" stroke-width="1.5" d="M20.018,21h-4.036c-0.542,0 -0.982,-0.44 -0.982,-0.982v-2.036c0,-0.542 0.44,-0.982 0.982,-0.982h4.036c0.542,0 0.982,0.44 0.982,0.982v2.036c0,0.542 -0.44,0.982 -0.982,0.982Z"></path></g></svg>