<svg xmlns="http://www.w3.org/2000/svg" viewBox="0 0 24 24"><path d="M0,0H24V24H0Z" fill="none"/><path d="M3,15H7.382a1,1,0,0,1,.89462.55319l.44632.89362A1,1,0,0,0,9.61753,17h4.76394a1,1,0,0,0,.89442-.55279l.44722-.89442A1,1,0,0,1,16.61753,15H21" fill="none" stroke="#323232" stroke-linecap="round" stroke-linejoin="round" stroke-width="1.5"/><path d="M16.5,2.5,15,4l1.5,1.5" fill="none" stroke="#323232" stroke-linecap="round" stroke-linejoin="round" stroke-width="1.5"/><path d="M17,8.5h1.75A2.25,2.25,0,0,0,21,6.25h0A2.25,2.25,0,0,0,18.75,4H15" fill="none" stroke="#323232" stroke-linecap="round" stroke-linejoin="round" stroke-width="1.5"/><path d="M21,12v6a3,3,0,0,1-3,3H6a3,3,0,0,1-3-3V6A3,3,0,0,1,6,3h5" fill="none" stroke="#323232" stroke-linecap="round" stroke-linejoin="round" stroke-width="1.5"/></svg>