<svg xmlns="http://www.w3.org/2000/svg" viewBox="0 0 24 24"><path d="M20,9V5a2,2,0,0,0-2-2H5A2,2,0,0,0,3,5V19a2,2,0,0,0,2,2H7" fill="none" stroke="#323232" stroke-linecap="round" stroke-linejoin="round" stroke-width="1.5"/><path d="M12.05,20.9h6.5a2.25,2.25,0,0,0,2.25-2.25v-4.5a2.25,2.25,0,0,0-2.25-2.25h-6.5A2.25,2.25,0,0,0,9.8,14.15v4.5A2.25,2.25,0,0,0,12.05,20.9Z" fill="none" stroke="#323232" stroke-linecap="round" stroke-linejoin="round" stroke-width="1.5"/><path d="M17.8,15.4l-1.93959.88192a1.38909,1.38909,0,0,1-1.1209,0L12.8,15.4" fill="none" stroke="#323232" stroke-linecap="round" stroke-linejoin="round" stroke-width="1.5"/><path d="M24,24H0V0H24Z" fill="none"/></svg>