<svg xmlns="http://www.w3.org/2000/svg" viewBox="0 0 24 24"><path d="M3,19a2,2,0,0,0,2,2H19a2,2,0,0,0,2-2V7.47214a2,2,0,0,0-.21115-.89443L19.55279,4.10557A2,2,0,0,0,17.76393,3H6.23607A2,2,0,0,0,4.44721,4.10557L3.21115,6.57771A2,2,0,0,0,3,7.47214Z" fill="none" stroke="#323232" stroke-linecap="round" stroke-linejoin="round" stroke-width="1.5"/><path d="M3.05958,7H7A1,1,0,0,1,8,8V9a1,1,0,0,0,1,1h6a1,1,0,0,0,1-1V8a1,1,0,0,1,1-1h3.94013" fill="none" stroke="#323232" stroke-linecap="round" stroke-linejoin="round" stroke-width="1.5"/><path d="M3,14H7a1,1,0,0,1,1,1v1a1,1,0,0,0,1,1h6a1,1,0,0,0,1-1V15a1,1,0,0,1,1-1h4" fill="none" stroke="#323232" stroke-linecap="round" stroke-linejoin="round" stroke-width="1.5"/><rect width="24" height="24" fill="none"/></svg>