<svg xmlns="http://www.w3.org/2000/svg" viewBox="0 0 24 24"><path d="M5,7.768V5A2,2,0,0,1,7,3H17a2,2,0,0,1,2,2V7.768" fill="none" stroke="#323232" stroke-linecap="round" stroke-linejoin="round" stroke-width="1.5"/><path d="M4.5,12h4a.5.5,0,0,1,.5.5H9A2.5,2.5,0,0,0,11.5,15h1A2.5,2.5,0,0,0,15,12.5h0a.5.5,0,0,1,.5-.5h4A1.5,1.5,0,0,1,21,13.5V19a2,2,0,0,1-2,2H5a2,2,0,0,1-2-2V13.5A1.5,1.5,0,0,1,4.5,12Z" fill="none" stroke="#323232" stroke-linecap="round" stroke-linejoin="round" stroke-width="1.5"/><path d="M4,12.07421V9.5a2,2,0,0,1,2-2H18a2,2,0,0,1,2,2v2.586" fill="none" stroke="#323232" stroke-linecap="round" stroke-linejoin="round" stroke-width="1.5"/></svg>