<?xml version="1.0" encoding="UTF-8"?><svg version="1.1" viewBox="0 0 24 24" xmlns="http://www.w3.org/2000/svg" xmlns:xlink="http://www.w3.org/1999/xlink"><!--Generated by IJSVG (https://github.com/iconjar/IJSVG)--><g stroke-linecap="round" stroke-width="1.5" stroke="#323232" fill="none" stroke-linejoin="round"><path d="M15.002,16.004h-6.004c-1.105,0 -2,-0.895 -2,-2v-4.004c0,-1.105 0.895,-2 2,-2h6.005c1.105,0 2,0.895 2,2v4.004c-0.001,1.104 -0.896,2 -2.001,2Z"></path><path d="M17.923,20.044c0.81,-0.597 1.524,-1.312 2.121,-2.121"></path><path d="M3.956,6.077c0.597,-0.81 1.312,-1.524 2.121,-2.121"></path><path d="M10.5,21.876c0.995,0.15 2.005,0.15 3,0"></path><path d="M10.5,2.124c0.995,-0.15 2.005,-0.15 3,0"></path><path d="M3.956,17.923c0.597,0.81 1.312,1.524 2.121,2.121"></path><path d="M17.923,3.956c0.81,0.597 1.524,1.312 2.121,2.121"></path><path d="M2.124,10.5c-0.15,0.995 -0.15,2.005 0,3"></path><path d="M21.876,10.5c0.15,0.995 0.15,2.005 0,3"></path><path d="M7.079,9.466l3.694,2.642c0.73,0.522 1.711,0.523 2.441,0.002l3.707,-2.644"></path></g><path fill="none" d="M0,0h24v24h-24Z"></path></svg>