<?xml version="1.0" encoding="UTF-8"?><svg version="1.1" viewBox="0 0 24 24" xmlns="http://www.w3.org/2000/svg" xmlns:xlink="http://www.w3.org/1999/xlink"><!--Generated by IJSVG (https://github.com/iconjar/IJSVG)--><g stroke-linecap="round" stroke-width="1.5" stroke="#323232" fill="none" stroke-linejoin="round"><path d="M8.75,4.528h-1.748c-0.903,0 -1.712,0.554 -2.029,1.391l-2.447,6.451c-0.182,0.481 -0.276,0.991 -0.276,1.505v3.51c0,1.183 0.97,2.143 2.167,2.143h15.167c1.197,0 2.167,-0.959 2.167,-2.143v-3.509c0,-0.514 -0.093,-1.024 -0.276,-1.505l-2.447,-6.453c-0.317,-0.837 -1.126,-1.391 -2.029,-1.391l-8.249,0.001"></path><path d="M2.322,13.099h4.674c0.41,0 0.786,0.229 0.969,0.592l0.485,0.959c0.184,0.363 0.559,0.593 0.97,0.593h5.161c0.41,0 0.785,-0.229 0.968,-0.592l0.485,-0.958c0.184,-0.363 0.559,-0.593 0.97,-0.593h4.675"></path><path d="M4.164,8.052h2.881c0.411,0 0.785,0.229 0.968,0.592l0.484,0.958c0.184,0.363 0.559,0.592 0.97,0.592h5.161c0.411,0 0.785,-0.229 0.968,-0.592l0.484,-0.958c0.184,-0.363 0.559,-0.592 0.97,-0.592h2.786"></path></g><path fill="none" d="M0,0.028h24v24h-24v-24Z"></path></svg>