<svg xmlns="http://www.w3.org/2000/svg" viewBox="0 0 24 24"><path d="M9,17h6a2,2,0,0,0,2-2V10.875a2,2,0,0,0-.94-1.696l-3-1.875a2,2,0,0,0-2.12,0l-3,1.875A2,2,0,0,0,7,10.875V15A2,2,0,0,0,9,17Z" fill="none" stroke="#323232" stroke-linecap="round" stroke-linejoin="round" stroke-width="1.5"/><path d="M16.90644,10.292,13.06,12.696a2,2,0,0,1-2.12,0L7.09356,10.292" fill="none" stroke="#323232" stroke-linecap="round" stroke-linejoin="round" stroke-width="1.5"/><rect x="3" y="3" width="18" height="18" rx="5" stroke-width="1.5" stroke="#323232" stroke-linecap="round" stroke-linejoin="round" fill="none"/></svg>