<svg xmlns="http://www.w3.org/2000/svg" viewBox="0 0 24 24"><path d="M7,21H6a2,2,0,0,1-2-2V5A2,2,0,0,1,6,3h8a2,2,0,0,1,2,2V9" fill="none" stroke="#323232" stroke-linecap="round" stroke-linejoin="round" stroke-width="1.5"/><path d="M12.5,3V5a.5.5,0,0,1-.5.5H8A.5.5,0,0,1,7.5,5V3" fill="none" stroke="#323232" stroke-linecap="round" stroke-linejoin="round" stroke-width="1.5"/><path d="M13,15.5l1.98905.89079a1.25,1.25,0,0,0,1.02181,0L18,15.5" fill="none" stroke="#323232" stroke-linecap="round" stroke-linejoin="round" stroke-width="1.5"/><rect x="10" y="12" width="11" height="9" rx="2.25" stroke-width="1.5" stroke="#323232" stroke-linecap="round" stroke-linejoin="round" fill="none"/></svg>