<svg xmlns="http://www.w3.org/2000/svg" viewBox="0 0 24 24"><line x1="12" y1="7" x2="12" y2="11" fill="none" stroke="#323232" stroke-linecap="round" stroke-linejoin="round" stroke-width="1.5"/><polyline points="14 9 12 7 10 9" fill="none" stroke="#323232" stroke-linecap="round" stroke-linejoin="round" stroke-width="1.5"/><path d="M5,21H19a2,2,0,0,0,2-2V12.50275a1.5,1.5,0,0,0-2.412-1.19094l-5.37211,4.11364a2,2,0,0,1-2.43188,0L5.412,11.31181A1.5,1.5,0,0,0,3,12.50275V19A2,2,0,0,0,5,21Z" fill="none" stroke="#323232" stroke-linecap="round" stroke-linejoin="round" stroke-width="1.5"/><path d="M19,11.08621V5a2,2,0,0,0-2-2H7A2,2,0,0,0,5,5v6.08621" fill="none" stroke="#323232" stroke-linecap="round" stroke-linejoin="round" stroke-width="1.5"/><path d="M0,0H24V24H0Z" fill="none"/></svg>