<svg xmlns="http://www.w3.org/2000/svg" viewBox="0 0 24 24"><path d="M0,0H24V24H0Z" fill="none"/><path d="M7.12132,20.12132,3.87868,16.87868A3,3,0,0,1,3,14.75736V9.24364a3,3,0,0,1,.87868-2.12132L7.12232,3.87868A3,3,0,0,1,9.24364,3h5.51172a3,3,0,0,1,2.12132.87868l3.24464,3.24464A3,3,0,0,1,21,9.24464v5.51161a3,3,0,0,1-.87828,2.12092l-3.24253,3.24375A3,3,0,0,1,14.75747,21H9.24264A3,3,0,0,1,7.12132,20.12132Z" fill="none" stroke="#323232" stroke-linecap="round" stroke-linejoin="round" stroke-width="1.5"/><path d="M10.5,14.75H8.5085a1.00444,1.00444,0,0,1-.84195-1.55536L11.337,7.61017a.80033.80033,0,0,1,1.33692.00013L16.33176,13.178a1.01528,1.01528,0,0,1-.85115,1.572H13.58483l-1.54242,1.5Z" fill="none" stroke="#323232" stroke-linecap="round" stroke-linejoin="round" stroke-width="1.5"/></svg>