<svg xmlns="http://www.w3.org/2000/svg" viewBox="0 0 24 24"><path d="M7,18h5" fill="none" stroke="#323232" stroke-linecap="round" stroke-linejoin="round" stroke-width="1.5"/><line x1="7" y1="6.00001" x2="9" y2="6.00001" fill="none" stroke="#323232" stroke-linecap="round" stroke-linejoin="round" stroke-width="1.5"/><line x1="8" y1="9.00001" x2="9" y2="9.00001" fill="none" stroke="#323232" stroke-linecap="round" stroke-linejoin="round" stroke-width="1.5"/><rect x="12" y="3" width="9" height="8" rx="2" stroke-width="1.5" stroke="#323232" stroke-linecap="round" stroke-linejoin="round" fill="none"/><path d="M15,3h3a0,0,0,0,1,0,0V5.5a.5.5,0,0,1-.5.5h-2a.5.5,0,0,1-.5-.5V3A0,0,0,0,1,15,3Z" fill="none" stroke="#323232" stroke-linecap="round" stroke-linejoin="round" stroke-width="1.5"/><path d="M9,3H6A3,3,0,0,0,3,6V18a3,3,0,0,0,3,3h7a3,3,0,0,0,3-3V14" fill="none" stroke="#323232" stroke-linecap="round" stroke-linejoin="round" stroke-width="1.5"/></svg>