<svg xmlns="http://www.w3.org/2000/svg" viewBox="0 0 24 24"><path d="M12.75,16.5H9.25A2.25,2.25,0,0,1,7,14.25V9.75A2.25,2.25,0,0,1,9.25,7.5h5.5A2.25,2.25,0,0,1,17,9.75V12" fill="none" stroke="#323232" stroke-linecap="round" stroke-linejoin="round" stroke-width="1.5"/><path d="M19.79974,14.29287a1,1,0,0,0-1.41416,0L15.5429,17.13557a1.00007,1.00007,0,0,0-.29291.70716V19.75a.25.25,0,0,0,.25.25h1.90727a1.00006,1.00006,0,0,0,.70715-.29291L20.9571,16.8644a1,1,0,0,0,0-1.41422Z" fill="none" stroke="#323232" stroke-linecap="round" stroke-linejoin="round" stroke-width="1.5"/><path d="M10.5,7.5h3a0,0,0,0,1,0,0V10a.5.5,0,0,1-.5.5H11a.5.5,0,0,1-.5-.5V7.5A0,0,0,0,1,10.5,7.5Z" fill="none" stroke="#323232" stroke-linecap="round" stroke-linejoin="round" stroke-width="1.5"/><path d="M11.75,21H8.28845A5.53846,5.53846,0,0,1,2.75,15.46154V8.53846A5.53846,5.53846,0,0,1,8.28845,3h6.92308A5.53846,5.53846,0,0,1,20.75,8.53846V11" fill="none" stroke="#323232" stroke-linecap="round" stroke-linejoin="round" stroke-width="1.5"/></svg>