<svg xmlns="http://www.w3.org/2000/svg" viewBox="0 0 24 24"><path d="M3,9V6A3,3,0,0,1,6,3h4" fill="none" stroke="#323232" stroke-linecap="round" stroke-linejoin="round" stroke-width="1.5"/><path d="M21,14v4a3,3,0,0,1-3,3H16" fill="none" stroke="#323232" stroke-linecap="round" stroke-linejoin="round" stroke-width="1.5"/><line x1="19" y1="9" x2="20.5" y2="10.5" fill="none" stroke="#323232" stroke-linecap="round" stroke-linejoin="round" stroke-width="1.5"/><circle cx="16.5" cy="6.5" r="3.5" fill="none" stroke="#323232" stroke-linecap="round" stroke-linejoin="round" stroke-width="1.5"/><rect x="3" y="12" width="10" height="9" rx="2.25" stroke-width="1.5" stroke="#323232" stroke-linecap="round" stroke-linejoin="round" fill="none"/><path d="M6.5,12h3a0,0,0,0,1,0,0v2.5A.5.5,0,0,1,9,15H7a.5.5,0,0,1-.5-.5V12A0,0,0,0,1,6.5,12Z" fill="none" stroke="#323232" stroke-linecap="round" stroke-linejoin="round" stroke-width="1.5"/></svg>