<svg xmlns="http://www.w3.org/2000/svg" viewBox="0 0 24 24"><path d="M13,21h5.75A2.25,2.25,0,0,0,21,18.75V5.25A2.25,2.25,0,0,0,18.75,3H5.25A2.25,2.25,0,0,0,3,5.25V9" fill="none" stroke="#323232" stroke-linecap="round" stroke-linejoin="round" stroke-width="1.5"/><path d="M5.5,17h6.299a1,1,0,0,0,.92848-.62861l1.2-3A1,1,0,0,0,12.999,12H5.5A2.5,2.5,0,0,0,3,14.5H3A2.5,2.5,0,0,0,5.5,17Z" fill="none" stroke="#323232" stroke-linecap="round" stroke-linejoin="round" stroke-width="1.5"/><path d="M9.61188,17,8.47749,19.8624A1.80121,1.80121,0,0,1,6.803,21h0a1.80122,1.80122,0,0,1-1.67609-2.46084L5.7326,17" fill="none" stroke="#323232" stroke-linecap="round" stroke-linejoin="round" stroke-width="1.5"/><path d="M16,3V5.5A1.5,1.5,0,0,1,14.5,7h-5A1.5,1.5,0,0,1,8,5.5V3" fill="none" stroke="#323232" stroke-linecap="round" stroke-linejoin="round" stroke-width="1.5"/></svg>