<svg xmlns="http://www.w3.org/2000/svg" viewBox="0 0 24 24"><path d="M16,21h2a3,3,0,0,0,3-3V8.00932A3,3,0,0,0,20.1213,5.888L17.612,3.37867A3,3,0,0,0,15.49066,2.5H8a3,3,0,0,0-3,3V9.1" fill="none" stroke="#323232" stroke-linecap="round" stroke-linejoin="round" stroke-width="1.5"/><path d="M9.5,12v2.5A.5.5,0,0,1,9,15H7a.5.5,0,0,1-.5-.5V12" fill="none" stroke="#323232" stroke-linecap="round" stroke-linejoin="round" stroke-width="1.5"/><rect x="3" y="12" width="10" height="9" rx="2.25" stroke-width="1.5" stroke="#323232" stroke-linecap="round" stroke-linejoin="round" fill="none"/></svg>