<svg xmlns="http://www.w3.org/2000/svg" viewBox="0 0 24 24"><path d="M16,14l-2,2,2,2" fill="none" stroke="#323232" stroke-linecap="round" stroke-linejoin="round" stroke-width="1.5"/><path d="M14,16h4.5A2.5,2.5,0,0,1,21,18.5h0A2.5,2.5,0,0,1,18.5,21H16" fill="none" stroke="#323232" stroke-linecap="round" stroke-linejoin="round" stroke-width="1.5"/><path d="M12,21H5.25A2.25,2.25,0,0,1,3,18.75V5.25A2.25,2.25,0,0,1,5.25,3h13.5A2.25,2.25,0,0,1,21,5.25V13" fill="none" stroke="#323232" stroke-linecap="round" stroke-linejoin="round" stroke-width="1.5"/><path d="M8,3V5.5A1.5,1.5,0,0,0,9.5,7h5A1.5,1.5,0,0,0,16,5.5V3" fill="none" stroke="#323232" stroke-linecap="round" stroke-linejoin="round" stroke-width="1.5"/></svg>