<svg xmlns="http://www.w3.org/2000/svg" viewBox="0 0 24 24"><path d="M10.9409,20.89514h0A9.87815,9.87815,0,0,1,3,11.20879V8A5,5,0,0,1,8,3h8a5,5,0,0,1,5,5v3.20876a9.87819,9.87819,0,0,1-7.9407,9.68631l-.00022,0A5.40017,5.40017,0,0,1,10.9409,20.89514Z" fill="none" stroke="#323232" stroke-linecap="round" stroke-linejoin="round" stroke-width="1.5"/><rect x="7" y="6.5" width="10" height="9" rx="2.25" stroke-width="1.5" stroke="#323232" stroke-linecap="round" stroke-linejoin="round" fill="none"/><path d="M10.5,6.5h3a0,0,0,0,1,0,0V9a.5.5,0,0,1-.5.5H11a.5.5,0,0,1-.5-.5V6.5A0,0,0,0,1,10.5,6.5Z" fill="none" stroke="#323232" stroke-linecap="round" stroke-linejoin="round" stroke-width="1.5"/></svg>