<svg xmlns="http://www.w3.org/2000/svg" viewBox="0 0 24 24"><path d="M10.667,21,12,19.667l-1.333-1.333" fill="none" stroke="#323232" stroke-linecap="round" stroke-linejoin="round" stroke-width="1.5"/><path d="M3.01824,14A2.34532,2.34532,0,0,0,2,15.75c0,2.19812,4.43372,3.98071,9.91864,3.99829" fill="none" stroke="#323232" stroke-linecap="round" stroke-linejoin="round" stroke-width="1.5"/><path d="M20.98174,14A2.34535,2.34535,0,0,1,22,15.75c0,1.791-2.94318,3.30652-7,3.81641" fill="none" stroke="#323232" stroke-linecap="round" stroke-linejoin="round" stroke-width="1.5"/><path d="M13.65,3V5.5a.5.5,0,0,1-.5.5h-2.3a.5.5,0,0,1-.5-.5V3" fill="none" stroke="#323232" stroke-linecap="round" stroke-linejoin="round" stroke-width="1.5"/><rect x="6.49999" y="3" width="11" height="10" rx="2.5" stroke-width="1.5" stroke="#323232" stroke-linecap="round" stroke-linejoin="round" fill="none"/></svg>