<svg xmlns="http://www.w3.org/2000/svg" viewBox="0 0 24 24"><path d="M19.4,7.3,15,4A5,5,0,0,0,9,4L4.6,7.3A4,4,0,0,0,3,10.5V17a4,4,0,0,0,4,4H17a4,4,0,0,0,4-4V10.5A4,4,0,0,0,19.4,7.3Z" fill="none" stroke="#323232" stroke-linecap="round" stroke-linejoin="round" stroke-width="1.5"/><rect x="7.5" y="9.5" width="9" height="8" rx="2" stroke-width="1.5" stroke="#323232" stroke-linecap="round" stroke-linejoin="round" fill="none"/><path d="M10.5,9.5h3a0,0,0,0,1,0,0V12a.5.5,0,0,1-.5.5H11a.5.5,0,0,1-.5-.5V9.5A0,0,0,0,1,10.5,9.5Z" fill="none" stroke="#323232" stroke-linecap="round" stroke-linejoin="round" stroke-width="1.5"/></svg>