<svg xmlns="http://www.w3.org/2000/svg" viewBox="0 0 24 24"><line x1="3.99999" y1="9" x2="1.49999" y2="9" fill="none" stroke="#323232" stroke-linecap="round" stroke-linejoin="round" stroke-width="1.5"/><line x1="3.99999" y1="15" x2="3.49999" y2="15" fill="none" stroke="#323232" stroke-linecap="round" stroke-linejoin="round" stroke-width="1.5"/><line x1="3.99999" y1="12" x2="2.49999" y2="12" fill="none" stroke="#323232" stroke-linecap="round" stroke-linejoin="round" stroke-width="1.5"/><path d="M4,6A4.99689,4.99689,0,0,1,8.57788,3H16a5,5,0,0,1,5,5v8a5,5,0,0,1-5,5H8.57788A4.99689,4.99689,0,0,1,4,18" fill="none" stroke="#323232" stroke-linecap="round" stroke-linejoin="round" stroke-width="1.5"/><rect x="6.99999" y="7.5" width="10" height="9" rx="2.25" stroke-width="1.5" stroke="#323232" stroke-linecap="round" stroke-linejoin="round" fill="none"/><path d="M10.5,7.5h3a0,0,0,0,1,0,0V10a.5.5,0,0,1-.5.5H11a.5.5,0,0,1-.5-.5V7.5A0,0,0,0,1,10.5,7.5Z" fill="none" stroke="#323232" stroke-linecap="round" stroke-linejoin="round" stroke-width="1.5"/></svg>