<svg xmlns="http://www.w3.org/2000/svg" viewBox="0 0 24 24"><path d="M10,10.5h4a0,0,0,0,1,0,0V13a1,1,0,0,1-1,1H11a1,1,0,0,1-1-1V10.5A0,0,0,0,1,10,10.5Z" fill="none" stroke="#323232" stroke-linecap="round" stroke-linejoin="round" stroke-width="1.5"/><path d="M18.5,14.06328V12.5a2,2,0,0,0-2-2h-9a2,2,0,0,0-2,2v1.56328" fill="none" stroke="#323232" stroke-linecap="round" stroke-linejoin="round" stroke-width="1.5"/><path d="M18.5,17.93672V19a2,2,0,0,1-2,2h-9a2,2,0,0,1-2-2V17.93672" fill="none" stroke="#323232" stroke-linecap="round" stroke-linejoin="round" stroke-width="1.5"/><circle cx="11.99999" cy="4.75" r="2.75" fill="none" stroke="#323232" stroke-linecap="round" stroke-linejoin="round" stroke-width="1.5"/><path d="M4,14H5a2,2,0,0,1,2,2v0a2,2,0,0,1-2,2H4a1,1,0,0,1-1-1V15A1,1,0,0,1,4,14Z" fill="none" stroke="#323232" stroke-linecap="round" stroke-linejoin="round" stroke-width="1.5"/><path d="M18,14h1a2,2,0,0,1,2,2v0a2,2,0,0,1-2,2H18a1,1,0,0,1-1-1V15A1,1,0,0,1,18,14Z" transform="translate(37.99998 32) rotate(180)" fill="none" stroke="#323232" stroke-linecap="round" stroke-linejoin="round" stroke-width="1.5"/></svg>