<?xml version="1.0" encoding="UTF-8"?><svg version="1.1" viewBox="0 0 24 24" xmlns="http://www.w3.org/2000/svg" xmlns:xlink="http://www.w3.org/1999/xlink"><!--Generated by IJSVG (https://github.com/iconjar/IJSVG)--><g stroke-linecap="round" stroke-width="1.5" stroke="#323232" fill="none" stroke-linejoin="round"><path d="M21,8.089v10.911c0,1.105 -0.895,2 -2,2h-14c-1.105,0 -2,-0.895 -2,-2v-10.911c0,-0.27 0.055,-0.538 0.161,-0.786l1.32,-3.089c0.315,-0.736 1.038,-1.214 1.839,-1.214h11.36c0.801,0 1.524,0.478 1.839,1.214l1.32,3.089c0.106,0.249 0.161,0.516 0.161,0.786Z"></path><path d="M3,8h17.99"></path><path d="M14,3l1,5v3.225c0,0.428 -0.385,0.775 -0.86,0.775h-4.28c-0.475,0 -0.86,-0.347 -0.86,-0.775v-3.225l1,-5"></path><path d="M6,18h2"></path></g><path fill="none" d="M0,0h24v24h-24v-24Z"></path></svg>