<svg xmlns="http://www.w3.org/2000/svg" viewBox="0 0 24 24"><path d="M7.5,7.5h0A4.5,4.5,0,0,1,12,3h0a4.5,4.5,0,0,1,4.5,4.5h0" fill="none" stroke="#323232" stroke-linecap="round" stroke-linejoin="round" stroke-width="1.5"/><path d="M7.5,7.5c0,1.98649,2.23978,4.10676,3.55866,5.18365a1.557,1.557,0,0,0,1.881.00039C14.25969,11.60724,16.5,9.48672,16.5,7.5" fill="none" stroke="#323232" stroke-linecap="round" stroke-linejoin="round" stroke-width="1.5"/><circle cx="19.99999" cy="18.5" r="2" fill="none" stroke="#323232" stroke-linecap="round" stroke-linejoin="round" stroke-width="1.5"/><circle cx="3.99999" cy="18.5" r="2" fill="none" stroke="#323232" stroke-linecap="round" stroke-linejoin="round" stroke-width="1.5"/><line x1="17.99999" y1="18.5" x2="14.49999" y2="18.5" fill="none" stroke="#323232" stroke-linecap="round" stroke-linejoin="round" stroke-width="1.5"/><line x1="5.99999" y1="18.5" x2="9.49999" y2="18.5" fill="none" stroke="#323232" stroke-linecap="round" stroke-linejoin="round" stroke-width="1.5"/><circle cx="11.99999" cy="18.5" r="2.5" fill="none" stroke="#323232" stroke-linecap="round" stroke-linejoin="round" stroke-width="1.5"/><path d="M11.75,7.5h0A.25.25,0,0,1,12,7.25h0a.25.25,0,0,1,.25.25h0" fill="none" stroke="#323232" stroke-linecap="round" stroke-linejoin="round" stroke-width="1.5"/><path d="M12.25,7.5h0a.25.25,0,0,1-.25.25h0a.25.25,0,0,1-.25-.25h0" fill="none" stroke="#323232" stroke-linecap="round" stroke-linejoin="round" stroke-width="1.5"/></svg>