<svg xmlns="http://www.w3.org/2000/svg" viewBox="0 0 24 24"><rect x="2.99999" y="3" width="18" height="18" rx="5" stroke-width="1.5" stroke="#323232" stroke-linecap="round" stroke-linejoin="round" fill="none"/><path d="M13.5,7V9.5a.5.5,0,0,1-.5.5H11a.5.5,0,0,1-.5-.5V7" fill="none" stroke="#323232" stroke-linecap="round" stroke-linejoin="round" stroke-width="1.5"/><path d="M17,11.5V9.25A2.25,2.25,0,0,0,14.75,7H9.25A2.25,2.25,0,0,0,7,9.25V11.5" fill="none" stroke="#323232" stroke-linecap="round" stroke-linejoin="round" stroke-width="1.5"/><path d="M14,14.66667h2" fill="none" stroke="#323232" stroke-linecap="round" stroke-linejoin="round" stroke-width="1.5"/><path d="M15.74589,14.66667a4.44042,4.44042,0,0,1-1.76411,1.78822A4.37947,4.37947,0,0,1,8,14.66667" fill="none" stroke="#323232" stroke-linecap="round" stroke-linejoin="round" stroke-width="1.5"/><path d="M16,14.66667v2" fill="none" stroke="#323232" stroke-linecap="round" stroke-linejoin="round" stroke-width="1.5"/></svg>