<svg xmlns="http://www.w3.org/2000/svg" viewBox="0 0 24 24"><path d="M20,16v3a2,2,0,0,1-2,2H16" fill="none" stroke="#323232" stroke-linecap="round" stroke-linejoin="round" stroke-width="1.5"/><path d="M4,9V5A2,2,0,0,1,6,3H7" fill="none" stroke="#323232" stroke-linecap="round" stroke-linejoin="round" stroke-width="1.5"/><line x1="18.49999" y1="17.5" x2="19.99999" y2="16" fill="none" stroke="#323232" stroke-linecap="round" stroke-linejoin="round" stroke-width="1.5"/><line x1="21.49999" y1="17.5" x2="19.99999" y2="16" fill="none" stroke="#323232" stroke-linecap="round" stroke-linejoin="round" stroke-width="1.5"/><line x1="5.49999" y1="7.5" x2="3.99999" y2="9" fill="none" stroke="#323232" stroke-linecap="round" stroke-linejoin="round" stroke-width="1.5"/><line x1="2.49999" y1="7.5" x2="3.99999" y2="9" fill="none" stroke="#323232" stroke-linecap="round" stroke-linejoin="round" stroke-width="1.5"/><path d="M16,13h2.5A2.5,2.5,0,0,0,21,10.5v-5A2.5,2.5,0,0,0,18.5,3h-6A2.5,2.5,0,0,0,10,5.5V8" fill="none" stroke="#323232" stroke-linecap="round" stroke-linejoin="round" stroke-width="1.5"/><path d="M17.5,3V5.5A.5.5,0,0,1,17,6H14a.5.5,0,0,1-.5-.5V3" fill="none" stroke="#323232" stroke-linecap="round" stroke-linejoin="round" stroke-width="1.5"/><path d="M5,21h6a2,2,0,0,0,2-2V15.1194a2,2,0,0,0-.75061-1.56174l-2.3753-1.90025a3,3,0,0,0-3.74819,0l-2.3753,1.90025A2,2,0,0,0,3,15.1194V19A2,2,0,0,0,5,21Z" fill="none" stroke="#323232" stroke-linecap="round" stroke-linejoin="round" stroke-width="1.5"/></svg>