<svg xmlns="http://www.w3.org/2000/svg" viewBox="0 0 24 24"><path d="M21,16v2a3,3,0,0,1-3,3H15" fill="none" stroke="#323232" stroke-linecap="round" stroke-linejoin="round" stroke-width="1.5"/><path d="M3,9V6A3,3,0,0,1,6,3H7" fill="none" stroke="#323232" stroke-linecap="round" stroke-linejoin="round" stroke-width="1.5"/><path d="M15,13h3.55556A2.44445,2.44445,0,0,0,21,10.55555V5.44444A2.44444,2.44444,0,0,0,18.55554,3H12.44443A2.44444,2.44444,0,0,0,10,5.44445V9" fill="none" stroke="#323232" stroke-linecap="round" stroke-linejoin="round" stroke-width="1.5"/><rect x="2.99999" y="12" width="9" height="9" rx="2.5" stroke-width="1.5" stroke="#323232" stroke-linecap="round" stroke-linejoin="round" fill="none"/><path d="M17.5,3V5.5A.5.5,0,0,1,17,6H14a.5.5,0,0,1-.5-.5V3" fill="none" stroke="#323232" stroke-linecap="round" stroke-linejoin="round" stroke-width="1.5"/><line x1="8.99999" y1="16.50002" x2="5.99999" y2="16.50002" fill="none" stroke="#323232" stroke-linecap="round" stroke-linejoin="round" stroke-width="1.5"/></svg>