<svg xmlns="http://www.w3.org/2000/svg" viewBox="0 0 24 24"><path d="M3,9V7A4,4,0,0,1,7,3H17a4,4,0,0,1,4,4V17a4,4,0,0,1-4,4H16" fill="none" stroke="#323232" stroke-linecap="round" stroke-linejoin="round" stroke-width="1.5"/><line x1="15.5" y1="6.74998" x2="15.5" y2="10.25002" fill="none" stroke="#323232" stroke-linecap="round" stroke-linejoin="round" stroke-width="1.5"/><line x1="13.75" y1="8.5" x2="17.25" y2="8.5" fill="none" stroke="#323232" stroke-linecap="round" stroke-linejoin="round" stroke-width="1.5"/><rect x="3" y="12" width="10" height="9" rx="2.25" stroke-width="1.5" stroke="#323232" stroke-linecap="round" stroke-linejoin="round" fill="none"/><path d="M6.5,12h3a0,0,0,0,1,0,0v2.5A.5.5,0,0,1,9,15H7a.5.5,0,0,1-.5-.5V12A0,0,0,0,1,6.5,12Z" fill="none" stroke="#323232" stroke-linecap="round" stroke-linejoin="round" stroke-width="1.5"/></svg>