<svg xmlns="http://www.w3.org/2000/svg" viewBox="0 0 24 24"><path d="M3,7V5A2,2,0,0,1,5,3H7" fill="none" stroke="#323232" stroke-linecap="round" stroke-linejoin="round" stroke-width="1.5"/><path d="M21,16v3a2,2,0,0,1-2,2H17" fill="none" stroke="#323232" stroke-linecap="round" stroke-linejoin="round" stroke-width="1.5"/><rect x="2.99999" y="10" width="11" height="11" rx="2" stroke-width="1.5" stroke="#323232" stroke-linecap="round" stroke-linejoin="round" fill="none"/><line x1="10.99999" y1="14" x2="5.99999" y2="14" fill="none" stroke="#323232" stroke-linecap="round" stroke-linejoin="round" stroke-width="1.5"/><line x1="10.99999" y1="17" x2="5.99999" y2="17" fill="none" stroke="#323232" stroke-linecap="round" stroke-linejoin="round" stroke-width="1.5"/><path d="M17,13h1.5A2.5,2.5,0,0,0,21,10.5v-5A2.5,2.5,0,0,0,18.5,3h-6A2.5,2.5,0,0,0,10,5.5V7" fill="none" stroke="#323232" stroke-linecap="round" stroke-linejoin="round" stroke-width="1.5"/><path d="M13.85,3h3.3a0,0,0,0,1,0,0V5.5a.5.5,0,0,1-.5.5h-2.3a.5.5,0,0,1-.5-.5V3a0,0,0,0,1,0,0Z" fill="none" stroke="#323232" stroke-linecap="round" stroke-linejoin="round" stroke-width="1.5"/></svg>