<svg xmlns="http://www.w3.org/2000/svg" viewBox="0 0 24 24"><path d="M18.896,14H5.5A1.5,1.5,0,0,1,4,12.5V5A2,2,0,0,1,6,3H8" fill="none" stroke="#323232" stroke-linecap="round" stroke-linejoin="round" stroke-width="1.5"/><path d="M18.99905,21H5.00092a1.99972,1.99972,0,0,1-1.9228-2.549l1.0643-3.72568A1,1,0,0,1,5.104,14H18.896a1,1,0,0,1,.96153.72532l1.0643,3.72568A1.99972,1.99972,0,0,1,18.99905,21Z" fill="none" stroke="#323232" stroke-linecap="round" stroke-linejoin="round" stroke-width="1.5"/><line x1="9.99999" y1="18" x2="13.99999" y2="18" fill="none" stroke="#323232" stroke-linecap="round" stroke-linejoin="round" stroke-width="1.5"/><rect x="12" y="2" width="9" height="8" rx="2" stroke-width="1.5" stroke="#323232" stroke-linecap="round" stroke-linejoin="round" fill="none"/><path d="M15,2h3a0,0,0,0,1,0,0V4.5a.5.5,0,0,1-.5.5h-2a.5.5,0,0,1-.5-.5V2A0,0,0,0,1,15,2Z" fill="none" stroke="#323232" stroke-linecap="round" stroke-linejoin="round" stroke-width="1.5"/></svg>