<?xml version="1.0" encoding="UTF-8"?><svg version="1.1" viewBox="0 0 24 24" xmlns="http://www.w3.org/2000/svg" xmlns:xlink="http://www.w3.org/1999/xlink"><g fill="none"><path d="M0 0h24v24h-24Z"></path><path stroke="#323232" stroke-linecap="round" stroke-linejoin="round" stroke-width="1.5" d="M5 3l-8.74228e-08 1.77636e-15c-1.10457 4.82823e-08-2 .895431-2 2 0 0 0 8.88178e-16 0 8.88178e-16"></path><path stroke="#323232" stroke-linecap="round" stroke-linejoin="round" stroke-width="1.5" d="M3 8.33v2"></path><path stroke="#323232" stroke-linecap="round" stroke-linejoin="round" stroke-width="1.5" d="M8.33 3h2"></path><path stroke="#323232" stroke-linecap="round" stroke-linejoin="round" stroke-width="1.5" d="M19 21l-8.74228e-08-3.55271e-15c1.10457 4.82823e-08 2-.89543 2-2"></path><path stroke="#323232" stroke-linecap="round" stroke-linejoin="round" stroke-width="1.5" d="M21 15.67v-2"></path><path stroke="#323232" stroke-linecap="round" stroke-linejoin="round" stroke-width="1.5" d="M15.67 21h-2"></path><path stroke="#323232" stroke-linecap="round" stroke-linejoin="round" stroke-width="1.5" d="M17 2l4.77291e-07-5.00891e-07c-2.66768 2.79959-2.66768 7.20041-9.54581e-07 10l-2.03348e-08 2.13403e-08c2.66768-2.79959 2.66768-7.20041 5.32349e-07-10Z"></path><path stroke="#323232" stroke-linecap="round" stroke-linejoin="round" stroke-width="1.5" d="M17 12l-2.03348e-08 2.13403e-08c2.66768-2.79959 2.66768-7.20041 4.06695e-08-10"></path><path stroke="#323232" stroke-linecap="round" stroke-linejoin="round" stroke-width="1.5" d="M22 7v0c0 2.76142-2.23858 5-5 5 -2.76142 0-5-2.23858-5-5 0-2.76142 2.23858-5 5-5l-1.72394e-07 2.76497e-10c2.757-.00442192 4.99558 2.22699 5 4.98399 8.56092e-06.00533761 8.56111e-06.0106752 5.49928e-10.0160128Z"></path><path stroke="#323232" stroke-linecap="round" stroke-linejoin="round" stroke-width="1.5" d="M12 7h10"></path><path stroke="#323232" stroke-linecap="round" stroke-linejoin="round" stroke-width="1.5" d="M11.356 19.019l-3.234 1.819 9.13556e-09-5.12093e-09c-.385453.216065-.855547.216065-1.241 1.02419e-08l-3.236-1.818 2.38187e-08 1.34363e-08c-.398072-.224555-.644496-.645959-.645-1.103v-2.833l-5.33298e-08 2.56189e-05c.000944906-.456138.247385-.876444.644978-1.10001l3.234-1.819 -2.00708e-07 1.12393e-07c.385813-.216049.856187-.216049 1.242-2.24786e-07l3.234 1.819 6.10997e-08 3.45032e-08c.396988.224181.643208.644091.645 1.1v2.833l2.62173e-09-8.1443e-05c0 .456636-.246099.877828-.643906 1.10203Z"></path><path stroke="#323232" stroke-linecap="round" stroke-linejoin="round" stroke-width="1.5" d="M7.5 21v-4.126"></path><path stroke="#323232" stroke-linecap="round" stroke-linejoin="round" stroke-width="1.5" d="M3.171 14.445l4.329 2.429 4.328-2.429"></path></g></svg>