<svg xmlns="http://www.w3.org/2000/svg" viewBox="0 0 24 24"><path d="M7,5H5A2,2,0,0,0,3,7V19a2,2,0,0,0,2,2H9" fill="none" stroke="#323232" stroke-linecap="round" stroke-linejoin="round" stroke-width="1.5"/><path d="M15,5h2a2,2,0,0,1,2,2v3" fill="none" stroke="#323232" stroke-linecap="round" stroke-linejoin="round" stroke-width="1.5"/><rect x="11.99999" y="13" width="9" height="8" rx="2" stroke-width="1.5" stroke="#323232" stroke-linecap="round" stroke-linejoin="round" fill="none"/><path d="M15,13h3a0,0,0,0,1,0,0v2.5a.5.5,0,0,1-.5.5h-2a.5.5,0,0,1-.5-.5V13A0,0,0,0,1,15,13Z" fill="none" stroke="#323232" stroke-linecap="round" stroke-linejoin="round" stroke-width="1.5"/><rect x="7" y="3" width="8" height="4" rx="1" stroke-width="1.5" stroke="#323232" stroke-linecap="round" stroke-linejoin="round" fill="none"/></svg>