<svg xmlns="http://www.w3.org/2000/svg" viewBox="0 0 24 24"><path d="M20,16v3a2,2,0,0,1-2,2H16" fill="none" stroke="#323232" stroke-linecap="round" stroke-linejoin="round" stroke-width="1.5"/><path d="M4,8V5A2,2,0,0,1,6,3H7" fill="none" stroke="#323232" stroke-linecap="round" stroke-linejoin="round" stroke-width="1.5"/><line x1="18.49999" y1="17.5" x2="19.99999" y2="16" fill="none" stroke="#323232" stroke-linecap="round" stroke-linejoin="round" stroke-width="1.5"/><line x1="21.49999" y1="17.5" x2="19.99999" y2="16" fill="none" stroke="#323232" stroke-linecap="round" stroke-linejoin="round" stroke-width="1.5"/><line x1="5.49999" y1="6.5" x2="3.99999" y2="8" fill="none" stroke="#323232" stroke-linecap="round" stroke-linejoin="round" stroke-width="1.5"/><line x1="2.49999" y1="6.5" x2="3.99999" y2="8" fill="none" stroke="#323232" stroke-linecap="round" stroke-linejoin="round" stroke-width="1.5"/><path d="M10,7.5v-2A2.5,2.5,0,0,1,12.5,3h6A2.5,2.5,0,0,1,21,5.5v5A2.5,2.5,0,0,1,18.5,13H16" fill="none" stroke="#323232" stroke-linecap="round" stroke-linejoin="round" stroke-width="1.5"/><path d="M10.5,12h1A1.5,1.5,0,0,1,13,13.5v6A1.5,1.5,0,0,1,11.5,21h-7A1.5,1.5,0,0,1,3,19.5v-6A1.5,1.5,0,0,1,4.5,12h1" fill="none" stroke="#323232" stroke-linecap="round" stroke-linejoin="round" stroke-width="1.5"/><rect x="5.5" y="10.5" width="5" height="3" rx="1" stroke-width="1.5" stroke="#323232" stroke-linecap="round" stroke-linejoin="round" fill="none"/><path d="M17.5,3V5.5A.5.5,0,0,1,17,6H14a.5.5,0,0,1-.5-.5V3" fill="none" stroke="#323232" stroke-linecap="round" stroke-linejoin="round" stroke-width="1.5"/></svg>