<svg xmlns="http://www.w3.org/2000/svg" viewBox="0 0 24 24"><path d="M21,10V9.46411A3,3,0,0,0,19.5,6.866l-6-3.4641a3,3,0,0,0-3,0L4.5,6.866A3,3,0,0,0,3,9.4641V19a2,2,0,0,0,2,2h5" fill="none" stroke="#323232" stroke-linecap="round" stroke-linejoin="round" stroke-width="1.5"/><line x1="9.99999" y1="9" x2="13.99999" y2="9" fill="none" stroke="#323232" stroke-linecap="round" stroke-linejoin="round" stroke-width="1.5"/><path d="M10,13H8a1,1,0,0,0-1,1v7" fill="none" stroke="#323232" stroke-linecap="round" stroke-linejoin="round" stroke-width="1.5"/><line x1="9.99999" y1="17" x2="6.99999" y2="17" fill="none" stroke="#323232" stroke-linecap="round" stroke-linejoin="round" stroke-width="1.5"/><polyline points="15.75 16.75 16.75 17.75 18.25 16.25" fill="none" stroke="#323232" stroke-linecap="round" stroke-linejoin="round" stroke-width="1.5"/><rect x="12.99999" y="13" width="8" height="8" rx="2.25" stroke-width="1.5" stroke="#323232" stroke-linecap="round" stroke-linejoin="round" fill="none"/></svg>