<svg xmlns="http://www.w3.org/2000/svg" viewBox="0 0 24 24"><path d="M21,11V8.46411A3,3,0,0,0,19.5,5.866l-6-3.4641a3,3,0,0,0-3,0L4.5,5.866A3,3,0,0,0,3,8.4641V10" fill="none" stroke="#323232" stroke-linecap="round" stroke-linejoin="round" stroke-width="1.5"/><rect x="2" y="13" width="8" height="8" rx="2.25" stroke-width="1.5" stroke="#323232" stroke-linecap="round" stroke-linejoin="round" fill="none"/><path d="M19.30953,14.08333H13.90476A.90476.90476,0,0,1,13,13.17857V10" fill="none" stroke="#323232" stroke-linecap="round" stroke-linejoin="round" stroke-width="1.5"/><circle cx="18.5" cy="19.5" r="1.5" fill="none" stroke="#323232" stroke-linecap="round" stroke-linejoin="round" stroke-width="1.5"/><path d="M10,10h3.40476a4.52382,4.52382,0,0,1,3.61905,1.80952l1.09511,1.46015a1.85,1.85,0,0,0,.65265.54469l2.12286,1.06143A2,2,0,0,1,22,16.66464V18.15a1.35,1.35,0,0,1-1.35,1.35H20" fill="none" stroke="#323232" stroke-linecap="round" stroke-linejoin="round" stroke-width="1.5"/><line x1="17" y1="19.5" x2="14" y2="19.5" fill="none" stroke="#323232" stroke-linecap="round" stroke-linejoin="round" stroke-width="1.5"/><line x1="4.99999" y1="18.00002" x2="6.99999" y2="16.00002" fill="none" stroke="#323232" stroke-linecap="round" stroke-linejoin="round" stroke-width="1.5"/><line x1="4.99999" y1="16.00002" x2="6.99999" y2="18.00002" fill="none" stroke="#323232" stroke-linecap="round" stroke-linejoin="round" stroke-width="1.5"/></svg>