<?xml version="1.0" encoding="UTF-8"?><svg version="1.1" viewBox="0 0 24 24" xmlns="http://www.w3.org/2000/svg" xmlns:xlink="http://www.w3.org/1999/xlink"><g stroke-linecap="round" stroke-width="1.5" stroke="#323232" fill="none" stroke-linejoin="round"><path d="M15.045 16.5h-6.09c-.451 0-.846-.302-.965-.737l-.955-3.5c-.173-.636.306-1.263.966-1.263h7.999c.659 0 1.138.627.965 1.263l-.955 3.5c-.119.435-.514.737-.965.737Z"></path><path d="M15.956 11.007l-3.207-3.665c-.399-.456-1.108-.455-1.506.001l-3.184 3.648"></path><path d="M17 21h-10c-2.209 0-4-1.791-4-4v-10c0-2.209 1.791-4 4-4h10c2.209 0 4 1.791 4 4v10c0 2.209-1.791 4-4 4Z"></path></g><path fill="none" d="M0 0h24v24h-24v-24Z"></path></svg>