<svg xmlns="http://www.w3.org/2000/svg" viewBox="0 0 24 24"><path d="M3,9.05542H21" fill="none" stroke="#323232" stroke-linecap="round" stroke-linejoin="round" stroke-width="1.5"/><path d="M11,5.99l-.005.005L11,6l.005-.005L11,5.99" fill="none" stroke="#323232" stroke-linecap="round" stroke-linejoin="round" stroke-width="1.5"/><path d="M8.5,5.99l-.005.005L8.5,6l.005-.005L8.5,5.99" fill="none" stroke="#323232" stroke-linecap="round" stroke-linejoin="round" stroke-width="1.5"/><path d="M6,5.99l-.005.005L6,6l.005-.005L6,5.99" fill="none" stroke="#323232" stroke-linecap="round" stroke-linejoin="round" stroke-width="1.5"/><path d="M11,5.99l-.005.005L11,6l.005-.005L11,5.99" fill="none" stroke="#323232" stroke-linecap="round" stroke-linejoin="round" stroke-width="1.5"/><path d="M8.5,5.99l-.005.005L8.5,6l.005-.005L8.5,5.99" fill="none" stroke="#323232" stroke-linecap="round" stroke-linejoin="round" stroke-width="1.5"/><path d="M6,5.99l-.005.005L6,6l.005-.005L6,5.99" fill="none" stroke="#323232" stroke-linecap="round" stroke-linejoin="round" stroke-width="1.5"/><path d="M21,11V6a3,3,0,0,0-3-3H6A3,3,0,0,0,3,6V18a3,3,0,0,0,3,3h5" fill="none" stroke="#323232" stroke-linecap="round" stroke-linejoin="round" stroke-width="1.5"/><path d="M13,13h.88889l1.22425,4.897a.4.4,0,0,0,.38806.303h4.49745a.20249.20249,0,0,0,.19645-.15339l.79875-3.195A.2025.2025,0,0,0,20.79739,14.6H14.30675" fill="none" stroke="#323232" stroke-linecap="round" stroke-linejoin="round" stroke-width="1.5"/><path d="M15.56665,20.9a.1.1,0,0,1,.2,0" fill="none" stroke="#323232" stroke-linecap="round" stroke-linejoin="round" stroke-width="1.5"/><path d="M15.76665,20.9a.1.1,0,0,1-.2,0" fill="none" stroke="#323232" stroke-linecap="round" stroke-linejoin="round" stroke-width="1.5"/><path d="M19.56665,20.9a.1.1,0,0,1,.2,0" fill="none" stroke="#323232" stroke-linecap="round" stroke-linejoin="round" stroke-width="1.5"/><path d="M19.76665,20.9a.1.1,0,0,1-.2,0" fill="none" stroke="#323232" stroke-linecap="round" stroke-linejoin="round" stroke-width="1.5"/></svg>