<svg xmlns="http://www.w3.org/2000/svg" viewBox="0 0 24 24"><path d="M3,20l1.15551.57774A4.00009,4.00009,0,0,0,5.94432,21H12.5A1.5,1.5,0,0,0,14,19.5h0A1.5,1.5,0,0,0,12.5,18h-4" fill="none" stroke="#323232" stroke-linecap="round" stroke-linejoin="round" stroke-width="1.5"/><path d="M3,13H5.91335a2,2,0,0,1,1.2.4l2.23727,1.67794a1.62337,1.62337,0,0,1,.17388,2.44658h0a1.62334,1.62334,0,0,1-2.1219.15079L6,16.62335" fill="none" stroke="#323232" stroke-linecap="round" stroke-linejoin="round" stroke-width="1.5"/><path d="M21,16v2a3,3,0,0,1-3,3H17" fill="none" stroke="#323232" stroke-linecap="round" stroke-linejoin="round" stroke-width="1.5"/><path d="M3,9V6A3,3,0,0,1,6,3H8" fill="none" stroke="#323232" stroke-linecap="round" stroke-linejoin="round" stroke-width="1.5"/><line x1="12" y1="12" x2="12" y2="7.5" fill="none" stroke="#323232" stroke-linecap="round" stroke-linejoin="round" stroke-width="1.5"/><line x1="20" y1="7.5" x2="20" y2="12" fill="none" stroke="#323232" stroke-linecap="round" stroke-linejoin="round" stroke-width="1.5"/><path d="M21,5.51825V6.5a1,1,0,0,1-1,1H12a1,1,0,0,1-1-1V5.51825a1.99993,1.99993,0,0,1,.25169-.97128l.57367-1.03261A1,1,0,0,1,12.69951,3h6.601a1,1,0,0,1,.87415.51436L20.74831,4.547A1.99993,1.99993,0,0,1,21,5.51825Z" fill="none" stroke="#323232" stroke-linecap="round" stroke-linejoin="round" stroke-width="1.5"/><line x1="21" y1="12" x2="11" y2="12" fill="none" stroke="#323232" stroke-linecap="round" stroke-linejoin="round" stroke-width="1.5"/><path d="M24,0H0V24H24Z" fill="none"/></svg>