<svg xmlns="http://www.w3.org/2000/svg" viewBox="0 0 24 24"><path d="M13,4H11A2,2,0,0,0,9,6v9" fill="none" stroke="#323232" stroke-linecap="round" stroke-linejoin="round" stroke-width="1.5"/><line x1="21" y1="9" x2="9" y2="9" fill="none" stroke="#323232" stroke-linecap="round" stroke-linejoin="round" stroke-width="1.5"/><path d="M13.5,2h3a.5.5,0,0,1,.5.5V6a0,0,0,0,1,0,0H13a0,0,0,0,1,0,0V2.5A.5.5,0,0,1,13.5,2Z" fill="none" stroke="#323232" stroke-linecap="round" stroke-linejoin="round" stroke-width="1.5"/><path d="M2,16l2.55056-4.25092a2.99994,2.99994,0,0,1,1.23082-1.13977l.58519-.29259A3.00013,3.00013,0,0,1,7.70824,10H9" fill="none" stroke="#323232" stroke-linecap="round" stroke-linejoin="round" stroke-width="1.5"/><path d="M7,22l2.80844-1.07381a4,4,0,0,0,1.89934-1.51694l3.0155-4.52189a1.64575,1.64575,0,0,0-.20549-2.07681h0a1.64575,1.64575,0,0,0-2.3272-.00023L10,15H8" fill="none" stroke="#323232" stroke-linecap="round" stroke-linejoin="round" stroke-width="1.5"/><path d="M17,4h2a2,2,0,0,1,2,2V17a2,2,0,0,1-2,2H12" fill="none" stroke="#323232" stroke-linecap="round" stroke-linejoin="round" stroke-width="1.5"/></svg>