<svg xmlns="http://www.w3.org/2000/svg" viewBox="0 0 24 24"><path d="M10,21H4.00215a2,2,0,0,1-1.83829-2.78783l1.28572-3A2,2,0,0,1,5.28787,14H8" fill="none" stroke="#323232" stroke-linecap="round" stroke-linejoin="round" stroke-width="1.5"/><path d="M10,14H5.5A1.5,1.5,0,0,1,4,12.5V5A2,2,0,0,1,6,3H18a2,2,0,0,1,2,2v5" fill="none" stroke="#323232" stroke-linecap="round" stroke-linejoin="round" stroke-width="1.5"/><rect x="13" y="13" width="9" height="8" rx="2.25" transform="translate(35 34) rotate(-180)" stroke-width="1.5" stroke="#323232" stroke-linecap="round" stroke-linejoin="round" fill="none"/><path d="M19,16h0a1.5,1.5,0,0,1-1.5,1.5h0A1.5,1.5,0,0,1,16,16h0" fill="none" stroke="#323232" stroke-linecap="round" stroke-linejoin="round" stroke-width="1.5"/></svg>