<svg xmlns="http://www.w3.org/2000/svg" viewBox="0 0 24 24"><path d="M3,18V5A2,2,0,0,1,5,3H19a2,2,0,0,1,2,2V18" fill="none" stroke="#323232" stroke-linecap="round" stroke-linejoin="round" stroke-width="1.5"/><path d="M2,18H22a1,1,0,0,1,1,1v0a2,2,0,0,1-2,2H3a2,2,0,0,1-2-2v0a1,1,0,0,1,1-1Z" fill="none" stroke="#323232" stroke-linecap="round" stroke-linejoin="round" stroke-width="1.5"/><rect x="7.5" y="6.5" width="9" height="8" rx="2.25" transform="translate(24 21) rotate(-180)" stroke-width="1.5" stroke="#323232" stroke-linecap="round" stroke-linejoin="round" fill="none"/><path d="M13.5,9.5h0A1.5,1.5,0,0,1,12,11h0a1.5,1.5,0,0,1-1.5-1.5h0" fill="none" stroke="#323232" stroke-linecap="round" stroke-linejoin="round" stroke-width="1.5"/></svg>