<svg xmlns="http://www.w3.org/2000/svg" viewBox="0 0 24 24"><path d="M14.5,19l-1.80895,1.72774a1.01315,1.01315,0,0,1-1.3821,0L9.5,19H6a3,3,0,0,1-3-3V6A3,3,0,0,1,6,3H18a3,3,0,0,1,3,3V16a3,3,0,0,1-3,3Z" fill="none" stroke="#323232" stroke-linecap="round" stroke-linejoin="round" stroke-width="1.5"/><path d="M7.75,7h.88889l1.22425,4.897a.4.4,0,0,0,.38806.303h4.49745a.20249.20249,0,0,0,.19645-.15339l.79875-3.195A.20249.20249,0,0,0,15.5474,8.6H9.05676" fill="none" stroke="#323232" stroke-linecap="round" stroke-linejoin="round" stroke-width="1.5"/><path d="M10.31667,14.9a.1.1,0,0,1,.2,0" fill="none" stroke="#323232" stroke-linecap="round" stroke-linejoin="round" stroke-width="1.5"/><path d="M10.51667,14.9a.1.1,0,0,1-.2,0" fill="none" stroke="#323232" stroke-linecap="round" stroke-linejoin="round" stroke-width="1.5"/><path d="M14.31667,14.9a.1.1,0,0,1,.2,0" fill="none" stroke="#323232" stroke-linecap="round" stroke-linejoin="round" stroke-width="1.5"/><path d="M14.51667,14.9a.1.1,0,0,1-.2,0" fill="none" stroke="#323232" stroke-linecap="round" stroke-linejoin="round" stroke-width="1.5"/></svg>