<svg xmlns="http://www.w3.org/2000/svg" viewBox="0 0 24 24"><path d="M15,4h5.5" fill="none" stroke="#323232" stroke-linecap="round" stroke-linejoin="round" stroke-width="1.5"/><path d="M6,17V14" fill="none" stroke="#323232" stroke-linecap="round" stroke-linejoin="round" stroke-width="1.5"/><path d="M17.5,21H5a2,2,0,0,1-2-2V18a1,1,0,0,1,1-1H15a1,1,0,0,1,1,1v1.5A1.5,1.5,0,0,0,17.5,21h0A1.5,1.5,0,0,0,19,19.5V5.5A1.5,1.5,0,0,1,20.5,4h0A1.5,1.5,0,0,1,22,5.5V8a1,1,0,0,1-1,1H19" fill="none" stroke="#323232" stroke-linecap="round" stroke-linejoin="round" stroke-width="1.5"/><rect x="3" y="3" width="9" height="8" rx="2.25" transform="translate(15 14) rotate(-180)" stroke-width="1.5" stroke="#323232" stroke-linecap="round" stroke-linejoin="round" fill="none"/><path d="M9,6H9A1.5,1.5,0,0,1,7.5,7.5h0A1.5,1.5,0,0,1,6,6H6" fill="none" stroke="#323232" stroke-linecap="round" stroke-linejoin="round" stroke-width="1.5"/></svg>