<svg xmlns="http://www.w3.org/2000/svg" viewBox="0 0 24 24"><path d="M14.7416,14.5H9.25836a1,1,0,0,1-.97734-.78834l-.758-3.5A1,1,0,0,1,8.50039,9h6.99922a1,1,0,0,1,.97734,1.21167l-.758,3.5A1,1,0,0,1,14.7416,14.5Z" fill="none" stroke="#323232" stroke-linecap="round" stroke-linejoin="round" stroke-width="1.5"/><path d="M10,6.5,9.06,9" fill="none" stroke="#323232" stroke-linecap="round" stroke-linejoin="round" stroke-width="1.5"/><path d="M14,6.5,14.94,9" fill="none" stroke="#323232" stroke-linecap="round" stroke-linejoin="round" stroke-width="1.5"/><path d="M18.0104,4.47977h0a8.443,8.443,0,0,1,0,11.97353h0L14.47,19.97976a3.5,3.5,0,0,1-4.93584.00411l-.02579-.0256L5.98958,16.45333A8.44316,8.44316,0,0,1,5.98952,4.47977h0A8.52387,8.52387,0,0,1,17.982,4.45166l.02832.02811Z" fill="none" stroke="#323232" stroke-linecap="round" stroke-linejoin="round" stroke-width="1.5"/></svg>