<svg xmlns="http://www.w3.org/2000/svg" viewBox="0 0 24 24"><path d="M15,5h2a2,2,0,0,1,2,2V19a2,2,0,0,1-2,2H7a2,2,0,0,1-2-2V7A2,2,0,0,1,7,5H9" fill="none" stroke="#323232" stroke-linecap="round" stroke-linejoin="round" stroke-width="1.5"/><path d="M10,2h4a1,1,0,0,1,1,1V7a0,0,0,0,1,0,0H9A0,0,0,0,1,9,7V3A1,1,0,0,1,10,2Z" fill="none" stroke="#323232" stroke-linecap="round" stroke-linejoin="round" stroke-width="1.5"/><line x1="18.99999" y1="12" x2="4.99999" y2="12" fill="none" stroke="#323232" stroke-linecap="round" stroke-linejoin="round" stroke-width="1.5"/><path d="M14.505,14.995,14.5,15l-.005-.005.005-.005.005.005" fill="none" stroke="#323232" stroke-linecap="round" stroke-linejoin="round" stroke-width="1.5"/><path d="M12.005,14.995,12,15l-.005-.005L12,14.99l.005.005" fill="none" stroke="#323232" stroke-linecap="round" stroke-linejoin="round" stroke-width="1.5"/><path d="M9.505,14.995,9.5,15l-.005-.005L9.5,14.99l.005.005" fill="none" stroke="#323232" stroke-linecap="round" stroke-linejoin="round" stroke-width="1.5"/><path d="M14.505,17.495,14.5,17.5l-.005-.005.005-.005.005.005" fill="none" stroke="#323232" stroke-linecap="round" stroke-linejoin="round" stroke-width="1.5"/><path d="M12.005,17.495,12,17.5l-.005-.005L12,17.49l.005.005" fill="none" stroke="#323232" stroke-linecap="round" stroke-linejoin="round" stroke-width="1.5"/><path d="M9.505,17.495,9.5,17.5l-.005-.005L9.5,17.49l.005.005" fill="none" stroke="#323232" stroke-linecap="round" stroke-linejoin="round" stroke-width="1.5"/></svg>