<svg xmlns="http://www.w3.org/2000/svg" viewBox="0 0 24 24"><path d="M17,6h2a2,2,0,0,1,2,2V19a2,2,0,0,1-2,2H5a2,2,0,0,1-2-2V8A2,2,0,0,1,5,6H7" fill="none" stroke="#323232" stroke-linecap="round" stroke-linejoin="round" stroke-width="1.5"/><line x1="21" y1="17" x2="3" y2="17" fill="none" stroke="#323232" stroke-linecap="round" stroke-linejoin="round" stroke-width="1.5"/><path d="M7,9V3.33141a1,1,0,0,1,.551-.89352l.659-.33115a1,1,0,0,1,.89229-.00287l1.23592.61116h-.00482l1.22436-.60952a1,1,0,0,1,.89455.00162l1.20961.60764,1.23592-.61116a1,1,0,0,1,.89229.00287l.659.33115A1,1,0,0,1,17,3.33115V8.99987C15.08471,9,8.91533,9,7,9Z" fill="none" stroke="#323232" stroke-linecap="round" stroke-linejoin="round" stroke-width="1.5"/><line x1="16" y1="13" x2="8" y2="13" fill="none" stroke="#323232" stroke-linecap="round" stroke-linejoin="round" stroke-width="1.5"/><path d="M0,24H24V0H0Z" fill="none"/></svg>