<svg xmlns="http://www.w3.org/2000/svg" viewBox="0 0 24 24"><rect width="24" height="24" fill="none"/><path d="M20,21V4.49753a1,1,0,0,0-.551-.89353l-.99-.49752a1,1,0,0,0-.89228-.00287l-1.57248.77759-1.5409-.77407a1,1,0,0,0-.89456-.00162L12,3.88152l-1.55876-.776a1,1,0,0,0-.89456.00162l-1.5409.77407L6.4333,3.10361a1,1,0,0,0-.89228.00287l-.99.49753A1,1,0,0,0,4,4.49753V21" fill="none" stroke="#323232" stroke-linecap="round" stroke-linejoin="round" stroke-width="1.5"/><line x1="22" y1="21" x2="2" y2="21" fill="none" stroke="#323232" stroke-linecap="round" stroke-linejoin="round" stroke-width="1.5"/><path d="M8.67029,10.17072l-.0004.00039a2.29707,2.29707,0,0,0,.12269,3.35715l2.583,2.23881a.95329.95329,0,0,0,1.24876,0l2.58314-2.23892a2.29691,2.29691,0,0,0,.12268-3.35691h0a2.28076,2.28076,0,0,0-3.109-.114L12,10.24883l-.22118-.19171A2.28,2.28,0,0,0,8.67029,10.17072Z" fill="none" stroke="#323232" stroke-linecap="round" stroke-linejoin="round" stroke-width="1.5"/></svg>