<svg xmlns="http://www.w3.org/2000/svg" viewBox="0 0 24 24"><path d="M4,21V4.575a1,1,0,0,1,.49793-.86483l.99048-.575a1,1,0,0,1,.99809-.00347l1.51929.8679L9.49389,3.136a1,1,0,0,1,1.00047-.002L12,4l1.50564-.86591a1,1,0,0,1,1.00047.002l1.48811.86359,1.51929-.86791a1,1,0,0,1,.99808.00348l.99046.575A1,1,0,0,1,20,4.575V21" fill="none" stroke="#323232" stroke-linecap="round" stroke-linejoin="round" stroke-width="1.5"/><line x1="22" y1="21" x2="2" y2="21" fill="none" stroke="#323232" stroke-linecap="round" stroke-linejoin="round" stroke-width="1.5"/><path d="M9.37349,13.639l-1.0789-1.07679a1,1,0,0,1,.54383-1.69446l1.42442-.23472.85469-1.60338a1,1,0,0,1,1.76494,0l.85469,1.60338,1.42442.23472a1,1,0,0,1,.54383,1.69446L14.62651,13.639l.25922,1.70919a1,1,0,0,1-1.42647,1.049L12,15.68671l-1.45926.71046a1,1,0,0,1-1.42647-1.049Z" fill="none" stroke="#323232" stroke-linecap="round" stroke-linejoin="round" stroke-width="1.5"/></svg>