<svg xmlns="http://www.w3.org/2000/svg" viewBox="0 0 24 24"><path d="M15,5h2a2,2,0,0,1,2,2v7" fill="none" stroke="#323232" stroke-linecap="round" stroke-linejoin="round" stroke-width="1.5"/><path d="M10,2h4a1,1,0,0,1,1,1V7a0,0,0,0,1,0,0H9A0,0,0,0,1,9,7V3A1,1,0,0,1,10,2Z" fill="none" stroke="#323232" stroke-linecap="round" stroke-linejoin="round" stroke-width="1.5"/><path d="M19,17.5,16.5,20,15,18.5" fill="none" stroke="#323232" stroke-linecap="round" stroke-linejoin="round" stroke-width="1.5"/><line x1="19" y1="12" x2="5" y2="12" fill="none" stroke="#323232" stroke-linecap="round" stroke-linejoin="round" stroke-width="1.5"/><path d="M9,5H7A2,2,0,0,0,5,7V19a2,2,0,0,0,2,2h5" fill="none" stroke="#323232" stroke-linecap="round" stroke-linejoin="round" stroke-width="1.5"/></svg>