<svg xmlns="http://www.w3.org/2000/svg" viewBox="0 0 24 24"><path d="M19,17V4.57621a1,1,0,0,0-.49854-.86518l-.99291-.57548a1,1,0,0,0-.99953-.002l-1.50484.86435L14.99938,4c-.02668-.0157-.91268-.5293-1.49336-.86589a.99526.99526,0,0,0-.997-.00049L11.00416,3.998h-.00832L9.491,3.13359a1,1,0,0,0-.99953.002l-1.48728.862-.00834,0L5.491,3.13323a1,1,0,0,0-.99953.00195l-.99291.57549A1,1,0,0,0,3,4.57585V19.5A1.5,1.5,0,0,0,4.5,21h0A1.5,1.5,0,0,0,6,19.5V18a1,1,0,0,1,1-1H20a1,1,0,0,1,1,1v1a2,2,0,0,1-2,2H4.5" fill="none" stroke="#323232" stroke-linecap="round" stroke-linejoin="round" stroke-width="1.5"/></svg>