<svg xmlns="http://www.w3.org/2000/svg" viewBox="0 0 24 24"><path d="M17.5,17H6.5" fill="none" stroke="#323232" stroke-linecap="round" stroke-linejoin="round" stroke-width="1.5"/><path d="M11.75,13l1.5-1.5" fill="none" stroke="#323232" stroke-linecap="round" stroke-linejoin="round" stroke-width="1.5"/><path d="M10.75,12l1,1" fill="none" stroke="#323232" stroke-linecap="round" stroke-linejoin="round" stroke-width="1.5"/><rect x="2.5" y="2.5" width="19" height="19" rx="5" stroke-width="1.5" stroke="#323232" stroke-linecap="round" stroke-linejoin="round" fill="none"/><path d="M7.5,17V8.18833a1,1,0,0,1,.64314-.93416L8.63583,7.066a.99994.99994,0,0,1,.70873-.00189l1.15977.436H10.5l1.14928-.43494a1,1,0,0,1,.7107.00107l1.13569.43369,1.1596-.43591a1,1,0,0,1,.70879.00191l.49286.18832A1,1,0,0,1,16.5,8.18831V17" fill="none" stroke="#323232" stroke-linecap="round" stroke-linejoin="round" stroke-width="1.5"/></svg>