<svg xmlns="http://www.w3.org/2000/svg" viewBox="0 0 24 24"><circle cx="12" cy="12" r="9.5" fill="none" stroke="#323232" stroke-linecap="round" stroke-linejoin="round" stroke-width="1.5"/><path d="M15.66421,13.33579l-2.82842,2.82842a2,2,0,0,1-2.82843,0L7.83579,13.99264a2,2,0,0,1,0-2.82843l2.82842-2.82842A2,2,0,0,1,12.07843,7.75H14.25a2,2,0,0,1,2,2v2.17157A2,2,0,0,1,15.66421,13.33579Z" fill="none" stroke="#323232" stroke-linecap="round" stroke-linejoin="round" stroke-width="1.5"/><path d="M13.28928,10.71072a.05555.05555,0,1,1-.07856,0,.05545.05545,0,0,1,.07856,0" fill="none" stroke="#323232" stroke-linecap="round" stroke-linejoin="round" stroke-width="1.5"/></svg>