<?xml version="1.0" encoding="UTF-8"?><svg version="1.1" viewBox="0 0 24 24" xmlns="http://www.w3.org/2000/svg" xmlns:xlink="http://www.w3.org/1999/xlink"><!--Generated by IJSVG (https://github.com/iconjar/IJSVG)--><g stroke-linecap="round" stroke-width="1.5" stroke="#323232" fill="none" stroke-linejoin="round"><path d="M15.8073,8.19266c0.144885,0.144885 0.144885,0.379789 0,0.524673c-0.144885,0.144885 -0.379789,0.144885 -0.524673,0c-0.144885,-0.144885 -0.144885,-0.379789 0,-0.524673c0.144885,-0.144885 0.379789,-0.144885 0.524673,0"></path><path d="M13.512,4h4.385c1.162,0 2.103,0.941 2.103,2.102v4.385c0,0.558 -0.222,1.092 -0.616,1.487l-8.41,8.41c-0.821,0.821 -2.152,0.821 -2.973,0l-4.385,-4.385c-0.821,-0.821 -0.821,-2.152 0,-2.973l8.41,-8.41c0.394,-0.394 0.929,-0.616 1.486,-0.616Z"></path><path d="M5.81,10.84l7.35,7.35"></path></g><path fill="none" d="M0,0h24v24h-24Z"></path></svg>