<svg xmlns="http://www.w3.org/2000/svg" viewBox="0 0 24 24"><path d="M18,21H6a2,2,0,0,1-2-2V9A2,2,0,0,1,6,7H18a2,2,0,0,1,2,2V19A2,2,0,0,1,18,21Z" fill="none" stroke="#323232" stroke-linecap="round" stroke-linejoin="round" stroke-width="1.5"/><path d="M15.5,7V6A3.5,3.5,0,0,0,12,2.5h0A3.5,3.5,0,0,0,8.5,6h0V7" fill="none" stroke="#323232" stroke-linecap="round" stroke-linejoin="round" stroke-width="1.5"/><path d="M10.71429,11,9,12.71428l1.71429,1.71429" fill="none" stroke="#323232" stroke-linecap="round" stroke-linejoin="round" stroke-width="1.5"/><path d="M9,12.71428h3.85714A2.14286,2.14286,0,0,1,15,14.85714h0A2.14286,2.14286,0,0,1,12.85715,17H11" fill="none" stroke="#323232" stroke-linecap="round" stroke-linejoin="round" stroke-width="1.5"/><path d="M0,0H24V24H0Z" fill="none"/></svg>