<svg xmlns="http://www.w3.org/2000/svg" viewBox="0 0 24 24"><path d="M13.20764,14.63464l-2.07246,2.07247A1,1,0,0,1,10.42807,17H8.75a.25.25,0,0,1-.25-.25V15.07185a1,1,0,0,1,.29279-.707L10.864,12.293a.99994.99994,0,0,1,1.41437-.00012l.92841.9284A.9992.9992,0,0,1,13.20764,14.63464Z" fill="none" stroke="#323232" stroke-linecap="round" stroke-linejoin="round" stroke-width="1.5"/><line x1="14.5" y1="17" x2="15.5" y2="17" fill="none" stroke="#323232" stroke-linecap="round" stroke-linejoin="round" stroke-width="1.5"/><rect x="4" y="7" width="16" height="14" rx="2" stroke-width="1.5" stroke="#323232" stroke-linecap="round" stroke-linejoin="round" fill="none"/><path d="M15.5,7V6A3.5,3.5,0,0,0,12,2.5h0A3.5,3.5,0,0,0,8.5,6V7" fill="none" stroke="#323232" stroke-linecap="round" stroke-linejoin="round" stroke-width="1.5"/></svg>