<svg xmlns="http://www.w3.org/2000/svg" viewBox="0 0 24 24"><path d="M4,14V9A2,2,0,0,1,6,7H18a2,2,0,0,1,2,2V19a2,2,0,0,1-2,2H13" fill="none" stroke="#323232" stroke-linecap="round" stroke-linejoin="round" stroke-width="1.5"/><path d="M15.5,7V6A3.5,3.5,0,0,0,12,2.5h0A3.5,3.5,0,0,0,8.5,6h0V7" fill="none" stroke="#323232" stroke-linecap="round" stroke-linejoin="round" stroke-width="1.5"/><line x1="4" y1="18" x2="9" y2="18" fill="none" stroke="#323232" stroke-linecap="round" stroke-linejoin="round" stroke-width="1.5"/><line x1="6" y1="21" x2="9" y2="21" fill="none" stroke="#323232" stroke-linecap="round" stroke-linejoin="round" stroke-width="1.5"/><path d="M0,0H24V24H0Z" fill="none"/></svg>