<svg xmlns="http://www.w3.org/2000/svg" viewBox="0 0 24 24"><line x1="9" y1="12.5" x2="10" y2="12.5" fill="none" stroke="#323232" stroke-linecap="round" stroke-linejoin="round" stroke-width="1.5"/><line x1="13" y1="12.5" x2="17" y2="12.5" fill="none" stroke="#323232" stroke-linecap="round" stroke-linejoin="round" stroke-width="1.5"/><line x1="9" y1="9" x2="10" y2="9" fill="none" stroke="#323232" stroke-linecap="round" stroke-linejoin="round" stroke-width="1.5"/><line x1="13" y1="9" x2="17" y2="9" fill="none" stroke="#323232" stroke-linecap="round" stroke-linejoin="round" stroke-width="1.5"/><path d="M5,17V4.67621A1,1,0,0,1,5.49854,3.811l.99291-.57548a1,1,0,0,1,.99953-.002l1.50484.86435.0048.002c.02668-.0157.91268-.5293,1.49336-.86589a.99526.99526,0,0,1,.997-.00049l1.50485.86436h.00832L14.509,3.23359a1,1,0,0,1,.99953.002l1.48728.862.00834,0L18.509,3.23323a1,1,0,0,1,.99953.002l.99291.57549A1,1,0,0,1,21,4.67585V19.5A1.5,1.5,0,0,1,19.5,21h0A1.5,1.5,0,0,1,18,19.5V18a1,1,0,0,0-1-1H4a1,1,0,0,0-1,1v1a2,2,0,0,0,2,2H19.5" fill="none" stroke="#323232" stroke-linecap="round" stroke-linejoin="round" stroke-width="1.5"/></svg>