<svg xmlns="http://www.w3.org/2000/svg" viewBox="0 0 24 24"><path d="M7.13763,19.566l-2.555.427a.5.5,0,0,1-.57556-.57556l.42688-2.55518A9.01668,9.01668,0,1,1,7.13763,19.566Z" fill="none" stroke="#323232" stroke-linecap="round" stroke-linejoin="round" stroke-width="1.5"/><path d="M14.7416,15.5H9.25836a1,1,0,0,1-.97734-.78834l-.758-3.5A1,1,0,0,1,8.50039,10h6.99922a1,1,0,0,1,.97734,1.21167l-.758,3.5A1,1,0,0,1,14.7416,15.5Z" fill="none" stroke="#323232" stroke-linecap="round" stroke-linejoin="round" stroke-width="1.5"/><path d="M10,7.5,9,10" fill="none" stroke="#323232" stroke-linecap="round" stroke-linejoin="round" stroke-width="1.5"/><path d="M14,7.5,15,10" fill="none" stroke="#323232" stroke-linecap="round" stroke-linejoin="round" stroke-width="1.5"/></svg>