<svg xmlns="http://www.w3.org/2000/svg" viewBox="0 0 24 24"><path d="M11,21H6a3,3,0,0,1-3-3V6A3,3,0,0,1,6,3H18a3,3,0,0,1,3,3v5.49993" fill="none" stroke="#323232" stroke-linecap="round" stroke-linejoin="round" stroke-width="1.5"/><path d="M19.91349,15.58678l.00035.00034a2.00933,2.00933,0,0,1-.10736,2.937l-1.8823,1.6312a1.4112,1.4112,0,0,1-1.84831,0L14.19341,18.524a2.00914,2.00914,0,0,1-.10735-2.9367h0a1.99585,1.99585,0,0,1,2.7196-.10034L17,15.65511l.19354-.16772A1.9953,1.9953,0,0,1,19.91349,15.58678Z" fill="none" stroke="#323232" stroke-linecap="round" stroke-linejoin="round" stroke-width="1.5"/><path d="M11,11.5001,17,11.5" fill="none" stroke="#323232" stroke-linecap="round" stroke-linejoin="round" stroke-width="1.5"/><line x1="6.99999" y1="8" x2="8" y2="8" fill="none" stroke="#323232" stroke-linecap="round" stroke-linejoin="round" stroke-width="1.5"/><line x1="7" y1="11.5" x2="7.99999" y2="11.5" fill="none" stroke="#323232" stroke-linecap="round" stroke-linejoin="round" stroke-width="1.5"/><line x1="7" y1="15" x2="8" y2="15" fill="none" stroke="#323232" stroke-linecap="round" stroke-linejoin="round" stroke-width="1.5"/><line x1="11" y1="8" x2="17" y2="8" fill="none" stroke="#323232" stroke-linecap="round" stroke-linejoin="round" stroke-width="1.5"/></svg>