<svg xmlns="http://www.w3.org/2000/svg" viewBox="0 0 24 24"><path d="M21,6.32456V19a2,2,0,0,1-2,2H5a2,2,0,0,1-2-2V6.32456a2.0002,2.0002,0,0,1,.10263-.63246l.44152-1.32456A2,2,0,0,1,5.44152,3h13.117a2,2,0,0,1,1.89737,1.36754l.44152,1.32456A2.0002,2.0002,0,0,1,21,6.32456Z" fill="none" stroke="#323232" stroke-linecap="round" stroke-linejoin="round" stroke-width="1.5"/><line x1="21" y1="6.5" x2="3" y2="6.5" fill="none" stroke="#323232" stroke-linecap="round" stroke-linejoin="round" stroke-width="1.5"/><path d="M8.5,10.5a3.5,3.5,0,0,0,7,0" fill="none" stroke="#323232" stroke-linecap="round" stroke-linejoin="round" stroke-width="1.5"/><path d="M0,0H24V24H0Z" fill="none"/></svg>