<svg xmlns="http://www.w3.org/2000/svg" viewBox="0 0 24 24"><rect width="24" height="24" fill="none"/><path d="M20,21V4.49752a1,1,0,0,0-.551-.89352l-.99-.49752a1,1,0,0,0-.89228-.00287l-1.57248.77759-1.5409-.77407a1,1,0,0,0-.89456-.00162L12,3.88151l-1.55876-.776a1,1,0,0,0-.89456.00162l-1.5409.77407L6.4333,3.10361a1,1,0,0,0-.89228.00287l-.99.49752A1,1,0,0,0,4,4.49752V21" fill="none" stroke="#323232" stroke-linecap="round" stroke-linejoin="round" stroke-width="1.5"/><path d="M14.999,16l1,.0001" fill="none" stroke="#323232" stroke-linecap="round" stroke-linejoin="round" stroke-width="1.5"/><path d="M16,12.50005,15,12.5" fill="none" stroke="#323232" stroke-linecap="round" stroke-linejoin="round" stroke-width="1.5"/><path d="M8,16h4" fill="none" stroke="#323232" stroke-linecap="round" stroke-linejoin="round" stroke-width="1.5"/><path d="M12,12.5H8" fill="none" stroke="#323232" stroke-linecap="round" stroke-linejoin="round" stroke-width="1.5"/><path d="M16,9.00005H8" fill="none" stroke="#323232" stroke-linecap="round" stroke-linejoin="round" stroke-width="1.5"/><line x1="22" y1="21" x2="2" y2="21" fill="none" stroke="#323232" stroke-linecap="round" stroke-linejoin="round" stroke-width="1.5"/></svg>