<svg xmlns="http://www.w3.org/2000/svg" viewBox="0 0 24 24"><path d="M11,20.99993H6a3,3,0,0,1-3-3V6A3,3,0,0,1,6,3H18a3,3,0,0,1,3,3v5.49993" fill="none" stroke="#323232" stroke-linecap="round" stroke-linejoin="round" stroke-width="1.5"/><path d="M7,11.5H17" fill="none" stroke="#323232" stroke-linecap="round" stroke-linejoin="round" stroke-width="1.5"/><path d="M7,15h3" fill="none" stroke="#323232" stroke-linecap="round" stroke-linejoin="round" stroke-width="1.5"/><line x1="7" y1="8" x2="17" y2="8" fill="none" stroke="#323232" stroke-linecap="round" stroke-linejoin="round" stroke-width="1.5"/><path d="M20.4135,15.58678l.00035.00034a2.00934,2.00934,0,0,1-.10735,2.937l-1.88231,1.6312a1.4112,1.4112,0,0,1-1.84831,0L14.69342,18.524a2.00915,2.00915,0,0,1-.10735-2.9367h0a1.99585,1.99585,0,0,1,2.7196-.10034l.19436.16818.19353-.16772A1.9953,1.9953,0,0,1,20.4135,15.58678Z" fill="none" stroke="#323232" stroke-linecap="round" stroke-linejoin="round" stroke-width="1.5"/><path d="M24,0V24H0V0Z" fill="none"/></svg>