<svg xmlns="http://www.w3.org/2000/svg" viewBox="0 0 24 24"><path d="M17,7V6a3,3,0,0,0-3-3h0a3,3,0,0,0-3,3V7" fill="none" stroke="#323232" stroke-linecap="round" stroke-linejoin="round" stroke-width="1.5"/><rect x="3" y="12" width="12" height="9" rx="2" transform="translate(18 33.00001) rotate(-180)" stroke-width="1.5" stroke="#323232" stroke-linecap="round" stroke-linejoin="round" fill="none"/><path d="M7,15v.5a2,2,0,0,0,2,2H9a2,2,0,0,0,2-2V15" fill="none" stroke="#323232" stroke-linecap="round" stroke-linejoin="round" stroke-width="1.5"/><path d="M14.73139,20H19a2,2,0,0,0,2-2V9a2,2,0,0,0-2-2H9A2,2,0,0,0,7,9v3" fill="none" stroke="#323232" stroke-linecap="round" stroke-linejoin="round" stroke-width="1.5"/><path d="M24,24H0V0H24Z" fill="none"/></svg>