<svg xmlns="http://www.w3.org/2000/svg" viewBox="0 0 24 24"><line x1="4" y1="9" x2="1.5" y2="9" fill="none" stroke="#323232" stroke-linecap="round" stroke-linejoin="round" stroke-width="1.5"/><line x1="4" y1="15" x2="3.5" y2="15" fill="none" stroke="#323232" stroke-linecap="round" stroke-linejoin="round" stroke-width="1.5"/><line x1="4" y1="12" x2="2.5" y2="12" fill="none" stroke="#323232" stroke-linecap="round" stroke-linejoin="round" stroke-width="1.5"/><path d="M4,6A4.99689,4.99689,0,0,1,8.57789,3H16a5,5,0,0,1,5,5v8a5,5,0,0,1-5,5H8.57789A4.99689,4.99689,0,0,1,4,18" fill="none" stroke="#323232" stroke-linecap="round" stroke-linejoin="round" stroke-width="1.5"/><path d="M8,8H8.8889l1.22425,4.897a.4.4,0,0,0,.38806.303h4.49745a.20251.20251,0,0,0,.19646-.15339l.79875-3.195A.2025.2025,0,0,0,15.79741,9.6H9.30677" fill="none" stroke="#323232" stroke-linecap="round" stroke-linejoin="round" stroke-width="1.5"/><path d="M10.56668,15.9a.1.1,0,0,1,.2,0" fill="none" stroke="#323232" stroke-linecap="round" stroke-linejoin="round" stroke-width="1.5"/><path d="M10.76668,15.9a.1.1,0,0,1-.2,0" fill="none" stroke="#323232" stroke-linecap="round" stroke-linejoin="round" stroke-width="1.5"/><path d="M14.56668,15.9a.1.1,0,0,1,.2,0" fill="none" stroke="#323232" stroke-linecap="round" stroke-linejoin="round" stroke-width="1.5"/><path d="M14.76668,15.9a.1.1,0,0,1-.2,0" fill="none" stroke="#323232" stroke-linecap="round" stroke-linejoin="round" stroke-width="1.5"/></svg>