<svg xmlns="http://www.w3.org/2000/svg" viewBox="0 0 24 24"><rect x="3" y="12" width="10" height="9" rx="2.5" transform="translate(16 33) rotate(-180)" stroke-width="1.5" stroke="#323232" stroke-linecap="round" stroke-linejoin="round" fill="none"/><path d="M6.25,15v.25A1.75,1.75,0,0,0,8,17H8a1.75,1.75,0,0,0,1.75-1.75V15" fill="none" stroke="#323232" stroke-linecap="round" stroke-linejoin="round" stroke-width="1.5"/><path d="M16,21h2a3,3,0,0,0,3-3V8.50932A3,3,0,0,0,20.12132,6.388L17.612,3.87867A3,3,0,0,0,15.49067,3H7A3,3,0,0,0,4,6V9" fill="none" stroke="#323232" stroke-linecap="round" stroke-linejoin="round" stroke-width="1.5"/></svg>