<svg xmlns="http://www.w3.org/2000/svg" viewBox="0 0 24 24"><path d="M3,17V5A2,2,0,0,1,5,3H19a2,2,0,0,1,2,2V17" fill="none" stroke="#323232" stroke-linecap="round" stroke-linejoin="round" stroke-width="1.5"/><path d="M2.5,17h19a1,1,0,0,1,1,1v0a3,3,0,0,1-3,3H4.5a3,3,0,0,1-3-3v0A1,1,0,0,1,2.5,17Z" fill="none" stroke="#323232" stroke-linecap="round" stroke-linejoin="round" stroke-width="1.5"/><path d="M7.75,6h.88889l1.22425,4.897a.4.4,0,0,0,.38806.303h4.49745a.20249.20249,0,0,0,.19645-.15339l.79875-3.195A.2025.2025,0,0,0,15.54739,7.6H9.05675" fill="none" stroke="#323232" stroke-linecap="round" stroke-linejoin="round" stroke-width="1.5"/><path d="M10.31665,13.9a.1.1,0,0,1,.2,0" fill="none" stroke="#323232" stroke-linecap="round" stroke-linejoin="round" stroke-width="1.5"/><path d="M10.51665,13.9a.1.1,0,0,1-.2,0" fill="none" stroke="#323232" stroke-linecap="round" stroke-linejoin="round" stroke-width="1.5"/><path d="M14.31665,13.9a.1.1,0,0,1,.2,0" fill="none" stroke="#323232" stroke-linecap="round" stroke-linejoin="round" stroke-width="1.5"/><path d="M14.51665,13.9a.1.1,0,0,1-.2,0" fill="none" stroke="#323232" stroke-linecap="round" stroke-linejoin="round" stroke-width="1.5"/></svg>