<svg xmlns="http://www.w3.org/2000/svg" viewBox="0 0 24 24"><line x1="12" y1="21" x2="12" y2="16" fill="none" stroke="#323232" stroke-linecap="round" stroke-linejoin="round" stroke-width="1.5"/><polyline points="14 18 12 16 10 18" fill="none" stroke="#323232" stroke-linecap="round" stroke-linejoin="round" stroke-width="1.5"/><path d="M8,21H6a2,2,0,0,1-2-2V9A2,2,0,0,1,6,7H18a2,2,0,0,1,2,2V19a2,2,0,0,1-2,2H16" fill="none" stroke="#323232" stroke-linecap="round" stroke-linejoin="round" stroke-width="1.5"/><path d="M8.5,7V6A3.5,3.5,0,0,1,12,2.5h0A3.5,3.5,0,0,1,15.5,6V7" fill="none" stroke="#323232" stroke-linecap="round" stroke-linejoin="round" stroke-width="1.5"/></svg>