<svg xmlns="http://www.w3.org/2000/svg" viewBox="0 0 24 24"><path d="M16,8H15" fill="none" stroke="#323232" stroke-linecap="round" stroke-linejoin="round" stroke-width="1.5"/><path d="M15,15h1" fill="none" stroke="#323232" stroke-linecap="round" stroke-linejoin="round" stroke-width="1.5"/><path d="M16,11.5H15" fill="none" stroke="#323232" stroke-linecap="round" stroke-linejoin="round" stroke-width="1.5"/><path d="M8,15h4" fill="none" stroke="#323232" stroke-linecap="round" stroke-linejoin="round" stroke-width="1.5"/><path d="M12,8H8" fill="none" stroke="#323232" stroke-linecap="round" stroke-linejoin="round" stroke-width="1.5"/><path d="M12,11.5H8" fill="none" stroke="#323232" stroke-linecap="round" stroke-linejoin="round" stroke-width="1.5"/><path d="M6,3H18a2,2,0,0,1,2,2V19.425a1,1,0,0,1-.49794.86483l-.99047.575a1,1,0,0,1-.99809.00347l-1.51929-.8679-1.4881.86359a1,1,0,0,1-1.00047.002L12,20l-1.50564.8659A1,1,0,0,1,9.49387,20.864L8.00576,20.0004l-1.51929.86791a1,1,0,0,1-.99809-.00348l-.99045-.575A1,1,0,0,1,4,19.425V5A2,2,0,0,1,6,3Z" fill="none" stroke="#323232" stroke-linecap="round" stroke-linejoin="round" stroke-width="1.5"/></svg>