<svg xmlns="http://www.w3.org/2000/svg" viewBox="0 0 24 24"><path d="M10.94091,20.89514h0A9.8782,9.8782,0,0,1,3,11.20878V8A5,5,0,0,1,8,3h8a5,5,0,0,1,5,5v3.20877a9.87818,9.87818,0,0,1-7.94069,9.6863l-.00023,0A5.40017,5.40017,0,0,1,10.94091,20.89514Z" fill="none" stroke="#323232" stroke-linecap="round" stroke-linejoin="round" stroke-width="1.5"/><path d="M10.5,10a1.5,1.5,0,0,0,3,0" fill="none" stroke="#323232" stroke-linecap="round" stroke-linejoin="round" stroke-width="1.5"/><rect x="7.5" y="7" width="9" height="8" rx="2.25" stroke-width="1.5" stroke="#323232" stroke-linecap="round" stroke-linejoin="round" fill="none"/><path d="M0,0H24V24H0Z" fill="none"/></svg>