<svg xmlns="http://www.w3.org/2000/svg" viewBox="0 0 24 24"><path d="M20,11V9a2,2,0,0,0-2-2H6A2,2,0,0,0,4,9V19a2,2,0,0,0,2,2h5" fill="none" stroke="#323232" stroke-linecap="round" stroke-linejoin="round" stroke-width="1.5"/><path d="M8.5,7V6A3.5,3.5,0,0,1,12,2.5h0A3.5,3.5,0,0,1,15.5,6h0V7" fill="none" stroke="#323232" stroke-linecap="round" stroke-linejoin="round" stroke-width="1.5"/><path d="M14,15.5v4.99449a.5.5,0,0,0,.78177.413l1.93579-1.32058a.5.5,0,0,1,.56409.00038l1.936,1.3245A.5.5,0,0,0,20,20.49914V15.5A1.5,1.5,0,0,0,18.5,14h-3A1.5,1.5,0,0,0,14,15.5Z" fill="none" stroke="#323232" stroke-linecap="round" stroke-linejoin="round" stroke-width="1.5"/><path d="M24,0H0V24H24Z" fill="none"/></svg>