<svg xmlns="http://www.w3.org/2000/svg" viewBox="0 0 24 24"><path d="M19.5,21H5a2,2,0,0,1-2-2V18a1,1,0,0,1,1-1H17a1,1,0,0,1,1,1v1.5A1.5,1.5,0,0,0,19.5,21h0A1.5,1.5,0,0,0,21,19.5V5a2,2,0,0,0-2-2H16" fill="none" stroke="#323232" stroke-linecap="round" stroke-linejoin="round" stroke-width="1.5"/><path d="M6,17V15" fill="none" stroke="#323232" stroke-linecap="round" stroke-linejoin="round" stroke-width="1.5"/><rect x="3" y="3" width="10" height="9" rx="2.5" transform="translate(16 15) rotate(-180)" stroke-width="1.5" stroke="#323232" stroke-linecap="round" stroke-linejoin="round" fill="none"/><path d="M6.25,6v.25A1.75,1.75,0,0,0,8,8H8A1.75,1.75,0,0,0,9.75,6.25V6" fill="none" stroke="#323232" stroke-linecap="round" stroke-linejoin="round" stroke-width="1.5"/></svg>