<svg xmlns="http://www.w3.org/2000/svg" viewBox="0 0 24 24"><rect x="4" y="7" width="16" height="14" rx="2" stroke-width="1.5" stroke="#323232" stroke-linecap="round" stroke-linejoin="round" fill="none"/><path d="M8.5,7V6A3.5,3.5,0,0,1,12,2.5h0A3.5,3.5,0,0,1,15.5,6V7" fill="none" stroke="#323232" stroke-linecap="round" stroke-linejoin="round" stroke-width="1.5"/><path d="M14.5,12.07141v4.4279a.5.5,0,0,1-.73517.44124L12,16l-1.76483.9406A.5.5,0,0,1,9.5,16.49931v-4.4279A1.07141,1.07141,0,0,1,10.57141,11h2.85718A1.07141,1.07141,0,0,1,14.5,12.07141Z" fill="none" stroke="#323232" stroke-linecap="round" stroke-linejoin="round" stroke-width="1.5"/></svg>