<svg xmlns="http://www.w3.org/2000/svg" viewBox="0 0 24 24"><path d="M17,9.27262V15.5A1.5,1.5,0,0,1,15.5,17h-7A1.5,1.5,0,0,1,7,15.5V9.27262a2.00037,2.00037,0,0,1,.073-.53529l.17745-.6388A1.5,1.5,0,0,1,8.69568,7h6.60864a1.5,1.5,0,0,1,1.44527,1.09853l.17745.6388A2.00037,2.00037,0,0,1,17,9.27262Z" fill="none" stroke="#323232" stroke-linecap="round" stroke-linejoin="round" stroke-width="1.5"/><line x1="17" y1="10" x2="7" y2="10" fill="none" stroke="#323232" stroke-linecap="round" stroke-linejoin="round" stroke-width="1.5"/><circle cx="12" cy="12" r="10" fill="none" stroke="#323232" stroke-linecap="round" stroke-linejoin="round" stroke-width="1.5"/><path d="M10.5,12.5a1.5,1.5,0,0,0,3,0" fill="none" stroke="#323232" stroke-linecap="round" stroke-linejoin="round" stroke-width="1.5"/></svg>