<svg xmlns="http://www.w3.org/2000/svg" viewBox="0 0 24 24"><path d="M10.9409,20.89514h0A9.87815,9.87815,0,0,1,3,11.20879V8A5,5,0,0,1,8,3h8a5,5,0,0,1,5,5v3.20876a9.87819,9.87819,0,0,1-7.9407,9.68631l-.00022,0A5.40017,5.40017,0,0,1,10.9409,20.89514Z" fill="none" stroke="#323232" stroke-linecap="round" stroke-linejoin="round" stroke-width="1.5"/><path d="M7.65,7.6h.88889l1.22425,4.897a.4.4,0,0,0,.38806.303h4.49745a.20249.20249,0,0,0,.19645-.15339l.79875-3.195A.20249.20249,0,0,0,15.4474,9.2H8.95676" fill="none" stroke="#323232" stroke-linecap="round" stroke-linejoin="round" stroke-width="1.5"/><path d="M10.21667,15.5a.1.1,0,1,1,.2,0" fill="none" stroke="#323232" stroke-linecap="round" stroke-linejoin="round" stroke-width="1.5"/><path d="M10.41667,15.5a.1.1,0,1,1-.2,0" fill="none" stroke="#323232" stroke-linecap="round" stroke-linejoin="round" stroke-width="1.5"/><path d="M14.21667,15.5a.1.1,0,1,1,.2,0" fill="none" stroke="#323232" stroke-linecap="round" stroke-linejoin="round" stroke-width="1.5"/><path d="M14.41667,15.5a.1.1,0,1,1-.2,0" fill="none" stroke="#323232" stroke-linecap="round" stroke-linejoin="round" stroke-width="1.5"/></svg>