<svg xmlns="http://www.w3.org/2000/svg" viewBox="0 0 24 24"><path d="M16.5,21H18a2,2,0,0,0,2-2V9a2,2,0,0,0-2-2H6A2,2,0,0,0,4,9V19a2,2,0,0,0,2,2H7.5" fill="none" stroke="#323232" stroke-linecap="round" stroke-linejoin="round" stroke-width="1.5"/><path d="M10.5,20.75,11.75,22l2-2" fill="none" stroke="#323232" stroke-linecap="round" stroke-linejoin="round" stroke-width="1.5"/><path d="M15.5,7V6A3.5,3.5,0,0,0,12,2.5h0A3.5,3.5,0,0,0,8.5,6V7" fill="none" stroke="#323232" stroke-linecap="round" stroke-linejoin="round" stroke-width="1.5"/></svg>