<svg xmlns="http://www.w3.org/2000/svg" viewBox="0 0 24 24"><line x1="10.74999" y1="19.75" x2="13.24999" y2="22.25" fill="none" stroke="#323232" stroke-linecap="round" stroke-linejoin="round" stroke-width="1.5"/><line x1="10.74999" y1="22.25" x2="13.24999" y2="19.75" fill="none" stroke="#323232" stroke-linecap="round" stroke-linejoin="round" stroke-width="1.5"/><path d="M16,21h2a2,2,0,0,0,2-2V9a2,2,0,0,0-2-2H6A2,2,0,0,0,4,9V19a2,2,0,0,0,2,2H8" fill="none" stroke="#323232" stroke-linecap="round" stroke-linejoin="round" stroke-width="1.5"/><path d="M15.5,7V6A3.5,3.5,0,0,0,12,2.5h0A3.5,3.5,0,0,0,8.5,6V7" fill="none" stroke="#323232" stroke-linecap="round" stroke-linejoin="round" stroke-width="1.5"/></svg>