<svg xmlns="http://www.w3.org/2000/svg" viewBox="0 0 24 24"><path d="M17.5,8.97262V15.5a2,2,0,0,1-2,2h-7a2,2,0,0,1-2-2V8.97262a2,2,0,0,1,.073-.53529l.33472-1.205A1,1,0,0,1,7.87118,6.5h8.25761a1,1,0,0,1,.96352.73236l.33471,1.205A2,2,0,0,1,17.5,8.97262Z" fill="none" stroke="#323232" stroke-linecap="round" stroke-linejoin="round" stroke-width="1.5"/><line x1="17.49999" y1="9.5" x2="6.49999" y2="9.5" fill="none" stroke="#323232" stroke-linecap="round" stroke-linejoin="round" stroke-width="1.5"/><rect x="2.99999" y="3" width="18" height="18" rx="5" stroke-width="1.5" stroke="#323232" stroke-linecap="round" stroke-linejoin="round" fill="none"/><path d="M14,12.5h0a2,2,0,0,1-2,2h0a2,2,0,0,1-2-2h0" fill="none" stroke="#323232" stroke-linecap="round" stroke-linejoin="round" stroke-width="1.5"/></svg>