<svg xmlns="http://www.w3.org/2000/svg" viewBox="0 0 24 24"><path d="M7.12132,20.12132,3.87868,16.87868A3,3,0,0,1,3,14.75736V9.24364a3,3,0,0,1,.87868-2.12132L7.12232,3.87868A3,3,0,0,1,9.24364,3h5.51272a3,3,0,0,1,2.12132.87868l3.24364,3.24364A3,3,0,0,1,21,9.24364v5.51372a3,3,0,0,1-.87835,2.121L16.88,20.121A3,3,0,0,1,14.75836,21H9.24264A3,3,0,0,1,7.12132,20.12132Z" fill="none" stroke="#323232" stroke-linecap="round" stroke-linejoin="round" stroke-width="1.5"/><path d="M7.73333,8h.88889l1.22426,4.897a.4.4,0,0,0,.388.303H14.732a.20251.20251,0,0,0,.19646-.15339l.79875-3.195A.2025.2025,0,0,0,15.53073,9.6H9.04009" fill="none" stroke="#323232" stroke-linecap="round" stroke-linejoin="round" stroke-width="1.5"/><path d="M10.3,15.9a.1.1,0,0,1,.2,0" fill="none" stroke="#323232" stroke-linecap="round" stroke-linejoin="round" stroke-width="1.5"/><path d="M10.5,15.9a.1.1,0,0,1-.2,0" fill="none" stroke="#323232" stroke-linecap="round" stroke-linejoin="round" stroke-width="1.5"/><path d="M14.3,15.9a.1.1,0,0,1,.2,0" fill="none" stroke="#323232" stroke-linecap="round" stroke-linejoin="round" stroke-width="1.5"/><path d="M14.5,15.9a.1.1,0,0,1-.2,0" fill="none" stroke="#323232" stroke-linecap="round" stroke-linejoin="round" stroke-width="1.5"/></svg>