<svg xmlns="http://www.w3.org/2000/svg" viewBox="0 0 24 24"><path d="M4.49794,20.28983l.99046.575a1,1,0,0,0,.99809.00348l1.51929-.86791,1.4881.86359a1,1,0,0,0,1.00048.002L12,20l1.50564.86591a1,1,0,0,0,1.00048-.002l1.4881-.86359,1.51929.86791a1,1,0,0,0,.99809-.00348l.99046-.575A1,1,0,0,0,20,19.425V5a2,2,0,0,0-2-2H6A2,2,0,0,0,4,5V19.425A1,1,0,0,0,4.49794,20.28983Z" fill="none" stroke="#323232" stroke-linecap="round" stroke-linejoin="round" stroke-width="1.5"/><path d="M8,15.99994h8" fill="none" stroke="#323232" stroke-linecap="round" stroke-linejoin="round" stroke-width="1.5"/><path d="M16,13H8" fill="none" stroke="#323232" stroke-linecap="round" stroke-linejoin="round" stroke-width="1.5"/><path d="M10.8,8.3,12,9.5l2-2" fill="none" stroke="#323232" stroke-linecap="round" stroke-linejoin="round" stroke-width="1.5"/></svg>