<svg xmlns="http://www.w3.org/2000/svg" viewBox="0 0 24 24"><path d="M3,19V8A2,2,0,0,1,5,6H19a2,2,0,0,1,2,2V19a2,2,0,0,1-2,2H5A2,2,0,0,1,3,19Z" fill="none" stroke="#323232" stroke-linecap="round" stroke-linejoin="round" stroke-width="1.5"/><path d="M4,6.26823V5A2,2,0,0,1,6,3H18a2,2,0,0,1,2,2V6.26823" fill="none" stroke="#323232" stroke-linecap="round" stroke-linejoin="round" stroke-width="1.5"/><path d="M15,10v1a3,3,0,0,1-3,3h0a3,3,0,0,1-3-3V10" fill="none" stroke="#323232" stroke-linecap="round" stroke-linejoin="round" stroke-width="1.5"/></svg>