<svg xmlns="http://www.w3.org/2000/svg" viewBox="0 0 24 24"><line x1="8" y1="14" x2="10" y2="14" fill="none" stroke="#323232" stroke-linecap="round" stroke-linejoin="round" stroke-width="1.5"/><line x1="9" y1="17" x2="10" y2="17" fill="none" stroke="#323232" stroke-linecap="round" stroke-linejoin="round" stroke-width="1.5"/><path d="M11,21H6a2,2,0,0,1-2-2V9A2,2,0,0,1,6,7H18a2,2,0,0,1,2,2v2" fill="none" stroke="#323232" stroke-linecap="round" stroke-linejoin="round" stroke-width="1.5"/><path d="M8.5,7V6A3.5,3.5,0,0,1,12,2.5h0A3.5,3.5,0,0,1,15.5,6V7" fill="none" stroke="#323232" stroke-linecap="round" stroke-linejoin="round" stroke-width="1.5"/><path d="M13,13h.88889l1.22425,4.897a.4.4,0,0,0,.38806.303h4.49745a.20249.20249,0,0,0,.19645-.15339l.79875-3.195A.2025.2025,0,0,0,20.79739,14.6H14.30675" fill="none" stroke="#323232" stroke-linecap="round" stroke-linejoin="round" stroke-width="1.5"/><path d="M15.56665,20.9a.1.1,0,0,1,.2,0" fill="none" stroke="#323232" stroke-linecap="round" stroke-linejoin="round" stroke-width="1.5"/><path d="M15.76665,20.9a.1.1,0,0,1-.2,0" fill="none" stroke="#323232" stroke-linecap="round" stroke-linejoin="round" stroke-width="1.5"/><path d="M19.56665,20.9a.1.1,0,0,1,.2,0" fill="none" stroke="#323232" stroke-linecap="round" stroke-linejoin="round" stroke-width="1.5"/><path d="M19.76665,20.9a.1.1,0,0,1-.2,0" fill="none" stroke="#323232" stroke-linecap="round" stroke-linejoin="round" stroke-width="1.5"/></svg>