<svg xmlns="http://www.w3.org/2000/svg" viewBox="0 0 24 24"><line x1="15.87868" y1="19.12132" x2="14.5" y2="20.5" fill="none" stroke="#323232" stroke-linecap="round" stroke-linejoin="round" stroke-width="1.5"/><path d="M11,21H8a5,5,0,0,1-5-5V8A5,5,0,0,1,8,3h8a5,5,0,0,1,5,5v3" fill="none" stroke="#323232" stroke-linecap="round" stroke-linejoin="round" stroke-width="1.5"/><line x1="8" y1="16" x2="8" y2="11.5" fill="none" stroke="#323232" stroke-linecap="round" stroke-linejoin="round" stroke-width="1.5"/><path d="M17,9.51825V10.5a1,1,0,0,1-1,1H8a1,1,0,0,1-1-1V9.51825A1.9999,1.9999,0,0,1,7.25169,8.547l.57367-1.03261A1,1,0,0,1,8.69951,7h6.601a1,1,0,0,1,.87415.51436L16.74831,8.547A1.9999,1.9999,0,0,1,17,9.51825Z" fill="none" stroke="#323232" stroke-linecap="round" stroke-linejoin="round" stroke-width="1.5"/><line x1="12" y1="16" x2="7" y2="16" fill="none" stroke="#323232" stroke-linecap="round" stroke-linejoin="round" stroke-width="1.5"/><circle cx="18" cy="17" r="3" fill="none" stroke="#323232" stroke-linecap="round" stroke-linejoin="round" stroke-width="1.5"/><rect width="24" height="24" fill="none"/></svg>