<?xml version="1.0" encoding="UTF-8"?><svg version="1.1" viewBox="0 0 24 24" xmlns="http://www.w3.org/2000/svg" xmlns:xlink="http://www.w3.org/1999/xlink"><g fill="none"><path d="M0 0h24v24h-24v-24Z"></path><path stroke="#323232" stroke-linecap="round" stroke-linejoin="round" stroke-width="1.5" d="M8.04 11.648v4.852"></path><path stroke="#323232" stroke-linecap="round" stroke-linejoin="round" stroke-width="1.5" d="M15.96 13.5v-1.852"></path><path stroke="#323232" stroke-linecap="round" stroke-linejoin="round" stroke-width="1.5" d="M10.248 10.5h.057c.141.699.844 1.231 1.696 1.231 .852 0 1.555-.532 1.696-1.231h.057c.128.697.837 1.232 1.699 1.232 1.142-.008 1.887-1.139 1.392-2.113l-.659-1.298c-.257-.504-.774-.821-1.338-.821h-5.696c-.565 0-1.082.317-1.338.821l-.658 1.297c-.495.975.25 2.105 1.392 2.113 .861.001 1.57-.534 1.7-1.231Z"></path><path stroke="#323232" stroke-linecap="round" stroke-linejoin="round" stroke-width="1.5" d="M15.96 16.5v-4.852"></path><line x1="12" x2="12" y1="16.5" y2="14.5" stroke="#323232" stroke-linecap="round" stroke-linejoin="round" stroke-width="1.5"></line><path stroke="#323232" stroke-linecap="round" stroke-linejoin="round" stroke-width="1.5" d="M7.444 16.5h9.112"></path><circle cx="12" cy="12" r="9" stroke="#323232" stroke-linecap="round" stroke-linejoin="round" stroke-width="1.5"></circle></g></svg>