<svg xmlns="http://www.w3.org/2000/svg" viewBox="0 0 24 24"><path d="M9,8.5V10a3,3,0,0,1-3,3H6a3,3,0,0,1-3-3V9.04911A3.99987,3.99987,0,0,1,3.20527,7.7842l.911-2.73288A3,3,0,0,1,6.96228,3H17.03772a3,3,0,0,1,2.846,2.05132l.911,2.73288A3.99987,3.99987,0,0,1,21,9.04911V10a3,3,0,0,1-3,3h0a3,3,0,0,1-3-3V8.5" fill="none" stroke="#323232" stroke-linecap="round" stroke-linejoin="round" stroke-width="1.5"/><line x1="20.9467" y1="8.4" x2="3.05342" y2="8.4" fill="none" stroke="#323232" stroke-linecap="round" stroke-linejoin="round" stroke-width="1.5"/><path d="M20,12.23491V19a2,2,0,0,1-2,2H6a2,2,0,0,1-2-2V12.23491" fill="none" stroke="#323232" stroke-linecap="round" stroke-linejoin="round" stroke-width="1.5"/><path d="M15,8.4V9.9a3,3,0,0,1-3,3h0a3,3,0,0,1-3-3V8.4" fill="none" stroke="#323232" stroke-linecap="round" stroke-linejoin="round" stroke-width="1.5"/><path d="M0,0H24V24H0Z" fill="none"/></svg>