<svg xmlns="http://www.w3.org/2000/svg" viewBox="0 0 24 24"><path d="M10.94091,20.89514h0A9.87816,9.87816,0,0,1,3,11.20879V8A5,5,0,0,1,8,3h8a5,5,0,0,1,5,5v3.20876a9.87819,9.87819,0,0,1-7.94069,9.68631l-.00023,0A5.40017,5.40017,0,0,1,10.94091,20.89514Z" fill="none" stroke="#323232" stroke-linecap="round" stroke-linejoin="round" stroke-width="1.5"/><path d="M16.5,9.16643V9.95a1,1,0,0,1-1,1h-7a1,1,0,0,1-1-1V9.16643a1.8,1.8,0,0,1,.22652-.87416l.202-.36356A2,2,0,0,1,9.67681,6.9H14.3232a2,2,0,0,1,1.74831,1.02871l.202.36356A1.80008,1.80008,0,0,1,16.5,9.16643Z" fill="none" stroke="#323232" stroke-linecap="round" stroke-linejoin="round" stroke-width="1.5"/><line x1="8.4" y1="15" x2="8.4" y2="10.95" fill="none" stroke="#323232" stroke-linecap="round" stroke-linejoin="round" stroke-width="1.5"/><line x1="7.5" y1="15" x2="16.5" y2="15" fill="none" stroke="#323232" stroke-linecap="round" stroke-linejoin="round" stroke-width="1.5"/><line x1="15.6" y1="15" x2="15.6" y2="10.95" fill="none" stroke="#323232" stroke-linecap="round" stroke-linejoin="round" stroke-width="1.5"/></svg>