<svg xmlns="http://www.w3.org/2000/svg" viewBox="0 0 24 24"><path d="M4.5,12.65241V19a2,2,0,0,0,2,2h11a2,2,0,0,0,2-2V12.65241" fill="none" stroke="#323232" stroke-linecap="round" stroke-linejoin="round" stroke-width="1.5"/><path d="M9,8v2a3,3,0,0,1-3,3H6a3,3,0,0,1-3-3V8.29354a1.99975,1.99975,0,0,1,.08435-.5747L4.0724,4.4253A2,2,0,0,1,5.98805,3H18.01193a2,2,0,0,1,1.91565,1.4253l.98806,3.29354A2.0001,2.0001,0,0,1,21,8.29354V10a3,3,0,0,1-3,3h0a3,3,0,0,1-3-3V8" fill="none" stroke="#323232" stroke-linecap="round" stroke-linejoin="round" stroke-width="1.5"/><path d="M20.97813,8H3.0218" fill="none" stroke="#323232" stroke-linecap="round" stroke-linejoin="round" stroke-width="1.5"/><path d="M15,8v2a3,3,0,0,1-3,3h0a3,3,0,0,1-3-3V8" fill="none" stroke="#323232" stroke-linecap="round" stroke-linejoin="round" stroke-width="1.5"/></svg>