<svg xmlns="http://www.w3.org/2000/svg" viewBox="0 0 24 24"><path d="M0,24H24V0H0Z" fill="none"/><path d="M21,21H3" fill="none" stroke="#323232" stroke-linecap="round" stroke-linejoin="round" stroke-width="1.5"/><path d="M17,8.5456h0A2.4544,2.4544,0,0,0,19.4544,11h.0912A2.4544,2.4544,0,0,0,22,8.5456V7.7082a3.00007,3.00007,0,0,0-.31672-1.34164l-.8541-1.7082A3,3,0,0,0,18.1459,3H5.8541A3,3,0,0,0,3.17082,4.65836l-.8541,1.7082A3.00007,3.00007,0,0,0,2,7.7082v.8374A2.4544,2.4544,0,0,0,4.4544,11h.0912A2.4544,2.4544,0,0,0,7,8.5456H7V8.5H7A2.5,2.5,0,0,0,9.5,11h0A2.5,2.5,0,0,0,12,8.5h0A2.5,2.5,0,0,0,14.5,11h0A2.5,2.5,0,0,0,17,8.5h0" fill="none" stroke="#323232" stroke-linecap="round" stroke-linejoin="round" stroke-width="1.5"/><path d="M3.92658,21l-.0001-10" fill="none" stroke="#323232" stroke-linecap="round" stroke-linejoin="round" stroke-width="1.5"/><path d="M20,21l-.0001-10.04218" fill="none" stroke="#323232" stroke-linecap="round" stroke-linejoin="round" stroke-width="1.5"/><line x1="9.5" y1="21" x2="9.5" y2="11" fill="none" stroke="#323232" stroke-linecap="round" stroke-linejoin="round" stroke-width="1.5"/><line x1="20" y1="16" x2="9.5" y2="16" fill="none" stroke="#323232" stroke-linecap="round" stroke-linejoin="round" stroke-width="1.5"/></svg>