<svg xmlns="http://www.w3.org/2000/svg" viewBox="0 0 24 24"><path d="M15,20.99993h3a3,3,0,0,0,3-3V6a3,3,0,0,0-3-3H6A3,3,0,0,0,3,6v4" fill="none" stroke="#323232" stroke-linecap="round" stroke-linejoin="round" stroke-width="1.5"/><path d="M17,11.5H14" fill="none" stroke="#323232" stroke-linecap="round" stroke-linejoin="round" stroke-width="1.5"/><path d="M17,15H15" fill="none" stroke="#323232" stroke-linecap="round" stroke-linejoin="round" stroke-width="1.5"/><line x1="17" y1="8" x2="7" y2="8" fill="none" stroke="#323232" stroke-linecap="round" stroke-linejoin="round" stroke-width="1.5"/><path d="M11,15.16643V15.95a1,1,0,0,1-1,1H3a1,1,0,0,1-1-1v-.78357a1.8,1.8,0,0,1,.22652-.87416l.202-.36356A2,2,0,0,1,4.17681,12.9H8.8232a2,2,0,0,1,1.74831,1.02871l.202.36356A1.80008,1.80008,0,0,1,11,15.16643Z" fill="none" stroke="#323232" stroke-linecap="round" stroke-linejoin="round" stroke-width="1.5"/><line x1="2.9" y1="21" x2="2.9" y2="16.95" fill="none" stroke="#323232" stroke-linecap="round" stroke-linejoin="round" stroke-width="1.5"/><line x1="2" y1="21" x2="11" y2="21" fill="none" stroke="#323232" stroke-linecap="round" stroke-linejoin="round" stroke-width="1.5"/><line x1="10.1" y1="21" x2="10.1" y2="16.95" fill="none" stroke="#323232" stroke-linecap="round" stroke-linejoin="round" stroke-width="1.5"/></svg>