<?xml version="1.0" encoding="UTF-8"?><svg version="1.1" viewBox="0 0 24 24" xmlns="http://www.w3.org/2000/svg" xmlns:xlink="http://www.w3.org/1999/xlink"><!--Generated by IJSVG (https://github.com/iconjar/IJSVG)--><g fill="none"><path d="M0,0h24v24h-24v-24Z"></path><path stroke="#323232" stroke-linecap="round" stroke-linejoin="round" stroke-width="1.5" d="M14.072,10.493c0,0.985 -0.927,1.784 -2.071,1.784c-1.144,0 -2.071,-0.798 -2.071,-1.784v0.039c-0.002,0.964 -0.93,1.746 -2.073,1.746c-1.37,-0.01 -2.264,-1.366 -1.67,-2.536l1.384,-2.726c0.316,-0.621 0.979,-1.016 1.707,-1.016h5.443c0.728,0 1.391,0.395 1.707,1.016l1.385,2.726c0.594,1.169 -0.299,2.526 -1.67,2.536c-1.144,0 -2.071,-0.781 -2.071,-1.746v-0.039"></path><path stroke="#323232" stroke-linecap="round" stroke-linejoin="round" stroke-width="1.5" d="M18,21h-12c-1.657,0 -3,-1.343 -3,-3v-12c0,-1.657 1.343,-3 3,-3h12c1.657,0 3,1.343 3,3v12c0,1.657 -1.343,3 -3,3Z"></path><path stroke="#323232" stroke-linecap="round" stroke-linejoin="round" stroke-width="1.5" d="M13.519,18v-2.126c0,-0.839 -0.68,-1.519 -1.519,-1.519c-0.839,0 -1.519,0.68 -1.519,1.519v2.126"></path><path stroke="#323232" stroke-linecap="round" stroke-linejoin="round" stroke-width="1.5" d="M6.533,18h10.935"></path><path stroke="#323232" stroke-linecap="round" stroke-linejoin="round" stroke-width="1.5" d="M7.248,12.178v5.822"></path><path stroke="#323232" stroke-linecap="round" stroke-linejoin="round" stroke-width="1.5" d="M16.752,18v-5.822"></path></g></svg>