<svg xmlns="http://www.w3.org/2000/svg" viewBox="0 0 24 24"><path d="M22,21,2,20.9999" fill="none" stroke="#323232" stroke-linecap="round" stroke-linejoin="round" stroke-width="1.5"/><path d="M2.30892,6.51076l1.6283-2.57861A2,2,0,0,1,5.62828,3H18.37175a2,2,0,0,1,1.69108.93218l1.62824,2.57859A2,2,0,0,1,22,7.57859V10a1,1,0,0,1-1,1H3a1,1,0,0,1-1-1V7.57861A2,2,0,0,1,2.30892,6.51076Z" fill="none" stroke="#323232" stroke-linecap="round" stroke-linejoin="round" stroke-width="1.5"/><path d="M3.92657,21l-.0001-10" fill="none" stroke="#323232" stroke-linecap="round" stroke-linejoin="round" stroke-width="1.5"/><path d="M20,21l-.0001-10" fill="none" stroke="#323232" stroke-linecap="round" stroke-linejoin="round" stroke-width="1.5"/><line x1="9.99999" y1="21" x2="9.99999" y2="11.01253" fill="none" stroke="#323232" stroke-linecap="round" stroke-linejoin="round" stroke-width="1.5"/><line x1="21.91406" y1="7" x2="2.08594" y2="7" fill="none" stroke="#323232" stroke-linecap="round" stroke-linejoin="round" stroke-width="1.5"/></svg>