<svg xmlns="http://www.w3.org/2000/svg" viewBox="0 0 24 24"><path d="M9,21H6a2,2,0,0,1-2-2V5" fill="none" stroke="#323232" stroke-linecap="round" stroke-linejoin="round" stroke-width="1.5"/><path d="M20,10V4a1,1,0,0,0-1-1H6A2,2,0,0,0,4,5H4A2,2,0,0,0,6,7H19a1,1,0,0,1,1,1V9.5" fill="none" stroke="#323232" stroke-linecap="round" stroke-linejoin="round" stroke-width="1.5"/><path d="M19,17h1a1,1,0,0,1,1,1v2a1,1,0,0,1-1,1H18.5a.5.5,0,0,1-.5-.5V18A1,1,0,0,1,19,17Z" transform="translate(39.00004 38) rotate(180)" fill="none" stroke="#323232" stroke-linecap="round" stroke-linejoin="round" stroke-width="1.5"/><path d="M12.5,17H14a1,1,0,0,1,1,1v2a1,1,0,0,1-1,1H13a1,1,0,0,1-1-1V17.5A.5.5,0,0,1,12.5,17Z" fill="none" stroke="#323232" stroke-linecap="round" stroke-linejoin="round" stroke-width="1.5"/><path d="M21,17.5v-1A4.5,4.5,0,0,0,16.5,12h0A4.5,4.5,0,0,0,12,16.5v1" fill="none" stroke="#323232" stroke-linecap="round" stroke-linejoin="round" stroke-width="1.5"/><path d="M0,0V24H24V0Z" fill="none"/></svg>