<svg xmlns="http://www.w3.org/2000/svg" viewBox="0 0 24 24"><circle cx="11.99999" cy="7.25" r="1.75" fill="none" stroke="#323232" stroke-linecap="round" stroke-linejoin="round" stroke-width="1.5"/><path d="M16.99993,11.99969C17,13.20934,17,14.64574,17,15.83436a.99019.99019,0,0,1-.95379.9846A8.17241,8.17241,0,0,0,12,18a8.17117,8.17117,0,0,0-4.041-1.18085A1.01312,1.01312,0,0,1,7,15.82365l.00006-3.81941a1.00753,1.00753,0,0,1,1.07306-1.00182A8.75865,8.75865,0,0,1,12,12.16037a8.75916,8.75916,0,0,1,3.92685-1.158A1.004,1.004,0,0,1,16.99993,11.99969Z" fill="none" stroke="#323232" stroke-linecap="round" stroke-linejoin="round" stroke-width="1.5"/><path d="M12,12.16037V18" fill="none" stroke="#323232" stroke-linecap="round" stroke-linejoin="round" stroke-width="1.5"/><circle cx="11.99999" cy="12" r="10" fill="none" stroke="#323232" stroke-linecap="round" stroke-linejoin="round" stroke-width="1.5"/></svg>