<svg xmlns="http://www.w3.org/2000/svg" viewBox="0 0 24 24"><path d="M0,0V24H24V0Z" fill="none"/><path d="M20,17.53974V4a1,1,0,0,0-1-1H6A2,2,0,0,0,4,5H4A2,2,0,0,0,6,7H19a1,1,0,0,1,1,1V20a1,1,0,0,1-1,1H6a2,2,0,0,1-2-2V5" fill="none" stroke="#323232" stroke-linecap="round" stroke-linejoin="round" stroke-width="1.5"/><path d="M12,12H10.5a1,1,0,0,0-1,1v2a1,1,0,0,0,1,1H12l1.68219,1.385A.5.5,0,0,0,14.5,16.999V11.001a.5.5,0,0,0-.81781-.386Z" fill="none" stroke="#323232" stroke-linecap="round" stroke-linejoin="round" stroke-width="1.5"/></svg>