<svg xmlns="http://www.w3.org/2000/svg" viewBox="0 0 24 24"><path d="M4,5V19a2,2,0,0,0,2,2H19a1,1,0,0,0,1-1V8a1,1,0,0,0-1-1H6A2,2,0,0,1,4,5H4A2,2,0,0,1,6,3H17a1,1,0,0,1,1,1V7" fill="none" stroke="#323232" stroke-linecap="round" stroke-linejoin="round" stroke-width="1.5"/><path d="M9,7v5.49936a.5.5,0,0,0,.73517.44124L11.5,12l1.76483.9406A.5.5,0,0,0,14,12.49936V7" fill="none" stroke="#323232" stroke-linecap="round" stroke-linejoin="round" stroke-width="1.5"/><path d="M0,0H24V24H0Z" fill="none"/></svg>