<svg xmlns="http://www.w3.org/2000/svg" viewBox="0 0 24 24"><circle cx="12" cy="5.75" r="2.75" fill="none" stroke="#323232" stroke-linecap="round" stroke-linejoin="round" stroke-width="1.5"/><path d="M19.99992,11.99328C19.99995,13.98181,20,16.166,20,18.122a1.50956,1.50956,0,0,1-1.44363,1.48465A13.1072,13.1072,0,0,0,12,21.5a13.10536,13.10536,0,0,0-6.55155-1.89311A1.51917,1.51917,0,0,1,4,18.11232l.00008-6.10783a1.48968,1.48968,0,0,1,1.583-1.50112A14.0621,14.0621,0,0,1,12,12.36487a14.06469,14.06469,0,0,1,6.42413-1.86194A1.48,1.48,0,0,1,19.99992,11.99328Z" fill="none" stroke="#323232" stroke-linecap="round" stroke-linejoin="round" stroke-width="1.5"/><path d="M12,12.36487V21.5" fill="none" stroke="#323232" stroke-linecap="round" stroke-linejoin="round" stroke-width="1.5"/><path d="M24,24H0V0H24Z" fill="none"/></svg>