<svg xmlns="http://www.w3.org/2000/svg" viewBox="0 0 24 24"><path d="M7.5,9.204v5.86031a.49431.49431,0,0,0,.7003.45656A3.43646,3.43646,0,0,1,12,16.0006a3.43646,3.43646,0,0,1,3.79972-.47976.49431.49431,0,0,0,.7003-.45656V9.204a.58706.58706,0,0,0-.15711-.37413A3.06,3.06,0,0,0,12,8.985a3.06,3.06,0,0,0-4.3429-.15514A.58706.58706,0,0,0,7.5,9.204Z" fill="none" stroke="#323232" stroke-linecap="round" stroke-linejoin="round" stroke-width="1.5"/><line x1="12" y1="16.0006" x2="12" y2="8.98498" fill="none" stroke="#323232" stroke-linecap="round" stroke-linejoin="round" stroke-width="1.5"/><path d="M7.13763,19.566l-2.555.427a.5.5,0,0,1-.57556-.57556l.42688-2.55518A9.01668,9.01668,0,1,1,7.13763,19.566Z" fill="none" stroke="#323232" stroke-linecap="round" stroke-linejoin="round" stroke-width="1.5"/></svg>