<svg xmlns="http://www.w3.org/2000/svg" viewBox="0 0 24 24"><path d="M4,9V7A2,2,0,0,1,6,5H16" fill="none" stroke="#323232" stroke-linecap="round" stroke-linejoin="round" stroke-width="1.5"/><path d="M21,18.49881v-14a2.5,2.5,0,0,0-2.5-2.5H17a1,1,0,0,0-1,1v12a1,1,0,0,0,1,1h1.5a2.5,2.5,0,1,1,0,5H15" fill="none" stroke="#323232" stroke-linecap="round" stroke-linejoin="round" stroke-width="1.5"/><path d="M7,11v1" fill="none" stroke="#323232" stroke-linecap="round" stroke-linejoin="round" stroke-width="1.5"/><path d="M11,17.5a4.4311,4.4311,0,0,1-4,2.28548A4.4311,4.4311,0,0,1,3,17.5" fill="none" stroke="#323232" stroke-linecap="round" stroke-linejoin="round" stroke-width="1.5"/><line x1="7.84357" y1="15.28362" x2="11" y2="21" fill="none" stroke="#323232" stroke-linecap="round" stroke-linejoin="round" stroke-width="1.5"/><line x1="3" y1="21" x2="6.15643" y2="15.28362" fill="none" stroke="#323232" stroke-linecap="round" stroke-linejoin="round" stroke-width="1.5"/><path d="M5.76257,12.51256a1.75,1.75,0,1,0,2.47488,0,1.75,1.75,0,0,0-2.47488,0" fill="none" stroke="#323232" stroke-linecap="round" stroke-linejoin="round" stroke-width="1.5"/></svg>