<svg xmlns="http://www.w3.org/2000/svg" viewBox="0 0 24 24"><path d="M10,11V3.5A1.5,1.5,0,0,0,8.5,2h-1A1.5,1.5,0,0,0,6,3.5V11" fill="none" stroke="#323232" stroke-linecap="round" stroke-linejoin="round" stroke-width="1.5"/><line x1="10" y1="5.99999" x2="6" y2="5.99999" fill="none" stroke="#323232" stroke-linecap="round" stroke-linejoin="round" stroke-width="1.5"/><path d="M13,11V3a1,1,0,0,1,1-1h3a1,1,0,0,1,1,1v8" fill="none" stroke="#323232" stroke-linecap="round" stroke-linejoin="round" stroke-width="1.5"/><line x1="18" y1="5" x2="16" y2="5" fill="none" stroke="#323232" stroke-linecap="round" stroke-linejoin="round" stroke-width="1.5"/><line x1="18" y1="8" x2="16.5" y2="8" fill="none" stroke="#323232" stroke-linecap="round" stroke-linejoin="round" stroke-width="1.5"/><path d="M6.00016,11H17.99984a2,2,0,0,1,1.99178,2.18107l-.63636,7A2,2,0,0,1,17.36347,22H6.63653a2,2,0,0,1-1.99179-1.81893l-.63636-7A2,2,0,0,1,6.00016,11Z" fill="none" stroke="#323232" stroke-linecap="round" stroke-linejoin="round" stroke-width="1.5"/><line x1="19.5" y1="16" x2="4.5" y2="16" fill="none" stroke="#323232" stroke-linecap="round" stroke-linejoin="round" stroke-width="1.5"/><path d="M0,0H24V24H0Z" fill="none"/></svg>