<svg xmlns="http://www.w3.org/2000/svg" viewBox="0 0 24 24"><path d="M22,12V5a2,2,0,0,0-2-2H4A2,2,0,0,0,2,5V18a2,2,0,0,0,2,2H14" fill="none" stroke="#323232" stroke-linecap="round" stroke-linejoin="round" stroke-width="1.5"/><line x1="6" y1="8" x2="17" y2="8" fill="none" stroke="#323232" stroke-linecap="round" stroke-linejoin="round" stroke-width="1.5"/><line x1="6" y1="11.5" x2="10" y2="11.5" fill="none" stroke="#323232" stroke-linecap="round" stroke-linejoin="round" stroke-width="1.5"/><line x1="6" y1="15" x2="10" y2="15" fill="none" stroke="#323232" stroke-linecap="round" stroke-linejoin="round" stroke-width="1.5"/><path d="M14.825,15.40487l4.06083,4.06083a1.82423,1.82423,0,0,0,2.57984,0h0a1.82422,1.82422,0,0,0,0-2.57983L17.40487,12.825a2.43228,2.43228,0,0,0-1.37592-.688l-.88726-.12675a1,1,0,0,0-1.13137,1.13137l.12675.88726A2.43228,2.43228,0,0,0,14.825,15.40487Z" fill="none" stroke="#323232" stroke-linecap="round" stroke-linejoin="round" stroke-width="1.5"/><rect width="24" height="24" fill="none"/></svg>