<svg xmlns="http://www.w3.org/2000/svg" viewBox="0 0 24 24"><line x1="7" y1="8" x2="16" y2="8" fill="none" stroke="#323232" stroke-linecap="round" stroke-linejoin="round" stroke-width="1.5"/><line x1="7" y1="12" x2="11" y2="12" fill="none" stroke="#323232" stroke-linecap="round" stroke-linejoin="round" stroke-width="1.5"/><line x1="7" y1="16" x2="9" y2="16" fill="none" stroke="#323232" stroke-linecap="round" stroke-linejoin="round" stroke-width="1.5"/><path d="M20,10V5a2,2,0,0,0-2-2H5A2,2,0,0,0,3,5V19a2,2,0,0,0,2,2h6" fill="none" stroke="#323232" stroke-linecap="round" stroke-linejoin="round" stroke-width="1.5"/><path d="M15,16.99048v2.27928a1.35,1.35,0,0,0,.74628,1.20748l.41211.20606a3,3,0,0,0,2.68323,0l.41211-.20606A1.35,1.35,0,0,0,20,19.26976V16.99048" fill="none" stroke="#323232" stroke-linecap="round" stroke-linejoin="round" stroke-width="1.5"/><path d="M13.40558,16.16628l3.06118,1.58244a2.25005,2.25005,0,0,0,2.06645,0l3.06117-1.58244a.75.75,0,0,0,0-1.33257l-3.06117-1.58244a2.25,2.25,0,0,0-2.06645,0l-3.06118,1.58244A.75.75,0,0,0,13.40558,16.16628Z" fill="none" stroke="#323232" stroke-linecap="round" stroke-linejoin="round" stroke-width="1.5"/><path d="M22,15.5103v1.737" fill="none" stroke="#323232" stroke-linecap="round" stroke-linejoin="round" stroke-width="1.5"/><path d="M24,24H0V0H24Z" fill="none"/></svg>