<svg xmlns="http://www.w3.org/2000/svg" viewBox="0 0 24 24"><path d="M24,24H0V0H24Z" fill="none"/><path d="M19.2088,20.90557l-1.91827-1.3743a.5.5,0,0,0-.58186-.00038l-1.918,1.37032A.5.5,0,0,1,14,20.49437V15.25A1.25,1.25,0,0,1,15.25,14h3.5A1.25,1.25,0,0,1,20,15.25v5.24912A.5.5,0,0,1,19.2088,20.90557Z" fill="none" stroke="#323232" stroke-linecap="round" stroke-linejoin="round" stroke-width="1.5"/><line x1="7" y1="8" x2="16" y2="8" fill="none" stroke="#323232" stroke-linecap="round" stroke-linejoin="round" stroke-width="1.5"/><line x1="7" y1="12" x2="11" y2="12" fill="none" stroke="#323232" stroke-linecap="round" stroke-linejoin="round" stroke-width="1.5"/><line x1="7" y1="16" x2="10.5" y2="16" fill="none" stroke="#323232" stroke-linecap="round" stroke-linejoin="round" stroke-width="1.5"/><path d="M10.5,21H6a3,3,0,0,1-3-3V6A3,3,0,0,1,6,3H17a3,3,0,0,1,3,3v5" fill="none" stroke="#323232" stroke-linecap="round" stroke-linejoin="round" stroke-width="1.5"/></svg>