<svg xmlns="http://www.w3.org/2000/svg" viewBox="0 0 24 24"><path d="M0,0H24V24H0Z" fill="none"/><path d="M20,9V7a2,2,0,0,0-2-2H8" fill="none" stroke="#323232" stroke-linecap="round" stroke-linejoin="round" stroke-width="1.5"/><path d="M16.8,20.02847l4.61425-4.61424a2,2,0,0,0,0-2.82843h0a2,2,0,0,0-2.82842,0l-4.61425,4.61427a2.5,2.5,0,0,0-.70711,1.41421l-.25927,1.8149a.5.5,0,0,0,.56568.56568l1.81491-.25927A2.5,2.5,0,0,0,16.8,20.02847Z" fill="none" stroke="#323232" stroke-linecap="round" stroke-linejoin="round" stroke-width="1.5"/><line x1="20.20875" y1="16.61969" x2="17.38033" y2="13.79126" fill="none" stroke="#323232" stroke-linecap="round" stroke-linejoin="round" stroke-width="1.5"/><path d="M10,21H5.5A2.5,2.5,0,0,1,3,18.5H3A2.5,2.5,0,0,1,5.5,16H7a1,1,0,0,0,1-1V3A1,1,0,0,0,7,2H5.5A2.5,2.5,0,0,0,3,4.5v14" fill="none" stroke="#323232" stroke-linecap="round" stroke-linejoin="round" stroke-width="1.5"/></svg>