<svg xmlns="http://www.w3.org/2000/svg" viewBox="0 0 24 24"><path d="M24,24H0V0H24Z" fill="none"/><path d="M3.51387,15H6a2,2,0,0,0,2-2V11a2,2,0,0,1,2-2h2a2,2,0,0,0,2-2V3.22468" fill="none" stroke="#323232" stroke-linecap="round" stroke-linejoin="round" stroke-width="1.5"/><path d="M20.94135,11A8.99846,8.99846,0,1,0,11,20.94135" fill="none" stroke="#323232" stroke-linecap="round" stroke-linejoin="round" stroke-width="1.5"/><path d="M14,16.99048v2.27928a1.35,1.35,0,0,0,.74627,1.20748l.41211.20605a3,3,0,0,0,2.68323,0l.41211-.20605A1.35,1.35,0,0,0,19,19.26976V16.99048" fill="none" stroke="#323232" stroke-linecap="round" stroke-linejoin="round" stroke-width="1.5"/><path d="M12.40562,16.16628l3.06117,1.58244a2.25005,2.25005,0,0,0,2.06645,0l3.06118-1.58244a.75005.75005,0,0,0,0-1.33258l-3.06118-1.58244a2.25005,2.25005,0,0,0-2.06645,0L12.40562,14.8337A.75.75,0,0,0,12.40562,16.16628Z" fill="none" stroke="#323232" stroke-linecap="round" stroke-linejoin="round" stroke-width="1.5"/><path d="M21,15.5103v1.737" fill="none" stroke="#323232" stroke-linecap="round" stroke-linejoin="round" stroke-width="1.5"/></svg>