<svg xmlns="http://www.w3.org/2000/svg" viewBox="0 0 24 24"><path d="M3.51387,15H6a2,2,0,0,0,2-2V11a2,2,0,0,1,2-2h2a2,2,0,0,0,2-2V3.22469" fill="none" stroke="#323232" stroke-linecap="round" stroke-linejoin="round" stroke-width="1.5"/><path d="M21,14.503V18.57a1.01869,1.01869,0,0,1-.94906.99535A6.47957,6.47957,0,0,0,17,20.5a6.47957,6.47957,0,0,0-3.05093-.93466A1.01869,1.01869,0,0,1,13,18.57V14.503a.98409.98409,0,0,1,1.06929-.99885A6.94674,6.94674,0,0,1,17,14.41387a6.94674,6.94674,0,0,1,2.9307-.90974A.98409.98409,0,0,1,21,14.503Z" fill="none" stroke="#323232" stroke-linecap="round" stroke-linejoin="round" stroke-width="1.5"/><path d="M17,14.41387V20.5" fill="none" stroke="#323232" stroke-linecap="round" stroke-linejoin="round" stroke-width="1.5"/><path d="M24,24H0V0H24Z" fill="none"/><path d="M20.76666,10A8.99538,8.99538,0,1,0,10,20.76666" fill="none" stroke="#323232" stroke-linecap="round" stroke-linejoin="round" stroke-width="1.5"/></svg>