<svg xmlns="http://www.w3.org/2000/svg" viewBox="0 0 24 24"><path d="M3.51386,15H6a2,2,0,0,0,2-2V11a2,2,0,0,1,2-2h2a2,2,0,0,0,2-2V3.22468" fill="none" stroke="#323232" stroke-linecap="round" stroke-linejoin="round" stroke-width="1.5"/><path d="M14.25,17.45475v2.59731a1.5,1.5,0,0,0,.82919,1.34165l.5792.28959a3,3,0,0,0,2.68322,0l.57919-.28959a1.5,1.5,0,0,0,.8292-1.34165V17.45475" fill="none" stroke="#323232" stroke-linecap="round" stroke-linejoin="round" stroke-width="1.5"/><path d="M12.56857,16.65213l3.35292,1.60329a2.50005,2.50005,0,0,0,2.157,0l3.35293-1.60329a1,1,0,0,0,0-1.80425l-3.35293-1.60329a2.50005,2.50005,0,0,0-2.157,0l-3.35292,1.60329A1,1,0,0,0,12.56857,16.65213Z" fill="none" stroke="#323232" stroke-linecap="round" stroke-linejoin="round" stroke-width="1.5"/><path d="M22,15.74345V18" fill="none" stroke="#323232" stroke-linecap="round" stroke-linejoin="round" stroke-width="1.5"/><path d="M20.94135,11A8.99846,8.99846,0,1,0,11,20.94141" fill="none" stroke="#323232" stroke-linecap="round" stroke-linejoin="round" stroke-width="1.5"/></svg>