<svg xmlns="http://www.w3.org/2000/svg" viewBox="0 0 24 24"><path d="M10.94091,20.89514h0A9.87816,9.87816,0,0,1,3,11.20879V8A5,5,0,0,1,8,3h8a5,5,0,0,1,5,5v3.20876a9.87819,9.87819,0,0,1-7.94069,9.68631l-.00023,0A5.40017,5.40017,0,0,1,10.94091,20.89514Z" fill="none" stroke="#323232" stroke-linecap="round" stroke-linejoin="round" stroke-width="1.5"/><path d="M9.25,11.45475v2.59731a1.5,1.5,0,0,0,.82919,1.34165l.5792.28959a3,3,0,0,0,2.68322,0l.5792-.28959A1.5,1.5,0,0,0,14.75,14.05206V11.45475" fill="none" stroke="#323232" stroke-linecap="round" stroke-linejoin="round" stroke-width="1.5"/><path d="M7.56858,10.65213l3.35292,1.60329a2.50007,2.50007,0,0,0,2.157,0l3.35292-1.60329a1,1,0,0,0,0-1.80425L13.0785,7.24459a2.50007,2.50007,0,0,0-2.157,0L7.56858,8.84788A1,1,0,0,0,7.56858,10.65213Z" fill="none" stroke="#323232" stroke-linecap="round" stroke-linejoin="round" stroke-width="1.5"/><path d="M17,9.74345V12" fill="none" stroke="#323232" stroke-linecap="round" stroke-linejoin="round" stroke-width="1.5"/><path d="M0,0H24V24H0Z" fill="none"/></svg>