<svg xmlns="http://www.w3.org/2000/svg" viewBox="0 0 24 24"><path d="M0,0H24V24H0Z" fill="none"/><path d="M21,21l.578-1.156A3.99765,3.99765,0,0,0,22,18.05569V11.5A1.5,1.5,0,0,0,20.5,10h0A1.5,1.5,0,0,0,19,11.5v4" fill="none" stroke="#323232" stroke-linecap="round" stroke-linejoin="round" stroke-width="1.5"/><path d="M14,21V18.08665a2,2,0,0,1,.4-1.2l1.67794-2.23727a1.62335,1.62335,0,0,1,2.44657-.17387h0a1.62336,1.62336,0,0,1,.15079,2.12191L17.62335,18" fill="none" stroke="#323232" stroke-linecap="round" stroke-linejoin="round" stroke-width="1.5"/><path d="M3,21l-.578-1.156A3.99765,3.99765,0,0,1,2,18.05569V11.5A1.5,1.5,0,0,1,3.5,10h0A1.5,1.5,0,0,1,5,11.5v4" fill="none" stroke="#323232" stroke-linecap="round" stroke-linejoin="round" stroke-width="1.5"/><path d="M10,21V18.08665a2,2,0,0,0-.4-1.2L7.92206,14.64938a1.62335,1.62335,0,0,0-2.44657-.17387h0a1.62336,1.62336,0,0,0-.15079,2.12191L6.37665,18" fill="none" stroke="#323232" stroke-linecap="round" stroke-linejoin="round" stroke-width="1.5"/><path d="M9,6.86019V9.83436a1.65,1.65,0,0,0,.91211,1.47581l.74628.37313a3,3,0,0,0,2.68322,0l.74628-.37313A1.65,1.65,0,0,0,15,9.83436V6.86019" fill="none" stroke="#323232" stroke-linecap="round" stroke-linejoin="round" stroke-width="1.5"/><path d="M7.0556,5.89562l3.61284,1.79223a2.99633,2.99633,0,0,0,2.66312,0L16.9444,5.89562a1,1,0,0,0,0-1.79167L13.33319,2.31253a3,3,0,0,0-2.66638,0L7.0556,4.104A1,1,0,0,0,7.0556,5.89562Z" fill="none" stroke="#323232" stroke-linecap="round" stroke-linejoin="round" stroke-width="1.5"/><path d="M17.5,5V7.5" fill="none" stroke="#323232" stroke-linecap="round" stroke-linejoin="round" stroke-width="1.5"/></svg>