<svg xmlns="http://www.w3.org/2000/svg" viewBox="0 0 24 24"><path d="M24,24H0V0H24Z" fill="none"/><path d="M9.5,10.49048v2.27928a1.35,1.35,0,0,0,.74627,1.20748l.41212.20606a3,3,0,0,0,2.68322,0l.41212-.20606A1.35,1.35,0,0,0,14.5,12.76976V10.49048" fill="none" stroke="#323232" stroke-linecap="round" stroke-linejoin="round" stroke-width="1.5"/><path d="M7.9056,9.66628l3.06118,1.58244a2.25,2.25,0,0,0,2.06644,0L16.0944,9.66628a.75.75,0,0,0,0-1.33257L13.03322,6.75127a2.25,2.25,0,0,0-2.06644,0L7.9056,8.33371A.75.75,0,0,0,7.9056,9.66628Z" fill="none" stroke="#323232" stroke-linecap="round" stroke-linejoin="round" stroke-width="1.5"/><path d="M16.5,9.0103v1.737" fill="none" stroke="#323232" stroke-linecap="round" stroke-linejoin="round" stroke-width="1.5"/><path d="M12.5,18,8.80838,20.89265A.5.5,0,0,1,8,20.49908V18H6a3,3,0,0,1-3-3V6A3,3,0,0,1,6,3H18a3,3,0,0,1,3,3v9a3,3,0,0,1-3,3Z" fill="none" stroke="#323232" stroke-linecap="round" stroke-linejoin="round" stroke-width="1.5"/></svg>