<svg xmlns="http://www.w3.org/2000/svg" viewBox="0 0 24 24"><path d="M9.25,10.95475v2.59731a1.5,1.5,0,0,0,.8292,1.34165l.57919.28959a3,3,0,0,0,2.68322,0l.5792-.28959A1.5,1.5,0,0,0,14.75,13.55206V10.95475" fill="none" stroke="#323232" stroke-linecap="round" stroke-linejoin="round" stroke-width="1.5"/><path d="M7.5686,10.15213l3.35292,1.60329a2.50007,2.50007,0,0,0,2.157,0l3.35292-1.60329a1,1,0,0,0,0-1.80425L13.07852,6.74459a2.50007,2.50007,0,0,0-2.157,0L7.5686,8.34788A1,1,0,0,0,7.5686,10.15213Z" fill="none" stroke="#323232" stroke-linecap="round" stroke-linejoin="round" stroke-width="1.5"/><path d="M17,9.24345V11.5" fill="none" stroke="#323232" stroke-linecap="round" stroke-linejoin="round" stroke-width="1.5"/><path d="M9.58582,19l1.70709,1.70709a1,1,0,0,0,1.41418,0L14.41418,19H18a3,3,0,0,0,3-3V6a3,3,0,0,0-3-3H6A3,3,0,0,0,3,6V16a3,3,0,0,0,3,3Z" fill="none" stroke="#323232" stroke-linecap="round" stroke-linejoin="round" stroke-width="1.5"/><path d="M0,0H24V24H0Z" fill="none"/></svg>