<svg xmlns="http://www.w3.org/2000/svg" viewBox="0 0 24 24"><path d="M9,11.88989v3.09619a1.5,1.5,0,0,0,.82919,1.34164l.60559.30279a3.5,3.5,0,0,0,3.13043,0l.60559-.30279A1.5,1.5,0,0,0,15,14.98608V11.88989" fill="none" stroke="#323232" stroke-linecap="round" stroke-linejoin="round" stroke-width="1.5"/><path d="M7.125,10.99219l3.57954,1.71368a2.99994,2.99994,0,0,0,2.59086,0L16.875,10.99219a1.1,1.1,0,0,0,0-1.9844L13.29542,7.29411a2.99994,2.99994,0,0,0-2.59086,0L7.125,9.00779A1.1,1.1,0,0,0,7.125,10.99219Z" fill="none" stroke="#323232" stroke-linecap="round" stroke-linejoin="round" stroke-width="1.5"/><path d="M17.5,10.0001V12.55" fill="none" stroke="#323232" stroke-linecap="round" stroke-linejoin="round" stroke-width="1.5"/><rect x="2.99999" y="3" width="18" height="18" rx="5" stroke-width="1.5" stroke="#323232" stroke-linecap="round" stroke-linejoin="round" fill="none"/></svg>