<svg xmlns="http://www.w3.org/2000/svg" viewBox="0 0 24 24"><path d="M9.25,10.95475v2.59731a1.5,1.5,0,0,0,.82919,1.34165l.5792.28959a3,3,0,0,0,2.68322,0l.5792-.28959A1.5,1.5,0,0,0,14.75,13.55206V10.95475" fill="none" stroke="#323232" stroke-linecap="round" stroke-linejoin="round" stroke-width="1.5"/><path d="M7.56858,10.15213l3.35292,1.60329a2.50007,2.50007,0,0,0,2.157,0l3.35292-1.60329a1,1,0,0,0,0-1.80425L13.0785,6.74459a2.50007,2.50007,0,0,0-2.157,0L7.56858,8.34788A1,1,0,0,0,7.56858,10.15213Z" fill="none" stroke="#323232" stroke-linecap="round" stroke-linejoin="round" stroke-width="1.5"/><path d="M18,19H14.5l-1.81034,1.72415a1,1,0,0,1-1.37933,0L9.5,19.00006,6,19A3,3,0,0,1,3,16V6A3,3,0,0,1,6,3H18a3,3,0,0,1,3,3V16A3,3,0,0,1,18,19Z" fill="none" stroke="#323232" stroke-linecap="round" stroke-linejoin="round" stroke-width="1.5"/><path d="M17,9.24345V11.5" fill="none" stroke="#323232" stroke-linecap="round" stroke-linejoin="round" stroke-width="1.5"/></svg>