<svg xmlns="http://www.w3.org/2000/svg" viewBox="0 0 24 24"><path d="M3,20l1.15551.57774A4.00009,4.00009,0,0,0,5.94432,21H12.5A1.5,1.5,0,0,0,14,19.5h0A1.5,1.5,0,0,0,12.5,18h-4" fill="none" stroke="#323232" stroke-linecap="round" stroke-linejoin="round" stroke-width="1.5"/><path d="M3,13H5.91335a2,2,0,0,1,1.2.4l2.23727,1.67794a1.62336,1.62336,0,0,1,.17388,2.44657h0a1.62335,1.62335,0,0,1-2.1219.15079L6,16.62335" fill="none" stroke="#323232" stroke-linecap="round" stroke-linejoin="round" stroke-width="1.5"/><path d="M21,14v4a3,3,0,0,1-3,3H17" fill="none" stroke="#323232" stroke-linecap="round" stroke-linejoin="round" stroke-width="1.5"/><path d="M3,9V6A3,3,0,0,1,6,3H7" fill="none" stroke="#323232" stroke-linecap="round" stroke-linejoin="round" stroke-width="1.5"/><path d="M12.5,7.38989v3.09619a1.5,1.5,0,0,0,.82919,1.34164l.6056.30279a3.5,3.5,0,0,0,3.13042,0l.6056-.30279A1.5,1.5,0,0,0,18.5,10.48608V7.38989" fill="none" stroke="#323232" stroke-linecap="round" stroke-linejoin="round" stroke-width="1.5"/><path d="M10.625,6.49219l3.57954,1.71368a2.99994,2.99994,0,0,0,2.59086,0L20.375,6.49219a1.1,1.1,0,0,0,0-1.9844L16.79543,2.79411a2.99994,2.99994,0,0,0-2.59086,0L10.625,4.50779A1.1,1.1,0,0,0,10.625,6.49219Z" fill="none" stroke="#323232" stroke-linecap="round" stroke-linejoin="round" stroke-width="1.5"/><path d="M21,5.5001V8.05" fill="none" stroke="#323232" stroke-linecap="round" stroke-linejoin="round" stroke-width="1.5"/></svg>