<svg xmlns="http://www.w3.org/2000/svg" viewBox="0 0 24 24"><path d="M21,16v2a3,3,0,0,1-3,3H17" fill="none" stroke="#323232" stroke-linecap="round" stroke-linejoin="round" stroke-width="1.5"/><path d="M3,10V6A3,3,0,0,1,6,3H8" fill="none" stroke="#323232" stroke-linecap="round" stroke-linejoin="round" stroke-width="1.5"/><path d="M12.5,3H20a1,1,0,0,1,1,1v8a1,1,0,0,1-1,1H12.5A1.5,1.5,0,0,1,11,11.5v-7A1.5,1.5,0,0,1,12.5,3Z" fill="none" stroke="#323232" stroke-linecap="round" stroke-linejoin="round" stroke-width="1.5"/><path d="M11,11.5A1.5,1.5,0,0,1,12.5,10H21" fill="none" stroke="#323232" stroke-linecap="round" stroke-linejoin="round" stroke-width="1.5"/><path d="M3,20l1.156.578A3.99768,3.99768,0,0,0,5.94378,21H12.5A1.5,1.5,0,0,0,14,19.5h0A1.5,1.5,0,0,0,12.5,18h-4" fill="none" stroke="#323232" stroke-linecap="round" stroke-linejoin="round" stroke-width="1.5"/><path d="M3,13H5.91335a2,2,0,0,1,1.2.4l2.23727,1.67794a1.62336,1.62336,0,0,1,.17388,2.44657h0a1.62335,1.62335,0,0,1-2.1219.15079L6,16.62335" fill="none" stroke="#323232" stroke-linecap="round" stroke-linejoin="round" stroke-width="1.5"/><path d="M24,0H0V24H24Z" fill="none"/></svg>