<svg xmlns="http://www.w3.org/2000/svg" viewBox="0 0 24 24"><path d="M3,20l1.156.578A3.99768,3.99768,0,0,0,5.94378,21H12.5A1.5,1.5,0,0,0,14,19.5h0A1.5,1.5,0,0,0,12.5,18h-4" fill="none" stroke="#323232" stroke-linecap="round" stroke-linejoin="round" stroke-width="1.5"/><path d="M3,13H5.91335a2,2,0,0,1,1.2.4l2.23727,1.67794a1.62337,1.62337,0,0,1,.17388,2.44658h0a1.62334,1.62334,0,0,1-2.1219.15079L6,16.62335" fill="none" stroke="#323232" stroke-linecap="round" stroke-linejoin="round" stroke-width="1.5"/><path d="M21,14v4a3,3,0,0,1-3,3H17" fill="none" stroke="#323232" stroke-linecap="round" stroke-linejoin="round" stroke-width="1.5"/><path d="M3,9V6A3,3,0,0,1,6,3H8" fill="none" stroke="#323232" stroke-linecap="round" stroke-linejoin="round" stroke-width="1.5"/><path d="M21,4.00432V9.82367a1.01313,1.01313,0,0,1-.959.99548A8.17108,8.17108,0,0,0,16,12a8.17111,8.17111,0,0,0-4.041-1.18085A1.01313,1.01313,0,0,1,11,9.82367V4.00432a.9962.9962,0,0,1,1.0731-1.00184A8.75963,8.75963,0,0,1,16,4.16053a8.75959,8.75959,0,0,1,3.92688-1.158A.9962.9962,0,0,1,21,4.00432Z" fill="none" stroke="#323232" stroke-linecap="round" stroke-linejoin="round" stroke-width="1.5"/><path d="M16,4.16053V12" fill="none" stroke="#323232" stroke-linecap="round" stroke-linejoin="round" stroke-width="1.5"/><path d="M24,0H0V24H24Z" fill="none"/></svg>