<svg xmlns="http://www.w3.org/2000/svg" viewBox="0 0 24 24"><path d="M8,15V5a2,2,0,0,1,2-2H20a2,2,0,0,1,2,2V18a2,2,0,0,1-2,2H10.22325" fill="none" stroke="#323232" stroke-linecap="round" stroke-linejoin="round" stroke-width="1.5"/><line x1="11.5" y1="8" x2="18.5" y2="8" fill="none" stroke="#323232" stroke-linecap="round" stroke-linejoin="round" stroke-width="1.5"/><line x1="18.5" y1="11.5" x2="16.5" y2="11.5" fill="none" stroke="#323232" stroke-linecap="round" stroke-linejoin="round" stroke-width="1.5"/><line x1="18.5" y1="15" x2="17" y2="15" fill="none" stroke="#323232" stroke-linecap="round" stroke-linejoin="round" stroke-width="1.5"/><path d="M1,16l2.55056-4.25092a2.99994,2.99994,0,0,1,1.23082-1.13977l.58519-.29259A3.00013,3.00013,0,0,1,6.70824,10H8" fill="none" stroke="#323232" stroke-linecap="round" stroke-linejoin="round" stroke-width="1.5"/><path d="M6,22,8.80849,20.9262a4.00009,4.00009,0,0,0,1.89938-1.51694l3.01557-4.5219a1.64573,1.64573,0,0,0-.20551-2.07681h0a1.6458,1.6458,0,0,0-2.32725-.00024L9.00006,15H7" fill="none" stroke="#323232" stroke-linecap="round" stroke-linejoin="round" stroke-width="1.5"/></svg>