<svg xmlns="http://www.w3.org/2000/svg" viewBox="0 0 24 24"><path d="M21,21l.578-1.156A3.99768,3.99768,0,0,0,22,18.05569V11.5A1.5,1.5,0,0,0,20.5,10h0A1.5,1.5,0,0,0,19,11.5v4" fill="none" stroke="#323232" stroke-linecap="round" stroke-linejoin="round" stroke-width="1.5"/><path d="M14,21V18.08665a2,2,0,0,1,.4-1.2l1.67794-2.23727a1.62336,1.62336,0,0,1,2.44657-.17388h0a1.62335,1.62335,0,0,1,.1508,2.1219L17.62334,18" fill="none" stroke="#323232" stroke-linecap="round" stroke-linejoin="round" stroke-width="1.5"/><path d="M3,21l-.578-1.156A3.99767,3.99767,0,0,1,2,18.05569V11.5A1.5,1.5,0,0,1,3.5,10h0A1.5,1.5,0,0,1,5,11.5v4" fill="none" stroke="#323232" stroke-linecap="round" stroke-linejoin="round" stroke-width="1.5"/><path d="M10,21V18.08665a2,2,0,0,0-.4-1.2L7.922,14.64938a1.62335,1.62335,0,0,0-2.44657-.17388h0a1.62334,1.62334,0,0,0-.15079,2.1219L6.37664,18" fill="none" stroke="#323232" stroke-linecap="round" stroke-linejoin="round" stroke-width="1.5"/><path d="M7.5,8.94709v-4.943A.99155.99155,0,0,1,8.57188,3.00315,7.85,7.85,0,0,1,12,4.03763,7.85,7.85,0,0,1,15.4281,3.00315.99154.99154,0,0,1,16.5,4.00408v4.943a1.01438,1.01438,0,0,1-.95015.99446A7.32446,7.32446,0,0,0,12,11,7.32449,7.32449,0,0,0,8.45014,9.94155,1.01439,1.01439,0,0,1,7.5,8.94709Z" fill="none" stroke="#323232" stroke-linecap="round" stroke-linejoin="round" stroke-width="1.5"/><path d="M12,4.03763V11" fill="none" stroke="#323232" stroke-linecap="round" stroke-linejoin="round" stroke-width="1.5"/></svg>