<svg xmlns="http://www.w3.org/2000/svg" viewBox="0 0 24 24"><rect x="10.025" y="9.99881" width="4" height="11" rx="0.5" stroke-width="1.5" stroke="#323232" stroke-linecap="round" stroke-linejoin="round" fill="none"/><path d="M21,17.99881v-6a9,9,0,0,0-9-9h0a9,9,0,0,0-9,9v6" fill="none" stroke="#323232" stroke-linecap="round" stroke-linejoin="round" stroke-width="1.5"/><path d="M19,12.99881h1a1,1,0,0,1,1,1v5a1,1,0,0,1-1,1H19a2,2,0,0,1-2-2v-3A2,2,0,0,1,19,12.99881Z" transform="translate(38 32.99762) rotate(-180)" fill="none" stroke="#323232" stroke-linecap="round" stroke-linejoin="round" stroke-width="1.5"/><path d="M5,12.99881H6a1,1,0,0,1,1,1v5a1,1,0,0,1-1,1H5a2,2,0,0,1-2-2v-3a2,2,0,0,1,2-2Z" fill="none" stroke="#323232" stroke-linecap="round" stroke-linejoin="round" stroke-width="1.5"/></svg>