<svg xmlns="http://www.w3.org/2000/svg" viewBox="0 0 24 24"><path d="M10.37984,16.5A1.8083,1.8083,0,0,1,12,17.5h0a1.8083,1.8083,0,0,1,1.62016-1H15a1,1,0,0,0,1-1V11a1,1,0,0,0-1-1H13.5A1.5,1.5,0,0,0,12,11.5,1.5,1.5,0,0,0,10.5,10H9a1,1,0,0,0-1,1v4.5a1,1,0,0,0,1,1Z" fill="none" stroke="#323232" stroke-linecap="round" stroke-linejoin="round" stroke-width="1.5"/><line x1="12" y1="11.5" x2="12" y2="17.5" fill="none" stroke="#323232" stroke-linecap="round" stroke-linejoin="round" stroke-width="1.5"/><path d="M3.13667,17V10.7194A4,4,0,0,1,4.63788,7.59594L9.01317,4.09567a5,5,0,0,1,6.247,0l4.37531,3.50026a4,4,0,0,1,1.50121,3.12347V17a4,4,0,0,1-4,4h-10A4,4,0,0,1,3.13667,17Z" fill="none" stroke="#323232" stroke-linecap="round" stroke-linejoin="round" stroke-width="1.5"/><path d="M0,0H24V24H0Z" fill="none"/></svg>