<svg xmlns="http://www.w3.org/2000/svg" viewBox="0 0 24 24"><path d="M3,10.50037,10.70755,3.9737a2,2,0,0,1,2.5849,0L21,10.50037" fill="none" stroke="#323232" stroke-linecap="round" stroke-linejoin="round" stroke-width="1.5"/><path d="M19.7145,9.41182V3.81819A.81818.81818,0,0,0,18.89632,3H16.44177a.81818.81818,0,0,0-.81818.81818h0v2.1295" fill="none" stroke="#323232" stroke-linecap="round" stroke-linejoin="round" stroke-width="1.5"/><path d="M9,15.86017v2.97417a1.65,1.65,0,0,0,.91211,1.47581l.74628.37313a3,3,0,0,0,2.68322,0l.74628-.37313A1.65,1.65,0,0,0,15,18.83434V15.86017" fill="none" stroke="#323232" stroke-linecap="round" stroke-linejoin="round" stroke-width="1.5"/><path d="M7.0556,14.8956l3.61284,1.79223a2.99633,2.99633,0,0,0,2.66312,0L16.9444,14.8956a1,1,0,0,0,0-1.79167l-3.61121-1.79142a3,3,0,0,0-2.66638,0L7.0556,13.10393A1,1,0,0,0,7.0556,14.8956Z" fill="none" stroke="#323232" stroke-linecap="round" stroke-linejoin="round" stroke-width="1.5"/><path d="M17.5,14v2.5" fill="none" stroke="#323232" stroke-linecap="round" stroke-linejoin="round" stroke-width="1.5"/><rect y="0.00001" width="24" height="24" fill="none"/></svg>