<svg xmlns="http://www.w3.org/2000/svg" viewBox="0 0 24 24"><path d="M9.5,9.5H15a1,1,0,0,1,1,1v6a1,1,0,0,1-1,1H9.5A1.5,1.5,0,0,1,8,16V11A1.5,1.5,0,0,1,9.5,9.5Z" fill="none" stroke="#323232" stroke-linecap="round" stroke-linejoin="round" stroke-width="1.5"/><path d="M3.13667,17V11.2A5,5,0,0,1,5.01318,7.29569l4-3.2a5,5,0,0,1,6.247,0l4,3.2A5,5,0,0,1,21.13666,11.2V17a4,4,0,0,1-4,4h-10A4,4,0,0,1,3.13667,17Z" fill="none" stroke="#323232" stroke-linecap="round" stroke-linejoin="round" stroke-width="1.5"/><path d="M8,16a1.5,1.5,0,0,1,1.5-1.5H16" fill="none" stroke="#323232" stroke-linecap="round" stroke-linejoin="round" stroke-width="1.5"/><path d="M0,0H24V24H0Z" fill="none"/></svg>