<svg xmlns="http://www.w3.org/2000/svg" viewBox="0 0 24 24"><path d="M3,16.5V10.95972A4.5,4.5,0,0,1,4.68886,7.44581L8.87649,4.09567a5,5,0,0,1,6.247,0L19.31115,7.4458A4.5,4.5,0,0,1,21,10.95967V16.5A4.5,4.5,0,0,1,16.5,21h-9A4.5,4.5,0,0,1,3,16.5Z" fill="none" stroke="#323232" stroke-linecap="round" stroke-linejoin="round" stroke-width="1.5"/><path d="M9.5,12.99048v2.27928a1.35,1.35,0,0,0,.74627,1.20748l.41212.20605a2.99994,2.99994,0,0,0,2.68322,0l.41212-.20605A1.35,1.35,0,0,0,14.5,15.26976V12.99048" fill="none" stroke="#323232" stroke-linecap="round" stroke-linejoin="round" stroke-width="1.5"/><path d="M7.9056,12.16627l3.06118,1.58244a2.25,2.25,0,0,0,2.06644,0l3.06118-1.58244a.75.75,0,0,0,0-1.33257L13.03322,9.25126a2.25,2.25,0,0,0-2.06644,0L7.9056,10.8337A.75.75,0,0,0,7.9056,12.16627Z" fill="none" stroke="#323232" stroke-linecap="round" stroke-linejoin="round" stroke-width="1.5"/><path d="M16.5,11.5103v1.737" fill="none" stroke="#323232" stroke-linecap="round" stroke-linejoin="round" stroke-width="1.5"/></svg>