<svg xmlns="http://www.w3.org/2000/svg" viewBox="0 0 24 24"><path d="M11.97153,9.2l5.26071-5.2607a1.5,1.5,0,0,1,2.12132,0l.7071.70711a1.5,1.5,0,0,1,0,2.12132L14.8,12.02846a2.5,2.5,0,0,1-1.41421.70711l-1.81491.25927a.5.5,0,0,1-.56568-.56568l.25927-1.8149A2.50005,2.50005,0,0,1,11.97153,9.2Z" fill="none" stroke="#323232" stroke-linecap="round" stroke-linejoin="round" stroke-width="1.5"/><line x1="18.41421" y1="8.41421" x2="15.58579" y2="5.58579" fill="none" stroke="#323232" stroke-linecap="round" stroke-linejoin="round" stroke-width="1.5"/><path d="M21,11.06238V16a5,5,0,0,1-5,5H8a5,5,0,0,1-5-5V8A5,5,0,0,1,8,3h4.93768" fill="none" stroke="#323232" stroke-linecap="round" stroke-linejoin="round" stroke-width="1.5"/></svg>