<svg xmlns="http://www.w3.org/2000/svg" viewBox="0 0 24 24"><path d="M24,0H0V24H24Z" fill="none"/><path d="M14,15v2a2,2,0,0,1-2,2H9L5.83582,21.86941A.5.5,0,0,1,5,21.49885V19H4a2,2,0,0,1-2-2V12a2,2,0,0,1,2-2H6" fill="none" stroke="#323232" stroke-linecap="round" stroke-linejoin="round" stroke-width="1.5"/><path d="M22,6v6a3,3,0,0,1-3,3H18v2.499a.5.5,0,0,1-.83588.37038L14,15.00006H9a3,3,0,0,1-3-3V6A3,3,0,0,1,9,3H19A3,3,0,0,1,22,6Z" fill="none" stroke="#323232" stroke-linecap="round" stroke-linejoin="round" stroke-width="1.5"/><line x1="15.25002" y1="7.86364" x2="12.25002" y2="11.5" fill="none" stroke="#323232" stroke-linecap="round" stroke-linejoin="round" stroke-width="1.5"/><line x1="13.75002" y1="9.68182" x2="15.75002" y2="11.5" fill="none" stroke="#323232" stroke-linecap="round" stroke-linejoin="round" stroke-width="1.5"/><path d="M16.5,7.86364h-5" fill="none" stroke="#323232" stroke-linecap="round" stroke-linejoin="round" stroke-width="1.5"/><path d="M14.002,6.5l.004,1.36364" fill="none" stroke="#323232" stroke-linecap="round" stroke-linejoin="round" stroke-width="1.5"/></svg>