<svg xmlns="http://www.w3.org/2000/svg" viewBox="0 0 24 24"><path d="M3,17V5A2,2,0,0,1,5,3H19a2,2,0,0,1,2,2V17" fill="none" stroke="#323232" stroke-linecap="round" stroke-linejoin="round" stroke-width="1.5"/><path d="M2.5,17h19a1,1,0,0,1,1,1v0a3,3,0,0,1-3,3H4.5a3,3,0,0,1-3-3v0a1,1,0,0,1,1-1Z" fill="none" stroke="#323232" stroke-linecap="round" stroke-linejoin="round" stroke-width="1.5"/><path d="M8,7.59405v4.991a.50206.50206,0,0,0,.73411.435A3.05352,3.05352,0,0,1,12,13.5a3.05352,3.05352,0,0,1,3.2659-.48A.50206.50206,0,0,0,16,12.58507V7.594a.58011.58011,0,0,0-.15754-.37325A2.71967,2.71967,0,0,0,12,7.375a2.7197,2.7197,0,0,0-3.8424-.15434A.58029.58029,0,0,0,8,7.59405Z" fill="none" stroke="#323232" stroke-linecap="round" stroke-linejoin="round" stroke-width="1.5"/><line x1="12" y1="13.5" x2="12" y2="7.37501" fill="none" stroke="#323232" stroke-linecap="round" stroke-linejoin="round" stroke-width="1.5"/></svg>