<svg xmlns="http://www.w3.org/2000/svg" viewBox="0 0 24 24"><line x1="21" y1="14" x2="21" y2="17" fill="none" stroke="#323232" stroke-linecap="round" stroke-linejoin="round" stroke-width="1.5"/><path d="M3,17V5A2,2,0,0,1,5,3h5" fill="none" stroke="#323232" stroke-linecap="round" stroke-linejoin="round" stroke-width="1.5"/><path d="M2.5,17h19a1,1,0,0,1,1,1v0a3,3,0,0,1-3,3H4.5a3,3,0,0,1-3-3v0a1,1,0,0,1,1-1Z" fill="none" stroke="#323232" stroke-linecap="round" stroke-linejoin="round" stroke-width="1.5"/><path d="M15,6.99048V9.26976a1.35,1.35,0,0,0,.74627,1.20748l.41212.206a2.99994,2.99994,0,0,0,2.68322,0l.41212-.206A1.35,1.35,0,0,0,20,9.26976V6.99048" fill="none" stroke="#323232" stroke-linecap="round" stroke-linejoin="round" stroke-width="1.5"/><path d="M13.4056,6.16627l3.06118,1.58244a2.25,2.25,0,0,0,2.06644,0L21.5944,6.16627a.75.75,0,0,0,0-1.33257L18.53322,3.25126a2.25,2.25,0,0,0-2.06644,0L13.4056,4.8337A.75.75,0,0,0,13.4056,6.16627Z" fill="none" stroke="#323232" stroke-linecap="round" stroke-linejoin="round" stroke-width="1.5"/><path d="M22,5.5103v1.737" fill="none" stroke="#323232" stroke-linecap="round" stroke-linejoin="round" stroke-width="1.5"/></svg>