<svg xmlns="http://www.w3.org/2000/svg" viewBox="0 0 24 24"><path d="M0,0H24V24H0Z" fill="none"/><line x1="10" y1="18" x2="14" y2="18" fill="none" stroke="#323232" stroke-linecap="round" stroke-linejoin="round" stroke-width="1.5"/><path d="M18.89612,14H5.5A1.5,1.5,0,0,1,4,12.5V5A2,2,0,0,1,6,3h4" fill="none" stroke="#323232" stroke-linecap="round" stroke-linejoin="round" stroke-width="1.5"/><path d="M18.99878,21H5.00122a2,2,0,0,1-1.92308-2.54936l1.0642-3.72532A1,1,0,0,1,5.10388,14H18.89612a1,1,0,0,1,.96153.72532l1.06421,3.72532A2,2,0,0,1,18.99878,21Z" fill="none" stroke="#323232" stroke-linecap="round" stroke-linejoin="round" stroke-width="1.5"/><path d="M15,6.99048V9.26976a1.35,1.35,0,0,0,.74628,1.20748l.41211.20606a3,3,0,0,0,2.68323,0l.41211-.20606A1.35,1.35,0,0,0,20,9.26976V6.99048" fill="none" stroke="#323232" stroke-linecap="round" stroke-linejoin="round" stroke-width="1.5"/><path d="M13.40558,6.16628l3.06118,1.58244a2.25005,2.25005,0,0,0,2.06645,0l3.06117-1.58244a.75.75,0,0,0,0-1.33257L18.53321,3.25127a2.25,2.25,0,0,0-2.06645,0L13.40558,4.83371A.75.75,0,0,0,13.40558,6.16628Z" fill="none" stroke="#323232" stroke-linecap="round" stroke-linejoin="round" stroke-width="1.5"/><path d="M22,5.5103v1.737" fill="none" stroke="#323232" stroke-linecap="round" stroke-linejoin="round" stroke-width="1.5"/></svg>