<svg xmlns="http://www.w3.org/2000/svg" viewBox="0 0 24 24"><path d="M3,17V5A2,2,0,0,1,5,3H19a2,2,0,0,1,2,2V17" fill="none" stroke="#323232" stroke-linecap="round" stroke-linejoin="round" stroke-width="1.5"/><path d="M2.5,17h19a1,1,0,0,1,1,1v0a3,3,0,0,1-3,3H4.5a3,3,0,0,1-3-3v0a1,1,0,0,1,1-1Z" fill="none" stroke="#323232" stroke-linecap="round" stroke-linejoin="round" stroke-width="1.5"/><path d="M10,7.5v1" fill="none" stroke="#323232" stroke-linecap="round" stroke-linejoin="round" stroke-width="1.5"/><path d="M14,7.5v1" fill="none" stroke="#323232" stroke-linecap="round" stroke-linejoin="round" stroke-width="1.5"/><path d="M8.5,13.5a5.32445,5.32445,0,0,1,7,0" fill="none" stroke="#323232" stroke-linecap="round" stroke-linejoin="round" stroke-width="1.5"/></svg>