<svg xmlns="http://www.w3.org/2000/svg" viewBox="0 0 24 24"><path d="M0,0H24V24H0Z" fill="none"/><path d="M10.50215,21h-6.5a2,2,0,0,1-1.83829-2.78783l1.28572-3A2,2,0,0,1,5.28787,14H8" fill="none" stroke="#323232" stroke-linecap="round" stroke-linejoin="round" stroke-width="1.5"/><path d="M8,14H5.5A1.5,1.5,0,0,1,4,12.5V5A2,2,0,0,1,6,3H18a2,2,0,0,1,2,2v5" fill="none" stroke="#323232" stroke-linecap="round" stroke-linejoin="round" stroke-width="1.5"/><path d="M13.25,16.45475v2.59731a1.5,1.5,0,0,0,.8292,1.34165l.57919.28959a3,3,0,0,0,2.68322,0l.5792-.28959A1.5,1.5,0,0,0,18.75,19.05206V16.45475" fill="none" stroke="#323232" stroke-linecap="round" stroke-linejoin="round" stroke-width="1.5"/><path d="M11.5686,15.65213l3.35292,1.60329a2.50007,2.50007,0,0,0,2.157,0l3.35292-1.60329a1,1,0,0,0,0-1.80425l-3.35292-1.60329a2.50007,2.50007,0,0,0-2.157,0L11.5686,13.84788A1,1,0,0,0,11.5686,15.65213Z" fill="none" stroke="#323232" stroke-linecap="round" stroke-linejoin="round" stroke-width="1.5"/><path d="M21,14.74345V17" fill="none" stroke="#323232" stroke-linecap="round" stroke-linejoin="round" stroke-width="1.5"/></svg>