<svg xmlns="http://www.w3.org/2000/svg" viewBox="0 0 24 24"><line x1="10" y1="18" x2="14" y2="18" fill="none" stroke="#323232" stroke-linecap="round" stroke-linejoin="round" stroke-width="1.5"/><path d="M18.99878,21H5.00122a2,2,0,0,1-1.92308-2.54936l1.0642-3.72532A1,1,0,0,1,5.10388,14H18.89612a1,1,0,0,1,.96153.72532l1.06421,3.72532A2,2,0,0,1,18.99878,21Z" fill="none" stroke="#323232" stroke-linecap="round" stroke-linejoin="round" stroke-width="1.5"/><path d="M22,3.81818V7.36367a1.81818,1.81818,0,0,1-1.81818,1.81818h-2.334l-2.10628,1.71521A.45454.45454,0,0,1,15,10.5446V9.18185H13.81818A1.81818,1.81818,0,0,1,12,7.36367V3.81818A1.81818,1.81818,0,0,1,13.81818,2h6.36364A1.81818,1.81818,0,0,1,22,3.81818Z" fill="none" stroke="#323232" stroke-linecap="round" stroke-linejoin="round" stroke-width="1.5"/><path d="M18.89612,14H5.5A1.5,1.5,0,0,1,4,12.5V5A2,2,0,0,1,6,3H9" fill="none" stroke="#323232" stroke-linecap="round" stroke-linejoin="round" stroke-width="1.5"/></svg>