<svg xmlns="http://www.w3.org/2000/svg" viewBox="0 0 24 24"><path d="M14,15v2.5A2.5,2.5,0,0,1,11.5,20H8.13268l-2.317,1.88676A.5.5,0,0,1,5,21.49905V20H4.5A2.5,2.5,0,0,1,2,17.5v-5A2.5,2.5,0,0,1,4.5,10H7" fill="none" stroke="#323232" stroke-linecap="round" stroke-linejoin="round" stroke-width="1.5"/><path d="M22,4.5v5A2.5,2.5,0,0,1,19.5,12H19v1.49905a.5.5,0,0,1-.81573.38771L15.86732,12H12.5A2.5,2.5,0,0,1,10,9.5v-5A2.5,2.5,0,0,1,12.5,2h7A2.5,2.5,0,0,1,22,4.5Z" fill="none" stroke="#323232" stroke-linecap="round" stroke-linejoin="round" stroke-width="1.5"/><path d="M8,14.75V13.5" fill="none" stroke="#323232" stroke-linecap="round" stroke-linejoin="round" stroke-width="1.5"/><path d="M7.99558,16.90029a.05.05,0,1,0,.04436.05506v-.0107a.05.05,0,0,0-.04436-.04436" fill="none" stroke="#323232" stroke-linecap="round" stroke-linejoin="round" stroke-width="1.5"/><line x1="18" y1="5.5" x2="14" y2="5.5" fill="none" stroke="#323232" stroke-linecap="round" stroke-linejoin="round" stroke-width="1.5"/><line x1="18" y1="8.5" x2="14" y2="8.5" fill="none" stroke="#323232" stroke-linecap="round" stroke-linejoin="round" stroke-width="1.5"/><path d="M0,0H24V24H0Z" fill="none"/></svg>