<svg xmlns="http://www.w3.org/2000/svg" viewBox="0 0 24 24"><path d="M18,19H14.5l-1.81034,1.72415a1,1,0,0,1-1.37933,0L9.5,19.00006,6,19A3,3,0,0,1,3,16V6A3,3,0,0,1,6,3H18a3,3,0,0,1,3,3V16A3,3,0,0,1,18,19Z" fill="none" stroke="#323232" stroke-linecap="round" stroke-linejoin="round" stroke-width="1.5"/><path d="M7.5,8.20338v5.8603a.49432.49432,0,0,0,.7003.45657A3.43647,3.43647,0,0,1,12,15a3.43647,3.43647,0,0,1,3.79972-.47975.49432.49432,0,0,0,.7003-.45657V8.20338a.587.587,0,0,0-.15711-.37413A3.06,3.06,0,0,0,12,7.98439a3.06,3.06,0,0,0-4.3429-.15514A.587.587,0,0,0,7.5,8.20338Z" fill="none" stroke="#323232" stroke-linecap="round" stroke-linejoin="round" stroke-width="1.5"/><line x1="12" y1="15" x2="12" y2="7.98439" fill="none" stroke="#323232" stroke-linecap="round" stroke-linejoin="round" stroke-width="1.5"/></svg>