<svg xmlns="http://www.w3.org/2000/svg" viewBox="0 0 24 24"><path d="M14.5,3V5a.5.5,0,0,1-.5.5H10A.5.5,0,0,1,9.5,5V3" fill="none" stroke="#323232" stroke-linecap="round" stroke-linejoin="round" stroke-width="1.5"/><path d="M18,10V5a2,2,0,0,0-2-2H8A2,2,0,0,0,6,5V19a2,2,0,0,0,2,2h3" fill="none" stroke="#323232" stroke-linecap="round" stroke-linejoin="round" stroke-width="1.5"/><path d="M14,16.99048v2.27928a1.35,1.35,0,0,0,.74628,1.20748l.41211.20606a3,3,0,0,0,2.68323,0l.41211-.20606A1.35,1.35,0,0,0,19,19.26976V16.99048" fill="none" stroke="#323232" stroke-linecap="round" stroke-linejoin="round" stroke-width="1.5"/><path d="M12.40558,16.16628l3.06118,1.58244a2.25005,2.25005,0,0,0,2.06645,0l3.06117-1.58244a.75.75,0,0,0,0-1.33257l-3.06117-1.58244a2.25,2.25,0,0,0-2.06645,0l-3.06118,1.58244A.75.75,0,0,0,12.40558,16.16628Z" fill="none" stroke="#323232" stroke-linecap="round" stroke-linejoin="round" stroke-width="1.5"/><path d="M21,15.5103v1.737" fill="none" stroke="#323232" stroke-linecap="round" stroke-linejoin="round" stroke-width="1.5"/></svg>