<svg xmlns="http://www.w3.org/2000/svg" viewBox="0 0 24 24"><path d="M8,21H6a2,2,0,0,1-2-2V5A2,2,0,0,1,6,3h8a2,2,0,0,1,2,2" fill="none" stroke="#323232" stroke-linecap="round" stroke-linejoin="round" stroke-width="1.5"/><path d="M12.5,3V5a.5.5,0,0,1-.5.5H8A.5.5,0,0,1,7.5,5V3" fill="none" stroke="#323232" stroke-linecap="round" stroke-linejoin="round" stroke-width="1.5"/><path d="M16,5v5" fill="none" stroke="#323232" stroke-linecap="round" stroke-linejoin="round" stroke-width="1.5"/><path d="M11,14.20338v5.8603a.49432.49432,0,0,0,.7003.45657A3.43647,3.43647,0,0,1,15.5,21a3.43647,3.43647,0,0,1,3.79972-.47975A.49432.49432,0,0,0,20,20.06368v-5.8603a.587.587,0,0,0-.15711-.37413,3.06,3.06,0,0,0-4.3429.15514,3.06,3.06,0,0,0-4.3429-.15514A.587.587,0,0,0,11,14.20338Z" fill="none" stroke="#323232" stroke-linecap="round" stroke-linejoin="round" stroke-width="1.5"/><line x1="15.5" y1="21" x2="15.5" y2="13.98439" fill="none" stroke="#323232" stroke-linecap="round" stroke-linejoin="round" stroke-width="1.5"/></svg>