<svg xmlns="http://www.w3.org/2000/svg" viewBox="0 0 24 24"><path d="M19,17.5H5A2.5,2.5,0,0,1,2.5,15V5.5A2.5,2.5,0,0,1,5,3H19a2.5,2.5,0,0,1,2.5,2.5V15A2.5,2.5,0,0,1,19,17.5Z" fill="none" stroke="#323232" stroke-linecap="round" stroke-linejoin="round" stroke-width="1.5"/><line x1="14.25" y1="17.5" x2="14.5" y2="21" fill="none" stroke="#323232" stroke-linecap="round" stroke-linejoin="round" stroke-width="1.5"/><line x1="9.75" y1="17.5" x2="9.5" y2="21" fill="none" stroke="#323232" stroke-linecap="round" stroke-linejoin="round" stroke-width="1.5"/><line x1="8" y1="21.00001" x2="16" y2="21.00001" fill="none" stroke="#323232" stroke-linecap="round" stroke-linejoin="round" stroke-width="1.5"/><path d="M9.5,10.24048v2.27928a1.35,1.35,0,0,0,.74627,1.20748l.41212.206a2.99994,2.99994,0,0,0,2.68322,0l.41212-.206A1.35,1.35,0,0,0,14.5,12.51976V10.24048" fill="none" stroke="#323232" stroke-linecap="round" stroke-linejoin="round" stroke-width="1.5"/><path d="M7.9056,9.41627l3.06118,1.58244a2.25,2.25,0,0,0,2.06644,0L16.0944,9.41627a.75.75,0,0,0,0-1.33257L13.03322,6.50126a2.25,2.25,0,0,0-2.06644,0L7.9056,8.0837A.75.75,0,0,0,7.9056,9.41627Z" fill="none" stroke="#323232" stroke-linecap="round" stroke-linejoin="round" stroke-width="1.5"/><path d="M16.5,8.7603v1.737" fill="none" stroke="#323232" stroke-linecap="round" stroke-linejoin="round" stroke-width="1.5"/></svg>