<svg xmlns="http://www.w3.org/2000/svg" viewBox="0 0 24 24"><path d="M7,8.81277l0,6.73907a.50289.50289,0,0,0,.75388.42747A3.81839,3.81839,0,0,1,12,16.5a3.81832,3.81832,0,0,1,4.24615-.52065A.50287.50287,0,0,0,17,15.55189l0-6.739A.59273.59273,0,0,0,16.8432,8.438,3.40028,3.40028,0,0,0,12,8.59376,3.40033,3.40033,0,0,0,7.1568,8.43789.5927.5927,0,0,0,7,8.81277Z" fill="none" stroke="#323232" stroke-linecap="round" stroke-linejoin="round" stroke-width="1.5"/><line x1="11.99999" y1="16.5" x2="11.99999" y2="8.59376" fill="none" stroke="#323232" stroke-linecap="round" stroke-linejoin="round" stroke-width="1.5"/><rect x="2.99999" y="3" width="18" height="18" rx="5" stroke-width="1.5" stroke="#323232" stroke-linecap="round" stroke-linejoin="round" fill="none"/></svg>