<svg xmlns="http://www.w3.org/2000/svg" viewBox="0 0 24 24"><circle cx="12" cy="12" r="10" fill="none" stroke="#323232" stroke-linecap="round" stroke-linejoin="round" stroke-width="1.5"/><path d="M7,8.81286l0,6.739a.50288.50288,0,0,0,.75387.42746A3.81832,3.81832,0,0,1,12,16.5a3.81828,3.81828,0,0,1,4.24616-.52062A.50286.50286,0,0,0,17,15.552l0-6.739a.59267.59267,0,0,0-.15676-.37486A3.4002,3.4002,0,0,0,12,8.59376,3.40026,3.40026,0,0,0,7.15677,8.438.59271.59271,0,0,0,7,8.81286Z" fill="none" stroke="#323232" stroke-linecap="round" stroke-linejoin="round" stroke-width="1.5"/><line x1="11.99999" y1="16.5" x2="11.99999" y2="8.59376" fill="none" stroke="#323232" stroke-linecap="round" stroke-linejoin="round" stroke-width="1.5"/></svg>