<svg xmlns="http://www.w3.org/2000/svg" viewBox="0 0 24 24"><path d="M10.8,15.52846l4.61425-4.61424a2,2,0,0,0,0-2.82843h0a2,2,0,0,0-2.82841,0L7.97154,12.7a2.5,2.5,0,0,0-.70711,1.41421l-.25927,1.8149a.5.5,0,0,0,.56568.56568l1.81491-.25927A2.5,2.5,0,0,0,10.8,15.52846Z" fill="none" stroke="#323232" stroke-linecap="round" stroke-linejoin="round" stroke-width="1.5"/><line x1="14.20875" y1="12.11968" x2="11.38033" y2="9.29125" fill="none" stroke="#323232" stroke-linecap="round" stroke-linejoin="round" stroke-width="1.5"/><line x1="7.5" y1="16.5" x2="17" y2="16.5" fill="none" stroke="#323232" stroke-linecap="round" stroke-linejoin="round" stroke-width="1.5"/><rect x="3" y="3" width="18" height="18" rx="5" transform="translate(24 24) rotate(180)" stroke-width="1.5" stroke="#323232" stroke-linecap="round" stroke-linejoin="round" fill="none"/><path d="M24,0V24H0V0Z" fill="none"/></svg>