<svg xmlns="http://www.w3.org/2000/svg" viewBox="0 0 24 24"><rect width="24" height="24" fill="none"/><path d="M10.97153,10.2l5.61425-5.61426a2,2,0,0,1,2.82842,0h0a2,2,0,0,1,0,2.82843L13.8,13.02846a2.5,2.5,0,0,1-1.41421.70711l-1.81491.25927a.5.5,0,0,1-.56568-.56568l.25927-1.8149A2.50011,2.50011,0,0,1,10.97153,10.2Z" fill="none" stroke="#323232" stroke-linecap="round" stroke-linejoin="round" stroke-width="1.5"/><line x1="17.70874" y1="9.11967" x2="14.88032" y2="6.29124" fill="none" stroke="#323232" stroke-linecap="round" stroke-linejoin="round" stroke-width="1.5"/><path d="M13,3.05865A9.0278,9.0278,0,1,0,20.94135,11" fill="none" stroke="#323232" stroke-linecap="round" stroke-linejoin="round" stroke-width="1.5"/></svg>