<svg xmlns="http://www.w3.org/2000/svg" viewBox="0 0 24 24"><path d="M9.5,19.5V21a1,1,0,0,0,1,1h2a1,1,0,0,0,1-1V3a1,1,0,0,0-1-1h-2a1,1,0,0,0-1,1V4.5" fill="none" stroke="#323232" stroke-linecap="round" stroke-linejoin="round" stroke-width="1.5"/><path d="M9.5,4.5a7.5,7.5,0,0,0,0,15" fill="none" stroke="#323232" stroke-linecap="round" stroke-linejoin="round" stroke-width="1.5"/><path d="M9.5,8v8a4,4,0,0,1,0-8Z" fill="none" stroke="#323232" stroke-linecap="round" stroke-linejoin="round" stroke-width="1.5"/><path d="M17,20V5.83333a3,3,0,0,1,.6-1.8L18.6,2.7a.5.5,0,0,1,.8,0l1,1.33333a3,3,0,0,1,.6,1.8V20a1.5,1.5,0,0,1-1.5,1.5h-1A1.5,1.5,0,0,1,17,20Z" fill="none" stroke="#323232" stroke-linecap="round" stroke-linejoin="round" stroke-width="1.5"/><line x1="17" y1="16.5" x2="21" y2="16.5" fill="none" stroke="#323232" stroke-linecap="round" stroke-linejoin="round" stroke-width="1.5"/><rect width="24" height="24" fill="none"/></svg>