<svg xmlns="http://www.w3.org/2000/svg" viewBox="0 0 24 24"><path d="M10,5h4a5,5,0,0,1,5,5v9a2,2,0,0,1-2,2H7a2,2,0,0,1-2-2V10a5,5,0,0,1,5-5Z" fill="none" stroke="#323232" stroke-linecap="round" stroke-linejoin="round" stroke-width="1.5"/><path d="M5,12H4a2,2,0,0,0-2,2v4a2,2,0,0,0,2,2H5.26858" fill="none" stroke="#323232" stroke-linecap="round" stroke-linejoin="round" stroke-width="1.5"/><path d="M18.73177,20H20a2,2,0,0,0,2-2V14a2,2,0,0,0-2-2H19" fill="none" stroke="#323232" stroke-linecap="round" stroke-linejoin="round" stroke-width="1.5"/><path d="M15,5V4a2,2,0,0,0-2-2H11A2,2,0,0,0,9,4V5" fill="none" stroke="#323232" stroke-linecap="round" stroke-linejoin="round" stroke-width="1.5"/><path d="M16,21V15a2,2,0,0,0-2-2H10a2,2,0,0,0-2,2v6" fill="none" stroke="#323232" stroke-linecap="round" stroke-linejoin="round" stroke-width="1.5"/><line x1="14" y1="9" x2="10" y2="9" fill="none" stroke="#323232" stroke-linecap="round" stroke-linejoin="round" stroke-width="1.5"/></svg>