<svg xmlns="http://www.w3.org/2000/svg" viewBox="0 0 24 24"><path d="M6.5,20A2.5,2.5,0,0,1,4,17.5" fill="none" stroke="#323232" stroke-linecap="round" stroke-linejoin="round" stroke-width="1.5"/><path d="M9.12654,7.51939c-1.43032,1.42766-2.73111,2.72844-2.73111,2.72844H4.36238a1.012,1.012,0,0,0-.71561.29642l-.35036.35035a1.012,1.012,0,0,0,0,1.43121l8.37778,8.37778a1.012,1.012,0,0,0,1.43121,0l.35035-.35036a1.012,1.012,0,0,0,.29642-.71561v-2.033s1.30079-1.30079,2.72844-2.73111a5.2,5.2,0,0,0-.00374-7.35032h0A5.2,5.2,0,0,0,9.12654,7.51939Z" fill="none" stroke="#323232" stroke-linecap="round" stroke-linejoin="round" stroke-width="1.5"/><path d="M15.178,6.57267c.72427-.82377,1.76707-2.00985,2.59054-2.94647a1.84437,1.84437,0,0,1,2.69066-.08437h0a1.84654,1.84654,0,0,1-.08645,2.69248L17.42725,8.824" fill="none" stroke="#323232" stroke-linecap="round" stroke-linejoin="round" stroke-width="1.5"/><path d="M0,0H24V24H0Z" fill="none"/></svg>