<svg xmlns="http://www.w3.org/2000/svg" viewBox="0 0 24 24"><path d="M9,5.5h6a5,5,0,0,1,5,5V19a2,2,0,0,1-2,2H6a2,2,0,0,1-2-2V10.5A5,5,0,0,1,9,5.5Z" fill="none" stroke="#323232" stroke-linecap="round" stroke-linejoin="round" stroke-width="1.5"/><line x1="13.99999" y1="10" x2="9.99999" y2="10" fill="none" stroke="#323232" stroke-linecap="round" stroke-linejoin="round" stroke-width="1.5"/><path d="M10,14h4a2,2,0,0,1,2,2v5a0,0,0,0,1,0,0H8a0,0,0,0,1,0,0V16A2,2,0,0,1,10,14Z" fill="none" stroke="#323232" stroke-linecap="round" stroke-linejoin="round" stroke-width="1.5"/><path d="M15,5.5V4a2,2,0,0,0-2-2H11A2,2,0,0,0,9,4V5.5" fill="none" stroke="#323232" stroke-linecap="round" stroke-linejoin="round" stroke-width="1.5"/><line x1="15.99999" y1="17.5" x2="7.99999" y2="17.5" fill="none" stroke="#323232" stroke-linecap="round" stroke-linejoin="round" stroke-width="1.5"/></svg>