<svg xmlns="http://www.w3.org/2000/svg" viewBox="0 0 24 24"><path d="M10.94091,20.89514h0A9.87816,9.87816,0,0,1,3,11.20879V8A5,5,0,0,1,8,3h8a5,5,0,0,1,5,5v3.20876a9.87819,9.87819,0,0,1-7.94069,9.68631l-.00023,0A5.40017,5.40017,0,0,1,10.94091,20.89514Z" fill="none" stroke="#323232" stroke-linecap="round" stroke-linejoin="round" stroke-width="1.5"/><path d="M7.5,8.45338v5.8603a.49432.49432,0,0,0,.7003.45657A3.43647,3.43647,0,0,1,12,15.25a3.43647,3.43647,0,0,1,3.79972-.47975.49432.49432,0,0,0,.7003-.45657V8.45338a.587.587,0,0,0-.15711-.37413A3.06,3.06,0,0,0,12,8.23439a3.06,3.06,0,0,0-4.3429-.15514A.587.587,0,0,0,7.5,8.45338Z" fill="none" stroke="#323232" stroke-linecap="round" stroke-linejoin="round" stroke-width="1.5"/><line x1="12" y1="15.25" x2="12" y2="8.23439" fill="none" stroke="#323232" stroke-linecap="round" stroke-linejoin="round" stroke-width="1.5"/></svg>