<svg xmlns="http://www.w3.org/2000/svg" viewBox="0 0 24 24"><path d="M0,0H24V24H0Z" fill="none"/><path d="M8,3H6A3,3,0,0,0,3,6V8" fill="none" stroke="#323232" stroke-linecap="round" stroke-linejoin="round" stroke-width="1.5"/><path d="M16,21h2a3,3,0,0,0,3-3V12" fill="none" stroke="#323232" stroke-linecap="round" stroke-linejoin="round" stroke-width="1.5"/><path d="M12,21a2.5,2.5,0,0,0-2.5-2.5h-5A2.5,2.5,0,0,0,2,21" fill="none" stroke="#323232" stroke-linecap="round" stroke-linejoin="round" stroke-width="1.5"/><circle cx="7" cy="13.5" r="2.5" fill="none" stroke="#323232" stroke-linecap="round" stroke-linejoin="round" stroke-width="1.5"/><path d="M13.25,6.4547V9.052a1.5,1.5,0,0,0,.8292,1.34166l.5792.28959a3,3,0,0,0,2.68326,0l.5792-.28959A1.5,1.5,0,0,0,18.75,9.052V6.4547" fill="none" stroke="#323232" stroke-linecap="round" stroke-linejoin="round" stroke-width="1.5"/><path d="M11.56858,5.65213,14.9215,7.25542a2.5,2.5,0,0,0,2.157,0l3.35292-1.60329a1,1,0,0,0,0-1.80424L17.0785,2.2446a2.5,2.5,0,0,0-2.157,0L11.56858,3.84789A1,1,0,0,0,11.56858,5.65213Z" fill="none" stroke="#323232" stroke-linecap="round" stroke-linejoin="round" stroke-width="1.5"/><path d="M21,4.74345V7" fill="none" stroke="#323232" stroke-linecap="round" stroke-linejoin="round" stroke-width="1.5"/></svg>