<svg xmlns="http://www.w3.org/2000/svg" viewBox="0 0 24 24"><rect width="24" height="24" fill="none"/><line x1="14.101" y1="14.405" x2="14.82441" y2="17.29864" fill="none" stroke="#323232" stroke-linecap="round" stroke-linejoin="round" stroke-width="1.5"/><line x1="9.901" y1="14.405" x2="9.17759" y2="17.29864" fill="none" stroke="#323232" stroke-linecap="round" stroke-linejoin="round" stroke-width="1.5"/><path d="M6.68321,17.34164l1.36724,2.84141a1,1,0,0,0,1.61357.26811L12,18.07933l2.336,2.37183a1,1,0,0,0,1.61357-.26811l1.36724-2.84141" fill="none" stroke="#323232" stroke-linecap="round" stroke-linejoin="round" stroke-width="1.5"/><path d="M3,21v-.47149a3,3,0,0,1,2.41165-2.94175l2.846-.56919a.90446.90446,0,0,1,.67911.13435h0a5.52237,5.52237,0,0,0,6.12652,0h0a.90446.90446,0,0,1,.67911-.13435l2.846.56919A3,3,0,0,1,21,20.52851V21" fill="none" stroke="#323232" stroke-linecap="round" stroke-linejoin="round" stroke-width="1.5"/><path d="M16,10v1a4,4,0,0,1-4,4h0a4,4,0,0,1-4-4V10" fill="none" stroke="#323232" stroke-linecap="round" stroke-linejoin="round" stroke-width="1.5"/><path d="M13.69262,8.73581h0A2.7378,2.7378,0,0,0,16,10h0a1,1,0,0,0,1-1V8a5,5,0,0,0-5-5h0A5,5,0,0,0,7,8V9a1,1,0,0,0,1,1h.408A9.02156,9.02156,0,0,0,13.1967,8.62416h0A.361.361,0,0,1,13.69262,8.73581Z" fill="none" stroke="#323232" stroke-linecap="round" stroke-linejoin="round" stroke-width="1.5"/></svg>