<svg xmlns="http://www.w3.org/2000/svg" viewBox="0 0 24 24"><rect width="24" height="24" fill="none"/><line x1="14.101" y1="14.405" x2="14.82441" y2="17.29864" fill="none" stroke="#323232" stroke-linecap="round" stroke-linejoin="round" stroke-width="1.5"/><line x1="9.901" y1="14.405" x2="9.17759" y2="17.29864" fill="none" stroke="#323232" stroke-linecap="round" stroke-linejoin="round" stroke-width="1.5"/><path d="M6.68321,17.34164l1.36724,2.84141a1,1,0,0,0,1.61357.26811L12,18.07933l2.336,2.37183a1,1,0,0,0,1.61357-.26811l1.36724-2.84141" fill="none" stroke="#323232" stroke-linecap="round" stroke-linejoin="round" stroke-width="1.5"/><path d="M12,6c0,1.65685-1.79086,3-4,3" fill="none" stroke="#323232" stroke-linecap="round" stroke-linejoin="round" stroke-width="1.5"/><path d="M16,9a6.28462,6.28462,0,0,1-4.31592-1.83008" fill="none" stroke="#323232" stroke-linecap="round" stroke-linejoin="round" stroke-width="1.5"/><path d="M3,21v-.47149a3,3,0,0,1,2.41165-2.94175l2.846-.56919a.90446.90446,0,0,1,.67911.13435h0a5.52237,5.52237,0,0,0,6.12652,0h0a.90446.90446,0,0,1,.67911-.13435l2.846.56919A3,3,0,0,1,21,20.52851V21" fill="none" stroke="#323232" stroke-linecap="round" stroke-linejoin="round" stroke-width="1.5"/><path d="M18.75,17.625V8.75A6.75,6.75,0,0,0,12,2h0A6.75,6.75,0,0,0,5.25,8.75v8.875" fill="none" stroke="#323232" stroke-linecap="round" stroke-linejoin="round" stroke-width="1.5"/><path d="M16,9v2a4,4,0,0,1-4,4h0a4,4,0,0,1-4-4V9" fill="none" stroke="#323232" stroke-linecap="round" stroke-linejoin="round" stroke-width="1.5"/></svg>