<?xml version="1.0" encoding="UTF-8"?><svg version="1.1" viewBox="0 0 24 24" xmlns="http://www.w3.org/2000/svg" xmlns:xlink="http://www.w3.org/1999/xlink"><!--Generated by IJSVG (https://github.com/iconjar/IJSVG)--><g stroke-linecap="round" stroke-width="1.5" stroke="#323232" fill="none" stroke-linejoin="round"><path d="M13.424,2c2.071,0 3.75,1.679 3.75,3.75"></path><path d="M4,13.01l-2,-0.01"></path><path d="M14,13.01l2,-0.01"></path><path d="M14,13.007l-1.183,1.708c-0.56,0.809 -1.482,1.292 -2.466,1.292h-2.702c-0.984,0 -1.906,-0.483 -2.466,-1.292l-1.183,-1.708"></path><path d="M21,2v2"></path><path d="M21,8v2"></path><path d="M21,14v2"></path><path d="M21,20v2"></path><path d="M11,22h-4c-1.657,0 -3,-1.343 -3,-3v-12c0,-1.105 0.895,-2 2,-2h6c1.105,0 2,0.895 2,2v12c0,1.657 -1.343,3 -3,3Z"></path><path d="M14,9h-10"></path></g><path fill="none" d="M0,0h24v24h-24Z"></path></svg>