<svg id="Layer_3" data-name="Layer 3" xmlns="http://www.w3.org/2000/svg" viewBox="0 0 24 24"><path d="M24,24H0V0H24Z" fill="none"/><path d="M6.48425,5.76847,5.95162,3.46311A.59632.59632,0,0,0,4.9487,3.1752L3.175,4.949a.59653.59653,0,0,0,.28789,1.003l2.30558.5323A.59671.59671,0,0,0,6.48425,5.76847Z" fill="none" stroke="#323232" stroke-linecap="round" stroke-linejoin="round" stroke-width="1.5"/><path d="M21,12A8.97992,8.97992,0,0,0,9,3.52307" fill="none" stroke="#323232" stroke-linecap="round" stroke-linejoin="round" stroke-width="1.5"/><path d="M3.52307,9A8.99654,8.99654,0,1,0,21,12" fill="none" stroke="#323232" stroke-linecap="round" stroke-linejoin="round" stroke-width="1.5"/><path d="M9.08834,8.7691l3.7213,1.53231a1.92138,1.92138,0,0,1,.62705,3.13528h0a1.92138,1.92138,0,0,1-3.13528-.62705L8.7691,9.08835A.24455.24455,0,0,1,9.08834,8.7691Z" fill="none" stroke="#323232" stroke-linecap="round" stroke-linejoin="round" stroke-width="1.5"/></svg>