<svg id="Layer_3" data-name="Layer 3" xmlns="http://www.w3.org/2000/svg" viewBox="0 0 24 24"><path d="M7.5,11.41867a4.44459,4.44459,0,0,1,1.27026-3.1172,1.00366,1.00366,0,0,1,1.71781.70442L10.48773,11.275a.225.225,0,0,0,.225.225h2.57454a.225.225,0,0,0,.225-.225l-.00034-2.26911a1.00366,1.00366,0,0,1,1.7178-.70442A4.44462,4.44462,0,0,1,16.5,11.41867" fill="none" stroke="#323232" stroke-linecap="round" stroke-linejoin="round" stroke-width="1.5"/><path d="M16.5,11.41867V11.5A4.5,4.5,0,0,1,12,16h0a4.5,4.5,0,0,1-4.5-4.5v-.08134" fill="none" stroke="#323232" stroke-linecap="round" stroke-linejoin="round" stroke-width="1.5"/><line x1="10" y1="21.00001" x2="10" y2="15.53177" fill="none" stroke="#323232" stroke-linecap="round" stroke-linejoin="round" stroke-width="1.5"/><line x1="14" y1="21.00001" x2="14" y2="15.53177" fill="none" stroke="#323232" stroke-linecap="round" stroke-linejoin="round" stroke-width="1.5"/><rect x="3" y="3.00001" width="18" height="18" rx="5" stroke-width="1.5" stroke="#323232" stroke-linecap="round" stroke-linejoin="round" fill="none"/><path d="M0,0H24V24H0Z" fill="none"/></svg>