<?xml version="1.0" encoding="UTF-8"?><svg version="1.1" viewBox="0 0 24 24" xmlns="http://www.w3.org/2000/svg" xmlns:xlink="http://www.w3.org/1999/xlink"><!--Generated by IJSVG (https://github.com/iconjar/IJSVG)--><g stroke-linecap="round" stroke-width="1.5" stroke="#323232" fill="none" stroke-linejoin="round"><path d="M9,5c0,-1.657 1.343,-3 3,-3c1.657,0 3,1.343 3,3"></path><path d="M9,9.023c-1.208,0.912 -2,2.347 -2,3.977c0,2.761 2.239,5 5,5c2.761,0 5,-2.239 5,-5c0,-1.63 -0.792,-3.065 -2,-3.977"></path><path d="M9,9.02v-4.02"></path><path d="M15,9.02v-4.02"></path><path d="M12,5v6"></path><path d="M13.4142,11.5858c0.781049,0.781049 0.781049,2.04738 0,2.82843c-0.781049,0.781049 -2.04738,0.781049 -2.82843,0c-0.781049,-0.781049 -0.781049,-2.04738 0,-2.82843c0.781049,-0.781049 2.04738,-0.781049 2.82843,0"></path><path d="M2,21.5c1.105,-0.667 2.895,-0.667 4,0"></path><path d="M10,21.5c-1.105,0.667 -2.895,0.667 -4,0"></path><path d="M10,21.5c1.105,-0.667 2.895,-0.667 4,0"></path><path d="M18,21.5c-1.105,0.667 -2.895,0.667 -4,0"></path><path d="M18,21.5c1.105,-0.667 2.895,-0.667 4,0"></path><path d="M2,18c1.105,-0.667 2.895,-0.667 4,0"></path><path d="M18,18c1.105,-0.667 2.895,-0.667 4,0"></path></g><path fill="none" d="M0,0h24v24h-24Z"></path></svg>