<svg id="Layer_3" data-name="Layer 3" xmlns="http://www.w3.org/2000/svg" viewBox="0 0 24 24"><path d="M16,20a4.54167,4.54167,0,0,0,0-5,4.54167,4.54167,0,0,1,0-5" fill="none" stroke="#323232" stroke-linecap="round" stroke-linejoin="round" stroke-width="1.5"/><path d="M9,20a4.54167,4.54167,0,0,0,0-5,4.54167,4.54167,0,0,1,0-5" fill="none" stroke="#323232" stroke-linecap="round" stroke-linejoin="round" stroke-width="1.5"/><path d="M12.5,20a4.54167,4.54167,0,0,0,0-5,4.54167,4.54167,0,0,1,0-5" fill="none" stroke="#323232" stroke-linecap="round" stroke-linejoin="round" stroke-width="1.5"/><path d="M19,15h1.261a1,1,0,0,0,.99387-.88953l.73269-6.59274A1.99448,1.99448,0,0,0,20.71213,5.4213,27.41194,27.41194,0,0,0,3.28834,5.42117,1.99056,1.99056,0,0,0,2.01249,7.51423c.209,1.88087.5627,5.0634.7336,6.60138A.99491.99491,0,0,0,3.73936,15H6" fill="none" stroke="#323232" stroke-linecap="round" stroke-linejoin="round" stroke-width="1.5"/><rect width="24" height="24" fill="none"/></svg>