<svg xmlns="http://www.w3.org/2000/svg" viewBox="0 0 24 24"><path d="M7.83769,8.83814l-.00049.00049a2.87018,2.87018,0,0,0,.15332,4.19509l2.98014,2.58272a1.57015,1.57015,0,0,0,2.05659,0L16.011,13.03058a2.86569,2.86569,0,0,0,.1531-4.18853h0A2.8598,2.8598,0,0,0,12.271,8.70053c-.16619.14364-.272.23522-.272.23522l-.27643-.23957A2.84975,2.84975,0,0,0,7.83769,8.83814Z" fill="none" stroke="#323232" stroke-linecap="round" stroke-linejoin="round" stroke-width="1.5"/><rect x="3" y="3.00001" width="18" height="18" rx="5" stroke-width="1.5" stroke="#323232" stroke-linecap="round" stroke-linejoin="round" fill="none"/><path d="M0,0H24V24H0Z" fill="none"/></svg>