<svg xmlns="http://www.w3.org/2000/svg" viewBox="0 0 24 24"><path d="M24,0V24H0V0Z" fill="none"/><rect x="3" y="3.00001" width="18" height="18" rx="5" transform="translate(24.00001 0.00001) rotate(90)" stroke-width="1.5" stroke="#323232" stroke-linecap="round" stroke-linejoin="round" fill="none"/><line x1="12" y1="10" x2="12" y2="17" fill="none" stroke="#323232" stroke-linecap="round" stroke-linejoin="round" stroke-width="1.5"/><path d="M8.2,8A1.2,1.2,0,0,0,7,9.2v5.6A1.2,1.2,0,0,0,8.2,16h2.17984A1.8083,1.8083,0,0,1,12,17h0a1.8083,1.8083,0,0,1,1.62016-1H15.8A1.2,1.2,0,0,0,17,14.8V9.2A1.2,1.2,0,0,0,15.8,8H14a2,2,0,0,0-2,2h0a2,2,0,0,0-2-2Z" fill="none" stroke="#323232" stroke-linecap="round" stroke-linejoin="round" stroke-width="1.5"/></svg>