<svg xmlns="http://www.w3.org/2000/svg" viewBox="0 0 24 24"><path d="M24,0V24H0V0Z" fill="none"/><path d="M8.71687,13.42369l-1.34863-1.346A1.25,1.25,0,0,1,8.048,9.95963l1.78052-.2934L10.89691,7.662a1.25,1.25,0,0,1,2.20618,0l1.06836,2.00422,1.78052.2934a1.25,1.25,0,0,1,.67979,2.11808l-1.34863,1.346.324,2.1365a1.25,1.25,0,0,1-1.78308,1.31128L12,15.98339l-1.82408.88808a1.25,1.25,0,0,1-1.78308-1.31128Z" fill="none" stroke="#323232" stroke-linecap="round" stroke-linejoin="round" stroke-width="1.5"/><rect x="3" y="3.00001" width="18" height="18" rx="5" transform="translate(24.00001 0.00001) rotate(90)" stroke-width="1.5" stroke="#323232" stroke-linecap="round" stroke-linejoin="round" fill="none"/></svg>