<svg xmlns="http://www.w3.org/2000/svg" viewBox="0 0 24 24"><path d="M0,0H24V24H0Z" fill="none"/><rect x="3" y="3.00001" width="18" height="18" rx="5" stroke-width="1.5" stroke="#323232" stroke-linecap="round" stroke-linejoin="round" fill="none"/><path d="M8.75,7.5H13.5a2.25,2.25,0,0,1,2.25,2.25v0A2.25,2.25,0,0,1,13.5,12H8.25a0,0,0,0,1,0,0V8a.5.5,0,0,1,.5-.5Z" fill="none" stroke="#323232" stroke-linecap="round" stroke-linejoin="round" stroke-width="1.5"/><path d="M8.25,12H14a2.25,2.25,0,0,1,2.25,2.25v0A2.25,2.25,0,0,1,14,16.5H8.75a.5.5,0,0,1-.5-.5V12A0,0,0,0,1,8.25,12Z" fill="none" stroke="#323232" stroke-linecap="round" stroke-linejoin="round" stroke-width="1.5"/></svg>