<svg xmlns="http://www.w3.org/2000/svg" viewBox="0 0 24 24"><path d="M0,0H24V24H0Z" fill="none"/><line x1="12.00005" y1="6" x2="11.99995" y2="6.5" fill="none" stroke="#323232" stroke-linecap="round" stroke-linejoin="round" stroke-width="1.5"/><path d="M12,9h0a2.5,2.5,0,0,1,2.5,2.5V13a0,0,0,0,1,0,0h-5a0,0,0,0,1,0,0V11.5A2.5,2.5,0,0,1,12,9Z" fill="none" stroke="#323232" stroke-linecap="round" stroke-linejoin="round" stroke-width="1.5"/><path d="M16.5,15.5v-1A1.5,1.5,0,0,0,15,13H9a1.5,1.5,0,0,0-1.5,1.5v1a1,1,0,0,0,1,1h7A1,1,0,0,0,16.5,15.5Z" fill="none" stroke="#323232" stroke-linecap="round" stroke-linejoin="round" stroke-width="1.5"/><line x1="16.24267" y1="7.75739" x2="15.88904" y2="8.11087" fill="none" stroke="#323232" stroke-linecap="round" stroke-linejoin="round" stroke-width="1.5"/><line x1="7.75739" y1="7.75733" x2="8.11101" y2="8.11081" fill="none" stroke="#323232" stroke-linecap="round" stroke-linejoin="round" stroke-width="1.5"/><circle cx="12" cy="12" r="9.5" fill="none" stroke="#323232" stroke-linecap="round" stroke-linejoin="round" stroke-width="1.5"/></svg>