<svg xmlns="http://www.w3.org/2000/svg" viewBox="0 0 24 24"><path d="M0,24H24V0H0" fill="none"/><path d="M0,0H24V24H0" fill="none"/><path d="M15,21h3a3,3,0,0,0,3-3V8.50931A3,3,0,0,0,20.12132,6.388L17.612,3.87868A3,3,0,0,0,15.49069,3H7A3,3,0,0,0,4,6V8" fill="none" stroke="#323232" stroke-linecap="round" stroke-linejoin="round" stroke-width="1.5" fill-rule="evenodd"/><path d="M7.41162,20.94174h0A5.48788,5.48788,0,0,1,3,15.56043V13.5A2.5,2.5,0,0,1,5.5,11h5A2.5,2.5,0,0,1,13,13.5v2.06042A5.48788,5.48788,0,0,1,8.5885,20.9417l-.00012,0A3,3,0,0,1,7.41162,20.94174Z" fill="none" stroke="#323232" stroke-linecap="round" stroke-linejoin="round" stroke-width="1.5"/></svg>