<svg xmlns="http://www.w3.org/2000/svg" viewBox="0 0 24 24"><path d="M20,15v3a3,3,0,0,1-3,3H6a3,3,0,0,1-3-3V6A3,3,0,0,1,6,3h4" fill="none" stroke="#323232" stroke-linecap="round" stroke-linejoin="round" stroke-width="1.5"/><line x1="7" y1="16" x2="16" y2="16" fill="none" stroke="#323232" stroke-linecap="round" stroke-linejoin="round" stroke-width="1.5"/><line x1="7" y1="12" x2="10" y2="12" fill="none" stroke="#323232" stroke-linecap="round" stroke-linejoin="round" stroke-width="1.5"/><line x1="7" y1="8" x2="9" y2="8" fill="none" stroke="#323232" stroke-linecap="round" stroke-linejoin="round" stroke-width="1.5"/><path d="M16.47046,11.94757h0A4.93909,4.93909,0,0,1,12.5,7.1044V5.5A2.5,2.5,0,0,1,15,3h4a2.5,2.5,0,0,1,2.5,2.5V7.10438a4.93908,4.93908,0,0,1-3.97035,4.84315l-.00011,0A2.70006,2.70006,0,0,1,16.47046,11.94757Z" fill="none" stroke="#323232" stroke-linecap="round" stroke-linejoin="round" stroke-width="1.5"/><path d="M15.75,7l1,1,1.5-1.5" fill="none" stroke="#323232" stroke-linecap="round" stroke-linejoin="round" stroke-width="1.5"/></svg>