<svg xmlns="http://www.w3.org/2000/svg" viewBox="0 0 24 24"><path d="M20,12V6a3,3,0,0,0-3-3H7A3,3,0,0,0,4,6V18a3,3,0,0,0,3,3h5" fill="none" stroke="#323232" stroke-linecap="round" stroke-linejoin="round" stroke-width="1.5"/><path d="M11.58814,15.45923h0A3.84153,3.84153,0,0,1,8.5,11.69232V10.5a2,2,0,0,1,2-2h3a2,2,0,0,1,2,2V11.6923a3.84152,3.84152,0,0,1-3.088,3.7669l-.00009,0A2.1,2.1,0,0,1,11.58814,15.45923Z" fill="none" stroke="#323232" stroke-linecap="round" stroke-linejoin="round" stroke-width="1.5"/><path d="M19.779,16.2929l.9281.9281a1.00006,1.00006,0,0,1,0,1.41427L18.63527,20.7071A1,1,0,0,1,17.92814,21H16.5a.5.5,0,0,1-.5-.5V19.07186a1,1,0,0,1,.29291-.70713l2.07182-2.07183A1.00006,1.00006,0,0,1,19.779,16.2929Z" fill="none" stroke="#323232" stroke-linecap="round" stroke-linejoin="round" stroke-width="1.5"/><path d="M24,24H0V0H24Z" fill="none"/></svg>