<svg xmlns="http://www.w3.org/2000/svg" viewBox="0 0 24 24"><path d="M7.41162,20.94174h0A5.48788,5.48788,0,0,1,3,15.56043V14a3,3,0,0,1,3-3h4a3,3,0,0,1,3,3v1.56042A5.48788,5.48788,0,0,1,8.5885,20.9417l-.00012,0A3,3,0,0,1,7.41162,20.94174Z" fill="none" stroke="#323232" stroke-linecap="round" stroke-linejoin="round" stroke-width="1.5"/><path d="M15,21h3a3,3,0,0,0,3-3V8.50931A3,3,0,0,0,20.12132,6.388L17.612,3.87868A3,3,0,0,0,15.49069,3H7.00017a3,3,0,0,0-3,3V8" fill="none" stroke="#323232" stroke-linecap="round" stroke-linejoin="round" stroke-width="1.5" fill-rule="evenodd"/><line x1="9.25" y1="17.25" x2="6.75" y2="14.75" fill="none" stroke="#323232" stroke-linecap="round" stroke-linejoin="round" stroke-width="1.5"/><line x1="9.25" y1="14.75" x2="6.75" y2="17.25" fill="none" stroke="#323232" stroke-linecap="round" stroke-linejoin="round" stroke-width="1.5"/></svg>