<svg xmlns="http://www.w3.org/2000/svg" viewBox="0 0 24 24"><path d="M6.976,11V5a2,2,0,0,1,2-2h10a2,2,0,0,1,2,2V19a2,2,0,0,1-2,2h-2" fill="none" stroke="#323232" stroke-linecap="round" stroke-linejoin="round" stroke-width="1.5"/><line x1="17.97599" y1="12.00001" x2="15.97599" y2="12.00001" fill="none" stroke="#323232" stroke-linecap="round" stroke-linejoin="round" stroke-width="1.5"/><rect x="1.97599" y="14.00001" width="12" height="7" rx="2" stroke-width="1.5" stroke="#323232" stroke-linecap="round" stroke-linejoin="round" fill="none"/><path d="M4.995,17.5,5,17.505l.005-.005L5,17.495l-.005.005" fill="none" stroke="#323232" stroke-linecap="round" stroke-linejoin="round" stroke-width="1.5"/><path d="M7.995,17.5,8,17.505l.005-.005L8,17.495l-.005.005" fill="none" stroke="#323232" stroke-linecap="round" stroke-linejoin="round" stroke-width="1.5"/><path d="M10.995,17.5l.005.005.005-.005L11,17.495l-.005.005" fill="none" stroke="#323232" stroke-linecap="round" stroke-linejoin="round" stroke-width="1.5"/><path d="M-.024,24V0h24V24Z" fill="none"/></svg>