<svg xmlns="http://www.w3.org/2000/svg" viewBox="0 0 24 24"><path d="M12,17a6.40925,6.40925,0,0,1-5.61075-3.44051h0a3.31859,3.31859,0,0,1,0-3.119h0A6.40925,6.40925,0,0,1,12,7" fill="none" stroke="#323232" stroke-linecap="round" stroke-linejoin="round" stroke-width="1.5"/><path d="M12,7a6.40925,6.40925,0,0,1,5.61075,3.44051h0a3.31859,3.31859,0,0,1,0,3.119h0A6.40925,6.40925,0,0,1,12,17" fill="none" stroke="#323232" stroke-linecap="round" stroke-linejoin="round" stroke-width="1.5"/><rect x="3" y="3" width="18" height="18" rx="5" stroke-width="1.5" stroke="#323232" stroke-linecap="round" stroke-linejoin="round" fill="none"/><rect x="10" y="10" width="4" height="4" rx="1.5" stroke-width="1.5" stroke="#323232" stroke-linecap="round" stroke-linejoin="round" fill="none"/><path d="M0,24V0H24V24Z" fill="none"/></svg>