<svg xmlns="http://www.w3.org/2000/svg" viewBox="0 0 24 24"><line x1="17.75" y1="17.75" x2="19.25" y2="19.25" fill="none" stroke="#323232" stroke-linecap="round" stroke-linejoin="round" stroke-width="1.5"/><line x1="6.25" y1="6.25" x2="4.75" y2="4.75" fill="none" stroke="#323232" stroke-linecap="round" stroke-linejoin="round" stroke-width="1.5"/><line x1="17.75" y1="6.25" x2="19.25" y2="4.75" fill="none" stroke="#323232" stroke-linecap="round" stroke-linejoin="round" stroke-width="1.5"/><line x1="6.25" y1="17.75" x2="4.75" y2="19.25" fill="none" stroke="#323232" stroke-linecap="round" stroke-linejoin="round" stroke-width="1.5"/><path d="M12,16.5a5.88412,5.88412,0,0,0,5.13927-3.09646h0a2.91083,2.91083,0,0,0,0-2.80707h0a5.81312,5.81312,0,0,0-10.27854,0h0a2.91084,2.91084,0,0,0,0,2.80706v0A5.88412,5.88412,0,0,0,12,16.5Z" fill="none" stroke="#323232" stroke-linecap="round" stroke-linejoin="round" stroke-width="1.5"/><rect x="10.35" y="10.35" width="3.3" height="3.3" rx="1.65" stroke-width="1.5" stroke="#323232" stroke-linecap="round" stroke-linejoin="round" fill="none"/><path d="M16.41022,20.41016a9.46827,9.46827,0,0,1-8.82044,0" fill="none" stroke="#323232" stroke-linecap="round" stroke-linejoin="round" stroke-width="1.5"/><path d="M3.58978,7.58984a9.46849,9.46849,0,0,0,0,8.82032" fill="none" stroke="#323232" stroke-linecap="round" stroke-linejoin="round" stroke-width="1.5"/><path d="M20.41022,16.41016a9.46849,9.46849,0,0,0,0-8.82032" fill="none" stroke="#323232" stroke-linecap="round" stroke-linejoin="round" stroke-width="1.5"/><path d="M16.41022,3.58984a9.46827,9.46827,0,0,0-8.82044,0" fill="none" stroke="#323232" stroke-linecap="round" stroke-linejoin="round" stroke-width="1.5"/></svg>