<svg xmlns="http://www.w3.org/2000/svg" viewBox="0 0 24 24"><path d="M20,9V6a3,3,0,0,0-3-3H6A3,3,0,0,0,3,6V18a3,3,0,0,0,3,3h4" fill="none" stroke="#323232" stroke-linecap="round" stroke-linejoin="round" stroke-width="1.5"/><line x1="7" y1="8.00001" x2="16" y2="8.00001" fill="none" stroke="#323232" stroke-linecap="round" stroke-linejoin="round" stroke-width="1.5"/><line x1="7" y1="12.00001" x2="9" y2="12.00001" fill="none" stroke="#323232" stroke-linecap="round" stroke-linejoin="round" stroke-width="1.5"/><line x1="7" y1="16.00001" x2="8" y2="16.00001" fill="none" stroke="#323232" stroke-linecap="round" stroke-linejoin="round" stroke-width="1.5"/><polyline points="15.226 16 16.226 17 17.726 15.5" fill="none" stroke="#323232" stroke-linecap="round" stroke-linejoin="round" stroke-width="1.5"/><path d="M15.97046,20.94758h0A4.93909,4.93909,0,0,1,12,16.1044V14.5A2.5,2.5,0,0,1,14.5,12h4A2.5,2.5,0,0,1,21,14.5v1.60438a4.93908,4.93908,0,0,1-3.97035,4.84315l-.00011,0A2.69987,2.69987,0,0,1,15.97046,20.94758Z" fill="none" stroke="#323232" stroke-linecap="round" stroke-linejoin="round" stroke-width="1.5"/><path d="M24,24H0V0H24Z" fill="none"/></svg>