<svg xmlns="http://www.w3.org/2000/svg" viewBox="0 0 24 24"><path d="M15,21h3a3,3,0,0,0,3-3V8.50931A3,3,0,0,0,20.12132,6.388L17.612,3.87868A3,3,0,0,0,15.49069,3H7A3,3,0,0,0,4,6V8" fill="none" stroke="#323232" stroke-linecap="round" stroke-linejoin="round" stroke-width="1.5" fill-rule="evenodd"/><path d="M7.41162,20.94174h0A5.48787,5.48787,0,0,1,3,15.56044V13.77778A2.77777,2.77777,0,0,1,5.77778,11h4.44444A2.77777,2.77777,0,0,1,13,13.77778v1.78264A5.48788,5.48788,0,0,1,8.5885,20.9417l-.00012,0A3,3,0,0,1,7.41162,20.94174Z" fill="none" stroke="#323232" stroke-linecap="round" stroke-linejoin="round" stroke-width="1.5"/><path d="M7.99962,14.25l.00076,3" fill="none" stroke="#323232" stroke-linecap="round" stroke-linejoin="round" stroke-width="1.5"/><path d="M6.5,15.75038l3-.00076" fill="none" stroke="#323232" stroke-linecap="round" stroke-linejoin="round" stroke-width="1.5"/></svg>