<svg xmlns="http://www.w3.org/2000/svg" viewBox="0 0 24 24"><path d="M0,24V0H24V24Z" fill="none"/><line x1="14" y1="16" x2="14" y2="15" fill="none" stroke="#323232" stroke-linecap="round" stroke-linejoin="round" stroke-width="1.5"/><line x1="7" y1="16" x2="7" y2="15" fill="none" stroke="#323232" stroke-linecap="round" stroke-linejoin="round" stroke-width="1.5"/><rect x="3" y="3" width="18" height="18" rx="5" stroke-width="1.5" stroke="#323232" stroke-linecap="round" stroke-linejoin="round" fill="none"/><path d="M14.21729,7.54A4.94661,4.94661,0,0,0,12,7a5,5,0,0,0-5,5v.5" fill="none" stroke="#323232" stroke-linecap="round" stroke-linejoin="round" stroke-width="1.5"/><path d="M17,16V12a4.94431,4.94431,0,0,0-.62543-2.37457" fill="none" stroke="#323232" stroke-linecap="round" stroke-linejoin="round" stroke-width="1.5"/><path d="M14,12.5V12a2,2,0,0,0-2-2h0a2,2,0,0,0-2,2v4" fill="none" stroke="#323232" stroke-linecap="round" stroke-linejoin="round" stroke-width="1.5"/></svg>