<svg xmlns="http://www.w3.org/2000/svg" viewBox="0 0 24 24"><path d="M0,0H24V24H0Z" fill="none"/><path d="M0,24H24V0H0Z" fill="none"/><line x1="3.51294" y1="9" x2="20.48706" y2="9" fill="none" stroke="#323232" stroke-linecap="round" stroke-linejoin="round" stroke-width="1.5"/><line x1="12" y1="15.00005" x2="3.51253" y2="14.99995" fill="none" stroke="#323232" stroke-linecap="round" stroke-linejoin="round" stroke-width="1.5"/><path d="M12,3a9,9,0,0,0,0,18" fill="none" stroke="#323232" stroke-linecap="round" stroke-linejoin="round" stroke-width="1.5"/><path d="M12.01029,3h.00564C9.798,3,8,7.02944,8,12s1.798,9,4.01593,9" fill="none" stroke="#323232" stroke-linecap="round" stroke-linejoin="round" stroke-width="1.5"/><path d="M20.94135,11A8.99872,8.99872,0,0,0,12,3" fill="none" stroke="#323232" stroke-linecap="round" stroke-linejoin="round" stroke-width="1.5"/><path d="M16,11c-.22222-4.49945-1.92278-8-3.98971-8" fill="none" stroke="#323232" stroke-linecap="round" stroke-linejoin="round" stroke-width="1.5"/><path d="M18.08813,20.95922h0A3.84151,3.84151,0,0,1,15,17.19231V15.94444A1.94445,1.94445,0,0,1,16.94444,14h3.11112A1.94445,1.94445,0,0,1,22,15.94444V17.1923a3.8415,3.8415,0,0,1-3.088,3.76689l-.00008,0A2.1,2.1,0,0,1,18.08813,20.95922Z" fill="none" stroke="#323232" stroke-linecap="round" stroke-linejoin="round" stroke-width="1.5"/></svg>