<svg xmlns="http://www.w3.org/2000/svg" viewBox="0 0 24 24"><path d="M3.49236,15H6a2,2,0,0,0,2-2V11a2,2,0,0,1,2-2h2a2,2,0,0,0,2-2V3.28219" fill="none" stroke="#323232" stroke-linecap="round" stroke-linejoin="round" stroke-width="1.5"/><path d="M20.94135,11.05865A8.99846,8.99846,0,1,0,11,21" fill="none" stroke="#323232" stroke-linecap="round" stroke-linejoin="round" stroke-width="1.5"/><path d="M16.0293,20.95339h0A4.39029,4.39029,0,0,1,12.5,16.64835V15.22222A2.22222,2.22222,0,0,1,14.72222,13h3.55556A2.22222,2.22222,0,0,1,20.5,15.22222v1.42612a4.39029,4.39029,0,0,1-3.5292,4.305l-.0001,0A2.39972,2.39972,0,0,1,16.0293,20.95339Z" fill="none" stroke="#323232" stroke-linecap="round" stroke-linejoin="round" stroke-width="1.5"/><polyline points="15.25 16.65 16.25 17.65 17.75 16.15" fill="none" stroke="#323232" stroke-linecap="round" stroke-linejoin="round" stroke-width="1.5"/><path d="M24,24H0V0H24Z" fill="none"/></svg>