<svg xmlns="http://www.w3.org/2000/svg" viewBox="0 0 24 24"><path d="M24,0H0V24H24Z" fill="none"/><path d="M0,0H24V24H0Z" fill="none"/><path d="M21,14v4a3,3,0,0,1-3,3H17" fill="none" stroke="#323232" stroke-linecap="round" stroke-linejoin="round" stroke-width="1.5"/><path d="M3,9V6A3,3,0,0,1,6,3H9" fill="none" stroke="#323232" stroke-linecap="round" stroke-linejoin="round" stroke-width="1.5"/><path d="M15.97046,11.94757h0A4.93909,4.93909,0,0,1,12,7.1044V5.5A2.5,2.5,0,0,1,14.5,3h4A2.5,2.5,0,0,1,21,5.5V7.10438a4.93908,4.93908,0,0,1-3.97035,4.84315l-.00011,0A2.70006,2.70006,0,0,1,15.97046,11.94757Z" fill="none" stroke="#323232" stroke-linecap="round" stroke-linejoin="round" stroke-width="1.5"/><path d="M3,20l1.156.578A3.99768,3.99768,0,0,0,5.94378,21H12.5A1.5,1.5,0,0,0,14,19.5h0A1.5,1.5,0,0,0,12.5,18h-4" fill="none" stroke="#323232" stroke-linecap="round" stroke-linejoin="round" stroke-width="1.5"/><path d="M3,13H5.91335a2,2,0,0,1,1.2.4L9.35062,15.078a1.62336,1.62336,0,0,1,.17388,2.44657h0a1.62336,1.62336,0,0,1-2.1219.15079L6,16.62336" fill="none" stroke="#323232" stroke-linecap="round" stroke-linejoin="round" stroke-width="1.5"/></svg>