<?xml version="1.0" encoding="UTF-8"?><svg version="1.1" viewBox="0 0 24 24" xmlns="http://www.w3.org/2000/svg" xmlns:xlink="http://www.w3.org/1999/xlink"><!--Generated by IJSVG (https://github.com/iconjar/IJSVG)--><g stroke-linecap="round" stroke-width="1.5" stroke="#323232" fill="none" stroke-linejoin="round"><path d="M18.671,21h-13.342c-0.994,0 -1.8,-0.806 -1.8,-1.8v-7.73c0,-0.477 0.19,-0.935 0.527,-1.273l6.671,-6.67c0.703,-0.703 1.843,-0.703 2.546,0l6.671,6.67c0.338,0.338 0.527,0.795 0.527,1.273v7.73c0,0.994 -0.806,1.8 -1.8,1.8Z"></path><path d="M13.527,13.375v-1.348c0,-0.843 -0.684,-1.527 -1.527,-1.527v0c-0.843,0 -1.527,0.684 -1.527,1.527v1.348"></path><path d="M13.75,13.376h-3.5c-0.552,0 -1,0.448 -1,1v2.124c0,0.552 0.448,1 1,1h3.5c0.552,0 1,-0.448 1,-1v-2.124c0,-0.552 -0.448,-1 -1,-1Z"></path></g><path fill="none" d="M0,0h24v24h-24v-24Z"></path></svg>