<svg xmlns="http://www.w3.org/2000/svg" viewBox="0 0 24 24"><path d="M9,14H6a3,3,0,0,1-3-3V6A3,3,0,0,1,6,3H18a3,3,0,0,1,3,3v4" fill="none" stroke="#323232" stroke-linecap="round" stroke-linejoin="round" stroke-width="1.5"/><path d="M11.3,7.5,9.05,9.75,7.7,8.4" fill="none" stroke="#323232" stroke-linecap="round" stroke-linejoin="round" stroke-width="1.5"/><path d="M15,15.99975l-.58544-.58547a1.41439,1.41439,0,0,0-2.00027,0h0a1.41437,1.41437,0,0,0-.17675,1.78462l1.94,2.91038A2.00007,2.00007,0,0,0,15.8418,21h3.79608a2,2,0,0,0,1.98455-1.752l.362-2.89685a2,2,0,0,0-1.66266-2.22186L18,13.75066V11.5A1.5,1.5,0,0,0,16.5,10h0A1.5,1.5,0,0,0,15,11.5Z" fill="none" stroke="#323232" stroke-linecap="round" stroke-linejoin="round" stroke-width="1.5"/><path d="M0,0H24V24H0Z" fill="none"/></svg>