<svg xmlns="http://www.w3.org/2000/svg" viewBox="0 0 24 24"><path d="M17,21a5,5,0,1,1,5-5,5,5,0,0,1-5,5" fill="none" stroke="#323232" stroke-linecap="round" stroke-linejoin="round" stroke-width="1.5"/><path d="M7.58839,7.91158a.125.125,0,1,1-.17678,0,.12509.12509,0,0,1,.17678,0" fill="none" stroke="#323232" stroke-linecap="round" stroke-linejoin="round" stroke-width="1.5"/><path d="M16.58839,7.91154a.125.125,0,1,1-.17678,0,.12509.12509,0,0,1,.17678,0" fill="none" stroke="#323232" stroke-linecap="round" stroke-linejoin="round" stroke-width="1.5"/><path d="M9,13H5a1.99944,1.99944,0,0,1-2-1.9989V5A1.99944,1.99944,0,0,1,4.9989,3H19a1.99944,1.99944,0,0,1,2,1.9989V8" fill="none" stroke="#323232" stroke-linecap="round" stroke-linejoin="round" stroke-width="1.5"/><path d="M12.08839,7.91154a.125.125,0,1,1-.17678,0,.12509.12509,0,0,1,.17678,0" fill="none" stroke="#323232" stroke-linecap="round" stroke-linejoin="round" stroke-width="1.5"/><line x1="18.625" y1="16" x2="15.375" y2="16" fill="none" stroke="#323232" stroke-linecap="round" stroke-linejoin="round" stroke-width="1.5"/><line x1="17" y1="14.375" x2="17" y2="17.625" fill="none" stroke="#323232" stroke-linecap="round" stroke-linejoin="round" stroke-width="1.5"/></svg>