<svg xmlns="http://www.w3.org/2000/svg" viewBox="0 0 24 24"><path d="M3,14.1906V9.8094A5,5,0,0,1,5.5,5.47927l4-2.3094a5,5,0,0,1,5,0l4,2.3094A5,5,0,0,1,21,9.8094v4.3812a5,5,0,0,1-2.5,4.33013l-4,2.3094a5,5,0,0,1-5,0l-4-2.3094A5,5,0,0,1,3,14.1906Z" fill="none" stroke="#323232" stroke-linecap="round" stroke-linejoin="round" stroke-width="1.5"/><path d="M12.625,9.75v4.5" fill="none" stroke="#323232" stroke-linecap="round" stroke-linejoin="round" stroke-width="1.5"/><path d="M12.625,9.75H14.5a1.5,1.5,0,0,1,1.5,1.5h0a1.5,1.5,0,0,1-1.5,1.5H12.625" fill="none" stroke="#323232" stroke-linecap="round" stroke-linejoin="round" stroke-width="1.5"/><line x1="9" y1="14.25" x2="9" y2="9.75" fill="none" stroke="#323232" stroke-linecap="round" stroke-linejoin="round" stroke-width="1.5"/></svg>