<svg xmlns="http://www.w3.org/2000/svg" viewBox="0 0 24 24"><path d="M-.024,0h24V24h-24Z" fill="none"/><path d="M17.98639,4.47978h0a8.443,8.443,0,0,1,0,11.97353h0L14.446,19.97976a3.5,3.5,0,0,1-4.93584.00412l-.02579-.0256L5.96557,16.45334A8.44316,8.44316,0,0,1,5.96551,4.47978h0A8.52387,8.52387,0,0,1,17.958,4.45167l.02832.02811Z" fill="none" stroke="#323232" stroke-linecap="round" stroke-linejoin="round" stroke-width="1.5"/><path d="M12.625,8.25v4.5" fill="none" stroke="#323232" stroke-linecap="round" stroke-linejoin="round" stroke-width="1.5"/><path d="M12.625,8.25H14.5A1.5,1.5,0,0,1,16,9.75h0a1.5,1.5,0,0,1-1.5,1.5H12.625" fill="none" stroke="#323232" stroke-linecap="round" stroke-linejoin="round" stroke-width="1.5"/><line x1="9" y1="12.75" x2="9" y2="8.25" fill="none" stroke="#323232" stroke-linecap="round" stroke-linejoin="round" stroke-width="1.5"/></svg>