<svg xmlns="http://www.w3.org/2000/svg" viewBox="0 0 24 24"><path d="M15,21h2a4,4,0,0,0,4-4V7a4,4,0,0,0-4-4H7A4,4,0,0,0,3,7H3" fill="none" stroke="#323232" stroke-linecap="round" stroke-linejoin="round" stroke-width="1.5"/><line x1="7.5" y1="17.08334" x2="7.5" y2="15.41668" fill="none" stroke="#323232" stroke-linecap="round" stroke-linejoin="round" stroke-width="1.5"/><rect x="2" y="10.00001" width="11" height="11" rx="3.5" stroke-width="1.5" stroke="#323232" stroke-linecap="round" stroke-linejoin="round" fill="none"/><line x1="5" y1="17" x2="5" y2="16" fill="none" stroke="#323232" stroke-linecap="round" stroke-linejoin="round" stroke-width="1.5"/><path d="M5.73218,13.73224A2.49223,2.49223,0,0,1,7.5,13h0A2.5,2.5,0,0,1,10,15.5V17" fill="none" stroke="#323232" stroke-linecap="round" stroke-linejoin="round" stroke-width="1.5"/><path d="M0,24H24V0H0Z" fill="none"/><path d="M24,0H0V24H24Z" fill="none"/></svg>