<svg xmlns="http://www.w3.org/2000/svg" viewBox="0 0 24 24"><path d="M16,18v1a2,2,0,0,1-2,2H6a2,2,0,0,1-2-2V5A2,2,0,0,1,6,3h8a2,2,0,0,1,2,2V6" fill="none" stroke="#323232" stroke-linecap="round" stroke-linejoin="round" stroke-width="1.5"/><rect x="10" y="8.5" width="12" height="7" rx="2" stroke-width="1.5" stroke="#323232" stroke-linecap="round" stroke-linejoin="round" fill="none"/><path d="M13.019,12l.005.005L13.029,12l-.005-.005L13.019,12" fill="none" stroke="#323232" stroke-linecap="round" stroke-linejoin="round" stroke-width="1.5"/><path d="M16.019,12l.005.005L16.029,12l-.005-.005L16.019,12" fill="none" stroke="#323232" stroke-linecap="round" stroke-linejoin="round" stroke-width="1.5"/><path d="M19.019,12l.005.005L19.029,12l-.005-.005L19.019,12" fill="none" stroke="#323232" stroke-linecap="round" stroke-linejoin="round" stroke-width="1.5"/><path d="M0,0H24V24H0Z" fill="none"/></svg>