<svg xmlns="http://www.w3.org/2000/svg" viewBox="0 0 24 24"><rect x="-0.02401" y="0.00001" width="24" height="24" fill="none"/><path d="M6.80442,19.82844,4.14756,17.17158A4,4,0,0,1,2.976,14.34315V9.65786A4,4,0,0,1,4.14756,6.82944L6.80542,4.17158A4,4,0,0,1,9.63384,3h4.6843a4,4,0,0,1,2.82842,1.17157l2.65786,2.65786A4,4,0,0,1,20.976,9.65786v4.68538a4,4,0,0,1-1.17114,2.828L17.14891,19.828A4,4,0,0,1,14.32,21H9.63284A4,4,0,0,1,6.80442,19.82844Z" fill="none" stroke="#323232" stroke-linecap="round" stroke-linejoin="round" stroke-width="1.5"/><path d="M9.59586,12.07838,8.24564,13.42854a.92065.92065,0,0,0-.26965.651v.99975A.92073.92073,0,0,0,8.8967,16h.9997a.92063.92063,0,0,0,.65106-.26972l1.35016-1.35015" fill="none" stroke="#323232" stroke-linecap="round" stroke-linejoin="round" stroke-width="1.5"/><path d="M9.59586,12.07838a3.30593,3.30593,0,1,1,2.30176,2.30176" fill="none" stroke="#323232" stroke-linecap="round" stroke-linejoin="round" stroke-width="1.5"/><path d="M12.686,11.205l-.005.005-.005-.005.005-.005.005.005" fill="none" stroke="#323232" stroke-linecap="round" stroke-linejoin="round" stroke-width="1.5"/></svg>