<svg xmlns="http://www.w3.org/2000/svg" viewBox="0 0 24 24"><rect x="3" y="3" width="18" height="18" rx="5" stroke-width="1.5" stroke="#323232" stroke-linecap="round" stroke-linejoin="round" fill="none"/><path d="M9.42835,12.05938a4.80553,4.80553,0,0,1-.19274-.538A2.47293,2.47293,0,0,1,9.8854,9.09812l.85019-.8502a2.42676,2.42676,0,0,1,2.30223-.67735,4.74129,4.74129,0,0,1,3.39166,3.39183,2.42676,2.42676,0,0,1-.67739,2.30207l-.85014.85014a2.47294,2.47294,0,0,1-2.42326.6498,4.80728,4.80728,0,0,1-.53808-.19277l-1.63546,1.63545a1,1,0,0,1-.7071.2929H8.5a1,1,0,0,1-1-1V14.40194a1,1,0,0,1,.29289-.70711Z" fill="none" stroke="#323232" stroke-linecap="round" stroke-linejoin="round" stroke-width="1.5"/><path d="M12.8,11.25021a.05.05,0,1,1-.05-.0502.04973.04973,0,0,1,.05.0502" fill="none" stroke="#323232" stroke-linecap="round" stroke-linejoin="round" stroke-width="1.5"/></svg>