<?xml version="1.0" encoding="UTF-8"?><svg version="1.1" viewBox="0 0 24 24" xmlns="http://www.w3.org/2000/svg" xmlns:xlink="http://www.w3.org/1999/xlink"><!--Generated by IJSVG (https://github.com/iconjar/IJSVG)--><g stroke-linecap="round" stroke-width="1.5" stroke="#323232" fill="none" stroke-linejoin="round"><path d="M13.733,11.646c0.723,-0.627 1.104,-1.638 0.819,-2.717c-0.233,-0.884 -0.957,-1.606 -1.842,-1.836c-1.768,-0.46 -3.357,0.862 -3.357,2.555c0,0.799 0.355,1.514 0.915,1.999c0.155,0.134 0.234,0.335 0.177,0.533l-0.91,3.184c-0.091,0.318 0.149,0.636 0.481,0.636h3.968c0.332,0 0.573,-0.313 0.482,-0.633c-0.256,-0.896 -0.715,-2.504 -0.911,-3.19c-0.057,-0.197 0.023,-0.397 0.178,-0.531Z"></path><path d="M18.364,5.13604c3.51472,3.51472 3.51472,9.2132 0,12.7279c-3.51472,3.51472 -9.2132,3.51472 -12.7279,0c-3.51472,-3.51472 -3.51472,-9.2132 -1.77636e-15,-12.7279c3.51472,-3.51472 9.2132,-3.51472 12.7279,-1.77636e-15"></path></g><path fill="none" d="M0,0h24v24h-24v-24Z"></path></svg>