<svg xmlns="http://www.w3.org/2000/svg" viewBox="0 0 24 24"><path d="M16.5293,10.9534h0A4.3903,4.3903,0,0,1,13,6.64836V5.25A2.25,2.25,0,0,1,15.25,3h3.5A2.25,2.25,0,0,1,21,5.25V6.64835a4.3903,4.3903,0,0,1-3.5292,4.305l-.0001,0A2.39991,2.39991,0,0,1,16.5293,10.9534Z" fill="none" stroke="#323232" stroke-linecap="round" stroke-linejoin="round" stroke-width="1.5"/><line x1="10" y1="18" x2="14" y2="18" fill="none" stroke="#323232" stroke-linecap="round" stroke-linejoin="round" stroke-width="1.5"/><path d="M18.89612,14H5.5A1.5,1.5,0,0,1,4,12.5V5A2,2,0,0,1,6,3h4" fill="none" stroke="#323232" stroke-linecap="round" stroke-linejoin="round" stroke-width="1.5"/><path d="M18.99878,21H5.00122a2,2,0,0,1-1.92308-2.54936l1.0642-3.72532A1,1,0,0,1,5.10388,14H18.89612a1,1,0,0,1,.96153.72532l1.06421,3.72532A2,2,0,0,1,18.99878,21Z" fill="none" stroke="#323232" stroke-linecap="round" stroke-linejoin="round" stroke-width="1.5"/><path d="M0,0H24V24H0Z" fill="none"/></svg>