<svg xmlns="http://www.w3.org/2000/svg" viewBox="0 0 24 24"><path d="M9.03533,10.96461a.05.05,0,1,1-.07071,0l0,0a.05.05,0,0,1,.07066,0" fill="none" stroke="#323232" stroke-linecap="round" stroke-linejoin="round" stroke-width="1.5"/><path d="M12.03533,10.96461a.05.05,0,1,1-.07071,0l0,0a.05.05,0,0,1,.07066,0" fill="none" stroke="#323232" stroke-linecap="round" stroke-linejoin="round" stroke-width="1.5"/><line x1="15.00001" y1="8.5" x2="15.00001" y2="13.5" fill="none" stroke="#323232" stroke-linecap="round" stroke-linejoin="round" stroke-width="1.5"/><path d="M18,19H14.5l-1.81034,1.72415a1,1,0,0,1-1.37933,0L9.5,19.00006,6,19A3,3,0,0,1,3,16V6A3,3,0,0,1,6,3H18a3,3,0,0,1,3,3V16A3,3,0,0,1,18,19Z" fill="none" stroke="#323232" stroke-linecap="round" stroke-linejoin="round" stroke-width="1.5"/></svg>