<svg xmlns="http://www.w3.org/2000/svg" viewBox="0 0 24 24"><path d="M8.91132,10.75329a.05.05,0,1,1-.07071,0l0,0a.05.05,0,0,1,.07066,0" fill="none" stroke="#323232" stroke-linecap="round" stroke-linejoin="round" stroke-width="1.5"/><path d="M11.91132,10.75329a.05.05,0,1,1-.07071,0l0,0a.05.05,0,0,1,.07066,0" fill="none" stroke="#323232" stroke-linecap="round" stroke-linejoin="round" stroke-width="1.5"/><line x1="15.12599" y1="8.00001" x2="15.12599" y2="13.00001" fill="none" stroke="#323232" stroke-linecap="round" stroke-linejoin="round" stroke-width="1.5"/><path d="M-.024,0h24V24h-24Z" fill="none"/><path d="M12.483,18h5.493a3,3,0,0,0,3-3V6a3,3,0,0,0-3-3h-12a3,3,0,0,0-3,3v9a3,3,0,0,0,3,3H7.983v2.4429a.5561.5561,0,0,0,.90349.43424Z" fill="none" stroke="#323232" stroke-linecap="round" stroke-linejoin="round" stroke-width="1.5"/></svg>