<svg xmlns="http://www.w3.org/2000/svg" viewBox="0 0 24 24"><path d="M17.5293,10.95339h0A4.39029,4.39029,0,0,1,14,6.64835V5.22222A2.22222,2.22222,0,0,1,16.22222,3h3.55556A2.22222,2.22222,0,0,1,22,5.22222V6.64834a4.39029,4.39029,0,0,1-3.5292,4.305l-.0001,0A2.39972,2.39972,0,0,1,17.5293,10.95339Z" fill="none" stroke="#323232" stroke-linecap="round" stroke-linejoin="round" stroke-width="1.5"/><line x1="14.25" y1="17.5" x2="14.5" y2="21" fill="none" stroke="#323232" stroke-linecap="round" stroke-linejoin="round" stroke-width="1.5"/><line x1="9.75" y1="17.5" x2="9.5" y2="21" fill="none" stroke="#323232" stroke-linecap="round" stroke-linejoin="round" stroke-width="1.5"/><line x1="8" y1="21.00001" x2="16" y2="21.00001" fill="none" stroke="#323232" stroke-linecap="round" stroke-linejoin="round" stroke-width="1.5"/><path d="M21,13.5v1.0034a3,3,0,0,1-3,3H6a3,3,0,0,1-3-3v-8.5a3,3,0,0,1,3-3h5" fill="none" stroke="#323232" stroke-linecap="round" stroke-linejoin="round" stroke-width="1.5"/><path d="M0,0H24V24H0Z" fill="none"/></svg>