<svg xmlns="http://www.w3.org/2000/svg" viewBox="0 0 24 24"><path d="M19,17.5H5A2.5,2.5,0,0,1,2.5,15V5.5A2.5,2.5,0,0,1,5,3H19a2.5,2.5,0,0,1,2.5,2.5V15A2.5,2.5,0,0,1,19,17.5Z" fill="none" stroke="#323232" stroke-linecap="round" stroke-linejoin="round" stroke-width="1.5"/><rect x="6.5" y="7" width="11" height="7" rx="2" stroke-width="1.5" stroke="#323232" stroke-linecap="round" stroke-linejoin="round" fill="none"/><path d="M11.995,10.5l.005.005.005-.005L12,10.495l-.005.005" fill="none" stroke="#323232" stroke-linecap="round" stroke-linejoin="round" stroke-width="1.5"/><path d="M14.495,10.5l.005.005.005-.005-.005-.005-.005.005" fill="none" stroke="#323232" stroke-linecap="round" stroke-linejoin="round" stroke-width="1.5"/><path d="M9.495,10.5l.005.005.005-.005L9.5,10.495l-.005.005" fill="none" stroke="#323232" stroke-linecap="round" stroke-linejoin="round" stroke-width="1.5"/><line x1="14.25" y1="17.5" x2="14.5" y2="21" fill="none" stroke="#323232" stroke-linecap="round" stroke-linejoin="round" stroke-width="1.5"/><line x1="9.75" y1="17.5" x2="9.5" y2="21" fill="none" stroke="#323232" stroke-linecap="round" stroke-linejoin="round" stroke-width="1.5"/><line x1="8" y1="21.00001" x2="16" y2="21.00001" fill="none" stroke="#323232" stroke-linecap="round" stroke-linejoin="round" stroke-width="1.5"/></svg>