<svg xmlns="http://www.w3.org/2000/svg" viewBox="0 0 24 24"><path d="M7.55306,16.947a.075.075,0,1,1-.10612,0,.075.075,0,0,1,.10612,0" fill="none" stroke="#323232" stroke-linecap="round" stroke-linejoin="round" stroke-width="1.5"/><path d="M12.05306,16.947a.075.075,0,1,1-.10612,0,.075.075,0,0,1,.10612,0" fill="none" stroke="#323232" stroke-linecap="round" stroke-linejoin="round" stroke-width="1.5"/><path d="M16.55306,16.947a.075.075,0,1,1-.10612,0,.075.075,0,0,1,.10612,0" fill="none" stroke="#323232" stroke-linecap="round" stroke-linejoin="round" stroke-width="1.5"/><rect x="3" y="13" width="18" height="8" rx="2.5" stroke-width="1.5" stroke="#323232" stroke-linecap="round" stroke-linejoin="round" fill="none"/><path d="M12,2h0a2.5,2.5,0,0,1,2.5,2.5v2a0,0,0,0,1,0,0h-5a0,0,0,0,1,0,0v-2A2.5,2.5,0,0,1,12,2Z" fill="none" stroke="#323232" stroke-linecap="round" stroke-linejoin="round" stroke-width="1.5"/><path d="M7,10V8.5a2,2,0,0,1,2-2h6a2,2,0,0,1,2,2V10" fill="none" stroke="#323232" stroke-linecap="round" stroke-linejoin="round" stroke-width="1.5"/><path d="M24,24H0V0H24Z" fill="none"/></svg>