<svg xmlns="http://www.w3.org/2000/svg" viewBox="0 0 24 24"><rect x="8.5" y="9.5" width="7" height="4.5" rx="1.25" stroke-width="1.5" stroke="#323232" stroke-linecap="round" stroke-linejoin="round" fill="none"/><path d="M12,6h0a1.75,1.75,0,0,1,1.75,1.75V9.5h-3.5V7.75A1.75,1.75,0,0,1,12,6Z" fill="none" stroke="#323232" stroke-linecap="round" stroke-linejoin="round" stroke-width="1.5"/><path d="M17.98639,4.47978h0a8.443,8.443,0,0,1,0,11.97353h0L14.446,19.97976a3.5,3.5,0,0,1-4.93584.00412l-.02579-.0256L5.96557,16.45334A8.44316,8.44316,0,0,1,5.96551,4.47978h0A8.52387,8.52387,0,0,1,17.958,4.45167l.02832.02811Z" fill="none" stroke="#323232" stroke-linecap="round" stroke-linejoin="round" stroke-width="1.5"/></svg>