<svg xmlns="http://www.w3.org/2000/svg" viewBox="0 0 24 24"><rect x="2.97599" y="3.00001" width="18" height="18" rx="5" transform="translate(23.976 0.02402) rotate(90)" stroke-width="1.5" stroke="#323232" stroke-linecap="round" stroke-linejoin="round" fill="none"/><path d="M16,13.5l0,1.39469a.99094.99094,0,0,1-.33056.754,5.658,5.658,0,0,1-7.33892,0A.99094.99094,0,0,1,8,14.89469L8,13.5" fill="none" stroke="#323232" stroke-linecap="round" stroke-linejoin="round" stroke-width="1.5"/><path d="M16,13.5l.95431-3.052a1,1,0,0,0-.481-1.17929L12.47338,7.11915a1,1,0,0,0-.94676,0L7.52673,9.26874a1,1,0,0,0-.481,1.17929L8,13.5" fill="none" stroke="#323232" stroke-linecap="round" stroke-linejoin="round" stroke-width="1.5"/><line x1="16" y1="13.5" x2="8" y2="13.5" fill="none" stroke="#323232" stroke-linecap="round" stroke-linejoin="round" stroke-width="1.5"/><path d="M12.01,10.505l-.005.005L12,10.505l.005-.005.005.005" fill="none" stroke="#323232" stroke-linecap="round" stroke-linejoin="round" stroke-width="1.5"/><path d="M0,0H24V24H0Z" fill="none"/></svg>