<svg xmlns="http://www.w3.org/2000/svg" viewBox="0 0 24 24"><path d="M0,0H24V24H0Z" fill="none"/><path d="M19,15l1.8942-5.59711a2,2,0,0,0-.94769-2.40284L12.94677,3.2383a2,2,0,0,0-1.89354,0L4.05349,7.00005A2,2,0,0,0,3.1058,9.40289L5,15" fill="none" stroke="#323232" stroke-linecap="round" stroke-linejoin="round" stroke-width="1.5"/><path d="M19,15v2.20952a2.04326,2.04326,0,0,1-.7642,1.58061,9.903,9.903,0,0,1-12.4716,0A2.04326,2.04326,0,0,1,5,17.20952V15" fill="none" stroke="#323232" stroke-linecap="round" stroke-linejoin="round" stroke-width="1.5"/><path d="M11.76465,12.4767h0A2.19516,2.19516,0,0,1,10,10.32417V9.5a1,1,0,0,1,1-1h2a1,1,0,0,1,1,1v.82417a2.19514,2.19514,0,0,1-1.7646,2.15251h0A1.2,1.2,0,0,1,11.76465,12.4767Z" fill="none" stroke="#323232" stroke-linecap="round" stroke-linejoin="round" stroke-width="1.5"/><line x1="5" y1="15.5" x2="19" y2="15.5" fill="none" stroke="#323232" stroke-linecap="round" stroke-linejoin="round" stroke-width="1.5"/></svg>