<svg xmlns="http://www.w3.org/2000/svg" viewBox="0 0 24 24"><path d="M8,13.5l-.95431-3.052a1,1,0,0,1,.481-1.17929l3.99989-2.14959a1,1,0,0,1,.94676,0l3.99989,2.14959a1,1,0,0,1,.481,1.17929L16,13.5l0,1.39469a.99094.99094,0,0,1-.33056.754,5.658,5.658,0,0,1-7.33892,0A.99094.99094,0,0,1,8,14.89469Z" fill="none" stroke="#323232" stroke-linecap="round" stroke-linejoin="round" stroke-width="1.5"/><path d="M12.01,10.505l-.005.005L12,10.505l.005-.005.005.005" fill="none" stroke="#323232" stroke-linecap="round" stroke-linejoin="round" stroke-width="1.5"/><line x1="16" y1="13.5" x2="8" y2="13.5" fill="none" stroke="#323232" stroke-linecap="round" stroke-linejoin="round" stroke-width="1.5"/><circle cx="12" cy="12" r="9.5" fill="none" stroke="#323232" stroke-linecap="round" stroke-linejoin="round" stroke-width="1.5"/></svg>