<svg xmlns="http://www.w3.org/2000/svg" viewBox="0 0 24 24"><path d="M6.8991,20.62132,3.37868,17.1009A3,3,0,0,1,2.5,14.97958V9.02147a3,3,0,0,1,.87868-2.12132L6.90015,3.37868A3,3,0,0,1,9.02147,2.5h5.95706a3,3,0,0,1,2.12132.87868l3.52147,3.52147A3,3,0,0,1,21.5,9.02147v5.9581a3,3,0,0,1-.87835,2.121L17.1023,20.621a3,3,0,0,1-2.12165.879H9.02042A3,3,0,0,1,6.8991,20.62132Z" fill="none" stroke="#323232" stroke-linecap="round" stroke-linejoin="round" stroke-width="1.5"/><line x1="17" y1="11.00001" x2="7" y2="11.00001" fill="none" stroke="#323232" stroke-linecap="round" stroke-linejoin="round" stroke-width="1.5"/><circle cx="9.19245" cy="15.12501" r="1.625" fill="none" stroke="#323232" stroke-linecap="round" stroke-linejoin="round" stroke-width="1.5"/><circle cx="14.72791" cy="15.12501" r="1.625" fill="none" stroke="#323232" stroke-linecap="round" stroke-linejoin="round" stroke-width="1.5"/><line x1="13.10291" y1="14.90001" x2="10.81745" y2="14.90001" fill="none" stroke="#323232" stroke-linecap="round" stroke-linejoin="round" stroke-width="1.5"/><path d="M8.5,11l.58321-3.49755A1.19972,1.19972,0,0,1,10.26627,6.5h3.46647a1.19973,1.19973,0,0,1,1.18405,1.00245L15.5,11" fill="none" stroke="#323232" stroke-linecap="round" stroke-linejoin="round" stroke-width="1.5"/><rect width="24" height="24" fill="none"/></svg>