<svg xmlns="http://www.w3.org/2000/svg" viewBox="0 0 24 24"><line x1="14.50001" y1="9" x2="14.50001" y2="12.5" fill="none" stroke="#323232" stroke-linecap="round" stroke-linejoin="round" stroke-width="1.5"/><circle cx="14.50001" cy="14" r="1.5" fill="none" stroke="#323232" stroke-linecap="round" stroke-linejoin="round" stroke-width="1.5"/><line x1="9.50001" y1="15" x2="9.50001" y2="11.5" fill="none" stroke="#323232" stroke-linecap="round" stroke-linejoin="round" stroke-width="1.5"/><circle cx="9.50001" cy="10" r="1.5" fill="none" stroke="#323232" stroke-linecap="round" stroke-linejoin="round" stroke-width="1.5"/><path d="M20.12133,16.879l-3.24264,3.24264a3,3,0,0,1-2.12132.87868H9.24365a3,3,0,0,1-2.12132-.87868L3.87869,16.878A3,3,0,0,1,3,14.75666V9.24394a3,3,0,0,1,.87868-2.12132L7.12233,3.879A3,3,0,0,1,9.24365,3.0003h5.51372a3,3,0,0,1,2.121.87835L20.121,7.12029A3,3,0,0,1,21,9.24194v5.51572A3,3,0,0,1,20.12133,16.879Z" fill="none" stroke="#323232" stroke-linecap="round" stroke-linejoin="round" stroke-width="1.5"/></svg>