<svg xmlns="http://www.w3.org/2000/svg" viewBox="0 0 24 24"><path d="M-.024,0h24V24h-24Z" fill="none"/><path d="M10.94091,20.89514h0A9.87817,9.87817,0,0,1,3,11.2088V8A5,5,0,0,1,8,3h8a5,5,0,0,1,5,5v3.20876a9.87819,9.87819,0,0,1-7.94069,9.68631l-.00023,0A5.4,5.4,0,0,1,10.94091,20.89514Z" fill="none" stroke="#323232" stroke-linecap="round" stroke-linejoin="round" stroke-width="1.5"/><rect x="6.47599" y="7.50001" width="11" height="7" rx="3.5" stroke-width="1.5" stroke="#323232" stroke-linecap="round" stroke-linejoin="round" fill="none"/><path d="M9.495,11l.005.005L9.505,11,9.5,10.995,9.495,11" fill="none" stroke="#323232" stroke-linecap="round" stroke-linejoin="round" stroke-width="1.5"/><path d="M11.995,11l.005.005L12.005,11,12,10.995,11.995,11" fill="none" stroke="#323232" stroke-linecap="round" stroke-linejoin="round" stroke-width="1.5"/><path d="M14.495,11l.005.005L14.505,11l-.005-.005L14.495,11" fill="none" stroke="#323232" stroke-linecap="round" stroke-linejoin="round" stroke-width="1.5"/></svg>