<svg xmlns="http://www.w3.org/2000/svg" viewBox="0 0 24 24"><path d="M3,8V6A3,3,0,0,1,6,3H7" fill="none" stroke="#323232" stroke-linecap="round" stroke-linejoin="round" stroke-width="1.5"/><path d="M21,15v3a3,3,0,0,1-3,3H15" fill="none" stroke="#323232" stroke-linecap="round" stroke-linejoin="round" stroke-width="1.5"/><path d="M7.41162,20.94174h0A5.48789,5.48789,0,0,1,3,15.56043V14a3,3,0,0,1,3-3h4a3,3,0,0,1,3,3v1.56042A5.48788,5.48788,0,0,1,8.5885,20.9417l-.00012,0A3,3,0,0,1,7.41162,20.94174Z" fill="none" stroke="#323232" stroke-linecap="round" stroke-linejoin="round" stroke-width="1.5"/><polyline points="6.726 15.5 7.726 16.5 9.226 15" fill="none" stroke="#323232" stroke-linecap="round" stroke-linejoin="round" stroke-width="1.5"/><path d="M16,12h2.75A2.25,2.25,0,0,0,21,9.75V5.25A2.25,2.25,0,0,0,18.75,3h-6.5A2.25,2.25,0,0,0,10,5.25V8" fill="none" stroke="#323232" stroke-linecap="round" stroke-linejoin="round" stroke-width="1.5"/><path d="M13,6.5l1.98914.89079a1.25,1.25,0,0,0,1.02181,0L18,6.5" fill="none" stroke="#323232" stroke-linecap="round" stroke-linejoin="round" stroke-width="1.5"/><path d="M0,24H24V0H0Z" fill="none"/></svg>