<svg xmlns="http://www.w3.org/2000/svg" viewBox="0 0 24 24"><path d="M10,3H6A3,3,0,0,0,3,6V9" fill="none" stroke="#323232" stroke-linecap="round" stroke-linejoin="round" stroke-width="1.5"/><path d="M14,21h4a3,3,0,0,0,3-3V15" fill="none" stroke="#323232" stroke-linecap="round" stroke-linejoin="round" stroke-width="1.5"/><line x1="19.40132" y1="9.40132" x2="21" y2="11" fill="none" stroke="#323232" stroke-linecap="round" stroke-linejoin="round" stroke-width="1.5"/><circle cx="16.75" cy="6.75002" r="3.75" fill="none" stroke="#323232" stroke-linecap="round" stroke-linejoin="round" stroke-width="1.5"/><line x1="6.375" y1="15.125" x2="8.625" y2="17.375" fill="none" stroke="#323232" stroke-linecap="round" stroke-linejoin="round" stroke-width="1.5"/><line x1="8.625" y1="15.125" x2="6.375" y2="17.375" fill="none" stroke="#323232" stroke-linecap="round" stroke-linejoin="round" stroke-width="1.5"/><path d="M6.97046,20.91632h0A4.93911,4.93911,0,0,1,3,16.07313V14.46875a2.5,2.5,0,0,1,2.5-2.5h4a2.5,2.5,0,0,1,2.5,2.5v1.60438a4.9391,4.9391,0,0,1-3.97035,4.84316l-.00011,0A2.70006,2.70006,0,0,1,6.97046,20.91632Z" fill="none" stroke="#323232" stroke-linecap="round" stroke-linejoin="round" stroke-width="1.5"/></svg>