<?xml version="1.0" encoding="UTF-8"?><svg version="1.1" viewBox="0 0 24 24" xmlns="http://www.w3.org/2000/svg" xmlns:xlink="http://www.w3.org/1999/xlink"><g fill="none"><path d="M0 0h24v24h-24v-24Z"></path><path stroke="#323232" stroke-linecap="round" stroke-linejoin="round" stroke-width="1.5" d="M7.627 12.873c0 1.853 2.595 3.23 3.787 3.765 .376.169.795.169 1.171 0 1.192-.535 3.787-1.912 3.787-3.765v-3.26c0-.615-.386-1.164-.964-1.372l-2.225-.8c-.766-.276-1.605-.276-2.371 0l-2.222.8c-.577.209-.963.758-.963 1.373v3.259Z"></path><path stroke="#323232" stroke-linecap="round" stroke-linejoin="round" stroke-width="1.5" d="M21 7.235v9.529c0 2.34-1.896 4.236-4.235 4.236h-9.53c-2.339 0-4.235-1.896-4.235-4.235v-9.53c0-2.339 1.896-4.235 4.235-4.235h9.529c2.34 0 4.236 1.896 4.236 4.235Z"></path></g></svg>