<svg xmlns="http://www.w3.org/2000/svg" viewBox="0 0 24 24"><line x1="19.47476" y1="8.47476" x2="21" y2="10" fill="none" stroke="#323232" stroke-linecap="round" stroke-linejoin="round" stroke-width="1.5"/><path d="M3,9V7A4,4,0,0,1,7,3h3" fill="none" stroke="#323232" stroke-linecap="round" stroke-linejoin="round" stroke-width="1.5"/><path d="M21,14v3a4,4,0,0,1-4,4H14" fill="none" stroke="#323232" stroke-linecap="round" stroke-linejoin="round" stroke-width="1.5"/><path d="M6.97046,20.94757h0A4.93909,4.93909,0,0,1,3,16.1044V14.5A2.5,2.5,0,0,1,5.5,12h4A2.5,2.5,0,0,1,12,14.5v1.60438a4.93908,4.93908,0,0,1-3.97035,4.84315l-.00011,0A2.70006,2.70006,0,0,1,6.97046,20.94757Z" fill="none" stroke="#323232" stroke-linecap="round" stroke-linejoin="round" stroke-width="1.5"/><circle cx="17" cy="6" r="3.5" fill="none" stroke="#323232" stroke-linecap="round" stroke-linejoin="round" stroke-width="1.5"/><rect width="24" height="24" fill="none"/></svg>