<svg xmlns="http://www.w3.org/2000/svg" viewBox="0 0 24 24"><path d="M0,0H24V24H0Z" fill="none"/><path d="M10.94091,20.89514h0A9.87816,9.87816,0,0,1,3,11.20879V8A5,5,0,0,1,8,3h8a5,5,0,0,1,5,5v3.20876a9.87819,9.87819,0,0,1-7.94069,9.68631l-.00023,0A5.40017,5.40017,0,0,1,10.94091,20.89514Z" fill="none" stroke="#323232" stroke-linecap="round" stroke-linejoin="round" stroke-width="1.5"/><path d="M14.74374,9.14853c.00835.23389.00835.46907,0,.703A2.74665,2.74665,0,0,1,12,12.5h0A2.74665,2.74665,0,0,1,9.25626,9.85148c-.00835-.23388-.00835-.46906,0-.70294A2.74665,2.74665,0,0,1,12,6.5h0A2.74665,2.74665,0,0,1,14.74374,9.14853Z" fill="none" stroke="#323232" stroke-linecap="round" stroke-linejoin="round" stroke-width="1.5"/><path d="M7.5,16a10.625,10.625,0,0,1,9,0" fill="none" stroke="#323232" stroke-linecap="round" stroke-linejoin="round" stroke-width="1.5"/></svg>