<svg xmlns="http://www.w3.org/2000/svg" viewBox="0 0 24 24"><path d="M11.5293,16.45339h0A4.39031,4.39031,0,0,1,8,12.14834V11a2.5,2.5,0,0,1,2.5-2.5h3A2.5,2.5,0,0,1,16,11v1.14834a4.39029,4.39029,0,0,1-3.5292,4.305l-.0001,0A2.39972,2.39972,0,0,1,11.5293,16.45339Z" fill="none" stroke="#323232" stroke-linecap="round" stroke-linejoin="round" stroke-width="1.5"/><path d="M12,3H8A5,5,0,0,0,3,8v8a5,5,0,0,0,5,5h8a5,5,0,0,0,5-5V12" fill="none" stroke="#323232" stroke-linecap="round" stroke-linejoin="round" stroke-width="1.5"/><path d="M18.342,2.39016a.75.75,0,0,1,1.3161,0l.5846,1.069a.74993.74993,0,0,0,.29818.29818l1.069.5846a.75.75,0,0,1,0,1.3161l-1.069.5846a.74993.74993,0,0,0-.29818.29818l-.5846,1.069a.75.75,0,0,1-1.3161,0l-.5846-1.069a.74993.74993,0,0,0-.29818-.29818l-1.069-.5846a.75.75,0,0,1,0-1.3161l1.069-.5846a.74993.74993,0,0,0,.29818-.29818Z" fill="none" stroke="#323232" stroke-linecap="round" stroke-linejoin="round" stroke-width="1.5"/><path d="M0,0H24V24H0Z" fill="none"/></svg>