<?xml version="1.0" encoding="UTF-8"?><svg version="1.1" viewBox="0 0 24 24" xmlns="http://www.w3.org/2000/svg" xmlns:xlink="http://www.w3.org/1999/xlink"><defs><path d="M0 0h24v24h-24v-24Z" id="a"></path></defs><g fill="none"><use xlink:href="#a"></use><use xlink:href="#a"></use><path stroke="#323232" stroke-linecap="round" stroke-linejoin="round" stroke-width="1.5" d="M20 9.478v-3.478c0-1.105-.895-2-2-2h-3"></path><path stroke="#323232" stroke-linecap="round" stroke-linejoin="round" stroke-width="1.5" d="M3 9.108c0 1.853 2.595 3.23 3.787 3.765 .376.169.795.169 1.171 0 1.192-.535 3.787-1.912 3.787-3.765v-3.73c0-.615-.386-1.164-.964-1.372l-2.225-.8c-.766-.276-1.605-.276-2.371 0l-2.222.8c-.577.209-.963.758-.963 1.372v3.73Z"></path><path stroke="#323232" stroke-linecap="round" stroke-linejoin="round" stroke-width="1.5" d="M3 15v3c0 1.105.895 2 2 2h6"></path><path stroke="#323232" stroke-linecap="round" stroke-linejoin="round" stroke-width="1.5" d="M19.121 13.879c1.298 1.298 1.158 3.487-.418 4.594 -1.003.704-2.404.704-3.407 0 -1.577-1.106-1.716-3.296-.418-4.594 1.172-1.172 3.072-1.172 4.243 1.77636e-15"></path><path stroke="#323232" stroke-linecap="round" stroke-linejoin="round" stroke-width="1.5" d="M21 20l-1.88-1.88"></path></g></svg>