<svg xmlns="http://www.w3.org/2000/svg" viewBox="0 0 24 24"><line x1="15" y1="14.00006" x2="11.5" y2="13.99996" fill="none" stroke="#323232" stroke-linecap="round" stroke-linejoin="round" stroke-width="1.5"/><circle cx="10" cy="14.00001" r="1.5" fill="none" stroke="#323232" stroke-linecap="round" stroke-linejoin="round" stroke-width="1.5"/><line x1="9" y1="8.99996" x2="12.5" y2="9.00006" fill="none" stroke="#323232" stroke-linecap="round" stroke-linejoin="round" stroke-width="1.5"/><circle cx="14" cy="9.00001" r="1.5" fill="none" stroke="#323232" stroke-linecap="round" stroke-linejoin="round" stroke-width="1.5"/><path d="M10.9169,20.89514h0A9.87817,9.87817,0,0,1,2.976,11.2088V8a5,5,0,0,1,5-5h8a5,5,0,0,1,5,5v3.20876a9.87819,9.87819,0,0,1-7.94069,9.68631l-.00023,0A5.4,5.4,0,0,1,10.9169,20.89514Z" fill="none" stroke="#323232" stroke-linecap="round" stroke-linejoin="round" stroke-width="1.5"/><path d="M0,0H24V24H0Z" fill="none"/></svg>