<svg xmlns="http://www.w3.org/2000/svg" viewBox="0 0 24 24"><path d="M10.9169,20.89514h0A9.87817,9.87817,0,0,1,2.976,11.2088V8a5,5,0,0,1,5-5h8a5,5,0,0,1,5,5v3.20876a9.87819,9.87819,0,0,1-7.94069,9.68631l-.00023,0A5.4,5.4,0,0,1,10.9169,20.89514Z" fill="none" stroke="#323232" stroke-linecap="round" stroke-linejoin="round" stroke-width="1.5"/><path d="M9.37349,12.389l-1.0789-1.07679A1,1,0,0,1,8.83842,9.6177L10.26284,9.383l.85469-1.60338a1,1,0,0,1,1.76494,0L13.73716,9.383l1.42442.23472a1,1,0,0,1,.54383,1.69446L14.62651,12.389l.25922,1.70919a1,1,0,0,1-1.42647,1.049L12,14.43671l-1.45926.71046a1,1,0,0,1-1.42647-1.049Z" fill="none" stroke="#323232" stroke-linecap="round" stroke-linejoin="round" stroke-width="1.5"/><path d="M-.024,0h24V24h-24Z" fill="none"/></svg>