<svg xmlns="http://www.w3.org/2000/svg" viewBox="0 0 24 24"><path d="M17,17l-2.44721-1.22361A1,1,0,0,1,14,14.882v-.605a1,1,0,0,1,.14251-.51449l.85872-1.4312A3.5,3.5,0,0,0,15.5,10.53056V9.41547A3.30508,3.30508,0,0,0,15.029,7.715h0A3.53237,3.53237,0,0,0,12,6h0A3.53237,3.53237,0,0,0,8.971,7.715h0A3.30508,3.30508,0,0,0,8.5,9.41547v1.11509a3.5,3.5,0,0,0,.49877,1.80073l.85872,1.4312A1,1,0,0,1,10,14.277v.605a1,1,0,0,1-.55279.89442L7,17" fill="none" stroke="#323232" stroke-linecap="round" stroke-linejoin="round" stroke-width="1.5"/><path d="M16,21h2a3,3,0,0,0,3-3V16" fill="none" stroke="#323232" stroke-linecap="round" stroke-linejoin="round" stroke-width="1.5"/><path d="M16,3h2a3,3,0,0,1,3,3V8" fill="none" stroke="#323232" stroke-linecap="round" stroke-linejoin="round" stroke-width="1.5"/><path d="M3,16v2a3,3,0,0,0,3,3H8" fill="none" stroke="#323232" stroke-linecap="round" stroke-linejoin="round" stroke-width="1.5"/><path d="M3,8V6A3,3,0,0,1,6,3H8" fill="none" stroke="#323232" stroke-linecap="round" stroke-linejoin="round" stroke-width="1.5"/></svg>