<svg xmlns="http://www.w3.org/2000/svg" viewBox="0 0 24 24"><rect width="24" height="24" fill="none"/><rect x="3" y="3" width="18" height="18" rx="5" stroke-width="1.5" stroke="#323232" stroke-linecap="round" stroke-linejoin="round" fill="none"/><path d="M12.08833,13.91156a.125.125,0,1,1-.17678.00012h0v-.00012a.125.125,0,0,1,.17668,0" fill="none" stroke="#323232" stroke-linecap="round" stroke-linejoin="round" stroke-width="1.5"/><path d="M15.5,11h-7A1.5,1.5,0,0,1,7,9.5v-1a1,1,0,0,1,1-1h8a1,1,0,0,1,1,1v1A1.5,1.5,0,0,1,15.5,11Z" fill="none" stroke="#323232" stroke-linecap="round" stroke-linejoin="round" stroke-width="1.5"/><path d="M8.03815,10.92A4.40993,4.40993,0,0,0,7.5,13a4.5,4.5,0,0,0,9,0,4.40993,4.40993,0,0,0-.53815-2.08" fill="none" stroke="#323232" stroke-linecap="round" stroke-linejoin="round" stroke-width="1.5"/></svg>