<svg xmlns="http://www.w3.org/2000/svg" viewBox="0 0 24 24"><path d="M11.91167,10.08844a.125.125,0,1,1,.17678-.00012h0v.00012a.125.125,0,0,1-.17668,0" fill="none" stroke="#323232" stroke-linecap="round" stroke-linejoin="round" stroke-width="1.5"/><path d="M8.5,13h7A1.5,1.5,0,0,1,17,14.5v1a1,1,0,0,1-1,1H8a1,1,0,0,1-1-1v-1A1.5,1.5,0,0,1,8.5,13Z" fill="none" stroke="#323232" stroke-linecap="round" stroke-linejoin="round" stroke-width="1.5"/><path d="M15.96185,13.08A4.40993,4.40993,0,0,0,16.5,11a4.5,4.5,0,0,0-9,0,4.40993,4.40993,0,0,0,.53815,2.08" fill="none" stroke="#323232" stroke-linecap="round" stroke-linejoin="round" stroke-width="1.5"/><rect x="3" y="3" width="18" height="18" rx="5" transform="translate(24 24) rotate(180)" stroke-width="1.5" stroke="#323232" stroke-linecap="round" stroke-linejoin="round" fill="none"/></svg>