<?xml version="1.0" encoding="UTF-8"?><svg version="1.1" viewBox="0 0 24 24" xmlns="http://www.w3.org/2000/svg" xmlns:xlink="http://www.w3.org/1999/xlink"><!--Generated by IJSVG (https://github.com/iconjar/IJSVG)--><g stroke-linecap="round" stroke-width="1.5" stroke="#323232" fill="none" stroke-linejoin="round"><path d="M3,16.618v0c1.146,-0.509 2.454,-0.509 3.6,0v0c1.146,0.509 2.454,0.509 3.6,0v0c1.146,-0.509 2.454,-0.509 3.6,0v0c1.146,0.509 2.454,0.509 3.6,0v0c1.146,-0.509 2.454,-0.509 3.6,0v0"></path><path d="M8,8h8"></path><path d="M8,12h8"></path><path d="M16,14v-9.5c0,-0.828 0.672,-1.5 1.5,-1.5v0c0.828,0 1.5,0.672 1.5,1.5"></path><path d="M8,14v-9.5c0,-0.828 0.672,-1.5 1.5,-1.5v0c0.828,0 1.5,0.672 1.5,1.5"></path><path d="M3,20.618v0c1.146,-0.509 2.454,-0.509 3.6,0v0c1.146,0.509 2.454,0.509 3.6,0v0c1.146,-0.509 2.454,-0.509 3.6,0v0c1.146,0.509 2.454,0.509 3.6,0v0c1.146,-0.509 2.454,-0.509 3.6,0v0"></path></g><path fill="none" d="M0,0h24v24h-24v-24Z"></path></svg>